<?xml version="1.0" encoding="iso-8859-1"?>
<!-- Generator: Adobe Illustrator 19.0.0, SVG Export Plug-In . SVG Version: 6.00 Build 0)  -->
<svg version="1.1" id="Layer_1" xmlns="http://www.w3.org/2000/svg" xmlns:xlink="http://www.w3.org/1999/xlink" x="0px" y="0px"
	 viewBox="0 0 512.004 512.004" style="enable-background:new 0 0 512.004 512.004;" xml:space="preserve">
<g>
	<path style="fill:#B12621;" d="M0,457.146h512v-27.429H0V457.146z"/>
	<path style="fill:#EDEBDA;" d="M256,420.574L256,420.574c-72.037-28.809-149.294-39.643-219.429-9.143h-9.143V73.146h9.143
		c68.27-24.384,151.159-24.384,219.429,0l0,0V420.574z"/>
	<path style="fill:#CEC9AE;" d="M256,420.574L256,420.574c75.995-29.029,154.459-39.543,219.429-9.143h8.997V73.146h-8.997
		c-71.141-24.384-148.672-24.384-219.429,0V420.574z"/>
	<path style="fill:#DD342E;" d="M484.429,73.146v338.286h-8.997c-64.978-30.4-143.433-19.886-219.429,9.143
		c-72.046-28.809-149.294-39.643-219.429-9.143h-9.143V73.146H0.004v356.571h512V73.146H484.429z"/>
	<g>
		<path style="fill:#CEC9AE;" d="M201.143,146.289h-82.286c-5.047,0-9.143-4.087-9.143-9.143s4.096-9.143,9.143-9.143h82.286
			c5.047,0,9.143,4.087,9.143,9.143S206.19,146.289,201.143,146.289"/>
		<path style="fill:#CEC9AE;" d="M82.286,146.289c-2.469,0-4.754-0.923-6.491-2.651c-1.737-1.737-2.651-4.023-2.651-6.491
			c0-1.189,0.274-2.377,0.731-3.474c0.457-1.189,1.097-2.103,1.92-3.017c2.56-2.469,6.583-3.383,9.966-1.92
			c1.189,0.457,2.103,1.097,3.017,1.92c0.823,0.914,1.463,1.92,1.92,3.017c0.457,1.097,0.731,2.286,0.731,3.474
			c0,2.469-0.914,4.754-2.651,6.491C87.04,145.365,84.754,146.289,82.286,146.289"/>
		<path style="fill:#CEC9AE;" d="M201.143,192.003H82.286c-5.047,0-9.143-4.087-9.143-9.143c0-5.056,4.096-9.143,9.143-9.143
			h118.857c5.047,0,9.143,4.087,9.143,9.143C210.286,187.916,206.19,192.003,201.143,192.003"/>
		<path style="fill:#CEC9AE;" d="M164.571,237.717H82.286c-5.047,0-9.143-4.087-9.143-9.143c0-5.056,4.096-9.143,9.143-9.143h82.286
			c5.047,0,9.143,4.087,9.143,9.143C173.714,233.63,169.618,237.717,164.571,237.717"/>
		<path style="fill:#CEC9AE;" d="M201.143,237.717c-2.469,0-4.754-0.923-6.491-2.651c-1.737-1.737-2.651-4.023-2.651-6.491
			c0-2.377,1.006-4.763,2.651-6.491c3.474-3.383,9.509-3.383,12.983,0c1.646,1.728,2.651,4.114,2.651,6.491
			c0,2.469-0.914,4.754-2.651,6.491C205.897,236.794,203.611,237.717,201.143,237.717"/>
		<path style="fill:#CEC9AE;" d="M201.143,283.432h-82.286c-5.047,0-9.143-4.087-9.143-9.143c0-5.056,4.096-9.143,9.143-9.143
			h82.286c5.047,0,9.143,4.087,9.143,9.143C210.286,279.345,206.19,283.432,201.143,283.432"/>
		<path style="fill:#CEC9AE;" d="M82.286,283.432c-2.469,0-4.754-0.923-6.491-2.651c-1.737-1.737-2.651-4.023-2.651-6.491
			c0-1.189,0.274-2.377,0.731-3.474c0.457-1.189,1.097-2.103,1.92-3.017c3.383-3.383,9.509-3.383,12.983,0
			c0.823,0.914,1.463,1.829,1.92,3.017c0.457,1.097,0.731,2.286,0.731,3.474c0,2.469-0.914,4.754-2.651,6.491
			c-0.914,0.823-1.92,1.463-3.017,1.92C84.663,283.157,83.474,283.432,82.286,283.432"/>
		<path style="fill:#CEC9AE;" d="M201.143,329.146H82.286c-5.047,0-9.143-4.087-9.143-9.143s4.096-9.143,9.143-9.143h118.857
			c5.047,0,9.143,4.087,9.143,9.143S206.19,329.146,201.143,329.146"/>
	</g>
	<g>
		<path style="fill:#EDEBDA;" d="M393.143,192.003h-82.286c-5.047,0-9.143-4.087-9.143-9.143c0-5.056,4.096-9.143,9.143-9.143
			h82.286c5.047,0,9.143,4.087,9.143,9.143C402.286,187.916,398.19,192.003,393.143,192.003"/>
		<path style="fill:#EDEBDA;" d="M438.857,192.003c-2.469,0-4.754-0.923-6.491-2.651c-0.823-0.923-1.463-1.92-1.92-3.017
			c-0.549-1.097-0.731-2.286-0.731-3.474c0-2.377,1.006-4.763,2.651-6.491c0.914-0.823,1.92-1.463,3.017-1.92
			c3.383-1.463,7.406-0.64,9.966,1.92c1.646,1.728,2.651,4.114,2.651,6.491c0,1.189-0.183,2.377-0.731,3.474
			c-0.457,1.097-1.097,2.094-1.92,3.017C443.611,191.08,441.326,192.003,438.857,192.003"/>
		<path style="fill:#EDEBDA;" d="M438.857,146.289h-128c-5.047,0-9.143-4.087-9.143-9.143s4.096-9.143,9.143-9.143h128
			c5.047,0,9.143,4.087,9.143,9.143S443.904,146.289,438.857,146.289"/>
		<path style="fill:#EDEBDA;" d="M438.857,329.146h-91.429c-5.047,0-9.143-4.087-9.143-9.143s4.096-9.143,9.143-9.143h91.429
			c5.047,0,9.143,4.087,9.143,9.143S443.904,329.146,438.857,329.146"/>
		<path style="fill:#EDEBDA;" d="M310.857,329.146c-1.189,0-2.377-0.274-3.474-0.731c-1.097-0.457-2.103-1.097-3.017-1.92
			c-1.737-1.737-2.651-4.023-2.651-6.491c0-2.377,1.006-4.763,2.651-6.491c3.383-3.383,9.509-3.383,12.983,0
			c1.646,1.728,2.651,4.114,2.651,6.491c0,2.469-0.914,4.754-2.651,6.491c-0.914,0.823-1.92,1.463-3.017,1.92
			C313.234,328.872,312.046,329.146,310.857,329.146"/>
		<path style="fill:#EDEBDA;" d="M393.143,283.432h-82.286c-5.047,0-9.143-4.087-9.143-9.143c0-5.056,4.096-9.143,9.143-9.143
			h82.286c5.047,0,9.143,4.087,9.143,9.143C402.286,279.345,398.19,283.432,393.143,283.432"/>
		<path style="fill:#EDEBDA;" d="M438.857,283.432c-2.469,0-4.754-0.923-6.491-2.651c-1.737-1.737-2.651-4.023-2.651-6.491
			c0-1.189,0.274-2.377,0.731-3.474s1.097-2.103,1.92-3.017c2.56-2.56,6.583-3.383,9.966-1.92c1.097,0.457,2.103,1.097,3.017,1.92
			c0.823,0.914,1.463,1.92,1.92,3.017c0.549,1.097,0.731,2.286,0.731,3.474c0,1.189-0.183,2.377-0.731,3.474
			c-0.457,1.097-1.097,2.094-1.92,3.017C443.611,282.508,441.326,283.432,438.857,283.432"/>
		<path style="fill:#EDEBDA;" d="M438.857,237.717h-128c-5.047,0-9.143-4.087-9.143-9.143c0-5.056,4.096-9.143,9.143-9.143h128
			c5.047,0,9.143,4.087,9.143,9.143C448,233.63,443.904,237.717,438.857,237.717"/>
	</g>
</g>
<g>
</g>
<g>
</g>
<g>
</g>
<g>
</g>
<g>
</g>
<g>
</g>
<g>
</g>
<g>
</g>
<g>
</g>
<g>
</g>
<g>
</g>
<g>
</g>
<g>
</g>
<g>
</g>
<g>
</g>
</svg>
