<?xml version="1.0" encoding="UTF-8" standalone="no"?>
<!-- Generator: Adobe Illustrator 19.0.0, SVG Export Plug-In . SVG Version: 6.00 Build 0)  -->

<svg
   xmlns:dc="http://purl.org/dc/elements/1.1/"
   xmlns:cc="http://creativecommons.org/ns#"
   xmlns:rdf="http://www.w3.org/1999/02/22-rdf-syntax-ns#"
   xmlns:svg="http://www.w3.org/2000/svg"
   xmlns="http://www.w3.org/2000/svg"
   xmlns:sodipodi="http://sodipodi.sourceforge.net/DTD/sodipodi-0.dtd"
   xmlns:inkscape="http://www.inkscape.org/namespaces/inkscape"
   version="1.1"
   id="Capa_1"
   x="0px"
   y="0px"
   viewBox="0 0 460 460"
   style="enable-background:new 0 0 460 460;"
   xml:space="preserve"
   width="512"
   height="512"
   sodipodi:docname="002-book.svg"
   inkscape:version="0.92.1 r15371"><metadata
   id="metadata18"><rdf:RDF><cc:Work
       rdf:about=""><dc:format>image/svg+xml</dc:format><dc:type
         rdf:resource="http://purl.org/dc/dcmitype/StillImage" /></cc:Work></rdf:RDF></metadata><defs
   id="defs16" /><sodipodi:namedview
   pagecolor="#ffffff"
   bordercolor="#666666"
   borderopacity="1"
   objecttolerance="10"
   gridtolerance="10"
   guidetolerance="10"
   inkscape:pageopacity="0"
   inkscape:pageshadow="2"
   inkscape:window-width="1366"
   inkscape:window-height="705"
   id="namedview14"
   showgrid="false"
   inkscape:zoom="0.65186406"
   inkscape:cx="387.73416"
   inkscape:cy="315.02066"
   inkscape:window-x="-8"
   inkscape:window-y="-8"
   inkscape:window-maximized="1"
   inkscape:current-layer="XMLID_1618_" />
<g
   id="XMLID_1618_">
	<path
   id="XMLID_482_"
   style="fill:#798751;stroke:#000000;stroke-width:6.86840296"
   d="M 440.88828,380.58441 H 20.422562 c -5.2778,0 -9.556039,-4.27824 -9.556039,-9.55604 V 84.347198 c 0,-5.277801 4.278239,-9.556039 9.556039,-9.556039 H 440.88828 c 5.2778,0 9.55604,4.278238 9.55604,9.556039 V 371.02837 c 0,5.2778 -4.27824,9.55604 -9.55604,9.55604 z"
   inkscape:connector-curvature="0" />
	<path
   id="XMLID_481_"
   style="fill:#283215;stroke-width:7.1875;stroke:#000000"
   d="M 249.7675,380.58441 H 211.54334 V 74.791159 h 38.22416 z"
   inkscape:connector-curvature="0" />
	<path
   id="XMLID_479_"
   style="fill:#aca082;stroke:#000000;stroke-width:6.86840296"
   d="m 431.33224,304.13609 v 47.7802 c 0,5.2778 -4.27824,9.55604 -9.55604,9.55604 H 259.32354 c -15.8334,0 -28.66812,-12.83472 -28.66812,-28.66812 0,15.8334 -12.83472,28.66812 -28.66812,28.66812 H 39.534641 c -5.277801,0 -9.556039,-4.27824 -9.556039,-9.55604 v -47.7802 H 201.9873 c 15.8334,0 28.66812,12.83472 28.66812,28.66812 0,-15.83245 12.83472,-28.66812 28.66812,-28.66812 z"
   inkscape:connector-curvature="0" />
	<path
   id="XMLID_449_"
   style="fill:#d5c9ab;stroke:#000000;stroke-width:6.86840296"
   d="M 431.33224,55.67908 V 332.80421 H 230.65542 29.978602 V 55.67908 c 0,-5.2778 4.278238,-9.556039 9.556039,-9.556039 H 201.9873 c 15.8334,0 28.66812,12.834716 28.66812,28.668118 0,-15.833402 12.83472,-28.668118 28.66812,-28.668118 H 421.7762 c 5.2778,0 9.55604,4.278239 9.55604,9.556039 z"
   inkscape:connector-curvature="0" />
	<path
   id="XMLID_2813_"
   style="fill:#b2aa92;stroke-width:0.9556039"
   d="M 407.44214,84.347198 H 292.76967 c -2.63842,0 -4.77802,-2.139598 -4.77802,-4.77802 v 0 c 0,-2.638422 2.1396,-4.778019 4.77802,-4.778019 h 114.67247 c 2.63843,0 4.77802,2.139597 4.77802,4.778019 v 0 c 0,2.638422 -2.13959,4.77802 -4.77802,4.77802 z m 4.77802,14.334055 v 0 c 0,-2.63842 -2.13959,-4.778016 -4.77802,-4.778016 H 292.76967 c -2.63842,0 -4.77802,2.139596 -4.77802,4.778016 v 0 c 0,2.638427 2.1396,4.778017 4.77802,4.778017 h 114.67247 c 2.63843,0 4.77802,-2.13959 4.77802,-4.778017 z m 0,19.112077 v 0 c 0,-2.63842 -2.13959,-4.77802 -4.77802,-4.77802 H 254.54552 c -2.63842,0 -4.77802,2.1396 -4.77802,4.77802 v 0 c 0,2.63842 2.1396,4.77802 4.77802,4.77802 h 152.89662 c 2.63843,0 4.77802,-2.1396 4.77802,-4.77802 z m -19.11208,38.22416 v 0 c 0,-2.63842 -2.13959,-4.77802 -4.77802,-4.77802 H 254.54552 c -2.63842,0 -4.77802,2.1396 -4.77802,4.77802 v 0 c 0,2.63842 2.1396,4.77802 4.77802,4.77802 h 133.78454 c 2.63843,0 4.77802,-2.1396 4.77802,-4.77802 z m 19.11208,19.11208 v 0 c 0,-2.63843 -2.13959,-4.77802 -4.77802,-4.77802 H 254.54552 c -2.63842,0 -4.77802,2.13959 -4.77802,4.77802 v 0 c 0,2.63842 2.1396,4.77802 4.77802,4.77802 h 152.89662 c 2.63843,0 4.77802,-2.1396 4.77802,-4.77802 z m -9.55604,19.11207 v 0 c 0,-2.63842 -2.13959,-4.77802 -4.77802,-4.77802 H 254.54552 c -2.63842,0 -4.77802,2.1396 -4.77802,4.77802 v 0 c 0,2.63843 2.1396,4.77802 4.77802,4.77802 H 397.8861 c 2.63843,0 4.77802,-2.13959 4.77802,-4.77802 z m 9.55604,19.11208 v 0 c 0,-2.63842 -2.13959,-4.77802 -4.77802,-4.77802 H 254.54552 c -2.63842,0 -4.77802,2.1396 -4.77802,4.77802 v 0 c 0,2.63842 2.1396,4.77802 4.77802,4.77802 h 152.89662 c 2.63843,0 4.77802,-2.1396 4.77802,-4.77802 z m -19.11208,19.11208 v 0 c 0,-2.63842 -2.13959,-4.77802 -4.77802,-4.77802 H 254.54552 c -2.63842,0 -4.77802,2.1396 -4.77802,4.77802 v 0 c 0,2.63842 2.1396,4.77802 4.77802,4.77802 h 133.78454 c 2.63843,0 4.77802,-2.1396 4.77802,-4.77802 z m 19.11208,19.11208 v 0 c 0,-2.63842 -2.13959,-4.77802 -4.77802,-4.77802 H 254.54552 c -2.63842,0 -4.77802,2.1396 -4.77802,4.77802 v 0 c 0,2.63842 2.1396,4.77802 4.77802,4.77802 h 152.89662 c 2.63843,0 4.77802,-2.1396 4.77802,-4.77802 z m -9.55604,19.11208 v 0 c 0,-2.63843 -2.13959,-4.77802 -4.77802,-4.77802 H 254.54552 c -2.63842,0 -4.77802,2.13959 -4.77802,4.77802 v 0 c 0,2.63842 2.1396,4.77802 4.77802,4.77802 H 397.8861 c 2.63843,0 4.77802,-2.1396 4.77802,-4.77802 z M 278.43562,98.681253 V 79.569178 c 0,-2.638422 -2.1396,-4.778019 -4.77802,-4.778019 h -19.11208 c -2.63842,0 -4.77802,2.139597 -4.77802,4.778019 v 19.112075 c 0,2.638427 2.1396,4.778017 4.77802,4.778017 h 19.11208 c 2.63842,0 4.77802,-2.13959 4.77802,-4.778017 z M 407.44214,304.13609 h -9.55604 c -2.63842,0 -4.77802,2.1396 -4.77802,4.77802 v 0 c 0,2.63843 2.1396,4.77802 4.77802,4.77802 h 9.55604 c 2.63843,0 4.77802,-2.13959 4.77802,-4.77802 v 0 c 0,-2.63842 -2.13959,-4.77802 -4.77802,-4.77802 z"
   inkscape:connector-curvature="0" />
	<path
   id="XMLID_478_"
   style="fill:#958b71;stroke-width:0.9556039"
   d="m 307.10373,351.91629 c -31.66584,0 -57.33623,-2.1396 -57.33623,-4.77802 0,-2.63842 25.67039,-4.77802 57.33623,-4.77802 31.66585,0 57.33624,2.1396 57.33624,4.77802 0,2.63842 -25.67039,4.77802 -57.33624,4.77802 z"
   inkscape:connector-curvature="0" />
	<path
   id="XMLID_453_"
   style="fill:#b04230;stroke:#000000;stroke-width:6.86840296"
   d="m 335.77185,423.58658 -28.66812,-9.55604 -28.66811,9.55604 v -72.6259 c 0,-2.11092 1.71148,-3.82241 3.82241,-3.82241 h 49.6914 c 2.11093,0 3.82242,1.71149 3.82242,3.82241 z"
   inkscape:connector-curvature="0" />
	<path
   id="XMLID_464_"
   style="fill:#d8c8a7;stroke:#000000;stroke-width:6.86840296"
   d="m 230.65542,332.80421 v 0 c 0,15.8334 -12.83472,28.66812 -28.66812,28.66812 H 39.534641 c -5.277801,0 -9.556039,-4.27824 -9.556039,-9.55604 v -47.7802 H 201.9873 c 15.8334,0 28.66812,12.83472 28.66812,28.66812 z"
   inkscape:connector-curvature="0" />
	<path
   id="XMLID_341_"
   style="fill:#f2e3c0;stroke:#000000;stroke-width:6.86840296"
   d="M 230.65542,74.791159 V 332.80421 H 29.978602 V 55.67908 c 0,-5.2778 4.278238,-9.556039 9.556039,-9.556039 H 201.9873 c 15.8334,0 28.66812,12.834716 28.66812,28.668118 z"
   inkscape:connector-curvature="0" />
	<path
   id="XMLID_340_"
   style="fill:#cfc4a6;stroke-width:0.9556039"
   d="M 206.76532,84.347198 H 92.092856 c -2.638423,0 -4.77802,-2.139598 -4.77802,-4.77802 v 0 c 0,-2.638422 2.139597,-4.778019 4.77802,-4.778019 H 206.76532 c 2.63842,0 4.77802,2.139597 4.77802,4.778019 v 0 c 0,2.638422 -2.1396,4.77802 -4.77802,4.77802 z m 4.77802,14.334055 v 0 c 0,-2.63842 -2.1396,-4.778016 -4.77802,-4.778016 H 92.092856 c -2.638423,0 -4.77802,2.139596 -4.77802,4.778016 v 0 c 0,2.638427 2.139597,4.778017 4.77802,4.778017 H 206.76532 c 2.63842,0 4.77802,-2.13959 4.77802,-4.778017 z m 0,19.112077 v 0 c 0,-2.63842 -2.1396,-4.77802 -4.77802,-4.77802 H 53.868699 c -2.638422,0 -4.778019,2.1396 -4.778019,4.77802 v 0 c 0,2.63842 2.139597,4.77802 4.778019,4.77802 H 206.76532 c 2.63842,0 4.77802,-2.1396 4.77802,-4.77802 z m -19.11208,19.11208 v 0 c 0,-2.63842 -2.13959,-4.77802 -4.77802,-4.77802 H 53.868699 c -2.638422,0 -4.778019,2.1396 -4.778019,4.77802 v 0 c 0,2.63842 2.139597,4.77802 4.778019,4.77802 H 187.65324 c 2.63843,0 4.77802,-2.1396 4.77802,-4.77802 z m 19.11208,19.11208 v 0 c 0,-2.63842 -2.1396,-4.77802 -4.77802,-4.77802 H 53.868699 c -2.638422,0 -4.778019,2.1396 -4.778019,4.77802 v 0 c 0,2.63842 2.139597,4.77802 4.778019,4.77802 H 206.76532 c 2.63842,0 4.77802,-2.1396 4.77802,-4.77802 z m -9.55604,19.11208 v 0 c 0,-2.63843 -2.13959,-4.77802 -4.77802,-4.77802 H 53.868699 c -2.638422,0 -4.778019,2.13959 -4.778019,4.77802 v 0 c 0,2.63842 2.139597,4.77802 4.778019,4.77802 H 197.20928 c 2.63843,0 4.77802,-2.1396 4.77802,-4.77802 z m 9.55604,38.22415 v 0 c 0,-2.63842 -2.1396,-4.77802 -4.77802,-4.77802 H 53.868699 c -2.638422,0 -4.778019,2.1396 -4.778019,4.77802 v 0 c 0,2.63842 2.139597,4.77802 4.778019,4.77802 H 206.76532 c 2.63842,0 4.77802,-2.1396 4.77802,-4.77802 z m -19.11208,19.11208 v 0 c 0,-2.63842 -2.13959,-4.77802 -4.77802,-4.77802 H 53.868699 c -2.638422,0 -4.778019,2.1396 -4.778019,4.77802 v 0 c 0,2.63842 2.139597,4.77802 4.778019,4.77802 H 187.65324 c 2.63843,0 4.77802,-2.1396 4.77802,-4.77802 z m 19.11208,19.11208 v 0 c 0,-2.63842 -2.1396,-4.77802 -4.77802,-4.77802 H 53.868699 c -2.638422,0 -4.778019,2.1396 -4.778019,4.77802 v 0 c 0,2.63842 2.139597,4.77802 4.778019,4.77802 H 206.76532 c 2.63842,0 4.77802,-2.1396 4.77802,-4.77802 z m -9.55604,19.11208 v 0 c 0,-2.63843 -2.13959,-4.77802 -4.77802,-4.77802 H 53.868699 c -2.638422,0 -4.778019,2.13959 -4.778019,4.77802 v 0 c 0,2.63842 2.139597,4.77802 4.778019,4.77802 H 197.20928 c 2.63843,0 4.77802,-2.1396 4.77802,-4.77802 z M 77.758797,98.681253 V 79.569178 c 0,-2.638422 -2.139597,-4.778019 -4.778019,-4.778019 H 53.868699 c -2.638422,0 -4.778019,2.139597 -4.778019,4.778019 v 19.112075 c 0,2.638427 2.139597,4.778017 4.778019,4.778017 h 19.112079 c 2.638422,0 4.778019,-2.13959 4.778019,-4.778017 z M 63.424738,304.13609 h -9.556039 c -2.638422,0 -4.778019,2.1396 -4.778019,4.77802 v 0 c 0,2.63843 2.139597,4.77802 4.778019,4.77802 h 9.556039 c 2.638423,0 4.77802,-2.13959 4.77802,-4.77802 v 0 c 0,-2.63842 -2.139597,-4.77802 -4.77802,-4.77802 z"
   inkscape:connector-curvature="0" />
</g>















</svg>