<?xml version="1.0" encoding="iso-8859-1"?>
<!-- Generator: Adobe Illustrator 19.0.0, SVG Export Plug-In . SVG Version: 6.00 Build 0)  -->
<svg version="1.1" id="Layer_1" xmlns="http://www.w3.org/2000/svg" xmlns:xlink="http://www.w3.org/1999/xlink" x="0px" y="0px"
	 viewBox="0 0 512 512" style="enable-background:new 0 0 512 512;" xml:space="preserve">
<g>
	<path style="fill:#EFC7FF;" d="M171.364,203.095c-2.345,2.145-3.678,5.163-3.678,8.324l45.722,14.882L256,187.346v-57.57
		c-2.783,0-5.564,1-7.752,3.003L171.364,203.095z"/>
	<path style="fill:#EFC7FF;" d="M167.686,367.575c0,3.132,1.307,6.122,3.612,8.263l76.883,71.447
		c2.198,2.043,5.008,3.066,7.818,3.066v-57.915l-42.592-39.581L167.686,367.575z"/>
	<polygon style="fill:#EFC7FF;" points="298.591,226.301 298.591,352.856 344.313,367.575 344.313,211.419 	"/>
</g>
<g>
	<path style="fill:#D69EF0;" d="M344.313,211.419c0-3.16-1.336-6.178-3.679-8.324l-76.883-70.315
		c-2.189-2.003-4.97-3.003-7.752-3.003v57.57l42.591,38.955L344.313,211.419z"/>
	<path style="fill:#D69EF0;" d="M255.999,392.437v57.915c2.81,0,5.62-1.023,7.818-3.066l76.883-71.447
		c2.305-2.141,3.613-5.132,3.613-8.263l-45.723-14.719L255.999,392.437z"/>
	<polygon style="fill:#D69EF0;" points="167.686,367.575 213.408,352.695 213.408,226.14 167.686,211.419 	"/>
</g>
<g style="opacity:0.1;">
	<path d="M202.295,375.838c-2.304-2.141-3.611-5.132-3.611-8.263V211.419c0-3.16,1.332-6.178,3.679-8.324l69.135-63.23l-7.747-7.085
		c-2.189-2.003-4.97-3.003-7.752-3.003c-2.783,0-5.564,1-7.752,3.003l-76.883,70.315c-2.346,2.145-3.678,5.163-3.678,8.324v156.157
		c0,3.132,1.307,6.122,3.611,8.263l76.884,71.447c2.198,2.043,5.007,3.066,7.818,3.066c2.81,0,5.62-1.023,7.818-3.066l7.681-7.138
		L202.295,375.838z"/>
</g>
<polygon style="fill:#8F5DAF;" points="213.408,352.856 213.408,226.301 255.999,187.346 298.591,226.301 298.591,352.856 
	255.999,392.437 "/>
<g style="opacity:0.1;">
	<polygon points="246.447,352.856 246.447,226.301 272.519,202.455 255.999,187.346 213.408,226.301 213.408,352.856 
		255.999,392.437 272.519,377.084 	"/>
</g>
<g>
	<path style="fill:#FFC753;" d="M388.855,464.534c-21.523-5.89-25.318-9.651-31.261-30.979c-0.749-2.686-3.213-4.545-6.025-4.545
		c-2.813,0-5.279,1.858-6.025,4.545c-5.941,21.328-9.743,25.09-31.259,30.979c-2.713,0.742-4.592,3.185-4.592,5.972
		c0,2.785,1.88,5.227,4.592,5.97c21.517,5.889,25.318,9.653,31.259,30.98c0.746,2.684,3.211,4.545,6.025,4.545
		c2.811,0,5.276-1.86,6.025-4.545c5.943-21.327,9.738-25.092,31.261-30.98c2.709-0.743,4.584-3.185,4.584-5.97
		C393.438,467.718,391.564,465.275,388.855,464.534z"/>
	<path style="fill:#FFC753;" d="M157.259,411.475c-18.756-5.133-22.065-8.411-27.245-27c-0.651-2.341-2.799-3.959-5.25-3.959
		c-2.452,0-4.6,1.619-5.25,3.959c-5.179,18.589-8.492,21.868-27.244,27c-2.363,0.647-4,2.775-4,5.204c0,2.427,1.637,4.556,4,5.204
		c18.752,5.132,22.066,8.411,27.244,27c0.65,2.339,2.797,3.961,5.25,3.961c2.45,0,4.599-1.623,5.25-3.961
		c5.18-18.589,8.489-21.869,27.245-27c2.361-0.648,3.996-2.776,3.996-5.204C161.255,414.25,159.621,412.121,157.259,411.475z"/>
</g>
<g>
	<path style="fill:#5A482E;" d="M134.648,47.281L53.823,1.037c-3.756-2.15-8.545-0.847-10.693,2.91
		c-2.149,3.756-0.846,8.544,2.91,10.693l80.825,46.244c1.228,0.703,2.565,1.037,3.885,1.037c2.719,0,5.362-1.417,6.81-3.947
		C139.707,54.218,138.404,49.43,134.648,47.281z"/>
	<path style="fill:#5A482E;" d="M468.871,3.947c-2.149-3.756-6.938-5.06-10.694-2.91L256,116.714L157.996,60.64
		c-3.756-2.15-8.544-0.847-10.693,2.91c-2.149,3.756-0.846,8.544,2.91,10.693l101.895,58.301c1.206,0.69,2.548,1.034,3.892,1.034
		c1.343,0,2.686-0.345,3.892-1.034L465.961,14.64C469.718,12.491,471.02,7.703,468.871,3.947z"/>
</g>
<path style="fill:#53E7D3;" d="M276.415,137.515c0,2.918-2.388,5.306-5.307,5.306h-30.216c-2.918,0-5.307-2.388-5.307-5.306v-30.584
	c0-2.919,2.389-5.307,5.307-5.307h30.216c2.919,0,5.307,2.388,5.307,5.307V137.515z"/>
<g style="opacity:0.1;">
	<path d="M257.626,137.515v-30.584c0-2.919,2.388-5.307,5.307-5.307h-22.041c-2.918,0-5.307,2.388-5.307,5.307v30.584
		c0,2.918,2.389,5.306,5.307,5.306h22.041C260.013,142.821,257.626,140.433,257.626,137.515z"/>
</g>
<g>
</g>
<g>
</g>
<g>
</g>
<g>
</g>
<g>
</g>
<g>
</g>
<g>
</g>
<g>
</g>
<g>
</g>
<g>
</g>
<g>
</g>
<g>
</g>
<g>
</g>
<g>
</g>
<g>
</g>
</svg>
