<?xml version="1.0" encoding="iso-8859-1"?>
<!-- Generator: Adobe Illustrator 19.0.0, SVG Export Plug-In . SVG Version: 6.00 Build 0)  -->
<svg version="1.1" id="Layer_1" xmlns="http://www.w3.org/2000/svg" xmlns:xlink="http://www.w3.org/1999/xlink" x="0px" y="0px"
	 viewBox="0 0 512 512" style="enable-background:new 0 0 512 512;" xml:space="preserve">
<g>
	<path style="fill:#BDC3C7;" d="M256,459.034c-82.75,0-150.069-67.319-150.069-150.069S173.25,158.897,256,158.897
		s150.069,67.319,150.069,150.069S338.75,459.034,256,459.034 M328.589,119.349L328.589,119.349l18.564-37.12
		c0.962-1.916,1.766-3.884,2.463-5.879c6.126-16.746,4.052-35.558-5.985-50.609l-1.439-2.154C332.367,8.845,315.833,0,298.125,0
		h-84.551c-17.708,0-34.242,8.845-44.067,23.587l-0.892,1.333c-11.555,17.337-12.941,39.556-3.619,58.191l18.167,36.334
		c-76.138,29.29-130.198,103.071-130.198,189.519C52.966,421.094,143.863,512,256,512s203.034-90.906,203.034-203.034
		C459.034,222.411,404.86,148.559,328.589,119.349"/>
	<path style="fill:#4482C3;" d="M343.633,25.741l-1.439-2.154C332.369,8.845,315.835,0,298.127,0h-84.551
		c-17.708,0-34.242,8.845-44.067,23.587l-0.892,1.333c-11.564,17.337-12.941,39.556-3.619,58.191l18.158,36.334l145.434-0.097
		l18.556-37.12c0.962-1.916,1.774-3.884,2.472-5.879C355.745,59.604,353.67,40.792,343.633,25.741"/>
	<polygon style="fill:#1F4968;" points="220.543,105.931 194.06,70.621 220.543,35.31 291.164,35.31 317.647,70.621 
		291.164,105.931 	"/>
	<g>
		<path style="fill:#285680;" d="M220.543,35.31L196.294,2.984c-10.787,3.734-20.277,10.831-26.783,20.604l-0.892,1.333
			c-9.066,13.603-11.776,30.182-8.068,45.7h33.51L220.543,35.31z"/>
		<path style="fill:#285680;" d="M291.164,35.31l26.483,35.31h33.677c3.787-15.219,1.218-31.523-7.689-44.879l-1.439-2.154
			c-6.515-9.772-15.996-16.87-26.792-20.604L291.164,35.31z"/>
	</g>
</g>
<g>
</g>
<g>
</g>
<g>
</g>
<g>
</g>
<g>
</g>
<g>
</g>
<g>
</g>
<g>
</g>
<g>
</g>
<g>
</g>
<g>
</g>
<g>
</g>
<g>
</g>
<g>
</g>
<g>
</g>
</svg>
