<?xml version="1.0" encoding="iso-8859-1"?>
<!-- Generator: Adobe Illustrator 19.0.0, SVG Export Plug-In . SVG Version: 6.00 Build 0)  -->
<svg version="1.1" id="Layer_1" xmlns="http://www.w3.org/2000/svg" xmlns:xlink="http://www.w3.org/1999/xlink" x="0px" y="0px"
	 viewBox="0 0 512 512" style="enable-background:new 0 0 512 512;" xml:space="preserve">
<g>
	<path style="fill:#5A482E;" d="M390.108,162.66c-37.331,31.385-84.958,48.668-134.108,48.668c-113.974,0-206.7-91.339-206.7-203.61
		C49.3,3.455,45.845,0,41.582,0s-7.719,3.455-7.719,7.719c0,58.531,23.12,113.552,65.102,154.929
		c41.951,41.347,97.721,64.118,157.035,64.118c52.78,0,103.935-18.57,144.042-52.289c3.263-2.744,3.684-7.612,0.941-10.875
		C398.239,160.339,393.369,159.916,390.108,162.66z"/>
	<path style="fill:#5A482E;" d="M470.418,0c-4.263,0-7.719,3.455-7.719,7.719c0,48.078-17.33,94.741-48.796,131.394
		c-2.776,3.234-2.406,8.107,0.829,10.884c1.457,1.25,3.244,1.862,5.025,1.862c2.173,0,4.333-0.912,5.86-2.691
		c33.867-39.45,52.52-89.684,52.52-141.449C478.137,3.455,474.681,0,470.418,0z"/>
</g>
<g>
	<path style="fill:#BF953E;" d="M278.031,253.609c0,2.919-2.39,5.308-5.309,5.308h-33.443c-2.919,0-5.309-2.389-5.309-5.308v-51.5
		c0-2.919,2.39-5.308,5.309-5.308h33.443c2.919,0,5.309,2.389,5.309,5.308V253.609z"/>
	<ellipse style="fill:#BF953E;" cx="342.894" cy="199.022" rx="24.828" ry="24.469"/>
	<ellipse style="fill:#BF953E;" cx="169.106" cy="199.022" rx="24.827" ry="24.469"/>
</g>
<g style="opacity:0.1;">
	<path d="M160.452,199.026c0-10.723,7-19.828,16.739-23.134c-2.537-0.861-5.256-1.335-8.089-1.335
		c-13.71,0-24.827,10.956-24.827,24.469c0,13.515,11.117,24.47,24.827,24.47c2.833,0,5.553-0.474,8.089-1.335
		C167.452,218.853,160.452,209.748,160.452,199.026z"/>
</g>
<g>
	<path style="fill:#FFC753;" d="M408.213,467.434c-20.024-5.527-23.556-9.06-29.087-29.086c-0.694-2.521-2.987-4.266-5.604-4.266
		c-2.617,0-4.91,1.745-5.605,4.266c-5.528,20.025-9.066,23.558-29.087,29.086c-2.521,0.698-4.267,2.991-4.267,5.606
		c0,2.615,1.746,4.909,4.267,5.606c20.021,5.529,23.559,9.062,29.087,29.087c0.695,2.52,2.987,4.267,5.605,4.267
		c2.616,0,4.91-1.747,5.604-4.267c5.531-20.024,9.062-23.558,29.087-29.087c2.521-0.697,4.266-2.991,4.266-5.606
		C412.48,470.425,410.735,468.132,408.213,467.434z"/>
	<path style="fill:#FFC753;" d="M119.825,344.409c-18.282-5.047-21.507-8.272-26.556-26.556c-0.633-2.301-2.728-3.895-5.116-3.895
		c-2.39,0-4.484,1.593-5.118,3.895c-5.048,18.284-8.277,21.509-26.555,26.556c-2.303,0.636-3.897,2.73-3.897,5.118
		c0,2.389,1.595,4.482,3.897,5.118c18.278,5.048,21.507,8.273,26.555,26.556c0.634,2.302,2.728,3.896,5.118,3.896
		c2.387,0,4.482-1.595,5.116-3.896c5.049-18.283,8.275-21.509,26.556-26.556c2.302-0.636,3.896-2.729,3.896-5.118
		C123.721,347.14,122.127,345.046,119.825,344.409z"/>
</g>
<circle style="fill:#B9F5ED;" cx="256" cy="349.32" r="106.538"/>
<g>
	<path style="fill:#5CE8D5;" d="M296.357,447.938c26.059-10.674,46.948-31.369,57.87-57.297c-0.006-0.025-0.012-0.042-0.012-0.042
		l-98.213-41.281l40.258,98.637C296.294,447.951,296.324,447.945,296.357,447.938z"/>
	<path style="fill:#5CE8D5;" d="M354.654,309.04c-10.668-26.104-31.391-47.031-57.361-57.96c-0.003,0.008-0.007,0.016-0.012,0.024
		l-41.281,98.214l98.637-40.258C354.638,309.06,354.652,309.043,354.654,309.04z"/>
	<path style="fill:#5CE8D5;" d="M256.001,349.318l-40.257-98.637c-0.003-0.006-0.006-0.013-0.009-0.019
		c-26.11,10.668-47.041,31.393-57.971,57.366c0.013,0.005,0.023,0.009,0.023,0.009L256,349.319l-98.636,40.257
		c-0.007,0.003-0.013,0.006-0.018,0.008c10.667,26.11,31.391,47.042,57.363,57.972c0.006-0.013,0.012-0.023,0.012-0.023
		L256.001,349.318l0.001,0.001v-0.001L256.001,349.318L256.001,349.318z"/>
</g>
<g style="opacity:0.1;">
	<path d="M171.384,349.318c0-55.137,41.887-100.493,95.578-105.98c-3.602-0.369-7.259-0.558-10.959-0.558
		c-58.841,0-106.538,47.699-106.538,106.538s47.696,106.539,106.538,106.539c3.7,0,7.357-0.189,10.959-0.558
		C213.27,449.811,171.384,404.456,171.384,349.318z"/>
</g>
<path style="fill:#37C4B3;" d="M283.728,411.258c-1.26,1.26-2.97,1.968-4.75,1.968l-45.957-0.001
	c-1.783,0.001-3.49-0.707-4.75-1.966l-32.497-32.497c-1.26-1.259-1.967-2.966-1.967-4.749l-0.001-45.958
	c0-1.781,0.707-3.489,1.968-4.748l32.497-32.496c1.26-1.26,2.969-1.969,4.75-1.969l45.957,0.002
	c1.783-0.001,3.489,0.706,4.748,1.966l32.499,32.497c1.258,1.26,1.966,2.967,1.966,4.749v45.958c0,1.782-0.708,3.49-1.966,4.749
	L283.728,411.258z"/>
<path style="fill:#FFFFFF;" d="M243.497,399.316c-2.147,0-4.164-0.837-5.68-2.355l-0.179-0.179
	c-2.009-2.008-2.609-5.029-1.522-7.653c1.088-2.624,3.648-4.334,6.488-4.334h24.42c0.28,0,0.512-0.096,0.711-0.294l21.839-21.84
	c0.196-0.196,0.293-0.429,0.293-0.709v-24.14c0-2.835,1.705-5.393,4.323-6.483c0.874-0.364,1.79-0.54,2.699-0.54
	c1.818,0,3.605,0.706,4.948,2.038c0.009,0.009,0.064,0.063,0.072,0.073c1.509,1.514,2.34,3.527,2.34,5.665v30.887
	c0,2.116-0.858,4.186-2.355,5.68l-21.834,21.834c-1.498,1.496-3.565,2.351-5.676,2.351L243.497,399.316z"/>
<g>
</g>
<g>
</g>
<g>
</g>
<g>
</g>
<g>
</g>
<g>
</g>
<g>
</g>
<g>
</g>
<g>
</g>
<g>
</g>
<g>
</g>
<g>
</g>
<g>
</g>
<g>
</g>
<g>
</g>
</svg>
