<?xml version="1.0" encoding="iso-8859-1"?>
<!-- Generator: Adobe Illustrator 19.0.0, SVG Export Plug-In . SVG Version: 6.00 Build 0)  -->
<svg version="1.1" id="Layer_1" xmlns="http://www.w3.org/2000/svg" xmlns:xlink="http://www.w3.org/1999/xlink" x="0px" y="0px"
	 viewBox="0 0 512 512" style="enable-background:new 0 0 512 512;" xml:space="preserve">
<g>
	<g>
		<path style="fill:#ECF0F1;" d="M154.5,364.948c-2.057,0-4.131-0.715-5.8-2.172c-7.353-6.418-14.504-13.497-21.239-21.054
			c-3.257-3.637-2.94-9.225,0.706-12.465c3.637-3.231,9.225-2.931,12.465,0.706c6.25,7.009,12.871,13.568,19.668,19.5
			c3.672,3.204,4.052,8.783,0.856,12.456C159.408,363.924,156.954,364.948,154.5,364.948"/>
		<path style="fill:#ECF0F1;" d="M103.388,302.802c-2.993,0-5.906-1.518-7.556-4.255c-5.129-8.475-9.41-16.155-13.1-23.455
			c-2.198-4.352-0.45-9.657,3.902-11.855c4.334-2.216,9.657-0.45,11.855,3.893c3.54,7.009,7.495,14.089,12.438,22.272
			c2.534,4.175,1.192,9.604-2.975,12.12C106.513,302.387,104.941,302.802,103.388,302.802"/>
		<path style="fill:#ECF0F1;" d="M70.223,231.267c-3.663,0-7.089-2.295-8.342-5.95c-3.61-10.452-6.656-20.348-9.304-30.234
			c-1.271-4.705,1.527-9.551,6.241-10.805c4.714-1.254,9.543,1.527,10.814,6.241c2.542,9.472,5.464,18.97,8.934,29.043
			c1.589,4.608-0.847,9.64-5.464,11.22C72.148,231.108,71.177,231.267,70.223,231.267"/>
		<path style="fill:#ECF0F1;" d="M50.285,150.336c-4.281,0-8.042-3.125-8.713-7.486c-1.536-9.94-2.701-18.926-3.558-27.48
			c-0.477-4.855,3.054-9.181,7.91-9.666c4.97-0.362,9.181,3.063,9.666,7.91c0.812,8.227,1.942,16.922,3.425,26.553
			c0.742,4.82-2.56,9.322-7.38,10.063C51.185,150.301,50.735,150.336,50.285,150.336"/>
		<path style="fill:#ECF0F1;" d="M44.138,70.621c-4.882,0-8.828-3.946-8.828-8.828c0-8.66,0.256-17.92,0.794-28.319
			c0.256-4.873,4.414-8.686,9.278-8.36c4.864,0.247,8.607,4.405,8.36,9.278c-0.53,10.081-0.777,19.05-0.777,27.401
			C52.966,66.675,49.02,70.621,44.138,70.621"/>
	</g>
	<polygon style="fill:#C03A2B;" points="185.379,388.414 256,335.448 326.621,388.414 326.621,459.034 256,512 185.379,459.034 	"/>
	<polygon style="fill:#912A22;" points="220.69,406.069 256,379.586 291.31,406.069 291.31,441.379 256,467.862 220.69,441.379 	"/>
	<g>
		<path style="fill:#F0C419;" d="M88.276,317.793c0,14.627,11.855,26.483,26.483,26.483s26.483-11.855,26.483-26.483
			c0-14.618-11.855-26.483-26.483-26.483S88.276,303.175,88.276,317.793"/>
		<path style="fill:#F0C419;" d="M52.966,247.172c0,14.627,11.855,26.483,26.483,26.483s26.483-11.855,26.483-26.483
			c0-14.618-11.855-26.483-26.483-26.483S52.966,232.554,52.966,247.172"/>
		<path style="fill:#F0C419;" d="M26.483,167.724c0,14.627,11.855,26.483,26.483,26.483s26.483-11.855,26.483-26.483
			c0-14.618-11.855-26.483-26.483-26.483S26.483,153.106,26.483,167.724"/>
		<path style="fill:#F0C419;" d="M17.655,88.276c0,14.627,11.855,26.483,26.483,26.483s26.483-11.855,26.483-26.483
			c0-14.618-11.855-26.483-26.483-26.483S17.655,73.657,17.655,88.276"/>
		<path style="fill:#F0C419;" d="M27.991,0c-0.971,2.754-1.51,5.729-1.51,8.828c0,14.627,11.855,26.483,26.483,26.483
			S79.447,23.455,79.447,8.828c0-3.09-0.521-6.047-1.501-8.801L27.991,0z"/>
		<path style="fill:#F0C419;" d="M185.379,388.414l17.17-12.879c0.291-1.554,0.486-3.134,0.486-4.776
			c0-14.618-11.855-26.483-26.483-26.483c-14.627,0-26.483,11.864-26.483,26.483c0,14.627,11.855,26.483,26.483,26.483
			c3.116,0,6.056-0.636,8.828-1.624V388.414z"/>
	</g>
	<g>
		<path style="fill:#ECF0F1;" d="M357.5,364.948c2.057,0,4.131-0.715,5.8-2.172c7.353-6.418,14.504-13.497,21.239-21.054
			c3.257-3.637,2.94-9.225-0.706-12.465c-3.637-3.231-9.225-2.931-12.465,0.706c-6.25,7.009-12.871,13.568-19.668,19.5
			c-3.672,3.204-4.052,8.783-0.856,12.456C352.591,363.924,355.046,364.948,357.5,364.948"/>
		<path style="fill:#ECF0F1;" d="M408.612,302.802c2.993,0,5.906-1.518,7.556-4.255c5.129-8.475,9.41-16.155,13.1-23.455
			c2.198-4.352,0.45-9.657-3.902-11.855c-4.334-2.216-9.657-0.45-11.855,3.893c-3.54,7.009-7.495,14.089-12.438,22.272
			c-2.534,4.175-1.192,9.604,2.975,12.12C405.487,302.387,407.059,302.802,408.612,302.802"/>
		<path style="fill:#ECF0F1;" d="M441.776,231.267c3.663,0,7.089-2.295,8.342-5.95c3.61-10.452,6.656-20.348,9.304-30.234
			c1.271-4.705-1.527-9.551-6.241-10.805c-4.714-1.254-9.543,1.527-10.814,6.241c-2.542,9.472-5.464,18.97-8.934,29.043
			c-1.589,4.608,0.847,9.64,5.464,11.22C439.851,231.108,440.822,231.267,441.776,231.267"/>
		<path style="fill:#ECF0F1;" d="M461.715,150.336c4.281,0,8.042-3.125,8.713-7.486c1.536-9.94,2.701-18.926,3.557-27.48
			c0.477-4.855-3.054-9.181-7.91-9.666c-4.97-0.362-9.181,3.063-9.666,7.91c-0.812,8.227-1.942,16.922-3.425,26.553
			c-0.742,4.82,2.56,9.322,7.38,10.063C460.815,150.301,461.265,150.336,461.715,150.336"/>
		<path style="fill:#ECF0F1;" d="M467.862,70.621c4.882,0,8.828-3.946,8.828-8.828c0-8.66-0.256-17.92-0.794-28.319
			c-0.256-4.873-4.414-8.686-9.278-8.36c-4.864,0.247-8.607,4.405-8.36,9.278c0.53,10.081,0.777,19.05,0.777,27.401
			C459.034,66.675,462.98,70.621,467.862,70.621"/>
	</g>
	<g>
		<path style="fill:#F0C419;" d="M423.724,317.793c0,14.627-11.855,26.483-26.483,26.483c-14.627,0-26.483-11.855-26.483-26.483
			c0-14.627,11.855-26.483,26.483-26.483C411.869,291.31,423.724,303.166,423.724,317.793"/>
		<path style="fill:#F0C419;" d="M459.034,247.172c0,14.627-11.855,26.483-26.483,26.483c-14.627,0-26.483-11.855-26.483-26.483
			s11.855-26.483,26.483-26.483C447.179,220.69,459.034,232.545,459.034,247.172"/>
		<path style="fill:#F0C419;" d="M485.517,167.724c0,14.627-11.855,26.483-26.483,26.483c-14.627,0-26.483-11.855-26.483-26.483
			s11.855-26.483,26.483-26.483C473.662,141.241,485.517,153.097,485.517,167.724"/>
		<path style="fill:#F0C419;" d="M494.345,88.276c0,14.627-11.855,26.483-26.483,26.483c-14.627,0-26.483-11.855-26.483-26.483
			s11.855-26.483,26.483-26.483C482.489,61.793,494.345,73.649,494.345,88.276"/>
		<path style="fill:#F0C419;" d="M484.009,0c0.971,2.754,1.51,5.729,1.51,8.828c0,14.627-11.855,26.483-26.483,26.483
			s-26.483-11.855-26.483-26.483c0-3.09,0.521-6.047,1.501-8.801L484.009,0z"/>
		<path style="fill:#F0C419;" d="M326.621,388.414l-17.17-12.879c-0.291-1.554-0.486-3.134-0.486-4.776
			c0-14.627,11.855-26.483,26.483-26.483c14.627,0,26.483,11.855,26.483,26.483c0,14.627-11.855,26.483-26.483,26.483
			c-3.116,0-6.056-0.636-8.828-1.624V388.414z"/>
	</g>
	<g>
		<path style="fill:#912A22;" d="M256,335.448l-8.828,6.621v46.345c0,4.882,3.946,8.828,8.828,8.828
			c4.882,0,8.828-3.946,8.828-8.828v-46.345L256,335.448z"/>
		<path style="fill:#912A22;" d="M274.586,406.069c-4.361,2.18-6.126,7.486-3.946,11.847c1.554,3.09,4.661,4.882,7.901,4.882
			c1.333,0,2.675-0.309,3.946-0.936l44.138-23.579v-9.869l-7.901-5.923L274.586,406.069z"/>
		<path style="fill:#912A22;" d="M326.621,449.163l-44.138-23.578c-4.352-2.172-9.657-0.415-11.847,3.946
			c-2.18,4.37-0.415,9.666,3.946,11.847l44.138,23.578l7.901-5.923V449.163z"/>
		<path style="fill:#912A22;" d="M256,450.207c-4.882,0-8.828,3.946-8.828,8.828v46.345L256,512l8.828-6.621v-46.345
			C264.828,454.153,260.882,450.207,256,450.207"/>
		<path style="fill:#912A22;" d="M229.517,425.586l-44.138,23.578v9.869l7.901,5.923l44.138-23.578
			c4.361-2.18,6.126-7.486,3.946-11.847C239.175,425.171,233.878,423.414,229.517,425.586"/>
		<path style="fill:#912A22;" d="M185.379,398.285l44.138,23.578c1.271,0.627,2.613,0.927,3.937,0.927
			c3.24,0,6.356-1.783,7.91-4.873c2.18-4.37,0.415-9.666-3.946-11.847l-44.138-23.578l-7.901,5.923V398.285z"/>
	</g>
</g>
<g>
</g>
<g>
</g>
<g>
</g>
<g>
</g>
<g>
</g>
<g>
</g>
<g>
</g>
<g>
</g>
<g>
</g>
<g>
</g>
<g>
</g>
<g>
</g>
<g>
</g>
<g>
</g>
<g>
</g>
</svg>
