<?xml version="1.0" encoding="iso-8859-1"?>
<!-- Generator: Adobe Illustrator 19.0.0, SVG Export Plug-In . SVG Version: 6.00 Build 0)  -->
<svg version="1.1" id="Layer_1" xmlns="http://www.w3.org/2000/svg" xmlns:xlink="http://www.w3.org/1999/xlink" x="0px" y="0px"
	 viewBox="0 0 512 512" style="enable-background:new 0 0 512 512;" xml:space="preserve">
<path style="fill:#FFE159;" d="M256,123.586c-107.257,0-194.207,86.948-194.207,194.207C61.793,425.05,148.743,512,256,512
	s194.207-86.95,194.207-194.207C450.207,210.535,363.257,123.586,256,123.586z M256,485.517
	c-92.631,0-167.724-75.093-167.724-167.724c0-92.632,75.093-167.724,167.724-167.724s167.724,75.092,167.724,167.724
	C423.724,410.424,348.631,485.517,256,485.517z"/>
<polygon style="fill:#FF8C87;" points="351.338,52.966 256,52.966 256,105.931 308.003,105.931 "/>
<polygon style="fill:#FFBEAF;" points="203.034,0 160.662,52.966 256,52.966 351.338,52.966 308.966,0 "/>
<polygon style="fill:#FF4A55;" points="203.034,0 213.628,52.966 256,0 "/>
<g>
	<polygon style="fill:#FF8C87;" points="308.966,0 298.372,52.966 256,0 	"/>
	<polygon style="fill:#FF8C87;" points="256,0 213.628,52.966 203.034,0 	"/>
</g>
<polygon style="fill:#FF6464;" points="203.034,0 213.628,52.966 160.662,52.966 "/>
<polygon style="fill:#FFD2BE;" points="308.966,0 298.372,52.966 351.338,52.966 "/>
<polygon style="fill:#F1444A;" points="256,105.931 256,52.966 160.662,52.966 203.997,105.931 "/>
<polygon style="fill:#FF6464;" points="256,105.931 279.113,105.931 298.372,52.966 213.628,52.966 232.887,105.931 "/>
<path style="fill:#FFC83C;" d="M256,141.241c-97.507,0-176.552,79.044-176.552,176.552c0,97.506,79.044,176.552,176.552,176.552
	s176.552-79.046,176.552-176.552C432.552,220.286,353.507,141.241,256,141.241z M256,476.69
	c-87.756,0-158.897-71.14-158.897-158.897S168.244,158.897,256,158.897s158.897,71.14,158.897,158.897S343.756,476.69,256,476.69z"
	/>
<path style="fill:#FFE159;" d="M211.862,141.241L197.4,112.319c-1.468-2.935,0.666-6.388,3.948-6.388h109.303
	c3.282,0,5.416,3.453,3.948,6.388l-14.462,28.922H211.862z"/>
<g>
</g>
<g>
</g>
<g>
</g>
<g>
</g>
<g>
</g>
<g>
</g>
<g>
</g>
<g>
</g>
<g>
</g>
<g>
</g>
<g>
</g>
<g>
</g>
<g>
</g>
<g>
</g>
<g>
</g>
</svg>
