<?xml version="1.0" encoding="iso-8859-1"?>
<!-- Generator: Adobe Illustrator 18.0.0, SVG Export Plug-In . SVG Version: 6.00 Build 0)  -->
<!DOCTYPE svg PUBLIC "-//W3C//DTD SVG 1.1//EN" "http://www.w3.org/Graphics/SVG/1.1/DTD/svg11.dtd">
<svg version="1.1" id="Capa_1" xmlns="http://www.w3.org/2000/svg" xmlns:xlink="http://www.w3.org/1999/xlink" x="0px" y="0px"
	 viewBox="0 0 119.614 119.614" style="enable-background:new 0 0 119.614 119.614;" xml:space="preserve">
<g>
	<polygon style="fill:#FFD2BB;" points="59.808,0 40.819,0 35.52,12.144 59.808,12.144 	"/>
	<polygon style="fill:#D3B09F;" points="35.52,12.144 50.093,27.599 59.808,12.144 	"/>
	<path style="fill:#F2D2C0;" d="M59.808,12.144l-9.715,15.455l2.314,4.75c2.407-0.408,4.877-0.633,7.4-0.633V12.144z"/>
	<polygon style="fill:#F2D2C0;" points="84.094,12.144 78.795,0 59.808,0 59.808,12.144 	"/>
	<polygon style="fill:#D3B09F;" points="69.521,27.599 84.094,12.144 59.808,12.144 	"/>
	<path style="fill:#D6BFB4;" d="M59.808,31.716c2.524,0,4.993,0.225,7.4,0.633l2.313-4.75l-9.714-15.455V31.716z"/>
	<path style="fill:#BF8E2B;" d="M59.808,41.23c-20.477,0-37.077,16.6-37.077,37.077c0,20.478,16.6,37.077,37.077,37.077
		c20.477,0,37.077-16.6,37.077-37.077C96.885,57.83,80.284,41.23,59.808,41.23z M59.808,113.563
		c-18.331,0-33.191-14.859-33.191-33.19c0-18.331,14.86-33.191,33.191-33.191c18.331,0,33.19,14.86,33.19,33.191
		C92.998,98.703,78.139,113.563,59.808,113.563z"/>
	<path style="fill:#EDB63F;" d="M67.208,32.349c-2.407-0.408-4.877-0.633-7.4-0.633c-2.523,0-4.993,0.225-7.4,0.633
		c-20.747,3.52-36.549,21.567-36.549,43.316c0,24.272,19.677,43.949,43.949,43.949c24.273,0,43.948-19.677,43.948-43.949
		C103.756,53.916,87.954,35.868,67.208,32.349z M59.808,115.385c-20.477,0-37.077-16.6-37.077-37.077
		c0-20.478,16.6-37.077,37.077-37.077c20.477,0,37.077,16.6,37.077,37.077C96.885,98.785,80.284,115.385,59.808,115.385z"/>
</g>
<g>
</g>
<g>
</g>
<g>
</g>
<g>
</g>
<g>
</g>
<g>
</g>
<g>
</g>
<g>
</g>
<g>
</g>
<g>
</g>
<g>
</g>
<g>
</g>
<g>
</g>
<g>
</g>
<g>
</g>
</svg>
