<?xml version="1.0" encoding="iso-8859-1"?>
<!-- Generator: Adobe Illustrator 19.0.0, SVG Export Plug-In . SVG Version: 6.00 Build 0)  -->
<svg version="1.1" id="Layer_1" xmlns="http://www.w3.org/2000/svg" xmlns:xlink="http://www.w3.org/1999/xlink" x="0px" y="0px"
	 viewBox="0 0 511.999 511.999" style="enable-background:new 0 0 511.999 511.999;" xml:space="preserve">
<polyline style="fill:#9ACAEF;" points="218.595,109.954 174.208,55.839 205.451,0 306.544,0 337.787,55.839 293.41,109.954 "/>
<g>
	<path style="fill:#B7DFF9;" d="M256.005,55.839v50.667c-12.779,0-25.286,1.181-37.407,3.448L174.21,55.839h0.01
		C174.221,55.839,256.005,55.839,256.005,55.839z"/>
	<polygon style="fill:#B7DFF9;" points="306.546,0.01 337.789,55.839 256.005,55.839 	"/>
</g>
<path style="fill:#F7CE4D;" d="M255.999,106.51c-111.973,0-202.744,90.772-202.744,202.744
	c0,111.973,90.772,202.744,202.744,202.744s202.744-90.772,202.744-202.744S367.972,106.51,255.999,106.51z M255.999,463.226
	c-85.036,0-153.971-68.935-153.971-153.971s68.935-153.971,153.971-153.971S409.97,224.22,409.97,309.256
	C409.969,394.291,341.034,463.226,255.999,463.226z"/>
<polygon style="fill:#32A8EA;" points="256.005,55.839 306.546,0.01 205.451,0 "/>
<g>
</g>
<g>
</g>
<g>
</g>
<g>
</g>
<g>
</g>
<g>
</g>
<g>
</g>
<g>
</g>
<g>
</g>
<g>
</g>
<g>
</g>
<g>
</g>
<g>
</g>
<g>
</g>
<g>
</g>
</svg>
