<?xml version="1.0" encoding="iso-8859-1"?>
<!-- Generator: Adobe Illustrator 19.0.0, SVG Export Plug-In . SVG Version: 6.00 Build 0)  -->
<svg version="1.1" id="Layer_1" xmlns="http://www.w3.org/2000/svg" xmlns:xlink="http://www.w3.org/1999/xlink" x="0px" y="0px"
	 viewBox="0 0 512 512" style="enable-background:new 0 0 512 512;" xml:space="preserve">
<path style="fill:#9345EB;" d="M407.79,337.047c-45.765,26.042-97.706,39.92-151.789,39.92s-106.025-13.878-151.789-39.92
	L74.804,408.04c35.645,26.081,76.192,43.982,119.306,52.746L256,444.484l61.89,16.303c43.114-8.764,83.661-26.666,119.306-52.746
	L407.79,337.047z"/>
<g>
	<path style="fill:#39494C;" d="M256,512c-94.215,0-182.789-36.69-249.408-103.309c-8.79-8.79-8.79-23.04,0-31.828
		s23.039-8.79,31.827,0c58.118,58.119,135.39,90.127,217.581,90.127s159.463-32.007,217.581-90.127c8.79-8.79,23.039-8.79,31.827,0
		s8.79,23.04,0,31.828C438.789,475.31,350.215,512,256,512z"/>
	<path style="fill:#39494C;" d="M256,376.967c50.205,0,98.562-11.967,141.849-34.514L256,0L114.152,342.453
		C157.439,365,205.795,376.967,256,376.967z"/>
</g>
<g>
	<path style="fill:#9345EB;" d="M226.931,195.457c-4.653,0-8.44,3.787-8.44,8.44c0,4.653,3.787,8.44,8.44,8.44s8.44-3.787,8.44-8.44
		C235.371,199.243,231.584,195.457,226.931,195.457z"/>
	<path style="fill:#9345EB;" d="M260.689,219.088c-4.653,0-8.44,3.787-8.44,8.44c0,4.653,3.787,8.44,8.44,8.44
		c4.653,0,8.44-3.787,8.44-8.44C269.129,222.874,265.342,219.088,260.689,219.088z"/>
</g>
<path style="fill:#FFB033;" d="M256,466.989c21.033,0,41.74-2.11,61.89-6.204V343.209H194.11v117.577
	C214.26,464.879,234.968,466.989,256,466.989z M227.868,376.967h56.264v56.264h-56.264V376.967z"/>
<g>
</g>
<g>
</g>
<g>
</g>
<g>
</g>
<g>
</g>
<g>
</g>
<g>
</g>
<g>
</g>
<g>
</g>
<g>
</g>
<g>
</g>
<g>
</g>
<g>
</g>
<g>
</g>
<g>
</g>
</svg>
