<?xml version="1.0" encoding="iso-8859-1"?>
<!-- Generator: Adobe Illustrator 19.0.0, SVG Export Plug-In . SVG Version: 6.00 Build 0)  -->
<svg version="1.1" id="Layer_1" xmlns="http://www.w3.org/2000/svg" xmlns:xlink="http://www.w3.org/1999/xlink" x="0px" y="0px"
	 viewBox="0 0 460 460" style="enable-background:new 0 0 460 460;" xml:space="preserve">
<g id="XMLID_971_">
	<path id="XMLID_45_" style="fill:#DA521B;" d="M68.184,12.774l-6.488,0.544l2.746,31.027l31.03,2.743
		c78.267-0.491,153.733,27.971,212.15,80.165l22.789-2.361l2.376-22.774C260.894,37.131,165.457,4.711,68.184,12.774z"/>
	<polygon id="XMLID_44_" style="fill:#DA521B;" points="40.484,34.53 19.271,55.743 44.384,80.857 79.74,45.502 	"/>
	<path id="XMLID_43_" style="fill:#AF2B12;" d="M447.313,391.903c8.074-97.306-24.384-192.79-89.426-264.694l-22.754,2.395
		l-2.381,22.769c52.253,58.436,80.74,133.934,80.247,212.243l2.743,31.03l31.027,2.745L447.313,391.903z"/>
	<polygon id="XMLID_42_" style="fill:#AF2B12;" points="414.585,380.347 379.23,415.703 404.343,440.816 425.557,419.603 	"/>
	
		<rect id="XMLID_41_" x="228.626" y="-55.822" transform="matrix(-0.7071 0.7071 -0.7071 -0.7071 568.9583 197.2551)" style="fill:#F9D4A0;" width="30" height="544.57"/>
	<polygon id="XMLID_40_" style="fill:#F0651F;" points="90.854,394.26 65.74,369.147 307.622,127.253 327.258,132.742 
		332.752,152.372 	"/>
	<polygon id="XMLID_39_" style="fill:#AF2B12;" points="145.225,364.081 123.725,385.581 99.072,360.928 136.477,323.523 	"/>
	<polygon id="XMLID_38_" style="fill:#DA521B;" points="136.477,323.523 99.072,360.928 74.419,336.275 95.919,314.775 	"/>
	<polygon id="XMLID_37_" style="fill:#CB9851;" points="123.725,385.581 49.306,460 40.558,419.442 114.978,345.022 	"/>
	<polygon id="XMLID_36_" style="fill:#FFC052;" points="114.978,345.022 40.558,419.442 0,410.694 74.419,336.275 	"/>
	<polygon id="XMLID_35_" style="fill:#FFEBCF;" points="332.642,152.471 307.529,127.358 332.956,101.931 352.584,107.416 
		358.07,127.044 	"/>
	<polygon id="XMLID_34_" style="fill:#F9D4A0;" points="358.07,127.044 332.956,101.931 358.384,76.503 378.011,81.989 
		383.497,101.617 	"/>
	<polygon id="XMLID_33_" style="fill:#FFEBCF;" points="383.497,101.617 358.383,76.503 383.811,51.076 403.439,56.561 
		408.924,76.189 	"/>
	<polygon id="XMLID_32_" style="fill:#CB9851;" points="431.134,98.399 460,0 421.113,24.745 396.368,63.632 	"/>
	<polygon id="XMLID_3_" style="fill:#FFC052;" points="396.368,63.632 460,0 361.601,28.866 	"/>
</g>
<g>
</g>
<g>
</g>
<g>
</g>
<g>
</g>
<g>
</g>
<g>
</g>
<g>
</g>
<g>
</g>
<g>
</g>
<g>
</g>
<g>
</g>
<g>
</g>
<g>
</g>
<g>
</g>
<g>
</g>
</svg>
