<?xml version="1.0" encoding="iso-8859-1"?>
<!-- Generator: Adobe Illustrator 19.0.0, SVG Export Plug-In . SVG Version: 6.00 Build 0)  -->
<svg version="1.1" id="Layer_1" xmlns="http://www.w3.org/2000/svg" xmlns:xlink="http://www.w3.org/1999/xlink" x="0px" y="0px"
	 viewBox="0 0 512.002 512.002" style="enable-background:new 0 0 512.002 512.002;" xml:space="preserve">
<g>
	<polygon style="fill:#DD342E;" points="476.691,397.241 441.38,397.241 450.208,370.759 406.07,335.448 335.449,335.448 
		330.488,406.343 379.826,459.97 406.07,450.207 406.07,485.517 432.553,512 441.38,441.379 512.001,432.552 	"/>
	<path style="fill:#AFB5CB;" d="M79.449,414.897c-2.26,0-4.52-0.865-6.241-2.587c-3.452-3.452-3.452-9.031,0-12.482L391.001,82.035
		c3.452-3.452,9.031-3.452,12.482,0s3.452,9.031,0,12.482L85.691,412.31C83.969,414.031,81.709,414.897,79.449,414.897"/>
	<path style="fill:#BD8366;" d="M485.518,66.481c-10.284,4.582-19.156,8.324-46.875-3.125
		c-11.908-8.051-100.687-44.826-194.207-35.31c-2.904,0.3-78.504,11.476-150.069,88.276
		C19.74,186.518,23.853,255.073,23.747,257.562c-7.671,121.273,26.227,177.02,34.278,188.937
		c10.946,26.509,7.15,30.685,2.242,39.018c-3.469,5.888-2.498,13.338,2.127,18.361l2.569,2.798l0,0
		c6.93,7.768,19.482,6.947,25.017-1.871c9.622-15.325,18.035-31.514-0.194-73.878c0,0-38.329-53.08-30.729-173.365
		c0.035-0.574,1.262-61.705,70.621-123.586c60.337-62.332,114.962-70.621,114.759-70.621
		C363.053,55.852,418.72,94.773,419.17,95.091l3.663,2.136c40.324,17.355,60.16,10.505,78.177,1.457
		c11.352-5.703,13.48-20.948,3.999-29.396l0,0C499.66,64.521,492.068,63.567,485.518,66.481"/>
	<g>
		<path style="fill:#C7CFE3;" d="M476.691,485.517c-2.26,0-4.52-0.865-6.241-2.586L33.484,45.965c-3.452-3.452-3.452-9.031,0-12.482
			c3.452-3.452,9.031-3.452,12.482,0l436.966,436.966c3.452,3.452,3.452,9.031,0,12.482
			C481.211,484.652,478.951,485.517,476.691,485.517"/>
		<path style="fill:#C7CFE3;" d="M476.691,512c-4.882,0-8.828-3.955-8.828-8.828V476.69c0-4.873,3.946-8.828,8.828-8.828
			c4.882,0,8.828,3.955,8.828,8.828v26.483C485.518,508.045,481.572,512,476.691,512"/>
		<path style="fill:#C7CFE3;" d="M503.174,485.517h-26.483c-4.882,0-8.828-3.955-8.828-8.828c0-4.873,3.946-8.828,8.828-8.828
			h26.483c4.882,0,8.828,3.955,8.828,8.828C512.001,481.562,508.055,485.517,503.174,485.517"/>
		<path style="fill:#C7CFE3;" d="M370.76,414.897c-4.882,0-8.828-3.955-8.828-8.828v-36.273c0-4.873,3.946-8.828,8.828-8.828
			c4.882,0,8.828,3.955,8.828,8.828v36.273C379.587,410.942,375.641,414.897,370.76,414.897"/>
		<path style="fill:#C7CFE3;" d="M406.07,379.586h-36.273c-4.882,0-8.828-3.955-8.828-8.828c0-4.873,3.946-8.828,8.828-8.828h36.273
			c4.882,0,8.828,3.955,8.828,8.828C414.898,375.631,410.952,379.586,406.07,379.586"/>
	</g>
	<path style="fill:#AFB5CB;" d="M0.001,0l26.483,123.586c15.722-47.157,49.946-81.382,97.103-97.103L0.001,0z"/>
	<g>
		<path style="fill:#C7CFE3;" d="M194.208,229.517c-2.26,0-4.52-0.865-6.241-2.586c-3.452-3.452-3.452-9.031,0-12.482l26.483-26.483
			c3.452-3.452,9.031-3.452,12.482,0c3.452,3.452,3.452,9.031,0,12.482l-26.483,26.483
			C198.728,228.652,196.468,229.517,194.208,229.517"/>
		<path style="fill:#C7CFE3;" d="M264.829,300.138c-2.26,0-4.52-0.865-6.241-2.587c-3.452-3.452-3.452-9.031,0-12.482l26.483-26.483
			c3.452-3.452,9.031-3.452,12.482,0c3.452,3.452,3.452,9.031,0,12.482l-26.483,26.483
			C269.348,299.273,267.089,300.138,264.829,300.138"/>
	</g>
</g>
<g>
</g>
<g>
</g>
<g>
</g>
<g>
</g>
<g>
</g>
<g>
</g>
<g>
</g>
<g>
</g>
<g>
</g>
<g>
</g>
<g>
</g>
<g>
</g>
<g>
</g>
<g>
</g>
<g>
</g>
</svg>
