<?xml version="1.0" encoding="iso-8859-1"?>
<!-- Generator: Adobe Illustrator 19.0.0, SVG Export Plug-In . SVG Version: 6.00 Build 0)  -->
<svg xmlns="http://www.w3.org/2000/svg" xmlns:xlink="http://www.w3.org/1999/xlink" version="1.1" id="Layer_1" x="0px" y="0px" viewBox="0 0 379.344 379.344" style="enable-background:new 0 0 379.344 379.344;" xml:space="preserve" width="512" height="512">
<g>
	
		<rect x="-44.77" y="202.888" transform="matrix(0.7071 0.7071 -0.7071 0.7071 198.2541 -57.8505)" style="fill:#C3C6C8;" width="427.456" height="15"/>
	<g>
		<path style="fill:#454F58;" d="M222.074,126.827c-5.858,5.857-15.356,5.857-21.214,0c-8.486-8.486-15.986-22.029-24.672-37.711    c-8.748-15.793-18.66-33.693-28.949-43.982c-14.006-14.006-27.719-17.943-45.854-13.172c-18.932,4.982-40.236,18.553-64.904,34.27    c-4.42,2.814-8.919,5.682-13.503,8.561c-7.017,4.404-16.274,2.287-20.681-4.729c-4.406-7.016-2.285-16.272,4.727-20.68    c4.527-2.842,8.972-5.674,13.337-8.455C46.038,24.573,70.288,9.124,93.75,2.95c28.622-7.533,53.058-0.674,74.702,20.971    c13.273,13.274,24.273,33.137,33.98,50.66c6.951,12.553,14.141,25.533,19.641,31.033    C227.932,111.472,227.933,120.97,222.074,126.827z"/>
		<path style="fill:#5C6670;" d="M97.449,2.062l6.517,29.289c16.867-3.74,29.942,0.453,43.274,13.783l21.213-21.213    C147.747,3.216,124.486-3.95,97.449,2.062z"/>
	</g>
	<g>
		<path style="fill:#454F58;" d="M252.517,157.271c-5.857,5.857-5.857,15.355,0,21.213c8.486,8.486,22.029,15.986,37.711,24.672    c15.794,8.748,33.693,18.66,43.982,28.949c14.006,14.006,17.944,27.719,13.172,45.854c-4.982,18.932-18.553,40.236-34.269,64.904    c-2.815,4.42-5.682,8.92-8.56,13.504c-4.406,7.016-2.289,16.275,4.727,20.68c7.016,4.406,16.272,2.285,20.68-4.727    c2.843-4.527,5.675-8.973,8.455-13.338c16.355-25.676,31.805-49.924,37.978-73.387c7.533-28.623,0.674-53.059-20.971-74.703    c-13.273-13.273-33.137-24.273-50.659-33.979c-12.553-6.953-25.532-14.143-31.034-19.643    C267.872,151.413,258.375,151.413,252.517,157.271z"/>
		<path style="fill:#5C6670;" d="M377.283,281.896l-29.289-6.516c3.74-16.869-0.451-29.943-13.783-43.275l21.213-21.213    C376.128,231.597,383.294,254.858,377.283,281.896z"/>
	</g>
	<path style="fill:#00B3E3;" d="M234.268,102.464c-8.167-8.166-21.532-8.168-29.698,0l-6.858,6.857   c-8.167,8.168-8.167,21.531,0.001,29.699l42.612,42.613c8.167,8.166,21.531,8.166,29.698,0l6.857-6.859   c8.168-8.166,8.168-21.531,0-29.697L234.268,102.464z"/>
	<g>
		<polygon style="fill:#FFC843;" points="70.114,257.575 16.38,311.308 67.663,311.681 121.398,257.946   "/>
		<polygon style="fill:#FFC843;" points="121.77,309.232 68.036,362.964 67.663,311.681 121.398,257.946   "/>
		<path style="fill:#454F58;" d="M67.663,319.181c-1.919,0-3.839-0.732-5.303-2.196c-2.929-2.93-2.929-7.678,0-10.607L300.586,68.15    c2.93-2.928,7.678-2.928,10.607,0c2.929,2.93,2.929,7.678,0,10.607L72.967,316.984C71.502,318.448,69.583,319.181,67.663,319.181z    "/>
		<polyline style="fill:#FFC843;" points="288.568,90.78 302.468,117.409 326.75,52.597 261.937,76.878 288.566,90.778   "/>
	</g>
</g>















</svg>
