<?xml version="1.0" encoding="iso-8859-1"?>
<!-- Generator: Adobe Illustrator 19.0.0, SVG Export Plug-In . SVG Version: 6.00 Build 0)  -->
<svg version="1.1" id="Capa_1" xmlns="http://www.w3.org/2000/svg" xmlns:xlink="http://www.w3.org/1999/xlink" x="0px" y="0px"
	 viewBox="0 0 60 60" style="enable-background:new 0 0 60 60;" xml:space="preserve">
<path style="fill:#F0C419;" d="M21.03,5h-6c-1.105,0-2-0.895-2-2v0c0-1.105,0.895-2,2-2h6V5z"/>
<path style="fill:#F0C419;" d="M21.03,59h-6c-1.105,0-2-0.895-2-2v0c0-1.105,0.895-2,2-2h6V59z"/>
<path style="fill:#CB8252;" d="M21.03,59v-4c13.785,0,25-21.882,25-25s-11.215-25-25-25V1c15.99,0,29,23.676,29,29
	S37.02,59,21.03,59z"/>
<path style="fill:#E6E7E8;" d="M15.95,56c-0.34,0-0.672-0.173-0.859-0.486L0.263,30.731c-0.312-0.439-0.312-1.024,0-1.463
	L15.09,4.486c0.284-0.474,0.898-0.628,1.372-0.344c0.474,0.283,0.628,0.897,0.345,1.372L2.156,30l14.651,24.486
	c0.283,0.474,0.129,1.088-0.345,1.372C16.301,55.954,16.125,56,15.95,56z"/>
<path style="fill:#E6E7E8;" d="M16.03,6c-0.553,0-1-0.448-1-1V1c0-0.552,0.447-1,1-1s1,0.448,1,1v4C17.03,5.552,16.583,6,16.03,6z"
	/>
<path style="fill:#E6E7E8;" d="M16.03,60c-0.553,0-1-0.448-1-1v-4c0-0.552,0.447-1,1-1s1,0.448,1,1v4
	C17.03,59.552,16.583,60,16.03,60z"/>
<g>
	<path style="fill:#E6E7E8;" d="M58.933,30.078L54.03,34v-8l4.903,3.922C58.983,29.962,58.983,30.038,58.933,30.078z"/>
	<path style="fill:#BDC3C7;" d="M53.03,36.081V23.919l6.903,5.522L59.97,30c0,0.335-0.149,0.647-0.41,0.857L53.03,36.081z
		 M55.03,28.081v3.839L57.429,30L55.03,28.081z"/>
</g>
<path style="fill:#7F6E5D;" d="M54.03,31h-53c-0.553,0-1-0.448-1-1s0.447-1,1-1h53c0.553,0,1,0.448,1,1S54.583,31,54.03,31z"/>
<g>
	<polygon style="fill:#E6E7E8;" points="16.03,30 8.03,30 6.03,26 14.03,26 	"/>
	<path style="fill:#BDC3C7;" d="M17.648,31H7.412l-3-6h10.236L17.648,31z M8.648,29h5.764l-1-2H7.648L8.648,29z"/>
</g>
<g>
	<polygon style="fill:#E6E7E8;" points="6.03,34 14.03,34 16.03,30 8.03,30 	"/>
	<path style="fill:#BDC3C7;" d="M14.648,35H4.412l3-6h10.236L14.648,35z M7.648,33h5.764l1-2H8.648L7.648,33z"/>
</g>
<path style="fill:#F0C419;" d="M37.735,15.125l2.812-2.812c-0.858-1.013-1.767-1.998-2.714-2.943l-2.778,2.778
	C35.997,13.098,36.892,14.099,37.735,15.125z"/>
<path style="fill:#F0C419;" d="M37.323,45.364c-0.859,1.016-1.769,2.001-2.723,2.933l2.782,2.782
	c0.959-0.93,1.874-1.907,2.746-2.911L37.323,45.364z"/>
<g>
</g>
<g>
</g>
<g>
</g>
<g>
</g>
<g>
</g>
<g>
</g>
<g>
</g>
<g>
</g>
<g>
</g>
<g>
</g>
<g>
</g>
<g>
</g>
<g>
</g>
<g>
</g>
<g>
</g>
</svg>
