<?xml version="1.0" encoding="iso-8859-1"?>
<!-- Generator: Adobe Illustrator 19.0.0, SVG Export Plug-In . SVG Version: 6.00 Build 0)  -->
<svg version="1.1" id="Layer_1" xmlns="http://www.w3.org/2000/svg" xmlns:xlink="http://www.w3.org/1999/xlink" x="0px" y="0px"
	 viewBox="0 0 503.634 503.634" style="enable-background:new 0 0 503.634 503.634;" xml:space="preserve">
<g>
	<g>
		<path style="fill:#BD8366;" d="M406.659,459.192c4.738-4.738,10.847-7.168,17.052-7.498l-68.808-68.808l-24.55,24.55
			l68.808,68.808C399.491,470.039,401.921,463.93,406.659,459.192"/>
		<path style="fill:#BD8366;" d="M96.975,459.192c-4.738-4.738-10.847-7.168-17.052-7.498l68.07-68.061l24.541,24.541l-68.061,68.07
			C104.143,470.039,101.713,463.93,96.975,459.192"/>
	</g>
	<g>
		<path style="fill:#D69C77;" d="M352.783,404.68c-0.156,0.156-0.321,0.321-0.486,0.477c-14.501,14.31-32.898,23.864-52.467,27.579
			c-11.064,2.1-21.304-6.309-20.94-17.564l0,0c0.26-8.062,6.031-14.996,13.972-16.393c13.06-2.308,25.192-8.591,35.059-18.328
			c10.136-10.362,16.775-22.78,19.256-36.361c1.449-7.94,8.53-13.607,16.601-13.755h0.043c10.743-0.208,19.421,9.372,17.477,19.951
			C377.55,370.706,367.649,389.815,352.783,404.68"/>
		<path style="fill:#D69C77;" d="M443.477,459.192c10.171,10.171,10.171,26.65,0,36.821c-10.171,10.162-26.65,10.162-36.821,0
			c-10.162-10.171-10.162-26.65,0-36.821C416.827,449.021,433.306,449.021,443.477,459.192"/>
		<path style="fill:#D69C77;" d="M150.851,404.68c0.156,0.156,0.321,0.321,0.486,0.477c14.501,14.31,32.898,23.864,52.467,27.579
			c11.064,2.1,21.304-6.309,20.94-17.564l0,0c-0.26-8.062-6.031-14.996-13.972-16.393c-13.06-2.308-25.192-8.591-35.059-18.328
			c-10.136-10.362-16.775-22.78-19.256-36.361c-1.449-7.94-8.53-13.607-16.601-13.755h-0.043
			c-10.743-0.208-19.421,9.372-17.477,19.951C126.084,370.706,135.985,389.815,150.851,404.68"/>
		<path style="fill:#D69C77;" d="M60.157,459.192c-10.171,10.171-10.171,26.65,0,36.821c10.171,10.162,26.65,10.162,36.821,0
			c10.162-10.171,10.162-26.65,0-36.821C86.807,449.021,70.328,449.021,60.157,459.192"/>
	</g>
	<path style="fill:#C7CFE3;" d="M190.091,391.185c-5.137-2.916-10.006-6.422-14.379-10.735c-4.2-4.296-7.637-9.016-10.596-13.945
		l102.643-102.643c86.294-86.294,116.588-165.68,116.588-165.68C446.481,82.076,494.8,0,494.8,0s4.608,78.917-26.034,147.525
		c-4.096,9.181-43.39,8.678-43.39,8.678s11.09,31.822,8.678,34.712c-4.973,5.979-87.621,93.115-132.079,117.396
		c-10.292,5.623-20.463,11.342-30.165,17.937C252.251,339.551,221.219,362.192,190.091,391.185"/>
	<g>
		<path style="fill:#AFB5CB;" d="M215.517,316.104l36.3-36.3l-15.941-15.941c-86.294-86.294-116.588-165.68-116.588-165.68
			C57.153,82.077,8.834,0.001,8.834,0.001S4.226,78.918,34.868,147.526c4.096,9.181,43.39,8.678,43.39,8.678
			s-11.09,31.822-8.678,34.712c4.972,5.979,87.621,93.115,132.079,117.396C206.318,310.863,210.935,313.449,215.517,316.104"/>
		<path style="fill:#AFB5CB;" d="M271.815,326.248c-5.745,3.905-12.566,8.713-19.994,14.154
			c17.877,13.086,39.736,30.303,61.726,50.783c5.137-2.907,10.006-6.422,14.371-10.735c4.2-4.296,7.645-9.008,10.596-13.945
			l-50.393-50.402C282.584,319.314,277.117,322.638,271.815,326.248"/>
	</g>
</g>
<g>
</g>
<g>
</g>
<g>
</g>
<g>
</g>
<g>
</g>
<g>
</g>
<g>
</g>
<g>
</g>
<g>
</g>
<g>
</g>
<g>
</g>
<g>
</g>
<g>
</g>
<g>
</g>
<g>
</g>
</svg>
