<?xml version="1.0" encoding="iso-8859-1"?>
<!-- Generator: Adobe Illustrator 19.0.0, SVG Export Plug-In . SVG Version: 6.00 Build 0)  -->
<svg version="1.1" id="Layer_1" xmlns="http://www.w3.org/2000/svg" xmlns:xlink="http://www.w3.org/1999/xlink" x="0px" y="0px"
	 viewBox="0 0 512 512" style="enable-background:new 0 0 512 512;" xml:space="preserve">
<g>
	<path style="fill:#DD342E;" d="M256,0C256,0,33.103,3.681,0,52.966c0,0,20.595,230.991,256,459.034
		C491.405,283.957,512,52.966,512,52.966C478.897,3.681,256,0,256,0"/>
	<path style="fill:#B12621;" d="M255.991,449.216C102.329,286.762,58.986,129.816,47.669,72.189
		c34.613-14.071,124.116-26.589,208.322-28.045c85.654,1.51,173.762,13.771,208.234,27.922
		C452.634,129.789,408.673,287.609,255.991,449.216"/>
	<path style="fill:#F0C419;" d="M238.345,229.503c0,46.027-25.379,77.974-25.379,77.974l23.905-4.776L256,326.607l19.129-23.905
		l23.905,4.776c0,0-25.379-31.947-25.379-77.974c46.027,0,77.974,25.379,77.974,25.379l-4.776-23.905l23.905-19.129l-23.905-19.129
		l4.776-23.905c0,0-31.947,25.379-77.974,25.379c0-46.027,25.379-77.974,25.379-77.974l-23.905,4.776L256,97.089l-19.129,23.905
		l-23.905-4.776c0,0,25.379,31.947,25.379,77.974c-46.027,0-77.974-25.379-77.974-25.379l4.776,23.905l-23.905,19.129l23.905,19.129
		l-4.776,23.905C160.371,254.882,192.318,229.503,238.345,229.503"/>
</g>
<g>
</g>
<g>
</g>
<g>
</g>
<g>
</g>
<g>
</g>
<g>
</g>
<g>
</g>
<g>
</g>
<g>
</g>
<g>
</g>
<g>
</g>
<g>
</g>
<g>
</g>
<g>
</g>
<g>
</g>
</svg>
