<?xml version="1.0" encoding="iso-8859-1"?>
<!-- Generator: Adobe Illustrator 19.0.0, SVG Export Plug-In . SVG Version: 6.00 Build 0)  -->
<svg version="1.1" id="Layer_1" xmlns="http://www.w3.org/2000/svg" xmlns:xlink="http://www.w3.org/1999/xlink" x="0px" y="0px"
	 viewBox="0 0 314.468 314.468" style="enable-background:new 0 0 314.468 314.468;" xml:space="preserve">
<g>
	<path style="fill:#FF7876;" d="M157.234,7.5c0,0-67.634,25.109-134.316,47.869c0,179.538,134.316,251.601,134.316,251.601
		S291.55,234.907,291.55,55.369C224.868,32.609,157.234,7.5,157.234,7.5z"/>
	<path style="fill:#FFDB77;" d="M157.274,258.569c-50.521-39.86-86.221-100.392-93.091-175.131
		c38.502-13.432,74.209-26.409,93.051-33.314c18.842,6.905,54.551,19.882,93.053,33.315
		C243.487,157.51,208.223,218.326,157.274,258.569z"/>
	<g>
		<path style="fill:#FF7876;" d="M178.769,111.178c-11.887-0.034-21.534,9.592-21.534,21.471c0-11.879-9.647-21.505-21.534-21.471
			c-18.695,0.054-28.511,22.646-15.455,36.303l-0.006,0.002l29.427,30.587c4.131,4.294,11.004,4.294,15.135,0l29.427-30.587
			l-0.006-0.002C207.297,133.807,197.438,111.232,178.769,111.178z"/>
		<g>
			<path style="fill:#414042;" d="M293.973,48.27C228.154,25.806,160.519,0.72,159.844,0.469c-1.685-0.625-3.536-0.625-5.221,0
				C153.948,0.72,86.321,25.803,20.495,48.27c-3.036,1.037-5.077,3.89-5.077,7.098c0,77.072,24.444,144.37,68.887,197.917
				c34.122,41.112,67.96,59.529,69.383,60.292c2.214,1.188,4.877,1.189,7.092,0c1.424-0.764,35.261-19.181,69.383-60.292
				c44.449-53.555,68.887-120.856,68.887-197.917C299.05,52.16,297.009,49.307,293.973,48.27z M219.042,243.197
				c-26.074,31.567-52.47,49.329-61.814,55.078c-9.286-5.696-35.355-23.212-61.38-54.568C55.605,195.22,31.584,133.55,30.459,60.716
				c57.024-19.551,114.062-40.524,126.775-45.219c12.713,4.695,69.751,25.669,126.775,45.219
				C282.923,130.934,260.49,193.019,219.042,243.197z"/>
			<path style="fill:#414042;" d="M154.653,43.083c-18.057,6.617-54.142,19.739-92.94,33.274c-3.252,1.135-5.314,4.338-4.999,7.768
				c6.976,75.887,43.085,138.651,95.914,180.333c2.724,2.149,6.569,2.15,9.295-0.003c52.153-41.194,88.789-103.606,95.832-180.33
				c0.314-3.429-1.747-6.633-4.998-7.767c-38.814-13.541-74.892-26.66-92.943-33.275C158.148,42.472,156.319,42.472,154.653,43.083z
				 M242.224,88.565c-7.585,67.182-39.401,122.327-84.951,160.344c-46.201-38.548-77.502-93.793-85.025-160.345
				c34.986-12.25,67.122-23.915,84.987-30.453C175.095,64.647,207.228,76.312,242.224,88.565z"/>
			<path style="fill:#414042;" d="M135.679,103.678c-25.24,0.073-38.285,30.306-21.095,48.731c0.081,0.093,0.165,0.185,0.251,0.274
				l29.427,30.587c7.077,7.357,18.843,7.382,25.944,0l29.427-30.587c0.086-0.089,0.169-0.181,0.25-0.273
				c17.21-18.447,4.109-48.659-21.094-48.731c-0.029,0-0.056,0-0.084,0c-8.221,0-15.917,3.404-21.471,9.52
				C151.602,106.995,143.847,103.703,135.679,103.678z M164.735,132.65c0-7.723,6.25-13.972,13.972-13.972c0.013,0,0.027,0,0.041,0
				c7.352,0.021,13.458,5.77,13.903,13.087l0,0c0.24,3.945-1.126,7.686-3.848,10.532c-0.063,0.066-0.125,0.134-0.186,0.202
				l-29.219,30.371c-1.179,1.225-3.144,1.228-4.325,0l-29.22-30.37c-0.061-0.068-0.123-0.136-0.187-0.202
				c-8.454-8.842-2.201-23.585,10.055-23.62c7.715-0.036,14.013,6.221,14.013,13.972c0,4.142,3.358,7.5,7.5,7.5
				C161.377,140.15,164.735,136.792,164.735,132.65z"/>
		</g>
	</g>
</g>
<g>
</g>
<g>
</g>
<g>
</g>
<g>
</g>
<g>
</g>
<g>
</g>
<g>
</g>
<g>
</g>
<g>
</g>
<g>
</g>
<g>
</g>
<g>
</g>
<g>
</g>
<g>
</g>
<g>
</g>
</svg>
