<?xml version="1.0" encoding="iso-8859-1"?>
<!-- Generator: Adobe Illustrator 19.0.0, SVG Export Plug-In . SVG Version: 6.00 Build 0)  -->
<svg version="1.1" id="Layer_1" xmlns="http://www.w3.org/2000/svg" xmlns:xlink="http://www.w3.org/1999/xlink" x="0px" y="0px"
	 viewBox="0 0 512.001 512.001" style="enable-background:new 0 0 512.001 512.001;" xml:space="preserve">
<path style="fill:#4390CB;" d="M240.106,508.886l-129.82-52.571c-11.634-4.712-20.524-14.263-24.39-26.204L14.426,209.31
	c-5.514-17.036,0.338-35.792,14.56-46.67L230.277,8.687c15.146-11.582,36.301-11.582,51.444,0l201.291,153.952
	c14.225,10.88,20.077,29.636,14.56,46.672l-71.469,220.799c-3.866,11.944-12.758,21.496-24.393,26.205l-129.819,52.572
	C261.653,513.037,250.357,513.04,240.106,508.886z"/>
<path style="fill:#3F72B4;" d="M483.013,162.638L281.722,8.687C274.149,2.895,265.073,0,255.996,0v512
	c5.388,0,10.774-1.038,15.896-3.113l129.819-52.572c11.635-4.711,20.526-14.261,24.393-26.205l71.469-220.799
	C503.088,192.274,497.237,173.52,483.013,162.638z"/>
<path style="fill:#48AEE2;" d="M240.106,443.629l-80.963-32.786c-11.634-4.712-20.524-14.263-24.39-26.206L85.144,231.372
	c-5.515-17.038,0.338-35.793,14.561-46.67l130.572-99.867c15.144-11.583,36.301-11.583,51.444,0l130.575,99.867
	c14.223,10.878,20.074,29.632,14.561,46.669l-49.611,153.266c-3.866,11.944-12.756,21.495-24.39,26.206l-80.965,32.787
	C261.653,447.778,250.357,447.782,240.106,443.629z"/>
<path style="fill:#4390CB;" d="M412.296,184.702L281.722,84.835c-7.573-5.792-16.649-8.688-25.726-8.687v370.595
	c5.388,0,10.774-1.038,15.896-3.113l80.965-32.787c11.634-4.712,20.524-14.263,24.39-26.206l49.611-153.266
	C432.369,214.334,426.519,195.58,412.296,184.702z"/>
<path style="fill:#FFD76E;" d="M256,308.24c-30.017,0-54.437-24.421-54.437-54.437s24.421-54.437,54.437-54.437
	s54.437,24.421,54.437,54.437S286.018,308.24,256,308.24z"/>
<path style="fill:#F5AA2C;" d="M256,199.365c-0.001,0-0.002,0-0.004,0V308.24c0.001,0,0.002,0,0.004,0
	c30.017,0,54.437-24.421,54.437-54.437S286.018,199.365,256,199.365z"/>
<g>
</g>
<g>
</g>
<g>
</g>
<g>
</g>
<g>
</g>
<g>
</g>
<g>
</g>
<g>
</g>
<g>
</g>
<g>
</g>
<g>
</g>
<g>
</g>
<g>
</g>
<g>
</g>
<g>
</g>
</svg>
