<?xml version="1.0" encoding="iso-8859-1"?>
<!-- Generator: Adobe Illustrator 19.0.0, SVG Export Plug-In . SVG Version: 6.00 Build 0)  -->
<svg version="1.1" id="Layer_1" xmlns="http://www.w3.org/2000/svg" xmlns:xlink="http://www.w3.org/1999/xlink" x="0px" y="0px"
	 viewBox="0 0 511.991 511.991" style="enable-background:new 0 0 511.991 511.991;" xml:space="preserve">
<path style="fill:#F6BB42;" d="M487.442,100.194l-0.078-1.336c-0.203-10.507-8.594-19.078-18.906-19.257
	C430.85,78.109,336.461,67.859,269.087,5.305c-0.422-0.391-0.859-0.742-1.344-1.055c-0.453-0.43-0.953-0.82-1.5-1.172
	c-3.016-1.945-6.5-3.008-10.094-3.078c-0.125,0-0.234,0-0.359,0c-4.75,0.07-9.297,1.93-12.812,5.25
	C175.526,67.835,81.277,78.101,43.715,79.601c-10.453,0.18-18.953,8.805-19.093,19.367l-0.078,2.156
	c-0.016,0.258-0.016,0.516,0,0.773c6.547,187.505,118.139,332.972,220.387,406.563c0.031,0.016,0.062,0.031,0.094,0.062
	c3.234,2.266,7.016,3.469,10.969,3.469c3.969,0,7.766-1.219,10.953-3.469l1.359-0.969c0.031-0.031,0.078-0.062,0.125-0.094
	c56.218-40.781,107.873-97.873,145.467-160.748c21.624-36.186,38.812-74.373,51.045-113.513
	c13.453-42.991,21.016-87.42,22.516-132.068C487.458,100.819,487.458,100.507,487.442,100.194z"/>
<path style="fill:#FFCE54;" d="M444.646,110.03c-25.265-2.453-50.124-7.164-73.843-14.007
	c-41.718-12.046-78.107-30.25-108.17-54.116c-3.891-3.085-9.391-3.085-13.266-0.008c-30.078,23.859-66.468,42.062-108.139,54.108
	c-23.765,6.867-48.624,11.586-73.92,14.031c-5.781,0.562-10.062,5.672-9.594,11.469c2.781,34.843,9.578,69.546,20.156,103.139
	c11.609,36.804,27.875,72.726,48.358,106.787c32.171,53.516,75.937,103.375,123.186,140.373c1.938,1.516,4.266,2.281,6.578,2.281
	c2.328,0,4.656-0.766,6.578-2.281c33.781-26.451,82.733-72.545,124.076-141.871c39.047-65.453,61.796-135.584,67.608-208.443
	C454.724,115.694,450.443,110.592,444.646,110.03z"/>
<g style="opacity:0.2;">
	<path style="fill:#FFFFFF;" d="M255.993,405.338c-5.891,0-10.672-4.781-10.672-10.688V117.334c0-5.891,4.781-10.671,10.672-10.671
		c5.891,0,10.672,4.781,10.672,10.671V394.65C266.665,400.557,261.884,405.338,255.993,405.338z"/>
</g>
<g>
</g>
<g>
</g>
<g>
</g>
<g>
</g>
<g>
</g>
<g>
</g>
<g>
</g>
<g>
</g>
<g>
</g>
<g>
</g>
<g>
</g>
<g>
</g>
<g>
</g>
<g>
</g>
<g>
</g>
</svg>
