<?xml version="1.0" encoding="iso-8859-1"?>
<!-- Generator: Adobe Illustrator 19.0.0, SVG Export Plug-In . SVG Version: 6.00 Build 0)  -->
<svg version="1.1" id="Layer_1" xmlns="http://www.w3.org/2000/svg" xmlns:xlink="http://www.w3.org/1999/xlink" x="0px" y="0px"
	 viewBox="0 0 512 512" style="enable-background:new 0 0 512 512;" xml:space="preserve">
<path style="fill:#FFB432;" d="M256,8.828C94.897,8.828,0,52.966,0,52.966c25.379,200.828,151.172,380.69,256,450.207
	c104.828-69.517,230.621-249.379,256-450.207C512,52.966,417.103,8.828,256,8.828z"/>
<path style="fill:#FFC83C;" d="M512,52.966c0,0-94.897-44.138-256-44.138v494.345C360.828,433.655,486.621,253.793,512,52.966z"/>
<path style="fill:#6C392C;" d="M256,61.793c90.034,0,157.805,14.87,196.581,26.293C422.606,236.244,336.765,368.447,256,436.885
	C175.235,368.447,89.396,236.253,59.421,88.094C98.258,76.65,166.01,61.793,256,61.793"/>
<path style="fill:#895438;" d="M452.582,88.086C413.805,76.663,346.034,61.793,256,61.793v375.092
	C336.765,368.447,422.606,236.244,452.582,88.086z"/>
<g>
	<circle style="fill:#FFE159;" cx="256" cy="35.31" r="8.828"/>
	<circle style="fill:#FFE159;" cx="256" cy="467.862" r="8.828"/>
	<circle style="fill:#FFE159;" cx="338.019" cy="40.088" r="8.828"/>
	<circle style="fill:#FFE159;" cx="407.172" cy="49.931" r="8.828"/>
	<circle style="fill:#FFE159;" cx="451.674" cy="186.119" r="8.828"/>
	<circle style="fill:#FFE159;" cx="315.586" cy="415.161" r="8.828"/>
	<circle style="fill:#FFE159;" cx="397.605" cy="300.193" r="8.828"/>
	<circle style="fill:#FFE159;" cx="470.069" cy="127.923" r="8.828"/>
	<circle style="fill:#FFE159;" cx="426.295" cy="244.182" r="8.828"/>
	<circle style="fill:#FFE159;" cx="361.192" cy="357.308" r="8.828"/>
	<circle style="fill:#FFE159;" cx="476.69" cy="70.621" r="8.828"/>
</g>
<g>
	<circle style="fill:#FFC83C;" cx="173.981" cy="40.088" r="8.828"/>
	<circle style="fill:#FFC83C;" cx="104.828" cy="49.931" r="8.828"/>
	<circle style="fill:#FFC83C;" cx="60.322" cy="186.119" r="8.828"/>
	<circle style="fill:#FFC83C;" cx="196.414" cy="415.161" r="8.828"/>
	<circle style="fill:#FFC83C;" cx="114.394" cy="300.193" r="8.828"/>
	<circle style="fill:#FFC83C;" cx="41.931" cy="127.923" r="8.828"/>
	<circle style="fill:#FFC83C;" cx="85.705" cy="244.182" r="8.828"/>
	<circle style="fill:#FFC83C;" cx="150.808" cy="357.308" r="8.828"/>
	<circle style="fill:#FFC83C;" cx="35.31" cy="70.621" r="8.828"/>
	<path style="fill:#FFC83C;" d="M256,97.103c64.096,0,116.175,7.776,154.388,16.481C379.993,228.589,315.871,328.783,256,388.814
		c-59.871-60.031-123.993-160.224-154.387-275.225C139.825,104.883,191.906,97.103,256,97.103"/>
</g>
<g>
	<path style="fill:#FFB432;" d="M101.613,113.589C132.007,228.59,196.13,328.783,256,388.814V97.103
		C191.906,97.103,139.825,104.883,101.613,113.589z"/>
	<circle style="fill:#FFB432;" cx="256" cy="211.862" r="79.448"/>
</g>
<path style="fill:#FF9622;" d="M176.552,211.862c0,43.879,35.57,79.448,79.448,79.448V132.414
	C212.121,132.414,176.552,167.983,176.552,211.862z"/>
<rect x="212.308" y="168.166" transform="matrix(-0.7071 -0.7071 0.7071 -0.7071 287.2175 542.6943)" style="fill:#FFE159;" width="87.392" height="87.392"/>
<g>
	<polygon style="fill:#FFB432;" points="194.207,211.862 256,273.655 256,150.069 	"/>
	
		<rect x="231.034" y="186.892" transform="matrix(-0.7071 -0.7071 0.7071 -0.7071 287.2175 542.6943)" style="fill:#FFB432;" width="49.942" height="49.942"/>
</g>
<rect x="224.794" y="180.66" transform="matrix(-0.7071 -0.7071 0.7071 -0.7071 287.2119 542.7077)" style="fill:#FF5A4E;" width="62.421" height="62.421"/>
<polygon style="fill:#F8392E;" points="211.862,211.862 256,256 256,167.724 "/>
<circle style="fill:#FF7E68;" cx="256" cy="211.862" r="17.655"/>
<path style="fill:#FF5A4E;" d="M238.345,211.862c0,9.75,7.905,17.655,17.655,17.655v-35.31
	C246.25,194.207,238.345,202.111,238.345,211.862z"/>
<circle style="fill:#FFD2B8;" cx="259.443" cy="208.408" r="7.31"/>
<g>
</g>
<g>
</g>
<g>
</g>
<g>
</g>
<g>
</g>
<g>
</g>
<g>
</g>
<g>
</g>
<g>
</g>
<g>
</g>
<g>
</g>
<g>
</g>
<g>
</g>
<g>
</g>
<g>
</g>
</svg>
