<?xml version="1.0" encoding="UTF-8" standalone="no"?>
<!-- Created with Inkscape (http://www.inkscape.org/) -->

<svg
   xmlns:dc="http://purl.org/dc/elements/1.1/"
   xmlns:cc="http://creativecommons.org/ns#"
   xmlns:rdf="http://www.w3.org/1999/02/22-rdf-syntax-ns#"
   xmlns:svg="http://www.w3.org/2000/svg"
   xmlns="http://www.w3.org/2000/svg"
   xmlns:sodipodi="http://sodipodi.sourceforge.net/DTD/sodipodi-0.dtd"
   xmlns:inkscape="http://www.inkscape.org/namespaces/inkscape"
   width="170mm"
   height="297mm"
   viewBox="0 0 170 297"
   version="1.1"
   id="svg5205"
   inkscape:version="0.92.1 r15371"
   sodipodi:docname="ajuda-mago-1.svg">
  <defs
     id="defs5199">
    <clipPath
       clipPathUnits="userSpaceOnUse"
       id="clipPath9195">
      <rect
         style="opacity:1;fill:none;fill-opacity:1;stroke:#000000;stroke-width:0.41468519"
         id="rect9197"
         width="286.2865"
         height="173.06219"
         x="636.15247"
         y="341.80554" />
    </clipPath>
  </defs>
  <sodipodi:namedview
     id="base"
     pagecolor="#ffffff"
     bordercolor="#666666"
     borderopacity="1.0"
     inkscape:pageopacity="0.0"
     inkscape:pageshadow="2"
     inkscape:zoom="0.69999999"
     inkscape:cx="171.85168"
     inkscape:cy="858.50901"
     inkscape:document-units="mm"
     inkscape:current-layer="g5254"
     showgrid="false"
     inkscape:window-width="1366"
     inkscape:window-height="705"
     inkscape:window-x="-8"
     inkscape:window-y="-8"
     inkscape:window-maximized="1" />
  <metadata
     id="metadata5202">
    <rdf:RDF>
      <cc:Work
         rdf:about="">
        <dc:format>image/svg+xml</dc:format>
        <dc:type
           rdf:resource="http://purl.org/dc/dcmitype/StillImage" />
        <dc:title />
      </cc:Work>
    </rdf:RDF>
  </metadata>
  <g
     inkscape:label="Camada 1"
     inkscape:groupmode="layer"
     id="layer1">
    <g
       id="g6040"
       transform="matrix(0.42115269,0,0,0.42115269,243.90043,130.32188)">
      <g
         transform="translate(-509.53549,73.655277)"
         id="g5811">
        <path
           style="fill:#764c24;fill-opacity:1;stroke:#000000;stroke-width:0.26458332px;stroke-linecap:butt;stroke-linejoin:miter;stroke-opacity:1"
           d="m 134.1693,295.39639 c 2.55005,7.31887 -2.64304,8.61529 -6.1472,11.22532 -20.24731,11.30922 -48.462794,17.46599 -56.928406,3.20722 -0.273245,-12.95769 4.285632,-17.86184 12.561668,-16.57072 -5.487687,8.06882 -3.947958,14.66893 8.819893,6.14722 l 8.552625,-6.94901 z"
           id="path5792"
           inkscape:connector-curvature="0"
           sodipodi:nodetypes="ccccccc" />
        <path
           style="fill:#764c24;fill-opacity:1;stroke:#000000;stroke-width:0.26458332px;stroke-linecap:butt;stroke-linejoin:miter;stroke-opacity:1"
           d="m 162.56459,293.78996 c -2.55005,7.31887 2.64304,8.61529 6.1472,11.22532 20.24731,11.30922 48.4628,17.46599 56.92841,3.20722 0.27325,-12.95769 -4.28563,-17.86184 -12.56167,-16.57072 5.48769,8.06882 3.94796,14.66893 -8.81989,6.14722 l -8.55263,-6.94901 z"
           id="path5792-6"
           inkscape:connector-curvature="0"
           sodipodi:nodetypes="ccccccc" />
      </g>
      <g
         transform="matrix(1,0,0,1.0332344,-508.15328,-0.43230931)"
         id="g5837">
        <g
           id="g5832"
           style="stroke:none">
          <path
             sodipodi:nodetypes="cczccc"
             inkscape:connector-curvature="0"
             id="path5813"
             d="m 117.73958,56.418154 c -4.68887,14.051395 -4.73436,18.220571 -4.27041,23.86212 0.22674,3.941473 2.64213,8.647834 6.16029,8.83282 3.51816,0.184986 11.88535,-10.208966 22.11161,-9.449405 l 0.56696,-21.166667 z"
             style="fill:#dfb28b;fill-opacity:1;stroke:none;stroke-width:0.26458332px;stroke-linecap:butt;stroke-linejoin:miter;stroke-opacity:1" />
          <path
             sodipodi:nodetypes="ccccc"
             inkscape:connector-curvature="0"
             id="path5813-0"
             d="m 178.87722,57.646577 c 4.05195,15.065897 -2.68806,31.815542 -16.72544,31.844493 -7.6759,-0.0985 -12.5468,-8.980543 -20.41071,-9.827381 l 0.56696,-21.166667 z"
             style="fill:#cf9e76;fill-opacity:1;stroke:none;stroke-width:0.26458332px;stroke-linecap:butt;stroke-linejoin:miter;stroke-opacity:1" />
        </g>
      </g>
      <g
         transform="translate(-508.34664,-18.708866)"
         style="stroke:none"
         id="g5790">
        <path
           style="fill:#0071bd;fill-opacity:1;stroke:none;stroke-width:0.26458332px;stroke-linecap:butt;stroke-linejoin:miter;stroke-opacity:1"
           d="m 85.839373,363.91942 c -0.309558,25.53848 14.672177,21.76866 25.657877,25.65789 47.95635,2.50543 76.57673,0.0775 89.26802,-6.41448 7.44949,-3.90569 14.64492,-8.20965 15.50163,-22.45063 -0.6582,-19.77795 3.61584,-84.91303 -2.98582,-154.58384 12.47868,-1.29119 25.36867,-2.11232 31.00327,-11.22532 -5.68163,-29.80332 -14.44282,-58.65908 -33.14143,-84.45717 l -122.943977,5.34539 c -22.27246,20.38118 -37.061374,51.72759 -55.592061,56.66114 -5.373203,19.74383 -4.323969,37.07925 6.414468,50.78121 17.048359,20.5065 17.179195,12.25402 23.611431,11.75986 6.050952,-7.46923 8.935858,-5.58257 27.16978,-37.41774 -9.318439,60.91588 -3.525178,140.96294 -3.963188,166.34369 z"
           id="path5784"
           inkscape:connector-curvature="0"
           sodipodi:nodetypes="ccccccccccccc" />
        <path
           style="fill:#005995;fill-opacity:1;stroke:none;stroke-width:0.26458332px;stroke-linecap:butt;stroke-linejoin:miter;stroke-opacity:1"
           d="m 32.606882,172.4524 c 9.719876,1.32012 19.153007,7.51491 27.869308,25.89581 13.124981,37.13936 1.731099,35.27143 -6.425597,38.55357 C 20.565245,217.58551 29.865923,190.0129 32.606882,172.4524 Z"
           id="path5786"
           inkscape:connector-curvature="0"
           sodipodi:nodetypes="cccc" />
      </g>
      <g
         style="fill:#ecf3fb;fill-opacity:1"
         transform="translate(-508.34664,1.6036175)"
         id="g5777">
        <path
           style="fill:#cccccc;fill-opacity:1;stroke:none;stroke-width:0.26458332px;stroke-linecap:butt;stroke-linejoin:miter;stroke-opacity:1"
           d="m 115.46044,56.457423 v 0 l 2.67269,0.400905 c -3.65491,12.639689 -7.53376,25.387957 0.26727,32.473249 -5.3841,0.615618 -13.80755,-9.581829 -2.93996,-32.874154 z"
           id="path5769"
           inkscape:connector-curvature="0"
           sodipodi:nodetypes="ccccc" />
        <path
           style="fill:#ecf3fb;fill-opacity:1;stroke:none;stroke-width:0.26458332px;stroke-linecap:butt;stroke-linejoin:miter;stroke-opacity:1"
           d="m 115.46044,56.457423 -13.36348,-3.207234 c -35.621911,51.532041 2.69484,143.227471 49.17759,158.223561 -5.84103,-6.61436 -10.32917,-13.364 -2.13816,-21.38156 45.7216,-38.88688 67.59487,-72.47413 62.00653,-99.958804 -1.49135,-11.024688 -4.2784,-22.308516 -12.82893,-34.745041 l -19.24341,2.138156 c 3.6568,19.158434 -3.74871,29.353531 -14.03164,31.938711 -10.28294,2.585181 -14.56812,-9.786982 -24.45517,-10.022609 -9.88705,-0.235627 -13.71557,10.063579 -22.04974,9.888975 -8.33416,-0.174605 -10.01277,-18.704344 -3.07359,-32.874155 z"
           id="path5767"
           inkscape:connector-curvature="0"
           sodipodi:nodetypes="ccccccczzzc" />
        <path
           inkscape:transform-center-y="-0.80912441"
           inkscape:transform-center-x="-0.40680364"
           d="m 189.07857,188.92051 -6.95505,-4.6441 -7.76863,3.09658 2.26759,-8.04975 -5.34567,-6.43151 8.35649,-0.33091 4.46482,-7.07147 2.89702,7.84523 8.10508,2.0611 -6.56604,5.17953 z"
           inkscape:randomized="0"
           inkscape:rounded="0"
           inkscape:flatsided="false"
           sodipodi:arg2="1.6755161"
           sodipodi:arg1="1.0471976"
           sodipodi:r2="6.2968493"
           sodipodi:r1="12.593697"
           sodipodi:cy="178.01405"
           sodipodi:cx="182.78172"
           sodipodi:sides="5"
           id="path5992-2"
           style="opacity:1;fill:#f8d534;fill-opacity:1;stroke:none;stroke-width:0.43749675"
           sodipodi:type="star" />
      </g>
      <g
         id="g5782">
        <path
           style="fill:#005995;fill-opacity:1;stroke:none;stroke-width:0.26371107px;stroke-linecap:butt;stroke-linejoin:miter;stroke-opacity:1"
           d="m -450.92584,22.211309 c 0,0 -4.88289,37.57406 98.75337,38.55357 104.7683,0.990211 102.88375,-38.175593 102.88375,-38.175593 0,0 -11.15506,31.732051 -104.3857,30.842855 -90.12583,-0.859583 -97.25142,-31.220832 -97.25142,-31.220832 z"
           id="path5761"
           inkscape:connector-curvature="0"
           sodipodi:nodetypes="cscsc" />
        <ellipse
           style="opacity:1;fill:#006db5;fill-opacity:1;stroke:none;stroke-width:10.1013279"
           id="path5763"
           cx="-350.19495"
           cy="21.455357"
           rx="100.73065"
           ry="32.505951" />
        <path
           style="fill:#107fc7;fill-opacity:1;stroke:none;stroke-width:0.26458332px;stroke-linecap:butt;stroke-linejoin:miter;stroke-opacity:1"
           d="m -305.40477,12.761905 c -7.42635,14.437524 -84.24139,20.629163 -92.22619,0 29.891,-46.951725 68.50518,-89.176639 86.93453,-88.824404 7.93224,6.126368 15.24751,24.869346 18.8988,39.687499 l -3.40178,1.511906 c -5.96279,-6.570834 -10.04876,-18.774736 -15.875,-18.142857 -13.12319,40.688955 0.13003,48.4073967 5.66964,65.767856 z"
           id="path5765"
           inkscape:connector-curvature="0"
           sodipodi:nodetypes="ccccccc" />
      </g>
      <path
         sodipodi:nodetypes="ccczczc"
         inkscape:connector-curvature="0"
         id="path5935"
         d="m -449.94932,175.10363 c -3.43084,-6.9033 -8.33645,-11.84023 -13.89802,-15.90254 -2.95935,1.43802 -9.38584,1.14246 -18.04069,-0.26727 -17.54328,2.22487 -17.35579,19.97256 -15.368,30.20148 1.98778,10.2289 11.49259,16.03615 11.49259,16.03615 7.08587,3.7201 15.00113,-6.22615 16.97161,-13.0962 1.97048,-6.87007 2.5678,-8.44036 18.84251,-16.97162 z"
         style="fill:#dfb28b;fill-opacity:1;stroke:none;stroke-width:0.26458332px;stroke-linecap:butt;stroke-linejoin:miter;stroke-opacity:1" />
      <g
         transform="translate(102.89877,-9.8889725)"
         id="g5964">
        <path
           sodipodi:nodetypes="cccczcczzc"
           inkscape:connector-curvature="0"
           id="path5966"
           d="m -369.41791,187.59505 c -5.53476,5.74252 -14.54117,7.55051 -23.78699,9.08716 -2.53806,3.30301 -4.81146,6.90378 -4.54358,13.36348 l 0.80181,10.0226 c 2.05282,3.05162 3.73459,1.76981 4.40994,-1.33634 0.67535,-3.10615 0.0878,-5.22994 2.80633,-9.75534 1.54726,3.52937 2.93918,7.15715 1.73725,12.42803 -2.67267,8.19624 -0.15756,11.00146 6.28083,8.8199 6.4384,-2.18156 15.09057,-7.50947 18.30797,-12.6953 3.2174,-5.18583 -0.91101,-20.73909 -6.01356,-29.93419 z"
           style="fill:#dfb28b;fill-opacity:1;stroke:none;stroke-width:0.26458332px;stroke-linecap:butt;stroke-linejoin:miter;stroke-opacity:1" />
        <path
           style="opacity:1;fill:#c69c6c;fill-opacity:1;stroke:none;stroke-width:0.4480527"
           d="m -584.5071,137.71872 h 7.41499 v 258.43887 c -0.48175,2.65259 -6.61612,3.04525 -7.41499,0 z"
           id="rect5932"
           inkscape:connector-curvature="0"
           sodipodi:nodetypes="ccccc" />
        <g
           id="g5930"
           transform="translate(-378.45365,13.898015)">
          <g
             transform="translate(-236.23456,-0.84766482)"
             id="g5897">
            <path
               style="opacity:1;fill:#998675;fill-opacity:1;stroke:none;stroke-width:0.94488192"
               d="m 164.72656,227.88672 c 26.75988,24.20638 47.9999,61.5393 48.05664,97.62305 8e-5,70.65365 -57.27604,127.92977 -127.929684,127.92968 -25.996192,-0.0113 -56.170264,-15.0132 -77.5462717,-29.8074 28.3734947,42.30266 67.1641637,56.01533 106.8392357,56.03006 72.30542,8.2e-4 130.92074,-58.6145 130.91993,-130.91992 -0.0701,-50.33455 -34.93869,-99.12285 -80.33985,-120.85547 z"
               transform="scale(0.26458333)"
               id="path5859"
               inkscape:connector-curvature="0"
               sodipodi:nodetypes="ccccccc" />
            <path
               style="opacity:1;fill:#c7b199;fill-opacity:1;stroke:none;stroke-width:3.83081412"
               d="m 164.72656,227.88672 c 22.63237,23.51673 35.28016,54.88315 35.29102,87.52148 -3.7e-4,69.74058 -56.53676,126.2761 -126.277346,126.27539 C 46.584808,441.6288 29.819291,436.09713 7.3072443,423.63205 31.10517,448.38132 55.063802,455.30929 89.398438,455.32031 159.13826,455.31994 215.67346,398.78474 215.67383,329.04492 215.61418,289.1732 196.72699,251.6718 164.72656,227.88672 Z"
               id="path5877"
               transform="scale(0.26458333)"
               inkscape:connector-curvature="0"
               sodipodi:nodetypes="ccccccc" />
          </g>
          <g
             transform="matrix(0.6133706,0,0,0.6133706,-77.465707,37.146002)"
             id="g5988">
            <path
               sodipodi:type="star"
               style="opacity:1;fill:#ff7f2a;fill-opacity:1;stroke:none;stroke-width:0.25"
               id="path5968"
               sodipodi:sides="10"
               sodipodi:cx="-216.85294"
               sodipodi:cy="82.596527"
               sodipodi:r1="36.739597"
               sodipodi:r2="18.369799"
               sodipodi:arg1="0.63938591"
               sodipodi:arg2="0.95354517"
               inkscape:flatsided="false"
               inkscape:rounded="0"
               inkscape:randomized="0"
               d="m -187.37079,104.51915 -18.84978,-6.942556 0.3334,20.084876 -11.16907,-16.69627 -11.53586,16.44497 0.77785,-20.072571 -18.99882,6.523651 12.42766,-15.781842 -19.20487,-5.889484 19.33052,-5.46298 -12.07532,-16.053036 18.84978,6.942552 -0.3334,-20.084874 11.16907,16.696267 11.53586,-16.444972 -0.77786,20.072574 18.99883,-6.52365 -12.42767,15.781841 19.20488,5.889484 -19.33052,5.46298 z"
               inkscape:transform-center-x="-6.495238e-006" />
            <circle
               style="opacity:1;fill:#ffd42a;fill-opacity:1;stroke:none;stroke-width:0.29104477"
               id="path5901-1"
               cx="-216.85294"
               cy="82.596527"
               r="20.847023" />
            <path
               style="opacity:1;fill:#d4aa00;fill-opacity:1;stroke:none;stroke-width:0.29104477"
               d="m -199.32047,70.763637 a 22.717911,22.717911 0 0 1 1.36839,7.704442 22.717911,22.717911 0 0 1 -22.71748,22.717991 22.717911,22.717911 0 0 1 -8.22999,-1.567861 20.847023,20.847023 0 0 0 12.95735,4.542871 20.847023,20.847023 0 0 0 20.84679,-20.846787 20.847023,20.847023 0 0 0 -4.22506,-12.550656 z"
               id="path5901"
               inkscape:connector-curvature="0" />
          </g>
        </g>
      </g>
      <path
         sodipodi:nodetypes="cccccc"
         inkscape:connector-curvature="0"
         id="path5937"
         d="m -472.94766,160.12362 c -1.24324,8.34656 -6.17169,11.37004 -11.90625,13.22916 l 0.94494,9.07143 c 5.63811,0.92126 10.1735,0.46414 13.79613,-1.13393 l -0.18898,-20.97768 z"
         style="fill:#dfb28b;fill-opacity:1;stroke:none;stroke-width:0.26458332px;stroke-linecap:butt;stroke-linejoin:miter;stroke-opacity:1" />
    </g>
    <g
       id="g5254"
       transform="translate(3.0238096,0.22678546)">
      <path
         sodipodi:nodetypes="ccccssc"
         inkscape:connector-curvature="0"
         id="path4535"
         d="m 153.58798,46.72347 c -4.84915,27.520418 -27.09079,37.267101 -46.18152,42.00814 -4.24687,1.030244 -13.280539,26.04409 -13.280539,26.04409 0,0 -8.631672,-22.971204 -13.106753,-22.971204 C 40.94052,91.804496 8.4503572,71.621033 8.4503572,46.72347 8.4503567,21.825906 40.94052,1.6424435 81.019168,1.6424424 c 40.078652,0 72.568812,20.1834636 72.568812,45.0810276 z"
         style="opacity:1;fill:#ffffff;fill-opacity:1;stroke:#000000;stroke-width:0.76809865" />
      <g
         aria-label="Aqui estão as 
atividades que você
precisa terminar hoje,
para ganhar mais
pontos."
         style="font-style:normal;font-variant:normal;font-weight:normal;font-stretch:normal;font-size:10.96627712px;line-height:1.25;font-family:Calligraffitti;-inkscape-font-specification:Calligraffitti;letter-spacing:0px;word-spacing:0px;fill:#000000;fill-opacity:1;stroke:none;stroke-width:0.29373959"
         id="text6080-5">
        <path
           d="m 51.762446,16.638686 h -2.606939 l -0.838382,2.245884 h 1.517655 v 0.312099 H 46.860666 V 18.88457 h 1.132122 l 2.992472,-8.083958 h 0.189707 l 2.87008,8.083958 h 1.101524 v 0.312099 H 51.236162 V 18.88457 h 1.327948 z m -2.490667,-0.312098 h 2.380514 l -1.156599,-3.286212 h -0.02448 z"
           style="font-style:normal;font-variant:normal;font-weight:normal;font-stretch:normal;font-size:12.53288937px;font-family:'Bodoni MT';-inkscape-font-specification:'Bodoni MT';text-align:center;text-anchor:middle;stroke-width:0.29373959"
           id="path4572" />
        <path
           d="m 59.809687,18.395004 h -0.02448 q -0.507925,0.8751 -1.431981,0.8751 -0.881219,0 -1.603328,-0.771067 -0.715991,-0.777186 -0.715991,-1.835872 0,-0.991372 0.654795,-1.707362 0.660914,-0.72211 1.529894,-0.72211 1.058686,0 1.566611,1.040328 h 0.02448 v -0.966893 q 0.728229,0.07955 1.401383,0.07955 h 0.691512 v 0.312098 h -0.905697 v 7.355729 h 0.832262 v 0.348816 H 58.818316 V 22.05451 h 0.991371 z m 0,-1.591089 q 0,-0.740469 -0.116272,-1.119882 -0.110152,-0.385534 -0.471207,-0.777186 -0.354935,-0.397773 -0.954654,-0.397773 -0.293739,0 -0.526283,0.195827 -0.226425,0.195826 -0.281501,0.618077 -0.05508,0.42225 -0.05508,1.480937 0,1.340187 0.214185,1.768557 0.214185,0.422251 0.709871,0.422251 0.489566,0 0.881219,-0.29374 0.391653,-0.299859 0.495685,-0.709871 0.104033,-0.410011 0.104033,-1.187197 z"
           style="font-style:normal;font-variant:normal;font-weight:normal;font-stretch:normal;font-size:12.53288937px;font-family:'Bodoni MT';-inkscape-font-specification:'Bodoni MT';text-align:center;text-anchor:middle;stroke-width:0.29373959"
           id="path4574" />
        <path
           d="m 67.832449,14.386683 v 4.497887 h 0.826143 v 0.312099 h -0.826143 q -0.954653,0 -1.205556,0.07343 v -1.138241 h -0.02448 q -0.550762,1.138241 -1.73184,1.138241 -0.679273,0 -1.095404,-0.354936 -0.410011,-0.361055 -0.410011,-1.511535 v -2.704852 h -0.887339 v -0.312098 h 2.080656 v 3.231135 q 0,0.758828 0.09179,1.052567 0.09179,0.28762 0.471208,0.28762 0.563001,0 1.040327,-0.599718 0.477327,-0.605838 0.477327,-1.817514 V 14.698781 H 65.66 v -0.312098 z"
           style="font-style:normal;font-variant:normal;font-weight:normal;font-stretch:normal;font-size:12.53288937px;font-family:'Bodoni MT';-inkscape-font-specification:'Bodoni MT';text-align:center;text-anchor:middle;stroke-width:0.29373959"
           id="path4576" />
        <path
           d="m 70.157888,11.938853 q 0,-0.269261 0.195827,-0.465088 0.201946,-0.195826 0.471207,-0.195826 0.269261,0 0.465088,0.195826 0.201946,0.189707 0.201946,0.465088 0,0.28762 -0.195827,0.477327 -0.195826,0.189706 -0.471207,0.189706 -0.275381,0 -0.471207,-0.189706 -0.195827,-0.195827 -0.195827,-0.477327 z m 1.230035,2.356036 v 4.589681 h 0.801664 v 0.312099 H 69.343985 V 18.88457 h 0.85674 v -4.185789 h -0.85674 v -0.312098 h 0.86898 q 0.624196,0 1.174958,-0.09179 z"
           style="font-style:normal;font-variant:normal;font-weight:normal;font-stretch:normal;font-size:12.53288937px;font-family:'Bodoni MT';-inkscape-font-specification:'Bodoni MT';text-align:center;text-anchor:middle;stroke-width:0.29373959"
           id="path4578" />
        <path
           d="M 80.432655,16.424501 H 77.33615 q -0.04284,1.811394 0.201946,2.233645 0.244783,0.416131 0.875099,0.416131 1.29735,0 1.756318,-1.505415 h 0.263142 q -0.201946,0.911816 -0.764947,1.346306 -0.563001,0.43449 -1.254513,0.43449 -0.985251,0 -1.713481,-0.728229 -0.728229,-0.734349 -0.728229,-1.841992 0,-1.077046 0.709871,-1.811395 0.71599,-0.734349 1.658404,-0.734349 0.820023,0 1.431981,0.58136 0.618077,0.58136 0.660914,1.609448 z M 77.33615,16.14912 h 1.780796 q 0.04896,-0.434489 0.04896,-0.660914 0,-0.979132 -0.887338,-0.979132 -0.44061,0 -0.691512,0.238664 -0.250903,0.232544 -0.250903,0.636435 z"
           style="font-style:normal;font-variant:normal;font-weight:normal;font-stretch:normal;font-size:12.53288937px;font-family:'Bodoni MT';-inkscape-font-specification:'Bodoni MT';text-align:center;text-anchor:middle;stroke-width:0.29373959"
           id="path4580" />
        <path
           d="m 84.679641,14.331607 v 1.370784 h -0.250903 q -0.2815,-1.193317 -1.370785,-1.193317 -0.471207,0 -0.789425,0.250903 -0.312098,0.244783 -0.312098,0.563001 0,0.269261 0.220304,0.42837 0.226425,0.152989 1.058687,0.263142 1.829753,0.226424 1.829753,1.664524 0,0.71599 -0.477327,1.193317 -0.471207,0.477327 -1.174958,0.477327 -0.691512,0 -1.340187,-0.56912 l -0.428371,0.367174 h -0.214185 v -1.805275 h 0.214185 q 0.526284,1.73184 1.768558,1.73184 0.471207,0 0.85674,-0.299859 0.385533,-0.299859 0.385533,-0.703751 0,-0.336577 -0.232544,-0.507925 -0.226424,-0.171348 -1.236154,-0.318218 -1.7196,-0.250902 -1.7196,-1.529893 0,-0.630317 0.458968,-1.052567 0.465088,-0.428371 1.132121,-0.428371 0.703751,0 1.181078,0.465088 0.122392,-0.128511 0.250903,-0.367174 z"
           style="font-style:normal;font-variant:normal;font-weight:normal;font-stretch:normal;font-size:12.53288937px;font-family:'Bodoni MT';-inkscape-font-specification:'Bodoni MT';text-align:center;text-anchor:middle;stroke-width:0.29373959"
           id="path4582" />
        <path
           d="m 88.1372,12.99142 v 1.395263 h 1.450339 v 0.312098 H 88.1372 v 3.02919 q 0,0.667033 0.08567,0.911816 0.09179,0.244783 0.477327,0.244783 0.293739,0 0.563001,-0.195826 0.27538,-0.195826 0.416131,-0.605838 h 0.263141 q -0.2815,1.187198 -1.707361,1.187198 -0.599718,0 -0.881219,-0.214186 -0.2815,-0.220304 -0.348816,-0.538522 -0.06119,-0.318218 -0.06119,-0.86286 v -2.955755 h -1.089285 v -0.312098 h 1.089285 v -1.291231 q 0.605838,0 1.193317,-0.104032 z"
           style="font-style:normal;font-variant:normal;font-weight:normal;font-stretch:normal;font-size:12.53288937px;font-family:'Bodoni MT';-inkscape-font-specification:'Bodoni MT';text-align:center;text-anchor:middle;stroke-width:0.29373959"
           id="path4584" />
        <path
           d="m 93.963035,16.44898 v -0.624197 q 0,-0.764947 -0.128512,-1.00361 -0.122391,-0.238664 -0.673153,-0.238664 -0.991371,0 -0.991371,0.379414 0,0.110152 0.07955,0.244783 0.08567,0.128511 0.08567,0.305979 0,0.250902 -0.165229,0.385533 -0.165228,0.128511 -0.373294,0.128511 -0.269261,0 -0.416131,-0.165229 -0.14687,-0.171348 -0.14687,-0.397772 0,-0.489566 0.569121,-0.820023 0.57524,-0.336577 1.597209,-0.336577 0.820023,0 1.199436,0.189707 0.379414,0.189707 0.465088,0.471207 0.09179,0.281501 0.09179,0.795545 v 2.252004 q 0,0.495685 0.06732,0.618077 0.07343,0.122391 0.220305,0.122391 0.220304,0 0.42837,-0.299859 h 0.14687 q -0.159109,0.893458 -1.040328,0.893458 -0.850621,0 -1.015849,-0.979132 -0.715991,0.979132 -1.676764,0.979132 -0.636436,0 -1.015849,-0.342696 -0.379414,-0.348816 -0.379414,-0.850621 0,-1.560492 3.072027,-1.707361 z m 0,0.942414 V 16.73048 q -1.132122,0.04284 -1.493177,0.342696 -0.361055,0.29374 -0.361055,0.856741 0,0.410011 0.214185,0.636435 0.220305,0.226425 0.501806,0.226425 0.361055,0 0.648675,-0.238664 0.293739,-0.244783 0.391652,-0.489566 0.09791,-0.244783 0.09791,-0.673153 z m 1.052566,-5.7524 h 0.238664 q -0.01224,0.667033 -0.367175,1.015849 -0.348815,0.348816 -0.795544,0.348816 -0.403892,0 -1.028089,-0.269261 -0.624197,-0.269262 -0.838382,-0.269262 -0.465087,0 -0.57524,0.538523 h -0.238663 q 0,-0.691512 0.342696,-1.028089 0.348816,-0.336576 0.832262,-0.336576 0.422251,0 1.01585,0.263141 0.599718,0.263142 0.850621,0.263142 0.410011,0 0.563,-0.526283 z"
           style="font-style:normal;font-variant:normal;font-weight:normal;font-stretch:normal;font-size:12.53288937px;font-family:'Bodoni MT';-inkscape-font-specification:'Bodoni MT';text-align:center;text-anchor:middle;stroke-width:0.29373959"
           id="path4586" />
        <path
           d="m 96.949388,16.779437 q 0,-1.058687 0.72823,-1.799155 0.728229,-0.746589 1.805274,-0.746589 1.052568,0 1.780798,0.715991 0.73435,0.70987 0.73435,1.780796 0,1.095404 -0.75883,1.860351 -0.75883,0.758827 -1.793035,0.758827 -1.01585,0 -1.756318,-0.740469 -0.740469,-0.746588 -0.740469,-1.829752 z m 3.671742,0 q 0,-1.126002 -0.0795,-1.487057 -0.0734,-0.361055 -0.3427,-0.569121 -0.263139,-0.214185 -0.728227,-0.214185 -0.440609,0 -0.728229,0.220305 -0.281501,0.214185 -0.348816,0.57524 -0.06731,0.361055 -0.06731,1.487057 0,1.132121 0.07955,1.499296 0.08567,0.367174 0.361055,0.57524 0.2815,0.208065 0.703751,0.208065 0.42837,0 0.709867,-0.208065 0.28762,-0.214186 0.36106,-0.58748 0.0795,-0.379413 0.0795,-1.499295 z"
           style="font-style:normal;font-variant:normal;font-weight:normal;font-stretch:normal;font-size:12.53288937px;font-family:'Bodoni MT';-inkscape-font-specification:'Bodoni MT';text-align:center;text-anchor:middle;stroke-width:0.29373959"
           id="path4588" />
        <path
           d="m 109.33541,16.44898 v -0.624197 q 0,-0.764947 -0.12851,-1.00361 -0.1224,-0.238664 -0.67316,-0.238664 -0.99137,0 -0.99137,0.379414 0,0.110152 0.0796,0.244783 0.0857,0.128511 0.0857,0.305979 0,0.250902 -0.16523,0.385533 -0.16523,0.128511 -0.37329,0.128511 -0.26926,0 -0.41613,-0.165229 -0.14687,-0.171348 -0.14687,-0.397772 0,-0.489566 0.56912,-0.820023 0.57524,-0.336577 1.59721,-0.336577 0.82002,0 1.19943,0.189707 0.37942,0.189707 0.46509,0.471207 0.0918,0.281501 0.0918,0.795545 v 2.252004 q 0,0.495685 0.0673,0.618077 0.0734,0.122391 0.2203,0.122391 0.22031,0 0.42837,-0.299859 h 0.14687 q -0.15911,0.893458 -1.04032,0.893458 -0.85063,0 -1.01585,-0.979132 -0.71599,0.979132 -1.67677,0.979132 -0.63643,0 -1.01585,-0.342696 -0.37941,-0.348816 -0.37941,-0.850621 0,-1.560492 3.07203,-1.707361 z m 0,0.942414 V 16.73048 q -1.13213,0.04284 -1.49318,0.342696 -0.36105,0.29374 -0.36105,0.856741 0,0.410011 0.21418,0.636435 0.2203,0.226425 0.50181,0.226425 0.36105,0 0.64867,-0.238664 0.29374,-0.244783 0.39165,-0.489566 0.0979,-0.244783 0.0979,-0.673153 z"
           style="font-style:normal;font-variant:normal;font-weight:normal;font-stretch:normal;font-size:12.53288937px;font-family:'Bodoni MT';-inkscape-font-specification:'Bodoni MT';text-align:center;text-anchor:middle;stroke-width:0.29373959"
           id="path4590" />
        <path
           d="m 115.59573,14.331607 v 1.370784 h -0.2509 q -0.2815,-1.193317 -1.37078,-1.193317 -0.47121,0 -0.78943,0.250903 -0.3121,0.244783 -0.3121,0.563001 0,0.269261 0.22031,0.42837 0.22642,0.152989 1.05868,0.263142 1.82976,0.226424 1.82976,1.664524 0,0.71599 -0.47733,1.193317 -0.47121,0.477327 -1.17496,0.477327 -0.69151,0 -1.34019,-0.56912 l -0.42837,0.367174 h -0.21418 v -1.805275 h 0.21418 q 0.52629,1.73184 1.76856,1.73184 0.47121,0 0.85674,-0.299859 0.38553,-0.299859 0.38553,-0.703751 0,-0.336577 -0.23254,-0.507925 -0.22642,-0.171348 -1.23615,-0.318218 -1.7196,-0.250902 -1.7196,-1.529893 0,-0.630317 0.45896,-1.052567 0.46509,-0.428371 1.13213,-0.428371 0.70375,0 1.18107,0.465088 0.12239,-0.128511 0.25091,-0.367174 z"
           style="font-style:normal;font-variant:normal;font-weight:normal;font-stretch:normal;font-size:12.53288937px;font-family:'Bodoni MT';-inkscape-font-specification:'Bodoni MT';text-align:center;text-anchor:middle;stroke-width:0.29373959"
           id="path4592" />
        <path
           d="m 34.272701,32.185346 v -0.624197 q 0,-0.764947 -0.128511,-1.00361 -0.122392,-0.238664 -0.673153,-0.238664 -0.991372,0 -0.991372,0.379414 0,0.110152 0.07956,0.244783 0.08567,0.128511 0.08567,0.305979 0,0.250902 -0.165229,0.385533 -0.165228,0.128511 -0.373294,0.128511 -0.269261,0 -0.416131,-0.165228 -0.14687,-0.171349 -0.14687,-0.397773 0,-0.489566 0.569121,-0.820023 0.57524,-0.336577 1.597209,-0.336577 0.820023,0 1.199437,0.189707 0.379413,0.189707 0.465087,0.471208 0.09179,0.2815 0.09179,0.795544 v 2.252004 q 0,0.495685 0.06732,0.618077 0.07344,0.122391 0.220305,0.122391 0.220305,0 0.42837,-0.299859 h 0.14687 q -0.159109,0.893458 -1.040328,0.893458 -0.850621,0 -1.015849,-0.979132 -0.71599,0.979132 -1.676764,0.979132 -0.636435,0 -1.015849,-0.342696 -0.379414,-0.348816 -0.379414,-0.850621 0,-1.560492 3.072027,-1.707361 z m 0,0.942414 v -0.660914 q -1.132122,0.04284 -1.493176,0.342696 -0.361055,0.29374 -0.361055,0.856741 0,0.410011 0.214185,0.636436 0.220304,0.226424 0.501805,0.226424 0.361055,0 0.648675,-0.238664 0.293739,-0.244783 0.391653,-0.489566 0.09791,-0.244783 0.09791,-0.673153 z"
           style="font-style:normal;font-variant:normal;font-weight:normal;font-stretch:normal;font-size:12.53288937px;font-family:'Bodoni MT';-inkscape-font-specification:'Bodoni MT';text-align:center;text-anchor:middle;stroke-width:0.29373959"
           id="path4594" />
        <path
           d="m 39.168361,28.727786 v 1.395263 H 40.6187 v 0.312098 h -1.450339 v 3.02919 q 0,0.667034 0.08567,0.911817 0.09179,0.244782 0.477327,0.244782 0.293739,0 0.563001,-0.195826 0.27538,-0.195826 0.416131,-0.605838 h 0.263141 q -0.2815,1.187198 -1.707361,1.187198 -0.599718,0 -0.881219,-0.214185 -0.2815,-0.220305 -0.348816,-0.538523 -0.0612,-0.318218 -0.0612,-0.86286 v -2.955755 h -1.089285 v -0.312098 h 1.089285 v -1.29123 q 0.605838,0 1.193317,-0.104033 z"
           style="font-style:normal;font-variant:normal;font-weight:normal;font-stretch:normal;font-size:12.53288937px;font-family:'Bodoni MT';-inkscape-font-specification:'Bodoni MT';text-align:center;text-anchor:middle;stroke-width:0.29373959"
           id="path4596" />
        <path
           d="m 42.436213,27.675219 q 0,-0.269261 0.195827,-0.465088 0.201946,-0.195826 0.471207,-0.195826 0.269261,0 0.465088,0.195826 0.201946,0.189707 0.201946,0.465088 0,0.28762 -0.195827,0.477327 -0.195826,0.189707 -0.471207,0.189707 -0.275381,0 -0.471207,-0.189707 -0.195827,-0.195827 -0.195827,-0.477327 z m 1.230035,2.356036 v 4.589681 h 0.801664 v 0.312099 H 41.62231 v -0.312099 h 0.85674 v -4.185789 h -0.85674 v -0.312098 h 0.868979 q 0.624197,0 1.174959,-0.09179 z"
           style="font-style:normal;font-variant:normal;font-weight:normal;font-stretch:normal;font-size:12.53288937px;font-family:'Bodoni MT';-inkscape-font-specification:'Bodoni MT';text-align:center;text-anchor:middle;stroke-width:0.29373959"
           id="path4598" />
        <path
           d="m 50.159117,30.435147 -2.319319,4.687595 h -0.159109 l -2.356036,-4.687595 h -0.740469 v -0.312098 h 3.004712 v 0.312098 H 46.66484 l 1.603328,3.255614 1.578851,-3.255614 h -0.924056 v -0.312098 h 1.988862 v 0.312098 z"
           style="font-style:normal;font-variant:normal;font-weight:normal;font-stretch:normal;font-size:12.53288937px;font-family:'Bodoni MT';-inkscape-font-specification:'Bodoni MT';text-align:center;text-anchor:middle;stroke-width:0.29373959"
           id="path4600" />
        <path
           d="m 52.300969,27.675219 q 0,-0.269261 0.195826,-0.465088 0.201946,-0.195826 0.471207,-0.195826 0.269262,0 0.465088,0.195826 0.201946,0.189707 0.201946,0.465088 0,0.28762 -0.195826,0.477327 -0.195827,0.189707 -0.471208,0.189707 -0.27538,0 -0.471207,-0.189707 -0.195826,-0.195827 -0.195826,-0.477327 z m 1.230034,2.356036 v 4.589681 h 0.801665 v 0.312099 h -2.845603 v -0.312099 h 0.856741 v -4.185789 h -0.856741 v -0.312098 h 0.86898 q 0.624197,0 1.174958,-0.09179 z"
           style="font-style:normal;font-variant:normal;font-weight:normal;font-stretch:normal;font-size:12.53288937px;font-family:'Bodoni MT';-inkscape-font-specification:'Bodoni MT';text-align:center;text-anchor:middle;stroke-width:0.29373959"
           id="path4602" />
        <path
           d="m 60.078948,26.634891 v 7.986045 h 0.826142 v 0.312099 h -0.685392 q -0.648675,0 -1.370785,0.07344 v -1.003611 h -0.02448 q -0.489566,1.083165 -1.566611,1.083165 -0.86286,0 -1.523774,-0.764947 -0.654795,-0.771066 -0.654795,-1.744079 0,-1.040327 0.691512,-1.823633 0.697632,-0.783305 1.640046,-0.783305 0.960773,0 1.413622,0.86286 h 0.02448 v -3.794137 h -1.113762 v -0.312098 h 1.113762 q 0.618077,0 1.230035,-0.09179 z m -2.631417,3.610549 q -0.667034,0 -0.838382,0.501806 -0.165229,0.495685 -0.165229,2.019459 0,1.315709 0.214185,1.658405 0.214186,0.342696 0.691512,0.342696 0.514045,0 0.905698,-0.348815 0.391652,-0.348816 0.514044,-0.795545 0.122391,-0.446729 0.122391,-1.450339 0,-0.954654 -0.385533,-1.438101 -0.385533,-0.489566 -1.058686,-0.489566 z"
           style="font-style:normal;font-variant:normal;font-weight:normal;font-stretch:normal;font-size:12.53288937px;font-family:'Bodoni MT';-inkscape-font-specification:'Bodoni MT';text-align:center;text-anchor:middle;stroke-width:0.29373959"
           id="path4604" />
        <path
           d="m 64.919532,32.185346 v -0.624197 q 0,-0.764947 -0.128511,-1.00361 -0.122391,-0.238664 -0.673153,-0.238664 -0.991371,0 -0.991371,0.379414 0,0.110152 0.07955,0.244783 0.08567,0.128511 0.08567,0.305979 0,0.250902 -0.165228,0.385533 -0.165229,0.128511 -0.373294,0.128511 -0.269261,0 -0.416131,-0.165228 -0.14687,-0.171349 -0.14687,-0.397773 0,-0.489566 0.56912,-0.820023 0.57524,-0.336577 1.597209,-0.336577 0.820023,0 1.199437,0.189707 0.379414,0.189707 0.465088,0.471208 0.09179,0.2815 0.09179,0.795544 v 2.252004 q 0,0.495685 0.06732,0.618077 0.07344,0.122391 0.220304,0.122391 0.220305,0 0.428371,-0.299859 h 0.146869 q -0.159108,0.893458 -1.040327,0.893458 -0.850621,0 -1.01585,-0.979132 -0.71599,0.979132 -1.676763,0.979132 -0.636436,0 -1.01585,-0.342696 -0.379413,-0.348816 -0.379413,-0.850621 0,-1.560492 3.072026,-1.707361 z m 0,0.942414 v -0.660914 q -1.132121,0.04284 -1.493176,0.342696 -0.361055,0.29374 -0.361055,0.856741 0,0.410011 0.214185,0.636436 0.220305,0.226424 0.501805,0.226424 0.361055,0 0.648675,-0.238664 0.29374,-0.244783 0.391653,-0.489566 0.09791,-0.244783 0.09791,-0.673153 z"
           style="font-style:normal;font-variant:normal;font-weight:normal;font-stretch:normal;font-size:12.53288937px;font-family:'Bodoni MT';-inkscape-font-specification:'Bodoni MT';text-align:center;text-anchor:middle;stroke-width:0.29373959"
           id="path4606" />
        <path
           d="m 72.8811,26.634891 v 7.986045 h 0.826143 v 0.312099 h -0.685392 q -0.648675,0 -1.370785,0.07344 v -1.003611 h -0.02448 q -0.489566,1.083165 -1.566612,1.083165 -0.86286,0 -1.523774,-0.764947 -0.654794,-0.771066 -0.654794,-1.744079 0,-1.040327 0.691512,-1.823633 0.697631,-0.783305 1.640046,-0.783305 0.960773,0 1.413622,0.86286 h 0.02448 v -3.794137 h -1.113763 v -0.312098 h 1.113763 q 0.618077,0 1.230034,-0.09179 z m -2.631417,3.610549 q -0.667033,0 -0.838381,0.501806 -0.165229,0.495685 -0.165229,2.019459 0,1.315709 0.214185,1.658405 0.214185,0.342696 0.691512,0.342696 0.514044,0 0.905697,-0.348815 0.391653,-0.348816 0.514044,-0.795545 0.122392,-0.446729 0.122392,-1.450339 0,-0.954654 -0.385533,-1.438101 -0.385533,-0.489566 -1.058687,-0.489566 z"
           style="font-style:normal;font-variant:normal;font-weight:normal;font-stretch:normal;font-size:12.53288937px;font-family:'Bodoni MT';-inkscape-font-specification:'Bodoni MT';text-align:center;text-anchor:middle;stroke-width:0.29373959"
           id="path4608" />
        <path
           d="m 78.951718,32.160867 h -3.096505 q -0.04284,1.811395 0.201946,2.233645 0.244783,0.416131 0.875099,0.416131 1.29735,0 1.756318,-1.505415 h 0.263142 q -0.201946,0.911817 -0.764947,1.346306 -0.563001,0.43449 -1.254513,0.43449 -0.985252,0 -1.713481,-0.728229 -0.728229,-0.734349 -0.728229,-1.841992 0,-1.077045 0.70987,-1.811394 0.71599,-0.734349 1.658405,-0.734349 0.820023,0 1.431981,0.581359 0.618077,0.58136 0.660914,1.609448 z m -3.096505,-0.27538 h 1.780796 q 0.04896,-0.43449 0.04896,-0.660915 0,-0.979132 -0.887339,-0.979132 -0.440609,0 -0.691512,0.238664 -0.250902,0.232544 -0.250902,0.636436 z"
           style="font-style:normal;font-variant:normal;font-weight:normal;font-stretch:normal;font-size:12.53288937px;font-family:'Bodoni MT';-inkscape-font-specification:'Bodoni MT';text-align:center;text-anchor:middle;stroke-width:0.29373959"
           id="path4610" />
        <path
           d="m 83.198703,30.067973 v 1.370785 H 82.947801 Q 82.6663,30.24544 81.577016,30.24544 q -0.471207,0 -0.789425,0.250903 -0.312099,0.244783 -0.312099,0.563001 0,0.269261 0.220305,0.42837 0.226424,0.15299 1.058687,0.263142 1.829752,0.226424 1.829752,1.664524 0,0.715991 -0.477326,1.193317 -0.471208,0.477327 -1.174959,0.477327 -0.691512,0 -1.340187,-0.56912 l -0.42837,0.367174 h -0.214185 v -1.805274 h 0.214185 q 0.526284,1.731839 1.768557,1.731839 0.471208,0 0.856741,-0.299859 0.385533,-0.299859 0.385533,-0.703751 0,-0.336577 -0.232544,-0.507925 -0.226424,-0.171348 -1.236154,-0.318218 -1.719601,-0.250902 -1.719601,-1.529893 0,-0.630317 0.458969,-1.052567 0.465087,-0.42837 1.132121,-0.42837 0.703751,0 1.181078,0.465087 0.122391,-0.128511 0.250902,-0.367174 z"
           style="font-style:normal;font-variant:normal;font-weight:normal;font-stretch:normal;font-size:12.53288937px;font-family:'Bodoni MT';-inkscape-font-specification:'Bodoni MT';text-align:center;text-anchor:middle;stroke-width:0.29373959"
           id="path4612" />
        <path
           d="M 91.570278,34.131371 H 91.5458 q -0.507925,0.875099 -1.431981,0.875099 -0.881218,0 -1.603328,-0.771067 -0.71599,-0.777186 -0.71599,-1.835872 0,-0.991371 0.654794,-1.707362 0.660914,-0.722109 1.529894,-0.722109 1.058686,0 1.566611,1.040327 h 0.02448 v -0.966893 q 0.72823,0.07956 1.401383,0.07956 h 0.691512 v 0.312098 h -0.905697 v 7.355729 h 0.832262 v 0.348816 h -3.010831 v -0.348816 h 0.991371 z m 0,-1.59109 q 0,-0.740469 -0.116272,-1.119882 -0.110152,-0.385533 -0.471207,-0.777186 -0.354935,-0.397773 -0.954654,-0.397773 -0.293739,0 -0.526283,0.195827 -0.226424,0.195826 -0.281501,0.618077 -0.05508,0.422251 -0.05508,1.480937 0,1.340187 0.214185,1.768557 0.214186,0.422251 0.709871,0.422251 0.489566,0 0.881219,-0.29374 0.391653,-0.299859 0.495685,-0.70987 0.104033,-0.410012 0.104033,-1.187198 z"
           style="font-style:normal;font-variant:normal;font-weight:normal;font-stretch:normal;font-size:12.53288937px;font-family:'Bodoni MT';-inkscape-font-specification:'Bodoni MT';text-align:center;text-anchor:middle;stroke-width:0.29373959"
           id="path4614" />
        <path
           d="m 99.593043,30.123049 v 4.497887 h 0.826147 v 0.312099 h -0.826147 q -0.954653,0 -1.205556,0.07344 v -1.138241 h -0.02448 q -0.550762,1.138241 -1.73184,1.138241 -0.679273,0 -1.095404,-0.354936 -0.410011,-0.361055 -0.410011,-1.511535 v -2.704852 h -0.887339 v -0.312098 h 2.080656 v 3.231135 q 0,0.758828 0.09179,1.052567 0.09179,0.28762 0.471208,0.28762 0.563001,0 1.040327,-0.599718 0.477327,-0.605838 0.477327,-1.817514 v -1.841992 h -0.979132 v -0.312098 z"
           style="font-style:normal;font-variant:normal;font-weight:normal;font-stretch:normal;font-size:12.53288937px;font-family:'Bodoni MT';-inkscape-font-specification:'Bodoni MT';text-align:center;text-anchor:middle;stroke-width:0.29373959"
           id="path4616" />
        <path
           d="M 105.7065,32.160867 H 102.61 q -0.0428,1.811395 0.20194,2.233645 0.24479,0.416131 0.8751,0.416131 1.29735,0 1.75632,-1.505415 h 0.26314 q -0.20194,0.911817 -0.76495,1.346306 -0.563,0.43449 -1.25451,0.43449 -0.98525,0 -1.71348,-0.728229 -0.72823,-0.734349 -0.72823,-1.841992 0,-1.077045 0.70987,-1.811394 0.71599,-0.734349 1.65841,-0.734349 0.82002,0 1.43198,0.581359 0.61807,0.58136 0.66091,1.609448 z m -3.0965,-0.27538 h 1.78079 q 0.049,-0.43449 0.049,-0.660915 0,-0.979132 -0.88734,-0.979132 -0.44061,0 -0.69151,0.238664 -0.2509,0.232544 -0.2509,0.636436 z"
           style="font-style:normal;font-variant:normal;font-weight:normal;font-stretch:normal;font-size:12.53288937px;font-family:'Bodoni MT';-inkscape-font-specification:'Bodoni MT';text-align:center;text-anchor:middle;stroke-width:0.29373959"
           id="path4618" />
        <path
           d="m 115.02661,30.435147 -2.31932,4.687595 h -0.15911 l -2.35604,-4.687595 h -0.74046 v -0.312098 h 3.00471 v 0.312098 h -0.92406 l 1.60333,3.255614 1.57885,-3.255614 h -0.92406 v -0.312098 h 1.98887 v 0.312098 z"
           style="font-style:normal;font-variant:normal;font-weight:normal;font-stretch:normal;font-size:12.53288937px;font-family:'Bodoni MT';-inkscape-font-specification:'Bodoni MT';text-align:center;text-anchor:middle;stroke-width:0.29373959"
           id="path4620" />
        <path
           d="m 116.10366,32.515803 q 0,-1.058687 0.72822,-1.799155 0.72823,-0.746588 1.80528,-0.746588 1.05257,0 1.7808,0.71599 0.73434,0.709871 0.73434,1.780796 0,1.095404 -0.75882,1.860351 -0.75883,0.758827 -1.79304,0.758827 -1.01585,0 -1.75632,-0.740468 -0.74046,-0.746589 -0.74046,-1.829753 z m 3.67174,0 q 0,-1.126002 -0.0796,-1.487057 -0.0734,-0.361055 -0.3427,-0.56912 -0.26314,-0.214186 -0.72823,-0.214186 -0.44061,0 -0.72823,0.220305 -0.2815,0.214185 -0.34882,0.57524 -0.0673,0.361055 -0.0673,1.487057 0,1.132121 0.0795,1.499296 0.0857,0.367174 0.36106,0.57524 0.2815,0.208065 0.70375,0.208065 0.42837,0 0.70987,-0.208065 0.28762,-0.214185 0.36106,-0.587479 0.0796,-0.379414 0.0796,-1.499296 z"
           style="font-style:normal;font-variant:normal;font-weight:normal;font-stretch:normal;font-size:12.53288937px;font-family:'Bodoni MT';-inkscape-font-specification:'Bodoni MT';text-align:center;text-anchor:middle;stroke-width:0.29373959"
           id="path4622" />
        <path
           d="m 126.44573,33.26851 h 0.26315 q -0.18359,0.887339 -0.72211,1.352426 -0.53853,0.465088 -1.29735,0.465088 -1.03421,0 -1.7502,-0.764947 -0.71599,-0.771066 -0.71599,-1.768557 0,-1.028088 0.73435,-1.805274 0.73435,-0.777186 1.82363,-0.777186 0.77719,0 1.26675,0.397772 0.48957,0.391653 0.48957,0.881219 0,0.244783 -0.17135,0.440609 -0.16523,0.195827 -0.43449,0.195827 -0.26314,0 -0.44061,-0.165229 -0.17135,-0.165229 -0.17135,-0.43449 0,-0.189707 0.14687,-0.373294 0.15299,-0.183587 0.15299,-0.250902 0,-0.165229 -0.22642,-0.28762 -0.22643,-0.128512 -0.58748,-0.128512 -0.63644,0 -0.94854,0.342697 -0.30597,0.342696 -0.30597,1.450339 0,1.107643 0.0551,1.640046 0.0612,0.526283 0.3121,0.832262 0.2509,0.299859 0.82614,0.299859 1.21168,0 1.70124,-1.542133 z"
           style="font-style:normal;font-variant:normal;font-weight:normal;font-stretch:normal;font-size:12.53288937px;font-family:'Bodoni MT';-inkscape-font-specification:'Bodoni MT';text-align:center;text-anchor:middle;stroke-width:0.29373959"
           id="path4624" />
        <path
           d="m 131.99619,32.160867 h -3.09651 q -0.0428,1.811395 0.20195,2.233645 0.24478,0.416131 0.8751,0.416131 1.29735,0 1.75632,-1.505415 h 0.26314 q -0.20195,0.911817 -0.76495,1.346306 -0.563,0.43449 -1.25451,0.43449 -0.98525,0 -1.71348,-0.728229 -0.72823,-0.734349 -0.72823,-1.841992 0,-1.077045 0.70987,-1.811394 0.71599,-0.734349 1.6584,-0.734349 0.82003,0 1.43199,0.581359 0.61807,0.58136 0.66091,1.609448 z m -3.09651,-0.27538 h 1.7808 q 0.049,-0.43449 0.049,-0.660915 0,-0.979132 -0.88734,-0.979132 -0.44061,0 -0.69151,0.238664 -0.25091,0.232544 -0.25091,0.636436 z m -0.82002,-2.790527 1.42586,-2.068416 h 0.46509 l 1.42586,2.068416 h -0.33658 l -1.3157,-1.156599 -1.32795,1.156599 z"
           style="font-style:normal;font-variant:normal;font-weight:normal;font-stretch:normal;font-size:12.53288937px;font-family:'Bodoni MT';-inkscape-font-specification:'Bodoni MT';text-align:center;text-anchor:middle;stroke-width:0.29373959"
           id="path4626" />
        <path
           d="m 26.555917,49.867737 v 3.659505 h 0.991371 v 0.348816 h -3.004711 v -0.348816 h 0.826142 v -7.355729 h -0.905697 v -0.312098 h 0.691512 q 0.758828,0 1.401383,-0.07955 v 0.966893 h 0.02448 q 0.507925,-1.040328 1.566611,-1.040328 0.86898,0 1.523775,0.72211 0.660914,0.71599 0.660914,1.707361 0,1.058686 -0.72211,1.835872 -0.715991,0.771067 -1.597209,0.771067 -0.924056,0 -1.431981,-0.875099 z m 2.411112,-1.59109 q 0,-1.14436 -0.06732,-1.529893 -0.0612,-0.391653 -0.29374,-0.575241 -0.226424,-0.189706 -0.507924,-0.189706 -0.599719,0 -0.960773,0.397772 -0.361055,0.397772 -0.471208,0.777186 -0.110152,0.379414 -0.110152,1.119882 0,0.777186 0.104033,1.187198 0.104032,0.410011 0.495685,0.70987 0.397773,0.29374 0.881219,0.29374 0.501805,0 0.71599,-0.422251 0.214185,-0.42837 0.214185,-1.768557 z"
           style="font-style:normal;font-variant:normal;font-weight:normal;font-stretch:normal;font-size:12.53288937px;font-family:'Bodoni MT';-inkscape-font-specification:'Bodoni MT';text-align:center;text-anchor:middle;stroke-width:0.29373959"
           id="path4628" />
        <path
           d="m 32.161448,50.357303 v -4.18579 h -0.991372 v -0.312098 h 1.003611 q 0.771066,0 1.174958,-0.07955 v 1.156599 h 0.02448 q 0.428371,-1.156599 1.266752,-1.156599 0.367175,0 0.58748,0.226424 0.226424,0.220305 0.226424,0.538523 0,0.293739 -0.183587,0.477326 -0.177468,0.177468 -0.465088,0.177468 -0.526283,0 -0.526283,-0.526283 l 0.02448,-0.263142 q 0,-0.14075 -0.128511,-0.14075 -0.201946,0 -0.514045,0.544642 -0.312098,0.544642 -0.312098,1.664524 v 1.87871 h 1.01585 v 0.312098 h -3.194419 v -0.312098 z"
           style="font-style:normal;font-variant:normal;font-weight:normal;font-stretch:normal;font-size:12.53288937px;font-family:'Bodoni MT';-inkscape-font-specification:'Bodoni MT';text-align:center;text-anchor:middle;stroke-width:0.29373959"
           id="path4630" />
        <path
           d="m 40.569743,47.897234 h -3.096505 q -0.04284,1.811394 0.201946,2.233644 0.244783,0.416132 0.8751,0.416132 1.29735,0 1.756318,-1.505416 h 0.263141 q -0.201946,0.911817 -0.764946,1.346307 -0.563001,0.434489 -1.254513,0.434489 -0.985252,0 -1.713481,-0.728229 -0.72823,-0.734349 -0.72823,-1.841992 0,-1.077045 0.709871,-1.811394 0.71599,-0.734349 1.658405,-0.734349 0.820023,0 1.43198,0.581359 0.618077,0.58136 0.660914,1.609449 z m -3.096505,-0.275381 h 1.780797 q 0.04896,-0.43449 0.04896,-0.660914 0,-0.979132 -0.887338,-0.979132 -0.440609,0 -0.691512,0.238663 -0.250903,0.232544 -0.250903,0.636436 z"
           style="font-style:normal;font-variant:normal;font-weight:normal;font-stretch:normal;font-size:12.53288937px;font-family:'Bodoni MT';-inkscape-font-specification:'Bodoni MT';text-align:center;text-anchor:middle;stroke-width:0.29373959"
           id="path4632" />
        <path
           d="m 45.740785,49.004877 h 0.263142 q -0.183588,0.887338 -0.72211,1.352426 -0.538523,0.465087 -1.29735,0.465087 -1.034208,0 -1.750199,-0.764946 -0.71599,-0.771067 -0.71599,-1.768558 0,-1.028088 0.734349,-1.805274 0.734349,-0.777186 1.823633,-0.777186 0.777186,0 1.266752,0.397772 0.489566,0.391653 0.489566,0.881219 0,0.244783 -0.171348,0.440609 -0.165228,0.195827 -0.434489,0.195827 -0.263142,0 -0.44061,-0.165229 -0.171348,-0.165228 -0.171348,-0.43449 0,-0.189706 0.14687,-0.373294 0.152989,-0.183587 0.152989,-0.250902 0,-0.165229 -0.226424,-0.28762 -0.226424,-0.128511 -0.587479,-0.128511 -0.636436,0 -0.948534,0.342696 -0.305979,0.342696 -0.305979,1.450339 0,1.107643 0.05508,1.640046 0.0612,0.526284 0.312098,0.832262 0.250903,0.29986 0.826143,0.29986 1.211676,0 1.701242,-1.542133 z"
           style="font-style:normal;font-variant:normal;font-weight:normal;font-stretch:normal;font-size:12.53288937px;font-family:'Bodoni MT';-inkscape-font-specification:'Bodoni MT';text-align:center;text-anchor:middle;stroke-width:0.29373959"
           id="path4634" />
        <path
           d="m 47.503221,43.411585 q 0,-0.269261 0.195827,-0.465088 0.201946,-0.195826 0.471207,-0.195826 0.269261,0 0.465088,0.195826 0.201946,0.189707 0.201946,0.465088 0,0.28762 -0.195827,0.477327 -0.195826,0.189707 -0.471207,0.189707 -0.275381,0 -0.471207,-0.189707 -0.195827,-0.195826 -0.195827,-0.477327 z m 1.230035,2.356037 v 4.589681 h 0.801664 v 0.312098 h -2.845602 v -0.312098 h 0.85674 v -4.18579 h -0.85674 v -0.312098 h 0.868979 q 0.624197,0 1.174959,-0.09179 z"
           style="font-style:normal;font-variant:normal;font-weight:normal;font-stretch:normal;font-size:12.53288937px;font-family:'Bodoni MT';-inkscape-font-specification:'Bodoni MT';text-align:center;text-anchor:middle;stroke-width:0.29373959"
           id="path4636" />
        <path
           d="m 53.57996,45.804339 v 1.370785 h -0.250902 q -0.281501,-1.193317 -1.370785,-1.193317 -0.471207,0 -0.789425,0.250902 -0.312098,0.244783 -0.312098,0.563001 0,0.269261 0.220304,0.42837 0.226424,0.15299 1.058687,0.263142 1.829753,0.226424 1.829753,1.664524 0,0.715991 -0.477327,1.193318 -0.471208,0.477326 -1.174959,0.477326 -0.691512,0 -1.340187,-0.56912 l -0.42837,0.367174 H 50.330466 V 48.81517 h 0.214185 q 0.526284,1.73184 1.768557,1.73184 0.471208,0 0.856741,-0.29986 0.385533,-0.299859 0.385533,-0.703751 0,-0.336576 -0.232544,-0.507924 -0.226424,-0.171349 -1.236154,-0.318218 -1.7196,-0.250903 -1.7196,-1.529894 0,-0.630316 0.458968,-1.052567 0.465087,-0.42837 1.132121,-0.42837 0.703751,0 1.181078,0.465087 0.122391,-0.128511 0.250903,-0.367174 z"
           style="font-style:normal;font-variant:normal;font-weight:normal;font-stretch:normal;font-size:12.53288937px;font-family:'Bodoni MT';-inkscape-font-specification:'Bodoni MT';text-align:center;text-anchor:middle;stroke-width:0.29373959"
           id="path4638" />
        <path
           d="m 58.163521,47.921712 v -0.624197 q 0,-0.764947 -0.128511,-1.00361 -0.122391,-0.238663 -0.673153,-0.238663 -0.991371,0 -0.991371,0.379413 0,0.110153 0.07955,0.244783 0.08567,0.128511 0.08567,0.305979 0,0.250902 -0.165228,0.385533 -0.165229,0.128511 -0.373294,0.128511 -0.269261,0 -0.416131,-0.165228 -0.14687,-0.171348 -0.14687,-0.397773 0,-0.489566 0.56912,-0.820023 0.57524,-0.336576 1.597209,-0.336576 0.820023,0 1.199437,0.189706 0.379414,0.189707 0.465088,0.471208 0.09179,0.2815 0.09179,0.795544 v 2.252004 q 0,0.495686 0.06732,0.618077 0.07343,0.122392 0.220304,0.122392 0.220305,0 0.428371,-0.29986 h 0.146869 q -0.159108,0.893458 -1.040327,0.893458 -0.850621,0 -1.01585,-0.979132 -0.71599,0.979132 -1.676763,0.979132 -0.636436,0 -1.01585,-0.342696 -0.379413,-0.348816 -0.379413,-0.850621 0,-1.560491 3.072026,-1.707361 z m 0,0.942414 v -0.660914 q -1.132121,0.04284 -1.493176,0.342697 -0.361055,0.293739 -0.361055,0.85674 0,0.410012 0.214185,0.636436 0.220305,0.226424 0.501805,0.226424 0.361055,0 0.648675,-0.238663 0.29374,-0.244783 0.391653,-0.489566 0.09791,-0.244783 0.09791,-0.673154 z"
           style="font-style:normal;font-variant:normal;font-weight:normal;font-stretch:normal;font-size:12.53288937px;font-family:'Bodoni MT';-inkscape-font-specification:'Bodoni MT';text-align:center;text-anchor:middle;stroke-width:0.29373959"
           id="path4640" />
        <path
           d="m 66.265837,44.464152 v 1.395263 h 1.450339 v 0.312098 h -1.450339 v 3.02919 q 0,0.667034 0.08567,0.911817 0.09179,0.244783 0.477327,0.244783 0.293739,0 0.563001,-0.195827 0.27538,-0.195826 0.416131,-0.605838 h 0.263141 q -0.2815,1.187198 -1.707361,1.187198 -0.599718,0 -0.881219,-0.214185 -0.2815,-0.220305 -0.348816,-0.538523 -0.06119,-0.318218 -0.06119,-0.86286 v -2.955755 h -1.089285 v -0.312098 h 1.089285 v -1.29123 q 0.605838,0 1.193317,-0.104033 z"
           style="font-style:normal;font-variant:normal;font-weight:normal;font-stretch:normal;font-size:12.53288937px;font-family:'Bodoni MT';-inkscape-font-specification:'Bodoni MT';text-align:center;text-anchor:middle;stroke-width:0.29373959"
           id="path4642" />
        <path
           d="m 73.32171,47.897234 h -3.096505 q -0.04284,1.811394 0.201946,2.233644 0.244783,0.416132 0.875099,0.416132 1.29735,0 1.756318,-1.505416 h 0.263142 q -0.201946,0.911817 -0.764947,1.346307 -0.563001,0.434489 -1.254513,0.434489 -0.985251,0 -1.713481,-0.728229 -0.728229,-0.734349 -0.728229,-1.841992 0,-1.077045 0.70987,-1.811394 0.715991,-0.734349 1.658405,-0.734349 0.820023,0 1.431981,0.581359 0.618077,0.58136 0.660914,1.609449 z m -3.096505,-0.275381 h 1.780796 q 0.04896,-0.43449 0.04896,-0.660914 0,-0.979132 -0.887338,-0.979132 -0.44061,0 -0.691512,0.238663 -0.250903,0.232544 -0.250903,0.636436 z"
           style="font-style:normal;font-variant:normal;font-weight:normal;font-stretch:normal;font-size:12.53288937px;font-family:'Bodoni MT';-inkscape-font-specification:'Bodoni MT';text-align:center;text-anchor:middle;stroke-width:0.29373959"
           id="path4644" />
        <path
           d="m 74.973992,50.357303 v -4.18579 h -0.991371 v -0.312098 h 1.00361 q 0.771067,0 1.174958,-0.07955 v 1.156599 h 0.02448 q 0.42837,-1.156599 1.266752,-1.156599 0.367174,0 0.587479,0.226424 0.226424,0.220305 0.226424,0.538523 0,0.293739 -0.183587,0.477326 -0.177468,0.177468 -0.465088,0.177468 -0.526283,0 -0.526283,-0.526283 l 0.02448,-0.263142 q 0,-0.14075 -0.128511,-0.14075 -0.201946,0 -0.514044,0.544642 -0.312099,0.544642 -0.312099,1.664524 v 1.87871 h 1.01585 v 0.312098 h -3.194418 v -0.312098 z"
           style="font-style:normal;font-variant:normal;font-weight:normal;font-stretch:normal;font-size:12.53288937px;font-family:'Bodoni MT';-inkscape-font-specification:'Bodoni MT';text-align:center;text-anchor:middle;stroke-width:0.29373959"
           id="path4646" />
        <path
           d="m 80.102196,50.357303 v -4.18579 h -0.86286 v -0.312098 h 0.538523 q 0.954653,0 1.517654,-0.07955 v 1.181078 h 0.02448 q 0.483447,-1.181078 1.725721,-1.181078 1.352426,0 1.493176,1.254513 h 0.02448 q 0.532403,-1.254513 1.768557,-1.254513 0.550762,0 0.924056,0.275381 0.379414,0.27538 0.465088,0.636435 0.09179,0.361055 0.09179,1.193317 v 2.472309 h 0.850621 v 0.312098 h -2.845602 v -0.312098 h 0.801664 v -3.02307 q 0,-0.715991 -0.08567,-0.985252 -0.07955,-0.269261 -0.440609,-0.269261 -0.495686,0 -1.021969,0.563001 -0.520164,0.556881 -0.520164,2.123492 v 1.59109 h 0.789425 v 0.312098 h -2.772167 v -0.312098 h 0.795544 v -2.368276 q 0,-1.383024 -0.104032,-1.646165 -0.09791,-0.263142 -0.477327,-0.263142 -0.520164,0 -0.911817,0.458968 -0.385533,0.458968 -0.483446,0.893458 -0.09179,0.43449 -0.09179,1.383024 v 1.542133 h 0.789425 v 0.312098 h -2.845602 v -0.312098 z"
           style="font-style:normal;font-variant:normal;font-weight:normal;font-stretch:normal;font-size:12.53288937px;font-family:'Bodoni MT';-inkscape-font-specification:'Bodoni MT';text-align:center;text-anchor:middle;stroke-width:0.29373959"
           id="path4648" />
        <path
           d="m 90.119943,43.411585 q 0,-0.269261 0.195827,-0.465088 0.201946,-0.195826 0.471207,-0.195826 0.269261,0 0.465088,0.195826 0.201946,0.189707 0.201946,0.465088 0,0.28762 -0.195827,0.477327 -0.195826,0.189707 -0.471207,0.189707 -0.275381,0 -0.471207,-0.189707 -0.195827,-0.195826 -0.195827,-0.477327 z m 1.230035,2.356037 v 4.589681 h 0.801664 v 0.312098 H 89.30604 v -0.312098 h 0.85674 v -4.18579 h -0.85674 v -0.312098 h 0.868979 q 0.624197,0 1.174959,-0.09179 z"
           style="font-style:normal;font-variant:normal;font-weight:normal;font-stretch:normal;font-size:12.53288937px;font-family:'Bodoni MT';-inkscape-font-specification:'Bodoni MT';text-align:center;text-anchor:middle;stroke-width:0.29373959"
           id="path4650" />
        <path
           d="m 93.614218,50.357303 v -4.18579 h -0.86898 v -0.312098 h 0.556882 q 0.826142,0 1.499296,-0.09179 v 1.193317 h 0.02448 q 0.630316,-1.254513 1.780796,-1.254513 0.538523,0 0.881219,0.275381 0.348816,0.275381 0.471207,0.648675 0.128511,0.373294 0.128511,1.156599 v 2.570222 h 0.954654 v 0.312098 h -2.961874 v -0.312098 h 0.813903 v -3.059788 q 0,-0.703751 -0.09179,-0.973012 -0.08567,-0.269261 -0.458969,-0.269261 -0.593598,0 -1.070925,0.611957 -0.471207,0.605838 -0.471207,1.633927 v 2.056177 h 0.801664 v 0.312098 h -2.857842 v -0.312098 z"
           style="font-style:normal;font-variant:normal;font-weight:normal;font-stretch:normal;font-size:12.53288937px;font-family:'Bodoni MT';-inkscape-font-specification:'Bodoni MT';text-align:center;text-anchor:middle;stroke-width:0.29373959"
           id="path4652" />
        <path
           d="m 102.88538,47.921712 v -0.624197 q 0,-0.764947 -0.12851,-1.00361 -0.1224,-0.238663 -0.67316,-0.238663 -0.99137,0 -0.99137,0.379413 0,0.110153 0.0796,0.244783 0.0857,0.128511 0.0857,0.305979 0,0.250902 -0.16523,0.385533 -0.16523,0.128511 -0.37329,0.128511 -0.26926,0 -0.41613,-0.165228 -0.14687,-0.171348 -0.14687,-0.397773 0,-0.489566 0.56912,-0.820023 0.57524,-0.336576 1.59721,-0.336576 0.82002,0 1.19943,0.189706 0.37942,0.189707 0.46509,0.471208 0.0918,0.2815 0.0918,0.795544 v 2.252004 q 0,0.495686 0.0673,0.618077 0.0734,0.122392 0.2203,0.122392 0.22031,0 0.42837,-0.29986 h 0.14687 q -0.15911,0.893458 -1.04032,0.893458 -0.85062,0 -1.01585,-0.979132 -0.71599,0.979132 -1.67677,0.979132 -0.63643,0 -1.01585,-0.342696 -0.37941,-0.348816 -0.37941,-0.850621 0,-1.560491 3.07203,-1.707361 z m 0,0.942414 v -0.660914 q -1.13212,0.04284 -1.49318,0.342697 -0.36105,0.293739 -0.36105,0.85674 0,0.410012 0.21418,0.636436 0.22031,0.226424 0.50181,0.226424 0.36105,0 0.64867,-0.238663 0.29374,-0.244783 0.39165,-0.489566 0.0979,-0.244783 0.0979,-0.673154 z"
           style="font-style:normal;font-variant:normal;font-weight:normal;font-stretch:normal;font-size:12.53288937px;font-family:'Bodoni MT';-inkscape-font-specification:'Bodoni MT';text-align:center;text-anchor:middle;stroke-width:0.29373959"
           id="path4654" />
        <path
           d="m 106.551,50.357303 v -4.18579 h -0.99137 v -0.312098 h 1.00361 q 0.77106,0 1.17496,-0.07955 v 1.156599 h 0.0245 q 0.42837,-1.156599 1.26675,-1.156599 0.36717,0 0.58748,0.226424 0.22642,0.220305 0.22642,0.538523 0,0.293739 -0.18359,0.477326 -0.17746,0.177468 -0.46508,0.177468 -0.52629,0 -0.52629,-0.526283 l 0.0245,-0.263142 q 0,-0.14075 -0.12851,-0.14075 -0.20195,0 -0.51404,0.544642 -0.3121,0.544642 -0.3121,1.664524 v 1.87871 h 1.01585 v 0.312098 h -3.19442 v -0.312098 z"
           style="font-style:normal;font-variant:normal;font-weight:normal;font-stretch:normal;font-size:12.53288937px;font-family:'Bodoni MT';-inkscape-font-specification:'Bodoni MT';text-align:center;text-anchor:middle;stroke-width:0.29373959"
           id="path4656" />
        <path
           d="m 114.43302,50.357303 v -7.582154 h -0.95466 v -0.312098 h 0.91794 q 0.82614,0 1.23003,-0.09179 v 4.565203 h 0.0245 q 0.61196,-1.156599 1.71348,-1.156599 0.44673,0 0.86898,0.232544 0.42225,0.226424 0.53852,0.654794 0.1224,0.42837 0.1224,1.370785 v 2.319319 h 0.78942 v 0.312098 h -2.76605 v -0.312098 h 0.78943 v -2.435591 q 0,-0.991371 -0.0551,-1.407502 -0.0551,-0.422251 -0.55076,-0.422251 -0.5324,0 -0.89958,0.458968 -0.36105,0.452849 -0.4712,0.930175 -0.10404,0.471208 -0.10404,1.548253 v 1.327948 h 0.78943 v 0.312098 h -2.8456 v -0.312098 z"
           style="font-style:normal;font-variant:normal;font-weight:normal;font-stretch:normal;font-size:12.53288937px;font-family:'Bodoni MT';-inkscape-font-specification:'Bodoni MT';text-align:center;text-anchor:middle;stroke-width:0.29373959"
           id="path4658" />
        <path
           d="m 120.58318,48.252169 q 0,-1.058687 0.72823,-1.799155 0.72823,-0.746588 1.80528,-0.746588 1.05256,0 1.78079,0.71599 0.73435,0.709871 0.73435,1.780796 0,1.095404 -0.75883,1.860351 -0.75882,0.758827 -1.79303,0.758827 -1.01585,0 -1.75632,-0.740468 -0.74047,-0.746588 -0.74047,-1.829753 z m 3.67175,0 q 0,-1.126002 -0.0796,-1.487057 -0.0734,-0.361055 -0.34269,-0.56912 -0.26314,-0.214185 -0.72823,-0.214185 -0.44061,0 -0.72823,0.220304 -0.2815,0.214185 -0.34882,0.57524 -0.0673,0.361055 -0.0673,1.487057 0,1.132121 0.0796,1.499296 0.0857,0.367174 0.36106,0.57524 0.2815,0.208066 0.70375,0.208066 0.42837,0 0.70987,-0.208066 0.28762,-0.214185 0.36105,-0.587479 0.0796,-0.379414 0.0796,-1.499296 z"
           style="font-style:normal;font-variant:normal;font-weight:normal;font-stretch:normal;font-size:12.53288937px;font-family:'Bodoni MT';-inkscape-font-specification:'Bodoni MT';text-align:center;text-anchor:middle;stroke-width:0.29373959"
           id="path4660" />
        <path
           d="m 127.6207,43.411585 q 0,-0.269261 0.19583,-0.465088 0.19582,-0.195826 0.46508,-0.195826 0.26926,0 0.46509,0.195826 0.20195,0.189707 0.20195,0.465088 0,0.28762 -0.19583,0.477327 -0.19583,0.189707 -0.47121,0.189707 -0.27538,0 -0.4712,-0.189707 -0.18971,-0.195826 -0.18971,-0.477327 z m 1.27287,2.356037 v 4.412213 q 0,1.193317 -0.17747,1.933786 -0.17746,0.746588 -0.67315,1.254513 -0.49569,0.507924 -1.10152,0.507924 -0.45285,0 -0.75883,-0.238663 -0.30598,-0.238664 -0.30598,-0.563001 0,-0.220305 0.15911,-0.373294 0.15911,-0.15299 0.39165,-0.15299 0.22031,0 0.35494,0.128512 0.13463,0.128511 0.13463,0.27538 0,0.09791 -0.0857,0.263142 -0.0795,0.171348 -0.0795,0.238664 0,0.159109 0.22642,0.159109 0.42837,0 0.57524,-0.465088 0.15299,-0.465088 0.15299,-1.915427 v -5.060889 h -1.10152 v -0.312098 h 1.08928 q 0.72211,0 1.19944,-0.09179 z"
           style="font-style:normal;font-variant:normal;font-weight:normal;font-stretch:normal;font-size:12.53288937px;font-family:'Bodoni MT';-inkscape-font-specification:'Bodoni MT';text-align:center;text-anchor:middle;stroke-width:0.29373959"
           id="path4662" />
        <path
           d="m 135.0315,47.897234 h -3.0965 q -0.0428,1.811394 0.20194,2.233644 0.24479,0.416132 0.8751,0.416132 1.29735,0 1.75632,-1.505416 h 0.26314 q -0.20194,0.911817 -0.76494,1.346307 -0.563,0.434489 -1.25452,0.434489 -0.98525,0 -1.71348,-0.728229 -0.72823,-0.734349 -0.72823,-1.841992 0,-1.077045 0.70987,-1.811394 0.71599,-0.734349 1.65841,-0.734349 0.82002,0 1.43198,0.581359 0.61808,0.58136 0.66091,1.609449 z m -3.0965,-0.275381 h 1.78079 q 0.049,-0.43449 0.049,-0.660914 0,-0.979132 -0.88734,-0.979132 -0.44061,0 -0.69151,0.238663 -0.2509,0.232544 -0.2509,0.636436 z"
           style="font-style:normal;font-variant:normal;font-weight:normal;font-stretch:normal;font-size:12.53288937px;font-family:'Bodoni MT';-inkscape-font-specification:'Bodoni MT';text-align:center;text-anchor:middle;stroke-width:0.29373959"
           id="path4664" />
        <path
           d="m 136.94693,52.664382 -0.18971,-0.201946 q 1.10153,-0.966892 1.10153,-1.756318 0,-0.538522 -0.23867,-0.538522 -0.0979,0 -0.16522,0.201946 -0.15911,0.477327 -0.6242,0.477327 -0.27538,0 -0.46509,-0.195827 -0.18359,-0.201946 -0.18359,-0.507924 0,-0.348816 0.25703,-0.57524 0.25702,-0.226425 0.63031,-0.226425 0.47121,0 0.80779,0.354936 0.33657,0.348815 0.33657,0.887338 0,1.00973 -1.26675,2.080655 z"
           style="font-style:normal;font-variant:normal;font-weight:normal;font-stretch:normal;font-size:12.53288937px;font-family:'Bodoni MT';-inkscape-font-specification:'Bodoni MT';text-align:center;text-anchor:middle;stroke-width:0.29373959"
           id="path4666" />
        <path
           d="m 38.293262,65.604103 v 3.659506 h 0.991371 v 0.348815 h -3.004712 v -0.348815 h 0.826143 V 61.90788 h -0.905697 v -0.312099 h 0.691512 q 0.758827,0 1.401383,-0.07955 v 0.966893 h 0.02448 q 0.507925,-1.040328 1.566611,-1.040328 0.86898,0 1.523774,0.72211 0.660914,0.71599 0.660914,1.707361 0,1.058687 -0.72211,1.835873 -0.71599,0.771066 -1.597209,0.771066 -0.924055,0 -1.43198,-0.875099 z m 2.411112,-1.59109 q 0,-1.14436 -0.06732,-1.529893 -0.0612,-0.391653 -0.29374,-0.57524 -0.226424,-0.189707 -0.507925,-0.189707 -0.599718,0 -0.960773,0.397772 -0.361055,0.397773 -0.471207,0.777186 -0.110152,0.379414 -0.110152,1.119882 0,0.777186 0.104032,1.187198 0.104033,0.410011 0.495686,0.709871 0.397772,0.293739 0.881219,0.293739 0.501805,0 0.71599,-0.42225 0.214185,-0.428371 0.214185,-1.768558 z"
           style="font-style:normal;font-variant:normal;font-weight:normal;font-stretch:normal;font-size:12.53288937px;font-family:'Bodoni MT';-inkscape-font-specification:'Bodoni MT';text-align:center;text-anchor:middle;stroke-width:0.29373959"
           id="path4668" />
        <path
           d="m 46.37722,63.658078 v -0.624197 q 0,-0.764946 -0.128511,-1.00361 -0.122391,-0.238663 -0.673153,-0.238663 -0.991371,0 -0.991371,0.379413 0,0.110153 0.07955,0.244783 0.08567,0.128511 0.08567,0.305979 0,0.250903 -0.165228,0.385533 -0.165229,0.128511 -0.373294,0.128511 -0.269262,0 -0.416132,-0.165228 -0.146869,-0.171348 -0.146869,-0.397772 0,-0.489566 0.56912,-0.820024 0.57524,-0.336576 1.597209,-0.336576 0.820023,0 1.199437,0.189707 0.379414,0.189707 0.465088,0.471207 0.09179,0.2815 0.09179,0.795545 v 2.252003 q 0,0.495686 0.06732,0.618077 0.07343,0.122392 0.220305,0.122392 0.220305,0 0.42837,-0.299859 h 0.14687 q -0.159109,0.893458 -1.040327,0.893458 -0.850621,0 -1.01585,-0.979132 -0.71599,0.979132 -1.676763,0.979132 -0.636436,0 -1.01585,-0.342697 -0.379414,-0.348815 -0.379414,-0.850621 0,-1.560491 3.072027,-1.707361 z m 0,0.942415 v -0.660914 q -1.132121,0.04284 -1.493176,0.342696 -0.361055,0.293739 -0.361055,0.85674 0,0.410012 0.214185,0.636436 0.220305,0.226424 0.501805,0.226424 0.361055,0 0.648675,-0.238663 0.29374,-0.244783 0.391653,-0.489566 0.09791,-0.244783 0.09791,-0.673153 z"
           style="font-style:normal;font-variant:normal;font-weight:normal;font-stretch:normal;font-size:12.53288937px;font-family:'Bodoni MT';-inkscape-font-specification:'Bodoni MT';text-align:center;text-anchor:middle;stroke-width:0.29373959"
           id="path4670" />
        <path
           d="M 50.042845,66.093669 V 61.90788 h -0.991371 v -0.312099 h 1.00361 q 0.771067,0 1.174959,-0.07955 v 1.1566 h 0.02448 q 0.42837,-1.1566 1.266752,-1.1566 0.367175,0 0.587479,0.226424 0.226425,0.220305 0.226425,0.538523 0,0.293739 -0.183588,0.477327 -0.177467,0.177467 -0.465087,0.177467 -0.526284,0 -0.526284,-0.526283 l 0.02448,-0.263142 q 0,-0.14075 -0.128511,-0.14075 -0.201946,0 -0.514044,0.544642 -0.312098,0.544642 -0.312098,1.664524 v 1.87871 h 1.015849 v 0.312098 h -3.194418 v -0.312098 z"
           style="font-style:normal;font-variant:normal;font-weight:normal;font-stretch:normal;font-size:12.53288937px;font-family:'Bodoni MT';-inkscape-font-specification:'Bodoni MT';text-align:center;text-anchor:middle;stroke-width:0.29373959"
           id="path4672" />
        <path
           d="m 57.221106,63.658078 v -0.624197 q 0,-0.764946 -0.128511,-1.00361 -0.122392,-0.238663 -0.673153,-0.238663 -0.991371,0 -0.991371,0.379413 0,0.110153 0.07955,0.244783 0.08567,0.128511 0.08567,0.305979 0,0.250903 -0.165228,0.385533 -0.165229,0.128511 -0.373295,0.128511 -0.269261,0 -0.416131,-0.165228 -0.146869,-0.171348 -0.146869,-0.397772 0,-0.489566 0.56912,-0.820024 0.57524,-0.336576 1.597209,-0.336576 0.820023,0 1.199437,0.189707 0.379413,0.189707 0.465087,0.471207 0.09179,0.2815 0.09179,0.795545 v 2.252003 q 0,0.495686 0.06732,0.618077 0.07344,0.122392 0.220305,0.122392 0.220305,0 0.42837,-0.299859 h 0.14687 q -0.159109,0.893458 -1.040328,0.893458 -0.850621,0 -1.015849,-0.979132 -0.71599,0.979132 -1.676764,0.979132 -0.636435,0 -1.015849,-0.342697 -0.379414,-0.348815 -0.379414,-0.850621 0,-1.560491 3.072027,-1.707361 z m 0,0.942415 v -0.660914 q -1.132121,0.04284 -1.493176,0.342696 -0.361055,0.293739 -0.361055,0.85674 0,0.410012 0.214185,0.636436 0.220305,0.226424 0.501805,0.226424 0.361055,0 0.648675,-0.238663 0.29374,-0.244783 0.391653,-0.489566 0.09791,-0.244783 0.09791,-0.673153 z"
           style="font-style:normal;font-variant:normal;font-weight:normal;font-stretch:normal;font-size:12.53288937px;font-family:'Bodoni MT';-inkscape-font-specification:'Bodoni MT';text-align:center;text-anchor:middle;stroke-width:0.29373959"
           id="path4674" />
        <path
           d="m 67.342883,62.232217 q 0.361055,0.507925 0.361055,1.00361 0,0.838382 -0.679273,1.272872 -0.673153,0.42837 -1.101523,0.42837 l -0.305979,0.01836 q -0.214185,0 -0.58136,-0.0306 -0.367174,-0.03672 -0.391652,-0.03672 -0.238664,0 -0.556882,0.220304 -0.318218,0.214185 -0.318218,0.458968 0,0.214186 0.165229,0.324338 0.165228,0.110152 0.826142,0.110152 l 2.092895,-0.08567 q 0.654795,0 1.064806,0.416131 0.410012,0.416131 0.410012,1.187198 0,0.899577 -0.740469,1.511535 -0.740468,0.618077 -2.050058,0.618077 -1.015849,0 -1.615567,-0.410012 -0.593599,-0.403892 -0.593599,-0.954653 0,-0.336577 0.189707,-0.569121 0.189707,-0.226424 0.850621,-0.605838 -1.01585,-0.244783 -1.01585,-1.119882 0,-1.174958 1.266752,-1.327948 v -0.02448 q -0.979132,-0.465088 -0.979132,-1.401383 0,-0.758827 0.605838,-1.272871 0.605838,-0.520164 1.425861,-0.520164 0.893458,0 1.493176,0.611957 0.44061,-0.611957 0.979132,-0.611957 0.208066,0 0.361055,0.14075 0.15299,0.14075 0.15299,0.385533 0,0.214186 -0.134631,0.342697 -0.134631,0.122391 -0.29374,0.122391 -0.232543,0 -0.348815,-0.214185 -0.110153,-0.214185 -0.189707,-0.214185 -0.15299,0 -0.348816,0.226424 z M 65.647761,61.75489 q -0.593599,0 -0.734349,0.299859 -0.14075,0.29986 -0.14075,1.003611 0,1.015849 0.128511,1.309589 0.13463,0.293739 0.758827,0.293739 0.636436,0 0.764947,-0.299859 0.128511,-0.299859 0.128511,-1.462578 0,-0.72211 -0.232544,-0.930176 Q 66.09449,61.75489 65.647761,61.75489 Z m -0.924056,5.354628 q -0.58136,0.367175 -0.58136,1.089285 0,1.138241 1.554372,1.138241 0.991372,0 1.633927,-0.465088 0.648675,-0.465088 0.648675,-1.089284 0,-0.373295 -0.324338,-0.57524 -0.324337,-0.201946 -0.728229,-0.201946 -0.159109,0 -0.71599,0.03672 -0.556882,0.03672 -0.826143,0.04284 z"
           style="font-style:normal;font-variant:normal;font-weight:normal;font-stretch:normal;font-size:12.53288937px;font-family:'Bodoni MT';-inkscape-font-specification:'Bodoni MT';text-align:center;text-anchor:middle;stroke-width:0.29373959"
           id="path4676" />
        <path
           d="m 72.593478,63.658078 v -0.624197 q 0,-0.764946 -0.128511,-1.00361 -0.122392,-0.238663 -0.673154,-0.238663 -0.991371,0 -0.991371,0.379413 0,0.110153 0.07955,0.244783 0.08567,0.128511 0.08567,0.305979 0,0.250903 -0.165229,0.385533 -0.165228,0.128511 -0.373294,0.128511 -0.269261,0 -0.416131,-0.165228 -0.14687,-0.171348 -0.14687,-0.397772 0,-0.489566 0.569121,-0.820024 0.57524,-0.336576 1.597209,-0.336576 0.820023,0 1.199436,0.189707 0.379414,0.189707 0.465088,0.471207 0.09179,0.2815 0.09179,0.795545 v 2.252003 q 0,0.495686 0.06732,0.618077 0.07343,0.122392 0.220305,0.122392 0.220304,0 0.42837,-0.299859 h 0.14687 q -0.159109,0.893458 -1.040328,0.893458 -0.850621,0 -1.015849,-0.979132 -0.715991,0.979132 -1.676764,0.979132 -0.636436,0 -1.015849,-0.342697 -0.379414,-0.348815 -0.379414,-0.850621 0,-1.560491 3.072027,-1.707361 z m 0,0.942415 v -0.660914 q -1.132122,0.04284 -1.493177,0.342696 -0.361055,0.293739 -0.361055,0.85674 0,0.410012 0.214186,0.636436 0.220304,0.226424 0.501805,0.226424 0.361055,0 0.648675,-0.238663 0.293739,-0.244783 0.391652,-0.489566 0.09791,-0.244783 0.09791,-0.673153 z"
           style="font-style:normal;font-variant:normal;font-weight:normal;font-stretch:normal;font-size:12.53288937px;font-family:'Bodoni MT';-inkscape-font-specification:'Bodoni MT';text-align:center;text-anchor:middle;stroke-width:0.29373959"
           id="path4678" />
        <path
           d="M 76.271343,66.093669 V 61.90788 h -0.868979 v -0.312099 h 0.556881 q 0.826143,0 1.499296,-0.09179 v 1.193317 h 0.02448 q 0.630316,-1.254513 1.780796,-1.254513 0.538523,0 0.881219,0.275381 0.348816,0.275381 0.471208,0.648675 0.128511,0.373294 0.128511,1.156599 v 2.570222 h 0.954653 v 0.312098 h -2.961874 v -0.312098 h 0.813904 v -3.059788 q 0,-0.703751 -0.09179,-0.973012 -0.08567,-0.269261 -0.458968,-0.269261 -0.593599,0 -1.070926,0.611957 -0.471207,0.605838 -0.471207,1.633927 v 2.056177 h 0.801664 v 0.312098 h -2.857841 v -0.312098 z"
           style="font-style:normal;font-variant:normal;font-weight:normal;font-stretch:normal;font-size:12.53288937px;font-family:'Bodoni MT';-inkscape-font-specification:'Bodoni MT';text-align:center;text-anchor:middle;stroke-width:0.29373959"
           id="path4680" />
        <path
           d="M 83.161983,66.093669 V 58.511516 H 82.20733 v -0.312099 h 0.917936 q 0.826143,0 1.230035,-0.09179 v 4.565203 h 0.02448 q 0.611957,-1.1566 1.713481,-1.1566 0.446729,0 0.868979,0.232544 0.422251,0.226424 0.538523,0.654794 0.122391,0.42837 0.122391,1.370785 v 2.319319 h 0.789426 v 0.312098 h -2.766048 v -0.312098 h 0.789425 v -2.435591 q 0,-0.991371 -0.05508,-1.407502 -0.05508,-0.422251 -0.550762,-0.422251 -0.532403,0 -0.899577,0.458968 -0.361055,0.452849 -0.471208,0.930176 -0.104032,0.471207 -0.104032,1.548252 v 1.327948 h 0.789425 v 0.312098 h -2.845603 v -0.312098 z"
           style="font-style:normal;font-variant:normal;font-weight:normal;font-stretch:normal;font-size:12.53288937px;font-family:'Bodoni MT';-inkscape-font-specification:'Bodoni MT';text-align:center;text-anchor:middle;stroke-width:0.29373959"
           id="path4682" />
        <path
           d="m 92.469859,63.658078 v -0.624197 q 0,-0.764946 -0.128512,-1.00361 -0.122391,-0.238663 -0.673153,-0.238663 -0.991371,0 -0.991371,0.379413 0,0.110153 0.07955,0.244783 0.08567,0.128511 0.08567,0.305979 0,0.250903 -0.165229,0.385533 -0.165228,0.128511 -0.373294,0.128511 -0.269261,0 -0.416131,-0.165228 -0.14687,-0.171348 -0.14687,-0.397772 0,-0.489566 0.569121,-0.820024 0.57524,-0.336576 1.597209,-0.336576 0.820023,0 1.199436,0.189707 0.379414,0.189707 0.465088,0.471207 0.09179,0.2815 0.09179,0.795545 v 2.252003 q 0,0.495686 0.06731,0.618077 0.07344,0.122392 0.220305,0.122392 0.220304,0 0.42837,-0.299859 h 0.14687 q -0.159109,0.893458 -1.040328,0.893458 -0.850621,0 -1.015849,-0.979132 -0.715991,0.979132 -1.676764,0.979132 -0.636436,0 -1.015849,-0.342697 -0.379414,-0.348815 -0.379414,-0.850621 0,-1.560491 3.072027,-1.707361 z m 0,0.942415 v -0.660914 q -1.132122,0.04284 -1.493177,0.342696 -0.361055,0.293739 -0.361055,0.85674 0,0.410012 0.214185,0.636436 0.220305,0.226424 0.501806,0.226424 0.361055,0 0.648675,-0.238663 0.293739,-0.244783 0.391652,-0.489566 0.09791,-0.244783 0.09791,-0.673153 z"
           style="font-style:normal;font-variant:normal;font-weight:normal;font-stretch:normal;font-size:12.53288937px;font-family:'Bodoni MT';-inkscape-font-specification:'Bodoni MT';text-align:center;text-anchor:middle;stroke-width:0.29373959"
           id="path4684" />
        <path
           d="M 96.135481,66.093669 V 61.90788 H 95.14411 v -0.312099 h 1.00361 q 0.771067,0 1.174959,-0.07955 v 1.1566 h 0.02448 q 0.42837,-1.1566 1.266752,-1.1566 0.367175,0 0.587479,0.226424 0.226425,0.220305 0.226425,0.538523 0,0.293739 -0.183588,0.477327 -0.177467,0.177467 -0.465087,0.177467 -0.526284,0 -0.526284,-0.526283 l 0.02448,-0.263142 q 0,-0.14075 -0.128512,-0.14075 -0.201945,0 -0.514044,0.544642 -0.312098,0.544642 -0.312098,1.664524 v 1.87871 h 1.015849 v 0.312098 H 95.14411 v -0.312098 z"
           style="font-style:normal;font-variant:normal;font-weight:normal;font-stretch:normal;font-size:12.53288937px;font-family:'Bodoni MT';-inkscape-font-specification:'Bodoni MT';text-align:center;text-anchor:middle;stroke-width:0.29373959"
           id="path4686" />
        <path
           d="M 104.00526,66.093669 V 61.90788 h -0.86286 v -0.312099 h 0.53852 q 0.95465,0 1.51766,-0.07955 v 1.181078 h 0.0245 q 0.48345,-1.181078 1.72572,-1.181078 1.35243,0 1.49318,1.254513 h 0.0245 q 0.5324,-1.254513 1.76856,-1.254513 0.55076,0 0.92405,0.275381 0.37942,0.275381 0.46509,0.636436 0.0918,0.361054 0.0918,1.193317 v 2.472308 h 0.85062 v 0.312098 h -2.8456 v -0.312098 h 0.80167 v -3.02307 q 0,-0.71599 -0.0857,-0.985252 -0.0795,-0.269261 -0.44061,-0.269261 -0.49568,0 -1.02197,0.563001 -0.52016,0.556881 -0.52016,2.123492 v 1.59109 h 0.78942 v 0.312098 h -2.77216 v -0.312098 h 0.79554 v -2.368276 q 0,-1.383024 -0.10403,-1.646165 -0.0979,-0.263142 -0.47733,-0.263142 -0.52016,0 -0.91181,0.458968 -0.38554,0.458968 -0.48345,0.893458 -0.0918,0.43449 -0.0918,1.383024 v 1.542133 h 0.78942 v 0.312098 h -2.8456 v -0.312098 z"
           style="font-style:normal;font-variant:normal;font-weight:normal;font-stretch:normal;font-size:12.53288937px;font-family:'Bodoni MT';-inkscape-font-specification:'Bodoni MT';text-align:center;text-anchor:middle;stroke-width:0.29373959"
           id="path4688" />
        <path
           d="m 116.58098,63.658078 v -0.624197 q 0,-0.764946 -0.12851,-1.00361 -0.12239,-0.238663 -0.67315,-0.238663 -0.99137,0 -0.99137,0.379413 0,0.110153 0.0796,0.244783 0.0857,0.128511 0.0857,0.305979 0,0.250903 -0.16522,0.385533 -0.16523,0.128511 -0.3733,0.128511 -0.26926,0 -0.41613,-0.165228 -0.14687,-0.171348 -0.14687,-0.397772 0,-0.489566 0.56912,-0.820024 0.57524,-0.336576 1.59721,-0.336576 0.82002,0 1.19944,0.189707 0.37941,0.189707 0.46508,0.471207 0.0918,0.2815 0.0918,0.795545 v 2.252003 q 0,0.495686 0.0673,0.618077 0.0734,0.122392 0.22031,0.122392 0.2203,0 0.42837,-0.299859 h 0.14687 q -0.15911,0.893458 -1.04033,0.893458 -0.85062,0 -1.01585,-0.979132 -0.71599,0.979132 -1.67676,0.979132 -0.63644,0 -1.01585,-0.342697 -0.37942,-0.348815 -0.37942,-0.850621 0,-1.560491 3.07203,-1.707361 z m 0,0.942415 v -0.660914 q -1.13212,0.04284 -1.49318,0.342696 -0.36105,0.293739 -0.36105,0.85674 0,0.410012 0.21418,0.636436 0.22031,0.226424 0.50181,0.226424 0.36105,0 0.64867,-0.238663 0.29374,-0.244783 0.39166,-0.489566 0.0979,-0.244783 0.0979,-0.673153 z"
           style="font-style:normal;font-variant:normal;font-weight:normal;font-stretch:normal;font-size:12.53288937px;font-family:'Bodoni MT';-inkscape-font-specification:'Bodoni MT';text-align:center;text-anchor:middle;stroke-width:0.29373959"
           id="path4690" />
        <path
           d="m 120.16706,59.147951 q 0,-0.269261 0.19582,-0.465087 0.20195,-0.195827 0.47121,-0.195827 0.26926,0 0.46509,0.195827 0.20194,0.189707 0.20194,0.465087 0,0.28762 -0.19582,0.477327 -0.19583,0.189707 -0.47121,0.189707 -0.27538,0 -0.47121,-0.189707 -0.19582,-0.195826 -0.19582,-0.477327 z m 1.23003,2.356037 v 4.589681 h 0.80167 v 0.312098 h -2.84561 v -0.312098 h 0.85674 V 61.90788 h -0.85674 v -0.312099 h 0.86898 q 0.6242,0 1.17496,-0.09179 z"
           style="font-style:normal;font-variant:normal;font-weight:normal;font-stretch:normal;font-size:12.53288937px;font-family:'Bodoni MT';-inkscape-font-specification:'Bodoni MT';text-align:center;text-anchor:middle;stroke-width:0.29373959"
           id="path4692" />
        <path
           d="m 126.24379,61.540705 v 1.370785 h -0.2509 q -0.2815,-1.193317 -1.37079,-1.193317 -0.4712,0 -0.78942,0.250902 -0.3121,0.244783 -0.3121,0.563001 0,0.269262 0.22031,0.428371 0.22642,0.152989 1.05868,0.263141 1.82976,0.226425 1.82976,1.664525 0,0.71599 -0.47733,1.193317 -0.47121,0.477327 -1.17496,0.477327 -0.69151,0 -1.34019,-0.569121 l -0.42837,0.367175 h -0.21418 v -1.805275 h 0.21418 q 0.52629,1.73184 1.76856,1.73184 0.47121,0 0.85674,-0.299859 0.38553,-0.29986 0.38553,-0.703752 0,-0.336576 -0.23254,-0.507924 -0.22642,-0.171348 -1.23615,-0.318218 -1.7196,-0.250903 -1.7196,-1.529894 0,-0.630316 0.45896,-1.052567 0.46509,-0.42837 1.13212,-0.42837 0.70376,0 1.18108,0.465088 0.12239,-0.128511 0.25091,-0.367175 z"
           style="font-style:normal;font-variant:normal;font-weight:normal;font-stretch:normal;font-size:12.53288937px;font-family:'Bodoni MT';-inkscape-font-specification:'Bodoni MT';text-align:center;text-anchor:middle;stroke-width:0.29373959"
           id="path4694" />
        <path
           d="m 64.570716,81.340469 v 3.659506 h 0.991371 v 0.348816 h -3.004711 v -0.348816 h 0.826143 v -7.355729 h -0.905698 v -0.312098 h 0.691512 q 0.758828,0 1.401383,-0.07955 v 0.966893 h 0.02448 q 0.507925,-1.040328 1.566612,-1.040328 0.868979,0 1.523774,0.72211 0.660914,0.71599 0.660914,1.707361 0,1.058687 -0.72211,1.835873 -0.71599,0.771066 -1.597209,0.771066 -0.924056,0 -1.431981,-0.875099 z m 2.411113,-1.591089 q 0,-1.144361 -0.06732,-1.529894 -0.06119,-0.391653 -0.293739,-0.57524 -0.226425,-0.189707 -0.507925,-0.189707 -0.599718,0 -0.960773,0.397772 -0.361055,0.397773 -0.471208,0.777186 -0.110152,0.379414 -0.110152,1.119883 0,0.777186 0.104033,1.187197 0.104033,0.410012 0.495685,0.709871 0.397773,0.293739 0.881219,0.293739 0.501805,0 0.71599,-0.42225 0.214186,-0.42837 0.214186,-1.768557 z"
           style="font-style:normal;font-variant:normal;font-weight:normal;font-stretch:normal;font-size:12.53288937px;font-family:'Bodoni MT';-inkscape-font-specification:'Bodoni MT';text-align:center;text-anchor:middle;stroke-width:0.29373959"
           id="path4696" />
        <path
           d="m 69.496974,79.724901 q 0,-1.058686 0.728229,-1.799155 0.72823,-0.746588 1.805275,-0.746588 1.052567,0 1.780796,0.71599 0.734349,0.709871 0.734349,1.780797 0,1.095404 -0.758827,1.86035 -0.758827,0.758828 -1.793035,0.758828 -1.01585,0 -1.756318,-0.740469 -0.740469,-0.746588 -0.740469,-1.829753 z m 3.671745,0 q 0,-1.126001 -0.07955,-1.487056 -0.07343,-0.361055 -0.342696,-0.569121 -0.263141,-0.214185 -0.728229,-0.214185 -0.44061,0 -0.72823,0.220305 -0.2815,0.214185 -0.348815,0.57524 -0.06732,0.361055 -0.06732,1.487056 0,1.132122 0.07955,1.499296 0.08567,0.367175 0.361055,0.57524 0.2815,0.208066 0.703751,0.208066 0.42837,0 0.709871,-0.208066 0.28762,-0.214185 0.361054,-0.587479 0.07955,-0.379413 0.07955,-1.499296 z"
           style="font-style:normal;font-variant:normal;font-weight:normal;font-stretch:normal;font-size:12.53288937px;font-family:'Bodoni MT';-inkscape-font-specification:'Bodoni MT';text-align:center;text-anchor:middle;stroke-width:0.29373959"
           id="path4698" />
        <path
           d="m 76.332539,81.830035 v -4.185789 h -0.86898 v -0.312098 h 0.556882 q 0.826142,0 1.499295,-0.09179 v 1.193317 h 0.02448 q 0.630316,-1.254513 1.780796,-1.254513 0.538523,0 0.881219,0.275381 0.348816,0.275381 0.471207,0.648675 0.128511,0.373294 0.128511,1.1566 v 2.570221 h 0.954654 v 0.312098 h -2.961874 v -0.312098 h 0.813903 v -3.059787 q 0,-0.703751 -0.09179,-0.973013 -0.08567,-0.269261 -0.458968,-0.269261 -0.593598,0 -1.070925,0.611957 -0.471208,0.605838 -0.471208,1.633927 v 2.056177 h 0.801665 v 0.312098 h -2.857842 v -0.312098 z"
           style="font-style:normal;font-variant:normal;font-weight:normal;font-stretch:normal;font-size:12.53288937px;font-family:'Bodoni MT';-inkscape-font-specification:'Bodoni MT';text-align:center;text-anchor:middle;stroke-width:0.29373959"
           id="path4700" />
        <path
           d="m 84.477694,75.936884 v 1.395264 h 1.450339 v 0.312098 h -1.450339 v 3.029189 q 0,0.667034 0.08567,0.911817 0.09179,0.244783 0.477327,0.244783 0.293739,0 0.563,-0.195826 0.275381,-0.195827 0.416132,-0.605838 h 0.263141 q -0.2815,1.187197 -1.707361,1.187197 -0.599718,0 -0.881219,-0.214185 -0.2815,-0.220305 -0.348816,-0.538522 -0.06119,-0.318218 -0.06119,-0.86286 v -2.955755 h -1.089285 v -0.312098 h 1.089285 v -1.291231 q 0.605838,0 1.193317,-0.104033 z"
           style="font-style:normal;font-variant:normal;font-weight:normal;font-stretch:normal;font-size:12.53288937px;font-family:'Bodoni MT';-inkscape-font-specification:'Bodoni MT';text-align:center;text-anchor:middle;stroke-width:0.29373959"
           id="path4702" />
        <path
           d="m 87.145828,79.724901 q 0,-1.058686 0.728229,-1.799155 0.72823,-0.746588 1.805275,-0.746588 1.052567,0 1.780796,0.71599 0.734349,0.709871 0.734349,1.780797 0,1.095404 -0.758827,1.86035 -0.758828,0.758828 -1.793036,0.758828 -1.015849,0 -1.756318,-0.740469 -0.740468,-0.746588 -0.740468,-1.829753 z m 3.671745,0 q 0,-1.126001 -0.07955,-1.487056 -0.07344,-0.361055 -0.342696,-0.569121 -0.263142,-0.214185 -0.728229,-0.214185 -0.44061,0 -0.72823,0.220305 -0.2815,0.214185 -0.348816,0.57524 -0.06731,0.361055 -0.06731,1.487056 0,1.132122 0.07955,1.499296 0.08567,0.367175 0.361055,0.57524 0.2815,0.208066 0.703751,0.208066 0.42837,0 0.70987,-0.208066 0.28762,-0.214185 0.361055,-0.587479 0.07955,-0.379413 0.07955,-1.499296 z"
           style="font-style:normal;font-variant:normal;font-weight:normal;font-stretch:normal;font-size:12.53288937px;font-family:'Bodoni MT';-inkscape-font-specification:'Bodoni MT';text-align:center;text-anchor:middle;stroke-width:0.29373959"
           id="path4704" />
        <path
           d="m 96.563853,77.277071 v 1.370785 H 96.31295 q -0.2815,-1.193317 -1.370785,-1.193317 -0.471207,0 -0.789425,0.250903 -0.312098,0.244783 -0.312098,0.563 0,0.269262 0.220305,0.428371 0.226424,0.152989 1.058686,0.263141 1.829753,0.226425 1.829753,1.664525 0,0.71599 -0.477327,1.193317 -0.471207,0.477327 -1.174958,0.477327 -0.691512,0 -1.340187,-0.569121 l -0.42837,0.367175 h -0.214185 v -1.805275 h 0.214185 q 0.526283,1.73184 1.768557,1.73184 0.471207,0 0.85674,-0.299859 0.385534,-0.299859 0.385534,-0.703751 0,-0.336577 -0.232544,-0.507925 -0.226425,-0.171348 -1.236154,-0.318218 -1.719601,-0.250903 -1.719601,-1.529894 0,-0.630316 0.458968,-1.052567 0.465088,-0.42837 1.132121,-0.42837 0.703752,0 1.181078,0.465088 0.122392,-0.128511 0.250903,-0.367175 z"
           style="font-style:normal;font-variant:normal;font-weight:normal;font-stretch:normal;font-size:12.53288937px;font-family:'Bodoni MT';-inkscape-font-specification:'Bodoni MT';text-align:center;text-anchor:middle;stroke-width:0.29373959"
           id="path4706" />
        <path
           d="m 98.369127,81.517937 q 0,-0.312099 0.220305,-0.538523 0.226424,-0.226424 0.538522,-0.226424 0.324338,0 0.550762,0.226424 0.226424,0.220305 0.226424,0.538523 0,0.318218 -0.226424,0.550761 -0.226424,0.226425 -0.550762,0.226425 -0.312098,0 -0.538522,-0.226425 -0.220305,-0.232543 -0.220305,-0.550761 z"
           style="font-style:normal;font-variant:normal;font-weight:normal;font-stretch:normal;font-size:12.53288937px;font-family:'Bodoni MT';-inkscape-font-specification:'Bodoni MT';text-align:center;text-anchor:middle;stroke-width:0.29373959"
           id="path4708" />
      </g>
      <text
         id="text6080-5-0"
         y="18.052916"
         x="-90.939278"
         style="font-style:normal;font-variant:normal;font-weight:normal;font-stretch:normal;font-size:10.96627712px;line-height:1.25;font-family:Calligraffitti;-inkscape-font-specification:Calligraffitti;letter-spacing:0px;word-spacing:0px;fill:#000000;fill-opacity:1;stroke:none;stroke-width:0.29373959"
         xml:space="preserve"><tspan
           id="tspan4529-4"
           style="font-style:normal;font-variant:normal;font-weight:normal;font-stretch:normal;font-size:12.53288937px;font-family:'Bodoni MT';-inkscape-font-specification:'Bodoni MT';text-align:center;text-anchor:middle;stroke-width:0.29373959"
           y="18.052916"
           x="-89.397141"
           sodipodi:role="line">Aqui estão as </tspan><tspan
           style="font-style:normal;font-variant:normal;font-weight:normal;font-stretch:normal;font-size:12.53288937px;font-family:'Bodoni MT';-inkscape-font-specification:'Bodoni MT';text-align:center;text-anchor:middle;stroke-width:0.29373959"
           y="33.789284"
           x="-90.939278"
           sodipodi:role="line"
           id="tspan4532-2">atividades que você</tspan><tspan
           id="tspan4533-6"
           style="font-style:normal;font-variant:normal;font-weight:normal;font-stretch:normal;font-size:12.53288937px;font-family:'Bodoni MT';-inkscape-font-specification:'Bodoni MT';text-align:center;text-anchor:middle;stroke-width:0.29373959"
           y="49.525646"
           x="-90.939278"
           sodipodi:role="line">precisa terminar hoje,</tspan><tspan
           style="font-style:normal;font-variant:normal;font-weight:normal;font-stretch:normal;font-size:12.53288937px;font-family:'Bodoni MT';-inkscape-font-specification:'Bodoni MT';text-align:center;text-anchor:middle;stroke-width:0.29373959"
           y="65.262016"
           x="-90.939278"
           sodipodi:role="line"
           id="tspan4526-6">para ganhar mais</tspan><tspan
           style="font-style:normal;font-variant:normal;font-weight:normal;font-stretch:normal;font-size:12.53288937px;font-family:'Bodoni MT';-inkscape-font-specification:'Bodoni MT';text-align:center;text-anchor:middle;stroke-width:0.29373959"
           y="80.998383"
           x="-90.939278"
           sodipodi:role="line"
           id="tspan4528-9">pontos.</tspan></text>
    </g>
  </g>
</svg>
