<?xml version="1.0" encoding="UTF-8" standalone="no"?>
<!-- Created with Inkscape (http://www.inkscape.org/) -->

<svg
   xmlns:dc="http://purl.org/dc/elements/1.1/"
   xmlns:cc="http://creativecommons.org/ns#"
   xmlns:rdf="http://www.w3.org/1999/02/22-rdf-syntax-ns#"
   xmlns:svg="http://www.w3.org/2000/svg"
   xmlns="http://www.w3.org/2000/svg"
   xmlns:sodipodi="http://sodipodi.sourceforge.net/DTD/sodipodi-0.dtd"
   xmlns:inkscape="http://www.inkscape.org/namespaces/inkscape"
   width="170mm"
   height="280mm"
   viewBox="0 0 170 280"
   version="1.1"
   id="svg5205"
   inkscape:version="0.92.1 r15371"
   sodipodi:docname="ajuda-mago-Turma.svg">
  <defs
     id="defs5199">
    <clipPath
       clipPathUnits="userSpaceOnUse"
       id="clipPath9195">
      <rect
         style="opacity:1;fill:none;fill-opacity:1;stroke:#000000;stroke-width:0.41468519"
         id="rect9197"
         width="286.2865"
         height="173.06219"
         x="636.15247"
         y="341.80554" />
    </clipPath>
  </defs>
  <sodipodi:namedview
     id="base"
     pagecolor="#ffffff"
     bordercolor="#666666"
     borderopacity="1.0"
     inkscape:pageopacity="0.0"
     inkscape:pageshadow="2"
     inkscape:zoom="0.35"
     inkscape:cx="-122.67621"
     inkscape:cy="518.7067"
     inkscape:document-units="mm"
     inkscape:current-layer="g5254"
     showgrid="false"
     inkscape:window-width="1366"
     inkscape:window-height="705"
     inkscape:window-x="-8"
     inkscape:window-y="-8"
     inkscape:window-maximized="1" />
  <metadata
     id="metadata5202">
    <rdf:RDF>
      <cc:Work
         rdf:about="">
        <dc:format>image/svg+xml</dc:format>
        <dc:type
           rdf:resource="http://purl.org/dc/dcmitype/StillImage" />
        <dc:title />
      </cc:Work>
    </rdf:RDF>
  </metadata>
  <g
     inkscape:label="Camada 1"
     inkscape:groupmode="layer"
     id="layer1"
     transform="translate(0,-16.99999)">
    <g
       id="g6040"
       transform="matrix(0.41093878,0,0,0.41093878,240.25032,134.32483)">
      <g
         transform="translate(-509.53549,73.655277)"
         id="g5811">
        <path
           style="fill:#764c24;fill-opacity:1;stroke:#000000;stroke-width:0.26458332px;stroke-linecap:butt;stroke-linejoin:miter;stroke-opacity:1"
           d="m 134.1693,295.39639 c 2.55005,7.31887 -2.64304,8.61529 -6.1472,11.22532 -20.24731,11.30922 -48.462794,17.46599 -56.928406,3.20722 -0.273245,-12.95769 4.285632,-17.86184 12.561668,-16.57072 -5.487687,8.06882 -3.947958,14.66893 8.819893,6.14722 l 8.552625,-6.94901 z"
           id="path5792"
           inkscape:connector-curvature="0"
           sodipodi:nodetypes="ccccccc" />
        <path
           style="fill:#764c24;fill-opacity:1;stroke:#000000;stroke-width:0.26458332px;stroke-linecap:butt;stroke-linejoin:miter;stroke-opacity:1"
           d="m 162.56459,293.78996 c -2.55005,7.31887 2.64304,8.61529 6.1472,11.22532 20.24731,11.30922 48.4628,17.46599 56.92841,3.20722 0.27325,-12.95769 -4.28563,-17.86184 -12.56167,-16.57072 5.48769,8.06882 3.94796,14.66893 -8.81989,6.14722 l -8.55263,-6.94901 z"
           id="path5792-6"
           inkscape:connector-curvature="0"
           sodipodi:nodetypes="ccccccc" />
      </g>
      <g
         transform="matrix(1,0,0,1.0332344,-508.15328,-0.43230931)"
         id="g5837">
        <g
           id="g5832"
           style="stroke:none">
          <path
             sodipodi:nodetypes="cczccc"
             inkscape:connector-curvature="0"
             id="path5813"
             d="m 117.73958,56.418154 c -4.68887,14.051395 -4.73436,18.220571 -4.27041,23.86212 0.22674,3.941473 2.64213,8.647834 6.16029,8.83282 3.51816,0.184986 11.88535,-10.208966 22.11161,-9.449405 l 0.56696,-21.166667 z"
             style="fill:#dfb28b;fill-opacity:1;stroke:none;stroke-width:0.26458332px;stroke-linecap:butt;stroke-linejoin:miter;stroke-opacity:1" />
          <path
             sodipodi:nodetypes="ccccc"
             inkscape:connector-curvature="0"
             id="path5813-0"
             d="m 178.87722,57.646577 c 4.05195,15.065897 -2.68806,31.815542 -16.72544,31.844493 -7.6759,-0.0985 -12.5468,-8.980543 -20.41071,-9.827381 l 0.56696,-21.166667 z"
             style="fill:#cf9e76;fill-opacity:1;stroke:none;stroke-width:0.26458332px;stroke-linecap:butt;stroke-linejoin:miter;stroke-opacity:1" />
        </g>
      </g>
      <g
         transform="translate(-508.34664,-18.708866)"
         style="stroke:none"
         id="g5790">
        <path
           style="fill:#0071bd;fill-opacity:1;stroke:none;stroke-width:0.26458332px;stroke-linecap:butt;stroke-linejoin:miter;stroke-opacity:1"
           d="m 85.839373,363.91942 c -0.309558,25.53848 14.672177,21.76866 25.657877,25.65789 47.95635,2.50543 76.57673,0.0775 89.26802,-6.41448 7.44949,-3.90569 14.64492,-8.20965 15.50163,-22.45063 -0.6582,-19.77795 3.61584,-84.91303 -2.98582,-154.58384 12.47868,-1.29119 25.36867,-2.11232 31.00327,-11.22532 -5.68163,-29.80332 -14.44282,-58.65908 -33.14143,-84.45717 l -122.943977,5.34539 c -22.27246,20.38118 -37.061374,51.72759 -55.592061,56.66114 -5.373203,19.74383 -4.323969,37.07925 6.414468,50.78121 17.048359,20.5065 17.179195,12.25402 23.611431,11.75986 6.050952,-7.46923 8.935858,-5.58257 27.16978,-37.41774 -9.318439,60.91588 -3.525178,140.96294 -3.963188,166.34369 z"
           id="path5784"
           inkscape:connector-curvature="0"
           sodipodi:nodetypes="ccccccccccccc" />
        <path
           style="fill:#005995;fill-opacity:1;stroke:none;stroke-width:0.26458332px;stroke-linecap:butt;stroke-linejoin:miter;stroke-opacity:1"
           d="m 32.606882,172.4524 c 9.719876,1.32012 19.153007,7.51491 27.869308,25.89581 13.124981,37.13936 1.731099,35.27143 -6.425597,38.55357 C 20.565245,217.58551 29.865923,190.0129 32.606882,172.4524 Z"
           id="path5786"
           inkscape:connector-curvature="0"
           sodipodi:nodetypes="cccc" />
      </g>
      <g
         style="fill:#ecf3fb;fill-opacity:1"
         transform="translate(-508.34664,1.6036175)"
         id="g5777">
        <path
           style="fill:#cccccc;fill-opacity:1;stroke:none;stroke-width:0.26458332px;stroke-linecap:butt;stroke-linejoin:miter;stroke-opacity:1"
           d="m 115.46044,56.457423 v 0 l 2.67269,0.400905 c -3.65491,12.639689 -7.53376,25.387957 0.26727,32.473249 -5.3841,0.615618 -13.80755,-9.581829 -2.93996,-32.874154 z"
           id="path5769"
           inkscape:connector-curvature="0"
           sodipodi:nodetypes="ccccc" />
        <path
           style="fill:#ecf3fb;fill-opacity:1;stroke:none;stroke-width:0.26458332px;stroke-linecap:butt;stroke-linejoin:miter;stroke-opacity:1"
           d="m 115.46044,56.457423 -13.36348,-3.207234 c -35.621911,51.532041 2.69484,143.227471 49.17759,158.223561 -5.84103,-6.61436 -10.32917,-13.364 -2.13816,-21.38156 45.7216,-38.88688 67.59487,-72.47413 62.00653,-99.958804 -1.49135,-11.024688 -4.2784,-22.308516 -12.82893,-34.745041 l -19.24341,2.138156 c 3.6568,19.158434 -3.74871,29.353531 -14.03164,31.938711 -10.28294,2.585181 -14.56812,-9.786982 -24.45517,-10.022609 -9.88705,-0.235627 -13.71557,10.063579 -22.04974,9.888975 -8.33416,-0.174605 -10.01277,-18.704344 -3.07359,-32.874155 z"
           id="path5767"
           inkscape:connector-curvature="0"
           sodipodi:nodetypes="ccccccczzzc" />
        <path
           inkscape:transform-center-y="-0.80912441"
           inkscape:transform-center-x="-0.40680364"
           d="m 189.07857,188.92051 -6.95505,-4.6441 -7.76863,3.09658 2.26759,-8.04975 -5.34567,-6.43151 8.35649,-0.33091 4.46482,-7.07147 2.89702,7.84523 8.10508,2.0611 -6.56604,5.17953 z"
           inkscape:randomized="0"
           inkscape:rounded="0"
           inkscape:flatsided="false"
           sodipodi:arg2="1.6755161"
           sodipodi:arg1="1.0471976"
           sodipodi:r2="6.2968493"
           sodipodi:r1="12.593697"
           sodipodi:cy="178.01405"
           sodipodi:cx="182.78172"
           sodipodi:sides="5"
           id="path5992-2"
           style="opacity:1;fill:#f8d534;fill-opacity:1;stroke:none;stroke-width:0.43749675"
           sodipodi:type="star" />
      </g>
      <g
         id="g5782">
        <path
           style="fill:#005995;fill-opacity:1;stroke:none;stroke-width:0.26371107px;stroke-linecap:butt;stroke-linejoin:miter;stroke-opacity:1"
           d="m -450.92584,22.211309 c 0,0 -4.88289,37.57406 98.75337,38.55357 104.7683,0.990211 102.88375,-38.175593 102.88375,-38.175593 0,0 -11.15506,31.732051 -104.3857,30.842855 -90.12583,-0.859583 -97.25142,-31.220832 -97.25142,-31.220832 z"
           id="path5761"
           inkscape:connector-curvature="0"
           sodipodi:nodetypes="cscsc" />
        <ellipse
           style="opacity:1;fill:#006db5;fill-opacity:1;stroke:none;stroke-width:10.1013279"
           id="path5763"
           cx="-350.19495"
           cy="21.455357"
           rx="100.73065"
           ry="32.505951" />
        <path
           style="fill:#107fc7;fill-opacity:1;stroke:none;stroke-width:0.26458332px;stroke-linecap:butt;stroke-linejoin:miter;stroke-opacity:1"
           d="m -305.40477,12.761905 c -7.42635,14.437524 -84.24139,20.629163 -92.22619,0 29.891,-46.951725 68.50518,-89.176639 86.93453,-88.824404 7.93224,6.126368 15.24751,24.869346 18.8988,39.687499 l -3.40178,1.511906 c -5.96279,-6.570834 -10.04876,-18.774736 -15.875,-18.142857 -13.12319,40.688955 0.13003,48.4073967 5.66964,65.767856 z"
           id="path5765"
           inkscape:connector-curvature="0"
           sodipodi:nodetypes="ccccccc" />
      </g>
      <path
         sodipodi:nodetypes="ccczczc"
         inkscape:connector-curvature="0"
         id="path5935"
         d="m -449.94932,175.10363 c -3.43084,-6.9033 -8.33645,-11.84023 -13.89802,-15.90254 -2.95935,1.43802 -9.38584,1.14246 -18.04069,-0.26727 -17.54328,2.22487 -17.35579,19.97256 -15.368,30.20148 1.98778,10.2289 11.49259,16.03615 11.49259,16.03615 7.08587,3.7201 15.00113,-6.22615 16.97161,-13.0962 1.97048,-6.87007 2.5678,-8.44036 18.84251,-16.97162 z"
         style="fill:#dfb28b;fill-opacity:1;stroke:none;stroke-width:0.26458332px;stroke-linecap:butt;stroke-linejoin:miter;stroke-opacity:1" />
      <g
         transform="translate(102.89877,-9.8889725)"
         id="g5964">
        <path
           sodipodi:nodetypes="cccczcczzc"
           inkscape:connector-curvature="0"
           id="path5966"
           d="m -369.41791,187.59505 c -5.53476,5.74252 -14.54117,7.55051 -23.78699,9.08716 -2.53806,3.30301 -4.81146,6.90378 -4.54358,13.36348 l 0.80181,10.0226 c 2.05282,3.05162 3.73459,1.76981 4.40994,-1.33634 0.67535,-3.10615 0.0878,-5.22994 2.80633,-9.75534 1.54726,3.52937 2.93918,7.15715 1.73725,12.42803 -2.67267,8.19624 -0.15756,11.00146 6.28083,8.8199 6.4384,-2.18156 15.09057,-7.50947 18.30797,-12.6953 3.2174,-5.18583 -0.91101,-20.73909 -6.01356,-29.93419 z"
           style="fill:#dfb28b;fill-opacity:1;stroke:none;stroke-width:0.26458332px;stroke-linecap:butt;stroke-linejoin:miter;stroke-opacity:1" />
        <path
           style="opacity:1;fill:#c69c6c;fill-opacity:1;stroke:none;stroke-width:0.4480527"
           d="m -584.5071,137.71872 h 7.41499 v 258.43887 c -0.48175,2.65259 -6.61612,3.04525 -7.41499,0 z"
           id="rect5932"
           inkscape:connector-curvature="0"
           sodipodi:nodetypes="ccccc" />
        <g
           id="g5930"
           transform="translate(-378.45365,13.898015)">
          <g
             transform="translate(-236.23456,-0.84766482)"
             id="g5897">
            <path
               style="opacity:1;fill:#998675;fill-opacity:1;stroke:none;stroke-width:0.94488192"
               d="m 164.72656,227.88672 c 26.75988,24.20638 47.9999,61.5393 48.05664,97.62305 8e-5,70.65365 -57.27604,127.92977 -127.929684,127.92968 -25.996192,-0.0113 -56.170264,-15.0132 -77.5462717,-29.8074 28.3734947,42.30266 67.1641637,56.01533 106.8392357,56.03006 72.30542,8.2e-4 130.92074,-58.6145 130.91993,-130.91992 -0.0701,-50.33455 -34.93869,-99.12285 -80.33985,-120.85547 z"
               transform="scale(0.26458333)"
               id="path5859"
               inkscape:connector-curvature="0"
               sodipodi:nodetypes="ccccccc" />
            <path
               style="opacity:1;fill:#c7b199;fill-opacity:1;stroke:none;stroke-width:3.83081412"
               d="m 164.72656,227.88672 c 22.63237,23.51673 35.28016,54.88315 35.29102,87.52148 -3.7e-4,69.74058 -56.53676,126.2761 -126.277346,126.27539 C 46.584808,441.6288 29.819291,436.09713 7.3072443,423.63205 31.10517,448.38132 55.063802,455.30929 89.398438,455.32031 159.13826,455.31994 215.67346,398.78474 215.67383,329.04492 215.61418,289.1732 196.72699,251.6718 164.72656,227.88672 Z"
               id="path5877"
               transform="scale(0.26458333)"
               inkscape:connector-curvature="0"
               sodipodi:nodetypes="ccccccc" />
          </g>
          <g
             transform="matrix(0.6133706,0,0,0.6133706,-77.465707,37.146002)"
             id="g5988">
            <path
               sodipodi:type="star"
               style="opacity:1;fill:#ff7f2a;fill-opacity:1;stroke:none;stroke-width:0.25"
               id="path5968"
               sodipodi:sides="10"
               sodipodi:cx="-216.85294"
               sodipodi:cy="82.596527"
               sodipodi:r1="36.739597"
               sodipodi:r2="18.369799"
               sodipodi:arg1="0.63938591"
               sodipodi:arg2="0.95354517"
               inkscape:flatsided="false"
               inkscape:rounded="0"
               inkscape:randomized="0"
               d="m -187.37079,104.51915 -18.84978,-6.942556 0.3334,20.084876 -11.16907,-16.69627 -11.53586,16.44497 0.77785,-20.072571 -18.99882,6.523651 12.42766,-15.781842 -19.20487,-5.889484 19.33052,-5.46298 -12.07532,-16.053036 18.84978,6.942552 -0.3334,-20.084874 11.16907,16.696267 11.53586,-16.444972 -0.77786,20.072574 18.99883,-6.52365 -12.42767,15.781841 19.20488,5.889484 -19.33052,5.46298 z"
               inkscape:transform-center-x="-6.495238e-006" />
            <circle
               style="opacity:1;fill:#ffd42a;fill-opacity:1;stroke:none;stroke-width:0.29104477"
               id="path5901-1"
               cx="-216.85294"
               cy="82.596527"
               r="20.847023" />
            <path
               style="opacity:1;fill:#d4aa00;fill-opacity:1;stroke:none;stroke-width:0.29104477"
               d="m -199.32047,70.763637 a 22.717911,22.717911 0 0 1 1.36839,7.704442 22.717911,22.717911 0 0 1 -22.71748,22.717991 22.717911,22.717911 0 0 1 -8.22999,-1.567861 20.847023,20.847023 0 0 0 12.95735,4.542871 20.847023,20.847023 0 0 0 20.84679,-20.846787 20.847023,20.847023 0 0 0 -4.22506,-12.550656 z"
               id="path5901"
               inkscape:connector-curvature="0" />
          </g>
        </g>
      </g>
      <path
         sodipodi:nodetypes="cccccc"
         inkscape:connector-curvature="0"
         id="path5937"
         d="m -472.94766,160.12362 c -1.24324,8.34656 -6.17169,11.37004 -11.90625,13.22916 l 0.94494,9.07143 c 5.63811,0.92126 10.1735,0.46414 13.79613,-1.13393 l -0.18898,-20.97768 z"
         style="fill:#dfb28b;fill-opacity:1;stroke:none;stroke-width:0.26458332px;stroke-linecap:butt;stroke-linejoin:miter;stroke-opacity:1" />
    </g>
    <g
       id="g5254"
       transform="translate(3.0238096,0.22678546)">
      <path
         sodipodi:nodetypes="ccccssc"
         inkscape:connector-curvature="0"
         id="path4535"
         d="m 159.33509,60.545821 c -5.32564,23.146545 -29.7529,31.344169 -50.7196,35.331706 -4.6642,0.866505 -14.585605,21.904853 -14.585605,21.904853 0,0 -9.479881,-19.320348 -14.394713,-19.320348 -44.017052,0 -79.69992152,-16.975666 -79.69992152,-37.916211 C -0.06475069,39.605276 35.61812,22.62961 79.635172,22.629608 c 44.017068,0 79.699918,16.975668 79.699918,37.916213 z"
         style="opacity:1;fill:#ffffff;fill-opacity:1;stroke:#000000;stroke-width:0.73822123" />
      <g
         aria-label="Aqui você fica sabendo
tudo que seus colegas de 
turma estão fazendo."
         style="font-style:normal;font-variant:normal;font-weight:normal;font-stretch:normal;font-size:10.78861332px;line-height:1.25;font-family:Calligraffitti;-inkscape-font-specification:Calligraffitti;letter-spacing:0px;word-spacing:0px;fill:#000000;fill-opacity:1;stroke:none;stroke-width:0.28898072"
         id="text6080-5">
        <path
           d="m 24.277786,45.951771 h -2.564704 l -0.824799,2.209498 h 1.493067 v 0.307042 h -2.92593 v -0.307042 h 1.11378 l 2.943991,-7.95299 h 0.186634 l 2.823582,7.95299 h 1.083678 v 0.307042 h -3.847056 v -0.307042 h 1.306434 z M 21.82747,45.644729 h 2.341948 l -1.137861,-3.232972 h -0.02408 z"
           style="font-style:normal;font-variant:normal;font-weight:normal;font-stretch:normal;font-size:12.32984447px;font-family:'Bodoni MT';-inkscape-font-specification:'Bodoni MT';text-align:center;text-anchor:middle;stroke-width:0.28898072"
           id="path4550" />
        <path
           d="m 32.194654,47.679635 h -0.02408 q -0.499696,0.860921 -1.408781,0.860921 -0.866942,0 -1.577353,-0.758574 -0.704391,-0.764595 -0.704391,-1.806129 0,-0.97531 0.644186,-1.679701 0.650207,-0.710411 1.505108,-0.710411 1.041535,0 1.541231,1.023473 h 0.02408 v -0.951228 q 0.716431,0.07827 1.378679,0.07827 h 0.680308 v 0.307042 h -0.891024 v 7.236559 h 0.818779 v 0.343165 h -2.962052 v -0.343165 h 0.97531 z m 0,-1.565313 q 0,-0.728472 -0.114389,-1.101739 -0.108367,-0.379287 -0.463573,-0.764594 -0.349185,-0.391329 -0.939187,-0.391329 -0.288981,0 -0.517757,0.192654 -0.222756,0.192654 -0.27694,0.608064 -0.05418,0.41541 -0.05418,1.456944 0,1.318475 0.210715,1.739905 0.210715,0.41541 0.69837,0.41541 0.481635,0 0.866942,-0.288981 0.385308,-0.295001 0.487655,-0.69837 0.102348,-0.403369 0.102348,-1.167964 z"
           style="font-style:normal;font-variant:normal;font-weight:normal;font-stretch:normal;font-size:12.32984447px;font-family:'Bodoni MT';-inkscape-font-specification:'Bodoni MT';text-align:center;text-anchor:middle;stroke-width:0.28898072"
           id="path4552" />
        <path
           d="m 40.08744,43.736252 v 4.425017 h 0.812758 v 0.307042 H 40.08744 q -0.939188,0 -1.186025,0.07225 v -1.1198 h -0.02408 q -0.541839,1.1198 -1.703782,1.1198 -0.668268,0 -1.077658,-0.349185 -0.403368,-0.355205 -0.403368,-1.487046 v -2.661031 h -0.872963 v -0.307042 h 2.046947 v 3.178788 q 0,0.746533 0.09031,1.035514 0.09031,0.28296 0.463574,0.28296 0.553879,0 1.023473,-0.590002 0.469594,-0.596023 0.469594,-1.788068 v -1.81215 h -0.963269 v -0.307042 z"
           style="font-style:normal;font-variant:normal;font-weight:normal;font-stretch:normal;font-size:12.32984447px;font-family:'Bodoni MT';-inkscape-font-specification:'Bodoni MT';text-align:center;text-anchor:middle;stroke-width:0.28898072"
           id="path4554" />
        <path
           d="m 42.375204,41.328079 q 0,-0.264899 0.192654,-0.457553 0.198674,-0.192654 0.463573,-0.192654 0.264899,0 0.457553,0.192654 0.198674,0.186634 0.198674,0.457553 0,0.28296 -0.192654,0.469594 -0.192654,0.186633 -0.463573,0.186633 -0.270919,0 -0.463573,-0.186633 -0.192654,-0.192654 -0.192654,-0.469594 z m 1.210107,2.317866 v 4.515324 h 0.788676 v 0.307042 h -2.7995 v -0.307042 h 0.84286 v -4.117975 h -0.84286 v -0.307042 h 0.854901 q 0.614084,0 1.155923,-0.09031 z"
           style="font-style:normal;font-variant:normal;font-weight:normal;font-stretch:normal;font-size:12.32984447px;font-family:'Bodoni MT';-inkscape-font-specification:'Bodoni MT';text-align:center;text-anchor:middle;stroke-width:0.28898072"
           id="path4556" />
        <path
           d="m 53.344432,44.043294 -2.281744,4.611651 H 50.906157 L 48.58829,44.043294 h -0.728472 v -0.307042 h 2.956032 v 0.307042 h -0.909085 l 1.577353,3.20287 1.553272,-3.20287 h -0.909086 v -0.307042 h 1.956641 v 0.307042 z"
           style="font-style:normal;font-variant:normal;font-weight:normal;font-stretch:normal;font-size:12.32984447px;font-family:'Bodoni MT';-inkscape-font-specification:'Bodoni MT';text-align:center;text-anchor:middle;stroke-width:0.28898072"
           id="path4558" />
        <path
           d="m 54.404026,46.090241 q 0,-1.041535 0.716431,-1.770007 0.716431,-0.734493 1.776027,-0.734493 1.035515,0 1.751946,0.704391 0.722452,0.69837 0.722452,1.751945 0,1.077658 -0.746534,1.830212 -0.746533,0.746533 -1.763986,0.746533 -0.999392,0 -1.727864,-0.728472 -0.728472,-0.734493 -0.728472,-1.800109 z m 3.612259,0 q 0,-1.10776 -0.07827,-1.462965 -0.07224,-0.355206 -0.337144,-0.5599 -0.258879,-0.210716 -0.716431,-0.210716 -0.433472,0 -0.716432,0.216736 -0.27694,0.210715 -0.343164,0.565921 -0.06623,0.355205 -0.06623,1.462965 0,1.113779 0.07827,1.475005 0.08429,0.361226 0.355206,0.565921 0.27694,0.204695 0.69235,0.204695 0.42143,0 0.69837,-0.204695 0.28296,-0.210715 0.355205,-0.577961 0.07827,-0.373267 0.07827,-1.475006 z"
           style="font-style:normal;font-variant:normal;font-weight:normal;font-stretch:normal;font-size:12.32984447px;font-family:'Bodoni MT';-inkscape-font-specification:'Bodoni MT';text-align:center;text-anchor:middle;stroke-width:0.28898072"
           id="path4560" />
        <path
           d="m 64.578556,46.830754 h 0.258878 q -0.180613,0.872962 -0.710411,1.330515 -0.529798,0.457553 -1.276331,0.457553 -1.017453,0 -1.721844,-0.752554 -0.70439,-0.758574 -0.70439,-1.739905 0,-1.011432 0.722451,-1.776027 0.722452,-0.764595 1.794089,-0.764595 0.764595,0 1.24623,0.391328 0.481634,0.385308 0.481634,0.866942 0,0.240818 -0.168572,0.433471 -0.162552,0.192654 -0.427451,0.192654 -0.258878,0 -0.433471,-0.162551 -0.168572,-0.162552 -0.168572,-0.427451 0,-0.186633 0.144491,-0.367246 0.15051,-0.180613 0.15051,-0.246838 0,-0.162552 -0.222756,-0.28296 -0.222756,-0.12643 -0.577961,-0.12643 -0.626125,0 -0.933167,0.337145 -0.301022,0.337144 -0.301022,1.426842 0,1.089698 0.05418,1.613476 0.06021,0.517757 0.307042,0.818779 0.246838,0.295001 0.812759,0.295001 1.192045,0 1.67368,-1.517149 z"
           style="font-style:normal;font-variant:normal;font-weight:normal;font-stretch:normal;font-size:12.32984447px;font-family:'Bodoni MT';-inkscape-font-specification:'Bodoni MT';text-align:center;text-anchor:middle;stroke-width:0.28898072"
           id="path4562" />
        <path
           d="M 70.039088,45.741056 H 66.99275 q -0.04214,1.782048 0.198674,2.197457 0.240817,0.40939 0.860922,0.40939 1.276331,0 1.727864,-1.481027 h 0.258878 q -0.198674,0.897045 -0.752554,1.324495 -0.55388,0.427451 -1.234188,0.427451 -0.96929,0 -1.685721,-0.716431 -0.716432,-0.722452 -0.716432,-1.81215 0,-1.059596 0.69837,-1.782048 0.704391,-0.722452 1.631537,-0.722452 0.806738,0 1.408781,0.571941 0.608064,0.571941 0.650207,1.583374 z m -3.046338,-0.27092 h 1.751945 q 0.04816,-0.42745 0.04816,-0.650206 0,-0.96327 -0.872963,-0.96327 -0.433471,0 -0.680309,0.234797 -0.246837,0.228777 -0.246837,0.626125 z m -0.806738,-2.745317 1.40276,-2.034906 h 0.457553 l 1.402761,2.034906 h -0.331124 l -1.294393,-1.137861 -1.306434,1.137861 z"
           style="font-style:normal;font-variant:normal;font-weight:normal;font-stretch:normal;font-size:12.32984447px;font-family:'Bodoni MT';-inkscape-font-specification:'Bodoni MT';text-align:center;text-anchor:middle;stroke-width:0.28898072"
           id="path4564" />
        <path
           d="m 74.79523,48.161269 v -4.117975 h -0.999391 v -0.307042 h 0.999391 q -0.04816,-1.595415 0.656227,-2.51052 0.710411,-0.921126 1.685721,-0.921126 0.469594,0 0.812759,0.270919 0.349185,0.27092 0.349185,0.656227 0,0.264899 -0.168572,0.445512 -0.162552,0.180613 -0.41541,0.180613 -0.216736,0 -0.373267,-0.150511 -0.156531,-0.15051 -0.156531,-0.379287 0,-0.355205 0.397348,-0.590002 -0.180613,-0.162552 -0.529798,-0.162552 -0.337144,0 -0.638166,0.204695 -0.301021,0.204694 -0.367246,0.620104 -0.06622,0.40939 -0.06622,1.324495 v 1.011433 h 1.119801 v 0.307042 h -1.119801 v 4.117975 h 1.011433 v 0.307042 h -3.094502 v -0.307042 z"
           style="font-style:normal;font-variant:normal;font-weight:normal;font-stretch:normal;font-size:12.32984447px;font-family:'Bodoni MT';-inkscape-font-specification:'Bodoni MT';text-align:center;text-anchor:middle;stroke-width:0.28898072"
           id="path4566" />
        <path
           d="m 78.618204,41.328079 q 0,-0.264899 0.192654,-0.457553 0.198674,-0.192654 0.463573,-0.192654 0.264899,0 0.457553,0.192654 0.198674,0.186634 0.198674,0.457553 0,0.28296 -0.192654,0.469594 -0.192653,0.186633 -0.463573,0.186633 -0.270919,0 -0.463573,-0.186633 -0.192654,-0.192654 -0.192654,-0.469594 z m 1.210107,2.317866 v 4.515324 h 0.788676 v 0.307042 h -2.7995 v -0.307042 h 0.84286 v -4.117975 h -0.84286 v -0.307042 h 0.854901 q 0.614084,0 1.155923,-0.09031 z"
           style="font-style:normal;font-variant:normal;font-weight:normal;font-stretch:normal;font-size:12.32984447px;font-family:'Bodoni MT';-inkscape-font-specification:'Bodoni MT';text-align:center;text-anchor:middle;stroke-width:0.28898072"
           id="path4568" />
        <path
           d="m 85.505577,46.830754 h 0.258878 q -0.180613,0.872962 -0.710411,1.330515 -0.529798,0.457553 -1.276331,0.457553 -1.017453,0 -1.721844,-0.752554 -0.70439,-0.758574 -0.70439,-1.739905 0,-1.011432 0.722451,-1.776027 0.722452,-0.764595 1.794089,-0.764595 0.764595,0 1.24623,0.391328 0.481634,0.385308 0.481634,0.866942 0,0.240818 -0.168572,0.433471 -0.162552,0.192654 -0.427451,0.192654 -0.258878,0 -0.433471,-0.162551 -0.168572,-0.162552 -0.168572,-0.427451 0,-0.186633 0.144491,-0.367246 0.15051,-0.180613 0.15051,-0.246838 0,-0.162552 -0.222756,-0.28296 -0.222756,-0.12643 -0.577961,-0.12643 -0.626125,0 -0.933167,0.337145 -0.301022,0.337144 -0.301022,1.426842 0,1.089698 0.05418,1.613476 0.0602,0.517757 0.307042,0.818779 0.246838,0.295001 0.812759,0.295001 1.192045,0 1.67368,-1.517149 z"
           style="font-style:normal;font-variant:normal;font-weight:normal;font-stretch:normal;font-size:12.32984447px;font-family:'Bodoni MT';-inkscape-font-specification:'Bodoni MT';text-align:center;text-anchor:middle;stroke-width:0.28898072"
           id="path4570" />
        <path
           d="m 89.755998,45.765137 v -0.614084 q 0,-0.752554 -0.126429,-0.98735 -0.120408,-0.234797 -0.662247,-0.234797 -0.97531,0 -0.97531,0.373266 0,0.108368 0.07827,0.240818 0.08429,0.126429 0.08429,0.301021 0,0.246838 -0.162552,0.379288 -0.162552,0.126429 -0.367246,0.126429 -0.264899,0 -0.40939,-0.162552 -0.14449,-0.168572 -0.14449,-0.391328 0,-0.481635 0.5599,-0.806738 0.565921,-0.331124 1.571333,-0.331124 0.806738,0 1.180004,0.186634 0.373267,0.186633 0.457553,0.463573 0.09031,0.27694 0.09031,0.782656 v 2.215519 q 0,0.487655 0.06622,0.608064 0.07225,0.120408 0.216736,0.120408 0.216736,0 0.42143,-0.295001 h 0.144491 q -0.156532,0.878983 -1.023474,0.878983 -0.83684,0 -0.999392,-0.963269 -0.70439,0.963269 -1.649598,0.963269 -0.626125,0 -0.999392,-0.337144 -0.373266,-0.343165 -0.373266,-0.83684 0,-1.53521 3.022256,-1.679701 z m 0,0.927147 v -0.650207 q -1.113779,0.04214 -1.468985,0.337144 -0.355205,0.288981 -0.355205,0.842861 0,0.403369 0.210715,0.626125 0.216735,0.222756 0.493675,0.222756 0.355206,0 0.638166,-0.234797 0.288981,-0.240817 0.385308,-0.481635 0.09633,-0.240817 0.09633,-0.662247 z"
           style="font-style:normal;font-variant:normal;font-weight:normal;font-stretch:normal;font-size:12.32984447px;font-family:'Bodoni MT';-inkscape-font-specification:'Bodoni MT';text-align:center;text-anchor:middle;stroke-width:0.28898072"
           id="path4572" />
        <path
           d="m 98.949198,43.682068 v 1.348577 h -0.246837 q -0.27694,-1.173985 -1.348577,-1.173985 -0.463573,0 -0.776636,0.246838 -0.307042,0.240817 -0.307042,0.55388 0,0.264899 0.216736,0.42143 0.222756,0.150511 1.041534,0.258879 1.80011,0.222756 1.80011,1.637557 0,0.704391 -0.469594,1.173984 -0.463573,0.469594 -1.155923,0.469594 -0.680309,0 -1.318475,-0.5599 l -0.42143,0.361226 H 95.752349 V 46.64412 h 0.210715 q 0.517757,1.703783 1.739905,1.703783 0.463573,0 0.84286,-0.295001 0.379288,-0.295002 0.379288,-0.69235 0,-0.331124 -0.228777,-0.499696 -0.222756,-0.168572 -1.216127,-0.313062 -1.691741,-0.246838 -1.691741,-1.505108 0,-0.620105 0.451532,-1.035515 0.457553,-0.42143 1.11378,-0.42143 0.69235,0 1.161943,0.457553 0.120409,-0.126429 0.246838,-0.361226 z"
           style="font-style:normal;font-variant:normal;font-weight:normal;font-stretch:normal;font-size:12.32984447px;font-family:'Bodoni MT';-inkscape-font-specification:'Bodoni MT';text-align:center;text-anchor:middle;stroke-width:0.28898072"
           id="path4574" />
        <path
           d="m 103.45851,45.765137 v -0.614084 q 0,-0.752554 -0.12643,-0.98735 -0.12041,-0.234797 -0.66225,-0.234797 -0.97531,0 -0.97531,0.373266 0,0.108368 0.0783,0.240818 0.0843,0.126429 0.0843,0.301021 0,0.246838 -0.16255,0.379288 -0.16255,0.126429 -0.36725,0.126429 -0.2649,0 -0.40939,-0.162552 -0.14449,-0.168572 -0.14449,-0.391328 0,-0.481635 0.5599,-0.806738 0.56592,-0.331124 1.57134,-0.331124 0.80673,0 1.18,0.186634 0.37327,0.186633 0.45755,0.463573 0.0903,0.27694 0.0903,0.782656 v 2.215519 q 0,0.487655 0.0662,0.608064 0.0722,0.120408 0.21674,0.120408 0.21674,0 0.42143,-0.295001 h 0.14449 q -0.15653,0.878983 -1.02347,0.878983 -0.83684,0 -0.99939,-0.963269 -0.7044,0.963269 -1.6496,0.963269 -0.62613,0 -0.99939,-0.337144 -0.37327,-0.343165 -0.37327,-0.83684 0,-1.53521 3.02226,-1.679701 z m 0,0.927147 v -0.650207 q -1.11378,0.04214 -1.46899,0.337144 -0.35521,0.288981 -0.35521,0.842861 0,0.403369 0.21072,0.626125 0.21674,0.222756 0.49368,0.222756 0.3552,0 0.63816,-0.234797 0.28898,-0.240817 0.38531,-0.481635 0.0963,-0.240817 0.0963,-0.662247 z"
           style="font-style:normal;font-variant:normal;font-weight:normal;font-stretch:normal;font-size:12.32984447px;font-family:'Bodoni MT';-inkscape-font-specification:'Bodoni MT';text-align:center;text-anchor:middle;stroke-width:0.28898072"
           id="path4576" />
        <path
           d="m 108.2327,40.304606 v 4.232363 h 0.0241 q 0.45153,-0.951228 1.48102,-0.951228 0.88501,0 1.54123,0.752554 0.65623,0.746534 0.65623,1.739905 0,0.97531 -0.64419,1.757966 -0.64418,0.782656 -1.49306,0.782656 -1.02348,0 -1.54123,-1.101739 h -0.0241 v 1.023473 q -0.41541,-0.07225 -1.13184,-0.07225 h -0.87898 v -0.307042 h 0.84286 v -7.459315 h -0.84286 v -0.307042 h 0.84286 q 0.74653,0 1.16796,-0.09031 z m 1.49307,8.001154 q 0.60204,0 0.72847,-0.475614 0.13245,-0.475615 0.13245,-1.788069 0,-1.336536 -0.13847,-1.757966 -0.13245,-0.427451 -0.74653,-0.427451 -0.47561,0 -0.83684,0.295002 -0.36123,0.28898 -0.50572,0.686329 -0.13847,0.391328 -0.13847,1.384699 0,0.96929 0.45756,1.52919 0.46357,0.55388 1.04755,0.55388 z"
           style="font-style:normal;font-variant:normal;font-weight:normal;font-stretch:normal;font-size:12.32984447px;font-family:'Bodoni MT';-inkscape-font-specification:'Bodoni MT';text-align:center;text-anchor:middle;stroke-width:0.28898072"
           id="path4578" />
        <path
           d="m 117.40785,45.741056 h -3.04634 q -0.0421,1.782048 0.19867,2.197457 0.24082,0.40939 0.86092,0.40939 1.27634,0 1.72787,-1.481027 h 0.25888 q -0.19868,0.897045 -0.75256,1.324495 -0.55388,0.427451 -1.23419,0.427451 -0.96928,0 -1.68572,-0.716431 -0.71643,-0.722452 -0.71643,-1.81215 0,-1.059596 0.69837,-1.782048 0.70439,-0.722452 1.63154,-0.722452 0.80674,0 1.40878,0.571941 0.60806,0.571941 0.65021,1.583374 z m -3.04634,-0.27092 h 1.75194 q 0.0482,-0.42745 0.0482,-0.650206 0,-0.96327 -0.87296,-0.96327 -0.43348,0 -0.68031,0.234797 -0.24684,0.228777 -0.24684,0.626125 z"
           style="font-style:normal;font-variant:normal;font-weight:normal;font-stretch:normal;font-size:12.32984447px;font-family:'Bodoni MT';-inkscape-font-specification:'Bodoni MT';text-align:center;text-anchor:middle;stroke-width:0.28898072"
           id="path4580" />
        <path
           d="m 119.0454,48.161269 v -4.117975 h -0.8549 v -0.307042 h 0.54786 q 0.81276,0 1.47501,-0.09031 v 1.173985 h 0.0241 q 0.6201,-1.234189 1.75194,-1.234189 0.5298,0 0.86695,0.270919 0.34316,0.27092 0.46357,0.638166 0.12643,0.367247 0.12643,1.137862 v 2.528581 h 0.93918 v 0.307042 h -2.91388 v -0.307042 h 0.80071 v -3.010216 q 0,-0.692349 -0.0903,-0.957248 -0.0843,-0.264899 -0.45154,-0.264899 -0.58398,0 -1.05357,0.602043 -0.46357,0.596023 -0.46357,1.607455 v 2.022865 h 0.78867 v 0.307042 h -2.81154 v -0.307042 z"
           style="font-style:normal;font-variant:normal;font-weight:normal;font-stretch:normal;font-size:12.32984447px;font-family:'Bodoni MT';-inkscape-font-specification:'Bodoni MT';text-align:center;text-anchor:middle;stroke-width:0.28898072"
           id="path4582" />
        <path
           d="m 129.95443,40.304606 v 7.856663 h 0.81276 v 0.307042 h -0.67429 q -0.63817,0 -1.34858,0.07225 v -0.98735 h -0.0241 q -0.48163,1.065616 -1.54123,1.065616 -0.84888,0 -1.49909,-0.752554 -0.64418,-0.758574 -0.64418,-1.715823 0,-1.023473 0.6803,-1.794089 0.68633,-0.770615 1.61348,-0.770615 0.94521,0 1.39072,0.848881 h 0.0241 v -3.732668 h -1.09572 v -0.307042 h 1.09572 q 0.60807,0 1.21011,-0.09031 z m -2.58879,3.552054 q -0.65622,0 -0.8248,0.493676 -0.16255,0.487655 -0.16255,1.986742 0,1.294393 0.21072,1.631537 0.21071,0.337145 0.68031,0.337145 0.50571,0 0.89102,-0.343165 0.38531,-0.343165 0.50572,-0.782656 0.12041,-0.439492 0.12041,-1.426842 0,-0.939188 -0.37929,-1.414802 -0.37929,-0.481635 -1.04154,-0.481635 z"
           style="font-style:normal;font-variant:normal;font-weight:normal;font-stretch:normal;font-size:12.32984447px;font-family:'Bodoni MT';-inkscape-font-specification:'Bodoni MT';text-align:center;text-anchor:middle;stroke-width:0.28898072"
           id="path4584" />
        <path
           d="m 131.61004,46.090241 q 0,-1.041535 0.71643,-1.770007 0.71643,-0.734493 1.77603,-0.734493 1.03552,0 1.75195,0.704391 0.72245,0.69837 0.72245,1.751945 0,1.077658 -0.74654,1.830212 -0.74653,0.746533 -1.76398,0.746533 -0.99939,0 -1.72787,-0.728472 -0.72847,-0.734493 -0.72847,-1.800109 z m 3.61226,0 q 0,-1.10776 -0.0783,-1.462965 -0.0722,-0.355206 -0.33715,-0.5599 -0.25888,-0.210716 -0.71643,-0.210716 -0.43347,0 -0.71643,0.216736 -0.27694,0.210715 -0.34317,0.565921 -0.0662,0.355205 -0.0662,1.462965 0,1.113779 0.0783,1.475005 0.0843,0.361226 0.35521,0.565921 0.27694,0.204695 0.69235,0.204695 0.42143,0 0.69837,-0.204695 0.28296,-0.210715 0.35521,-0.577961 0.0783,-0.373267 0.0783,-1.475006 z"
           style="font-style:normal;font-variant:normal;font-weight:normal;font-stretch:normal;font-size:12.32984447px;font-family:'Bodoni MT';-inkscape-font-specification:'Bodoni MT';text-align:center;text-anchor:middle;stroke-width:0.28898072"
           id="path4586" />
        <path
           d="m 18.329599,57.845015 v 1.372659 h 1.426843 v 0.307042 h -1.426843 v 2.980114 q 0,0.656227 0.08429,0.897044 0.09031,0.240817 0.469594,0.240817 0.288981,0 0.55388,-0.192653 0.270919,-0.192654 0.409389,-0.596023 h 0.258879 q -0.27694,1.167964 -1.679701,1.167964 -0.590002,0 -0.866942,-0.210716 -0.27694,-0.216735 -0.343165,-0.529798 -0.0602,-0.313062 -0.0602,-0.84888 v -2.907869 h -1.071637 v -0.307042 h 1.071637 v -1.270311 q 0.596023,0 1.173984,-0.102348 z"
           style="font-style:normal;font-variant:normal;font-weight:normal;font-stretch:normal;font-size:12.32984447px;font-family:'Bodoni MT';-inkscape-font-specification:'Bodoni MT';text-align:center;text-anchor:middle;stroke-width:0.28898072"
           id="path4588" />
        <path
           d="m 25.951466,59.217674 v 4.425017 h 0.812758 v 0.307042 h -0.812758 q -0.939187,0 -1.186025,0.07225 v -1.119801 h -0.02408 q -0.541839,1.119801 -1.703782,1.119801 -0.668268,0 -1.077657,-0.349185 -0.403369,-0.355206 -0.403369,-1.487047 v -2.661031 h -0.872963 v -0.307042 h 2.046947 v 3.178788 q 0,0.746534 0.09031,1.035514 0.09031,0.282961 0.463574,0.282961 0.553879,0 1.023473,-0.590003 0.469594,-0.596023 0.469594,-1.788068 v -1.81215 h -0.963269 v -0.307042 z"
           style="font-style:normal;font-variant:normal;font-weight:normal;font-stretch:normal;font-size:12.32984447px;font-family:'Bodoni MT';-inkscape-font-specification:'Bodoni MT';text-align:center;text-anchor:middle;stroke-width:0.28898072"
           id="path4590" />
        <path
           d="m 32.543839,55.786028 v 7.856663 h 0.812758 v 0.307042 h -0.674288 q -0.638166,0 -1.348577,0.07225 v -0.987351 h -0.02408 q -0.481634,1.065616 -1.54123,1.065616 -0.848881,0 -1.499088,-0.752554 -0.644186,-0.758574 -0.644186,-1.715823 0,-1.023473 0.680309,-1.794089 0.686329,-0.770615 1.613476,-0.770615 0.945207,0 1.390719,0.848881 h 0.02408 v -3.732668 h -1.095719 v -0.307042 h 1.095719 q 0.608064,0 1.210107,-0.09031 z m -2.588786,3.552055 q -0.656227,0 -0.824799,0.493675 -0.162552,0.487655 -0.162552,1.986743 0,1.294392 0.210715,1.631537 0.210716,0.337144 0.680309,0.337144 0.505717,0 0.891024,-0.343165 0.385308,-0.343164 0.505716,-0.782656 0.120409,-0.439492 0.120409,-1.426842 0,-0.939188 -0.379287,-1.414802 -0.379287,-0.481634 -1.041535,-0.481634 z"
           style="font-style:normal;font-variant:normal;font-weight:normal;font-stretch:normal;font-size:12.32984447px;font-family:'Bodoni MT';-inkscape-font-specification:'Bodoni MT';text-align:center;text-anchor:middle;stroke-width:0.28898072"
           id="path4592" />
        <path
           d="m 34.199457,61.571663 q 0,-1.041535 0.716431,-1.770007 0.716432,-0.734493 1.776028,-0.734493 1.035514,0 1.751945,0.704391 0.722452,0.69837 0.722452,1.751945 0,1.077658 -0.746533,1.830212 -0.746534,0.746533 -1.763987,0.746533 -0.999392,0 -1.727864,-0.728472 -0.728472,-0.734493 -0.728472,-1.800109 z m 3.612259,0 q 0,-1.10776 -0.07827,-1.462965 -0.07224,-0.355206 -0.337144,-0.5599 -0.258878,-0.210715 -0.716431,-0.210715 -0.433471,0 -0.716432,0.216735 -0.27694,0.210715 -0.343164,0.565921 -0.06622,0.355205 -0.06622,1.462965 0,1.11378 0.07827,1.475005 0.08429,0.361226 0.355205,0.565921 0.27694,0.204695 0.69235,0.204695 0.42143,0 0.69837,-0.204695 0.28296,-0.210715 0.355205,-0.577961 0.07827,-0.373267 0.07827,-1.475006 z"
           style="font-style:normal;font-variant:normal;font-weight:normal;font-stretch:normal;font-size:12.32984447px;font-family:'Bodoni MT';-inkscape-font-specification:'Bodoni MT';text-align:center;text-anchor:middle;stroke-width:0.28898072"
           id="path4594" />
        <path
           d="m 47.077161,63.161057 h -0.02408 q -0.499696,0.860922 -1.408781,0.860922 -0.866942,0 -1.577353,-0.758575 -0.70439,-0.764595 -0.70439,-1.806129 0,-0.97531 0.644186,-1.679701 0.650206,-0.710411 1.505108,-0.710411 1.041534,0 1.54123,1.023474 h 0.02408 v -0.951229 q 0.716431,0.07827 1.378679,0.07827 h 0.680309 v 0.307042 h -0.891024 v 7.236559 h 0.818778 v 0.343165 h -2.962052 v -0.343165 h 0.97531 z m 0,-1.565312 q 0,-0.728473 -0.114388,-1.101739 -0.108368,-0.379288 -0.463573,-0.764595 -0.349186,-0.391328 -0.939188,-0.391328 -0.288981,0 -0.517757,0.192653 -0.222756,0.192654 -0.27694,0.608064 -0.05418,0.41541 -0.05418,1.456945 0,1.318474 0.210715,1.739904 0.210715,0.41541 0.69837,0.41541 0.481635,0 0.866943,-0.288981 0.385307,-0.295001 0.487655,-0.69837 0.102347,-0.403369 0.102347,-1.167963 z"
           style="font-style:normal;font-variant:normal;font-weight:normal;font-stretch:normal;font-size:12.32984447px;font-family:'Bodoni MT';-inkscape-font-specification:'Bodoni MT';text-align:center;text-anchor:middle;stroke-width:0.28898072"
           id="path4596" />
        <path
           d="m 54.969948,59.217674 v 4.425017 h 0.812758 v 0.307042 h -0.812758 q -0.939187,0 -1.186025,0.07225 v -1.119801 h -0.02408 q -0.541839,1.119801 -1.703782,1.119801 -0.668268,0 -1.077657,-0.349185 -0.403369,-0.355206 -0.403369,-1.487047 V 59.524716 H 49.70207 v -0.307042 h 2.046947 v 3.178788 q 0,0.746534 0.09031,1.035514 0.09031,0.282961 0.463573,0.282961 0.55388,0 1.023473,-0.590003 0.469594,-0.596023 0.469594,-1.788068 v -1.81215 h -0.963269 v -0.307042 z"
           style="font-style:normal;font-variant:normal;font-weight:normal;font-stretch:normal;font-size:12.32984447px;font-family:'Bodoni MT';-inkscape-font-specification:'Bodoni MT';text-align:center;text-anchor:middle;stroke-width:0.28898072"
           id="path4598" />
        <path
           d="m 60.984361,61.222478 h -3.046339 q -0.04214,1.782048 0.198674,2.197457 0.240818,0.40939 0.860922,0.40939 1.276332,0 1.727864,-1.481026 h 0.258879 q -0.198675,0.897044 -0.752554,1.324495 -0.55388,0.42745 -1.234189,0.42745 -0.969289,0 -1.685721,-0.716431 -0.716431,-0.722452 -0.716431,-1.81215 0,-1.059596 0.69837,-1.782048 0.70439,-0.722452 1.631537,-0.722452 0.806738,0 1.408781,0.571941 0.608064,0.571941 0.650207,1.583374 z m -3.046339,-0.27092 h 1.751946 q 0.04816,-0.42745 0.04816,-0.650206 0,-0.963269 -0.872962,-0.963269 -0.433472,0 -0.680309,0.234796 -0.246838,0.228777 -0.246838,0.626125 z"
           style="font-style:normal;font-variant:normal;font-weight:normal;font-stretch:normal;font-size:12.32984447px;font-family:'Bodoni MT';-inkscape-font-specification:'Bodoni MT';text-align:center;text-anchor:middle;stroke-width:0.28898072"
           id="path4600" />
        <path
           d="m 68.196835,59.16349 v 1.348577 h -0.246838 q -0.276939,-1.173984 -1.348576,-1.173984 -0.463574,0 -0.776636,0.246837 -0.307042,0.240818 -0.307042,0.55388 0,0.264899 0.216736,0.42143 0.222756,0.150511 1.041534,0.258879 1.800109,0.222756 1.800109,1.637557 0,0.704391 -0.469593,1.173985 -0.463574,0.469593 -1.155923,0.469593 -0.680309,0 -1.318475,-0.5599 l -0.42143,0.361226 h -0.210715 v -1.776027 h 0.210715 q 0.517757,1.703782 1.739905,1.703782 0.463573,0 0.84286,-0.295001 0.379287,-0.295002 0.379287,-0.69235 0,-0.331124 -0.228776,-0.499696 -0.222756,-0.168572 -1.216127,-0.313062 -1.691742,-0.246838 -1.691742,-1.505108 0,-0.620105 0.451533,-1.035515 0.457553,-0.42143 1.11378,-0.42143 0.692349,0 1.161943,0.457553 0.120409,-0.126429 0.246838,-0.361226 z"
           style="font-style:normal;font-variant:normal;font-weight:normal;font-stretch:normal;font-size:12.32984447px;font-family:'Bodoni MT';-inkscape-font-specification:'Bodoni MT';text-align:center;text-anchor:middle;stroke-width:0.28898072"
           id="path4602" />
        <path
           d="m 73.916245,61.222478 h -3.046338 q -0.04214,1.782048 0.198674,2.197457 0.240817,0.40939 0.860922,0.40939 1.276331,0 1.727864,-1.481026 h 0.258878 q -0.198674,0.897044 -0.752554,1.324495 -0.553879,0.42745 -1.234188,0.42745 -0.96929,0 -1.685721,-0.716431 -0.716432,-0.722452 -0.716432,-1.81215 0,-1.059596 0.698371,-1.782048 0.70439,-0.722452 1.631537,-0.722452 0.806737,0 1.408781,0.571941 0.608063,0.571941 0.650206,1.583374 z m -3.046338,-0.27092 h 1.751945 q 0.04816,-0.42745 0.04816,-0.650206 0,-0.963269 -0.872963,-0.963269 -0.433471,0 -0.680308,0.234796 -0.246838,0.228777 -0.246838,0.626125 z"
           style="font-style:normal;font-variant:normal;font-weight:normal;font-stretch:normal;font-size:12.32984447px;font-family:'Bodoni MT';-inkscape-font-specification:'Bodoni MT';text-align:center;text-anchor:middle;stroke-width:0.28898072"
           id="path4604" />
        <path
           d="m 79.870453,59.217674 v 4.425017 h 0.812759 v 0.307042 h -0.812759 q -0.939187,0 -1.186025,0.07225 v -1.119801 h -0.02408 q -0.541838,1.119801 -1.703782,1.119801 -0.668268,0 -1.077657,-0.349185 -0.403369,-0.355206 -0.403369,-1.487047 v -2.661031 h -0.872963 v -0.307042 h 2.046947 v 3.178788 q 0,0.746534 0.09031,1.035514 0.09031,0.282961 0.463573,0.282961 0.55388,0 1.023473,-0.590003 0.469594,-0.596023 0.469594,-1.788068 v -1.81215 H 77.7332 v -0.307042 z"
           style="font-style:normal;font-variant:normal;font-weight:normal;font-stretch:normal;font-size:12.32984447px;font-family:'Bodoni MT';-inkscape-font-specification:'Bodoni MT';text-align:center;text-anchor:middle;stroke-width:0.28898072"
           id="path4606" />
        <path
           d="m 84.789143,59.16349 v 1.348577 h -0.246837 q -0.27694,-1.173984 -1.348577,-1.173984 -0.463573,0 -0.776636,0.246837 -0.307042,0.240818 -0.307042,0.55388 0,0.264899 0.216736,0.42143 0.222756,0.150511 1.041534,0.258879 1.800109,0.222756 1.800109,1.637557 0,0.704391 -0.469593,1.173985 -0.463574,0.469593 -1.155923,0.469593 -0.680309,0 -1.318475,-0.5599 l -0.42143,0.361226 h -0.210715 v -1.776027 h 0.210715 q 0.517757,1.703782 1.739905,1.703782 0.463573,0 0.84286,-0.295001 0.379287,-0.295002 0.379287,-0.69235 0,-0.331124 -0.228776,-0.499696 -0.222756,-0.168572 -1.216127,-0.313062 -1.691742,-0.246838 -1.691742,-1.505108 0,-0.620105 0.451533,-1.035515 0.457553,-0.42143 1.11378,-0.42143 0.692349,0 1.161943,0.457553 0.120409,-0.126429 0.246838,-0.361226 z"
           style="font-style:normal;font-variant:normal;font-weight:normal;font-stretch:normal;font-size:12.32984447px;font-family:'Bodoni MT';-inkscape-font-specification:'Bodoni MT';text-align:center;text-anchor:middle;stroke-width:0.28898072"
           id="path4608" />
        <path
           d="m 93.356218,62.312176 h 0.258878 q -0.180612,0.872963 -0.71041,1.330515 -0.529798,0.457553 -1.276332,0.457553 -1.017453,0 -1.721844,-0.752554 -0.70439,-0.758574 -0.70439,-1.739905 0,-1.011432 0.722452,-1.776027 0.722452,-0.764595 1.794088,-0.764595 0.764595,0 1.24623,0.391328 0.481634,0.385308 0.481634,0.866942 0,0.240818 -0.168572,0.433472 -0.162551,0.192653 -0.42745,0.192653 -0.258879,0 -0.433471,-0.162551 -0.168573,-0.162552 -0.168573,-0.427451 0,-0.186633 0.144491,-0.367246 0.150511,-0.180613 0.150511,-0.246838 0,-0.162552 -0.222756,-0.28296 -0.222756,-0.126429 -0.577962,-0.126429 -0.626125,0 -0.933167,0.337144 -0.301021,0.337144 -0.301021,1.426842 0,1.089698 0.05418,1.613476 0.0602,0.517757 0.307042,0.818779 0.246837,0.295001 0.812758,0.295001 1.192045,0 1.67368,-1.517149 z"
           style="font-style:normal;font-variant:normal;font-weight:normal;font-stretch:normal;font-size:12.32984447px;font-family:'Bodoni MT';-inkscape-font-specification:'Bodoni MT';text-align:center;text-anchor:middle;stroke-width:0.28898072"
           id="path4610" />
        <path
           d="m 94.500105,61.571663 q 0,-1.041535 0.716431,-1.770007 0.716431,-0.734493 1.776027,-0.734493 1.035515,0 1.751946,0.704391 0.722452,0.69837 0.722452,1.751945 0,1.077658 -0.746534,1.830212 -0.746533,0.746533 -1.763986,0.746533 -0.999392,0 -1.727864,-0.728472 -0.728472,-0.734493 -0.728472,-1.800109 z m 3.612259,0 q 0,-1.10776 -0.07827,-1.462965 -0.07224,-0.355206 -0.337144,-0.5599 -0.258879,-0.210715 -0.716432,-0.210715 -0.433471,0 -0.716431,0.216735 -0.27694,0.210715 -0.343165,0.565921 -0.06622,0.355205 -0.06622,1.462965 0,1.11378 0.07827,1.475005 0.08429,0.361226 0.355206,0.565921 0.27694,0.204695 0.692349,0.204695 0.421431,0 0.698371,-0.204695 0.28296,-0.210715 0.355205,-0.577961 0.07827,-0.373267 0.07827,-1.475006 z"
           style="font-style:normal;font-variant:normal;font-weight:normal;font-stretch:normal;font-size:12.32984447px;font-family:'Bodoni MT';-inkscape-font-specification:'Bodoni MT';text-align:center;text-anchor:middle;stroke-width:0.28898072"
           id="path4612" />
        <path
           d="m 101.11054,63.642691 v -7.459315 h -0.86093 v -0.307042 h 0.8248 q 0.83082,0 1.21011,-0.09031 v 7.856663 h 0.84888 v 0.307042 h -2.88379 v -0.307042 z"
           style="font-style:normal;font-variant:normal;font-weight:normal;font-stretch:normal;font-size:12.32984447px;font-family:'Bodoni MT';-inkscape-font-specification:'Bodoni MT';text-align:center;text-anchor:middle;stroke-width:0.28898072"
           id="path4614" />
        <path
           d="m 108.20862,61.222478 h -3.04634 q -0.0421,1.782048 0.19868,2.197457 0.24082,0.40939 0.86092,0.40939 1.27633,0 1.72786,-1.481026 h 0.25888 q -0.19867,0.897044 -0.75255,1.324495 -0.55388,0.42745 -1.23419,0.42745 -0.96929,0 -1.68572,-0.716431 -0.71643,-0.722452 -0.71643,-1.81215 0,-1.059596 0.69837,-1.782048 0.70439,-0.722452 1.63154,-0.722452 0.80673,0 1.40878,0.571941 0.60806,0.571941 0.6502,1.583374 z m -3.04634,-0.27092 h 1.75195 q 0.0482,-0.42745 0.0482,-0.650206 0,-0.963269 -0.87296,-0.963269 -0.43347,0 -0.68031,0.234796 -0.24684,0.228777 -0.24684,0.626125 z"
           style="font-style:normal;font-variant:normal;font-weight:normal;font-stretch:normal;font-size:12.32984447px;font-family:'Bodoni MT';-inkscape-font-specification:'Bodoni MT';text-align:center;text-anchor:middle;stroke-width:0.28898072"
           id="path4616" />
        <path
           d="m 113.39222,59.843799 q 0.3552,0.499696 0.3552,0.987351 0,0.824799 -0.66827,1.25225 -0.66224,0.42143 -1.08367,0.42143 l -0.30103,0.01806 q -0.21071,0 -0.57194,-0.0301 -0.36122,-0.03612 -0.3853,-0.03612 -0.2348,0 -0.54786,0.216736 -0.31307,0.210715 -0.31307,0.451532 0,0.210715 0.16256,0.319083 0.16255,0.108368 0.81275,0.108368 l 2.05899,-0.08429 q 0.64419,0 1.04756,0.409389 0.40337,0.40939 0.40337,1.167964 0,0.885003 -0.72848,1.487047 -0.72847,0.608063 -2.01684,0.608063 -0.99939,0 -1.5894,-0.403369 -0.58398,-0.397348 -0.58398,-0.939187 0,-0.331124 0.18664,-0.5599 0.18663,-0.222756 0.83684,-0.596023 -0.9994,-0.240817 -0.9994,-1.101739 0,-1.155923 1.24623,-1.306434 v -0.02408 q -0.96327,-0.457553 -0.96327,-1.378679 0,-0.746534 0.59603,-1.25225 0.59602,-0.511737 1.40276,-0.511737 0.87898,0 1.46898,0.602043 0.43347,-0.602043 0.96327,-0.602043 0.2047,0 0.35521,0.13847 0.15051,0.13847 0.15051,0.379287 0,0.210715 -0.13245,0.337144 -0.13245,0.120409 -0.28898,0.120409 -0.22878,0 -0.34317,-0.210715 -0.10836,-0.210715 -0.18663,-0.210715 -0.15051,0 -0.34316,0.222756 z m -1.66766,-0.469594 q -0.58399,0 -0.72246,0.295001 -0.13847,0.295002 -0.13847,0.987351 0,0.999392 0.12643,1.288373 0.13245,0.28898 0.74654,0.28898 0.62612,0 0.75255,-0.295001 0.12643,-0.295001 0.12643,-1.438883 0,-0.710411 -0.22878,-0.915106 -0.22275,-0.210715 -0.66224,-0.210715 z m -0.90909,5.267878 q -0.57194,0.361226 -0.57194,1.071637 0,1.1198 1.52919,1.1198 0.97531,0 1.60746,-0.457553 0.63816,-0.457552 0.63816,-1.071636 0,-0.367247 -0.31908,-0.565921 -0.31908,-0.198674 -0.71643,-0.198674 -0.15653,0 -0.70439,0.03612 -0.54786,0.03612 -0.81276,0.04214 z"
           style="font-style:normal;font-variant:normal;font-weight:normal;font-stretch:normal;font-size:12.32984447px;font-family:'Bodoni MT';-inkscape-font-specification:'Bodoni MT';text-align:center;text-anchor:middle;stroke-width:0.28898072"
           id="path4618" />
        <path
           d="m 118.55775,61.24656 v -0.614085 q 0,-0.752554 -0.12643,-0.98735 -0.12041,-0.234797 -0.66225,-0.234797 -0.97531,0 -0.97531,0.373267 0,0.108367 0.0783,0.240817 0.0843,0.126429 0.0843,0.301021 0,0.246838 -0.16256,0.379288 -0.16255,0.126429 -0.36724,0.126429 -0.2649,0 -0.40939,-0.162552 -0.14449,-0.168572 -0.14449,-0.391328 0,-0.481635 0.5599,-0.806738 0.56592,-0.331124 1.57133,-0.331124 0.80674,0 1.18001,0.186634 0.37326,0.186633 0.45755,0.463573 0.0903,0.27694 0.0903,0.782656 v 2.215519 q 0,0.487655 0.0662,0.608064 0.0722,0.120408 0.21674,0.120408 0.21673,0 0.42143,-0.295001 h 0.14449 q -0.15654,0.878983 -1.02348,0.878983 -0.83684,0 -0.99939,-0.963269 -0.70439,0.963269 -1.6496,0.963269 -0.62612,0 -0.99939,-0.337144 -0.37327,-0.343165 -0.37327,-0.83684 0,-1.53521 3.02226,-1.6797 z m 0,0.927146 v -0.650207 q -1.11378,0.04214 -1.46898,0.337145 -0.35521,0.28898 -0.35521,0.84286 0,0.403369 0.21071,0.626125 0.21674,0.222756 0.49368,0.222756 0.35521,0 0.63817,-0.234797 0.28898,-0.240817 0.3853,-0.481634 0.0963,-0.240818 0.0963,-0.662248 z"
           style="font-style:normal;font-variant:normal;font-weight:normal;font-stretch:normal;font-size:12.32984447px;font-family:'Bodoni MT';-inkscape-font-specification:'Bodoni MT';text-align:center;text-anchor:middle;stroke-width:0.28898072"
           id="path4620" />
        <path
           d="m 124.71665,59.16349 v 1.348577 h -0.24684 q -0.27694,-1.173984 -1.34858,-1.173984 -0.46357,0 -0.77663,0.246837 -0.30704,0.240818 -0.30704,0.55388 0,0.264899 0.21673,0.42143 0.22276,0.150511 1.04154,0.258879 1.80011,0.222756 1.80011,1.637557 0,0.704391 -0.4696,1.173985 -0.46357,0.469593 -1.15592,0.469593 -0.68031,0 -1.31848,-0.5599 l -0.42143,0.361226 h -0.21071 v -1.776027 h 0.21071 q 0.51776,1.703782 1.73991,1.703782 0.46357,0 0.84286,-0.295001 0.37929,-0.295002 0.37929,-0.69235 0,-0.331124 -0.22878,-0.499696 -0.22276,-0.168572 -1.21613,-0.313062 -1.69174,-0.246838 -1.69174,-1.505108 0,-0.620105 0.45153,-1.035515 0.45756,-0.42143 1.11378,-0.42143 0.69235,0 1.16195,0.457553 0.12041,-0.126429 0.24684,-0.361226 z"
           style="font-style:normal;font-variant:normal;font-weight:normal;font-stretch:normal;font-size:12.32984447px;font-family:'Bodoni MT';-inkscape-font-specification:'Bodoni MT';text-align:center;text-anchor:middle;stroke-width:0.28898072"
           id="path4622" />
        <path
           d="m 134.04832,55.786028 v 7.856663 h 0.81276 v 0.307042 h -0.67429 q -0.63817,0 -1.34858,0.07225 v -0.987351 h -0.0241 q -0.48163,1.065616 -1.54123,1.065616 -0.84888,0 -1.49909,-0.752554 -0.64418,-0.758574 -0.64418,-1.715823 0,-1.023473 0.6803,-1.794089 0.68633,-0.770615 1.61348,-0.770615 0.94521,0 1.39072,0.848881 h 0.0241 v -3.732668 h -1.09572 v -0.307042 h 1.09572 q 0.60807,0 1.21011,-0.09031 z m -2.58879,3.552055 q -0.65622,0 -0.8248,0.493675 -0.16255,0.487655 -0.16255,1.986743 0,1.294392 0.21072,1.631537 0.21071,0.337144 0.68031,0.337144 0.50571,0 0.89102,-0.343165 0.38531,-0.343164 0.50572,-0.782656 0.1204,-0.439492 0.1204,-1.426842 0,-0.939188 -0.37928,-1.414802 -0.37929,-0.481634 -1.04154,-0.481634 z"
           style="font-style:normal;font-variant:normal;font-weight:normal;font-stretch:normal;font-size:12.32984447px;font-family:'Bodoni MT';-inkscape-font-specification:'Bodoni MT';text-align:center;text-anchor:middle;stroke-width:0.28898072"
           id="path4624" />
        <path
           d="m 140.02059,61.222478 h -3.04634 q -0.0421,1.782048 0.19867,2.197457 0.24082,0.40939 0.86093,0.40939 1.27633,0 1.72786,-1.481026 h 0.25888 q -0.19868,0.897044 -0.75256,1.324495 -0.55387,0.42745 -1.23418,0.42745 -0.96929,0 -1.68572,-0.716431 -0.71644,-0.722452 -0.71644,-1.81215 0,-1.059596 0.69837,-1.782048 0.70439,-0.722452 1.63154,-0.722452 0.80674,0 1.40878,0.571941 0.60807,0.571941 0.65021,1.583374 z m -3.04634,-0.27092 h 1.75195 q 0.0482,-0.42745 0.0482,-0.650206 0,-0.963269 -0.87296,-0.963269 -0.43347,0 -0.68031,0.234796 -0.24684,0.228777 -0.24684,0.626125 z"
           style="font-style:normal;font-variant:normal;font-weight:normal;font-stretch:normal;font-size:12.32984447px;font-family:'Bodoni MT';-inkscape-font-specification:'Bodoni MT';text-align:center;text-anchor:middle;stroke-width:0.28898072"
           id="path4626" />
        <path
           d="m 26.529428,73.326438 v 1.372658 h 1.426842 v 0.307042 h -1.426842 v 2.980114 q 0,0.656227 0.08429,0.897044 0.09031,0.240817 0.469593,0.240817 0.288981,0 0.55388,-0.192653 0.270919,-0.192654 0.409389,-0.596023 h 0.258879 q -0.27694,1.167964 -1.679701,1.167964 -0.590002,0 -0.866942,-0.210715 -0.27694,-0.216736 -0.343164,-0.529798 -0.0602,-0.313063 -0.0602,-0.848881 v -2.907869 h -1.071637 v -0.307042 h 1.071637 v -1.270311 q 0.596023,0 1.173985,-0.102347 z"
           style="font-style:normal;font-variant:normal;font-weight:normal;font-stretch:normal;font-size:12.32984447px;font-family:'Bodoni MT';-inkscape-font-specification:'Bodoni MT';text-align:center;text-anchor:middle;stroke-width:0.28898072"
           id="path4628" />
        <path
           d="m 34.151294,74.699096 v 4.425017 h 0.812758 v 0.307043 h -0.812758 q -0.939187,0 -1.186025,0.07224 V 78.3836 h -0.02408 q -0.541839,1.119801 -1.703782,1.119801 -0.668268,0 -1.077657,-0.349185 -0.403369,-0.355206 -0.403369,-1.487047 v -2.661031 h -0.872963 v -0.307042 h 2.046947 v 3.178788 q 0,0.746534 0.09031,1.035514 0.09031,0.282961 0.463573,0.282961 0.55388,0 1.023473,-0.590003 0.469594,-0.596022 0.469594,-1.788068 v -1.81215 h -0.963269 v -0.307042 z"
           style="font-style:normal;font-variant:normal;font-weight:normal;font-stretch:normal;font-size:12.32984447px;font-family:'Bodoni MT';-inkscape-font-specification:'Bodoni MT';text-align:center;text-anchor:middle;stroke-width:0.28898072"
           id="path4630" />
        <path
           d="m 36.517324,79.124113 v -4.117975 h -0.97531 v -0.307042 h 0.987351 q 0.758574,0 1.155923,-0.07827 v 1.137862 h 0.02408 q 0.421431,-1.137862 1.24623,-1.137862 0.361226,0 0.577961,0.222756 0.222756,0.216736 0.222756,0.529798 0,0.288981 -0.180613,0.469594 -0.174592,0.174593 -0.457553,0.174593 -0.517757,0 -0.517757,-0.517757 l 0.02408,-0.258879 q 0,-0.13847 -0.126429,-0.13847 -0.198674,0 -0.505716,0.535818 -0.307042,0.535819 -0.307042,1.637558 v 1.848272 h 0.999391 v 0.307043 h -3.142665 v -0.307043 z"
           style="font-style:normal;font-variant:normal;font-weight:normal;font-stretch:normal;font-size:12.32984447px;font-family:'Bodoni MT';-inkscape-font-specification:'Bodoni MT';text-align:center;text-anchor:middle;stroke-width:0.28898072"
           id="path4632" />
        <path
           d="m 41.562445,79.124113 v -4.117975 h -0.84888 v -0.307042 h 0.529798 q 0.939187,0 1.493067,-0.07827 v 1.161944 h 0.02408 q 0.475614,-1.161944 1.697762,-1.161944 1.330516,0 1.468986,1.234189 h 0.02408 q 0.523778,-1.234189 1.739905,-1.234189 0.541839,0 0.909085,0.27092 0.373267,0.270919 0.457553,0.626125 0.09031,0.355205 0.09031,1.173984 v 2.432254 h 0.83684 v 0.307043 h -2.799501 v -0.307043 h 0.788676 V 76.15002 q 0,-0.70439 -0.08429,-0.969289 -0.07827,-0.264899 -0.433471,-0.264899 -0.487655,0 -1.005412,0.553879 -0.511737,0.54786 -0.511737,2.08909 v 1.565312 h 0.776636 v 0.307043 h -2.727256 v -0.307043 h 0.782657 v -2.329907 q 0,-1.360617 -0.102348,-1.619496 -0.09633,-0.258878 -0.469593,-0.258878 -0.511737,0 -0.897045,0.451532 -0.379287,0.451532 -0.475614,0.878983 -0.09031,0.427451 -0.09031,1.360618 v 1.517148 h 0.776635 v 0.307043 h -2.7995 v -0.307043 z"
           style="font-style:normal;font-variant:normal;font-weight:normal;font-stretch:normal;font-size:12.32984447px;font-family:'Bodoni MT';-inkscape-font-specification:'Bodoni MT';text-align:center;text-anchor:middle;stroke-width:0.28898072"
           id="path4634" />
        <path
           d="m 53.934434,76.727982 v -0.614084 q 0,-0.752554 -0.126429,-0.987351 -0.120409,-0.234797 -0.662248,-0.234797 -0.97531,0 -0.97531,0.373267 0,0.108367 0.07827,0.240817 0.08429,0.126429 0.08429,0.301022 0,0.246837 -0.162552,0.379287 -0.162551,0.126429 -0.367246,0.126429 -0.264899,0 -0.409389,-0.162552 -0.144491,-0.168572 -0.144491,-0.391328 0,-0.481634 0.5599,-0.806738 0.565921,-0.331124 1.571333,-0.331124 0.806738,0 1.180005,0.186634 0.373267,0.186633 0.457553,0.463573 0.09031,0.27694 0.09031,0.782656 v 2.215519 q 0,0.487655 0.06623,0.608064 0.07224,0.120408 0.216735,0.120408 0.216736,0 0.421431,-0.295001 h 0.14449 q -0.156531,0.878983 -1.023473,0.878983 -0.83684,0 -0.999392,-0.963269 -0.704391,0.963269 -1.649598,0.963269 -0.626125,0 -0.999392,-0.337144 -0.373267,-0.343164 -0.373267,-0.83684 0,-1.53521 3.022257,-1.6797 z m 0,0.927146 v -0.650207 q -1.11378,0.04214 -1.468985,0.337145 -0.355206,0.28898 -0.355206,0.84286 0,0.403369 0.210715,0.626125 0.216736,0.222756 0.493676,0.222756 0.355205,0 0.638165,-0.234797 0.288981,-0.240817 0.385308,-0.481634 0.09633,-0.240818 0.09633,-0.662248 z"
           style="font-style:normal;font-variant:normal;font-weight:normal;font-stretch:normal;font-size:12.32984447px;font-family:'Bodoni MT';-inkscape-font-specification:'Bodoni MT';text-align:center;text-anchor:middle;stroke-width:0.28898072"
           id="path4636" />
        <path
           d="m 64.22335,76.7039 h -3.046338 q -0.04214,1.782048 0.198674,2.197458 0.240817,0.409389 0.860922,0.409389 1.276331,0 1.727864,-1.481026 h 0.258878 q -0.198674,0.897044 -0.752554,1.324495 -0.553879,0.42745 -1.234188,0.42745 -0.96929,0 -1.685721,-0.716431 -0.716431,-0.722452 -0.716431,-1.81215 0,-1.059596 0.69837,-1.782048 0.70439,-0.722452 1.631537,-0.722452 0.806738,0 1.408781,0.571941 0.608063,0.571941 0.650206,1.583374 z m -3.046338,-0.27092 h 1.751946 q 0.04816,-0.42745 0.04816,-0.650206 0,-0.963269 -0.872963,-0.963269 -0.433471,0 -0.680308,0.234797 -0.246838,0.228776 -0.246838,0.626124 z"
           style="font-style:normal;font-variant:normal;font-weight:normal;font-stretch:normal;font-size:12.32984447px;font-family:'Bodoni MT';-inkscape-font-specification:'Bodoni MT';text-align:center;text-anchor:middle;stroke-width:0.28898072"
           id="path4638" />
        <path
           d="m 68.401531,74.644912 v 1.348577 h -0.246838 q -0.27694,-1.173984 -1.348577,-1.173984 -0.463573,0 -0.776635,0.246837 -0.307042,0.240818 -0.307042,0.55388 0,0.264899 0.216735,0.42143 0.222756,0.150511 1.041535,0.258879 1.800109,0.222756 1.800109,1.637557 0,0.704391 -0.469594,1.173985 -0.463573,0.469593 -1.155922,0.469593 -0.680309,0 -1.318475,-0.5599 l -0.42143,0.361226 h -0.210715 v -1.776027 h 0.210715 q 0.517757,1.703782 1.739905,1.703782 0.463573,0 0.84286,-0.295001 0.379287,-0.295001 0.379287,-0.69235 0,-0.331124 -0.228776,-0.499696 -0.222756,-0.168572 -1.216127,-0.313062 -1.691742,-0.246838 -1.691742,-1.505108 0,-0.620105 0.451533,-1.035515 0.457552,-0.42143 1.113779,-0.42143 0.69235,0 1.161944,0.457553 0.120408,-0.126429 0.246838,-0.361226 z"
           style="font-style:normal;font-variant:normal;font-weight:normal;font-stretch:normal;font-size:12.32984447px;font-family:'Bodoni MT';-inkscape-font-specification:'Bodoni MT';text-align:center;text-anchor:middle;stroke-width:0.28898072"
           id="path4640" />
        <path
           d="m 71.803075,73.326438 v 1.372658 h 1.426842 v 0.307042 h -1.426842 v 2.980114 q 0,0.656227 0.08429,0.897044 0.09031,0.240817 0.469594,0.240817 0.28898,0 0.553879,-0.192653 0.27092,-0.192654 0.40939,-0.596023 h 0.258878 q -0.27694,1.167964 -1.6797,1.167964 -0.590003,0 -0.866942,-0.210715 -0.27694,-0.216736 -0.343165,-0.529798 -0.0602,-0.313063 -0.0602,-0.848881 v -2.907869 h -1.071637 v -0.307042 h 1.071637 v -1.270311 q 0.596022,0 1.173984,-0.102347 z"
           style="font-style:normal;font-variant:normal;font-weight:normal;font-stretch:normal;font-size:12.32984447px;font-family:'Bodoni MT';-inkscape-font-specification:'Bodoni MT';text-align:center;text-anchor:middle;stroke-width:0.28898072"
           id="path4642" />
        <path
           d="m 77.534526,76.727982 v -0.614084 q 0,-0.752554 -0.126429,-0.987351 -0.120409,-0.234797 -0.662248,-0.234797 -0.97531,0 -0.97531,0.373267 0,0.108367 0.07827,0.240817 0.08429,0.126429 0.08429,0.301022 0,0.246837 -0.162552,0.379287 -0.162551,0.126429 -0.367246,0.126429 -0.264899,0 -0.409389,-0.162552 -0.144491,-0.168572 -0.144491,-0.391328 0,-0.481634 0.5599,-0.806738 0.565921,-0.331124 1.571333,-0.331124 0.806738,0 1.180005,0.186634 0.373267,0.186633 0.457553,0.463573 0.09031,0.27694 0.09031,0.782656 v 2.215519 q 0,0.487655 0.06623,0.608064 0.07224,0.120408 0.216735,0.120408 0.216736,0 0.421431,-0.295001 h 0.14449 q -0.156531,0.878983 -1.023473,0.878983 -0.83684,0 -0.999392,-0.963269 -0.704391,0.963269 -1.649598,0.963269 -0.626125,0 -0.999392,-0.337144 -0.373267,-0.343164 -0.373267,-0.83684 0,-1.53521 3.022257,-1.6797 z m 0,0.927146 v -0.650207 q -1.11378,0.04214 -1.468986,0.337145 -0.355205,0.28898 -0.355205,0.84286 0,0.403369 0.210715,0.626125 0.216736,0.222756 0.493676,0.222756 0.355205,0 0.638165,-0.234797 0.288981,-0.240817 0.385308,-0.481634 0.09633,-0.240818 0.09633,-0.662248 z m 1.035514,-5.659206 h 0.234797 q -0.01204,0.656227 -0.361226,0.999392 -0.343165,0.343164 -0.782656,0.343164 -0.397349,0 -1.011433,-0.264899 -0.614084,-0.264899 -0.824799,-0.264899 -0.457553,0 -0.56592,0.529798 h -0.234797 q 0,-0.680308 0.337144,-1.011432 0.343165,-0.331124 0.818779,-0.331124 0.415409,0 0.999391,0.258879 0.590003,0.258878 0.83684,0.258878 0.403369,0 0.55388,-0.517757 z"
           style="font-style:normal;font-variant:normal;font-weight:normal;font-stretch:normal;font-size:12.32984447px;font-family:'Bodoni MT';-inkscape-font-specification:'Bodoni MT';text-align:center;text-anchor:middle;stroke-width:0.28898072"
           id="path4644" />
        <path
           d="m 80.472497,77.053085 q 0,-1.041535 0.716431,-1.770007 0.716431,-0.734493 1.776027,-0.734493 1.035515,0 1.751946,0.704391 0.722452,0.69837 0.722452,1.751945 0,1.077658 -0.746534,1.830212 -0.746533,0.746533 -1.763986,0.746533 -0.999392,0 -1.727864,-0.728472 -0.728472,-0.734493 -0.728472,-1.800109 z m 3.612259,0 q 0,-1.10776 -0.07827,-1.462965 -0.07224,-0.355206 -0.337144,-0.5599 -0.258879,-0.210715 -0.716431,-0.210715 -0.433471,0 -0.716432,0.216735 -0.27694,0.210715 -0.343164,0.565921 -0.06623,0.355205 -0.06623,1.462965 0,1.11378 0.07827,1.475006 0.08429,0.361226 0.355206,0.56592 0.27694,0.204695 0.69235,0.204695 0.42143,0 0.69837,-0.204695 0.28296,-0.210715 0.355205,-0.577961 0.07827,-0.373267 0.07827,-1.475006 z"
           style="font-style:normal;font-variant:normal;font-weight:normal;font-stretch:normal;font-size:12.32984447px;font-family:'Bodoni MT';-inkscape-font-specification:'Bodoni MT';text-align:center;text-anchor:middle;stroke-width:0.28898072"
           id="path4646" />
        <path
           d="m 90.315899,79.124113 v -4.117975 h -0.999391 v -0.307042 h 0.999391 q -0.04816,-1.595414 0.656227,-2.51052 0.710411,-0.921126 1.685721,-0.921126 0.469594,0 0.812759,0.270919 0.349185,0.27092 0.349185,0.656227 0,0.264899 -0.168572,0.445512 -0.162552,0.180613 -0.41541,0.180613 -0.216736,0 -0.373267,-0.15051 -0.156531,-0.150511 -0.156531,-0.379288 0,-0.355205 0.397348,-0.590002 -0.180613,-0.162552 -0.529798,-0.162552 -0.337144,0 -0.638165,0.204695 -0.301022,0.204695 -0.367247,0.620104 -0.06623,0.40939 -0.06623,1.324496 v 1.011432 h 1.119801 v 0.307042 h -1.119801 v 4.117975 h 1.011433 v 0.307043 h -3.094502 v -0.307043 z"
           style="font-style:normal;font-variant:normal;font-weight:normal;font-stretch:normal;font-size:12.32984447px;font-family:'Bodoni MT';-inkscape-font-specification:'Bodoni MT';text-align:center;text-anchor:middle;stroke-width:0.28898072"
           id="path4648" />
        <path
           d="m 96.655421,76.727982 v -0.614084 q 0,-0.752554 -0.126429,-0.987351 -0.120408,-0.234797 -0.662247,-0.234797 -0.97531,0 -0.97531,0.373267 0,0.108367 0.07827,0.240817 0.08429,0.126429 0.08429,0.301022 0,0.246837 -0.162551,0.379287 -0.162552,0.126429 -0.367247,0.126429 -0.264899,0 -0.409389,-0.162552 -0.14449,-0.168572 -0.14449,-0.391328 0,-0.481634 0.5599,-0.806738 0.56592,-0.331124 1.571332,-0.331124 0.806738,0 1.180005,0.186634 0.373267,0.186633 0.457553,0.463573 0.09031,0.27694 0.09031,0.782656 v 2.215519 q 0,0.487655 0.06623,0.608064 0.07225,0.120408 0.216736,0.120408 0.216735,0 0.42143,-0.295001 h 0.14449 q -0.156531,0.878983 -1.023473,0.878983 -0.83684,0 -0.999392,-0.963269 -0.70439,0.963269 -1.649598,0.963269 -0.626125,0 -0.999392,-0.337144 -0.373267,-0.343164 -0.373267,-0.83684 0,-1.53521 3.022257,-1.6797 z m 0,0.927146 v -0.650207 q -1.11378,0.04214 -1.468985,0.337145 -0.355206,0.28898 -0.355206,0.84286 0,0.403369 0.210715,0.626125 0.216736,0.222756 0.493676,0.222756 0.355205,0 0.638166,-0.234797 0.28898,-0.240817 0.385307,-0.481634 0.09633,-0.240818 0.09633,-0.662248 z"
           style="font-style:normal;font-variant:normal;font-weight:normal;font-stretch:normal;font-size:12.32984447px;font-family:'Bodoni MT';-inkscape-font-specification:'Bodoni MT';text-align:center;text-anchor:middle;stroke-width:0.28898072"
           id="path4650" />
        <path
           d="m 99.75594,76.583491 v -1.884395 h 4.03971 v 0.258879 l -2.89583,4.202261 h 0.8248 q 0.74653,0 1.17399,-0.337144 0.43347,-0.343165 0.66826,-1.414802 h 0.22878 v 2.022866 h -4.226343 v -0.307043 l 2.883783,-4.154098 h -0.8248 q -0.40336,0 -0.68632,0.08429 -0.28297,0.07826 -0.54786,0.433471 -0.2649,0.349185 -0.39133,1.095718 z"
           style="font-style:normal;font-variant:normal;font-weight:normal;font-stretch:normal;font-size:12.32984447px;font-family:'Bodoni MT';-inkscape-font-specification:'Bodoni MT';text-align:center;text-anchor:middle;stroke-width:0.28898072"
           id="path4652" />
        <path
           d="m 109.42476,76.7039 h -3.04634 q -0.0422,1.782048 0.19867,2.197458 0.24082,0.409389 0.86092,0.409389 1.27633,0 1.72787,-1.481026 h 0.25888 q -0.19868,0.897044 -0.75256,1.324495 -0.55388,0.42745 -1.23419,0.42745 -0.96929,0 -1.68572,-0.716431 -0.71643,-0.722452 -0.71643,-1.81215 0,-1.059596 0.69837,-1.782048 0.70439,-0.722452 1.63154,-0.722452 0.80674,0 1.40878,0.571941 0.60806,0.571941 0.65021,1.583374 z m -3.04634,-0.27092 h 1.75194 q 0.0482,-0.42745 0.0482,-0.650206 0,-0.963269 -0.87297,-0.963269 -0.43347,0 -0.68031,0.234797 -0.24683,0.228776 -0.24683,0.626124 z"
           style="font-style:normal;font-variant:normal;font-weight:normal;font-stretch:normal;font-size:12.32984447px;font-family:'Bodoni MT';-inkscape-font-specification:'Bodoni MT';text-align:center;text-anchor:middle;stroke-width:0.28898072"
           id="path4654" />
        <path
           d="m 111.06231,79.124113 v -4.117975 h -0.8549 v -0.307042 h 0.54786 q 0.81276,0 1.475,-0.09031 v 1.173984 h 0.0241 q 0.62011,-1.234189 1.75195,-1.234189 0.5298,0 0.86694,0.27092 0.34317,0.270919 0.46358,0.638165 0.12643,0.367247 0.12643,1.137862 v 2.528581 h 0.93918 v 0.307043 h -2.91389 v -0.307043 h 0.80072 v -3.010215 q 0,-0.69235 -0.0903,-0.957249 -0.0843,-0.264899 -0.45153,-0.264899 -0.58398,0 -1.05357,0.602043 -0.46358,0.596023 -0.46358,1.607455 v 2.022865 h 0.78868 v 0.307043 h -2.81154 v -0.307043 z"
           style="font-style:normal;font-variant:normal;font-weight:normal;font-stretch:normal;font-size:12.32984447px;font-family:'Bodoni MT';-inkscape-font-specification:'Bodoni MT';text-align:center;text-anchor:middle;stroke-width:0.28898072"
           id="path4656" />
        <path
           d="m 121.97134,71.26745 v 7.856663 h 0.81276 v 0.307043 h -0.67429 q -0.63817,0 -1.34858,0.07224 V 78.51605 h -0.0241 q -0.48164,1.065616 -1.54123,1.065616 -0.84888,0 -1.49909,-0.752554 -0.64419,-0.758574 -0.64419,-1.715823 0,-1.023473 0.68031,-1.794088 0.68633,-0.770616 1.61348,-0.770616 0.94521,0 1.39072,0.848881 h 0.0241 v -3.732668 h -1.09572 v -0.307042 h 1.09572 q 0.60806,0 1.21011,-0.09031 z m -2.58879,3.552055 q -0.65623,0 -0.8248,0.493675 -0.16255,0.487655 -0.16255,1.986743 0,1.294392 0.21072,1.631537 0.21071,0.337144 0.6803,0.337144 0.50572,0 0.89103,-0.343165 0.38531,-0.343164 0.50571,-0.782656 0.12041,-0.439491 0.12041,-1.426842 0,-0.939188 -0.37928,-1.414802 -0.37929,-0.481634 -1.04154,-0.481634 z"
           style="font-style:normal;font-variant:normal;font-weight:normal;font-stretch:normal;font-size:12.32984447px;font-family:'Bodoni MT';-inkscape-font-specification:'Bodoni MT';text-align:center;text-anchor:middle;stroke-width:0.28898072"
           id="path4658" />
        <path
           d="m 123.62695,77.053085 q 0,-1.041535 0.71643,-1.770007 0.71643,-0.734493 1.77603,-0.734493 1.03551,0 1.75194,0.704391 0.72246,0.69837 0.72246,1.751945 0,1.077658 -0.74654,1.830212 -0.74653,0.746533 -1.76398,0.746533 -0.9994,0 -1.72787,-0.728472 -0.72847,-0.734493 -0.72847,-1.800109 z m 3.61226,0 q 0,-1.10776 -0.0783,-1.462965 -0.0722,-0.355206 -0.33714,-0.5599 -0.25888,-0.210715 -0.71643,-0.210715 -0.43347,0 -0.71643,0.216735 -0.27694,0.210715 -0.34317,0.565921 -0.0662,0.355205 -0.0662,1.462965 0,1.11378 0.0783,1.475006 0.0843,0.361226 0.35521,0.56592 0.27694,0.204695 0.69235,0.204695 0.42143,0 0.69837,-0.204695 0.28296,-0.210715 0.3552,-0.577961 0.0783,-0.373267 0.0783,-1.475006 z"
           style="font-style:normal;font-variant:normal;font-weight:normal;font-stretch:normal;font-size:12.32984447px;font-family:'Bodoni MT';-inkscape-font-specification:'Bodoni MT';text-align:center;text-anchor:middle;stroke-width:0.28898072"
           id="path4660" />
        <path
           d="m 129.80391,78.817071 q 0,-0.307042 0.21674,-0.529798 0.22275,-0.222756 0.5298,-0.222756 0.31908,0 0.54183,0.222756 0.22276,0.216736 0.22276,0.529798 0,0.313063 -0.22276,0.541839 -0.22275,0.222756 -0.54183,0.222756 -0.30705,0 -0.5298,-0.222756 -0.21674,-0.228776 -0.21674,-0.541839 z"
           style="font-style:normal;font-variant:normal;font-weight:normal;font-stretch:normal;font-size:12.32984447px;font-family:'Bodoni MT';-inkscape-font-specification:'Bodoni MT';text-align:center;text-anchor:middle;stroke-width:0.28898072"
           id="path4662" />
      </g>
      <text
         id="text6080-5-2"
         y="35.126305"
         x="-91.617737"
         style="font-style:normal;font-variant:normal;font-weight:normal;font-stretch:normal;font-size:10.78861427px;line-height:1.25;font-family:Calligraffitti;-inkscape-font-specification:Calligraffitti;letter-spacing:0px;word-spacing:0px;fill:#000000;fill-opacity:1;stroke:none;stroke-width:0.28898072"
         xml:space="preserve"><tspan
           style="font-style:normal;font-variant:normal;font-weight:normal;font-stretch:normal;font-size:12.32984447px;font-family:'Bodoni MT';-inkscape-font-specification:'Bodoni MT';text-align:center;text-anchor:middle;stroke-width:0.28898072"
           y="35.126305"
           x="-91.617737"
           sodipodi:role="line"
           id="tspan5312-2">Aqui você fica sabendo</tspan><tspan
           style="font-style:normal;font-variant:normal;font-weight:normal;font-stretch:normal;font-size:12.32984447px;font-family:'Bodoni MT';-inkscape-font-specification:'Bodoni MT';text-align:center;text-anchor:middle;stroke-width:0.28898072"
           y="50.607727"
           x="-90.100586"
           sodipodi:role="line"
           id="tspan5325-0">tudo que seus colegas de </tspan><tspan
           style="font-style:normal;font-variant:normal;font-weight:normal;font-stretch:normal;font-size:12.32984447px;font-family:'Bodoni MT';-inkscape-font-specification:'Bodoni MT';text-align:center;text-anchor:middle;stroke-width:0.28898072"
           y="66.089149"
           x="-91.617737"
           sodipodi:role="line"
           id="tspan4524-0">turma estão fazendo.</tspan></text>
    </g>
  </g>
</svg>
