<?xml version="1.0" encoding="UTF-8" standalone="no"?>
<!-- Created with Inkscape (http://www.inkscape.org/) -->

<svg
   xmlns:dc="http://purl.org/dc/elements/1.1/"
   xmlns:cc="http://creativecommons.org/ns#"
   xmlns:rdf="http://www.w3.org/1999/02/22-rdf-syntax-ns#"
   xmlns:svg="http://www.w3.org/2000/svg"
   xmlns="http://www.w3.org/2000/svg"
   xmlns:sodipodi="http://sodipodi.sourceforge.net/DTD/sodipodi-0.dtd"
   xmlns:inkscape="http://www.inkscape.org/namespaces/inkscape"
   width="170mm"
   height="320mm"
   viewBox="0 0 170 320"
   version="1.1"
   id="svg5205"
   inkscape:version="0.92.1 r15371"
   sodipodi:docname="ajuda-mago-livro.svg">
  <defs
     id="defs5199">
    <clipPath
       clipPathUnits="userSpaceOnUse"
       id="clipPath9195">
      <rect
         style="opacity:1;fill:none;fill-opacity:1;stroke:#000000;stroke-width:0.41468519"
         id="rect9197"
         width="286.2865"
         height="173.06219"
         x="636.15247"
         y="341.80554" />
    </clipPath>
  </defs>
  <sodipodi:namedview
     id="base"
     pagecolor="#ffffff"
     bordercolor="#666666"
     borderopacity="1.0"
     inkscape:pageopacity="0.0"
     inkscape:pageshadow="2"
     inkscape:zoom="0.7"
     inkscape:cx="194.29084"
     inkscape:cy="1033.3731"
     inkscape:document-units="mm"
     inkscape:current-layer="g5254"
     showgrid="false"
     inkscape:window-width="1366"
     inkscape:window-height="705"
     inkscape:window-x="-8"
     inkscape:window-y="-8"
     inkscape:window-maximized="1" />
  <metadata
     id="metadata5202">
    <rdf:RDF>
      <cc:Work
         rdf:about="">
        <dc:format>image/svg+xml</dc:format>
        <dc:type
           rdf:resource="http://purl.org/dc/dcmitype/StillImage" />
        <dc:title />
      </cc:Work>
    </rdf:RDF>
  </metadata>
  <g
     inkscape:label="Camada 1"
     inkscape:groupmode="layer"
     id="layer1"
     transform="translate(0,23.00001)">
    <g
       id="g6040"
       transform="matrix(0.41093878,0,0,0.41093878,240.25032,134.32483)">
      <g
         transform="translate(-509.53549,73.655277)"
         id="g5811">
        <path
           style="fill:#764c24;fill-opacity:1;stroke:#000000;stroke-width:0.26458332px;stroke-linecap:butt;stroke-linejoin:miter;stroke-opacity:1"
           d="m 134.1693,295.39639 c 2.55005,7.31887 -2.64304,8.61529 -6.1472,11.22532 -20.24731,11.30922 -48.462794,17.46599 -56.928406,3.20722 -0.273245,-12.95769 4.285632,-17.86184 12.561668,-16.57072 -5.487687,8.06882 -3.947958,14.66893 8.819893,6.14722 l 8.552625,-6.94901 z"
           id="path5792"
           inkscape:connector-curvature="0"
           sodipodi:nodetypes="ccccccc" />
        <path
           style="fill:#764c24;fill-opacity:1;stroke:#000000;stroke-width:0.26458332px;stroke-linecap:butt;stroke-linejoin:miter;stroke-opacity:1"
           d="m 162.56459,293.78996 c -2.55005,7.31887 2.64304,8.61529 6.1472,11.22532 20.24731,11.30922 48.4628,17.46599 56.92841,3.20722 0.27325,-12.95769 -4.28563,-17.86184 -12.56167,-16.57072 5.48769,8.06882 3.94796,14.66893 -8.81989,6.14722 l -8.55263,-6.94901 z"
           id="path5792-6"
           inkscape:connector-curvature="0"
           sodipodi:nodetypes="ccccccc" />
      </g>
      <g
         transform="matrix(1,0,0,1.0332344,-508.15328,-0.43230931)"
         id="g5837">
        <g
           id="g5832"
           style="stroke:none">
          <path
             sodipodi:nodetypes="cczccc"
             inkscape:connector-curvature="0"
             id="path5813"
             d="m 117.73958,56.418154 c -4.68887,14.051395 -4.73436,18.220571 -4.27041,23.86212 0.22674,3.941473 2.64213,8.647834 6.16029,8.83282 3.51816,0.184986 11.88535,-10.208966 22.11161,-9.449405 l 0.56696,-21.166667 z"
             style="fill:#dfb28b;fill-opacity:1;stroke:none;stroke-width:0.26458332px;stroke-linecap:butt;stroke-linejoin:miter;stroke-opacity:1" />
          <path
             sodipodi:nodetypes="ccccc"
             inkscape:connector-curvature="0"
             id="path5813-0"
             d="m 178.87722,57.646577 c 4.05195,15.065897 -2.68806,31.815542 -16.72544,31.844493 -7.6759,-0.0985 -12.5468,-8.980543 -20.41071,-9.827381 l 0.56696,-21.166667 z"
             style="fill:#cf9e76;fill-opacity:1;stroke:none;stroke-width:0.26458332px;stroke-linecap:butt;stroke-linejoin:miter;stroke-opacity:1" />
        </g>
      </g>
      <g
         transform="translate(-508.34664,-18.708866)"
         style="stroke:none"
         id="g5790">
        <path
           style="fill:#0071bd;fill-opacity:1;stroke:none;stroke-width:0.26458332px;stroke-linecap:butt;stroke-linejoin:miter;stroke-opacity:1"
           d="m 85.839373,363.91942 c -0.309558,25.53848 14.672177,21.76866 25.657877,25.65789 47.95635,2.50543 76.57673,0.0775 89.26802,-6.41448 7.44949,-3.90569 14.64492,-8.20965 15.50163,-22.45063 -0.6582,-19.77795 3.61584,-84.91303 -2.98582,-154.58384 12.47868,-1.29119 25.36867,-2.11232 31.00327,-11.22532 -5.68163,-29.80332 -14.44282,-58.65908 -33.14143,-84.45717 l -122.943977,5.34539 c -22.27246,20.38118 -37.061374,51.72759 -55.592061,56.66114 -5.373203,19.74383 -4.323969,37.07925 6.414468,50.78121 17.048359,20.5065 17.179195,12.25402 23.611431,11.75986 6.050952,-7.46923 8.935858,-5.58257 27.16978,-37.41774 -9.318439,60.91588 -3.525178,140.96294 -3.963188,166.34369 z"
           id="path5784"
           inkscape:connector-curvature="0"
           sodipodi:nodetypes="ccccccccccccc" />
        <path
           style="fill:#005995;fill-opacity:1;stroke:none;stroke-width:0.26458332px;stroke-linecap:butt;stroke-linejoin:miter;stroke-opacity:1"
           d="m 32.606882,172.4524 c 9.719876,1.32012 19.153007,7.51491 27.869308,25.89581 13.124981,37.13936 1.731099,35.27143 -6.425597,38.55357 C 20.565245,217.58551 29.865923,190.0129 32.606882,172.4524 Z"
           id="path5786"
           inkscape:connector-curvature="0"
           sodipodi:nodetypes="cccc" />
      </g>
      <g
         style="fill:#ecf3fb;fill-opacity:1"
         transform="translate(-508.34664,1.6036175)"
         id="g5777">
        <path
           style="fill:#cccccc;fill-opacity:1;stroke:none;stroke-width:0.26458332px;stroke-linecap:butt;stroke-linejoin:miter;stroke-opacity:1"
           d="m 115.46044,56.457423 v 0 l 2.67269,0.400905 c -3.65491,12.639689 -7.53376,25.387957 0.26727,32.473249 -5.3841,0.615618 -13.80755,-9.581829 -2.93996,-32.874154 z"
           id="path5769"
           inkscape:connector-curvature="0"
           sodipodi:nodetypes="ccccc" />
        <path
           style="fill:#ecf3fb;fill-opacity:1;stroke:none;stroke-width:0.26458332px;stroke-linecap:butt;stroke-linejoin:miter;stroke-opacity:1"
           d="m 115.46044,56.457423 -13.36348,-3.207234 c -35.621911,51.532041 2.69484,143.227471 49.17759,158.223561 -5.84103,-6.61436 -10.32917,-13.364 -2.13816,-21.38156 45.7216,-38.88688 67.59487,-72.47413 62.00653,-99.958804 -1.49135,-11.024688 -4.2784,-22.308516 -12.82893,-34.745041 l -19.24341,2.138156 c 3.6568,19.158434 -3.74871,29.353531 -14.03164,31.938711 -10.28294,2.585181 -14.56812,-9.786982 -24.45517,-10.022609 -9.88705,-0.235627 -13.71557,10.063579 -22.04974,9.888975 -8.33416,-0.174605 -10.01277,-18.704344 -3.07359,-32.874155 z"
           id="path5767"
           inkscape:connector-curvature="0"
           sodipodi:nodetypes="ccccccczzzc" />
        <path
           inkscape:transform-center-y="-0.80912441"
           inkscape:transform-center-x="-0.40680364"
           d="m 189.07857,188.92051 -6.95505,-4.6441 -7.76863,3.09658 2.26759,-8.04975 -5.34567,-6.43151 8.35649,-0.33091 4.46482,-7.07147 2.89702,7.84523 8.10508,2.0611 -6.56604,5.17953 z"
           inkscape:randomized="0"
           inkscape:rounded="0"
           inkscape:flatsided="false"
           sodipodi:arg2="1.6755161"
           sodipodi:arg1="1.0471976"
           sodipodi:r2="6.2968493"
           sodipodi:r1="12.593697"
           sodipodi:cy="178.01405"
           sodipodi:cx="182.78172"
           sodipodi:sides="5"
           id="path5992-2"
           style="opacity:1;fill:#f8d534;fill-opacity:1;stroke:none;stroke-width:0.43749675"
           sodipodi:type="star" />
      </g>
      <g
         id="g5782">
        <path
           style="fill:#005995;fill-opacity:1;stroke:none;stroke-width:0.26371107px;stroke-linecap:butt;stroke-linejoin:miter;stroke-opacity:1"
           d="m -450.92584,22.211309 c 0,0 -4.88289,37.57406 98.75337,38.55357 104.7683,0.990211 102.88375,-38.175593 102.88375,-38.175593 0,0 -11.15506,31.732051 -104.3857,30.842855 -90.12583,-0.859583 -97.25142,-31.220832 -97.25142,-31.220832 z"
           id="path5761"
           inkscape:connector-curvature="0"
           sodipodi:nodetypes="cscsc" />
        <ellipse
           style="opacity:1;fill:#006db5;fill-opacity:1;stroke:none;stroke-width:10.1013279"
           id="path5763"
           cx="-350.19495"
           cy="21.455357"
           rx="100.73065"
           ry="32.505951" />
        <path
           style="fill:#107fc7;fill-opacity:1;stroke:none;stroke-width:0.26458332px;stroke-linecap:butt;stroke-linejoin:miter;stroke-opacity:1"
           d="m -305.40477,12.761905 c -7.42635,14.437524 -84.24139,20.629163 -92.22619,0 29.891,-46.951725 68.50518,-89.176639 86.93453,-88.824404 7.93224,6.126368 15.24751,24.869346 18.8988,39.687499 l -3.40178,1.511906 c -5.96279,-6.570834 -10.04876,-18.774736 -15.875,-18.142857 -13.12319,40.688955 0.13003,48.4073967 5.66964,65.767856 z"
           id="path5765"
           inkscape:connector-curvature="0"
           sodipodi:nodetypes="ccccccc" />
      </g>
      <path
         sodipodi:nodetypes="ccczczc"
         inkscape:connector-curvature="0"
         id="path5935"
         d="m -449.94932,175.10363 c -3.43084,-6.9033 -8.33645,-11.84023 -13.89802,-15.90254 -2.95935,1.43802 -9.38584,1.14246 -18.04069,-0.26727 -17.54328,2.22487 -17.35579,19.97256 -15.368,30.20148 1.98778,10.2289 11.49259,16.03615 11.49259,16.03615 7.08587,3.7201 15.00113,-6.22615 16.97161,-13.0962 1.97048,-6.87007 2.5678,-8.44036 18.84251,-16.97162 z"
         style="fill:#dfb28b;fill-opacity:1;stroke:none;stroke-width:0.26458332px;stroke-linecap:butt;stroke-linejoin:miter;stroke-opacity:1" />
      <g
         transform="translate(102.89877,-9.8889725)"
         id="g5964">
        <path
           sodipodi:nodetypes="cccczcczzc"
           inkscape:connector-curvature="0"
           id="path5966"
           d="m -369.41791,187.59505 c -5.53476,5.74252 -14.54117,7.55051 -23.78699,9.08716 -2.53806,3.30301 -4.81146,6.90378 -4.54358,13.36348 l 0.80181,10.0226 c 2.05282,3.05162 3.73459,1.76981 4.40994,-1.33634 0.67535,-3.10615 0.0878,-5.22994 2.80633,-9.75534 1.54726,3.52937 2.93918,7.15715 1.73725,12.42803 -2.67267,8.19624 -0.15756,11.00146 6.28083,8.8199 6.4384,-2.18156 15.09057,-7.50947 18.30797,-12.6953 3.2174,-5.18583 -0.91101,-20.73909 -6.01356,-29.93419 z"
           style="fill:#dfb28b;fill-opacity:1;stroke:none;stroke-width:0.26458332px;stroke-linecap:butt;stroke-linejoin:miter;stroke-opacity:1" />
        <path
           style="opacity:1;fill:#c69c6c;fill-opacity:1;stroke:none;stroke-width:0.4480527"
           d="m -584.5071,137.71872 h 7.41499 v 258.43887 c -0.48175,2.65259 -6.61612,3.04525 -7.41499,0 z"
           id="rect5932"
           inkscape:connector-curvature="0"
           sodipodi:nodetypes="ccccc" />
        <g
           id="g5930"
           transform="translate(-378.45365,13.898015)">
          <g
             transform="translate(-236.23456,-0.84766482)"
             id="g5897">
            <path
               style="opacity:1;fill:#998675;fill-opacity:1;stroke:none;stroke-width:0.94488192"
               d="m 164.72656,227.88672 c 26.75988,24.20638 47.9999,61.5393 48.05664,97.62305 8e-5,70.65365 -57.27604,127.92977 -127.929684,127.92968 -25.996192,-0.0113 -56.170264,-15.0132 -77.5462717,-29.8074 28.3734947,42.30266 67.1641637,56.01533 106.8392357,56.03006 72.30542,8.2e-4 130.92074,-58.6145 130.91993,-130.91992 -0.0701,-50.33455 -34.93869,-99.12285 -80.33985,-120.85547 z"
               transform="scale(0.26458333)"
               id="path5859"
               inkscape:connector-curvature="0"
               sodipodi:nodetypes="ccccccc" />
            <path
               style="opacity:1;fill:#c7b199;fill-opacity:1;stroke:none;stroke-width:3.83081412"
               d="m 164.72656,227.88672 c 22.63237,23.51673 35.28016,54.88315 35.29102,87.52148 -3.7e-4,69.74058 -56.53676,126.2761 -126.277346,126.27539 C 46.584808,441.6288 29.819291,436.09713 7.3072443,423.63205 31.10517,448.38132 55.063802,455.30929 89.398438,455.32031 159.13826,455.31994 215.67346,398.78474 215.67383,329.04492 215.61418,289.1732 196.72699,251.6718 164.72656,227.88672 Z"
               id="path5877"
               transform="scale(0.26458333)"
               inkscape:connector-curvature="0"
               sodipodi:nodetypes="ccccccc" />
          </g>
          <g
             transform="matrix(0.6133706,0,0,0.6133706,-77.465707,37.146002)"
             id="g5988">
            <path
               sodipodi:type="star"
               style="opacity:1;fill:#ff7f2a;fill-opacity:1;stroke:none;stroke-width:0.25"
               id="path5968"
               sodipodi:sides="10"
               sodipodi:cx="-216.85294"
               sodipodi:cy="82.596527"
               sodipodi:r1="36.739597"
               sodipodi:r2="18.369799"
               sodipodi:arg1="0.63938591"
               sodipodi:arg2="0.95354517"
               inkscape:flatsided="false"
               inkscape:rounded="0"
               inkscape:randomized="0"
               d="m -187.37079,104.51915 -18.84978,-6.942556 0.3334,20.084876 -11.16907,-16.69627 -11.53586,16.44497 0.77785,-20.072571 -18.99882,6.523651 12.42766,-15.781842 -19.20487,-5.889484 19.33052,-5.46298 -12.07532,-16.053036 18.84978,6.942552 -0.3334,-20.084874 11.16907,16.696267 11.53586,-16.444972 -0.77786,20.072574 18.99883,-6.52365 -12.42767,15.781841 19.20488,5.889484 -19.33052,5.46298 z"
               inkscape:transform-center-x="-6.495238e-006" />
            <circle
               style="opacity:1;fill:#ffd42a;fill-opacity:1;stroke:none;stroke-width:0.29104477"
               id="path5901-1"
               cx="-216.85294"
               cy="82.596527"
               r="20.847023" />
            <path
               style="opacity:1;fill:#d4aa00;fill-opacity:1;stroke:none;stroke-width:0.29104477"
               d="m -199.32047,70.763637 a 22.717911,22.717911 0 0 1 1.36839,7.704442 22.717911,22.717911 0 0 1 -22.71748,22.717991 22.717911,22.717911 0 0 1 -8.22999,-1.567861 20.847023,20.847023 0 0 0 12.95735,4.542871 20.847023,20.847023 0 0 0 20.84679,-20.846787 20.847023,20.847023 0 0 0 -4.22506,-12.550656 z"
               id="path5901"
               inkscape:connector-curvature="0" />
          </g>
        </g>
      </g>
      <path
         sodipodi:nodetypes="cccccc"
         inkscape:connector-curvature="0"
         id="path5937"
         d="m -472.94766,160.12362 c -1.24324,8.34656 -6.17169,11.37004 -11.90625,13.22916 l 0.94494,9.07143 c 5.63811,0.92126 10.1735,0.46414 13.79613,-1.13393 l -0.18898,-20.97768 z"
         style="fill:#dfb28b;fill-opacity:1;stroke:none;stroke-width:0.26458332px;stroke-linecap:butt;stroke-linejoin:miter;stroke-opacity:1" />
    </g>
    <g
       id="g5254"
       transform="translate(3.0238096,0.22678546)">
      <path
         sodipodi:nodetypes="ccccssc"
         inkscape:connector-curvature="0"
         id="path4535"
         d="m 163.47438,37.225351 c -5.49462,33.130518 -30.69683,44.864084 -52.32872,50.571595 -4.81216,1.240261 -15.048319,31.353234 -15.048319,31.353234 0,0 -9.78063,-27.653934 -14.851387,-27.653934 -45.413495,0 -82.22840688,-24.297907 -82.22840688,-54.270895 -5.4e-7,-29.9729878 36.81491188,-54.270895 82.22840688,-54.270896 45.413506,0 82.228426,24.2979082 82.228426,54.270896 z"
         style="opacity:1;fill:#ffffff;fill-opacity:1;stroke:#000000;stroke-width:0.89709729" />
      <g
         aria-label="Aqui você pode
fazer novamente, as
atividades já terminadas
para reforçar o seu
aprendizado."
         style="font-style:normal;font-variant:normal;font-weight:normal;font-stretch:normal;font-size:11.94814014px;line-height:1.25;font-family:Calligraffitti;-inkscape-font-specification:Calligraffitti;letter-spacing:0px;word-spacing:0px;fill:#000000;fill-opacity:1;stroke:none;stroke-width:0.32003948"
         id="text6080-5">
        <path
           d="M 43.282509,3.4041843 H 40.442158 L 39.528712,5.851153 h 1.653537 V 6.191195 H 37.94185 V 5.851153 h 1.233485 l 3.260403,-8.8077538 H 42.64243 L 45.769482,5.851153 H 46.96963 V 6.191195 H 42.709105 V 5.851153 H 44.15595 Z M 40.56884,3.0641424 h 2.593654 l -1.260156,-3.58044198 h -0.02667 z"
           style="font-style:normal;font-variant:normal;font-weight:normal;font-stretch:normal;font-size:13.65501881px;font-family:'Bodoni MT';-inkscape-font-specification:'Bodoni MT';text-align:center;text-anchor:middle;stroke-width:0.32003948"
           id="path4560" />
        <path
           d="m 52.050258,5.3177539 h -0.02667 q -0.553402,0.953451 -1.560193,0.953451 -0.960118,0 -1.746882,-0.8401037 -0.780096,-0.8467712 -0.780096,-2.0002469 0,-1.0801333 0.713421,-1.8602296 0.720089,-0.7867638 1.666873,-0.7867638 1.153475,0 1.706877,1.1334732 h 0.02667 V 0.86387078 q 0.793431,0.0866774 1.526855,0.0866774 h 0.753426 V 1.2905901 h -0.986788 v 8.0143226 h 0.906778 V 9.6849596 H 50.970125 V 9.3049127 h 1.080133 z m 0,-1.7335473 q 0,-0.8067663 -0.126682,-1.2201506 Q 51.803561,1.9440041 51.410179,1.5172848 51.023464,1.0838979 50.37005,1.0838979 q -0.320039,0 -0.573404,0.2133597 -0.246697,0.2133597 -0.306704,0.6734165 -0.06001,0.4600567 -0.06001,1.6135325 0,1.4601802 0.233363,1.9269045 0.233362,0.4600568 0.773428,0.4600568 0.5334,0 0.960119,-0.3200396 0.426719,-0.3267069 0.540067,-0.7734288 0.113347,-0.4467218 0.113347,-1.2934929 z"
           style="font-style:normal;font-variant:normal;font-weight:normal;font-stretch:normal;font-size:13.65501881px;font-family:'Bodoni MT';-inkscape-font-specification:'Bodoni MT';text-align:center;text-anchor:middle;stroke-width:0.32003948"
           id="path4562" />
        <path
           d="M 60.791337,0.95054814 V 5.851153 h 0.900111 v 0.340042 h -0.900111 q -1.040129,0 -1.313496,0.08001 V 5.0310518 h -0.02667 q -0.600074,1.2401531 -1.886899,1.2401531 -0.740092,0 -1.193481,-0.3867144 -0.446722,-0.3933819 -0.446722,-1.64687 V 1.2905901 H 54.957283 V 0.95054814 H 57.22423 V 4.4709827 q 0,0.8267687 0.100012,1.1468082 0.100013,0.313372 0.513397,0.313372 0.613409,0 1.133473,-0.653414 0.520064,-0.6600814 0.520064,-1.9802444 V 1.2905901 H 58.424378 V 0.95054814 Z"
           style="font-style:normal;font-variant:normal;font-weight:normal;font-stretch:normal;font-size:13.65501881px;font-family:'Bodoni MT';-inkscape-font-specification:'Bodoni MT';text-align:center;text-anchor:middle;stroke-width:0.32003948"
           id="path4564" />
        <path
           d="m 63.324984,-1.7164477 q 0,-0.2933696 0.213359,-0.5067292 0.220028,-0.2133597 0.513397,-0.2133597 0.29337,0 0.506729,0.2133597 0.220028,0.2066922 0.220028,0.5067292 0,0.313372 -0.21336,0.5200642 -0.21336,0.20669216 -0.513397,0.20669216 -0.300037,0 -0.513397,-0.20669216 -0.213359,-0.2133597 -0.213359,-0.5200642 z m 1.340165,2.5669835 V 5.851153 H 65.53859 V 6.191195 H 62.438208 V 5.851153 h 0.933448 V 1.2905901 H 62.438208 V 0.95054814 h 0.946783 q 0.680084,0 1.280158,-0.10001234 z"
           style="font-style:normal;font-variant:normal;font-weight:normal;font-stretch:normal;font-size:13.65501881px;font-family:'Bodoni MT';-inkscape-font-specification:'Bodoni MT';text-align:center;text-anchor:middle;stroke-width:0.32003948"
           id="path4566" />
        <path
           d="M 75.473148,1.2905901 72.94617,6.3978872 H 72.772815 L 70.205831,1.2905901 H 69.399065 V 0.95054814 h 3.273738 V 1.2905901 h -1.006791 l 1.746882,3.5471045 1.720212,-3.5471045 H 74.126315 V 0.95054814 h 2.166934 V 1.2905901 Z"
           style="font-style:normal;font-variant:normal;font-weight:normal;font-stretch:normal;font-size:13.65501881px;font-family:'Bodoni MT';-inkscape-font-specification:'Bodoni MT';text-align:center;text-anchor:middle;stroke-width:0.32003948"
           id="path4568" />
        <path
           d="m 76.646625,3.5575366 q 0,-1.1534757 0.793432,-1.960242 0.793431,-0.8134337 1.966909,-0.8134337 1.146808,0 1.94024,0.7800963 0.800098,0.7734288 0.800098,1.9402395 0,1.1934806 -0.826768,2.0269168 -0.826769,0.8267688 -1.953575,0.8267688 -1.106803,0 -1.913569,-0.8067663 -0.806767,-0.8134337 -0.806767,-1.9935794 z m 4.000494,0 q 0,-1.2268181 -0.08668,-1.6202 -0.08001,-0.3933819 -0.373379,-0.6200765 -0.286703,-0.2333622 -0.793432,-0.2333622 -0.480059,0 -0.793431,0.2400297 -0.306705,0.2333621 -0.380047,0.626744 -0.07334,0.3933819 -0.07334,1.6202 0,1.2334856 0.08668,1.6335349 0.09334,0.4000494 0.393382,0.6267441 0.306704,0.2266946 0.766761,0.2266946 0.466725,0 0.773429,-0.2266946 0.313372,-0.2333622 0.393382,-0.640079 0.08668,-0.4133844 0.08668,-1.633535 z"
           style="font-style:normal;font-variant:normal;font-weight:normal;font-stretch:normal;font-size:13.65501881px;font-family:'Bodoni MT';-inkscape-font-specification:'Bodoni MT';text-align:center;text-anchor:middle;stroke-width:0.32003948"
           id="path4570" />
        <path
           d="m 87.914684,4.3776378 h 0.286702 q -0.200025,0.966786 -0.786764,1.4735152 -0.586739,0.5067293 -1.413508,0.5067293 -1.126805,0 -1.906902,-0.8334363 -0.780096,-0.8401037 -0.780096,-1.9269045 0,-1.1201382 0.800099,-1.9669094 0.800099,-0.8467712 1.986912,-0.8467712 0.846771,0 1.38017,0.4333868 0.533399,0.4267194 0.533399,0.9601185 0,0.2666996 -0.18669,0.4800593 -0.180022,0.2133597 -0.473391,0.2133597 -0.286702,0 -0.48006,-0.1800223 -0.186689,-0.1800222 -0.186689,-0.4733917 0,-0.2066922 0.16002,-0.4067169 0.166687,-0.2000247 0.166687,-0.2733671 0,-0.1800222 -0.246697,-0.313372 -0.246697,-0.1400173 -0.640079,-0.1400173 -0.693419,0 -1.033461,0.3733795 -0.333375,0.3733794 -0.333375,1.580195 0,1.2068156 0.06001,1.7868872 0.06667,0.5734041 0.340042,0.9067786 0.273367,0.326707 0.900111,0.326707 1.320163,0 1.853562,-1.6802074 z"
           style="font-style:normal;font-variant:normal;font-weight:normal;font-stretch:normal;font-size:13.65501881px;font-family:'Bodoni MT';-inkscape-font-specification:'Bodoni MT';text-align:center;text-anchor:middle;stroke-width:0.32003948"
           id="path4572" />
        <path
           d="m 93.962097,3.1708222 h -3.37375 q -0.04667,1.9735769 0.220028,2.4336337 0.266699,0.4533893 0.953451,0.4533893 1.413507,0 1.913569,-1.6402024 h 0.286702 q -0.220027,0.9934559 -0.833436,1.4668477 -0.613409,0.4733918 -1.366835,0.4733918 -1.073466,0 -1.866898,-0.7934313 -0.793431,-0.8000988 -0.793431,-2.0069144 0,-1.1734782 0.773429,-1.9735769 0.780096,-0.8000988 1.80689,-0.8000988 0.893443,0 1.560192,0.6334115 0.673417,0.6334115 0.720089,1.7535498 z m -3.37375,-0.300037 h 1.94024 q 0.05334,-0.4733918 0.05334,-0.7200889 0,-1.0667984 -0.966786,-1.0667984 -0.480059,0 -0.753427,0.2600321 -0.273367,0.2533646 -0.273367,0.693419 z m -0.893443,-3.04037532 1.553525,-2.25361148 h 0.506729 l 1.553525,2.25361148 h -0.366712 l -1.43351,-1.26015558 -1.446845,1.26015558 z"
           style="font-style:normal;font-variant:normal;font-weight:normal;font-stretch:normal;font-size:13.65501881px;font-family:'Bodoni MT';-inkscape-font-specification:'Bodoni MT';text-align:center;text-anchor:middle;stroke-width:0.32003948"
           id="path4574" />
        <path
           d="m 100.42956,5.3177539 v 3.9871588 h 1.08014 V 9.6849596 H 98.23596 V 9.3049127 h 0.900111 V 1.2905901 H 98.149282 V 0.95054814 h 0.753427 q 0.826769,0 1.526851,-0.0866774 V 1.9173341 h 0.0267 q 0.55341,-1.1334732 1.70688,-1.1334732 0.94678,0 1.66021,0.7867638 0.72009,0.7800963 0.72009,1.8602296 0,1.1534757 -0.78677,2.0002469 -0.78009,0.8401037 -1.74021,0.8401037 -1.00679,0 -1.5602,-0.953451 z m 2.62699,-1.7335473 q 0,-1.2468206 -0.0733,-1.6668725 -0.0667,-0.4267193 -0.32004,-0.626744 -0.24669,-0.2066922 -0.5534,-0.2066922 -0.65341,0 -1.04679,0.4333869 -0.39339,0.4333868 -0.5134,0.8467712 -0.12002,0.4133843 -0.12002,1.2201506 0,0.8467711 0.11335,1.2934929 0.11335,0.4467219 0.54007,0.7734288 0.43338,0.3200396 0.96012,0.3200396 0.54673,0 0.78009,-0.4600568 0.23336,-0.4667243 0.23336,-1.9269045 z"
           style="font-style:normal;font-variant:normal;font-weight:normal;font-stretch:normal;font-size:13.65501881px;font-family:'Bodoni MT';-inkscape-font-specification:'Bodoni MT';text-align:center;text-anchor:middle;stroke-width:0.32003948"
           id="path4576" />
        <path
           d="m 105.79689,3.5575366 q 0,-1.1534757 0.79344,-1.960242 0.79343,-0.8134337 1.9669,-0.8134337 1.14681,0 1.94024,0.7800963 0.8001,0.7734288 0.8001,1.9402395 0,1.1934806 -0.82677,2.0269168 -0.82676,0.8267688 -1.95357,0.8267688 -1.1068,0 -1.91357,-0.8067663 -0.80677,-0.8134337 -0.80677,-1.9935794 z m 4.0005,0 q 0,-1.2268181 -0.0867,-1.6202 -0.08,-0.3933819 -0.37338,-0.6200765 -0.2867,-0.2333622 -0.79343,-0.2333622 -0.48006,0 -0.79343,0.2400297 -0.30671,0.2333621 -0.38005,0.626744 -0.0733,0.3933819 -0.0733,1.6202 0,1.2334856 0.0867,1.6335349 0.0933,0.4000494 0.39338,0.6267441 0.3067,0.2266946 0.76676,0.2266946 0.46672,0 0.77343,-0.2266946 0.31337,-0.2333622 0.39338,-0.640079 0.0867,-0.4133844 0.0867,-1.633535 z"
           style="font-style:normal;font-variant:normal;font-weight:normal;font-stretch:normal;font-size:13.65501881px;font-family:'Bodoni MT';-inkscape-font-specification:'Bodoni MT';text-align:center;text-anchor:middle;stroke-width:0.32003948"
           id="path4578" />
        <path
           d="m 117.91172,-2.849921 v 8.701074 h 0.90011 v 0.340042 h -0.74675 q -0.70676,0 -1.49352,0.08001 V 5.1777366 h -0.0267 q -0.5334,1.1801457 -1.70688,1.1801457 -0.94012,0 -1.6602,-0.8334363 -0.71343,-0.8401037 -0.71343,-1.9002345 0,-1.1334732 0.75343,-1.9869119 0.76009,-0.8534387 1.78689,-0.8534387 1.04679,0 1.54019,0.940116 h 0.0267 v -4.1338435 h -1.21348 v -0.340042 h 1.21348 q 0.67341,0 1.34016,-0.1000124 z m -2.86702,3.9338189 q -0.72675,0 -0.91344,0.5467342 -0.18003,0.5400667 -0.18003,2.2002716 0,1.4335102 0.23337,1.8068897 0.23336,0.3733794 0.75342,0.3733794 0.56007,0 0.98679,-0.3800469 0.42672,-0.3800469 0.56007,-0.8667737 0.13335,-0.4867267 0.13335,-1.580195 0,-1.0401284 -0.42005,-1.5668601 -0.42005,-0.5333992 -1.15348,-0.5333992 z"
           style="font-style:normal;font-variant:normal;font-weight:normal;font-stretch:normal;font-size:13.65501881px;font-family:'Bodoni MT';-inkscape-font-specification:'Bodoni MT';text-align:center;text-anchor:middle;stroke-width:0.32003948"
           id="path4580" />
        <path
           d="m 124.52587,3.1708222 h -3.37375 q -0.0467,1.9735769 0.22003,2.4336337 0.2667,0.4533893 0.95345,0.4533893 1.41351,0 1.91357,-1.6402024 h 0.2867 q -0.22003,0.9934559 -0.83343,1.4668477 -0.61341,0.4733918 -1.36684,0.4733918 -1.07347,0 -1.8669,-0.7934313 -0.79343,-0.8000988 -0.79343,-2.0069144 0,-1.1734782 0.77343,-1.9735769 0.7801,-0.8000988 1.80689,-0.8000988 0.89344,0 1.56019,0.6334115 0.67342,0.6334115 0.72009,1.7535498 z m -3.37375,-0.300037 h 1.94024 q 0.0533,-0.4733918 0.0533,-0.7200889 0,-1.0667984 -0.96679,-1.0667984 -0.48005,0 -0.75342,0.2600321 -0.27337,0.2533646 -0.27337,0.693419 z"
           style="font-style:normal;font-variant:normal;font-weight:normal;font-stretch:normal;font-size:13.65501881px;font-family:'Bodoni MT';-inkscape-font-specification:'Bodoni MT';text-align:center;text-anchor:middle;stroke-width:0.32003948"
           id="path4582" />
        <path
           d="m 26.313748,22.996471 v -4.560563 h -1.106804 v -0.340042 h 1.106804 q -0.05334,-1.766884 0.726756,-2.780343 0.786764,-1.020126 1.866897,-1.020126 0.520064,0 0.900111,0.300037 0.386715,0.300037 0.386715,0.726757 0,0.293369 -0.18669,0.493394 -0.180022,0.200025 -0.460057,0.200025 -0.24003,0 -0.413384,-0.166688 -0.173355,-0.166687 -0.173355,-0.420052 0,-0.393381 0.440054,-0.653414 -0.200024,-0.180022 -0.586739,-0.180022 -0.373379,0 -0.706754,0.226695 -0.333374,0.226695 -0.406717,0.686751 -0.07334,0.45339 -0.07334,1.466848 v 1.120138 h 1.240153 v 0.340042 h -1.240153 v 4.560563 h 1.120138 v 0.340042 h -3.427089 v -0.340042 z"
           style="font-style:normal;font-variant:normal;font-weight:normal;font-stretch:normal;font-size:13.65501881px;font-family:'Bodoni MT';-inkscape-font-specification:'Bodoni MT';text-align:center;text-anchor:middle;stroke-width:0.32003948"
           id="path4584" />
        <path
           d="m 33.334614,20.34281 v -0.680084 q 0,-0.833436 -0.140017,-1.093468 -0.13335,-0.260032 -0.733424,-0.260032 -1.080133,0 -1.080133,0.413384 0,0.120015 0.08668,0.2667 0.09334,0.140017 0.09334,0.333374 0,0.273367 -0.180022,0.420052 -0.180022,0.140018 -0.406717,0.140018 -0.29337,0 -0.453389,-0.180023 -0.16002,-0.186689 -0.16002,-0.433387 0,-0.533399 0.620076,-0.893443 0.626744,-0.366712 1.740215,-0.366712 0.893444,0 1.306828,0.206692 0.413384,0.206692 0.506729,0.513397 0.100013,0.306704 0.100013,0.866773 v 2.453637 q 0,0.540066 0.07334,0.673416 0.08001,0.13335 0.24003,0.13335 0.240029,0 0.466724,-0.326707 h 0.16002 q -0.173355,0.973453 -1.133474,0.973453 -0.926781,0 -1.106803,-1.066798 -0.780096,1.066798 -1.826892,1.066798 -0.693419,0 -1.106803,-0.373379 -0.413385,-0.380047 -0.413385,-0.926781 0,-1.70021 3.34708,-1.86023 z m 0,1.026794 v -0.720089 q -1.233485,0.04667 -1.626867,0.373379 -0.393382,0.32004 -0.393382,0.933449 0,0.446722 0.233362,0.693419 0.24003,0.246697 0.546734,0.246697 0.393382,0 0.706754,-0.260032 0.32004,-0.2667 0.426719,-0.533399 0.10668,-0.2667 0.10668,-0.733424 z"
           style="font-style:normal;font-variant:normal;font-weight:normal;font-stretch:normal;font-size:13.65501881px;font-family:'Bodoni MT';-inkscape-font-specification:'Bodoni MT';text-align:center;text-anchor:middle;stroke-width:0.32003948"
           id="path4586" />
        <path
           d="m 36.768371,20.182791 v -2.086925 h 4.473885 v 0.286702 l -3.207062,4.653908 h 0.913446 q 0.826769,0 1.30016,-0.373379 0.48006,-0.380047 0.740092,-1.56686 h 0.253364 v 2.240276 h -4.680577 v -0.340042 l 3.193727,-4.600568 H 38.84196 q -0.446722,0 -0.760094,0.09334 -0.313372,0.08668 -0.606741,0.480059 -0.29337,0.386715 -0.433387,1.213484 z"
           style="font-style:normal;font-variant:normal;font-weight:normal;font-stretch:normal;font-size:13.65501881px;font-family:'Bodoni MT';-inkscape-font-specification:'Bodoni MT';text-align:center;text-anchor:middle;stroke-width:0.32003948"
           id="path4588" />
        <path
           d="m 47.476361,20.31614 h -3.37375 q -0.04667,1.973577 0.220027,2.433634 0.2667,0.453389 0.953451,0.453389 1.413508,0 1.913569,-1.640202 h 0.286703 q -0.220028,0.993456 -0.833437,1.466848 -0.613409,0.473391 -1.366835,0.473391 -1.073466,0 -1.866897,-0.793431 -0.793431,-0.800099 -0.793431,-2.006914 0,-1.173478 0.773428,-1.973577 0.780097,-0.800099 1.80689,-0.800099 0.893444,0 1.560193,0.633412 0.673416,0.633411 0.720089,1.753549 z m -3.37375,-0.300037 h 1.940239 q 0.05334,-0.473391 0.05334,-0.720089 0,-1.066798 -0.966786,-1.066798 -0.480059,0 -0.753426,0.260032 -0.273367,0.253365 -0.273367,0.693419 z"
           style="font-style:normal;font-variant:normal;font-weight:normal;font-stretch:normal;font-size:13.65501881px;font-family:'Bodoni MT';-inkscape-font-specification:'Bodoni MT';text-align:center;text-anchor:middle;stroke-width:0.32003948"
           id="path4590" />
        <path
           d="M 49.276583,22.996471 V 18.435908 H 48.19645 v -0.340042 h 1.093468 q 0.840104,0 1.280158,-0.08668 v 1.260155 h 0.02667 q 0.466724,-1.260155 1.38017,-1.260155 0.40005,0 0.640079,0.246697 0.246697,0.24003 0.246697,0.586739 0,0.32004 -0.200024,0.520064 -0.193358,0.193358 -0.50673,0.193358 -0.573404,0 -0.573404,-0.573405 l 0.02667,-0.286702 q 0,-0.153352 -0.140017,-0.153352 -0.220027,0 -0.560069,0.593407 -0.340042,0.593406 -0.340042,1.813557 v 2.046919 h 1.106803 v 0.340042 H 48.19645 v -0.340042 z"
           style="font-style:normal;font-variant:normal;font-weight:normal;font-stretch:normal;font-size:13.65501881px;font-family:'Bodoni MT';-inkscape-font-specification:'Bodoni MT';text-align:center;text-anchor:middle;stroke-width:0.32003948"
           id="path4592" />
        <path
           d="m 57.770965,22.996471 v -4.560563 h -0.946784 v -0.340042 h 0.606742 q 0.900111,0 1.633535,-0.100012 v 1.30016 h 0.02667 q 0.686751,-1.366835 1.940239,-1.366835 0.586739,0 0.960119,0.300037 0.380046,0.300037 0.513396,0.706754 0.140018,0.406717 0.140018,1.260156 v 2.800345 h 1.040128 v 0.340042 h -3.227065 v -0.340042 h 0.886776 v -3.333745 q 0,-0.766761 -0.100012,-1.06013 -0.09334,-0.29337 -0.500062,-0.29337 -0.646747,0 -1.166811,0.666749 -0.513396,0.660081 -0.513396,1.78022 v 2.240276 h 0.873441 v 0.340042 h -3.113718 v -0.340042 z"
           style="font-style:normal;font-variant:normal;font-weight:normal;font-stretch:normal;font-size:13.65501881px;font-family:'Bodoni MT';-inkscape-font-specification:'Bodoni MT';text-align:center;text-anchor:middle;stroke-width:0.32003948"
           id="path4594" />
        <path
           d="m 64.431786,20.702855 q 0,-1.153476 0.793431,-1.960242 0.793431,-0.813434 1.966909,-0.813434 1.146809,0 1.94024,0.780096 0.800099,0.773429 0.800099,1.94024 0,1.19348 -0.826769,2.026917 -0.826769,0.826768 -1.953574,0.826768 -1.106804,0 -1.91357,-0.806766 Q 64.431786,21.883 64.431786,20.702855 Z m 4.000494,0 q 0,-1.226818 -0.08668,-1.6202 -0.08001,-0.393382 -0.373379,-0.620077 -0.286702,-0.233362 -0.793431,-0.233362 -0.48006,0 -0.793432,0.24003 -0.306704,0.233362 -0.380047,0.626744 -0.07334,0.393382 -0.07334,1.6202 0,1.233485 0.08668,1.633535 0.09334,0.400049 0.393382,0.626744 0.306705,0.226694 0.766762,0.226694 0.466724,0 0.773428,-0.226694 0.313372,-0.233362 0.393382,-0.640079 0.08668,-0.413385 0.08668,-1.633535 z"
           style="font-style:normal;font-variant:normal;font-weight:normal;font-stretch:normal;font-size:13.65501881px;font-family:'Bodoni MT';-inkscape-font-specification:'Bodoni MT';text-align:center;text-anchor:middle;stroke-width:0.32003948"
           id="path4596" />
        <path
           d="m 76.219908,18.435908 -2.526979,5.107297 h -0.173354 l -2.566984,-5.107297 h -0.806766 v -0.340042 h 3.273737 v 0.340042 h -1.006791 l 1.746883,3.547105 1.720212,-3.547105 h -1.006791 v -0.340042 h 2.166934 v 0.340042 z"
           style="font-style:normal;font-variant:normal;font-weight:normal;font-stretch:normal;font-size:13.65501881px;font-family:'Bodoni MT';-inkscape-font-specification:'Bodoni MT';text-align:center;text-anchor:middle;stroke-width:0.32003948"
           id="path4598" />
        <path
           d="m 80.833812,20.34281 v -0.680084 q 0,-0.833436 -0.140018,-1.093468 -0.133349,-0.260032 -0.733423,-0.260032 -1.080134,0 -1.080134,0.413384 0,0.120015 0.08668,0.2667 0.09334,0.140017 0.09334,0.333374 0,0.273367 -0.180022,0.420052 -0.180022,0.140018 -0.406717,0.140018 -0.293369,0 -0.453389,-0.180023 -0.16002,-0.186689 -0.16002,-0.433387 0,-0.533399 0.620077,-0.893443 0.626744,-0.366712 1.740215,-0.366712 0.893443,0 1.306828,0.206692 0.413384,0.206692 0.506729,0.513397 0.100012,0.306704 0.100012,0.866773 v 2.453637 q 0,0.540066 0.07334,0.673416 0.08001,0.13335 0.240029,0.13335 0.24003,0 0.466724,-0.326707 h 0.16002 q -0.173355,0.973453 -1.133473,0.973453 -0.926781,0 -1.106803,-1.066798 -0.780097,1.066798 -1.826892,1.066798 -0.693419,0 -1.106804,-0.373379 -0.413384,-0.380047 -0.413384,-0.926781 0,-1.70021 3.34708,-1.86023 z m 0,1.026794 v -0.720089 q -1.233486,0.04667 -1.626868,0.373379 -0.393382,0.32004 -0.393382,0.933449 0,0.446722 0.233362,0.693419 0.24003,0.246697 0.546735,0.246697 0.393382,0 0.706754,-0.260032 0.320039,-0.2667 0.426719,-0.533399 0.10668,-0.2667 0.10668,-0.733424 z"
           style="font-style:normal;font-variant:normal;font-weight:normal;font-stretch:normal;font-size:13.65501881px;font-family:'Bodoni MT';-inkscape-font-specification:'Bodoni MT';text-align:center;text-anchor:middle;stroke-width:0.32003948"
           id="path4600" />
        <path
           d="m 84.92098,22.996471 v -4.560563 h -0.940116 v -0.340042 h 0.586739 q 1.040128,0 1.653537,-0.08668 v 1.286825 h 0.02667 q 0.526732,-1.286825 1.880232,-1.286825 1.473516,0 1.626868,1.366835 h 0.02667 q 0.580071,-1.366835 1.926904,-1.366835 0.600074,0 1.006791,0.300037 0.413385,0.300037 0.50673,0.693419 0.100012,0.393382 0.100012,1.30016 v 2.693666 h 0.926781 v 0.340042 h -3.100383 v -0.340042 h 0.873441 v -3.29374 q 0,-0.780096 -0.09334,-1.073466 -0.08668,-0.293369 -0.48006,-0.293369 -0.540066,0 -1.113471,0.613409 -0.566736,0.606742 -0.566736,2.313619 v 1.733547 h 0.860106 v 0.340042 h -3.020373 v -0.340042 h 0.866774 v -2.580318 q 0,-1.506853 -0.113347,-1.793555 -0.10668,-0.286702 -0.520065,-0.286702 -0.566736,0 -0.993456,0.500062 -0.420051,0.500061 -0.526731,0.973453 -0.100013,0.473392 -0.100013,1.506853 v 1.680207 h 0.860107 v 0.340042 h -3.100383 v -0.340042 z"
           style="font-style:normal;font-variant:normal;font-weight:normal;font-stretch:normal;font-size:13.65501881px;font-family:'Bodoni MT';-inkscape-font-specification:'Bodoni MT';text-align:center;text-anchor:middle;stroke-width:0.32003948"
           id="path4602" />
        <path
           d="m 99.962837,20.31614 h -3.373749 q -0.04667,1.973577 0.220027,2.433634 0.266699,0.453389 0.953451,0.453389 1.413508,0 1.913569,-1.640202 h 0.286702 q -0.220027,0.993456 -0.833436,1.466848 -0.613409,0.473391 -1.366835,0.473391 -1.073466,0 -1.866897,-0.793431 -0.793432,-0.800099 -0.793432,-2.006914 0,-1.173478 0.773429,-1.973577 0.780097,-0.800099 1.80689,-0.800099 0.893444,0 1.560193,0.633412 0.673416,0.633411 0.720088,1.753549 z m -3.373749,-0.300037 h 1.940239 q 0.05334,-0.473391 0.05334,-0.720089 0,-1.066798 -0.966786,-1.066798 -0.480059,0 -0.753426,0.260032 -0.273367,0.253365 -0.273367,0.693419 z"
           style="font-style:normal;font-variant:normal;font-weight:normal;font-stretch:normal;font-size:13.65501881px;font-family:'Bodoni MT';-inkscape-font-specification:'Bodoni MT';text-align:center;text-anchor:middle;stroke-width:0.32003948"
           id="path4604" />
        <path
           d="m 101.77639,22.996471 v -4.560563 h -0.94678 v -0.340042 h 0.60674 q 0.90011,0 1.63354,-0.100012 v 1.30016 h 0.0267 q 0.68675,-1.366835 1.94024,-1.366835 0.58674,0 0.96012,0.300037 0.38004,0.300037 0.51339,0.706754 0.14002,0.406717 0.14002,1.260156 v 2.800345 h 1.04013 v 0.340042 h -3.22707 v -0.340042 h 0.88678 v -3.333745 q 0,-0.766761 -0.10001,-1.06013 -0.0934,-0.29337 -0.50006,-0.29337 -0.64675,0 -1.16682,0.666749 -0.51339,0.660081 -0.51339,1.78022 v 2.240276 h 0.87344 v 0.340042 h -3.11372 v -0.340042 z"
           style="font-style:normal;font-variant:normal;font-weight:normal;font-stretch:normal;font-size:13.65501881px;font-family:'Bodoni MT';-inkscape-font-specification:'Bodoni MT';text-align:center;text-anchor:middle;stroke-width:0.32003948"
           id="path4606" />
        <path
           d="m 110.65082,16.575679 v 1.520187 h 1.5802 v 0.340042 h -1.5802 v 3.300408 q 0,0.726756 0.0934,0.993456 0.10001,0.266699 0.52006,0.266699 0.32004,0 0.61341,-0.213359 0.30004,-0.21336 0.45339,-0.660082 h 0.2867 q -0.3067,1.293493 -1.86023,1.293493 -0.65341,0 -0.96012,-0.233362 -0.3067,-0.24003 -0.38004,-0.586739 -0.0667,-0.34671 -0.0667,-0.940116 v -3.220398 h -1.18681 v -0.340042 h 1.18681 v -1.40684 q 0.66008,0 1.30016,-0.113347 z"
           style="font-style:normal;font-variant:normal;font-weight:normal;font-stretch:normal;font-size:13.65501881px;font-family:'Bodoni MT';-inkscape-font-specification:'Bodoni MT';text-align:center;text-anchor:middle;stroke-width:0.32003948"
           id="path4608" />
        <path
           d="m 118.33844,20.31614 h -3.37375 q -0.0467,1.973577 0.22003,2.433634 0.2667,0.453389 0.95345,0.453389 1.41351,0 1.91357,-1.640202 h 0.2867 q -0.22003,0.993456 -0.83344,1.466848 -0.61341,0.473391 -1.36683,0.473391 -1.07347,0 -1.8669,-0.793431 -0.79343,-0.800099 -0.79343,-2.006914 0,-1.173478 0.77343,-1.973577 0.7801,-0.800099 1.80689,-0.800099 0.89344,0 1.56019,0.633412 0.67342,0.633411 0.72009,1.753549 z m -3.37375,-0.300037 h 1.94024 q 0.0533,-0.473391 0.0533,-0.720089 0,-1.066798 -0.96679,-1.066798 -0.48006,0 -0.75342,0.260032 -0.27337,0.253365 -0.27337,0.693419 z"
           style="font-style:normal;font-variant:normal;font-weight:normal;font-stretch:normal;font-size:13.65501881px;font-family:'Bodoni MT';-inkscape-font-specification:'Bodoni MT';text-align:center;text-anchor:middle;stroke-width:0.32003948"
           id="path4610" />
        <path
           d="m 120.42536,25.510115 -0.20669,-0.220027 q 1.20015,-1.053464 1.20015,-1.91357 0,-0.586739 -0.26003,-0.586739 -0.10668,0 -0.18002,0.220027 -0.17336,0.520064 -0.68009,0.520064 -0.30003,0 -0.50673,-0.213359 -0.20002,-0.220027 -0.20002,-0.553402 0,-0.380047 0.28003,-0.626744 0.28004,-0.246697 0.68675,-0.246697 0.5134,0 0.88011,0.386714 0.36671,0.380047 0.36671,0.966786 0,1.100136 -1.38017,2.266947 z"
           style="font-style:normal;font-variant:normal;font-weight:normal;font-stretch:normal;font-size:13.65501881px;font-family:'Bodoni MT';-inkscape-font-specification:'Bodoni MT';text-align:center;text-anchor:middle;stroke-width:0.32003948"
           id="path4612" />
        <path
           d="m 129.90653,20.34281 v -0.680084 q 0,-0.833436 -0.14002,-1.093468 -0.13335,-0.260032 -0.73342,-0.260032 -1.08013,0 -1.08013,0.413384 0,0.120015 0.0867,0.2667 0.0934,0.140017 0.0934,0.333374 0,0.273367 -0.18002,0.420052 -0.18003,0.140018 -0.40672,0.140018 -0.29337,0 -0.45339,-0.180023 -0.16002,-0.186689 -0.16002,-0.433387 0,-0.533399 0.62008,-0.893443 0.62674,-0.366712 1.74021,-0.366712 0.89345,0 1.30683,0.206692 0.41338,0.206692 0.50673,0.513397 0.10001,0.306704 0.10001,0.866773 v 2.453637 q 0,0.540066 0.0733,0.673416 0.08,0.13335 0.24003,0.13335 0.24003,0 0.46673,-0.326707 h 0.16002 q -0.17336,0.973453 -1.13348,0.973453 -0.92678,0 -1.1068,-1.066798 -0.7801,1.066798 -1.82689,1.066798 -0.69342,0 -1.1068,-0.373379 -0.41339,-0.380047 -0.41339,-0.926781 0,-1.70021 3.34708,-1.86023 z m 0,1.026794 v -0.720089 q -1.23348,0.04667 -1.62687,0.373379 -0.39338,0.32004 -0.39338,0.933449 0,0.446722 0.23336,0.693419 0.24003,0.246697 0.54674,0.246697 0.39338,0 0.70675,-0.260032 0.32004,-0.2667 0.42672,-0.533399 0.10668,-0.2667 0.10668,-0.733424 z"
           style="font-style:normal;font-variant:normal;font-weight:normal;font-stretch:normal;font-size:13.65501881px;font-family:'Bodoni MT';-inkscape-font-specification:'Bodoni MT';text-align:center;text-anchor:middle;stroke-width:0.32003948"
           id="path4614" />
        <path
           d="m 136.72737,18.035859 v 1.493518 h -0.27336 q -0.30671,-1.300161 -1.49352,-1.300161 -0.5134,0 -0.86011,0.273367 -0.34004,0.2667 -0.34004,0.613409 0,0.29337 0.24003,0.466724 0.2467,0.166688 1.15348,0.286703 1.99358,0.246697 1.99358,1.813557 0,0.780096 -0.52007,1.30016 -0.5134,0.520064 -1.28016,0.520064 -0.75342,0 -1.46018,-0.620076 l -0.46672,0.400049 h -0.23336 v -1.966909 h 0.23336 q 0.5734,1.886899 1.9269,1.886899 0.5134,0 0.93345,-0.326707 0.42005,-0.326707 0.42005,-0.766761 0,-0.366712 -0.25336,-0.553402 -0.2467,-0.186689 -1.34683,-0.346709 -1.87357,-0.273367 -1.87357,-1.666872 0,-0.686752 0.50006,-1.146809 0.50673,-0.466724 1.23349,-0.466724 0.76676,0 1.28682,0.506729 0.13335,-0.140017 0.27337,-0.400049 z"
           style="font-style:normal;font-variant:normal;font-weight:normal;font-stretch:normal;font-size:13.65501881px;font-family:'Bodoni MT';-inkscape-font-specification:'Bodoni MT';text-align:center;text-anchor:middle;stroke-width:0.32003948"
           id="path4616" />
        <path
           d="m 15.105697,37.488128 v -0.680084 q 0,-0.833436 -0.140017,-1.093468 -0.13335,-0.260032 -0.733424,-0.260032 -1.080133,0 -1.080133,0.413384 0,0.120015 0.08668,0.2667 0.09335,0.140017 0.09335,0.333375 0,0.273367 -0.180022,0.420051 -0.180022,0.140018 -0.406717,0.140018 -0.293369,0 -0.453389,-0.180023 -0.16002,-0.186689 -0.16002,-0.433386 0,-0.5334 0.620077,-0.893444 0.626744,-0.366712 1.740214,-0.366712 0.893444,0 1.306828,0.206692 0.413385,0.206692 0.50673,0.513397 0.100012,0.306704 0.100012,0.866774 v 2.453636 q 0,0.540066 0.07334,0.673416 0.08001,0.13335 0.24003,0.13335 0.24003,0 0.466724,-0.326707 h 0.16002 q -0.173355,0.973454 -1.133473,0.973454 -0.926781,0 -1.106804,-1.066799 -0.780096,1.066799 -1.826892,1.066799 -0.693419,0 -1.106803,-0.37338 -0.413384,-0.380047 -0.413384,-0.926781 0,-1.70021 3.347079,-1.86023 z m 0,1.026794 v -0.720089 q -1.233485,0.04667 -1.626867,0.373379 -0.393382,0.32004 -0.393382,0.933449 0,0.446722 0.233362,0.693419 0.24003,0.246697 0.546734,0.246697 0.393382,0 0.706754,-0.260032 0.32004,-0.2667 0.42672,-0.533399 0.106679,-0.2667 0.106679,-0.733424 z"
           style="font-style:normal;font-variant:normal;font-weight:normal;font-stretch:normal;font-size:13.65501881px;font-family:'Bodoni MT';-inkscape-font-specification:'Bodoni MT';text-align:center;text-anchor:middle;stroke-width:0.32003948"
           id="path4618" />
        <path
           d="m 20.439689,33.720997 v 1.520187 h 1.580195 v 0.340042 h -1.580195 v 3.300408 q 0,0.726756 0.09334,0.993456 0.100012,0.266699 0.520064,0.266699 0.32004,0 0.613409,-0.213359 0.300037,-0.21336 0.453389,-0.660082 h 0.286702 q -0.306704,1.293493 -1.860229,1.293493 -0.653414,0 -0.960119,-0.233362 -0.306704,-0.24003 -0.380047,-0.586739 -0.06668,-0.34671 -0.06668,-0.940116 v -3.220398 h -1.186813 v -0.340042 h 1.186813 v -1.40684 q 0.660082,0 1.300161,-0.113347 z"
           style="font-style:normal;font-variant:normal;font-weight:normal;font-stretch:normal;font-size:13.65501881px;font-family:'Bodoni MT';-inkscape-font-specification:'Bodoni MT';text-align:center;text-anchor:middle;stroke-width:0.32003948"
           id="path4620" />
        <path
           d="m 24.000129,32.574189 q 0,-0.29337 0.21336,-0.50673 0.220027,-0.213359 0.513396,-0.213359 0.29337,0 0.50673,0.213359 0.220027,0.206693 0.220027,0.50673 0,0.313372 -0.21336,0.520064 -0.21336,0.206692 -0.513397,0.206692 -0.300037,0 -0.513396,-0.206692 -0.21336,-0.21336 -0.21336,-0.520064 z m 1.340165,2.566983 v 5.000617 h 0.873442 v 0.340042 h -3.100383 v -0.340042 h 0.933448 v -4.560563 h -0.933448 v -0.340042 h 0.946783 q 0.680084,0 1.280158,-0.100012 z"
           style="font-style:normal;font-variant:normal;font-weight:normal;font-stretch:normal;font-size:13.65501881px;font-family:'Bodoni MT';-inkscape-font-specification:'Bodoni MT';text-align:center;text-anchor:middle;stroke-width:0.32003948"
           id="path4622" />
        <path
           d="m 32.4145,35.581226 -2.526978,5.107297 h -0.173355 l -2.566984,-5.107297 h -0.806766 v -0.340042 h 3.273738 v 0.340042 h -1.006791 l 1.746882,3.547105 1.720212,-3.547105 h -1.006791 v -0.340042 h 2.166934 v 0.340042 z"
           style="font-style:normal;font-variant:normal;font-weight:normal;font-stretch:normal;font-size:13.65501881px;font-family:'Bodoni MT';-inkscape-font-specification:'Bodoni MT';text-align:center;text-anchor:middle;stroke-width:0.32003948"
           id="path4624" />
        <path
           d="m 34.748122,32.574189 q 0,-0.29337 0.21336,-0.50673 0.220027,-0.213359 0.513397,-0.213359 0.293369,0 0.506729,0.213359 0.220027,0.206693 0.220027,0.50673 0,0.313372 -0.213359,0.520064 -0.21336,0.206692 -0.513397,0.206692 -0.300037,0 -0.513397,-0.206692 -0.21336,-0.21336 -0.21336,-0.520064 z m 1.340166,2.566983 v 5.000617 h 0.873441 v 0.340042 h -3.100383 v -0.340042 h 0.933449 v -4.560563 h -0.933449 v -0.340042 h 0.946784 q 0.680084,0 1.280158,-0.100012 z"
           style="font-style:normal;font-variant:normal;font-weight:normal;font-stretch:normal;font-size:13.65501881px;font-family:'Bodoni MT';-inkscape-font-specification:'Bodoni MT';text-align:center;text-anchor:middle;stroke-width:0.32003948"
           id="path4626" />
        <path
           d="m 43.2225,31.440715 v 8.701074 h 0.900112 v 0.340042 h -0.746759 q -0.706754,0 -1.493518,0.08001 v -1.093468 h -0.02667 q -0.533399,1.180146 -1.706877,1.180146 -0.940116,0 -1.660205,-0.833437 -0.713422,-0.840103 -0.713422,-1.900234 0,-1.133473 0.753427,-1.986912 0.760094,-0.853439 1.786887,-0.853439 1.046796,0 1.54019,0.940116 h 0.02667 V 31.88077 h -1.213483 v -0.340042 h 1.213483 q 0.673416,0 1.340165,-0.100013 z m -2.86702,3.933819 q -0.726757,0 -0.913446,0.546734 -0.180022,0.540067 -0.180022,2.200272 0,1.43351 0.233362,1.80689 0.233362,0.373379 0.753426,0.373379 0.560069,0 0.986788,-0.380047 0.42672,-0.380047 0.56007,-0.866773 0.133349,-0.486727 0.133349,-1.580196 0,-1.040128 -0.420051,-1.56686 -0.420052,-0.533399 -1.153476,-0.533399 z"
           style="font-style:normal;font-variant:normal;font-weight:normal;font-stretch:normal;font-size:13.65501881px;font-family:'Bodoni MT';-inkscape-font-specification:'Bodoni MT';text-align:center;text-anchor:middle;stroke-width:0.32003948"
           id="path4628" />
        <path
           d="m 48.496486,37.488128 v -0.680084 q 0,-0.833436 -0.140017,-1.093468 -0.13335,-0.260032 -0.733424,-0.260032 -1.080133,0 -1.080133,0.413384 0,0.120015 0.08668,0.2667 0.09334,0.140017 0.09334,0.333375 0,0.273367 -0.180022,0.420051 -0.180022,0.140018 -0.406717,0.140018 -0.293369,0 -0.453389,-0.180023 -0.16002,-0.186689 -0.16002,-0.433386 0,-0.5334 0.620077,-0.893444 0.626744,-0.366712 1.740214,-0.366712 0.893444,0 1.306828,0.206692 0.413385,0.206692 0.50673,0.513397 0.100012,0.306704 0.100012,0.866774 v 2.453636 q 0,0.540066 0.07334,0.673416 0.08001,0.13335 0.24003,0.13335 0.24003,0 0.466724,-0.326707 h 0.16002 q -0.173355,0.973454 -1.133473,0.973454 -0.926781,0 -1.106804,-1.066799 -0.780096,1.066799 -1.826892,1.066799 -0.693419,0 -1.106803,-0.37338 -0.413384,-0.380047 -0.413384,-0.926781 0,-1.70021 3.347079,-1.86023 z m 0,1.026794 v -0.720089 q -1.233485,0.04667 -1.626867,0.373379 -0.393382,0.32004 -0.393382,0.933449 0,0.446722 0.233362,0.693419 0.24003,0.246697 0.546734,0.246697 0.393382,0 0.706754,-0.260032 0.32004,-0.2667 0.42672,-0.533399 0.106679,-0.2667 0.106679,-0.733424 z"
           style="font-style:normal;font-variant:normal;font-weight:normal;font-stretch:normal;font-size:13.65501881px;font-family:'Bodoni MT';-inkscape-font-specification:'Bodoni MT';text-align:center;text-anchor:middle;stroke-width:0.32003948"
           id="path4630" />
        <path
           d="m 57.170888,31.440715 v 8.701074 h 0.900111 v 0.340042 H 57.32424 q -0.706754,0 -1.493518,0.08001 v -1.093468 h -0.02667 q -0.533399,1.180146 -1.706877,1.180146 -0.940116,0 -1.660205,-0.833437 -0.713421,-0.840103 -0.713421,-1.900234 0,-1.133473 0.753426,-1.986912 0.760094,-0.853439 1.786887,-0.853439 1.046796,0 1.54019,0.940116 h 0.02667 V 31.88077 h -1.213483 v -0.340042 h 1.213483 q 0.673417,0 1.340166,-0.100013 z m -2.867021,3.933819 q -0.726756,0 -0.913446,0.546734 -0.180022,0.540067 -0.180022,2.200272 0,1.43351 0.233362,1.80689 0.233362,0.373379 0.753426,0.373379 0.560069,0 0.986789,-0.380047 0.426719,-0.380047 0.560069,-0.866773 0.13335,-0.486727 0.13335,-1.580196 0,-1.040128 -0.420052,-1.56686 -0.420052,-0.533399 -1.153476,-0.533399 z"
           style="font-style:normal;font-variant:normal;font-weight:normal;font-stretch:normal;font-size:13.65501881px;font-family:'Bodoni MT';-inkscape-font-specification:'Bodoni MT';text-align:center;text-anchor:middle;stroke-width:0.32003948"
           id="path4632" />
        <path
           d="m 63.785039,37.461458 h -3.37375 q -0.04667,1.973577 0.220027,2.433634 0.2667,0.45339 0.953451,0.45339 1.413508,0 1.91357,-1.640203 h 0.286702 q -0.220027,0.993456 -0.833436,1.466848 -0.613409,0.473392 -1.366836,0.473392 -1.073465,0 -1.866897,-0.793432 -0.793431,-0.800098 -0.793431,-2.006914 0,-1.173478 0.773429,-1.973577 0.780096,-0.800099 1.80689,-0.800099 0.893443,0 1.560192,0.633412 0.673417,0.633411 0.720089,1.753549 z m -3.37375,-0.300037 h 1.94024 q 0.05334,-0.473391 0.05334,-0.720088 0,-1.066799 -0.966786,-1.066799 -0.48006,0 -0.753427,0.260032 -0.273367,0.253365 -0.273367,0.693419 z"
           style="font-style:normal;font-variant:normal;font-weight:normal;font-stretch:normal;font-size:13.65501881px;font-family:'Bodoni MT';-inkscape-font-specification:'Bodoni MT';text-align:center;text-anchor:middle;stroke-width:0.32003948"
           id="path4634" />
        <path
           d="m 68.412277,35.181177 v 1.493518 H 68.13891 q -0.306705,-1.300161 -1.493518,-1.300161 -0.513396,0 -0.860106,0.273367 -0.340042,0.2667 -0.340042,0.613409 0,0.29337 0.24003,0.466725 0.246697,0.166687 1.153475,0.286702 1.99358,0.246697 1.99358,1.813557 0,0.780096 -0.520064,1.30016 -0.513397,0.520065 -1.280158,0.520065 -0.753427,0 -1.460181,-0.620077 l -0.466724,0.400049 H 64.87184 v -1.966909 h 0.233362 q 0.573404,1.8869 1.926905,1.8869 0.513396,0 0.933448,-0.326707 0.420052,-0.326707 0.420052,-0.766762 0,-0.366712 -0.253365,-0.553401 -0.246697,-0.18669 -1.346832,-0.34671 -1.873565,-0.273367 -1.873565,-1.666872 0,-0.686752 0.500062,-1.146809 0.506729,-0.466724 1.233485,-0.466724 0.766762,0 1.286826,0.506729 0.13335,-0.140017 0.273367,-0.400049 z"
           style="font-style:normal;font-variant:normal;font-weight:normal;font-stretch:normal;font-size:13.65501881px;font-family:'Bodoni MT';-inkscape-font-specification:'Bodoni MT';text-align:center;text-anchor:middle;stroke-width:0.32003948"
           id="path4636" />
        <path
           d="m 74.299668,32.574189 q 0,-0.29337 0.21336,-0.50673 0.21336,-0.213359 0.506729,-0.213359 0.29337,0 0.506729,0.213359 0.220028,0.206693 0.220028,0.50673 0,0.313372 -0.21336,0.520064 -0.21336,0.206692 -0.513397,0.206692 -0.300037,0 -0.513396,-0.206692 -0.206693,-0.21336 -0.206693,-0.520064 z m 1.386838,2.566983 v 4.80726 q 0,1.300161 -0.193357,2.106927 -0.193357,0.813434 -0.733424,1.366835 -0.540067,0.553402 -1.200148,0.553402 -0.493394,0 -0.826769,-0.260032 -0.333374,-0.260032 -0.333374,-0.613409 0,-0.24003 0.173355,-0.406717 0.173354,-0.166687 0.426719,-0.166687 0.240029,0 0.386714,0.140017 0.146685,0.140017 0.146685,0.300037 0,0.10668 -0.09334,0.286702 -0.08668,0.18669 -0.08668,0.260032 0,0.173355 0.246697,0.173355 0.466724,0 0.626744,-0.506729 0.166687,-0.50673 0.166687,-2.086925 v -5.514014 h -1.200148 v -0.340042 h 1.186813 q 0.786764,0 1.306828,-0.100012 z"
           style="font-style:normal;font-variant:normal;font-weight:normal;font-stretch:normal;font-size:13.65501881px;font-family:'Bodoni MT';-inkscape-font-specification:'Bodoni MT';text-align:center;text-anchor:middle;stroke-width:0.32003948"
           id="path4638" />
        <path
           d="m 81.033836,37.488128 v -0.680084 q 0,-0.833436 -0.140017,-1.093468 -0.13335,-0.260032 -0.733424,-0.260032 -1.080133,0 -1.080133,0.413384 0,0.120015 0.08668,0.2667 0.09334,0.140017 0.09334,0.333375 0,0.273367 -0.180022,0.420051 -0.180023,0.140018 -0.406717,0.140018 -0.29337,0 -0.453389,-0.180023 -0.16002,-0.186689 -0.16002,-0.433386 0,-0.5334 0.620076,-0.893444 0.626744,-0.366712 1.740215,-0.366712 0.893444,0 1.306828,0.206692 0.413384,0.206692 0.506729,0.513397 0.100013,0.306704 0.100013,0.866774 v 2.453636 q 0,0.540066 0.07334,0.673416 0.08001,0.13335 0.24003,0.13335 0.240029,0 0.466724,-0.326707 h 0.16002 q -0.173355,0.973454 -1.133474,0.973454 -0.926781,0 -1.106803,-1.066799 -0.780096,1.066799 -1.826892,1.066799 -0.693419,0 -1.106803,-0.37338 -0.413385,-0.380047 -0.413385,-0.926781 0,-1.70021 3.34708,-1.86023 z m 0,1.026794 v -0.720089 q -1.233485,0.04667 -1.626867,0.373379 -0.393382,0.32004 -0.393382,0.933449 0,0.446722 0.233362,0.693419 0.24003,0.246697 0.546734,0.246697 0.393382,0 0.706754,-0.260032 0.32004,-0.2667 0.426719,-0.533399 0.10668,-0.2667 0.10668,-0.733424 z m -1.466848,-4.273861 -0.173354,-0.166687 1.333498,-1.606865 q 0.373379,-0.446722 0.560069,-0.606742 0.186689,-0.16002 0.413384,-0.16002 0.21336,0 0.380047,0.166688 0.166687,0.160019 0.166687,0.340042 0,0.280034 -0.220027,0.480059 -0.21336,0.193357 -0.793431,0.546734 z"
           style="font-style:normal;font-variant:normal;font-weight:normal;font-stretch:normal;font-size:13.65501881px;font-family:'Bodoni MT';-inkscape-font-specification:'Bodoni MT';text-align:center;text-anchor:middle;stroke-width:0.32003948"
           id="path4640" />
        <path
           d="m 89.861591,33.720997 v 1.520187 h 1.580195 v 0.340042 h -1.580195 v 3.300408 q 0,0.726756 0.09334,0.993456 0.100012,0.266699 0.520064,0.266699 0.32004,0 0.613409,-0.213359 0.300037,-0.21336 0.45339,-0.660082 h 0.286702 q -0.306705,1.293493 -1.86023,1.293493 -0.653414,0 -0.960119,-0.233362 -0.306704,-0.24003 -0.380046,-0.586739 -0.06668,-0.34671 -0.06668,-0.940116 v -3.220398 h -1.186814 v -0.340042 h 1.186814 v -1.40684 q 0.660081,0 1.30016,-0.113347 z"
           style="font-style:normal;font-variant:normal;font-weight:normal;font-stretch:normal;font-size:13.65501881px;font-family:'Bodoni MT';-inkscape-font-specification:'Bodoni MT';text-align:center;text-anchor:middle;stroke-width:0.32003948"
           id="path4642" />
        <path
           d="m 97.549203,37.461458 h -3.37375 q -0.04667,1.973577 0.220027,2.433634 0.2667,0.45339 0.953451,0.45339 1.413508,0 1.91357,-1.640203 h 0.286702 q -0.220027,0.993456 -0.833436,1.466848 -0.613409,0.473392 -1.366836,0.473392 -1.073465,0 -1.866897,-0.793432 -0.793431,-0.800098 -0.793431,-2.006914 0,-1.173478 0.773429,-1.973577 0.780096,-0.800099 1.80689,-0.800099 0.893443,0 1.560192,0.633412 0.673417,0.633411 0.720089,1.753549 z m -3.37375,-0.300037 h 1.94024 q 0.05334,-0.473391 0.05334,-0.720088 0,-1.066799 -0.966786,-1.066799 -0.48006,0 -0.753427,0.260032 -0.273367,0.253365 -0.273367,0.693419 z"
           style="font-style:normal;font-variant:normal;font-weight:normal;font-stretch:normal;font-size:13.65501881px;font-family:'Bodoni MT';-inkscape-font-specification:'Bodoni MT';text-align:center;text-anchor:middle;stroke-width:0.32003948"
           id="path4644" />
        <path
           d="m 99.349425,40.141789 v -4.560563 h -1.080133 v -0.340042 h 1.093468 q 0.8401,0 1.28016,-0.08668 v 1.260156 h 0.0267 q 0.46672,-1.260156 1.38017,-1.260156 0.40005,0 0.64008,0.246697 0.24669,0.24003 0.24669,0.586739 0,0.32004 -0.20002,0.520064 -0.19336,0.193358 -0.50673,0.193358 -0.5734,0 -0.5734,-0.573404 l 0.0267,-0.286703 q 0,-0.153352 -0.14002,-0.153352 -0.22003,0 -0.56007,0.593407 -0.34004,0.593406 -0.34004,1.813557 v 2.046919 h 1.1068 v 0.340042 h -3.480428 v -0.340042 z"
           style="font-style:normal;font-variant:normal;font-weight:normal;font-stretch:normal;font-size:13.65501881px;font-family:'Bodoni MT';-inkscape-font-specification:'Bodoni MT';text-align:center;text-anchor:middle;stroke-width:0.32003948"
           id="path4646" />
        <path
           d="m 104.93679,40.141789 v -4.560563 h -0.94012 v -0.340042 h 0.58674 q 1.04013,0 1.65354,-0.08668 v 1.286826 h 0.0267 q 0.52673,-1.286826 1.88023,-1.286826 1.47352,0 1.62687,1.366835 h 0.0267 q 0.58007,-1.366835 1.9269,-1.366835 0.60008,0 1.00679,0.300037 0.41339,0.300037 0.50673,0.693419 0.10002,0.393382 0.10002,1.300161 v 2.693665 h 0.92678 v 0.340042 h -3.10039 v -0.340042 h 0.87345 v -3.29374 q 0,-0.780096 -0.0934,-1.073465 -0.0867,-0.29337 -0.48006,-0.29337 -0.54007,0 -1.11347,0.613409 -0.56674,0.606742 -0.56674,2.313619 v 1.733547 h 0.86011 v 0.340042 h -3.02037 v -0.340042 h 0.86677 v -2.580318 q 0,-1.506853 -0.11335,-1.793555 -0.10668,-0.286702 -0.52006,-0.286702 -0.56674,0 -0.99346,0.500062 -0.42005,0.500062 -0.52673,0.973453 -0.10001,0.473392 -0.10001,1.506853 v 1.680207 h 0.86011 v 0.340042 h -3.10039 v -0.340042 z"
           style="font-style:normal;font-variant:normal;font-weight:normal;font-stretch:normal;font-size:13.65501881px;font-family:'Bodoni MT';-inkscape-font-specification:'Bodoni MT';text-align:center;text-anchor:middle;stroke-width:0.32003948"
           id="path4648" />
        <path
           d="m 115.85146,32.574189 q 0,-0.29337 0.21336,-0.50673 0.22003,-0.213359 0.5134,-0.213359 0.29337,0 0.50673,0.213359 0.22003,0.206693 0.22003,0.50673 0,0.313372 -0.21336,0.520064 -0.21336,0.206692 -0.5134,0.206692 -0.30004,0 -0.5134,-0.206692 -0.21336,-0.21336 -0.21336,-0.520064 z m 1.34017,2.566983 v 5.000617 h 0.87344 v 0.340042 h -3.10038 v -0.340042 h 0.93345 v -4.560563 h -0.93345 v -0.340042 h 0.94678 q 0.68008,0 1.28016,-0.100012 z"
           style="font-style:normal;font-variant:normal;font-weight:normal;font-stretch:normal;font-size:13.65501881px;font-family:'Bodoni MT';-inkscape-font-specification:'Bodoni MT';text-align:center;text-anchor:middle;stroke-width:0.32003948"
           id="path4650" />
        <path
           d="m 119.65861,40.141789 v -4.560563 h -0.94679 v -0.340042 h 0.60674 q 0.90011,0 1.63354,-0.100012 v 1.300161 h 0.0267 q 0.68675,-1.366836 1.94024,-1.366836 0.58674,0 0.96012,0.300037 0.38004,0.300037 0.51339,0.706754 0.14002,0.406717 0.14002,1.260156 v 2.800345 h 1.04013 v 0.340042 h -3.22707 v -0.340042 h 0.88678 v -3.333745 q 0,-0.766761 -0.10001,-1.06013 -0.0934,-0.29337 -0.50006,-0.29337 -0.64675,0 -1.16681,0.666749 -0.5134,0.660082 -0.5134,1.78022 v 2.240276 h 0.87344 v 0.340042 h -3.11372 v -0.340042 z"
           style="font-style:normal;font-variant:normal;font-weight:normal;font-stretch:normal;font-size:13.65501881px;font-family:'Bodoni MT';-inkscape-font-specification:'Bodoni MT';text-align:center;text-anchor:middle;stroke-width:0.32003948"
           id="path4652" />
        <path
           d="m 129.75985,37.488128 v -0.680084 q 0,-0.833436 -0.14002,-1.093468 -0.13335,-0.260032 -0.73342,-0.260032 -1.08014,0 -1.08014,0.413384 0,0.120015 0.0867,0.2667 0.0934,0.140017 0.0934,0.333375 0,0.273367 -0.18003,0.420051 -0.18002,0.140018 -0.40671,0.140018 -0.29337,0 -0.45339,-0.180023 -0.16002,-0.186689 -0.16002,-0.433386 0,-0.5334 0.62008,-0.893444 0.62674,-0.366712 1.74021,-0.366712 0.89344,0 1.30683,0.206692 0.41338,0.206692 0.50673,0.513397 0.10001,0.306704 0.10001,0.866774 v 2.453636 q 0,0.540066 0.0733,0.673416 0.08,0.13335 0.24003,0.13335 0.24003,0 0.46673,-0.326707 h 0.16002 q -0.17336,0.973454 -1.13348,0.973454 -0.92678,0 -1.1068,-1.066799 -0.7801,1.066799 -1.82689,1.066799 -0.69342,0 -1.10681,-0.37338 -0.41338,-0.380047 -0.41338,-0.926781 0,-1.70021 3.34708,-1.86023 z m 0,1.026794 v -0.720089 q -1.23349,0.04667 -1.62687,0.373379 -0.39338,0.32004 -0.39338,0.933449 0,0.446722 0.23336,0.693419 0.24003,0.246697 0.54674,0.246697 0.39338,0 0.70675,-0.260032 0.32004,-0.2667 0.42672,-0.533399 0.10668,-0.2667 0.10668,-0.733424 z"
           style="font-style:normal;font-variant:normal;font-weight:normal;font-stretch:normal;font-size:13.65501881px;font-family:'Bodoni MT';-inkscape-font-specification:'Bodoni MT';text-align:center;text-anchor:middle;stroke-width:0.32003948"
           id="path4654" />
        <path
           d="m 138.43425,31.440715 v 8.701074 h 0.90012 v 0.340042 h -0.74676 q -0.70676,0 -1.49352,0.08001 v -1.093468 h -0.0267 q -0.5334,1.180146 -1.70688,1.180146 -0.94011,0 -1.6602,-0.833437 -0.71342,-0.840103 -0.71342,-1.900234 0,-1.133473 0.75342,-1.986912 0.7601,-0.853439 1.78689,-0.853439 1.04679,0 1.54019,0.940116 h 0.0267 V 31.88077 h -1.21348 v -0.340042 h 1.21348 q 0.67342,0 1.34016,-0.100013 z m -2.86702,3.933819 q -0.72675,0 -0.91344,0.546734 -0.18002,0.540067 -0.18002,2.200272 0,1.43351 0.23336,1.80689 0.23336,0.373379 0.75342,0.373379 0.56007,0 0.98679,-0.380047 0.42672,-0.380047 0.56007,-0.866773 0.13335,-0.486727 0.13335,-1.580196 0,-1.040128 -0.42005,-1.56686 -0.42005,-0.533399 -1.15348,-0.533399 z"
           style="font-style:normal;font-variant:normal;font-weight:normal;font-stretch:normal;font-size:13.65501881px;font-family:'Bodoni MT';-inkscape-font-specification:'Bodoni MT';text-align:center;text-anchor:middle;stroke-width:0.32003948"
           id="path4656" />
        <path
           d="m 143.70824,37.488128 v -0.680084 q 0,-0.833436 -0.14002,-1.093468 -0.13335,-0.260032 -0.73342,-0.260032 -1.08014,0 -1.08014,0.413384 0,0.120015 0.0867,0.2667 0.0933,0.140017 0.0933,0.333375 0,0.273367 -0.18002,0.420051 -0.18002,0.140018 -0.40671,0.140018 -0.29337,0 -0.45339,-0.180023 -0.16002,-0.186689 -0.16002,-0.433386 0,-0.5334 0.62007,-0.893444 0.62675,-0.366712 1.74022,-0.366712 0.89344,0 1.30683,0.206692 0.41338,0.206692 0.50672,0.513397 0.10002,0.306704 0.10002,0.866774 v 2.453636 q 0,0.540066 0.0733,0.673416 0.08,0.13335 0.24003,0.13335 0.24003,0 0.46672,-0.326707 h 0.16002 q -0.17335,0.973454 -1.13347,0.973454 -0.92678,0 -1.1068,-1.066799 -0.7801,1.066799 -1.8269,1.066799 -0.69341,0 -1.1068,-0.37338 -0.41338,-0.380047 -0.41338,-0.926781 0,-1.70021 3.34708,-1.86023 z m 0,1.026794 v -0.720089 q -1.23349,0.04667 -1.62687,0.373379 -0.39338,0.32004 -0.39338,0.933449 0,0.446722 0.23336,0.693419 0.24003,0.246697 0.54673,0.246697 0.39339,0 0.70676,-0.260032 0.32004,-0.2667 0.42672,-0.533399 0.10668,-0.2667 0.10668,-0.733424 z"
           style="font-style:normal;font-variant:normal;font-weight:normal;font-stretch:normal;font-size:13.65501881px;font-family:'Bodoni MT';-inkscape-font-specification:'Bodoni MT';text-align:center;text-anchor:middle;stroke-width:0.32003948"
           id="path4658" />
        <path
           d="m 150.52907,35.181177 v 1.493518 h -0.27337 q -0.3067,-1.300161 -1.49351,-1.300161 -0.5134,0 -0.86011,0.273367 -0.34004,0.2667 -0.34004,0.613409 0,0.29337 0.24003,0.466725 0.2467,0.166687 1.15347,0.286702 1.99358,0.246697 1.99358,1.813557 0,0.780096 -0.52006,1.30016 -0.5134,0.520065 -1.28016,0.520065 -0.75343,0 -1.46018,-0.620077 l -0.46672,0.400049 h -0.23337 v -1.966909 h 0.23337 q 0.5734,1.8869 1.9269,1.8869 0.5134,0 0.93345,-0.326707 0.42005,-0.326707 0.42005,-0.766762 0,-0.366712 -0.25336,-0.553401 -0.2467,-0.18669 -1.34684,-0.34671 -1.87356,-0.273367 -1.87356,-1.666872 0,-0.686752 0.50006,-1.146809 0.50673,-0.466724 1.23349,-0.466724 0.76676,0 1.28682,0.506729 0.13335,-0.140017 0.27337,-0.400049 z"
           style="font-style:normal;font-variant:normal;font-weight:normal;font-stretch:normal;font-size:13.65501881px;font-family:'Bodoni MT';-inkscape-font-specification:'Bodoni MT';text-align:center;text-anchor:middle;stroke-width:0.32003948"
           id="path4660" />
        <path
           d="m 31.08767,56.753708 v 3.987159 h 1.080133 v 0.380047 h -3.273737 v -0.380047 h 0.900111 v -8.014322 h -0.986788 v -0.340042 h 0.753426 q 0.826769,0 1.526855,-0.08668 v 1.053464 h 0.02667 q 0.553402,-1.133474 1.706877,-1.133474 0.946784,0 1.660205,0.786764 0.720089,0.780096 0.720089,1.86023 0,1.153475 -0.786764,2.000247 -0.780096,0.840103 -1.740214,0.840103 -1.006791,0 -1.560193,-0.953451 z m 2.626991,-1.733547 q 0,-1.246821 -0.07334,-1.666872 -0.06668,-0.42672 -0.32004,-0.626744 -0.246697,-0.206693 -0.553401,-0.206693 -0.653414,0 -1.046796,0.433387 -0.393382,0.433387 -0.513397,0.846771 -0.120015,0.413385 -0.120015,1.220151 0,0.846771 0.113347,1.293493 0.113348,0.446722 0.540067,0.773429 0.433387,0.320039 0.960119,0.320039 0.546734,0 0.780096,-0.460057 0.233362,-0.466724 0.233362,-1.926904 z"
           style="font-style:normal;font-variant:normal;font-weight:normal;font-stretch:normal;font-size:13.65501881px;font-family:'Bodoni MT';-inkscape-font-specification:'Bodoni MT';text-align:center;text-anchor:middle;stroke-width:0.32003948"
           id="path4662" />
        <path
           d="m 39.895424,54.633447 v -0.680084 q 0,-0.833437 -0.140017,-1.093469 -0.13335,-0.260032 -0.733424,-0.260032 -1.080134,0 -1.080134,0.413385 0,0.120014 0.08668,0.266699 0.09335,0.140017 0.09335,0.333375 0,0.273367 -0.180023,0.420052 -0.180022,0.140017 -0.406716,0.140017 -0.29337,0 -0.45339,-0.180022 -0.160019,-0.18669 -0.160019,-0.433387 0,-0.533399 0.620076,-0.893444 0.626744,-0.366712 1.740215,-0.366712 0.893444,0 1.306828,0.206692 0.413384,0.206693 0.506729,0.513397 0.100012,0.306705 0.100012,0.866774 v 2.453636 q 0,0.540067 0.07334,0.673416 0.08001,0.13335 0.240029,0.13335 0.24003,0 0.466725,-0.326707 H 42.1357 q -0.173354,0.973454 -1.133473,0.973454 -0.926781,0 -1.106803,-1.066799 -0.780096,1.066799 -1.826892,1.066799 -0.693419,0 -1.106804,-0.37338 -0.413384,-0.380047 -0.413384,-0.926781 0,-1.70021 3.34708,-1.860229 z m 0,1.026793 v -0.720089 q -1.233486,0.04667 -1.626868,0.37338 -0.393381,0.320039 -0.393381,0.933448 0,0.446722 0.233362,0.693419 0.240029,0.246697 0.546734,0.246697 0.393382,0 0.706754,-0.260032 0.320039,-0.2667 0.426719,-0.533399 0.10668,-0.2667 0.10668,-0.733424 z"
           style="font-style:normal;font-variant:normal;font-weight:normal;font-stretch:normal;font-size:13.65501881px;font-family:'Bodoni MT';-inkscape-font-specification:'Bodoni MT';text-align:center;text-anchor:middle;stroke-width:0.32003948"
           id="path4664" />
        <path
           d="m 43.88925,57.287107 v -4.560562 h -1.080133 v -0.340042 h 1.093468 q 0.840104,0 1.280158,-0.08668 v 1.260156 h 0.02667 q 0.466724,-1.260156 1.38017,-1.260156 0.40005,0 0.640079,0.246697 0.246698,0.24003 0.246698,0.586739 0,0.32004 -0.200025,0.520065 -0.193357,0.193357 -0.506729,0.193357 -0.573404,0 -0.573404,-0.573404 l 0.02667,-0.286702 q 0,-0.153353 -0.140018,-0.153353 -0.220027,0 -0.560069,0.593407 -0.340042,0.593407 -0.340042,1.813557 v 2.046919 h 1.106803 v 0.340042 h -3.480429 v -0.340042 z"
           style="font-style:normal;font-variant:normal;font-weight:normal;font-stretch:normal;font-size:13.65501881px;font-family:'Bodoni MT';-inkscape-font-specification:'Bodoni MT';text-align:center;text-anchor:middle;stroke-width:0.32003948"
           id="path4666" />
        <path
           d="m 51.710216,54.633447 v -0.680084 q 0,-0.833437 -0.140018,-1.093469 -0.133349,-0.260032 -0.733424,-0.260032 -1.080133,0 -1.080133,0.413385 0,0.120014 0.08668,0.266699 0.09334,0.140017 0.09334,0.333375 0,0.273367 -0.180022,0.420052 -0.180022,0.140017 -0.406717,0.140017 -0.293369,0 -0.453389,-0.180022 -0.16002,-0.18669 -0.16002,-0.433387 0,-0.533399 0.620077,-0.893444 0.626744,-0.366712 1.740215,-0.366712 0.893443,0 1.306828,0.206692 0.413384,0.206693 0.506729,0.513397 0.100012,0.306705 0.100012,0.866774 v 2.453636 q 0,0.540067 0.07334,0.673416 0.08001,0.13335 0.24003,0.13335 0.24003,0 0.466724,-0.326707 h 0.16002 q -0.173355,0.973454 -1.133473,0.973454 -0.926781,0 -1.106803,-1.066799 -0.780097,1.066799 -1.826893,1.066799 -0.693418,0 -1.106803,-0.37338 -0.413384,-0.380047 -0.413384,-0.926781 0,-1.70021 3.34708,-1.860229 z m 0,1.026793 v -0.720089 q -1.233486,0.04667 -1.626868,0.37338 -0.393382,0.320039 -0.393382,0.933448 0,0.446722 0.233362,0.693419 0.24003,0.246697 0.546735,0.246697 0.393381,0 0.706753,-0.260032 0.32004,-0.2667 0.42672,-0.533399 0.10668,-0.2667 0.10668,-0.733424 z"
           style="font-style:normal;font-variant:normal;font-weight:normal;font-stretch:normal;font-size:13.65501881px;font-family:'Bodoni MT';-inkscape-font-specification:'Bodoni MT';text-align:center;text-anchor:middle;stroke-width:0.32003948"
           id="path4668" />
        <path
           d="m 59.064457,57.287107 v -4.560562 h -1.080133 v -0.340042 h 1.093468 q 0.840104,0 1.280158,-0.08668 v 1.260156 h 0.02667 q 0.466725,-1.260156 1.380171,-1.260156 0.400049,0 0.640079,0.246697 0.246697,0.24003 0.246697,0.586739 0,0.32004 -0.200025,0.520065 -0.193357,0.193357 -0.506729,0.193357 -0.573404,0 -0.573404,-0.573404 l 0.02667,-0.286702 q 0,-0.153353 -0.140018,-0.153353 -0.220027,0 -0.560069,0.593407 -0.340042,0.593407 -0.340042,1.813557 v 2.046919 h 1.106804 v 0.340042 h -3.48043 v -0.340042 z"
           style="font-style:normal;font-variant:normal;font-weight:normal;font-stretch:normal;font-size:13.65501881px;font-family:'Bodoni MT';-inkscape-font-specification:'Bodoni MT';text-align:center;text-anchor:middle;stroke-width:0.32003948"
           id="path4670" />
        <path
           d="m 68.225588,54.606777 h -3.37375 q -0.04667,1.973577 0.220028,2.433633 0.266699,0.45339 0.953451,0.45339 1.413507,0 1.913569,-1.640203 h 0.286702 q -0.220027,0.993456 -0.833436,1.466848 -0.613409,0.473392 -1.366835,0.473392 -1.073466,0 -1.866898,-0.793432 -0.793431,-0.800098 -0.793431,-2.006914 0,-1.173478 0.773429,-1.973577 0.780096,-0.800099 1.80689,-0.800099 0.893443,0 1.560192,0.633412 0.673417,0.633411 0.720089,1.75355 z m -3.37375,-0.300037 h 1.94024 q 0.05334,-0.473392 0.05334,-0.720089 0,-1.066799 -0.966786,-1.066799 -0.480059,0 -0.753427,0.260032 -0.273367,0.253365 -0.273367,0.693419 z"
           style="font-style:normal;font-variant:normal;font-weight:normal;font-stretch:normal;font-size:13.65501881px;font-family:'Bodoni MT';-inkscape-font-specification:'Bodoni MT';text-align:center;text-anchor:middle;stroke-width:0.32003948"
           id="path4672" />
        <path
           d="m 70.13249,57.287107 v -4.560562 h -1.106803 v -0.340042 h 1.106803 q -0.05334,-1.766885 0.726757,-2.780344 0.786764,-1.020126 1.866897,-1.020126 0.520064,0 0.900111,0.300038 0.386714,0.300037 0.386714,0.726756 0,0.293369 -0.186689,0.493394 -0.180023,0.200025 -0.460057,0.200025 -0.24003,0 -0.413384,-0.166687 -0.173355,-0.166688 -0.173355,-0.420052 0,-0.393382 0.440054,-0.653414 -0.200025,-0.180022 -0.586739,-0.180022 -0.373379,0 -0.706754,0.226694 -0.333374,0.226695 -0.406717,0.686752 -0.07334,0.453389 -0.07334,1.466847 v 1.120139 h 1.240153 v 0.340042 h -1.240153 v 4.560562 h 1.120138 v 0.340042 h -3.42709 v -0.340042 z"
           style="font-style:normal;font-variant:normal;font-weight:normal;font-stretch:normal;font-size:13.65501881px;font-family:'Bodoni MT';-inkscape-font-specification:'Bodoni MT';text-align:center;text-anchor:middle;stroke-width:0.32003948"
           id="path4674" />
        <path
           d="m 73.44623,54.993491 q 0,-1.153476 0.793432,-1.960242 0.793431,-0.813434 1.966909,-0.813434 1.146808,0 1.940239,0.780097 0.800099,0.773428 0.800099,1.940239 0,1.193481 -0.826769,2.026917 -0.826768,0.826769 -1.953574,0.826769 -1.106803,0 -1.91357,-0.806767 -0.806766,-0.813433 -0.806766,-1.993579 z m 4.000494,0 q 0,-1.226818 -0.08668,-1.6202 -0.08001,-0.393382 -0.37338,-0.620076 -0.286702,-0.233363 -0.793431,-0.233363 -0.480059,0 -0.793431,0.24003 -0.306705,0.233362 -0.380047,0.626744 -0.07334,0.393382 -0.07334,1.6202 0,1.233486 0.08668,1.633535 0.09334,0.400049 0.393382,0.626744 0.306704,0.226695 0.766761,0.226695 0.466724,0 0.773429,-0.226695 0.313372,-0.233362 0.393382,-0.640079 0.08668,-0.413384 0.08668,-1.633535 z"
           style="font-style:normal;font-variant:normal;font-weight:normal;font-stretch:normal;font-size:13.65501881px;font-family:'Bodoni MT';-inkscape-font-specification:'Bodoni MT';text-align:center;text-anchor:middle;stroke-width:0.32003948"
           id="path4676" />
        <path
           d="m 80.880482,57.287107 v -4.560562 h -1.080133 v -0.340042 h 1.093468 q 0.840104,0 1.280158,-0.08668 v 1.260156 h 0.02667 q 0.466724,-1.260156 1.38017,-1.260156 0.40005,0 0.640079,0.246697 0.246697,0.24003 0.246697,0.586739 0,0.32004 -0.200024,0.520065 -0.193357,0.193357 -0.506729,0.193357 -0.573405,0 -0.573405,-0.573404 l 0.02667,-0.286702 q 0,-0.153353 -0.140017,-0.153353 -0.220027,0 -0.560069,0.593407 -0.340042,0.593407 -0.340042,1.813557 v 2.046919 h 1.106803 v 0.340042 h -3.480429 v -0.340042 z"
           style="font-style:normal;font-variant:normal;font-weight:normal;font-stretch:normal;font-size:13.65501881px;font-family:'Bodoni MT';-inkscape-font-specification:'Bodoni MT';text-align:center;text-anchor:middle;stroke-width:0.32003948"
           id="path4678" />
        <path
           d="m 87.801336,57.793837 v 0.420052 q 0.573405,-0.03334 0.886777,0.213359 0.313372,0.253365 0.313372,0.646747 0,0.500061 -0.42672,0.786763 -0.420052,0.29337 -0.980121,0.29337 -0.360044,0 -0.873441,-0.09334 v -0.306704 q 0.400049,0.07334 0.726756,0.07334 0.300038,0 0.500062,-0.13335 0.206692,-0.126682 0.206692,-0.346709 0,-0.420052 -0.760093,-0.420052 0.06667,-0.553402 0.06667,-1.180146 -1.013458,-0.193357 -1.6202,-0.986788 -0.606741,-0.793431 -0.606741,-1.72688 0,-1.120138 0.800099,-1.966909 0.806766,-0.846772 1.986912,-0.846772 0.846771,0 1.38017,0.433387 0.533399,0.426719 0.533399,0.960119 0,0.266699 -0.18669,0.480059 -0.180022,0.21336 -0.473391,0.21336 -0.286702,0 -0.48006,-0.180023 -0.186689,-0.180022 -0.186689,-0.473391 0,-0.206693 0.160019,-0.406717 0.166688,-0.200025 0.166688,-0.273367 0,-0.180023 -0.246697,-0.313372 -0.246698,-0.140018 -0.640079,-0.140018 -0.773429,0 -1.073466,0.420052 -0.29337,0.413385 -0.29337,1.533523 0,1.75355 0.21336,2.386961 0.21336,0.633412 1.086801,0.633412 1.320163,0 1.853562,-1.680208 h 0.286702 q -0.440054,2.02025 -2.320287,1.980245 z"
           style="font-style:normal;font-variant:normal;font-weight:normal;font-stretch:normal;font-size:13.65501881px;font-family:'Bodoni MT';-inkscape-font-specification:'Bodoni MT';text-align:center;text-anchor:middle;stroke-width:0.32003948"
           id="path4680" />
        <path
           d="m 94.542169,54.633447 v -0.680084 q 0,-0.833437 -0.140018,-1.093469 -0.133349,-0.260032 -0.733423,-0.260032 -1.080134,0 -1.080134,0.413385 0,0.120014 0.08668,0.266699 0.09334,0.140017 0.09334,0.333375 0,0.273367 -0.180022,0.420052 -0.180022,0.140017 -0.406717,0.140017 -0.293369,0 -0.453389,-0.180022 -0.16002,-0.18669 -0.16002,-0.433387 0,-0.533399 0.620077,-0.893444 0.626744,-0.366712 1.740215,-0.366712 0.893443,0 1.306828,0.206692 0.413384,0.206693 0.506729,0.513397 0.100012,0.306705 0.100012,0.866774 v 2.453636 q 0,0.540067 0.07334,0.673416 0.08001,0.13335 0.240029,0.13335 0.24003,0 0.466724,-0.326707 h 0.16002 q -0.173355,0.973454 -1.133473,0.973454 -0.926781,0 -1.106803,-1.066799 -0.780097,1.066799 -1.826892,1.066799 -0.693419,0 -1.106804,-0.37338 -0.413384,-0.380047 -0.413384,-0.926781 0,-1.70021 3.34708,-1.860229 z m 0,1.026793 v -0.720089 q -1.233486,0.04667 -1.626868,0.37338 -0.393382,0.320039 -0.393382,0.933448 0,0.446722 0.233362,0.693419 0.24003,0.246697 0.546735,0.246697 0.393381,0 0.706753,-0.260032 0.32004,-0.2667 0.42672,-0.533399 0.10668,-0.2667 0.10668,-0.733424 z"
           style="font-style:normal;font-variant:normal;font-weight:normal;font-stretch:normal;font-size:13.65501881px;font-family:'Bodoni MT';-inkscape-font-specification:'Bodoni MT';text-align:center;text-anchor:middle;stroke-width:0.32003948"
           id="path4682" />
        <path
           d="m 98.535992,57.287107 v -4.560562 h -1.080133 v -0.340042 h 1.093468 q 0.840104,0 1.280158,-0.08668 v 1.260156 h 0.02667 q 0.466725,-1.260156 1.380175,-1.260156 0.40004,0 0.64007,0.246697 0.2467,0.24003 0.2467,0.586739 0,0.32004 -0.20002,0.520065 -0.19336,0.193357 -0.50673,0.193357 -0.57341,0 -0.57341,-0.573404 l 0.0267,-0.286702 q 0,-0.153353 -0.14001,-0.153353 -0.22003,0 -0.56007,0.593407 -0.340045,0.593407 -0.340045,1.813557 v 2.046919 h 1.106805 v 0.340042 h -3.480431 v -0.340042 z"
           style="font-style:normal;font-variant:normal;font-weight:normal;font-stretch:normal;font-size:13.65501881px;font-family:'Bodoni MT';-inkscape-font-specification:'Bodoni MT';text-align:center;text-anchor:middle;stroke-width:0.32003948"
           id="path4684" />
        <path
           d="m 106.27695,54.993491 q 0,-1.153476 0.79343,-1.960242 0.79343,-0.813434 1.96691,-0.813434 1.14681,0 1.94024,0.780097 0.8001,0.773428 0.8001,1.940239 0,1.193481 -0.82677,2.026917 -0.82677,0.826769 -1.95357,0.826769 -1.10681,0 -1.91357,-0.806767 -0.80677,-0.813433 -0.80677,-1.993579 z m 4.00049,0 q 0,-1.226818 -0.0867,-1.6202 -0.08,-0.393382 -0.37338,-0.620076 -0.28671,-0.233363 -0.79344,-0.233363 -0.48005,0 -0.79343,0.24003 -0.3067,0.233362 -0.38004,0.626744 -0.0734,0.393382 -0.0734,1.6202 0,1.233486 0.0867,1.633535 0.0934,0.400049 0.39338,0.626744 0.30671,0.226695 0.76676,0.226695 0.46673,0 0.77343,-0.226695 0.31338,-0.233362 0.39339,-0.640079 0.0867,-0.413384 0.0867,-1.633535 z"
           style="font-style:normal;font-variant:normal;font-weight:normal;font-stretch:normal;font-size:13.65501881px;font-family:'Bodoni MT';-inkscape-font-specification:'Bodoni MT';text-align:center;text-anchor:middle;stroke-width:0.32003948"
           id="path4686" />
        <path
           d="m 119.89863,52.326495 v 1.493518 h -0.27337 q -0.3067,-1.300161 -1.49352,-1.300161 -0.51339,0 -0.8601,0.273367 -0.34004,0.2667 -0.34004,0.613409 0,0.29337 0.24003,0.466725 0.24669,0.166687 1.15347,0.286702 1.99358,0.246697 1.99358,1.813557 0,0.780096 -0.52006,1.30016 -0.5134,0.520065 -1.28016,0.520065 -0.75343,0 -1.46018,-0.620077 l -0.46673,0.40005 h -0.23336 V 55.6069 h 0.23336 q 0.57341,1.8869 1.92691,1.8869 0.5134,0 0.93345,-0.326707 0.42005,-0.326707 0.42005,-0.766762 0,-0.366712 -0.25337,-0.553401 -0.24669,-0.18669 -1.34683,-0.34671 -1.87356,-0.273367 -1.87356,-1.666872 0,-0.686752 0.50006,-1.146808 0.50673,-0.466725 1.23348,-0.466725 0.76677,0 1.28683,0.50673 0.13335,-0.140018 0.27337,-0.40005 z"
           style="font-style:normal;font-variant:normal;font-weight:normal;font-stretch:normal;font-size:13.65501881px;font-family:'Bodoni MT';-inkscape-font-specification:'Bodoni MT';text-align:center;text-anchor:middle;stroke-width:0.32003948"
           id="path4688" />
        <path
           d="M 126.23275,54.606777 H 122.859 q -0.0467,1.973577 0.22003,2.433633 0.2667,0.45339 0.95345,0.45339 1.4135,0 1.91357,-1.640203 h 0.2867 q -0.22003,0.993456 -0.83344,1.466848 -0.61341,0.473392 -1.36683,0.473392 -1.07347,0 -1.8669,-0.793432 -0.79343,-0.800098 -0.79343,-2.006914 0,-1.173478 0.77343,-1.973577 0.78009,-0.800099 1.80689,-0.800099 0.89344,0 1.56019,0.633412 0.67342,0.633411 0.72009,1.75355 z M 122.859,54.30674 h 1.94024 q 0.0533,-0.473392 0.0533,-0.720089 0,-1.066799 -0.96679,-1.066799 -0.48006,0 -0.75342,0.260032 -0.27337,0.253365 -0.27337,0.693419 z"
           style="font-style:normal;font-variant:normal;font-weight:normal;font-stretch:normal;font-size:13.65501881px;font-family:'Bodoni MT';-inkscape-font-specification:'Bodoni MT';text-align:center;text-anchor:middle;stroke-width:0.32003948"
           id="path4690" />
        <path
           d="m 132.8269,52.386503 v 4.900604 h 0.90011 v 0.340042 h -0.90011 q -1.04013,0 -1.3135,0.08001 v -1.240153 h -0.0267 q -0.60007,1.240153 -1.8869,1.240153 -0.74009,0 -1.19348,-0.386714 -0.44672,-0.393382 -0.44672,-1.64687 v -2.94703 h -0.96679 v -0.340042 h 2.26695 v 3.520434 q 0,0.826769 0.10001,1.146808 0.10001,0.313372 0.5134,0.313372 0.61341,0 1.13347,-0.653414 0.52007,-0.660081 0.52007,-1.980244 v -2.006914 h -1.0668 v -0.340042 z"
           style="font-style:normal;font-variant:normal;font-weight:normal;font-stretch:normal;font-size:13.65501881px;font-family:'Bodoni MT';-inkscape-font-specification:'Bodoni MT';text-align:center;text-anchor:middle;stroke-width:0.32003948"
           id="path4692" />
        <path
           d="m 48.69651,71.778765 v -0.680084 q 0,-0.833436 -0.140017,-1.093469 -0.13335,-0.260032 -0.733424,-0.260032 -1.080133,0 -1.080133,0.413385 0,0.120015 0.08668,0.266699 0.09334,0.140018 0.09334,0.333375 0,0.273367 -0.180022,0.420052 -0.180022,0.140017 -0.406717,0.140017 -0.29337,0 -0.453389,-0.180022 -0.16002,-0.18669 -0.16002,-0.433387 0,-0.533399 0.620076,-0.893444 0.626744,-0.366712 1.740215,-0.366712 0.893444,0 1.306828,0.206693 0.413385,0.206692 0.506729,0.513396 0.100013,0.306705 0.100013,0.866774 v 2.453636 q 0,0.540067 0.07334,0.673417 0.08001,0.133349 0.24003,0.133349 0.240029,0 0.466724,-0.326707 h 0.16002 q -0.173355,0.973454 -1.133473,0.973454 -0.926781,0 -1.106804,-1.066799 -0.780096,1.066799 -1.826892,1.066799 -0.693419,0 -1.106803,-0.37338 -0.413384,-0.380047 -0.413384,-0.926781 0,-1.70021 3.347079,-1.860229 z m 0,1.026793 v -0.720089 q -1.233485,0.04667 -1.626867,0.37338 -0.393382,0.320039 -0.393382,0.933448 0,0.446722 0.233362,0.693419 0.24003,0.246697 0.546734,0.246697 0.393382,0 0.706754,-0.260032 0.32004,-0.266699 0.426719,-0.533399 0.10668,-0.2667 0.10668,-0.733424 z"
           style="font-style:normal;font-variant:normal;font-weight:normal;font-stretch:normal;font-size:13.65501881px;font-family:'Bodoni MT';-inkscape-font-specification:'Bodoni MT';text-align:center;text-anchor:middle;stroke-width:0.32003948"
           id="path4694" />
        <path
           d="m 53.863815,73.899026 v 3.987159 h 1.080133 v 0.380047 H 51.67021 v -0.380047 h 0.900112 v -8.014322 h -0.986789 v -0.340042 h 0.753426 q 0.826769,0 1.526856,-0.08668 v 1.053464 h 0.02667 q 0.553401,-1.133474 1.706877,-1.133474 0.946783,0 1.660205,0.786764 0.720089,0.780097 0.720089,1.86023 0,1.153476 -0.786764,2.000247 -0.780096,0.840103 -1.740215,0.840103 -1.006791,0 -1.560192,-0.953451 z m 2.626991,-1.733547 q 0,-1.24682 -0.07334,-1.666872 -0.06667,-0.42672 -0.320039,-0.626744 -0.246698,-0.206692 -0.553402,-0.206692 -0.653414,0 -1.046796,0.433386 -0.393382,0.433387 -0.513397,0.846772 -0.120014,0.413384 -0.120014,1.22015 0,0.846771 0.113347,1.293493 0.113347,0.446722 0.540067,0.773429 0.433386,0.320039 0.960118,0.320039 0.546734,0 0.780096,-0.460056 0.233363,-0.466725 0.233363,-1.926905 z"
           style="font-style:normal;font-variant:normal;font-weight:normal;font-stretch:normal;font-size:13.65501881px;font-family:'Bodoni MT';-inkscape-font-specification:'Bodoni MT';text-align:center;text-anchor:middle;stroke-width:0.32003948"
           id="path4696" />
        <path
           d="m 59.971235,74.432426 v -4.560563 h -1.080134 v -0.340042 h 1.093469 q 0.840103,0 1.280158,-0.08668 v 1.260156 h 0.02667 q 0.466724,-1.260156 1.38017,-1.260156 0.400049,0 0.640079,0.246697 0.246697,0.24003 0.246697,0.58674 0,0.320039 -0.200025,0.520064 -0.193357,0.193357 -0.506729,0.193357 -0.573404,0 -0.573404,-0.573404 l 0.02667,-0.286702 q 0,-0.153352 -0.140017,-0.153352 -0.220027,0 -0.560069,0.593406 -0.340042,0.593407 -0.340042,1.813557 v 2.04692 h 1.106803 v 0.340042 h -3.48043 v -0.340042 z"
           style="font-style:normal;font-variant:normal;font-weight:normal;font-stretch:normal;font-size:13.65501881px;font-family:'Bodoni MT';-inkscape-font-specification:'Bodoni MT';text-align:center;text-anchor:middle;stroke-width:0.32003948"
           id="path4698" />
        <path
           d="m 69.132366,71.752095 h -3.37375 q -0.04667,1.973577 0.220027,2.433633 0.266699,0.45339 0.953451,0.45339 1.413508,0 1.913569,-1.640203 h 0.286703 q -0.220028,0.993456 -0.833437,1.466848 -0.613409,0.473392 -1.366835,0.473392 -1.073466,0 -1.866897,-0.793431 -0.793431,-0.800099 -0.793431,-2.006915 0,-1.173478 0.773428,-1.973577 0.780097,-0.800099 1.80689,-0.800099 0.893444,0 1.560193,0.633412 0.673416,0.633412 0.720089,1.75355 z m -3.37375,-0.300037 h 1.940239 q 0.05334,-0.473392 0.05334,-0.720089 0,-1.066798 -0.966786,-1.066798 -0.480059,0 -0.753426,0.260032 -0.273367,0.253364 -0.273367,0.693419 z"
           style="font-style:normal;font-variant:normal;font-weight:normal;font-stretch:normal;font-size:13.65501881px;font-family:'Bodoni MT';-inkscape-font-specification:'Bodoni MT';text-align:center;text-anchor:middle;stroke-width:0.32003948"
           id="path4700" />
        <path
           d="m 70.945923,74.432426 v -4.560563 h -0.946784 v -0.340042 h 0.606742 q 0.900111,0 1.633535,-0.100013 v 1.300161 h 0.02667 q 0.686751,-1.366836 1.940239,-1.366836 0.586739,0 0.960119,0.300038 0.380047,0.300037 0.513397,0.706753 0.140017,0.406717 0.140017,1.260156 v 2.800346 h 1.040128 v 0.340042 h -3.227065 v -0.340042 h 0.886776 v -3.333745 q 0,-0.766762 -0.100012,-1.060131 -0.09334,-0.29337 -0.500062,-0.29337 -0.646746,0 -1.16681,0.666749 -0.513397,0.660082 -0.513397,1.78022 v 2.240277 h 0.873441 v 0.340042 h -3.113718 v -0.340042 z"
           style="font-style:normal;font-variant:normal;font-weight:normal;font-stretch:normal;font-size:13.65501881px;font-family:'Bodoni MT';-inkscape-font-specification:'Bodoni MT';text-align:center;text-anchor:middle;stroke-width:0.32003948"
           id="path4702" />
        <path
           d="m 83.027413,65.731352 v 8.701074 h 0.900111 v 0.340042 h -0.746759 q -0.706753,0 -1.493517,0.08001 v -1.093468 h -0.02667 q -0.533399,1.180146 -1.706878,1.180146 -0.940116,0 -1.660205,-0.833436 -0.713421,-0.840104 -0.713421,-1.900235 0,-1.133473 0.753426,-1.986912 0.760094,-0.853439 1.786888,-0.853439 1.046796,0 1.54019,0.940117 h 0.02667 v -4.133844 h -1.213483 v -0.340042 h 1.213483 q 0.673416,0 1.340165,-0.100012 z m -2.86702,3.933819 q -0.726757,0 -0.913446,0.546734 -0.180023,0.540066 -0.180023,2.200271 0,1.433511 0.233362,1.80689 0.233363,0.373379 0.753427,0.373379 0.560069,0 0.986788,-0.380047 0.42672,-0.380046 0.560069,-0.866773 0.13335,-0.486727 0.13335,-1.580195 0,-1.040129 -0.420052,-1.56686 -0.420052,-0.533399 -1.153475,-0.533399 z"
           style="font-style:normal;font-variant:normal;font-weight:normal;font-stretch:normal;font-size:13.65501881px;font-family:'Bodoni MT';-inkscape-font-specification:'Bodoni MT';text-align:center;text-anchor:middle;stroke-width:0.32003948"
           id="path4704" />
        <path
           d="m 85.514389,66.864825 q 0,-0.29337 0.213359,-0.506729 0.220027,-0.21336 0.513397,-0.21336 0.293369,0 0.506729,0.21336 0.220027,0.206692 0.220027,0.506729 0,0.313372 -0.213359,0.520064 -0.21336,0.206692 -0.513397,0.206692 -0.300037,0 -0.513397,-0.206692 -0.213359,-0.21336 -0.213359,-0.520064 z m 1.340165,2.566983 v 5.000618 h 0.873441 v 0.340042 h -3.100383 v -0.340042 h 0.933449 v -4.560563 h -0.933449 v -0.340042 h 0.946784 q 0.680084,0 1.280158,-0.100013 z"
           style="font-style:normal;font-variant:normal;font-weight:normal;font-stretch:normal;font-size:13.65501881px;font-family:'Bodoni MT';-inkscape-font-specification:'Bodoni MT';text-align:center;text-anchor:middle;stroke-width:0.32003948"
           id="path4706" />
        <path
           d="m 88.74812,71.618745 v -2.086924 h 4.473885 v 0.286702 l -3.207062,4.653908 h 0.913446 q 0.826768,0 1.30016,-0.37338 0.480059,-0.380047 0.740092,-1.56686 h 0.253364 v 2.240277 h -4.680578 v -0.340042 l 3.193728,-4.600568 h -0.913446 q -0.446722,0 -0.760094,0.09334 -0.313372,0.08668 -0.606742,0.480059 -0.293369,0.386714 -0.433386,1.213483 z"
           style="font-style:normal;font-variant:normal;font-weight:normal;font-stretch:normal;font-size:13.65501881px;font-family:'Bodoni MT';-inkscape-font-specification:'Bodoni MT';text-align:center;text-anchor:middle;stroke-width:0.32003948"
           id="path4708" />
        <path
           d="m 97.849243,71.778765 v -0.680084 q 0,-0.833436 -0.140017,-1.093469 -0.13335,-0.260032 -0.733424,-0.260032 -1.080133,0 -1.080133,0.413385 0,0.120015 0.08668,0.266699 0.09334,0.140018 0.09334,0.333375 0,0.273367 -0.180022,0.420052 -0.180023,0.140017 -0.406717,0.140017 -0.29337,0 -0.453389,-0.180022 -0.16002,-0.18669 -0.16002,-0.433387 0,-0.533399 0.620076,-0.893444 0.626744,-0.366712 1.740215,-0.366712 0.893444,0 1.306828,0.206693 0.413384,0.206692 0.506729,0.513396 0.100013,0.306705 0.100013,0.866774 v 2.453636 q 0,0.540067 0.07334,0.673417 0.08001,0.133349 0.24003,0.133349 0.240029,0 0.466724,-0.326707 h 0.16002 q -0.173355,0.973454 -1.133474,0.973454 -0.926781,0 -1.106803,-1.066799 -0.780096,1.066799 -1.826892,1.066799 -0.693419,0 -1.106803,-0.37338 -0.413385,-0.380047 -0.413385,-0.926781 0,-1.70021 3.34708,-1.860229 z m 0,1.026793 v -0.720089 q -1.233485,0.04667 -1.626867,0.37338 -0.393382,0.320039 -0.393382,0.933448 0,0.446722 0.233362,0.693419 0.24003,0.246697 0.546734,0.246697 0.393382,0 0.706754,-0.260032 0.320039,-0.266699 0.426719,-0.533399 0.10668,-0.2667 0.10668,-0.733424 z"
           style="font-style:normal;font-variant:normal;font-weight:normal;font-stretch:normal;font-size:13.65501881px;font-family:'Bodoni MT';-inkscape-font-specification:'Bodoni MT';text-align:center;text-anchor:middle;stroke-width:0.32003948"
           id="path4710" />
        <path
           d="m 106.52365,65.731352 v 8.701074 h 0.90011 v 0.340042 H 106.677 q -0.70675,0 -1.49352,0.08001 v -1.093468 h -0.0267 q -0.5334,1.180146 -1.70687,1.180146 -0.94012,0 -1.66021,-0.833436 -0.71342,-0.840104 -0.71342,-1.900235 0,-1.133473 0.75343,-1.986912 0.76009,-0.853439 1.78688,-0.853439 1.0468,0 1.54019,0.940117 h 0.0267 V 66.171406 H 103.97 v -0.340042 h 1.21348 q 0.67342,0 1.34017,-0.100012 z m -2.86702,3.933819 q -0.72676,0 -0.91345,0.546734 -0.18002,0.540066 -0.18002,2.200271 0,1.433511 0.23336,1.80689 0.23336,0.373379 0.75343,0.373379 0.56007,0 0.98679,-0.380047 0.42672,-0.380046 0.56007,-0.866773 0.13335,-0.486727 0.13335,-1.580195 0,-1.040129 -0.42006,-1.56686 -0.42005,-0.533399 -1.15347,-0.533399 z"
           style="font-style:normal;font-variant:normal;font-weight:normal;font-stretch:normal;font-size:13.65501881px;font-family:'Bodoni MT';-inkscape-font-specification:'Bodoni MT';text-align:center;text-anchor:middle;stroke-width:0.32003948"
           id="path4712" />
        <path
           d="m 108.35721,72.138809 q 0,-1.153476 0.79343,-1.960242 0.79343,-0.813434 1.96691,-0.813434 1.1468,0 1.94024,0.780097 0.80009,0.773429 0.80009,1.940239 0,1.193481 -0.82676,2.026917 -0.82677,0.826769 -1.95358,0.826769 -1.1068,0 -1.91357,-0.806766 -0.80676,-0.813434 -0.80676,-1.99358 z m 4.00049,0 q 0,-1.226818 -0.0867,-1.6202 -0.08,-0.393382 -0.37338,-0.620076 -0.2867,-0.233362 -0.79343,-0.233362 -0.48006,0 -0.79343,0.240029 -0.3067,0.233362 -0.38005,0.626744 -0.0733,0.393382 -0.0733,1.6202 0,1.233486 0.0867,1.633535 0.0933,0.400049 0.39338,0.626744 0.3067,0.226695 0.76676,0.226695 0.46673,0 0.77343,-0.226695 0.31337,-0.233362 0.39338,-0.640079 0.0867,-0.413384 0.0867,-1.633535 z"
           style="font-style:normal;font-variant:normal;font-weight:normal;font-stretch:normal;font-size:13.65501881px;font-family:'Bodoni MT';-inkscape-font-specification:'Bodoni MT';text-align:center;text-anchor:middle;stroke-width:0.32003948"
           id="path4714" />
        <path
           d="m 115.19805,74.092384 q 0,-0.340042 0.24003,-0.586739 0.2467,-0.246698 0.58674,-0.246698 0.35338,0 0.60007,0.246698 0.2467,0.240029 0.2467,0.586739 0,0.346709 -0.2467,0.600074 -0.24669,0.246697 -0.60007,0.246697 -0.34004,0 -0.58674,-0.246697 -0.24003,-0.253365 -0.24003,-0.600074 z"
           style="font-style:normal;font-variant:normal;font-weight:normal;font-stretch:normal;font-size:13.65501881px;font-family:'Bodoni MT';-inkscape-font-specification:'Bodoni MT';text-align:center;text-anchor:middle;stroke-width:0.32003948"
           id="path4716" />
      </g>
      <text
         id="text6080-5-9"
         y="-16.660654"
         x="-86.258575"
         style="font-style:normal;font-variant:normal;font-weight:normal;font-stretch:normal;font-size:11.94814014px;line-height:1.25;font-family:Calligraffitti;-inkscape-font-specification:Calligraffitti;letter-spacing:0px;word-spacing:0px;fill:#000000;fill-opacity:1;stroke:none;stroke-width:0.32003948"
         xml:space="preserve"><tspan
           id="tspan4533-2"
           style="font-style:normal;font-variant:normal;font-weight:normal;font-stretch:normal;font-size:13.65501881px;font-family:'Bodoni MT';-inkscape-font-specification:'Bodoni MT';text-align:center;text-anchor:middle;stroke-width:0.32003948"
           y="-16.660654"
           x="-86.258575"
           sodipodi:role="line">Aqui você pode</tspan><tspan
           style="font-style:normal;font-variant:normal;font-weight:normal;font-stretch:normal;font-size:13.65501881px;font-family:'Bodoni MT';-inkscape-font-specification:'Bodoni MT';text-align:center;text-anchor:middle;stroke-width:0.32003948"
           y="0.48466367"
           x="-86.258575"
           sodipodi:role="line"
           id="tspan5267-9">fazer novamente, as</tspan><tspan
           style="font-style:normal;font-variant:normal;font-weight:normal;font-stretch:normal;font-size:13.65501881px;font-family:'Bodoni MT';-inkscape-font-specification:'Bodoni MT';text-align:center;text-anchor:middle;stroke-width:0.32003948"
           y="17.629982"
           x="-86.258575"
           sodipodi:role="line"
           id="tspan4526-2">atividades já terminadas</tspan><tspan
           style="font-style:normal;font-variant:normal;font-weight:normal;font-stretch:normal;font-size:13.65501881px;font-family:'Bodoni MT';-inkscape-font-specification:'Bodoni MT';text-align:center;text-anchor:middle;stroke-width:0.32003948"
           y="34.775299"
           x="-86.258575"
           sodipodi:role="line"
           id="tspan5269-1">para reforçar o seu</tspan><tspan
           style="font-style:normal;font-variant:normal;font-weight:normal;font-stretch:normal;font-size:13.65501881px;font-family:'Bodoni MT';-inkscape-font-specification:'Bodoni MT';text-align:center;text-anchor:middle;stroke-width:0.32003948"
           y="51.92062"
           x="-86.258575"
           sodipodi:role="line"
           id="tspan5271-4">aprendizado.</tspan></text>
    </g>
  </g>
</svg>
