<?xml version="1.0" encoding="UTF-8" standalone="no"?>
<!-- Created with Inkscape (http://www.inkscape.org/) -->

<svg
   xmlns:dc="http://purl.org/dc/elements/1.1/"
   xmlns:cc="http://creativecommons.org/ns#"
   xmlns:rdf="http://www.w3.org/1999/02/22-rdf-syntax-ns#"
   xmlns:svg="http://www.w3.org/2000/svg"
   xmlns="http://www.w3.org/2000/svg"
   xmlns:sodipodi="http://sodipodi.sourceforge.net/DTD/sodipodi-0.dtd"
   xmlns:inkscape="http://www.inkscape.org/namespaces/inkscape"
   width="170mm"
   height="320mm"
   viewBox="0 0 170 320"
   version="1.1"
   id="svg5205"
   inkscape:version="0.92.1 r15371"
   sodipodi:docname="ajuda-mago-Equipe.svg">
  <defs
     id="defs5199">
    <clipPath
       clipPathUnits="userSpaceOnUse"
       id="clipPath9195">
      <rect
         style="opacity:1;fill:none;fill-opacity:1;stroke:#000000;stroke-width:0.41468519"
         id="rect9197"
         width="286.2865"
         height="173.06219"
         x="636.15247"
         y="341.80554" />
    </clipPath>
  </defs>
  <sodipodi:namedview
     id="base"
     pagecolor="#ffffff"
     bordercolor="#666666"
     borderopacity="1.0"
     inkscape:pageopacity="0.0"
     inkscape:pageshadow="2"
     inkscape:zoom="0.35"
     inkscape:cx="404.46665"
     inkscape:cy="518.7067"
     inkscape:document-units="mm"
     inkscape:current-layer="g5254"
     showgrid="false"
     inkscape:window-width="1366"
     inkscape:window-height="705"
     inkscape:window-x="-8"
     inkscape:window-y="-8"
     inkscape:window-maximized="1" />
  <metadata
     id="metadata5202">
    <rdf:RDF>
      <cc:Work
         rdf:about="">
        <dc:format>image/svg+xml</dc:format>
        <dc:type
           rdf:resource="http://purl.org/dc/dcmitype/StillImage" />
        <dc:title></dc:title>
      </cc:Work>
    </rdf:RDF>
  </metadata>
  <g
     inkscape:label="Camada 1"
     inkscape:groupmode="layer"
     id="layer1"
     transform="translate(0,23.00001)">
    <g
       id="g6040"
       transform="matrix(0.41093878,0,0,0.41093878,240.25032,134.32483)">
      <g
         transform="translate(-509.53549,73.655277)"
         id="g5811">
        <path
           style="fill:#764c24;fill-opacity:1;stroke:#000000;stroke-width:0.26458332px;stroke-linecap:butt;stroke-linejoin:miter;stroke-opacity:1"
           d="m 134.1693,295.39639 c 2.55005,7.31887 -2.64304,8.61529 -6.1472,11.22532 -20.24731,11.30922 -48.462794,17.46599 -56.928406,3.20722 -0.273245,-12.95769 4.285632,-17.86184 12.561668,-16.57072 -5.487687,8.06882 -3.947958,14.66893 8.819893,6.14722 l 8.552625,-6.94901 z"
           id="path5792"
           inkscape:connector-curvature="0"
           sodipodi:nodetypes="ccccccc" />
        <path
           style="fill:#764c24;fill-opacity:1;stroke:#000000;stroke-width:0.26458332px;stroke-linecap:butt;stroke-linejoin:miter;stroke-opacity:1"
           d="m 162.56459,293.78996 c -2.55005,7.31887 2.64304,8.61529 6.1472,11.22532 20.24731,11.30922 48.4628,17.46599 56.92841,3.20722 0.27325,-12.95769 -4.28563,-17.86184 -12.56167,-16.57072 5.48769,8.06882 3.94796,14.66893 -8.81989,6.14722 l -8.55263,-6.94901 z"
           id="path5792-6"
           inkscape:connector-curvature="0"
           sodipodi:nodetypes="ccccccc" />
      </g>
      <g
         transform="matrix(1,0,0,1.0332344,-508.15328,-0.43230931)"
         id="g5837">
        <g
           id="g5832"
           style="stroke:none">
          <path
             sodipodi:nodetypes="cczccc"
             inkscape:connector-curvature="0"
             id="path5813"
             d="m 117.73958,56.418154 c -4.68887,14.051395 -4.73436,18.220571 -4.27041,23.86212 0.22674,3.941473 2.64213,8.647834 6.16029,8.83282 3.51816,0.184986 11.88535,-10.208966 22.11161,-9.449405 l 0.56696,-21.166667 z"
             style="fill:#dfb28b;fill-opacity:1;stroke:none;stroke-width:0.26458332px;stroke-linecap:butt;stroke-linejoin:miter;stroke-opacity:1" />
          <path
             sodipodi:nodetypes="ccccc"
             inkscape:connector-curvature="0"
             id="path5813-0"
             d="m 178.87722,57.646577 c 4.05195,15.065897 -2.68806,31.815542 -16.72544,31.844493 -7.6759,-0.0985 -12.5468,-8.980543 -20.41071,-9.827381 l 0.56696,-21.166667 z"
             style="fill:#cf9e76;fill-opacity:1;stroke:none;stroke-width:0.26458332px;stroke-linecap:butt;stroke-linejoin:miter;stroke-opacity:1" />
        </g>
      </g>
      <g
         transform="translate(-508.34664,-18.708866)"
         style="stroke:none"
         id="g5790">
        <path
           style="fill:#0071bd;fill-opacity:1;stroke:none;stroke-width:0.26458332px;stroke-linecap:butt;stroke-linejoin:miter;stroke-opacity:1"
           d="m 85.839373,363.91942 c -0.309558,25.53848 14.672177,21.76866 25.657877,25.65789 47.95635,2.50543 76.57673,0.0775 89.26802,-6.41448 7.44949,-3.90569 14.64492,-8.20965 15.50163,-22.45063 -0.6582,-19.77795 3.61584,-84.91303 -2.98582,-154.58384 12.47868,-1.29119 25.36867,-2.11232 31.00327,-11.22532 -5.68163,-29.80332 -14.44282,-58.65908 -33.14143,-84.45717 l -122.943977,5.34539 c -22.27246,20.38118 -37.061374,51.72759 -55.592061,56.66114 -5.373203,19.74383 -4.323969,37.07925 6.414468,50.78121 17.048359,20.5065 17.179195,12.25402 23.611431,11.75986 6.050952,-7.46923 8.935858,-5.58257 27.16978,-37.41774 -9.318439,60.91588 -3.525178,140.96294 -3.963188,166.34369 z"
           id="path5784"
           inkscape:connector-curvature="0"
           sodipodi:nodetypes="ccccccccccccc" />
        <path
           style="fill:#005995;fill-opacity:1;stroke:none;stroke-width:0.26458332px;stroke-linecap:butt;stroke-linejoin:miter;stroke-opacity:1"
           d="m 32.606882,172.4524 c 9.719876,1.32012 19.153007,7.51491 27.869308,25.89581 13.124981,37.13936 1.731099,35.27143 -6.425597,38.55357 C 20.565245,217.58551 29.865923,190.0129 32.606882,172.4524 Z"
           id="path5786"
           inkscape:connector-curvature="0"
           sodipodi:nodetypes="cccc" />
      </g>
      <g
         style="fill:#ecf3fb;fill-opacity:1"
         transform="translate(-508.34664,1.6036175)"
         id="g5777">
        <path
           style="fill:#cccccc;fill-opacity:1;stroke:none;stroke-width:0.26458332px;stroke-linecap:butt;stroke-linejoin:miter;stroke-opacity:1"
           d="m 115.46044,56.457423 v 0 l 2.67269,0.400905 c -3.65491,12.639689 -7.53376,25.387957 0.26727,32.473249 -5.3841,0.615618 -13.80755,-9.581829 -2.93996,-32.874154 z"
           id="path5769"
           inkscape:connector-curvature="0"
           sodipodi:nodetypes="ccccc" />
        <path
           style="fill:#ecf3fb;fill-opacity:1;stroke:none;stroke-width:0.26458332px;stroke-linecap:butt;stroke-linejoin:miter;stroke-opacity:1"
           d="m 115.46044,56.457423 -13.36348,-3.207234 c -35.621911,51.532041 2.69484,143.227471 49.17759,158.223561 -5.84103,-6.61436 -10.32917,-13.364 -2.13816,-21.38156 45.7216,-38.88688 67.59487,-72.47413 62.00653,-99.958804 -1.49135,-11.024688 -4.2784,-22.308516 -12.82893,-34.745041 l -19.24341,2.138156 c 3.6568,19.158434 -3.74871,29.353531 -14.03164,31.938711 -10.28294,2.585181 -14.56812,-9.786982 -24.45517,-10.022609 -9.88705,-0.235627 -13.71557,10.063579 -22.04974,9.888975 -8.33416,-0.174605 -10.01277,-18.704344 -3.07359,-32.874155 z"
           id="path5767"
           inkscape:connector-curvature="0"
           sodipodi:nodetypes="ccccccczzzc" />
        <path
           inkscape:transform-center-y="-0.80912441"
           inkscape:transform-center-x="-0.40680364"
           d="m 189.07857,188.92051 -6.95505,-4.6441 -7.76863,3.09658 2.26759,-8.04975 -5.34567,-6.43151 8.35649,-0.33091 4.46482,-7.07147 2.89702,7.84523 8.10508,2.0611 -6.56604,5.17953 z"
           inkscape:randomized="0"
           inkscape:rounded="0"
           inkscape:flatsided="false"
           sodipodi:arg2="1.6755161"
           sodipodi:arg1="1.0471976"
           sodipodi:r2="6.2968493"
           sodipodi:r1="12.593697"
           sodipodi:cy="178.01405"
           sodipodi:cx="182.78172"
           sodipodi:sides="5"
           id="path5992-2"
           style="opacity:1;fill:#f8d534;fill-opacity:1;stroke:none;stroke-width:0.43749675"
           sodipodi:type="star" />
      </g>
      <g
         id="g5782">
        <path
           style="fill:#005995;fill-opacity:1;stroke:none;stroke-width:0.26371107px;stroke-linecap:butt;stroke-linejoin:miter;stroke-opacity:1"
           d="m -450.92584,22.211309 c 0,0 -4.88289,37.57406 98.75337,38.55357 104.7683,0.990211 102.88375,-38.175593 102.88375,-38.175593 0,0 -11.15506,31.732051 -104.3857,30.842855 -90.12583,-0.859583 -97.25142,-31.220832 -97.25142,-31.220832 z"
           id="path5761"
           inkscape:connector-curvature="0"
           sodipodi:nodetypes="cscsc" />
        <ellipse
           style="opacity:1;fill:#006db5;fill-opacity:1;stroke:none;stroke-width:10.1013279"
           id="path5763"
           cx="-350.19495"
           cy="21.455357"
           rx="100.73065"
           ry="32.505951" />
        <path
           style="fill:#107fc7;fill-opacity:1;stroke:none;stroke-width:0.26458332px;stroke-linecap:butt;stroke-linejoin:miter;stroke-opacity:1"
           d="m -305.40477,12.761905 c -7.42635,14.437524 -84.24139,20.629163 -92.22619,0 29.891,-46.951725 68.50518,-89.176639 86.93453,-88.824404 7.93224,6.126368 15.24751,24.869346 18.8988,39.687499 l -3.40178,1.511906 c -5.96279,-6.570834 -10.04876,-18.774736 -15.875,-18.142857 -13.12319,40.688955 0.13003,48.4073967 5.66964,65.767856 z"
           id="path5765"
           inkscape:connector-curvature="0"
           sodipodi:nodetypes="ccccccc" />
      </g>
      <path
         sodipodi:nodetypes="ccczczc"
         inkscape:connector-curvature="0"
         id="path5935"
         d="m -449.94932,175.10363 c -3.43084,-6.9033 -8.33645,-11.84023 -13.89802,-15.90254 -2.95935,1.43802 -9.38584,1.14246 -18.04069,-0.26727 -17.54328,2.22487 -17.35579,19.97256 -15.368,30.20148 1.98778,10.2289 11.49259,16.03615 11.49259,16.03615 7.08587,3.7201 15.00113,-6.22615 16.97161,-13.0962 1.97048,-6.87007 2.5678,-8.44036 18.84251,-16.97162 z"
         style="fill:#dfb28b;fill-opacity:1;stroke:none;stroke-width:0.26458332px;stroke-linecap:butt;stroke-linejoin:miter;stroke-opacity:1" />
      <g
         transform="translate(102.89877,-9.8889725)"
         id="g5964">
        <path
           sodipodi:nodetypes="cccczcczzc"
           inkscape:connector-curvature="0"
           id="path5966"
           d="m -369.41791,187.59505 c -5.53476,5.74252 -14.54117,7.55051 -23.78699,9.08716 -2.53806,3.30301 -4.81146,6.90378 -4.54358,13.36348 l 0.80181,10.0226 c 2.05282,3.05162 3.73459,1.76981 4.40994,-1.33634 0.67535,-3.10615 0.0878,-5.22994 2.80633,-9.75534 1.54726,3.52937 2.93918,7.15715 1.73725,12.42803 -2.67267,8.19624 -0.15756,11.00146 6.28083,8.8199 6.4384,-2.18156 15.09057,-7.50947 18.30797,-12.6953 3.2174,-5.18583 -0.91101,-20.73909 -6.01356,-29.93419 z"
           style="fill:#dfb28b;fill-opacity:1;stroke:none;stroke-width:0.26458332px;stroke-linecap:butt;stroke-linejoin:miter;stroke-opacity:1" />
        <path
           style="opacity:1;fill:#c69c6c;fill-opacity:1;stroke:none;stroke-width:0.4480527"
           d="m -584.5071,137.71872 h 7.41499 v 258.43887 c -0.48175,2.65259 -6.61612,3.04525 -7.41499,0 z"
           id="rect5932"
           inkscape:connector-curvature="0"
           sodipodi:nodetypes="ccccc" />
        <g
           id="g5930"
           transform="translate(-378.45365,13.898015)">
          <g
             transform="translate(-236.23456,-0.84766482)"
             id="g5897">
            <path
               style="opacity:1;fill:#998675;fill-opacity:1;stroke:none;stroke-width:0.94488192"
               d="m 164.72656,227.88672 c 26.75988,24.20638 47.9999,61.5393 48.05664,97.62305 8e-5,70.65365 -57.27604,127.92977 -127.929684,127.92968 -25.996192,-0.0113 -56.170264,-15.0132 -77.5462717,-29.8074 28.3734947,42.30266 67.1641637,56.01533 106.8392357,56.03006 72.30542,8.2e-4 130.92074,-58.6145 130.91993,-130.91992 -0.0701,-50.33455 -34.93869,-99.12285 -80.33985,-120.85547 z"
               transform="scale(0.26458333)"
               id="path5859"
               inkscape:connector-curvature="0"
               sodipodi:nodetypes="ccccccc" />
            <path
               style="opacity:1;fill:#c7b199;fill-opacity:1;stroke:none;stroke-width:3.83081412"
               d="m 164.72656,227.88672 c 22.63237,23.51673 35.28016,54.88315 35.29102,87.52148 -3.7e-4,69.74058 -56.53676,126.2761 -126.277346,126.27539 C 46.584808,441.6288 29.819291,436.09713 7.3072443,423.63205 31.10517,448.38132 55.063802,455.30929 89.398438,455.32031 159.13826,455.31994 215.67346,398.78474 215.67383,329.04492 215.61418,289.1732 196.72699,251.6718 164.72656,227.88672 Z"
               id="path5877"
               transform="scale(0.26458333)"
               inkscape:connector-curvature="0"
               sodipodi:nodetypes="ccccccc" />
          </g>
          <g
             transform="matrix(0.6133706,0,0,0.6133706,-77.465707,37.146002)"
             id="g5988">
            <path
               sodipodi:type="star"
               style="opacity:1;fill:#ff7f2a;fill-opacity:1;stroke:none;stroke-width:0.25"
               id="path5968"
               sodipodi:sides="10"
               sodipodi:cx="-216.85294"
               sodipodi:cy="82.596527"
               sodipodi:r1="36.739597"
               sodipodi:r2="18.369799"
               sodipodi:arg1="0.63938591"
               sodipodi:arg2="0.95354517"
               inkscape:flatsided="false"
               inkscape:rounded="0"
               inkscape:randomized="0"
               d="m -187.37079,104.51915 -18.84978,-6.942556 0.3334,20.084876 -11.16907,-16.69627 -11.53586,16.44497 0.77785,-20.072571 -18.99882,6.523651 12.42766,-15.781842 -19.20487,-5.889484 19.33052,-5.46298 -12.07532,-16.053036 18.84978,6.942552 -0.3334,-20.084874 11.16907,16.696267 11.53586,-16.444972 -0.77786,20.072574 18.99883,-6.52365 -12.42767,15.781841 19.20488,5.889484 -19.33052,5.46298 z"
               inkscape:transform-center-x="-6.495238e-006" />
            <circle
               style="opacity:1;fill:#ffd42a;fill-opacity:1;stroke:none;stroke-width:0.29104477"
               id="path5901-1"
               cx="-216.85294"
               cy="82.596527"
               r="20.847023" />
            <path
               style="opacity:1;fill:#d4aa00;fill-opacity:1;stroke:none;stroke-width:0.29104477"
               d="m -199.32047,70.763637 a 22.717911,22.717911 0 0 1 1.36839,7.704442 22.717911,22.717911 0 0 1 -22.71748,22.717991 22.717911,22.717911 0 0 1 -8.22999,-1.567861 20.847023,20.847023 0 0 0 12.95735,4.542871 20.847023,20.847023 0 0 0 20.84679,-20.846787 20.847023,20.847023 0 0 0 -4.22506,-12.550656 z"
               id="path5901"
               inkscape:connector-curvature="0" />
          </g>
        </g>
      </g>
      <path
         sodipodi:nodetypes="cccccc"
         inkscape:connector-curvature="0"
         id="path5937"
         d="m -472.94766,160.12362 c -1.24324,8.34656 -6.17169,11.37004 -11.90625,13.22916 l 0.94494,9.07143 c 5.63811,0.92126 10.1735,0.46414 13.79613,-1.13393 l -0.18898,-20.97768 z"
         style="fill:#dfb28b;fill-opacity:1;stroke:none;stroke-width:0.26458332px;stroke-linecap:butt;stroke-linejoin:miter;stroke-opacity:1" />
    </g>
    <g
       id="g5254"
       transform="translate(3.0238096,0.22678546)">
      <path
         sodipodi:nodetypes="ccccssc"
         inkscape:connector-curvature="0"
         id="path4535"
         d="m 164.93944,35.327817 c -5.51288,33.344742 -30.79898,45.154178 -52.50285,50.898594 -4.82819,1.248281 -15.098425,31.555969 -15.098425,31.555969 0,0 -9.813185,-27.83275 -14.900818,-27.83275 -45.56465,0 -82.50209652,-24.455019 -82.50209652,-54.621813 -1.21e-6,-30.1667934 36.93744652,-54.621812 82.50209652,-54.621815 45.564663,0 82.502093,24.4550216 82.502093,54.621815 z"
         style="opacity:1;fill:#ffffff;fill-opacity:1;stroke:#000000;stroke-width:0.9014895" />
      <flowRoot
         xml:space="preserve"
         id="flowRoot5335-4"
         style="font-style:normal;font-variant:normal;font-weight:normal;font-stretch:normal;font-size:37.33333206px;line-height:1.25;font-family:'Bodoni MT';-inkscape-font-specification:'Bodoni MT';text-align:center;letter-spacing:0px;word-spacing:0px;text-anchor:middle;fill:#000000;fill-opacity:1;stroke:none"
         transform="matrix(0.26458333,0,0,0.26458333,222.15075,5.2990833)"><flowRegion
           id="flowRegion5337-1"
           style="font-style:normal;font-variant:normal;font-weight:normal;font-stretch:normal;font-family:'Bodoni MT';-inkscape-font-specification:'Bodoni MT';text-align:center;text-anchor:middle"><rect
             id="rect5339-0"
             width="548.57141"
             height="354.28571"
             x="37.142857"
             y="-110.30374"
             style="font-style:normal;font-variant:normal;font-weight:normal;font-stretch:normal;font-family:'Bodoni MT';-inkscape-font-specification:'Bodoni MT';text-align:center;text-anchor:middle" /></flowRegion><flowPara
           id="flowPara5343-4"
           style="font-size:48px">Ao terminar</flowPara><flowPara
           style="font-size:48px"
           id="flowPara5347-7">suas tarefas você se torna</flowPara><flowPara
           style="font-size:48px"
           id="flowPara5349-4">o criador da sua própria. Aqui você pode ver o resumo de todas as suas eventuras</flowPara></flowRoot>      <g
         aria-label="Aqui você
pode entrar em contato
com a sua equipe de maneira mais rápida e ver a vida do monstro da semana."
         transform="matrix(0.26458333,0,0,0.26458333,-1.3087773,16.033611)"
         style="font-style:normal;font-variant:normal;font-weight:normal;font-stretch:normal;font-size:37.33333206px;line-height:1.25;font-family:'Bodoni MT';-inkscape-font-specification:'Bodoni MT';text-align:center;letter-spacing:0px;word-spacing:0px;text-anchor:middle;fill:#000000;fill-opacity:1;stroke:none"
         id="flowRoot5335-4-6">
        <path
           d="m 231.60059,-79.590428 h -9.98438 l -3.21094,8.601563 h 5.8125 v 1.195312 h -11.39062 v -1.195312 h 4.33594 l 11.46093,-30.960935 h 0.72657 l 10.99218,30.960935 h 4.21875 v 1.195312 h -14.97656 v -1.195312 h 5.08594 z m -9.53907,-1.195312 h 9.11719 l -4.42969,-12.585938 h -0.0937 z"
           style="font-size:48px"
           id="path5785" />
        <path
           d="m 262.4209,-72.863865 h -0.0937 q -1.94531,3.351562 -5.48438,3.351562 -3.375,0 -6.14062,-2.953125 -2.74219,-2.976562 -2.74219,-7.03125 0,-3.796875 2.50781,-6.539062 2.53125,-2.765625 5.85938,-2.765625 4.05469,0 6,3.984375 h 0.0937 v -3.703125 q 2.78906,0.304687 5.36719,0.304687 h 2.64843 v 1.195313 h -3.46875 v 28.171875 h 3.1875 v 1.335937 h -11.53125 v -1.335937 h 3.79688 z m 0,-6.09375 q 0,-2.835938 -0.44531,-4.289063 -0.42188,-1.476562 -1.80469,-2.976562 -1.35938,-1.523438 -3.65625,-1.523438 -1.125,0 -2.01563,0.75 -0.86718,0.75 -1.07812,2.367188 -0.21094,1.617187 -0.21094,5.671875 0,5.132812 0.82031,6.773437 0.82032,1.617188 2.71875,1.617188 1.875,0 3.375,-1.125 1.5,-1.148438 1.89844,-2.71875 0.39844,-1.570313 0.39844,-4.546875 z"
           style="font-size:48px"
           id="path5787" />
        <path
           d="m 293.14746,-88.215428 v 17.226563 h 3.16406 v 1.195312 h -3.16406 q -3.65625,0 -4.61719,0.28125 v -4.359375 h -0.0937 q -2.10937,4.359375 -6.63281,4.359375 -2.60156,0 -4.19531,-1.359375 -1.57031,-1.382812 -1.57031,-5.789062 v -10.359375 h -3.39844 v -1.195313 h 7.96875 v 12.375 q 0,2.90625 0.35156,4.03125 0.35156,1.101563 1.80469,1.101563 2.15625,0 3.98437,-2.296875 1.82813,-2.320313 1.82813,-6.960938 v -7.054687 h -3.75 v -1.195313 z"
           style="font-size:48px"
           id="path5789" />
        <path
           d="m 302.05371,-97.590428 q 0,-1.03125 0.75,-1.78125 0.77344,-0.750002 1.80469,-0.750002 1.03125,0 1.78125,0.750002 0.77344,0.726563 0.77344,1.78125 0,1.101563 -0.75,1.828125 -0.75,0.726563 -1.80469,0.726563 -1.05469,0 -1.80469,-0.726563 -0.75,-0.75 -0.75,-1.828125 z m 4.71094,9.023438 v 17.578125 h 3.07031 v 1.195312 h -10.89844 v -1.195312 h 3.28125 v -16.03125 h -3.28125 v -1.195313 h 3.32813 q 2.39062,0 4.5,-0.351562 z"
           style="font-size:48px"
           id="path5791" />
        <path
           d="m 344.75684,-87.020115 -8.88282,17.953125 h -0.60937 l -9.02344,-17.953125 h -2.83594 v -1.195313 h 11.50782 v 1.195313 h -3.53907 l 6.14063,12.46875 6.04687,-12.46875 h -3.53906 v -1.195313 h 7.61719 v 1.195313 z"
           style="font-size:48px"
           id="path5793" />
        <path
           d="m 348.88184,-79.051365 q 0,-4.054688 2.78906,-6.890625 2.78906,-2.859375 6.91406,-2.859375 4.03125,0 6.82031,2.742187 2.8125,2.71875 2.8125,6.820313 0,4.195312 -2.90625,7.125 -2.90625,2.90625 -6.86718,2.90625 -3.89063,0 -6.72657,-2.835938 -2.83593,-2.859375 -2.83593,-7.007812 z m 14.0625,0 q 0,-4.3125 -0.30469,-5.695313 -0.28125,-1.382812 -1.3125,-2.179687 -1.00781,-0.820313 -2.78906,-0.820313 -1.6875,0 -2.78907,0.84375 -1.07812,0.820313 -1.33593,2.203125 -0.25782,1.382813 -0.25782,5.695313 0,4.335937 0.30469,5.742187 0.32813,1.40625 1.38281,2.203125 1.07813,0.796875 2.69532,0.796875 1.64062,0 2.71875,-0.796875 1.10156,-0.820312 1.38281,-2.25 0.30469,-1.453125 0.30469,-5.742187 z"
           style="font-size:48px"
           id="path5795" />
        <path
           d="m 388.49121,-76.168553 h 1.00781 q -0.70312,3.398438 -2.76562,5.179688 -2.0625,1.78125 -4.96875,1.78125 -3.96094,0 -6.70313,-2.929688 -2.74218,-2.953125 -2.74218,-6.773437 0,-3.9375 2.8125,-6.914063 2.8125,-2.976562 6.98437,-2.976562 2.97656,0 4.85156,1.523437 1.875,1.5 1.875,3.375 0,0.9375 -0.65625,1.6875 -0.63281,0.75 -1.66406,0.75 -1.00781,0 -1.6875,-0.632812 -0.65625,-0.632813 -0.65625,-1.664063 0,-0.726562 0.5625,-1.429687 0.58594,-0.703125 0.58594,-0.960938 0,-0.632812 -0.86719,-1.101562 -0.86719,-0.492188 -2.25,-0.492188 -2.4375,0 -3.63281,1.3125 -1.17188,1.3125 -1.17188,5.554688 0,4.242187 0.21094,6.28125 0.23438,2.015625 1.19531,3.1875 0.96094,1.148437 3.16407,1.148437 4.64062,0 6.51562,-5.90625 z"
           style="font-size:48px"
           id="path5797" />
        <path
           d="m 409.74902,-80.41074 h -11.85937 q -0.16406,6.9375 0.77344,8.554687 0.9375,1.59375 3.35156,1.59375 4.96875,0 6.72656,-5.765625 h 1.00781 q -0.77343,3.492188 -2.92968,5.15625 -2.15625,1.664063 -4.80469,1.664063 -3.77344,0 -6.5625,-2.789063 -2.78906,-2.8125 -2.78906,-7.054687 0,-4.125 2.71875,-6.9375 2.74218,-2.8125 6.35156,-2.8125 3.14062,0 5.48437,2.226562 2.36719,2.226563 2.53125,6.164063 z m -11.85937,-1.054688 h 6.82031 q 0.1875,-1.664062 0.1875,-2.53125 0,-3.75 -3.39844,-3.75 -1.6875,0 -2.64843,0.914063 -0.96094,0.890625 -0.96094,2.4375 z m -3.14063,-10.6875 5.46094,-7.921872 h 1.78125 l 5.46094,7.921872 h -1.28906 l -5.03907,-4.429687 -5.08593,4.429687 z"
           style="font-size:48px"
           id="path5799" />
        <path
           d="M 87.014648,-12.863865 V 1.1517597 h 3.796875 V 2.4876972 H 79.303711 V 1.1517597 h 3.164062 V -27.020115 h -3.46875 v -1.195313 h 2.648438 q 2.90625,0 5.367187,-0.304687 v 3.703125 h 0.09375 q 1.945313,-3.984375 6,-3.984375 3.328125,0 5.835938,2.765625 2.531254,2.742187 2.531254,6.539062 0,4.054688 -2.765629,7.03125 -2.742188,2.9531252 -6.117188,2.9531252 -3.539062,0 -5.484375,-3.3515622 z m 9.234375,-6.09375 q 0,-4.382813 -0.257812,-5.859375 -0.234375,-1.5 -1.125,-2.203125 -0.867188,-0.726563 -1.945313,-0.726563 -2.296875,0 -3.679687,1.523438 -1.382813,1.523437 -1.804688,2.976562 -0.421875,1.453125 -0.421875,4.289063 0,2.976562 0.398438,4.546875 0.398437,1.570312 1.898437,2.71875 1.523438,1.125 3.375,1.125 1.921875,0 2.742188,-1.617188 0.820312,-1.640625 0.820312,-6.773437 z"
           style="font-size:48px"
           id="path5801" />
        <path
           d="m 105.88184,-19.051365 q 0,-4.054688 2.78906,-6.890625 2.78906,-2.859375 6.91406,-2.859375 4.03125,0 6.82031,2.742187 2.8125,2.71875 2.8125,6.820313 0,4.195312 -2.90625,7.125 -2.90625,2.9062497 -6.86718,2.9062497 -3.89063,0 -6.72657,-2.8359377 -2.83593,-2.859375 -2.83593,-7.007812 z m 14.0625,0 q 0,-4.3125 -0.30469,-5.695313 -0.28125,-1.382812 -1.3125,-2.179687 -1.00781,-0.820313 -2.78906,-0.820313 -1.6875,0 -2.78907,0.84375 -1.07812,0.820313 -1.33593,2.203125 -0.25782,1.382813 -0.25782,5.695313 0,4.335937 0.30469,5.742187 0.32813,1.40625 1.38281,2.203125 1.07813,0.796875 2.69532,0.796875 1.64062,0 2.71875,-0.796875 1.10156,-0.820312 1.38281,-2.25 0.30469,-1.453125 0.30469,-5.742187 z"
           style="font-size:48px"
           id="path5803" />
        <path
           d="m 148.46777,-41.574803 v 30.585938 h 3.16407 v 1.1953122 h -2.625 q -2.48438,0 -5.25,0.28125 v -3.8437502 h -0.0937 q -1.875,4.1484377 -6,4.1484377 -3.30469,0 -5.83594,-2.9296877 -2.50781,-2.953125 -2.50781,-6.679687 0,-3.984375 2.64843,-6.984375 2.67188,-3 6.28125,-3 3.67969,0 5.41407,3.304687 h 0.0937 v -14.53125 h -4.26563 v -1.195312 h 4.26563 q 2.36718,0 4.71093,-0.351563 z m -10.07812,13.828125 q -2.55469,0 -3.21094,1.921875 -0.63281,1.898438 -0.63281,7.734375 0,5.039063 0.82031,6.351563 0.82031,1.3125 2.64844,1.3125 1.96875,0 3.46875,-1.335938 1.5,-1.335937 1.96875,-3.046875 0.46875,-1.710937 0.46875,-5.554687 0,-3.65625 -1.47656,-5.507813 -1.47657,-1.875 -4.05469,-1.875 z"
           style="font-size:48px"
           id="path5805" />
        <path
           d="M 171.71777,-20.41074 H 159.8584 q -0.16406,6.9375 0.77344,8.554687 0.9375,1.59375 3.35156,1.59375 4.96875,0 6.72656,-5.765625 h 1.00781 q -0.77343,3.492188 -2.92968,5.15625 -2.15625,1.6640627 -4.80469,1.6640627 -3.77344,0 -6.5625,-2.7890627 -2.78906,-2.8125 -2.78906,-7.054687 0,-4.125 2.71875,-6.9375 2.74218,-2.8125 6.35156,-2.8125 3.14062,0 5.48437,2.226562 2.36719,2.226563 2.53125,6.164063 z m -11.85937,-1.054688 h 6.82031 q 0.1875,-1.664062 0.1875,-2.53125 0,-3.75 -3.39844,-3.75 -1.6875,0 -2.64843,0.914063 -0.96094,0.890625 -0.96094,2.4375 z"
           style="font-size:48px"
           id="path5807" />
        <path
           d="m 204.06152,-20.41074 h -11.85937 q -0.16406,6.9375 0.77344,8.554687 0.9375,1.59375 3.35156,1.59375 4.96875,0 6.72656,-5.765625 h 1.00781 q -0.77343,3.492188 -2.92968,5.15625 -2.15625,1.6640627 -4.80469,1.6640627 -3.77344,0 -6.5625,-2.7890627 -2.78906,-2.8125 -2.78906,-7.054687 0,-4.125 2.71875,-6.9375 2.74218,-2.8125 6.35156,-2.8125 3.14062,0 5.48437,2.226562 2.36719,2.226563 2.53125,6.164063 z m -11.85937,-1.054688 h 6.82031 q 0.1875,-1.664062 0.1875,-2.53125 0,-3.75 -3.39844,-3.75 -1.6875,0 -2.64843,0.914063 -0.96094,0.890625 -0.96094,2.4375 z"
           style="font-size:48px"
           id="path5809" />
        <path
           d="m 210.43652,-10.988865 v -16.03125 h -3.32812 v -1.195313 h 2.13281 q 3.16406,0 5.74219,-0.351562 v 4.570312 h 0.0937 q 2.41406,-4.804687 6.82031,-4.804687 2.0625,0 3.375,1.054687 1.33594,1.054688 1.80469,2.484375 0.49219,1.429688 0.49219,4.429688 v 9.84375 h 3.65625 v 1.1953122 h -11.34375 v -1.1953122 h 3.11718 v -11.71875 q 0,-2.695313 -0.35156,-3.726563 -0.32812,-1.03125 -1.75781,-1.03125 -2.27344,0 -4.10156,2.34375 -1.80469,2.320313 -1.80469,6.257813 v 7.875 h 3.07031 v 1.1953122 H 207.1084 v -1.1953122 z"
           style="font-size:48px"
           id="path5811" />
        <path
           d="m 241.63184,-33.559178 v 5.34375 h 5.55468 v 1.195313 h -5.55468 v 11.601562 q 0,2.554688 0.32812,3.492188 0.35156,0.9375 1.82813,0.9375 1.125,0 2.15625,-0.75 1.05468,-0.75 1.59375,-2.320313 h 1.00781 q -1.07813,4.5468752 -6.53906,4.5468752 -2.29688,0 -3.375,-0.8203122 -1.07813,-0.84375 -1.33594,-2.0625 -0.23438,-1.21875 -0.23438,-3.304688 v -11.320312 h -4.17187 v -1.195313 h 4.17187 v -4.945312 q 2.32032,0 4.57032,-0.398438 z"
           style="font-size:48px"
           id="path5814" />
        <path
           d="m 254.45215,-10.988865 v -16.03125 h -3.79688 v -1.195313 h 3.84375 q 2.95313,0 4.5,-0.304687 v 4.429687 h 0.0937 q 1.64063,-4.429687 4.85157,-4.429687 1.40625,0 2.25,0.867187 0.86718,0.84375 0.86718,2.0625 0,1.125 -0.70312,1.828125 -0.67969,0.679688 -1.78125,0.679688 -2.01563,0 -2.01563,-2.015625 l 0.0937,-1.007813 q 0,-0.539062 -0.49218,-0.539062 -0.77344,0 -1.96875,2.085937 -1.19532,2.085938 -1.19532,6.375 v 7.195313 h 3.89063 v 1.1953122 h -12.23438 v -1.1953122 z"
           style="font-size:48px"
           id="path5816" />
        <path
           d="m 281.94434,-20.31699 v -2.390625 q 0,-2.929688 -0.49219,-3.84375 -0.46875,-0.914063 -2.57813,-0.914063 -3.79687,0 -3.79687,1.453125 0,0.421875 0.30469,0.9375 0.32812,0.492188 0.32812,1.171875 0,0.960938 -0.63281,1.476563 -0.63281,0.492187 -1.42969,0.492187 -1.03125,0 -1.59375,-0.632812 -0.5625,-0.65625 -0.5625,-1.523438 0,-1.875 2.17969,-3.140625 2.20312,-1.289062 6.11719,-1.289062 3.14062,0 4.59375,0.726562 1.45312,0.726563 1.78125,1.804688 0.35156,1.078125 0.35156,3.046875 v 8.625 q 0,1.898437 0.25781,2.367187 0.28125,0.46875 0.84375,0.46875 0.84375,0 1.64063,-1.148437 h 0.5625 q -0.60938,3.4218747 -3.98438,3.4218747 -3.25781,0 -3.89062,-3.7499997 -2.74219,3.7499997 -6.42188,3.7499997 -2.4375,0 -3.89062,-1.3124997 -1.45313,-1.335938 -1.45313,-3.257813 0,-5.976562 11.76563,-6.539062 z m 0,3.609375 v -2.53125 q -4.33594,0.164062 -5.71875,1.3125 -1.38282,1.125 -1.38282,3.28125 0,1.570312 0.82032,2.4375 0.84375,0.867187 1.92187,0.867187 1.38281,0 2.48438,-0.914062 1.125,-0.9375 1.5,-1.875 0.375,-0.9375 0.375,-2.578125 z"
           style="font-size:48px"
           id="path5818" />
        <path
           d="m 295.9834,-10.988865 v -16.03125 h -3.79688 v -1.195313 h 3.84375 q 2.95313,0 4.5,-0.304687 v 4.429687 h 0.0937 q 1.64063,-4.429687 4.85157,-4.429687 1.40625,0 2.25,0.867187 0.86718,0.84375 0.86718,2.0625 0,1.125 -0.70312,1.828125 -0.67969,0.679688 -1.78125,0.679688 -2.01563,0 -2.01563,-2.015625 l 0.0937,-1.007813 q 0,-0.539062 -0.49218,-0.539062 -0.77344,0 -1.96875,2.085937 -1.19532,2.085938 -1.19532,6.375 v 7.195313 h 3.89063 v 1.1953122 h -12.23438 v -1.1953122 z"
           style="font-size:48px"
           id="path5820" />
        <path
           d="m 339.99902,-20.41074 h -11.85937 q -0.16406,6.9375 0.77344,8.554687 0.9375,1.59375 3.35156,1.59375 4.96875,0 6.72656,-5.765625 h 1.00781 q -0.77343,3.492188 -2.92968,5.15625 -2.15625,1.6640627 -4.80469,1.6640627 -3.77344,0 -6.5625,-2.7890627 -2.78906,-2.8125 -2.78906,-7.054687 0,-4.125 2.71875,-6.9375 2.74218,-2.8125 6.35156,-2.8125 3.14062,0 5.48437,2.226562 2.36719,2.226563 2.53125,6.164063 z m -11.85937,-1.054688 h 6.82031 q 0.1875,-1.664062 0.1875,-2.53125 0,-3.75 -3.39844,-3.75 -1.6875,0 -2.64843,0.914063 -0.96094,0.890625 -0.96094,2.4375 z"
           style="font-size:48px"
           id="path5822" />
        <path
           d="m 346.65527,-10.988865 v -16.03125 h -3.30468 v -1.195313 h 2.0625 q 3.65625,0 5.8125,-0.304687 v 4.523437 h 0.0937 q 1.85156,-4.523437 6.60937,-4.523437 5.17969,0 5.71875,4.804687 h 0.0937 q 2.03906,-4.804687 6.77344,-4.804687 2.10937,0 3.53906,1.054687 1.45313,1.054688 1.78125,2.4375 0.35156,1.382813 0.35156,4.570313 v 9.46875 h 3.25782 v 1.1953122 H 368.5459 v -1.1953122 h 3.07031 V -22.56699 q 0,-2.742188 -0.32812,-3.773438 -0.30469,-1.03125 -1.6875,-1.03125 -1.89844,0 -3.91407,2.15625 -1.99218,2.132813 -1.99218,8.132813 v 6.09375 h 3.02343 v 1.1953122 h -10.61718 v -1.1953122 h 3.04687 v -9.070313 q 0,-5.296875 -0.39844,-6.304687 -0.375,-1.007813 -1.82812,-1.007813 -1.99219,0 -3.49219,1.757813 -1.47656,1.757812 -1.85156,3.421875 -0.35156,1.664062 -0.35156,5.296875 v 5.90625 h 3.02343 v 1.1953122 h -10.89843 v -1.1953122 z"
           style="font-size:48px"
           id="path5824" />
        <path
           d="m 410.61621,-16.168553 h 1.00781 q -0.70312,3.398438 -2.76562,5.179688 -2.0625,1.7812497 -4.96875,1.7812497 -3.96094,0 -6.70313,-2.9296877 -2.74218,-2.953125 -2.74218,-6.773437 0,-3.9375 2.8125,-6.914063 2.8125,-2.976562 6.98437,-2.976562 2.97656,0 4.85156,1.523437 1.875,1.5 1.875,3.375 0,0.9375 -0.65625,1.6875 -0.63281,0.75 -1.66406,0.75 -1.00781,0 -1.6875,-0.632812 -0.65625,-0.632813 -0.65625,-1.664063 0,-0.726562 0.5625,-1.429687 0.58594,-0.703125 0.58594,-0.960938 0,-0.632812 -0.86719,-1.101562 -0.86719,-0.492188 -2.25,-0.492188 -2.4375,0 -3.63281,1.3125 -1.17188,1.3125 -1.17188,5.554688 0,4.242187 0.21094,6.28125 0.23438,2.015625 1.19531,3.1875 0.96094,1.148437 3.16407,1.148437 4.64062,0 6.51562,-5.90625 z"
           style="font-size:48px"
           id="path5826" />
        <path
           d="m 415.06934,-19.051365 q 0,-4.054688 2.78906,-6.890625 2.78906,-2.859375 6.91406,-2.859375 4.03125,0 6.82031,2.742187 2.8125,2.71875 2.8125,6.820313 0,4.195312 -2.90625,7.125 -2.90625,2.9062497 -6.86718,2.9062497 -3.89063,0 -6.72657,-2.8359377 -2.83593,-2.859375 -2.83593,-7.007812 z m 14.0625,0 q 0,-4.3125 -0.30469,-5.695313 -0.28125,-1.382812 -1.3125,-2.179687 -1.00781,-0.820313 -2.78906,-0.820313 -1.6875,0 -2.78907,0.84375 -1.07812,0.820313 -1.33593,2.203125 -0.25782,1.382813 -0.25782,5.695313 0,4.335937 0.30469,5.742187 0.32813,1.40625 1.38281,2.203125 1.07813,0.796875 2.69532,0.796875 1.64062,0 2.71875,-0.796875 1.10156,-0.820312 1.38281,-2.25 0.30469,-1.453125 0.30469,-5.742187 z"
           style="font-size:48px"
           id="path5828" />
        <path
           d="m 441.24902,-10.988865 v -16.03125 h -3.32812 v -1.195313 h 2.13281 q 3.16406,0 5.74219,-0.351562 v 4.570312 h 0.0937 q 2.41406,-4.804687 6.82031,-4.804687 2.0625,0 3.375,1.054687 1.33594,1.054688 1.80469,2.484375 0.49219,1.429688 0.49219,4.429688 v 9.84375 h 3.65625 v 1.1953122 h -11.34375 v -1.1953122 h 3.11718 v -11.71875 q 0,-2.695313 -0.35156,-3.726563 -0.32812,-1.03125 -1.75781,-1.03125 -2.27344,0 -4.10156,2.34375 -1.80469,2.320313 -1.80469,6.257813 v 7.875 h 3.07031 v 1.1953122 H 437.9209 v -1.1953122 z"
           style="font-size:48px"
           id="path5830" />
        <path
           d="m 472.44434,-33.559178 v 5.34375 h 5.55468 v 1.195313 h -5.55468 v 11.601562 q 0,2.554688 0.32812,3.492188 0.35156,0.9375 1.82813,0.9375 1.125,0 2.15625,-0.75 1.05468,-0.75 1.59375,-2.320313 h 1.00781 q -1.07813,4.5468752 -6.53906,4.5468752 -2.29688,0 -3.375,-0.8203122 -1.07813,-0.84375 -1.33594,-2.0625 -0.23438,-1.21875 -0.23438,-3.304688 v -11.320312 h -4.17187 v -1.195313 h 4.17187 v -4.945312 q 2.32032,0 4.57032,-0.398438 z"
           style="font-size:48px"
           id="path5832" />
        <path
           d="m 494.75684,-20.31699 v -2.390625 q 0,-2.929688 -0.49219,-3.84375 -0.46875,-0.914063 -2.57813,-0.914063 -3.79687,0 -3.79687,1.453125 0,0.421875 0.30469,0.9375 0.32812,0.492188 0.32812,1.171875 0,0.960938 -0.63281,1.476563 -0.63281,0.492187 -1.42969,0.492187 -1.03125,0 -1.59375,-0.632812 -0.5625,-0.65625 -0.5625,-1.523438 0,-1.875 2.17969,-3.140625 2.20312,-1.289062 6.11719,-1.289062 3.14062,0 4.59375,0.726562 1.45312,0.726563 1.78125,1.804688 0.35156,1.078125 0.35156,3.046875 v 8.625 q 0,1.898437 0.25781,2.367187 0.28125,0.46875 0.84375,0.46875 0.84375,0 1.64063,-1.148437 h 0.5625 q -0.60938,3.4218747 -3.98438,3.4218747 -3.25781,0 -3.89062,-3.7499997 -2.74219,3.7499997 -6.42188,3.7499997 -2.4375,0 -3.89062,-1.3124997 -1.45313,-1.335938 -1.45313,-3.257813 0,-5.976562 11.76563,-6.539062 z m 0,3.609375 v -2.53125 q -4.33594,0.164062 -5.71875,1.3125 -1.38282,1.125 -1.38282,3.28125 0,1.570312 0.82032,2.4375 0.84375,0.867187 1.92187,0.867187 1.38281,0 2.48438,-0.914062 1.125,-0.9375 1.5,-1.875 0.375,-0.9375 0.375,-2.578125 z"
           style="font-size:48px"
           id="path5834" />
        <path
           d="m 513.50684,-33.559178 v 5.34375 h 5.55468 v 1.195313 h -5.55468 v 11.601562 q 0,2.554688 0.32812,3.492188 0.35156,0.9375 1.82813,0.9375 1.125,0 2.15625,-0.75 1.05468,-0.75 1.59375,-2.320313 h 1.00781 q -1.07813,4.5468752 -6.53906,4.5468752 -2.29688,0 -3.375,-0.8203122 -1.07813,-0.84375 -1.33594,-2.0625 -0.23438,-1.21875 -0.23438,-3.304688 v -11.320312 h -4.17187 v -1.195313 h 4.17187 v -4.945312 q 2.32032,0 4.57032,-0.398438 z"
           style="font-size:48px"
           id="path5836" />
        <path
           d="m 523.72559,-19.051365 q 0,-4.054688 2.78906,-6.890625 2.78906,-2.859375 6.91406,-2.859375 4.03125,0 6.82031,2.742187 2.8125,2.71875 2.8125,6.820313 0,4.195312 -2.90625,7.125 -2.90625,2.9062497 -6.86718,2.9062497 -3.89063,0 -6.72657,-2.8359377 -2.83593,-2.859375 -2.83593,-7.007812 z m 14.0625,0 q 0,-4.3125 -0.30469,-5.695313 -0.28125,-1.382812 -1.3125,-2.179687 -1.00781,-0.820313 -2.78906,-0.820313 -1.6875,0 -2.78907,0.84375 -1.07812,0.820313 -1.33593,2.203125 -0.25782,1.382813 -0.25782,5.695313 0,4.335937 0.30469,5.742187 0.32813,1.40625 1.38281,2.203125 1.07813,0.796875 2.69532,0.796875 1.64062,0 2.71875,-0.796875 1.10156,-0.820312 1.38281,-2.25 0.30469,-1.453125 0.30469,-5.742187 z"
           style="font-size:48px"
           id="path5838" />
        <path
           d="m 129.74121,43.831447 h 1.00781 q -0.70312,3.398438 -2.76562,5.179688 -2.0625,1.78125 -4.96875,1.78125 -3.96094,0 -6.70313,-2.929688 -2.74218,-2.953125 -2.74218,-6.773437 0,-3.9375 2.8125,-6.914063 2.8125,-2.976562 6.98437,-2.976562 2.97656,0 4.85156,1.523437 1.875,1.5 1.875,3.375 0,0.9375 -0.65625,1.6875 -0.63281,0.75 -1.66406,0.75 -1.00781,0 -1.6875,-0.632812 -0.65625,-0.632813 -0.65625,-1.664063 0,-0.726562 0.5625,-1.429687 0.58594,-0.703125 0.58594,-0.960938 0,-0.632812 -0.86719,-1.101562 -0.86719,-0.492188 -2.25,-0.492188 -2.4375,0 -3.63281,1.3125 -1.17188,1.3125 -1.17188,5.554688 0,4.242187 0.21094,6.28125 0.23438,2.015625 1.19531,3.1875 0.96094,1.148437 3.16407,1.148437 4.64062,0 6.51562,-5.90625 z"
           style="font-size:48px"
           id="path5840" />
        <path
           d="m 134.19434,40.948635 q 0,-4.054688 2.78906,-6.890625 2.78906,-2.859375 6.91406,-2.859375 4.03125,0 6.82031,2.742187 2.8125,2.71875 2.8125,6.820313 0,4.195312 -2.90625,7.125 -2.90625,2.90625 -6.86718,2.90625 -3.89063,0 -6.72657,-2.835938 -2.83593,-2.859375 -2.83593,-7.007812 z m 14.0625,0 q 0,-4.3125 -0.30469,-5.695313 -0.28125,-1.382812 -1.3125,-2.179687 -1.00781,-0.820313 -2.78906,-0.820313 -1.6875,0 -2.78907,0.84375 -1.07812,0.820313 -1.33593,2.203125 -0.25782,1.382813 -0.25782,5.695313 0,4.335937 0.30469,5.742187 0.32813,1.40625 1.38281,2.203125 1.07813,0.796875 2.69532,0.796875 1.64062,0 2.71875,-0.796875 1.10156,-0.820312 1.38281,-2.25 0.30469,-1.453125 0.30469,-5.742187 z"
           style="font-size:48px"
           id="path5842" />
        <path
           d="m 160.65527,49.011135 v -16.03125 h -3.30468 v -1.195313 h 2.0625 q 3.65625,0 5.8125,-0.304687 v 4.523437 h 0.0937 q 1.85156,-4.523437 6.60937,-4.523437 5.17969,0 5.71875,4.804687 h 0.0937 q 2.03906,-4.804687 6.77344,-4.804687 2.10937,0 3.53906,1.054687 1.45313,1.054688 1.78125,2.4375 0.35156,1.382813 0.35156,4.570313 v 9.46875 h 3.25782 v 1.195312 H 182.5459 v -1.195312 h 3.07031 V 37.43301 q 0,-2.742188 -0.32812,-3.773438 -0.30469,-1.03125 -1.6875,-1.03125 -1.89844,0 -3.91407,2.15625 -1.99218,2.132813 -1.99218,8.132813 v 6.09375 h 3.02343 v 1.195312 h -10.61718 v -1.195312 h 3.04687 v -9.070313 q 0,-5.296875 -0.39844,-6.304687 -0.375,-1.007813 -1.82812,-1.007813 -1.99219,0 -3.49219,1.757813 -1.47656,1.757812 -1.85156,3.421875 -0.35156,1.664062 -0.35156,5.296875 v 5.90625 h 3.02343 v 1.195312 h -10.89843 v -1.195312 z"
           style="font-size:48px"
           id="path5844" />
        <path
           d="m 220.63184,39.68301 v -2.390625 q 0,-2.929688 -0.49219,-3.84375 -0.46875,-0.914063 -2.57813,-0.914063 -3.79687,0 -3.79687,1.453125 0,0.421875 0.30469,0.9375 0.32812,0.492188 0.32812,1.171875 0,0.960938 -0.63281,1.476563 -0.63281,0.492187 -1.42969,0.492187 -1.03125,0 -1.59375,-0.632812 -0.5625,-0.65625 -0.5625,-1.523438 0,-1.875 2.17969,-3.140625 2.20312,-1.289062 6.11719,-1.289062 3.14062,0 4.59375,0.726562 1.45312,0.726563 1.78125,1.804688 0.35156,1.078125 0.35156,3.046875 v 8.625 q 0,1.898437 0.25781,2.367187 0.28125,0.46875 0.84375,0.46875 0.84375,0 1.64063,-1.148437 h 0.5625 q -0.60938,3.421875 -3.98438,3.421875 -3.25781,0 -3.89062,-3.75 -2.74219,3.75 -6.42188,3.75 -2.4375,0 -3.89062,-1.3125 -1.45313,-1.335938 -1.45313,-3.257813 0,-5.976562 11.76563,-6.539062 z m 0,3.609375 v -2.53125 q -4.33594,0.164062 -5.71875,1.3125 -1.38282,1.125 -1.38282,3.28125 0,1.570312 0.82032,2.4375 0.84375,0.867187 1.92187,0.867187 1.38281,0 2.48438,-0.914062 1.125,-0.9375 1.5,-1.875 0.375,-0.9375 0.375,-2.578125 z"
           style="font-size:48px"
           id="path5846" />
        <path
           d="m 256.4209,31.573635 v 5.25 h -0.96094 q -1.07812,-4.570313 -5.25,-4.570313 -1.80469,0 -3.02344,0.960938 -1.19531,0.9375 -1.19531,2.15625 0,1.03125 0.84375,1.640625 0.86719,0.585937 4.05469,1.007812 7.00781,0.867188 7.00781,6.375 0,2.742188 -1.82812,4.570313 -1.80469,1.828125 -4.5,1.828125 -2.64844,0 -5.13282,-2.179688 l -1.64062,1.40625 h -0.82031 v -6.914062 h 0.82031 q 2.01562,6.632812 6.77344,6.632812 1.80468,0 3.28125,-1.148437 1.47656,-1.148438 1.47656,-2.695313 0,-1.289062 -0.89063,-1.945312 -0.86718,-0.65625 -4.73437,-1.21875 -6.58594,-0.960938 -6.58594,-5.859375 0,-2.414063 1.75781,-4.03125 1.78125,-1.640625 4.33594,-1.640625 2.69531,0 4.52344,1.78125 0.46875,-0.492188 0.96094,-1.40625 z"
           style="font-size:48px"
           id="path5848" />
        <path
           d="m 281.33496,31.784572 v 17.226563 h 3.16406 v 1.195312 h -3.16406 q -3.65625,0 -4.61719,0.28125 v -4.359375 h -0.0937 q -2.10937,4.359375 -6.63281,4.359375 -2.60156,0 -4.19531,-1.359375 -1.57031,-1.382812 -1.57031,-5.789062 V 32.979885 h -3.39844 v -1.195313 h 7.96875 v 12.375 q 0,2.90625 0.35156,4.03125 0.35156,1.101563 1.80469,1.101563 2.15625,0 3.98437,-2.296875 1.82813,-2.320313 1.82813,-6.960938 v -7.054687 h -3.75 v -1.195313 z"
           style="font-size:48px"
           id="path5850" />
        <path
           d="m 300.03809,39.68301 v -2.390625 q 0,-2.929688 -0.49219,-3.84375 -0.46875,-0.914063 -2.57813,-0.914063 -3.79687,0 -3.79687,1.453125 0,0.421875 0.30469,0.9375 0.32812,0.492188 0.32812,1.171875 0,0.960938 -0.63281,1.476563 -0.63281,0.492187 -1.42969,0.492187 -1.03125,0 -1.59375,-0.632812 -0.5625,-0.65625 -0.5625,-1.523438 0,-1.875 2.17969,-3.140625 2.20312,-1.289062 6.11719,-1.289062 3.14062,0 4.59375,0.726562 1.45312,0.726563 1.78125,1.804688 0.35156,1.078125 0.35156,3.046875 v 8.625 q 0,1.898437 0.25781,2.367187 0.28125,0.46875 0.84375,0.46875 0.84375,0 1.64063,-1.148437 h 0.5625 q -0.60938,3.421875 -3.98438,3.421875 -3.25781,0 -3.89062,-3.75 -2.74219,3.75 -6.42188,3.75 -2.4375,0 -3.89062,-1.3125 -1.45313,-1.335938 -1.45313,-3.257813 0,-5.976562 11.76563,-6.539062 z m 0,3.609375 v -2.53125 q -4.33594,0.164062 -5.71875,1.3125 -1.38282,1.125 -1.38282,3.28125 0,1.570312 0.82032,2.4375 0.84375,0.867187 1.92187,0.867187 1.38281,0 2.48438,-0.914062 1.125,-0.9375 1.5,-1.875 0.375,-0.9375 0.375,-2.578125 z"
           style="font-size:48px"
           id="path5852" />
        <path
           d="M 340.09277,39.58926 H 328.2334 q -0.16406,6.9375 0.77344,8.554687 0.9375,1.59375 3.35156,1.59375 4.96875,0 6.72656,-5.765625 h 1.00781 q -0.77343,3.492188 -2.92968,5.15625 -2.15625,1.664063 -4.80469,1.664063 -3.77344,0 -6.5625,-2.789063 -2.78906,-2.8125 -2.78906,-7.054687 0,-4.125 2.71875,-6.9375 2.74218,-2.8125 6.35156,-2.8125 3.14062,0 5.48437,2.226562 2.36719,2.226563 2.53125,6.164063 z M 328.2334,38.534572 h 6.82031 q 0.1875,-1.664062 0.1875,-2.53125 0,-3.75 -3.39844,-3.75 -1.6875,0 -2.64843,0.914063 -0.96094,0.890625 -0.96094,2.4375 z"
           style="font-size:48px"
           id="path5854" />
        <path
           d="m 358.6084,47.136135 h -0.0937 q -1.94531,3.351562 -5.48438,3.351562 -3.375,0 -6.14062,-2.953125 -2.74219,-2.976562 -2.74219,-7.03125 0,-3.796875 2.50781,-6.539062 2.53125,-2.765625 5.85938,-2.765625 4.05469,0 6,3.984375 h 0.0937 v -3.703125 q 2.78906,0.304687 5.36719,0.304687 h 2.64843 v 1.195313 h -3.46875 V 61.15176 h 3.1875 v 1.335937 H 354.81152 V 61.15176 h 3.79688 z m 0,-6.09375 q 0,-2.835938 -0.44531,-4.289063 -0.42188,-1.476562 -1.80469,-2.976562 -1.35938,-1.523438 -3.65625,-1.523438 -1.125,0 -2.01563,0.75 -0.86718,0.75 -1.07812,2.367188 -0.21094,1.617187 -0.21094,5.671875 0,5.132812 0.82031,6.773437 0.82032,1.617188 2.71875,1.617188 1.875,0 3.375,-1.125 1.5,-1.148438 1.89844,-2.71875 0.39844,-1.570313 0.39844,-4.546875 z"
           style="font-size:48px"
           id="path5856" />
        <path
           d="m 389.33496,31.784572 v 17.226563 h 3.16406 v 1.195312 h -3.16406 q -3.65625,0 -4.61719,0.28125 v -4.359375 h -0.0937 q -2.10937,4.359375 -6.63281,4.359375 -2.60156,0 -4.19531,-1.359375 -1.57031,-1.382812 -1.57031,-5.789062 V 32.979885 h -3.39844 v -1.195313 h 7.96875 v 12.375 q 0,2.90625 0.35156,4.03125 0.35156,1.101563 1.80469,1.101563 2.15625,0 3.98437,-2.296875 1.82813,-2.320313 1.82813,-6.960938 v -7.054687 h -3.75 v -1.195313 z"
           style="font-size:48px"
           id="path5858" />
        <path
           d="m 398.24121,22.409572 q 0,-1.03125 0.75,-1.78125 0.77344,-0.75 1.80469,-0.75 1.03125,0 1.78125,0.75 0.77344,0.726563 0.77344,1.78125 0,1.101563 -0.75,1.828125 -0.75,0.726563 -1.80469,0.726563 -1.05469,0 -1.80469,-0.726563 -0.75,-0.75 -0.75,-1.828125 z m 4.71094,9.023438 v 17.578125 h 3.07031 v 1.195312 h -10.89844 v -1.195312 h 3.28125 v -16.03125 h -3.28125 v -1.195313 h 3.32813 q 2.39062,0 4.5,-0.351562 z"
           style="font-size:48px"
           id="path5860" />
        <path
           d="M 416.1709,47.136135 V 61.15176 h 3.79687 v 1.335937 H 408.45996 V 61.15176 h 3.16406 V 32.979885 h -3.46875 v -1.195313 h 2.64844 q 2.90625,0 5.36719,-0.304687 v 3.703125 h 0.0937 q 1.94531,-3.984375 6,-3.984375 3.32812,0 5.83594,2.765625 2.53125,2.742187 2.53125,6.539062 0,4.054688 -2.76563,7.03125 -2.74219,2.953125 -6.11719,2.953125 -3.53906,0 -5.48437,-3.351562 z m 9.23437,-6.09375 q 0,-4.382813 -0.25781,-5.859375 -0.23437,-1.5 -1.125,-2.203125 -0.86719,-0.726563 -1.94531,-0.726563 -2.29688,0 -3.67969,1.523438 -1.38281,1.523437 -1.80469,2.976562 -0.42187,1.453125 -0.42187,4.289063 0,2.976562 0.39844,4.546875 0.39843,1.570312 1.89843,2.71875 1.52344,1.125 3.375,1.125 1.92188,0 2.74219,-1.617188 0.82031,-1.640625 0.82031,-6.773437 z"
           style="font-size:48px"
           id="path5862" />
        <path
           d="M 451.84277,39.58926 H 439.9834 q -0.16406,6.9375 0.77344,8.554687 0.9375,1.59375 3.35156,1.59375 4.96875,0 6.72656,-5.765625 h 1.00781 q -0.77343,3.492188 -2.92968,5.15625 -2.15625,1.664063 -4.80469,1.664063 -3.77344,0 -6.5625,-2.789063 -2.78906,-2.8125 -2.78906,-7.054687 0,-4.125 2.71875,-6.9375 2.74218,-2.8125 6.35156,-2.8125 3.14062,0 5.48437,2.226562 2.36719,2.226563 2.53125,6.164063 z M 439.9834,38.534572 h 6.82031 q 0.1875,-1.664062 0.1875,-2.53125 0,-3.75 -3.39844,-3.75 -1.6875,0 -2.64843,0.914063 -0.96094,0.890625 -0.96094,2.4375 z"
           style="font-size:48px"
           id="path5864" />
        <path
           d="m 486.43652,18.425197 v 30.585938 h 3.16407 v 1.195312 h -2.625 q -2.48438,0 -5.25,0.28125 v -3.84375 h -0.0937 q -1.875,4.148438 -6,4.148438 -3.30469,0 -5.83594,-2.929688 -2.50781,-2.953125 -2.50781,-6.679687 0,-3.984375 2.64843,-6.984375 2.67188,-3 6.28125,-3 3.67969,0 5.41407,3.304687 h 0.0937 v -14.53125 h -4.26563 V 18.77676 h 4.26563 q 2.36718,0 4.71093,-0.351563 z M 476.3584,32.253322 q -2.55469,0 -3.21094,1.921875 -0.63281,1.898438 -0.63281,7.734375 0,5.039063 0.82031,6.351563 0.82031,1.3125 2.64844,1.3125 1.96875,0 3.46875,-1.335938 1.5,-1.335937 1.96875,-3.046875 0.46875,-1.710937 0.46875,-5.554687 0,-3.65625 -1.47656,-5.507813 -1.47657,-1.875 -4.05469,-1.875 z"
           style="font-size:48px"
           id="path5866" />
        <path
           d="m 509.68652,39.58926 h -11.85937 q -0.16406,6.9375 0.77344,8.554687 0.9375,1.59375 3.35156,1.59375 4.96875,0 6.72656,-5.765625 h 1.00781 q -0.77343,3.492188 -2.92968,5.15625 -2.15625,1.664063 -4.80469,1.664063 -3.77344,0 -6.5625,-2.789063 -2.78906,-2.8125 -2.78906,-7.054687 0,-4.125 2.71875,-6.9375 2.74218,-2.8125 6.35156,-2.8125 3.14062,0 5.48437,2.226562 2.36719,2.226563 2.53125,6.164063 z m -11.85937,-1.054688 h 6.82031 q 0.1875,-1.664062 0.1875,-2.53125 0,-3.75 -3.39844,-3.75 -1.6875,0 -2.64843,0.914063 -0.96094,0.890625 -0.96094,2.4375 z"
           style="font-size:48px"
           id="path5868" />
        <path
           d="M 57.717773,109.01113 V 92.979885 h -3.304687 v -1.195313 h 2.0625 q 3.65625,0 5.8125,-0.304687 v 4.523437 h 0.09375 q 1.851562,-4.523437 6.609375,-4.523437 5.179687,0 5.71875,4.804687 h 0.09375 q 2.039062,-4.804687 6.773437,-4.804687 2.109375,0 3.539063,1.054687 1.453125,1.054688 1.78125,2.4375 0.351562,1.382813 0.351562,4.570313 v 9.468745 h 3.257813 v 1.19532 H 79.608398 v -1.19532 h 3.070313 V 97.43301 q 0,-2.742188 -0.328125,-3.773438 -0.304688,-1.03125 -1.6875,-1.03125 -1.898438,0 -3.914063,2.15625 -1.992187,2.132813 -1.992187,8.132808 v 6.09375 h 3.023437 v 1.19532 H 67.163086 v -1.19532 h 3.046875 v -9.070308 q 0,-5.296875 -0.398438,-6.304687 -0.375,-1.007813 -1.828125,-1.007813 -1.992187,0 -3.492187,1.757813 -1.476563,1.757812 -1.851563,3.421875 -0.351562,1.664062 -0.351562,5.29687 v 5.90625 h 3.023437 v 1.19532 H 54.413086 v -1.19532 z"
           style="font-size:48px"
           id="path5870" />
        <path
           d="m 105.88184,99.68301 v -2.390625 q 0,-2.929688 -0.49219,-3.84375 -0.46875,-0.914063 -2.57813,-0.914063 -3.796872,0 -3.796872,1.453125 0,0.421875 0.304688,0.9375 0.328125,0.492188 0.328125,1.171875 0,0.960938 -0.632813,1.476563 -0.632812,0.492187 -1.429687,0.492187 -1.03125,0 -1.59375,-0.632812 -0.5625,-0.65625 -0.5625,-1.523438 0,-1.875 2.179687,-3.140625 2.203125,-1.289062 6.117192,-1.289062 3.14062,0 4.59375,0.726562 1.45312,0.726563 1.78125,1.804688 0.35156,1.078125 0.35156,3.046875 v 8.625 q 0,1.89844 0.25781,2.36719 0.28125,0.46875 0.84375,0.46875 0.84375,0 1.64063,-1.14844 h 0.5625 q -0.60938,3.42187 -3.98438,3.42187 -3.25781,0 -3.89062,-3.75 -2.74219,3.75 -6.421879,3.75 -2.4375,0 -3.890625,-1.3125 -1.453125,-1.33593 -1.453125,-3.25781 0,-5.97656 11.765629,-6.53906 z m 0,3.60937 v -2.53125 q -4.33594,0.16407 -5.71875,1.3125 -1.382817,1.125 -1.382817,3.28125 0,1.57032 0.820313,2.4375 0.843754,0.86719 1.921874,0.86719 1.38281,0 2.48438,-0.91406 1.125,-0.9375 1.5,-1.875 0.375,-0.9375 0.375,-2.57813 z"
           style="font-size:48px"
           id="path5872" />
        <path
           d="M 119.96777,109.01113 V 92.979885 h -3.32812 v -1.195313 h 2.13281 q 3.16406,0 5.74219,-0.351562 v 4.570312 h 0.0937 q 2.41406,-4.804687 6.82031,-4.804687 2.0625,0 3.375,1.054687 1.33594,1.054688 1.80469,2.484375 0.49219,1.429688 0.49219,4.429688 v 9.843745 h 3.65625 v 1.19532 h -11.34375 v -1.19532 h 3.11718 V 97.292385 q 0,-2.695313 -0.35156,-3.726563 -0.32812,-1.03125 -1.75781,-1.03125 -2.27344,0 -4.10156,2.34375 -1.80469,2.320313 -1.80469,6.257808 v 7.875 h 3.07031 v 1.19532 h -10.94531 v -1.19532 z"
           style="font-size:48px"
           id="path5874" />
        <path
           d="m 160.18652,99.58926 h -11.85937 q -0.16406,6.9375 0.77344,8.55469 0.9375,1.59375 3.35156,1.59375 4.96875,0 6.72656,-5.76563 h 1.00781 q -0.77343,3.49219 -2.92968,5.15625 -2.15625,1.66406 -4.80469,1.66406 -3.77344,0 -6.5625,-2.78906 -2.78906,-2.8125 -2.78906,-7.05469 0,-4.124995 2.71875,-6.937495 2.74218,-2.8125 6.35156,-2.8125 3.14062,0 5.48437,2.226562 2.36719,2.226563 2.53125,6.164063 z m -11.85937,-1.054688 h 6.82031 q 0.1875,-1.664062 0.1875,-2.53125 0,-3.75 -3.39844,-3.75 -1.6875,0 -2.64843,0.914063 -0.96094,0.890625 -0.96094,2.4375 z"
           style="font-size:48px"
           id="path5876" />
        <path
           d="m 166.20996,82.409572 q 0,-1.03125 0.75,-1.78125 0.77344,-0.75 1.80469,-0.75 1.03125,0 1.78125,0.75 0.77344,0.726563 0.77344,1.78125 0,1.101563 -0.75,1.828125 -0.75,0.726563 -1.80469,0.726563 -1.05469,0 -1.80469,-0.726563 -0.75,-0.75 -0.75,-1.828125 z m 4.71094,9.023438 v 17.57812 h 3.07031 v 1.19532 h -10.89844 v -1.19532 h 3.28125 V 92.979885 h -3.28125 v -1.195313 h 3.32813 q 2.39062,0 4.5,-0.351562 z"
           style="font-size:48px"
           id="path5878" />
        <path
           d="M 179.5459,109.01113 V 92.979885 h -3.79688 v -1.195313 h 3.84375 q 2.95313,0 4.5,-0.304687 v 4.429687 h 0.0937 q 1.64063,-4.429687 4.85157,-4.429687 1.40625,0 2.25,0.867187 0.86718,0.84375 0.86718,2.0625 0,1.125 -0.70312,1.828125 -0.67969,0.679688 -1.78125,0.679688 -2.01563,0 -2.01563,-2.015625 l 0.0937,-1.007813 q 0,-0.539062 -0.49218,-0.539062 -0.77344,0 -1.96875,2.085937 -1.19532,2.085938 -1.19532,6.374998 v 7.19531 h 3.89063 v 1.19532 h -12.23438 v -1.19532 z"
           style="font-size:48px"
           id="path5880" />
        <path
           d="m 207.03809,99.68301 v -2.390625 q 0,-2.929688 -0.49219,-3.84375 -0.46875,-0.914063 -2.57813,-0.914063 -3.79687,0 -3.79687,1.453125 0,0.421875 0.30469,0.9375 0.32812,0.492188 0.32812,1.171875 0,0.960938 -0.63281,1.476563 -0.63281,0.492187 -1.42969,0.492187 -1.03125,0 -1.59375,-0.632812 -0.5625,-0.65625 -0.5625,-1.523438 0,-1.875 2.17969,-3.140625 2.20312,-1.289062 6.11719,-1.289062 3.14062,0 4.59375,0.726562 1.45312,0.726563 1.78125,1.804688 0.35156,1.078125 0.35156,3.046875 v 8.625 q 0,1.89844 0.25781,2.36719 0.28125,0.46875 0.84375,0.46875 0.84375,0 1.64063,-1.14844 h 0.5625 q -0.60938,3.42187 -3.98438,3.42187 -3.25781,0 -3.89062,-3.75 -2.74219,3.75 -6.42188,3.75 -2.4375,0 -3.89062,-1.3125 -1.45313,-1.33593 -1.45313,-3.25781 0,-5.97656 11.76563,-6.53906 z m 0,3.60937 v -2.53125 q -4.33594,0.16407 -5.71875,1.3125 -1.38282,1.125 -1.38282,3.28125 0,1.57032 0.82032,2.4375 0.84375,0.86719 1.92187,0.86719 1.38281,0 2.48438,-0.91406 1.125,-0.9375 1.5,-1.875 0.375,-0.9375 0.375,-2.57813 z"
           style="font-size:48px"
           id="path5882" />
        <path
           d="M 233.21777,109.01113 V 92.979885 h -3.30468 v -1.195313 h 2.0625 q 3.65625,0 5.8125,-0.304687 v 4.523437 h 0.0937 q 1.85156,-4.523437 6.60937,-4.523437 5.17969,0 5.71875,4.804687 h 0.0937 q 2.03906,-4.804687 6.77344,-4.804687 2.10937,0 3.53906,1.054687 1.45313,1.054688 1.78125,2.4375 0.35156,1.382813 0.35156,4.570313 v 9.468745 h 3.25782 v 1.19532 H 255.1084 v -1.19532 h 3.07031 V 97.43301 q 0,-2.742188 -0.32812,-3.773438 -0.30469,-1.03125 -1.6875,-1.03125 -1.89844,0 -3.91407,2.15625 -1.99218,2.132813 -1.99218,8.132808 v 6.09375 h 3.02343 v 1.19532 h -10.61718 v -1.19532 h 3.04687 v -9.070308 q 0,-5.296875 -0.39844,-6.304687 -0.375,-1.007813 -1.82812,-1.007813 -1.99219,0 -3.49219,1.757813 -1.47656,1.757812 -1.85156,3.421875 -0.35156,1.664062 -0.35156,5.29687 v 5.90625 h 3.02343 v 1.19532 h -10.89843 v -1.19532 z"
           style="font-size:48px"
           id="path5884" />
        <path
           d="m 281.38184,99.68301 v -2.390625 q 0,-2.929688 -0.49219,-3.84375 -0.46875,-0.914063 -2.57813,-0.914063 -3.79687,0 -3.79687,1.453125 0,0.421875 0.30469,0.9375 0.32812,0.492188 0.32812,1.171875 0,0.960938 -0.63281,1.476563 -0.63281,0.492187 -1.42969,0.492187 -1.03125,0 -1.59375,-0.632812 -0.5625,-0.65625 -0.5625,-1.523438 0,-1.875 2.17969,-3.140625 2.20312,-1.289062 6.11719,-1.289062 3.14062,0 4.59375,0.726562 1.45312,0.726563 1.78125,1.804688 0.35156,1.078125 0.35156,3.046875 v 8.625 q 0,1.89844 0.25781,2.36719 0.28125,0.46875 0.84375,0.46875 0.84375,0 1.64063,-1.14844 h 0.5625 q -0.60938,3.42187 -3.98438,3.42187 -3.25781,0 -3.89062,-3.75 -2.74219,3.75 -6.42188,3.75 -2.4375,0 -3.89062,-1.3125 -1.45313,-1.33593 -1.45313,-3.25781 0,-5.97656 11.76563,-6.53906 z m 0,3.60937 v -2.53125 q -4.33594,0.16407 -5.71875,1.3125 -1.38282,1.125 -1.38282,3.28125 0,1.57032 0.82032,2.4375 0.84375,0.86719 1.92187,0.86719 1.38281,0 2.48438,-0.91406 1.125,-0.9375 1.5,-1.875 0.375,-0.9375 0.375,-2.57813 z"
           style="font-size:48px"
           id="path5886" />
        <path
           d="m 295.11621,82.409572 q 0,-1.03125 0.75,-1.78125 0.77344,-0.75 1.80469,-0.75 1.03125,0 1.78125,0.75 0.77344,0.726563 0.77344,1.78125 0,1.101563 -0.75,1.828125 -0.75,0.726563 -1.80469,0.726563 -1.05469,0 -1.80469,-0.726563 -0.75,-0.75 -0.75,-1.828125 z m 4.71094,9.023438 v 17.57812 h 3.07031 v 1.19532 h -10.89844 v -1.19532 h 3.28125 V 92.979885 h -3.28125 v -1.195313 h 3.32813 q 2.39062,0 4.5,-0.351562 z"
           style="font-size:48px"
           id="path5888" />
        <path
           d="m 318.38965,91.573635 v 5.25 h -0.96094 q -1.07812,-4.570313 -5.25,-4.570313 -1.80469,0 -3.02344,0.960938 -1.19531,0.9375 -1.19531,2.15625 0,1.03125 0.84375,1.640625 0.86719,0.585937 4.05469,1.007812 7.00781,0.867188 7.00781,6.375003 0,2.74218 -1.82812,4.57031 -1.80469,1.82812 -4.5,1.82812 -2.64844,0 -5.13282,-2.17968 l -1.64062,1.40625 h -0.82031 v -6.91407 h 0.82031 q 2.01562,6.63282 6.77344,6.63282 1.80468,0 3.28125,-1.14844 1.47656,-1.14844 1.47656,-2.69531 0,-1.28907 -0.89063,-1.94532 -0.86718,-0.65625 -4.73437,-1.21875 -6.58594,-0.96093 -6.58594,-5.85937 0,-2.414063 1.75781,-4.03125 1.78125,-1.640625 4.33594,-1.640625 2.69531,0 4.52344,1.78125 0.46875,-0.492188 0.96094,-1.40625 z"
           style="font-size:48px"
           id="path5890" />
        <path
           d="M 338.26465,109.01113 V 92.979885 h -3.79688 v -1.195313 h 3.84375 q 2.95313,0 4.5,-0.304687 v 4.429687 h 0.0937 q 1.64063,-4.429687 4.85157,-4.429687 1.40625,0 2.25,0.867187 0.86718,0.84375 0.86718,2.0625 0,1.125 -0.70312,1.828125 -0.67969,0.679688 -1.78125,0.679688 -2.01563,0 -2.01563,-2.015625 l 0.0937,-1.007813 q 0,-0.539062 -0.49218,-0.539062 -0.77344,0 -1.96875,2.085937 -1.19532,2.085938 -1.19532,6.374998 v 7.19531 h 3.89063 v 1.19532 h -12.23438 v -1.19532 z"
           style="font-size:48px"
           id="path5892" />
        <path
           d="m 365.75684,99.68301 v -2.390625 q 0,-2.929688 -0.49219,-3.84375 -0.46875,-0.914063 -2.57813,-0.914063 -3.79687,0 -3.79687,1.453125 0,0.421875 0.30469,0.9375 0.32812,0.492188 0.32812,1.171875 0,0.960938 -0.63281,1.476563 -0.63281,0.492187 -1.42969,0.492187 -1.03125,0 -1.59375,-0.632812 -0.5625,-0.65625 -0.5625,-1.523438 0,-1.875 2.17969,-3.140625 2.20312,-1.289062 6.11719,-1.289062 3.14062,0 4.59375,0.726562 1.45312,0.726563 1.78125,1.804688 0.35156,1.078125 0.35156,3.046875 v 8.625 q 0,1.89844 0.25781,2.36719 0.28125,0.46875 0.84375,0.46875 0.84375,0 1.64063,-1.14844 h 0.5625 q -0.60938,3.42187 -3.98438,3.42187 -3.25781,0 -3.89062,-3.75 -2.74219,3.75 -6.42188,3.75 -2.4375,0 -3.89062,-1.3125 -1.45313,-1.33593 -1.45313,-3.25781 0,-5.97656 11.76563,-6.53906 z m 0,3.60937 v -2.53125 q -4.33594,0.16407 -5.71875,1.3125 -1.38282,1.125 -1.38282,3.28125 0,1.57032 0.82032,2.4375 0.84375,0.86719 1.92187,0.86719 1.38281,0 2.48438,-0.91406 1.125,-0.9375 1.5,-1.875 0.375,-0.9375 0.375,-2.57813 z m -5.15625,-15.023433 -0.60938,-0.585937 4.6875,-5.648438 q 1.3125,-1.570312 1.96875,-2.132812 0.65625,-0.5625 1.45313,-0.5625 0.75,0 1.33593,0.585937 0.58594,0.5625 0.58594,1.195313 0,0.984375 -0.77344,1.6875 -0.75,0.679687 -2.78906,1.921875 z"
           style="font-size:48px"
           id="path5894" />
        <path
           d="m 384.38965,107.13613 v 14.01563 h 3.79687 v 1.33594 h -11.50781 v -1.33594 h 3.16406 V 92.979885 h -3.46875 v -1.195313 h 2.64844 q 2.90625,0 5.36719,-0.304687 v 3.703125 h 0.0937 q 1.94531,-3.984375 6,-3.984375 3.32812,0 5.83594,2.765625 2.53125,2.742187 2.53125,6.53906 0,4.05469 -2.76563,7.03125 -2.74219,2.95313 -6.11719,2.95313 -3.53906,0 -5.48437,-3.35157 z m 9.23437,-6.09375 q 0,-4.382808 -0.25781,-5.85937 -0.23437,-1.5 -1.125,-2.203125 -0.86719,-0.726563 -1.94531,-0.726563 -2.29688,0 -3.67969,1.523438 -1.38281,1.523437 -1.80469,2.976562 -0.42187,1.453125 -0.42187,4.289058 0,2.97657 0.39844,4.54688 0.39843,1.57031 1.89843,2.71875 1.52344,1.125 3.375,1.125 1.92188,0 2.74219,-1.61719 0.82031,-1.64062 0.82031,-6.77344 z"
           style="font-size:48px"
           id="path5896" />
        <path
           d="m 405.55371,82.409572 q 0,-1.03125 0.75,-1.78125 0.77344,-0.75 1.80469,-0.75 1.03125,0 1.78125,0.75 0.77344,0.726563 0.77344,1.78125 0,1.101563 -0.75,1.828125 -0.75,0.726563 -1.80469,0.726563 -1.05469,0 -1.80469,-0.726563 -0.75,-0.75 -0.75,-1.828125 z m 4.71094,9.023438 v 17.57812 h 3.07031 v 1.19532 h -10.89844 v -1.19532 h 3.28125 V 92.979885 h -3.28125 v -1.195313 h 3.32813 q 2.39062,0 4.5,-0.351562 z"
           style="font-size:48px"
           id="path5898" />
        <path
           d="m 435.34277,78.425197 v 30.585933 h 3.16407 v 1.19532 h -2.625 q -2.48438,0 -5.25,0.28125 v -3.84375 h -0.0937 q -1.875,4.14843 -6,4.14843 -3.30469,0 -5.83594,-2.92968 -2.50781,-2.95313 -2.50781,-6.67969 0,-3.984375 2.64843,-6.984375 2.67188,-3 6.28125,-3 3.67969,0 5.41407,3.304687 h 0.0937 v -14.53125 h -4.26563 V 78.77676 h 4.26563 q 2.36718,0 4.71093,-0.351563 z m -10.07812,13.828125 q -2.55469,0 -3.21094,1.921875 -0.63281,1.898438 -0.63281,7.734373 0,5.03906 0.82031,6.35156 0.82031,1.3125 2.64844,1.3125 1.96875,0 3.46875,-1.33593 1.5,-1.33594 1.96875,-3.04688 0.46875,-1.71094 0.46875,-5.554685 0,-3.65625 -1.47656,-5.507813 -1.47657,-1.875 -4.05469,-1.875 z"
           style="font-size:48px"
           id="path5900" />
        <path
           d="m 453.88184,99.68301 v -2.390625 q 0,-2.929688 -0.49219,-3.84375 -0.46875,-0.914063 -2.57813,-0.914063 -3.79687,0 -3.79687,1.453125 0,0.421875 0.30469,0.9375 0.32812,0.492188 0.32812,1.171875 0,0.960938 -0.63281,1.476563 -0.63281,0.492187 -1.42969,0.492187 -1.03125,0 -1.59375,-0.632812 -0.5625,-0.65625 -0.5625,-1.523438 0,-1.875 2.17969,-3.140625 2.20312,-1.289062 6.11719,-1.289062 3.14062,0 4.59375,0.726562 1.45312,0.726563 1.78125,1.804688 0.35156,1.078125 0.35156,3.046875 v 8.625 q 0,1.89844 0.25781,2.36719 0.28125,0.46875 0.84375,0.46875 0.84375,0 1.64063,-1.14844 h 0.5625 q -0.60938,3.42187 -3.98438,3.42187 -3.25781,0 -3.89062,-3.75 -2.74219,3.75 -6.42188,3.75 -2.4375,0 -3.89062,-1.3125 -1.45313,-1.33593 -1.45313,-3.25781 0,-5.97656 11.76563,-6.53906 z m 0,3.60937 v -2.53125 q -4.33594,0.16407 -5.71875,1.3125 -1.38282,1.125 -1.38282,3.28125 0,1.57032 0.82032,2.4375 0.84375,0.86719 1.92187,0.86719 1.38281,0 2.48438,-0.91406 1.125,-0.9375 1.5,-1.875 0.375,-0.9375 0.375,-2.57813 z"
           style="font-size:48px"
           id="path5902" />
        <path
           d="m 493.93652,99.58926 h -11.85937 q -0.16406,6.9375 0.77344,8.55469 0.9375,1.59375 3.35156,1.59375 4.96875,0 6.72656,-5.76563 h 1.00781 q -0.77343,3.49219 -2.92968,5.15625 -2.15625,1.66406 -4.80469,1.66406 -3.77344,0 -6.5625,-2.78906 -2.78906,-2.8125 -2.78906,-7.05469 0,-4.124995 2.71875,-6.937495 2.74218,-2.8125 6.35156,-2.8125 3.14062,0 5.48437,2.226562 2.36719,2.226563 2.53125,6.164063 z m -11.85937,-1.054688 h 6.82031 q 0.1875,-1.664062 0.1875,-2.53125 0,-3.75 -3.39844,-3.75 -1.6875,0 -2.64843,0.914063 -0.96094,0.890625 -0.96094,2.4375 z"
           style="font-size:48px"
           id="path5904" />
        <path
           d="m 529.63184,92.979885 -8.88282,17.953125 h -0.60937 l -9.02344,-17.953125 h -2.83594 v -1.195313 h 11.50782 v 1.195313 h -3.53907 l 6.14063,12.468745 6.04687,-12.468745 h -3.53906 v -1.195313 h 7.61719 v 1.195313 z"
           style="font-size:48px"
           id="path5906" />
        <path
           d="m 550.56152,99.58926 h -11.85937 q -0.16406,6.9375 0.77344,8.55469 0.9375,1.59375 3.35156,1.59375 4.96875,0 6.72656,-5.76563 h 1.00781 q -0.77343,3.49219 -2.92968,5.15625 -2.15625,1.66406 -4.80469,1.66406 -3.77344,0 -6.5625,-2.78906 -2.78906,-2.8125 -2.78906,-7.05469 0,-4.124995 2.71875,-6.937495 2.74218,-2.8125 6.35156,-2.8125 3.14062,0 5.48437,2.226562 2.36719,2.226563 2.53125,6.164063 z m -11.85937,-1.054688 h 6.82031 q 0.1875,-1.664062 0.1875,-2.53125 0,-3.75 -3.39844,-3.75 -1.6875,0 -2.64843,0.914063 -0.96094,0.890625 -0.96094,2.4375 z"
           style="font-size:48px"
           id="path5908" />
        <path
           d="M 556.88965,109.01113 V 92.979885 h -3.79688 v -1.195313 h 3.84375 q 2.95313,0 4.5,-0.304687 v 4.429687 h 0.0937 q 1.64063,-4.429687 4.85157,-4.429687 1.40625,0 2.25,0.867187 0.86718,0.84375 0.86718,2.0625 0,1.125 -0.70312,1.828125 -0.67969,0.679688 -1.78125,0.679688 -2.01563,0 -2.01563,-2.015625 l 0.0937,-1.007813 q 0,-0.539062 -0.49218,-0.539062 -0.77344,0 -1.96875,2.085937 -1.19532,2.085938 -1.19532,6.374998 v 7.19531 h 3.89063 v 1.19532 h -12.23438 v -1.19532 z"
           style="font-size:48px"
           id="path5910" />
        <path
           d="m 114.08496,159.68301 v -2.39063 q 0,-2.92968 -0.49219,-3.84375 -0.46875,-0.91406 -2.57812,-0.91406 -3.79688,0 -3.79688,1.45313 0,0.42187 0.30469,0.9375 0.32813,0.49218 0.32813,1.17187 0,0.96094 -0.63282,1.47656 -0.63281,0.49219 -1.42968,0.49219 -1.03125,0 -1.59375,-0.63281 -0.5625,-0.65625 -0.5625,-1.52344 0,-1.875 2.17968,-3.14062 2.20313,-1.28907 6.11719,-1.28907 3.14063,0 4.59375,0.72657 1.45313,0.72656 1.78125,1.80468 0.35156,1.07813 0.35156,3.04688 v 8.625 q 0,1.89844 0.25782,2.36719 0.28125,0.46875 0.84375,0.46875 0.84375,0 1.64062,-1.14844 h 0.5625 q -0.60937,3.42187 -3.98437,3.42187 -3.25782,0 -3.89063,-3.75 -2.74219,3.75 -6.42187,3.75 -2.4375,0 -3.89063,-1.3125 -1.45312,-1.33593 -1.45312,-3.25781 0,-5.97656 11.76562,-6.53906 z m 0,3.60937 v -2.53125 q -4.33594,0.16407 -5.71875,1.3125 -1.38281,1.125 -1.38281,3.28125 0,1.57032 0.82031,2.4375 0.84375,0.86719 1.92188,0.86719 1.38281,0 2.48437,-0.91406 1.125,-0.9375 1.5,-1.875 0.375,-0.9375 0.375,-2.57813 z"
           style="font-size:48px"
           id="path5912" />
        <path
           d="m 157.49121,152.97988 -8.88281,17.95313 h -0.60938 l -9.02343,-17.95313 h -2.83594 v -1.19531 h 11.50781 v 1.19531 h -3.53906 l 6.14062,12.46875 6.04688,-12.46875 h -3.53906 v -1.19531 h 7.61718 v 1.19531 z"
           style="font-size:48px"
           id="path5914" />
        <path
           d="m 165.69434,142.40957 q 0,-1.03125 0.75,-1.78125 0.77343,-0.75 1.80468,-0.75 1.03125,0 1.78125,0.75 0.77344,0.72656 0.77344,1.78125 0,1.10156 -0.75,1.82813 -0.75,0.72656 -1.80469,0.72656 -1.05468,0 -1.80468,-0.72656 -0.75,-0.75 -0.75,-1.82813 z m 4.71093,9.02344 v 17.57812 h 3.07032 v 1.19532 h -10.89844 v -1.19532 h 3.28125 v -16.03125 h -3.28125 v -1.19531 h 3.32812 q 2.39063,0 4.5,-0.35156 z"
           style="font-size:48px"
           id="path5916" />
        <path
           d="m 195.4834,138.4252 v 30.58593 h 3.16406 v 1.19532 h -2.625 q -2.48437,0 -5.25,0.28125 v -3.84375 h -0.0937 q -1.875,4.14843 -6,4.14843 -3.30469,0 -5.83594,-2.92968 -2.50781,-2.95313 -2.50781,-6.67969 0,-3.98438 2.64844,-6.98438 2.67187,-3 6.28125,-3 3.67969,0 5.41406,3.30469 h 0.0937 v -14.53125 h -4.26562 v -1.19531 h 4.26562 q 2.36719,0 4.71094,-0.35156 z m -10.07813,13.82812 q -2.55468,0 -3.21093,1.92188 -0.63282,1.89843 -0.63282,7.73437 0,5.03906 0.82032,6.35156 0.82031,1.3125 2.64843,1.3125 1.96875,0 3.46875,-1.33593 1.5,-1.33594 1.96875,-3.04688 0.46875,-1.71094 0.46875,-5.55469 0,-3.65625 -1.47656,-5.50781 -1.47656,-1.875 -4.05469,-1.875 z"
           style="font-size:48px"
           id="path5918" />
        <path
           d="m 214.02246,159.68301 v -2.39063 q 0,-2.92968 -0.49219,-3.84375 -0.46875,-0.91406 -2.57812,-0.91406 -3.79688,0 -3.79688,1.45313 0,0.42187 0.30469,0.9375 0.32813,0.49218 0.32813,1.17187 0,0.96094 -0.63282,1.47656 -0.63281,0.49219 -1.42968,0.49219 -1.03125,0 -1.59375,-0.63281 -0.5625,-0.65625 -0.5625,-1.52344 0,-1.875 2.17968,-3.14062 2.20313,-1.28907 6.11719,-1.28907 3.14063,0 4.59375,0.72657 1.45313,0.72656 1.78125,1.80468 0.35156,1.07813 0.35156,3.04688 v 8.625 q 0,1.89844 0.25782,2.36719 0.28125,0.46875 0.84375,0.46875 0.84375,0 1.64062,-1.14844 h 0.5625 q -0.60937,3.42187 -3.98437,3.42187 -3.25782,0 -3.89063,-3.75 -2.74219,3.75 -6.42187,3.75 -2.4375,0 -3.89063,-1.3125 -1.45312,-1.33593 -1.45312,-3.25781 0,-5.97656 11.76562,-6.53906 z m 0,3.60937 v -2.53125 q -4.33594,0.16407 -5.71875,1.3125 -1.38281,1.125 -1.38281,3.28125 0,1.57032 0.82031,2.4375 0.84375,0.86719 1.92188,0.86719 1.38281,0 2.48437,-0.91406 1.125,-0.9375 1.5,-1.875 0.375,-0.9375 0.375,-2.57813 z"
           style="font-size:48px"
           id="path5920" />
        <path
           d="m 256.32715,138.4252 v 30.58593 h 3.16406 v 1.19532 h -2.625 q -2.48437,0 -5.25,0.28125 v -3.84375 h -0.0937 q -1.875,4.14843 -6,4.14843 -3.30469,0 -5.83594,-2.92968 -2.50781,-2.95313 -2.50781,-6.67969 0,-3.98438 2.64844,-6.98438 2.67187,-3 6.28125,-3 3.67969,0 5.41406,3.30469 h 0.0937 v -14.53125 h -4.26562 v -1.19531 h 4.26562 q 2.36719,0 4.71094,-0.35156 z m -10.07813,13.82812 q -2.55468,0 -3.21093,1.92188 -0.63282,1.89843 -0.63282,7.73437 0,5.03906 0.82032,6.35156 0.82031,1.3125 2.64843,1.3125 1.96875,0 3.46875,-1.33593 1.5,-1.33594 1.96875,-3.04688 0.46875,-1.71094 0.46875,-5.55469 0,-3.65625 -1.47656,-5.50781 -1.47656,-1.875 -4.05469,-1.875 z"
           style="font-size:48px"
           id="path5922" />
        <path
           d="m 262.77246,160.94863 q 0,-4.05468 2.78906,-6.89062 2.78907,-2.85938 6.91407,-2.85938 4.03125,0 6.82031,2.74219 2.8125,2.71875 2.8125,6.82031 0,4.19532 -2.90625,7.125 -2.90625,2.90625 -6.86719,2.90625 -3.89062,0 -6.72656,-2.83593 -2.83594,-2.85938 -2.83594,-7.00782 z m 14.0625,0 q 0,-4.3125 -0.30469,-5.69531 -0.28125,-1.38281 -1.3125,-2.17969 -1.00781,-0.82031 -2.78906,-0.82031 -1.6875,0 -2.78906,0.84375 -1.07813,0.82031 -1.33594,2.20313 -0.25781,1.38281 -0.25781,5.69531 0,4.33594 0.30469,5.74219 0.32812,1.40625 1.38281,2.20312 1.07812,0.79688 2.69531,0.79688 1.64063,0 2.71875,-0.79688 1.10156,-0.82031 1.38281,-2.25 0.30469,-1.45312 0.30469,-5.74219 z"
           style="font-size:48px"
           id="path5924" />
        <path
           d="m 301.0459,169.01113 v -16.03125 h -3.30469 v -1.19531 h 2.0625 q 3.65625,0 5.8125,-0.30469 v 4.52344 h 0.0937 q 1.85156,-4.52344 6.60938,-4.52344 5.17968,0 5.71875,4.80469 h 0.0937 q 2.03906,-4.80469 6.77343,-4.80469 2.10938,0 3.53907,1.05469 1.45312,1.05469 1.78125,2.4375 0.35156,1.38281 0.35156,4.57031 v 9.46875 h 3.25781 v 1.19532 h -10.89844 v -1.19532 h 3.07032 v -11.57812 q 0,-2.74219 -0.32813,-3.77344 -0.30469,-1.03125 -1.6875,-1.03125 -1.89844,0 -3.91406,2.15625 -1.99219,2.13281 -1.99219,8.13281 v 6.09375 h 3.02344 v 1.19532 h -10.61719 v -1.19532 h 3.04688 v -9.07031 q 0,-5.29687 -0.39844,-6.30469 -0.375,-1.00781 -1.82813,-1.00781 -1.99218,0 -3.49218,1.75781 -1.47657,1.75782 -1.85157,3.42188 -0.35156,1.66406 -0.35156,5.29687 v 5.90625 h 3.02344 v 1.19532 h -10.89844 v -1.19532 z"
           style="font-size:48px"
           id="path5926" />
        <path
           d="m 337.11621,160.94863 q 0,-4.05468 2.78906,-6.89062 2.78907,-2.85938 6.91407,-2.85938 4.03125,0 6.82031,2.74219 2.8125,2.71875 2.8125,6.82031 0,4.19532 -2.90625,7.125 -2.90625,2.90625 -6.86719,2.90625 -3.89062,0 -6.72656,-2.83593 -2.83594,-2.85938 -2.83594,-7.00782 z m 14.0625,0 q 0,-4.3125 -0.30469,-5.69531 -0.28125,-1.38281 -1.3125,-2.17969 -1.00781,-0.82031 -2.78906,-0.82031 -1.6875,0 -2.78906,0.84375 -1.07813,0.82031 -1.33594,2.20313 -0.25781,1.38281 -0.25781,5.69531 0,4.33594 0.30469,5.74219 0.32812,1.40625 1.38281,2.20312 1.07812,0.79688 2.69531,0.79688 1.64063,0 2.71875,-0.79688 1.10156,-0.82031 1.38281,-2.25 0.30469,-1.45312 0.30469,-5.74219 z"
           style="font-size:48px"
           id="path5928" />
        <path
           d="m 363.2959,169.01113 v -16.03125 h -3.32813 v -1.19531 h 2.13282 q 3.16406,0 5.74218,-0.35156 v 4.57031 h 0.0937 q 2.41407,-4.80469 6.82032,-4.80469 2.0625,0 3.375,1.05469 1.33593,1.05469 1.80468,2.48438 0.49219,1.42968 0.49219,4.42968 v 9.84375 h 3.65625 v 1.19532 h -11.34375 v -1.19532 h 3.11719 v -11.71875 q 0,-2.69531 -0.35156,-3.72656 -0.32813,-1.03125 -1.75782,-1.03125 -2.27343,0 -4.10156,2.34375 -1.80469,2.32031 -1.80469,6.25781 v 7.875 h 3.07032 v 1.19532 h -10.94532 v -1.19532 z"
           style="font-size:48px"
           id="path5930" />
        <path
           d="m 399.24902,151.57363 v 5.25 h -0.96093 q -1.07813,-4.57031 -5.25,-4.57031 -1.80469,0 -3.02344,0.96094 -1.19531,0.9375 -1.19531,2.15625 0,1.03125 0.84375,1.64062 0.86718,0.58594 4.05468,1.00782 7.00782,0.86718 7.00782,6.375 0,2.74218 -1.82813,4.57031 -1.80469,1.82812 -4.5,1.82812 -2.64844,0 -5.13281,-2.17968 l -1.64063,1.40625 h -0.82031 v -6.91407 h 0.82031 q 2.01563,6.63282 6.77344,6.63282 1.80469,0 3.28125,-1.14844 1.47656,-1.14844 1.47656,-2.69531 0,-1.28907 -0.89062,-1.94532 -0.86719,-0.65625 -4.73438,-1.21875 -6.58593,-0.96093 -6.58593,-5.85937 0,-2.41406 1.75781,-4.03125 1.78125,-1.64063 4.33594,-1.64063 2.69531,0 4.52343,1.78125 0.46875,-0.49218 0.96094,-1.40625 z"
           style="font-size:48px"
           id="path5932" />
        <path
           d="m 412.49121,146.44082 v 5.34375 h 5.55469 v 1.19531 h -5.55469 v 11.60157 q 0,2.55468 0.32813,3.49218 0.35156,0.9375 1.82812,0.9375 1.125,0 2.15625,-0.75 1.05469,-0.75 1.59375,-2.32031 h 1.00781 q -1.07812,4.54688 -6.53906,4.54688 -2.29687,0 -3.375,-0.82032 -1.07812,-0.84375 -1.33594,-2.0625 -0.23437,-1.21875 -0.23437,-3.30468 v -11.32032 h -4.17188 v -1.19531 h 4.17188 v -4.94531 q 2.32031,0 4.57031,-0.39844 z"
           style="font-size:48px"
           id="path5934" />
        <path
           d="m 425.31152,169.01113 v -16.03125 h -3.79687 v -1.19531 h 3.84375 q 2.95312,0 4.5,-0.30469 v 4.42969 h 0.0937 q 1.64062,-4.42969 4.85156,-4.42969 1.40625,0 2.25,0.86719 0.86719,0.84375 0.86719,2.0625 0,1.125 -0.70313,1.82813 -0.67968,0.67968 -1.78125,0.67968 -2.01562,0 -2.01562,-2.01562 l 0.0937,-1.00781 q 0,-0.53907 -0.49219,-0.53907 -0.77344,0 -1.96875,2.08594 -1.19531,2.08594 -1.19531,6.375 v 7.19531 h 3.89062 v 1.19532 h -12.23437 v -1.19532 z"
           style="font-size:48px"
           id="path5936" />
        <path
           d="m 440.70996,160.94863 q 0,-4.05468 2.78906,-6.89062 2.78907,-2.85938 6.91407,-2.85938 4.03125,0 6.82031,2.74219 2.8125,2.71875 2.8125,6.82031 0,4.19532 -2.90625,7.125 -2.90625,2.90625 -6.86719,2.90625 -3.89062,0 -6.72656,-2.83593 -2.83594,-2.85938 -2.83594,-7.00782 z m 14.0625,0 q 0,-4.3125 -0.30469,-5.69531 -0.28125,-1.38281 -1.3125,-2.17969 -1.00781,-0.82031 -2.78906,-0.82031 -1.6875,0 -2.78906,0.84375 -1.07813,0.82031 -1.33594,2.20313 -0.25781,1.38281 -0.25781,5.69531 0,4.33594 0.30469,5.74219 0.32812,1.40625 1.38281,2.20312 1.07812,0.79688 2.69531,0.79688 1.64063,0 2.71875,-0.79688 1.10156,-0.82031 1.38281,-2.25 0.30469,-1.45312 0.30469,-5.74219 z"
           style="font-size:48px"
           id="path5938" />
        <path
           d="m 495.1084,138.4252 v 30.58593 h 3.16406 v 1.19532 h -2.625 q -2.48437,0 -5.25,0.28125 v -3.84375 h -0.0937 q -1.875,4.14843 -6,4.14843 -3.30469,0 -5.83594,-2.92968 -2.50781,-2.95313 -2.50781,-6.67969 0,-3.98438 2.64844,-6.98438 2.67187,-3 6.28125,-3 3.67969,0 5.41406,3.30469 h 0.0937 v -14.53125 h -4.26562 v -1.19531 h 4.26562 q 2.36719,0 4.71094,-0.35156 z m -10.07813,13.82812 q -2.55468,0 -3.21093,1.92188 -0.63282,1.89843 -0.63282,7.73437 0,5.03906 0.82032,6.35156 0.82031,1.3125 2.64843,1.3125 1.96875,0 3.46875,-1.33593 1.5,-1.33594 1.96875,-3.04688 0.46875,-1.71094 0.46875,-5.55469 0,-3.65625 -1.47656,-5.50781 -1.47656,-1.875 -4.05469,-1.875 z"
           style="font-size:48px"
           id="path5940" />
        <path
           d="m 513.64746,159.68301 v -2.39063 q 0,-2.92968 -0.49219,-3.84375 -0.46875,-0.91406 -2.57812,-0.91406 -3.79688,0 -3.79688,1.45313 0,0.42187 0.30469,0.9375 0.32813,0.49218 0.32813,1.17187 0,0.96094 -0.63282,1.47656 -0.63281,0.49219 -1.42968,0.49219 -1.03125,0 -1.59375,-0.63281 -0.5625,-0.65625 -0.5625,-1.52344 0,-1.875 2.17968,-3.14062 2.20313,-1.28907 6.11719,-1.28907 3.14063,0 4.59375,0.72657 1.45313,0.72656 1.78125,1.80468 0.35156,1.07813 0.35156,3.04688 v 8.625 q 0,1.89844 0.25782,2.36719 0.28125,0.46875 0.84375,0.46875 0.84375,0 1.64062,-1.14844 h 0.5625 q -0.60937,3.42187 -3.98437,3.42187 -3.25782,0 -3.89063,-3.75 -2.74219,3.75 -6.42187,3.75 -2.4375,0 -3.89063,-1.3125 -1.45312,-1.33593 -1.45312,-3.25781 0,-5.97656 11.76562,-6.53906 z m 0,3.60937 v -2.53125 q -4.33594,0.16407 -5.71875,1.3125 -1.38281,1.125 -1.38281,3.28125 0,1.57032 0.82031,2.4375 0.84375,0.86719 1.92188,0.86719 1.38281,0 2.48437,-0.91406 1.125,-0.9375 1.5,-1.875 0.375,-0.9375 0.375,-2.57813 z"
           style="font-size:48px"
           id="path5942" />
        <path
           d="m 244.2334,211.57363 v 5.25 h -0.96094 q -1.07812,-4.57031 -5.25,-4.57031 -1.80469,0 -3.02344,0.96094 -1.19531,0.9375 -1.19531,2.15625 0,1.03125 0.84375,1.64062 0.86719,0.58594 4.05469,1.00782 7.00781,0.86718 7.00781,6.375 0,2.74218 -1.82812,4.57031 -1.80469,1.82812 -4.5,1.82812 -2.64844,0 -5.13282,-2.17968 l -1.64062,1.40625 h -0.82031 v -6.91407 h 0.82031 q 2.01562,6.63282 6.77344,6.63282 1.80468,0 3.28125,-1.14844 1.47656,-1.14844 1.47656,-2.69531 0,-1.28907 -0.89063,-1.94532 -0.86718,-0.65625 -4.73437,-1.21875 -6.58594,-0.96093 -6.58594,-5.85937 0,-2.41406 1.75781,-4.03125 1.78125,-1.64063 4.33594,-1.64063 2.69531,0 4.52344,1.78125 0.46875,-0.49218 0.96094,-1.40625 z"
           style="font-size:48px"
           id="path5944" />
        <path
           d="m 266.49902,219.58926 h -11.85937 q -0.16406,6.9375 0.77344,8.55469 0.9375,1.59375 3.35156,1.59375 4.96875,0 6.72656,-5.76563 h 1.00781 q -0.77343,3.49219 -2.92968,5.15625 -2.15625,1.66406 -4.80469,1.66406 -3.77344,0 -6.5625,-2.78906 -2.78906,-2.8125 -2.78906,-7.05469 0,-4.125 2.71875,-6.9375 2.74218,-2.8125 6.35156,-2.8125 3.14062,0 5.48437,2.22657 2.36719,2.22656 2.53125,6.16406 z m -11.85937,-1.05469 h 6.82031 q 0.1875,-1.66406 0.1875,-2.53125 0,-3.75 -3.39844,-3.75 -1.6875,0 -2.64843,0.91406 -0.96094,0.89063 -0.96094,2.4375 z"
           style="font-size:48px"
           id="path5946" />
        <path
           d="m 273.15527,229.01113 v -16.03125 h -3.30468 v -1.19531 h 2.0625 q 3.65625,0 5.8125,-0.30469 v 4.52344 h 0.0937 q 1.85156,-4.52344 6.60937,-4.52344 5.17969,0 5.71875,4.80469 h 0.0937 q 2.03906,-4.80469 6.77344,-4.80469 2.10937,0 3.53906,1.05469 1.45313,1.05469 1.78125,2.4375 0.35156,1.38281 0.35156,4.57031 v 9.46875 h 3.25782 v 1.19532 H 295.0459 v -1.19532 h 3.07031 v -11.57812 q 0,-2.74219 -0.32812,-3.77344 -0.30469,-1.03125 -1.6875,-1.03125 -1.89844,0 -3.91407,2.15625 -1.99218,2.13281 -1.99218,8.13281 v 6.09375 h 3.02343 v 1.19532 h -10.61718 v -1.19532 h 3.04687 v -9.07031 q 0,-5.29687 -0.39844,-6.30469 -0.375,-1.00781 -1.82812,-1.00781 -1.99219,0 -3.49219,1.75781 -1.47656,1.75782 -1.85156,3.42188 -0.35156,1.66406 -0.35156,5.29687 v 5.90625 h 3.02343 v 1.19532 h -10.89843 v -1.19532 z"
           style="font-size:48px"
           id="path5948" />
        <path
           d="m 321.31934,219.68301 v -2.39063 q 0,-2.92968 -0.49219,-3.84375 -0.46875,-0.91406 -2.57813,-0.91406 -3.79687,0 -3.79687,1.45313 0,0.42187 0.30469,0.9375 0.32812,0.49218 0.32812,1.17187 0,0.96094 -0.63281,1.47656 -0.63281,0.49219 -1.42969,0.49219 -1.03125,0 -1.59375,-0.63281 -0.5625,-0.65625 -0.5625,-1.52344 0,-1.875 2.17969,-3.14062 2.20312,-1.28907 6.11719,-1.28907 3.14062,0 4.59375,0.72657 1.45312,0.72656 1.78125,1.80468 0.35156,1.07813 0.35156,3.04688 v 8.625 q 0,1.89844 0.25781,2.36719 0.28125,0.46875 0.84375,0.46875 0.84375,0 1.64063,-1.14844 h 0.5625 q -0.60938,3.42187 -3.98438,3.42187 -3.25781,0 -3.89062,-3.75 -2.74219,3.75 -6.42188,3.75 -2.4375,0 -3.89062,-1.3125 -1.45313,-1.33593 -1.45313,-3.25781 0,-5.97656 11.76563,-6.53906 z m 0,3.60937 v -2.53125 q -4.33594,0.16407 -5.71875,1.3125 -1.38282,1.125 -1.38282,3.28125 0,1.57032 0.82032,2.4375 0.84375,0.86719 1.92187,0.86719 1.38281,0 2.48438,-0.91406 1.125,-0.9375 1.5,-1.875 0.375,-0.9375 0.375,-2.57813 z"
           style="font-size:48px"
           id="path5950" />
        <path
           d="m 335.40527,229.01113 v -16.03125 h -3.32812 v -1.19531 h 2.13281 q 3.16406,0 5.74219,-0.35156 v 4.57031 h 0.0937 q 2.41406,-4.80469 6.82031,-4.80469 2.0625,0 3.375,1.05469 1.33594,1.05469 1.80469,2.48438 0.49219,1.42968 0.49219,4.42968 v 9.84375 h 3.65625 v 1.19532 h -11.34375 v -1.19532 h 3.11718 v -11.71875 q 0,-2.69531 -0.35156,-3.72656 -0.32812,-1.03125 -1.75781,-1.03125 -2.27344,0 -4.10156,2.34375 -1.80469,2.32031 -1.80469,6.25781 v 7.875 h 3.07031 v 1.19532 h -10.94531 v -1.19532 z"
           style="font-size:48px"
           id="path5952" />
        <path
           d="m 370.91309,219.68301 v -2.39063 q 0,-2.92968 -0.49219,-3.84375 -0.46875,-0.91406 -2.57813,-0.91406 -3.79687,0 -3.79687,1.45313 0,0.42187 0.30469,0.9375 0.32812,0.49218 0.32812,1.17187 0,0.96094 -0.63281,1.47656 -0.63281,0.49219 -1.42969,0.49219 -1.03125,0 -1.59375,-0.63281 -0.5625,-0.65625 -0.5625,-1.52344 0,-1.875 2.17969,-3.14062 2.20312,-1.28907 6.11719,-1.28907 3.14062,0 4.59375,0.72657 1.45312,0.72656 1.78125,1.80468 0.35156,1.07813 0.35156,3.04688 v 8.625 q 0,1.89844 0.25781,2.36719 0.28125,0.46875 0.84375,0.46875 0.84375,0 1.64063,-1.14844 h 0.5625 q -0.60938,3.42187 -3.98438,3.42187 -3.25781,0 -3.89062,-3.75 -2.74219,3.75 -6.42188,3.75 -2.4375,0 -3.89062,-1.3125 -1.45313,-1.33593 -1.45313,-3.25781 0,-5.97656 11.76563,-6.53906 z m 0,3.60937 v -2.53125 q -4.33594,0.16407 -5.71875,1.3125 -1.38282,1.125 -1.38282,3.28125 0,1.57032 0.82032,2.4375 0.84375,0.86719 1.92187,0.86719 1.38281,0 2.48438,-0.91406 1.125,-0.9375 1.5,-1.875 0.375,-0.9375 0.375,-2.57813 z"
           style="font-size:48px"
           id="path5954" />
        <path
           d="m 383.80371,227.81582 q 0,-1.19531 0.84375,-2.0625 0.86719,-0.86719 2.0625,-0.86719 1.24219,0 2.10938,0.86719 0.86718,0.84375 0.86718,2.0625 0,1.21875 -0.86718,2.10938 -0.86719,0.86718 -2.10938,0.86718 -1.19531,0 -2.0625,-0.86718 -0.84375,-0.89063 -0.84375,-2.10938 z"
           style="font-size:48px"
           id="path5956" />
      </g>
    </g>
  </g>
</svg>
