<?xml version="1.0" encoding="UTF-8" standalone="no"?>
<!-- Generator: Adobe Illustrator 19.0.0, SVG Export Plug-In . SVG Version: 6.00 Build 0)  -->

<svg
   xmlns:dc="http://purl.org/dc/elements/1.1/"
   xmlns:cc="http://creativecommons.org/ns#"
   xmlns:rdf="http://www.w3.org/1999/02/22-rdf-syntax-ns#"
   xmlns:svg="http://www.w3.org/2000/svg"
   xmlns="http://www.w3.org/2000/svg"
   xmlns:sodipodi="http://sodipodi.sourceforge.net/DTD/sodipodi-0.dtd"
   xmlns:inkscape="http://www.inkscape.org/namespaces/inkscape"
   version="1.1"
   id="Layer_1"
   x="0px"
   y="0px"
   viewBox="0 0 512 350"
   xml:space="preserve"
   sodipodi:docname="broken-heart.svg"
   inkscape:version="0.92.1 r15371"
   width="512"
   height="350"><metadata
   id="metadata65"><rdf:RDF><cc:Work
       rdf:about=""><dc:format>image/svg+xml</dc:format><dc:type
         rdf:resource="http://purl.org/dc/dcmitype/StillImage" /><dc:title></dc:title></cc:Work></rdf:RDF></metadata><defs
   id="defs63" /><sodipodi:namedview
   pagecolor="#ffffff"
   bordercolor="#666666"
   borderopacity="1"
   objecttolerance="10"
   gridtolerance="10"
   guidetolerance="10"
   inkscape:pageopacity="0"
   inkscape:pageshadow="2"
   inkscape:window-width="1366"
   inkscape:window-height="705"
   id="namedview61"
   showgrid="false"
   inkscape:zoom="0.65186406"
   inkscape:cx="133.43249"
   inkscape:cy="204.01941"
   inkscape:window-x="-8"
   inkscape:window-y="-8"
   inkscape:window-maximized="1"
   inkscape:current-layer="g4585" />
<circle
   style="opacity:1;fill:#ffe680;fill-opacity:1;stroke:none;stroke-width:1.6283946"
   id="path4542"
   cx="253.48236"
   cy="179.06339"
   r="166.37959" />









<g
   id="g4558"
   transform="matrix(0.57446141,0,0,0.57446141,106.42023,46.95614)"><path
     id="path2"
     d="m 256.002,165.368 c 0,-71.342 49.121,-129.176 109.715,-129.176 75.742,0 137.143,72.293 137.143,161.471 0,110.307 -129.353,218.175 -243.256,277.266 -2.259,1.172 -4.945,1.172 -7.205,0 C 138.496,415.837 9.144,307.969 9.144,197.662 c 0,-89.178 61.401,-161.471 137.143,-161.471 60.594,10e-4 109.715,57.835 109.715,129.177 z"
     style="fill:#f97177"
     inkscape:connector-curvature="0" /><path
     id="path4"
     d="m 253.298,474.9 c 0.732,0.536 1.536,0.829 2.353,0.89 -1.122,-0.049 -2.231,-0.33 -3.256,-0.866 C 138.488,415.837 9.144,307.965 9.144,197.666 9.144,112.778 64.757,43.204 135.44,36.693 97.617,61.164 70.914,120.788 70.914,190.46 c 0,113.165 96.984,223.828 182.384,284.44 z"
     style="fill:#e54253"
     inkscape:connector-curvature="0" /><g
     id="g12">
	<path
   id="path6"
   d="m 458.228,277.483 c 5.926,5.926 9.791,13.132 11.608,20.728 -11.839,18.643 -26.386,36.75 -42.81,54.064 -11.132,-0.061 -22.265,-4.341 -30.763,-12.827 l -13.656,-13.656 -61.953,-61.965 -13.656,-13.656 c -17.119,-17.107 -17.119,-44.846 0,-61.953 8.56,-8.56 19.765,-12.827 30.97,-12.827 11.218,0 22.435,4.268 30.983,12.827 l 13.656,13.656 61.965,61.953 z"
   style="fill:#eae2dc"
   inkscape:connector-curvature="0" />
	<path
   id="path8"
   d="m 320.654,263.827 61.953,61.965 -13.656,13.656 c -17.107,17.107 -44.846,17.107 -61.953,0 -17.119,-17.107 -17.119,-44.846 0,-61.965 z"
   style="fill:#eae2dc"
   inkscape:connector-curvature="0" />
	<path
   id="path10"
   d="m 458.228,188.217 c 8.547,8.56 12.827,19.765 12.827,30.97 0,11.218 -4.28,22.435 -12.827,30.983 l -13.656,13.656 -61.965,-61.953 13.656,-13.656 c 17.119,-17.106 44.859,-17.106 61.965,0 z"
   style="fill:#eae2dc"
   inkscape:connector-curvature="0" />
</g><path
     id="path14"
     d="m 469.662,77.572 c -3.269,-3.848 -9.04,-4.32 -12.889,-1.051 -3.849,3.269 -4.32,9.041 -1.051,12.891 24.498,28.846 37.99,67.294 37.99,108.26 0,25.907 -7.696,53.023 -22.851,80.801 -1.823,-2.65 -3.868,-5.155 -6.165,-7.451 l -7.19,-7.189 7.189,-7.189 c 10,-10 15.507,-23.299 15.507,-37.45 0,-14.128 -5.506,-27.422 -15.506,-37.436 -15.082,-15.08 -37.6,-19.644 -57.368,-11.632 -4.681,1.897 -6.937,7.229 -5.039,11.91 1.897,4.68 7.228,6.937 11.91,5.039 12.945,-5.247 27.69,-2.259 37.561,7.61 6.548,6.556 10.153,15.261 10.153,24.508 0,9.266 -3.604,17.971 -10.15,24.517 l -7.19,7.19 -69.148,-69.14 c -9.987,-10.002 -23.29,-15.511 -37.455,-15.511 -14.143,0 -27.438,5.506 -37.434,15.504 -10.008,10.001 -15.521,23.299 -15.521,37.445 0,14.146 5.512,27.444 15.518,37.443 l 7.189,7.19 -7.189,7.189 c -10.007,10.007 -15.518,23.308 -15.518,37.453 0,14.148 5.512,27.445 15.518,37.444 10.001,10.001 23.297,15.51 37.443,15.51 14.145,0 27.442,-5.509 37.443,-15.51 l 7.19,-7.19 7.194,7.195 c 5.406,5.399 11.787,9.478 18.738,12.098 -41.016,40.193 -94.542,78.316 -152.539,108.475 -55.065,-28.638 -107.513,-65.496 -147.744,-103.838 -3.653,-3.484 -9.442,-3.347 -12.93,0.311 -3.484,3.657 -3.345,9.445 0.312,12.93 41.593,39.641 95.768,77.693 152.562,107.157 2.445,1.263 5.125,1.894 7.802,1.894 2.684,0 5.366,-0.634 7.808,-1.902 C 329.571,448.936 389.89,404.73 433.659,358.573 451.078,340.21 465.846,321.552 477.55,303.122 500.411,267.181 512,231.703 512,197.668 512,152.373 496.963,109.721 469.662,77.572 Z M 362.483,332.986 c -6.546,6.546 -15.251,10.152 -24.511,10.152 -9.26,0 -17.963,-3.605 -24.512,-10.154 -6.551,-6.546 -10.159,-15.25 -10.159,-24.509 0,-9.259 3.609,-17.968 10.162,-24.52 l 7.188,-7.189 49.024,49.03 z m 60.803,9.918 c -7.762,-0.882 -14.956,-4.325 -20.556,-9.917 l -89.267,-89.28 c -6.551,-6.546 -10.159,-15.25 -10.159,-24.508 0,-9.258 3.608,-17.962 10.162,-24.511 6.543,-6.544 15.246,-10.148 24.503,-10.148 9.274,0 17.98,3.603 24.517,10.148 l 89.278,89.266 c 3.642,3.642 6.39,8.033 8.105,12.841 -10.034,15.29 -22.315,30.769 -36.583,46.109 z"
     inkscape:connector-curvature="0" /><path
     id="path16"
     d="m 18.29,197.672 c 0,-83.995 57.422,-152.328 128.002,-152.328 55.453,0 100.569,53.845 100.569,120.029 0,5.05 4.093,9.145 9.145,9.145 5.052,0 9.145,-4.094 9.145,-9.145 0,-66.184 45.116,-120.029 100.569,-120.029 22.512,0 44.654,7.066 64.032,20.433 4.158,2.867 9.853,1.822 12.721,-2.335 2.868,-4.158 1.822,-9.853 -2.335,-12.721 -22.446,-15.484 -48.18,-23.668 -74.417,-23.668 -49.347,0 -91.765,35.176 -109.713,85.111 C 238.059,62.227 195.64,27.053 146.295,27.053 65.626,27.054 0,103.592 0,197.672 c 0,47.304 22.021,96.666 65.45,146.711 1.807,2.084 4.352,3.151 6.91,3.151 2.125,0 4.259,-0.736 5.99,-2.237 3.814,-3.31 4.222,-9.086 0.913,-12.9 C 38.803,285.772 18.29,240.444 18.29,197.672 Z"
     inkscape:connector-curvature="0" /><path
     id="path18"
     d="m 373.317,215.916 c -3.571,-3.571 -9.361,-3.573 -12.933,0 l -25.697,25.697 c -3.571,3.571 -3.571,9.361 0,12.932 1.786,1.786 4.126,2.679 6.467,2.679 2.34,0 4.681,-0.893 6.467,-2.679 l 25.697,-25.697 c 3.57,-3.57 3.57,-9.36 -10e-4,-12.932 z"
     inkscape:connector-curvature="0" /><path
     id="path20"
     d="m 417.599,273.133 -25.696,25.697 c -3.571,3.571 -3.571,9.362 10e-4,12.932 1.785,1.786 4.126,2.679 6.466,2.679 2.34,0 4.681,-0.893 6.467,-2.679 l 25.696,-25.697 c 3.571,-3.571 3.571,-9.362 -0.001,-12.932 -3.57,-3.573 -9.361,-3.572 -12.933,0 z"
     inkscape:connector-curvature="0" /><circle
     id="circle22"
     r="9.1450005"
     cy="244.241"
     cx="383.61899" /><circle
     id="circle24"
     r="9.1450005"
     cy="283.44199"
     cx="381.595" /><circle
     id="circle26"
     r="9.1450005"
     cy="262.83499"
     cx="402.21301" /><circle
     id="circle28"
     r="9.1450005"
     cy="264.85999"
     cx="363.013" /></g>
<g
   id="g30"
   transform="translate(0,-162)">
</g>
<g
   id="g32"
   transform="translate(0,-162)">
</g>
<g
   id="g34"
   transform="translate(0,-162)">
</g>
<g
   id="g36"
   transform="translate(0,-162)">
</g>
<g
   id="g38"
   transform="translate(0,-162)">
</g>
<g
   id="g40"
   transform="translate(0,-162)">
</g>
<g
   id="g42"
   transform="translate(0,-162)">
</g>
<g
   id="g44"
   transform="translate(0,-162)">
</g>
<g
   id="g46"
   transform="translate(0,-162)">
</g>
<g
   id="g48"
   transform="translate(0,-162)">
</g>
<g
   id="g50"
   transform="translate(0,-162)">
</g>
<g
   id="g52"
   transform="translate(0,-162)">
</g>
<g
   id="g54"
   transform="translate(0,-162)">
</g>
<g
   id="g56"
   transform="translate(0,-162)">
</g>
<g
   id="g58"
   transform="translate(0,-162)">
</g>
<g
   id="g4585"
   transform="matrix(1.3251778,0,0,1.3251778,-69.556819,-443.52661)"><path
     sodipodi:nodetypes="cccccc"
     inkscape:connector-curvature="0"
     id="path4540-3"
     d="m 61.74198,542.90799 56.02812,0.97524 v 36.08411 l -56.02812,0.48763 16.100252,-19.44246 z"
     style="fill:#ffcc00;stroke:#000000;stroke-width:3.08823824;stroke-linecap:butt;stroke-linejoin:miter;stroke-opacity:1" /><path
     sodipodi:nodetypes="cccccc"
     inkscape:connector-curvature="0"
     id="path4540-3-9"
     d="m 428.90468,542.44032 -56.02812,0.97525 v 36.08411 l 56.02812,0.48765 -16.10026,-19.44248 z"
     style="fill:#ffcc00;stroke:#000000;stroke-width:3.08823824;stroke-linecap:butt;stroke-linejoin:miter;stroke-opacity:1" /><path
     sodipodi:nodetypes="ccccc"
     inkscape:connector-curvature="0"
     id="path4540"
     d="m 87.51392,524.53469 315.61883,0.93528 v 34.60513 l -315.61883,0.46762 z"
     style="fill:#ffcc00;stroke:#000000;stroke-width:3.08823824;stroke-linecap:butt;stroke-linejoin:miter;stroke-opacity:1" /><text
     xml:space="preserve"
     style="font-style:normal;font-variant:normal;font-weight:normal;font-stretch:normal;font-size:28.46603394px;line-height:1.25;font-family:Calligraffitti;-inkscape-font-specification:Calligraffitti;letter-spacing:0px;word-spacing:0px;fill:#000000;fill-opacity:1;stroke:none;stroke-width:0.762483"
     x="97.596245"
     y="550.81189"
     id="text4555"
     transform="rotate(0.432022)"><tspan
       sodipodi:role="line"
       id="tspan4553"
       x="97.596245"
       y="550.81189"
       style="font-style:normal;font-variant:normal;font-weight:normal;font-stretch:normal;font-family:'Old English Text MT';-inkscape-font-specification:'Old English Text MT';stroke:none;stroke-width:0.762483">Errou, mas não desanime!</tspan></text>
<path
     inkscape:connector-curvature="0"
     id="path4587"
     d="m 90.471672,563.15385 27.002568,15.5456 -0.33493,-16.23907 z"
     style="fill:#d4aa00;stroke:#000000;stroke-width:2.60995841;stroke-linecap:butt;stroke-linejoin:miter;stroke-opacity:1" /><path
     inkscape:connector-curvature="0"
     id="path4587-1"
     d="m 399.88319,562.70853 -25.54448,15.34049 0.31684,-15.70491 z"
     style="fill:#d4aa00;stroke:#000000;stroke-width:2.49641418;stroke-linecap:butt;stroke-linejoin:miter;stroke-opacity:1"
     sodipodi:nodetypes="cccc" /></g></svg>