<?xml version="1.0" encoding="UTF-8" standalone="no"?>
<!-- Generator: Adobe Illustrator 19.0.0, SVG Export Plug-In . SVG Version: 6.00 Build 0)  -->

<svg
   xmlns:dc="http://purl.org/dc/elements/1.1/"
   xmlns:cc="http://creativecommons.org/ns#"
   xmlns:rdf="http://www.w3.org/1999/02/22-rdf-syntax-ns#"
   xmlns:svg="http://www.w3.org/2000/svg"
   xmlns="http://www.w3.org/2000/svg"
   xmlns:sodipodi="http://sodipodi.sourceforge.net/DTD/sodipodi-0.dtd"
   xmlns:inkscape="http://www.inkscape.org/namespaces/inkscape"
   version="1.1"
   id="Layer_1"
   x="0px"
   y="0px"
   viewBox="0 0 512 512"
   style="enable-background:new 0 0 512 512;"
   xml:space="preserve"
   sodipodi:docname="brother.svg"
   inkscape:version="0.92.1 r15371"><metadata
   id="metadata151"><rdf:RDF><cc:Work
       rdf:about=""><dc:format>image/svg+xml</dc:format><dc:type
         rdf:resource="http://purl.org/dc/dcmitype/StillImage" /><dc:title></dc:title></cc:Work></rdf:RDF></metadata><defs
   id="defs149" /><sodipodi:namedview
   pagecolor="#ffffff"
   bordercolor="#666666"
   borderopacity="1"
   objecttolerance="10"
   gridtolerance="10"
   guidetolerance="10"
   inkscape:pageopacity="0"
   inkscape:pageshadow="2"
   inkscape:window-width="1366"
   inkscape:window-height="705"
   id="namedview147"
   showgrid="false"
   inkscape:zoom="0.4609375"
   inkscape:cx="256"
   inkscape:cy="256"
   inkscape:window-x="-8"
   inkscape:window-y="-8"
   inkscape:window-maximized="1"
   inkscape:current-layer="Layer_1" />

































<g
   id="g4693"><g
     transform="matrix(1.16341,0,0,1.16341,-196.14036,-40.734253)"
     id="g62">
	<path
   inkscape:connector-curvature="0"
   id="path58"
   d="m 291.548,220.186 c -11.469,-0.508 -20.598,-9.971 -20.598,-21.561 0,-11.913 9.657,-21.579 21.579,-21.579 1.073,0 2.128,0.074 3.163,0.232"
   style="fill:#e0b394" />
	<path
   inkscape:connector-curvature="0"
   id="path60"
   d="m 481.922,220.186 c 11.469,-0.508 20.608,-9.971 20.608,-21.561 0,-11.913 -9.665,-21.579 -21.589,-21.579 -1.073,0 -2.136,0.083 -3.163,0.232"
   style="fill:#e0b394" />
</g><path
     inkscape:connector-curvature="0"
     id="path64"
     d="M 376.47378,381.60918 V 495.20105 H 131.12456 V 381.60918 c 0,-31.93793 20.41319,-59.12101 48.89812,-69.18218 1.76489,-0.63521 3.56237,-1.19482 5.38077,-1.67879 v -0.0105 c 1.63575,-0.44094 3.30293,-0.82952 4.98289,-1.15062 h 126.82798 c 1.69043,0.3339 3.35643,0.70968 5.00382,1.16225 1.81842,0.49561 3.61588,1.05521 5.38078,1.6788 28.47213,10.07164 48.87486,37.25356 48.87486,69.18101 z"
     style="fill:#fc8a5e;stroke-width:1.16340995" /><path
     inkscape:connector-curvature="0"
     id="path66"
     d="m 221.59248,309.58363 h -31.20614 c -33.76798,6.57559 -59.26062,36.32981 -59.26062,72.02322 v 113.59071 h 31.20615 V 381.60685 c 8.9e-4,-35.69341 25.49264,-65.44763 59.26061,-72.02322 z"
     style="fill:#ea7653;stroke-width:1.16340995" /><path
     inkscape:connector-curvature="0"
     id="path68"
     d="m 322.22862,311.1903 c 0,1.91613 -0.0756,3.82064 -0.23618,5.69256 -2.89456,35.12451 -32.31487,62.72525 -68.18164,62.72525 -35.86677,0 -65.28592,-27.60189 -68.17117,-62.71478 -0.17219,-1.88356 -0.24781,-3.77642 -0.24781,-5.70419 0,-0.15008 0,-0.28969 0.0105,-0.44093 v -0.0105 c 1.63576,-0.44094 3.30293,-0.82952 4.98289,-1.15062 h 126.82798 c 1.69043,0.3339 3.35644,0.70968 5.00382,1.16225 0.0117,0.15008 0.0117,0.29085 0.0117,0.44093 z"
     style="fill:#f7cba4;stroke-width:1.16340995" /><path
     inkscape:connector-curvature="0"
     id="path70"
     d="m 322.22862,311.1903 c 0,1.91613 -0.0756,3.82064 -0.23618,5.69256 l -31.87395,23.14721 c -21.66152,15.73279 -50.98527,15.73279 -72.63634,0 l -31.84137,-23.13674 c -0.17217,-1.88356 -0.2478,-3.77642 -0.2478,-5.70419 0,-0.15008 0,-0.28969 0.0105,-0.44093 v -0.0105 c 1.63575,-0.44094 3.30292,-0.82952 4.98288,-1.15062 h 126.82799 c 1.69043,0.3339 3.35643,0.70968 5.00382,1.16225 0.0105,0.15008 0.0105,0.29085 0.0105,0.44093 z"
     style="fill:#e0b394;stroke-width:1.16340995" /><path
     inkscape:connector-curvature="0"
     id="path72"
     d="m 334.29085,297.17935 -44.17351,32.08918 c -21.66153,15.73279 -50.98528,15.73279 -72.63634,0 l -44.17352,-32.08918 c -23.34033,-16.95903 -35.9738,-45.01233 -33.1979,-73.73344 l 6.69309,-69.21475 0.96912,-10.06117 c 5.27257,-54.611625 51.16794,-96.277993 106.02737,-96.277993 27.42972,0 52.61057,10.417174 71.60324,27.655418 13.97837,12.68699 24.58867,29.075935 30.27076,47.724235 2.04412,6.6931 3.45417,13.68868 4.15338,20.89717 l 7.65058,79.27593 c 2.77706,28.7211 -9.84594,56.77557 -33.18627,73.7346 z"
     style="fill:#f7cba4;stroke-width:1.16340995" /><g
     transform="matrix(1.16341,0,0,1.16341,-196.14036,-40.734253)"
     id="g78">
	<path
   inkscape:connector-curvature="0"
   id="path74"
   d="m 312.648,240.509 c -0.639,10.794 2.877,21.412 9.832,29.691 l 39.683,48.763 c 2.071,2.47 4.421,4.541 6.965,6.197 -4.773,-1.664 -9.361,-4.051 -13.606,-7.131 L 317.553,290.447 C 297.491,275.87 286.641,251.765 289.028,227.078 l 6.576,-68.15 c 4.496,-46.479 43.214,-82.052 89.766,-82.727 -28.673,0.694 -61.142,27.721 -62.835,56.505 z"
   style="fill:#e0b394" />
	<path
   inkscape:connector-curvature="0"
   id="path76"
   d="m 474.307,140.97 c -15.437,-6.336 -34.639,-9.064 -55.728,-0.527 -26.231,10.61 -44.397,9.786 -57.966,3.848 -0.306,-0.148 -0.62,-0.287 -0.934,-0.435 -0.296,-0.129 -0.582,-0.268 -0.869,-0.407 -2.756,-1.332 -5.319,-2.885 -7.714,-4.587 -0.028,0.084 -0.065,0.167 -0.101,0.249 -10.359,26.592 -55.534,29.635 -55.534,29.635 0,0 -0.259,-0.407 -0.685,-1.166 l 0.833,-8.648 c 4.532,-46.941 43.981,-82.755 91.135,-82.755 23.577,0 45.221,8.954 61.546,23.771 12.013,10.906 21.133,24.992 26.017,41.022 z"
   style="fill:#e0b394" />
</g><path
     inkscape:connector-curvature="0"
     id="path80"
     d="m 399.52558,144.89828 c 0,0 -47.51017,-56.677835 -108.6846,-31.92746 -30.51741,12.34378 -51.65192,11.38513 -67.43823,4.4768 -0.356,-0.17218 -0.72132,-0.3339 -1.08663,-0.50608 -0.34436,-0.15008 -0.6771,-0.31179 -1.011,-0.47351 -3.20636,-1.54966 -6.18818,-3.35644 -8.97454,-5.33656 -0.0326,0.0966 -0.0756,0.19429 -0.11867,0.28969 -12.05176,30.9374 -64.60882,34.47766 -64.60882,34.47766 0,0 -23.55555,-37.58862 -10.64287,-66.642454 10.23335,-23.039007 37.38386,-47.424081 83.59101,-56.537071 12.07387,-2.389645 25.44959,-3.724076 40.15975,-3.724076 71.02037,-0.0012 138.8146,47.347298 138.8146,125.903061 z"
     style="fill:#666666;stroke-width:1.16340995" /><path
     inkscape:connector-curvature="0"
     id="path82"
     d="m 220.55007,22.718131 c 0,0 -55.10608,57.764474 -8.33932,88.703029 -12.05177,30.9374 -64.60882,34.47766 -64.60882,34.47766 0,0 -23.55556,-37.58862 -10.64287,-66.642454 10.23219,-23.039007 37.38269,-47.422917 83.59101,-56.538235 z"
     style="fill:#4d4d4d;stroke-width:1.16340995" /><g
     transform="matrix(1.16341,0,0,1.16341,-196.14036,-40.734253)"
     id="g88">
	<rect
   id="rect84"
   height="45.321999"
   width="40.865002"
   style="fill:#f7cba4"
   y="415.33899"
   x="451.31799" />
	<rect
   id="rect86"
   height="45.321999"
   width="40.854"
   style="fill:#f7cba4"
   y="415.33899"
   x="281.29401" />
</g><rect
     id="rect90"
     height="52.728069"
     width="31.206148"
     style="fill:#e0b394;stroke-width:1.16340995"
     y="442.47531"
     x="131.11992" /><path
     inkscape:connector-curvature="0"
     id="path92"
     d="m 205.89227,225.97517 c -4.45819,0 -8.07058,-3.61356 -8.07058,-8.07058 v -12.9092 c 0,-4.45818 3.61355,-8.07057 8.07058,-8.07057 4.45702,0 8.07057,3.61355 8.07057,8.07057 v 12.9092 c 0,4.45702 -3.61355,8.07058 -8.07057,8.07058 z"
     style="fill:#4d4d4d;stroke-width:1.16340995" /><g
     transform="matrix(1.16341,0,0,1.16341,-196.14036,-40.734253)"
     id="g98">
	<path
   inkscape:connector-curvature="0"
   id="path94"
   d="m 443.775,189.942 c -1.421,0 -2.841,-0.542 -3.924,-1.626 -3.188,-3.188 -7.426,-4.944 -11.935,-4.944 -4.508,0 -8.748,1.756 -11.935,4.944 -2.167,2.167 -5.683,2.167 -7.849,0 -2.167,-2.167 -2.167,-5.681 -0.001,-7.849 5.285,-5.284 12.31,-8.195 19.784,-8.195 7.475,0 14.5,2.911 19.785,8.195 2.167,2.167 2.167,5.681 -10e-4,7.849 -1.083,1.085 -2.503,1.626 -3.924,1.626 z"
   style="fill:#666666" />
	<path
   inkscape:connector-curvature="0"
   id="path96"
   d="m 361.424,189.942 c -1.421,0 -2.841,-0.542 -3.924,-1.626 -6.58,-6.581 -17.29,-6.581 -23.872,0 -2.167,2.167 -5.681,2.167 -7.849,0 -2.167,-2.167 -2.167,-5.681 0,-7.849 10.91,-10.91 28.66,-10.908 39.569,0 2.167,2.167 2.167,5.681 0,7.849 -1.084,1.085 -2.503,1.626 -3.924,1.626 z"
   style="fill:#666666" />
</g><g
     transform="matrix(1.16341,0,0,1.16341,-196.14036,-40.734253)"
     id="g104">
	<path
   inkscape:connector-curvature="0"
   id="path100"
   d="m 427.916,229.248 c -3.832,0 -6.937,-3.106 -6.937,-6.937 v -11.096 c 0,-3.832 3.105,-6.937 6.937,-6.937 3.832,0 6.937,3.106 6.937,6.937 v 11.096 c 0,3.831 -3.106,6.937 -6.937,6.937 z"
   style="fill:#4d4d4d" />
	<path
   inkscape:connector-curvature="0"
   id="path102"
   d="m 361.534,272.032 c 5.348,1.217 9.56,2.178 13.646,2.697 4.041,0.545 7.791,0.81 11.559,0.807 3.768,-0.014 7.514,-0.278 11.552,-0.826 4.083,-0.52 8.292,-1.474 13.653,-2.678 -1.251,5.384 -4.935,9.728 -9.477,12.771 -4.581,3.027 -10.162,4.613 -15.727,4.605 -5.565,-0.008 -11.142,-1.593 -15.721,-4.623 -4.539,-3.046 -8.222,-7.383 -9.485,-12.753 z"
   style="fill:#4d4d4d" />
</g><path
     inkscape:connector-curvature="0"
     id="path106"
     d="m 245.26439,251.26305 14.00862,-3.73339 c 4.31508,-1.14944 6.88041,-5.57971 5.73095,-9.8948 l -9.54578,-35.82953"
     style="fill:#e0b394;stroke-width:1.16340995" /><g
     transform="matrix(1.16341,0,0,1.16341,-196.14036,-40.734253)"
     id="g114">
	<path
   inkscape:connector-curvature="0"
   id="path108"
   d="m 445.55,302.115 c -1.415,-0.388 -2.849,-0.713 -4.301,-0.999 h -0.324 v 0.999 c 0,0.111 0,0.158 0.009,0.278 v 0.102 c 0,29.875 -24.307,54.183 -54.183,54.183 -29.885,0 -54.183,-24.308 -54.183,-54.183 v -0.102 c 0,-0.101 0.009,-0.204 0.009,-0.306 v -0.971 h -0.342 c -1.443,0.278 -2.877,0.61 -4.283,0.989 v 0.009 c -1.563,0.416 -3.108,0.897 -4.625,1.443 0.574,34.483 28.793,62.369 63.424,62.369 34.62,0 62.85,-27.887 63.424,-62.369 -1.517,-0.536 -3.061,-1.017 -4.625,-1.442 z"
   style="fill:#ea7653" />
	<polygon
   id="polygon110"
   points="312.747,415.333 322.155,415.333 322.155,369.554 "
   style="fill:#ea7653" />
	<polygon
   id="polygon112"
   points="460.73,415.333 451.323,415.333 451.323,369.554 "
   style="fill:#ea7653" />
</g></g>
<g
   id="g116">
</g>
<g
   id="g118">
</g>
<g
   id="g120">
</g>
<g
   id="g122">
</g>
<g
   id="g124">
</g>
<g
   id="g126">
</g>
<g
   id="g128">
</g>
<g
   id="g130">
</g>
<g
   id="g132">
</g>
<g
   id="g134">
</g>
<g
   id="g136">
</g>
<g
   id="g138">
</g>
<g
   id="g140">
</g>
<g
   id="g142">
</g>
<g
   id="g144">
</g>
</svg>