<?xml version="1.0" encoding="iso-8859-1"?>
<!-- Generator: Adobe Illustrator 19.0.0, SVG Export Plug-In . SVG Version: 6.00 Build 0)  -->
<svg version="1.1" id="Layer_1" xmlns="http://www.w3.org/2000/svg" xmlns:xlink="http://www.w3.org/1999/xlink" x="0px" y="0px"
	 viewBox="0 0 512 512" style="enable-background:new 0 0 512 512;" xml:space="preserve">
<g>
	<g>
		<path style="fill:#A8ADB2;" d="M394.761,69.424c-4.79,0-8.678-3.888-8.678-8.678c0-19.144,15.568-34.712,34.712-34.712
			c9.572,0,17.356-7.784,17.356-17.356c0-4.79,3.888-8.678,8.678-8.678s8.678,3.888,8.678,8.678
			c0,19.144-15.568,34.712-34.712,34.712c-9.572,0-17.356,7.784-17.356,17.356C403.439,65.536,399.551,69.424,394.761,69.424"/>
		<path style="fill:#A8ADB2;" d="M368.727,43.39c-4.79,0-8.678-3.888-8.678-8.678C360.049,15.568,375.617,0,394.761,0
			c4.79,0,8.678,3.888,8.678,8.678s-3.888,8.678-8.678,8.678c-9.572,0-17.356,7.784-17.356,17.356
			C377.405,39.502,373.517,43.39,368.727,43.39"/>
	</g>
	<path style="fill:#A46F3E;" d="M470.234,269.017H42.358c-19.239,0-33.245-18.232-28.29-36.821l19.742-74.023
		c3.037-11.394,13.364-19.326,25.157-19.326H452.86c11.793,0,22.12,7.932,25.157,19.326l19.933,74.761
		C502.811,251.149,489.082,269.017,470.234,269.017"/>
	<path style="fill:#84542C;" d="M394.761,138.847h-34.712V99.944c0-8.071-4.556-15.438-11.767-19.048
		c-3.428-1.71-5.589-5.207-5.589-9.042v-0.998c0-5.58,4.53-10.11,10.11-10.11h50.063c5.111,0,9.251,4.139,9.251,9.251v2.386
		c0,3.506-1.979,6.708-5.111,8.279l-0.477,0.234c-7.211,3.61-11.767,10.978-11.767,19.048V138.847z"/>
	<polygon style="fill:#663C1E;" points="281.947,512 386.083,512 386.083,303.729 281.947,303.729 	"/>
	<g>
		<path style="fill:#A46F3E;" d="M360.049,425.22h-8.678c-4.79,0-8.678-3.888-8.678-8.678c0-4.79,3.888-8.678,8.678-8.678h8.678
			c4.79,0,8.678,3.888,8.678,8.678C368.727,421.333,364.839,425.22,360.049,425.22"/>
		<path style="fill:#A46F3E;" d="M360.049,355.797c0,14.379-11.654,26.034-26.034,26.034c-14.379,0-26.034-11.654-26.034-26.034
			c0-14.379,11.654-26.034,26.034-26.034C348.394,329.763,360.049,341.417,360.049,355.797"/>
		<path style="fill:#A46F3E;" d="M465.771,329.763h-79.69v60.746h79.69c13.503,0,24.446-10.943,24.446-24.446v-11.854
			C490.217,340.706,479.274,329.763,465.771,329.763"/>
	</g>
	<path style="fill:#84542C;" d="M465.771,390.508h-79.69v60.746h79.69c13.503,0,24.446-10.943,24.446-24.446v-11.854
		C490.217,401.451,479.274,390.508,465.771,390.508"/>
	<g>
		<path style="fill:#A46F3E;" d="M465.771,451.254h-79.69V512h79.69c13.503,0,24.446-10.943,24.446-24.446V475.7
			C490.217,462.197,479.274,451.254,465.771,451.254"/>
		<path style="fill:#A46F3E;" d="M46.055,451.254c-13.503,0-24.446,10.943-24.446,24.446v11.854
			c0,13.503,10.943,24.446,24.446,24.446h235.893v-60.746H46.055z"/>
	</g>
	<polygon style="fill:#212F3E;" points="56.32,425.22 247.235,425.22 247.235,303.729 56.32,303.729 	"/>
	<path style="fill:#84542C;" d="M465.771,269.017H46.053c-13.503,0-24.446,10.943-24.446,24.446v11.854
		c0,13.503,10.943,24.446,24.446,24.446h10.266v-26.034h190.915v26.034h34.712v-26.034h104.136v26.034h79.69
		c13.503,0,24.446-10.943,24.446-24.446v-11.854C490.217,279.96,479.274,269.017,465.771,269.017"/>
	<g>
		<path style="fill:#A46F3E;" d="M56.32,329.763H46.054c-13.503,0-24.446,10.943-24.446,24.446v11.854
			c0,13.503,10.943,24.446,24.446,24.446H56.32V329.763z"/>
		<polygon style="fill:#A46F3E;" points="247.235,390.508 281.947,390.508 281.947,329.763 247.235,329.763 		"/>
	</g>
	<path style="fill:#84542C;" d="M247.235,390.508v34.712H56.32v-34.712H46.054c-13.503,0-24.446,10.943-24.446,24.446v11.854
		c0,13.503,10.943,24.446,24.446,24.446h235.893v-60.746H247.235z"/>
	<g>
		<path style="fill:#F0C419;" d="M117.066,425.22c0-33.575-27.171-60.746-60.746-60.746c33.575,0,60.746-27.171,60.746-60.746H56.32
			V425.22H117.066z"/>
		<path style="fill:#F0C419;" d="M186.489,303.729c0,33.575,27.171,60.746,60.746,60.746c-33.575,0-60.746,27.171-60.746,60.746
			h60.746V303.729H186.489z"/>
	</g>
	<g>
		<path style="fill:#84542C;" d="M27.512,181.794c0.72,0.191,1.415,0.443,2.196,0.443h61.327c4.79,0,8.678-3.888,8.678-8.678
			s-3.888-8.678-8.678-8.678h-59.01L27.512,181.794z"/>
		<path style="fill:#84542C;" d="M134.422,208.271c0-4.79-3.888-8.678-8.678-8.678H22.762l-4.504,16.913
			c0.712,0.191,1.415,0.443,2.196,0.443h105.29C130.534,216.949,134.422,213.061,134.422,208.271"/>
		<path style="fill:#84542C;" d="M496.003,225.627h-83.89c-4.79,0-8.678,3.888-8.678,8.678s3.888,8.678,8.678,8.678h86.198
			c0.113,0,0.208-0.061,0.321-0.061c0.295-3.254,0.226-6.595-0.677-9.988L496.003,225.627z"/>
		<path style="fill:#84542C;" d="M491.257,207.828l-4.513-16.913h-118.02c-4.79,0-8.678,3.888-8.678,8.678s3.888,8.678,8.678,8.678
			h120.337C489.842,208.27,490.537,208.019,491.257,207.828"/>
	</g>
</g>
<g>
</g>
<g>
</g>
<g>
</g>
<g>
</g>
<g>
</g>
<g>
</g>
<g>
</g>
<g>
</g>
<g>
</g>
<g>
</g>
<g>
</g>
<g>
</g>
<g>
</g>
<g>
</g>
<g>
</g>
</svg>
