<?xml version="1.0" encoding="UTF-8" standalone="no"?>
<!-- Generator: Adobe Illustrator 19.0.0, SVG Export Plug-In . SVG Version: 6.00 Build 0)  -->

<svg
   xmlns:dc="http://purl.org/dc/elements/1.1/"
   xmlns:cc="http://creativecommons.org/ns#"
   xmlns:rdf="http://www.w3.org/1999/02/22-rdf-syntax-ns#"
   xmlns:svg="http://www.w3.org/2000/svg"
   xmlns="http://www.w3.org/2000/svg"
   xmlns:sodipodi="http://sodipodi.sourceforge.net/DTD/sodipodi-0.dtd"
   xmlns:inkscape="http://www.inkscape.org/namespaces/inkscape"
   version="1.1"
   id="Layer_1"
   x="0px"
   y="0px"
   viewBox="0 0 503.322 503.322"
   style="enable-background:new 0 0 503.322 503.322;"
   xml:space="preserve"
   sodipodi:docname="castle2.svg"
   inkscape:version="0.92.1 r15371"><metadata
   id="metadata103"><rdf:RDF><cc:Work
       rdf:about=""><dc:format>image/svg+xml</dc:format><dc:type
         rdf:resource="http://purl.org/dc/dcmitype/StillImage" /></cc:Work></rdf:RDF></metadata><defs
   id="defs101" /><sodipodi:namedview
   pagecolor="#ffffff"
   bordercolor="#666666"
   borderopacity="1"
   objecttolerance="10"
   gridtolerance="10"
   guidetolerance="10"
   inkscape:pageopacity="0"
   inkscape:pageshadow="2"
   inkscape:window-width="1366"
   inkscape:window-height="705"
   id="namedview99"
   showgrid="false"
   inkscape:zoom="0.66310316"
   inkscape:cx="233.54588"
   inkscape:cy="254.15963"
   inkscape:window-x="-8"
   inkscape:window-y="-8"
   inkscape:window-maximized="1"
   inkscape:current-layer="Layer_1" />
<g
   id="g66"
   transform="matrix(0.93955427,0,0,0.93955427,15.211833,20.414011)"
   style="stroke:#000000;stroke-width:10.64334474">
	<path
   style="fill:#d6d0c7;stroke:#000000;stroke-width:10.64334474"
   d="m 104.136,138.847 c -4.79,0 -8.678,-3.888 -8.678,-8.678 V 34.712 c 0,-4.79 3.888,-8.678 8.678,-8.678 4.79,0 8.678,3.888 8.678,8.678 v 95.458 c 0,4.79 -3.888,8.677 -8.678,8.677"
   id="path2"
   inkscape:connector-curvature="0" />
	<polygon
   style="fill:#dd342e;stroke:#000000;stroke-width:10.64334474"
   points="112.813,98.283 112.813,19.756 21.199,72.11 "
   id="polygon4" />
	<path
   style="fill:#d6d0c7;stroke:#000000;stroke-width:10.64334474"
   d="m 399.186,138.847 c -4.79,0 -8.678,-3.888 -8.678,-8.678 V 34.712 c 0,-4.79 3.888,-8.678 8.678,-8.678 4.799,0 8.678,3.888 8.678,8.678 v 95.458 c 0,4.79 -3.879,8.677 -8.678,8.677"
   id="path6"
   inkscape:connector-curvature="0" />
	<polygon
   style="fill:#dd342e;stroke:#000000;stroke-width:10.64334474"
   points="390.508,98.286 482.122,72.113 390.508,19.759 "
   id="polygon8" />
	<polygon
   style="fill:#d6d0c7;stroke:#000000;stroke-width:10.64334474"
   points="156.203,234.305 156.203,503.322 347.119,503.322 347.119,234.305 329.763,234.305 347.119,208.271 156.203,208.271 173.559,234.305 "
   id="polygon10" />
	<g
   id="g16"
   style="stroke:#000000;stroke-width:10.64334474">
		<polygon
   style="fill:#adaaa6;stroke:#000000;stroke-width:10.64334474"
   points="52.068,503.322 156.203,503.322 156.203,234.305 52.068,234.305 "
   id="polygon12" />
		<polygon
   style="fill:#adaaa6;stroke:#000000;stroke-width:10.64334474"
   points="199.593,503.322 303.729,503.322 303.729,355.797 199.593,355.797 "
   id="polygon14" />
	</g>
	<polygon
   style="fill:#7281a4;stroke:#000000;stroke-width:10.64334474"
   points="190.915,355.797 251.661,269.017 312.407,355.797 "
   id="polygon18" />
	<polygon
   style="fill:#adaaa6;stroke:#000000;stroke-width:10.64334474"
   points="216.949,208.271 286.373,208.271 286.373,86.78 216.949,86.78 "
   id="polygon20" />
	<g
   id="g28"
   style="stroke:#000000;stroke-width:10.64334474">
		<polygon
   style="fill:#7281a4;stroke:#000000;stroke-width:10.64334474"
   points="208.271,86.78 251.661,0 295.051,86.78 "
   id="polygon22" />
		<polygon
   style="fill:#7281a4;stroke:#000000;stroke-width:10.64334474"
   points="34.712,234.305 104.136,112.814 173.559,234.305 "
   id="polygon24" />
		<polygon
   style="fill:#7281a4;stroke:#000000;stroke-width:10.64334474"
   points="52.068,286.373 43.39,269.017 0,355.797 52.068,355.797 "
   id="polygon26" />
	</g>
	<polygon
   style="fill:#d6d0c7;stroke:#000000;stroke-width:10.64334474"
   points="8.678,503.322 52.068,503.322 52.068,355.797 8.678,355.797 "
   id="polygon30" />
	<polygon
   style="fill:#adaaa6;stroke:#000000;stroke-width:10.64334474"
   points="347.119,503.322 451.254,503.322 451.254,234.305 347.119,234.305 "
   id="polygon32" />
	<g
   id="g38"
   style="stroke:#000000;stroke-width:10.64334474">
		<polygon
   style="fill:#7281a4;stroke:#000000;stroke-width:10.64334474"
   points="468.61,234.305 399.186,112.814 329.763,234.305 "
   id="polygon34" />
		<polygon
   style="fill:#7281a4;stroke:#000000;stroke-width:10.64334474"
   points="451.254,286.373 459.932,269.017 503.322,355.797 451.254,355.797 "
   id="polygon36" />
	</g>
	<g
   id="g56"
   style="stroke:#000000;stroke-width:10.64334474">
		<polygon
   style="fill:#d6d0c7;stroke:#000000;stroke-width:10.64334474"
   points="451.254,503.322 494.644,503.322 494.644,355.797 451.254,355.797 "
   id="polygon40" />
		<path
   style="fill:#d6d0c7;stroke:#000000;stroke-width:10.64334474"
   d="m 104.136,329.763 c -4.79,0 -8.678,-3.888 -8.678,-8.678 v -52.068 c 0,-4.79 3.888,-8.678 8.678,-8.678 4.79,0 8.678,3.888 8.678,8.678 v 52.068 c 0,4.79 -3.888,8.678 -8.678,8.678"
   id="path42"
   inkscape:connector-curvature="0" />
		<path
   style="fill:#d6d0c7;stroke:#000000;stroke-width:10.64334474"
   d="m 104.136,477.288 c -4.79,0 -8.678,-3.888 -8.678,-8.678 v -52.068 c 0,-4.79 3.888,-8.678 8.678,-8.678 4.79,0 8.678,3.888 8.678,8.678 v 52.068 c 0,4.79 -3.888,8.678 -8.678,8.678"
   id="path44"
   inkscape:connector-curvature="0" />
		<path
   style="fill:#d6d0c7;stroke:#000000;stroke-width:10.64334474"
   d="m 104.136,390.508 c -4.79,0 -8.678,-3.888 -8.678,-8.678 v -26.034 c 0,-4.79 3.888,-8.678 8.678,-8.678 4.79,0 8.678,3.888 8.678,8.678 v 26.034 c 0,4.791 -3.888,8.678 -8.678,8.678"
   id="path46"
   inkscape:connector-curvature="0" />
		<path
   style="fill:#d6d0c7;stroke:#000000;stroke-width:10.64334474"
   d="m 399.186,329.763 c -4.79,0 -8.678,-3.888 -8.678,-8.678 v -52.068 c 0,-4.79 3.888,-8.678 8.678,-8.678 4.799,0 8.678,3.888 8.678,8.678 v 52.068 c 0,4.79 -3.879,8.678 -8.678,8.678"
   id="path48"
   inkscape:connector-curvature="0" />
		<path
   style="fill:#d6d0c7;stroke:#000000;stroke-width:10.64334474"
   d="m 399.186,477.288 c -4.79,0 -8.678,-3.888 -8.678,-8.678 v -52.068 c 0,-4.79 3.888,-8.678 8.678,-8.678 4.799,0 8.678,3.888 8.678,8.678 v 52.068 c 0,4.79 -3.879,8.678 -8.678,8.678"
   id="path50"
   inkscape:connector-curvature="0" />
		<path
   style="fill:#d6d0c7;stroke:#000000;stroke-width:10.64334474"
   d="m 399.186,390.508 c -4.79,0 -8.678,-3.888 -8.678,-8.678 v -26.034 c 0,-4.79 3.888,-8.678 8.678,-8.678 4.799,0 8.678,3.888 8.678,8.678 v 26.034 c 0,4.791 -3.879,8.678 -8.678,8.678"
   id="path52"
   inkscape:connector-curvature="0" />
		<polygon
   style="fill:#d6d0c7;stroke:#000000;stroke-width:10.64334474"
   points="234.305,503.322 269.017,503.322 269.017,416.542 234.305,416.542 "
   id="polygon54" />
	</g>
	<g
   id="g62"
   style="stroke:#000000;stroke-width:10.64334474">
		<path
   style="fill:#adaaa6;stroke:#000000;stroke-width:10.64334474"
   d="m 199.593,295.051 c -4.79,0 -8.678,-3.888 -8.678,-8.678 v -34.712 c 0,-4.79 3.888,-8.678 8.678,-8.678 4.79,0 8.678,3.888 8.678,8.678 v 34.712 c 0,4.79 -3.888,8.678 -8.678,8.678"
   id="path58"
   inkscape:connector-curvature="0" />
		<path
   style="fill:#adaaa6;stroke:#000000;stroke-width:10.64334474"
   d="m 303.729,295.051 c -4.79,0 -8.678,-3.888 -8.678,-8.678 v -34.712 c 0,-4.79 3.888,-8.678 8.678,-8.678 4.79,0 8.678,3.888 8.678,8.678 v 34.712 c 0,4.79 -3.888,8.678 -8.678,8.678"
   id="path60"
   inkscape:connector-curvature="0" />
	</g>
	<path
   style="fill:#d6d0c7;stroke:#000000;stroke-width:10.64334474"
   d="m 251.661,173.559 c -4.79,0 -8.678,-3.888 -8.678,-8.678 v -34.712 c 0,-4.79 3.888,-8.678 8.678,-8.678 4.79,0 8.678,3.888 8.678,8.678 v 34.712 c 0,4.791 -3.888,8.678 -8.678,8.678"
   id="path64"
   inkscape:connector-curvature="0" />
</g>
<g
   id="g68">
</g>
<g
   id="g70">
</g>
<g
   id="g72">
</g>
<g
   id="g74">
</g>
<g
   id="g76">
</g>
<g
   id="g78">
</g>
<g
   id="g80">
</g>
<g
   id="g82">
</g>
<g
   id="g84">
</g>
<g
   id="g86">
</g>
<g
   id="g88">
</g>
<g
   id="g90">
</g>
<g
   id="g92">
</g>
<g
   id="g94">
</g>
<g
   id="g96">
</g>
</svg>