<?xml version="1.0" encoding="iso-8859-1"?>
<!-- Generator: Adobe Illustrator 19.0.0, SVG Export Plug-In . SVG Version: 6.00 Build 0)  -->
<svg version="1.1" id="Layer_1" xmlns="http://www.w3.org/2000/svg" xmlns:xlink="http://www.w3.org/1999/xlink" x="0px" y="0px"
	 viewBox="0 0 512 512" style="enable-background:new 0 0 512 512;" xml:space="preserve">
<rect y="417.959" style="fill:#FFD248;" width="512" height="88.816"/>
<path style="fill:#E6E7E8;" d="M287.347,334.367v83.592h-62.694v-83.592c0-5.745,4.704-10.449,10.449-10.449h41.796
	C282.643,323.918,287.347,328.622,287.347,334.367z"/>
<rect x="256" y="15.673" style="fill:#F4661E;" width="83.592" height="52.245"/>
<g>
	<polygon style="fill:#D1D3D4;" points="47.02,339.592 47.02,292.571 47.02,240.327 88.816,240.327 88.816,292.571 161.959,292.571 
		161.959,318.694 161.959,381.388 161.959,417.959 47.02,417.959 	"/>
	<polygon style="fill:#D1D3D4;" points="350.041,339.592 350.041,292.571 423.184,292.571 423.184,240.327 464.98,240.327 
		464.98,292.571 464.98,381.388 464.98,417.959 350.041,417.959 350.041,370.939 	"/>
</g>
<path style="fill:#BCBEC0;" d="M235.102,323.918c-5.745,0-10.449,4.704-10.449,10.449v83.592h-62.694v-36.571v-62.694v-26.122V256
	v-47.02v-41.796v-52.245h41.796v52.245h31.347v-52.245H256h20.898v52.245h31.347v-52.245h41.796v52.245v41.796v67.918v15.673v47.02
	v31.347v47.02h-62.694v-83.592c0-5.745-4.704-10.449-10.449-10.449H235.102z"/>
<g>
	<path style="fill:#231F20;" d="M475.429,407.51V240.327c0-5.771-4.679-10.449-10.449-10.449h-41.796
		c-5.77,0-10.449,4.678-10.449,10.449v41.796H360.49V114.939c0-5.771-4.679-10.449-10.449-10.449h-41.796
		c-5.77,0-10.449,4.678-10.449,10.449v41.796h-10.449v-41.796c0-5.771-4.679-10.449-10.449-10.449h-10.449V78.367h73.143
		c5.77,0,10.449-4.678,10.449-10.449V15.673c0-5.771-4.679-10.449-10.449-10.449H256c-5.771,0-10.449,4.678-10.449,10.449v52.245
		v36.571h-10.449c-5.771,0-10.449,4.678-10.449,10.449v41.796h-10.449v-41.796c0-5.771-4.678-10.449-10.449-10.449h-41.796
		c-5.771,0-10.449,4.678-10.449,10.449v167.184H99.265v-41.796c0-5.771-4.679-10.449-10.449-10.449H47.02
		c-5.77,0-10.449,4.678-10.449,10.449V407.51H0v20.898h47.02h114.939h188.082H464.98H512V407.51H475.429z M266.449,26.122h62.694
		v31.347h-62.694V26.122z M193.306,125.388v41.796c0,5.771,4.678,10.449,10.449,10.449h31.347c5.771,0,10.449-4.678,10.449-10.449
		v-41.796h20.898v41.796c0,5.771,4.679,10.449,10.449,10.449h31.347c5.77,0,10.449-4.678,10.449-10.449v-41.796h20.898v73.143
		h-52.245v20.898h52.245v47.02h-31.347v20.898h31.347v5.224v67.918h-31.347v20.898h31.347v26.122h-41.796v-73.143
		c0-11.523-9.375-20.898-20.898-20.898h-41.796c-11.523,0-20.898,9.375-20.898,20.898v73.143h-41.796v-78.367h31.347v-20.898
		h-31.347v-15.673v-26.122h31.347v-20.898h-31.347v-26.122H256v-20.898h-83.592v-73.143H193.306z M276.898,407.51h-41.796v-73.143
		h41.796V407.51z M57.469,407.51v-57.469h31.347v-20.898H57.469v-78.367h20.898v41.796c0,5.771,4.679,10.449,10.449,10.449h62.694
		v67.918h-31.347v20.898h31.347v15.673H57.469z M360.49,407.51v-57.469h31.347v-20.898H360.49V303.02h62.694
		c5.77,0,10.449-4.678,10.449-10.449v-41.796h20.898v120.163h-31.347v20.898h31.347v15.673H360.49z"/>
	<rect x="235.102" y="256" style="fill:#231F20;" width="41.796" height="20.898"/>
	<rect x="31.347" y="459.755" style="fill:#231F20;" width="26.122" height="20.898"/>
	<rect x="94.041" y="449.306" style="fill:#231F20;" width="26.122" height="20.898"/>
	<rect x="156.735" y="470.204" style="fill:#231F20;" width="26.122" height="20.898"/>
	<rect x="219.429" y="449.306" style="fill:#231F20;" width="26.122" height="20.898"/>
	<rect x="355.265" y="470.204" style="fill:#231F20;" width="26.122" height="20.898"/>
	<rect x="292.571" y="449.306" style="fill:#231F20;" width="26.122" height="20.898"/>
	<rect x="464.98" y="438.857" style="fill:#231F20;" width="26.122" height="20.898"/>
	<rect x="412.735" y="459.755" style="fill:#231F20;" width="26.122" height="20.898"/>
</g>
<g>
</g>
<g>
</g>
<g>
</g>
<g>
</g>
<g>
</g>
<g>
</g>
<g>
</g>
<g>
</g>
<g>
</g>
<g>
</g>
<g>
</g>
<g>
</g>
<g>
</g>
<g>
</g>
<g>
</g>
</svg>
