<?xml version="1.0" encoding="iso-8859-1"?>
<!-- Generator: Adobe Illustrator 19.0.0, SVG Export Plug-In . SVG Version: 6.00 Build 0)  -->
<svg version="1.1" id="Layer_1" xmlns="http://www.w3.org/2000/svg" xmlns:xlink="http://www.w3.org/1999/xlink" x="0px" y="0px"
	 viewBox="0 0 512 512" style="enable-background:new 0 0 512 512;" xml:space="preserve">
<path style="fill:#9F8C79;" d="M441.581,361.06H70.418c-18.994,0-34.391-15.397-34.391-34.391l0,0
	c0-18.994,15.397-34.391,34.391-34.391h371.164c18.994,0,34.391,15.397,34.391,34.391l0,0
	C475.973,345.663,460.576,361.06,441.581,361.06z"/>
<g>
	<path style="fill:#665040;" d="M105.301,326.67L105.301,326.67c0-18.994-15.397-34.391-34.391-34.391h-0.492
		c-18.994,0-34.391,15.397-34.391,34.391l0,0c0,18.994,15.397,34.391,34.391,34.391h0.492
		C89.903,361.06,105.301,345.663,105.301,326.67z"/>
	<path style="fill:#665040;" d="M474.801,326.67L474.801,326.67c0-18.994-15.397-34.391-34.391-34.391h-0.492
		c-18.994,0-34.391,15.397-34.391,34.391l0,0c0,18.994,15.397,34.391,34.391,34.391h0.492
		C459.404,361.06,474.801,345.663,474.801,326.67z"/>
</g>
<path style="fill:#9F8C79;" d="M441.581,291.725H70.418c-18.994,0-34.391-15.397-34.391-34.391l0,0
	c0-18.994,15.397-34.391,34.391-34.391h371.164c18.994,0,34.391,15.397,34.391,34.391l0,0
	C475.973,276.328,460.576,291.725,441.581,291.725z"/>
<g>
	<path style="fill:#665040;" d="M105.301,257.333L105.301,257.333c0-18.994-15.397-34.391-34.391-34.391h-0.492
		c-18.994,0-34.391,15.397-34.391,34.391l0,0c0,18.994,15.397,34.391,34.391,34.391h0.492
		C89.903,291.725,105.301,276.328,105.301,257.333z"/>
	<path style="fill:#665040;" d="M474.801,257.333L474.801,257.333c0-18.994-15.397-34.391-34.391-34.391h-0.492
		c-18.994,0-34.391,15.397-34.391,34.391l0,0c0,18.994,15.397,34.391,34.391,34.391h0.492
		C459.404,291.725,474.801,276.328,474.801,257.333z"/>
</g>
<path style="fill:#9F8C79;" d="M441.581,430.397H70.418c-18.994,0-34.391-15.397-34.391-34.391l0,0
	c0-18.994,15.397-34.391,34.391-34.391h371.164c18.994,0,34.391,15.397,34.391,34.391l0,0
	C475.973,414.999,460.576,430.397,441.581,430.397z"/>
<g>
	<path style="fill:#665040;" d="M105.301,396.006L105.301,396.006c0-18.994-15.397-34.391-34.391-34.391h-0.492
		c-18.994,0-34.391,15.397-34.391,34.391l0,0c0,18.994,15.397,34.391,34.391,34.391h0.492
		C89.903,430.397,105.301,414.999,105.301,396.006z"/>
	<path style="fill:#665040;" d="M474.801,396.006L474.801,396.006c0-18.994-15.397-34.391-34.391-34.391h-0.492
		c-18.994,0-34.391,15.397-34.391,34.391l0,0c0,18.994,15.397,34.391,34.391,34.391h0.492
		C459.404,430.397,474.801,414.999,474.801,396.006z"/>
</g>
<path style="fill:#9F8C79;" d="M441.581,499.733H70.418c-18.994,0-34.391-15.397-34.391-34.391l0,0
	c0-18.994,15.397-34.391,34.391-34.391h371.164c18.994,0,34.391,15.397,34.391,34.391l0,0
	C475.973,484.335,460.576,499.733,441.581,499.733z"/>
<g>
	<path style="fill:#665040;" d="M105.301,465.341L105.301,465.341c0-18.994-15.397-34.391-34.391-34.391h-0.492
		c-18.994,0-34.391,15.397-34.391,34.391l0,0c0,18.994,15.397,34.391,34.391,34.391h0.492
		C89.903,499.733,105.301,484.335,105.301,465.341z"/>
	<path style="fill:#665040;" d="M474.801,465.341L474.801,465.341c0-18.994-15.397-34.391-34.391-34.391h-0.492
		c-18.994,0-34.391,15.397-34.391,34.391l0,0c0,18.994,15.397,34.391,34.391,34.391h0.492
		C459.404,499.733,474.801,484.335,474.801,465.341z"/>
</g>
<polygon style="fill:#2E7284;" points="500.008,222.45 11.99,222.45 255.999,12.267 "/>
<polygon style="fill:#89C5BF;" points="413.328,222.45 98.67,222.45 255.999,86.932 "/>
<rect x="190.411" y="291.719" style="fill:#FFE671;" width="131.189" height="208.001"/>
<path d="M309.957,187.725c-0.779,0-1.572-0.084-2.338-0.24s-1.523-0.384-2.242-0.683c-0.731-0.3-1.426-0.671-2.073-1.103
	c-0.661-0.432-1.272-0.935-1.824-1.487c-0.552-0.552-1.055-1.175-1.487-1.823c-0.444-0.647-0.803-1.355-1.103-2.074
	s-0.54-1.475-0.682-2.242c-0.157-0.767-0.24-1.559-0.24-2.338c0-0.779,0.083-1.571,0.24-2.35c0.143-0.755,0.383-1.511,0.682-2.242
	c0.3-0.719,0.659-1.415,1.103-2.062c0.432-0.659,0.935-1.271,1.487-1.835c0.552-0.552,1.163-1.043,1.824-1.487
	c0.647-0.432,1.342-0.803,2.073-1.103c0.721-0.3,1.475-0.528,2.242-0.683c1.547-0.312,3.13-0.312,4.676,0
	c0.767,0.156,1.523,0.384,2.241,0.683c0.731,0.3,1.427,0.671,2.074,1.103c0.659,0.444,1.271,0.935,1.823,1.487
	c0.553,0.564,1.056,1.175,1.487,1.835c0.432,0.647,0.803,1.343,1.103,2.062c0.3,0.731,0.54,1.487,0.683,2.242
	c0.156,0.779,0.24,1.571,0.24,2.35c0,3.154-1.283,6.247-3.514,8.477C316.204,186.441,313.11,187.725,309.957,187.725z"/>
<path d="M507.834,213.365L263.825,3.182c-4.499-3.874-11.154-3.874-15.651,0L4.165,213.365c-3.797,3.271-5.16,8.56-3.415,13.259
	c1.745,4.699,6.228,7.817,11.241,7.817h18.113c-3.854,6.76-6.068,14.571-6.068,22.894c0,13.778,6.046,26.165,15.615,34.667
	c-9.57,8.503-15.615,20.89-15.615,34.668s6.046,26.165,15.615,34.667c-9.57,8.503-15.615,20.89-15.615,34.668
	c0,13.778,6.046,26.165,15.615,34.667c-9.57,8.503-15.615,20.89-15.615,34.668c0,25.575,20.807,46.382,46.382,46.382h0.492h119.497
	h131.186h118.327h0.492h1.171c25.576,0,46.383-20.807,46.383-46.382c0-13.778-6.046-26.165-15.615-34.667
	c9.57-8.503,15.615-20.89,15.615-34.667c0-14.06-6.297-26.671-16.21-35.184c9.236-8.483,15.039-20.653,15.039-34.153
	s-5.801-25.669-15.039-34.153c9.913-8.513,16.21-21.123,16.21-35.183c0-8.323-2.215-16.133-6.068-22.894h18.111
	c5.013,0,9.497-3.118,11.241-7.817C512.994,221.925,511.632,216.636,507.834,213.365z M255.999,28.092L467.715,210.46H417.78
	L263.825,77.847c-4.499-3.874-11.154-3.874-15.651,0L94.218,210.46H44.283L255.999,28.092z M111.506,442.941h66.91v44.802h-66.91
	c3.681-6.645,5.784-14.281,5.784-22.401l0,0C117.292,457.221,115.187,449.586,111.506,442.941z M157.362,187.721h116.623
	c6.621,0,11.991-5.368,11.991-11.991s-5.369-11.991-11.991-11.991h-88.783l70.797-60.982L381.035,210.46h-250.07L157.362,187.721z
	 M399.322,234.932c-3.681,6.645-5.785,14.281-5.785,22.401c0,8.12,2.103,15.756,5.784,22.401H111.506
	c3.681-6.645,5.784-14.281,5.784-22.401c0-8.12-2.103-15.756-5.785-22.401H399.322z M462.811,257.333
	c0,12.352-10.049,22.401-22.401,22.401h-0.492c-12.352,0-22.401-10.048-22.401-22.401s10.049-22.401,22.401-22.401h0.492
	C452.761,234.932,462.811,244.982,462.811,257.333z M462.811,396.006c0,12.352-10.049,22.401-22.401,22.401h-0.492
	c-12.352,0-22.401-10.048-22.401-22.401s10.049-22.401,22.401-22.401h0.492C452.761,373.605,462.811,383.654,462.811,396.006z
	 M285.976,365.497c-6.621,0-11.991,5.368-11.991,11.991v110.255h-71.589V303.715h107.204v184.027h-11.634V377.488
	C297.966,370.865,292.598,365.497,285.976,365.497z M178.416,418.405h-66.91c3.681-6.645,5.784-14.281,5.784-22.401
	c0-8.12-2.103-15.756-5.785-22.401h66.91v44.802H178.416z M178.416,349.624h-67.228c3.875-6.773,6.103-14.606,6.103-22.954
	s-2.228-16.18-6.103-22.955h67.228L178.416,349.624L178.416,349.624z M333.583,373.605h65.74
	c-3.681,6.645-5.785,14.281-5.785,22.401c0,8.12,2.103,15.756,5.784,22.401h-65.738L333.583,373.605L333.583,373.605z
	 M333.583,349.624v-45.908h66.057c-3.875,6.773-6.103,14.607-6.103,22.955s2.228,16.18,6.103,22.954H333.583z M93.311,257.333
	c0,12.352-10.049,22.401-22.401,22.401h-0.492c-12.352,0-22.401-10.048-22.401-22.401s10.048-22.401,22.401-22.401h0.492
	C83.261,234.932,93.311,244.982,93.311,257.333z M93.311,326.67c0,12.352-10.049,22.401-22.401,22.401h-0.492
	c-12.352,0-22.401-10.048-22.401-22.401s10.048-22.401,22.401-22.401h0.492C83.261,304.269,93.311,314.317,93.311,326.67z
	 M93.311,396.006c0,12.352-10.049,22.401-22.401,22.401h-0.492c-12.352,0-22.401-10.048-22.401-22.401s10.048-22.401,22.401-22.401
	h0.492C83.261,373.605,93.311,383.654,93.311,396.006z M333.583,442.941h65.74c-3.681,6.645-5.785,14.281-5.785,22.401
	c0,8.12,2.103,15.756,5.784,22.401h-65.738L333.583,442.941L333.583,442.941z M439.918,349.07
	c-12.352,0-22.401-10.048-22.401-22.401s10.049-22.401,22.401-22.401h0.492c12.352,0,22.401,10.049,22.401,22.401
	c0,12.352-10.049,22.401-22.401,22.401H439.918z M70.417,487.742c-12.352,0-22.401-10.049-22.401-22.401
	c0-12.352,10.048-22.401,22.401-22.401h0.492c12.352,0,22.401,10.049,22.401,22.401c0,12.352-10.049,22.401-22.401,22.401H70.417z
	 M439.918,487.742c-12.352,0-22.401-10.049-22.401-22.401c0-12.352,10.049-22.401,22.401-22.401h0.492
	c12.352,0,22.401,10.049,22.401,22.401c0,12.352-10.049,22.401-22.401,22.401H439.918z"/>
<path d="M285.976,353.506c-0.779,0-1.572-0.084-2.338-0.24c-0.767-0.144-1.523-0.384-2.242-0.683
	c-0.731-0.3-1.426-0.671-2.073-1.103c-0.661-0.432-1.272-0.935-1.824-1.487c-0.552-0.552-1.055-1.163-1.487-1.823
	c-0.444-0.648-0.803-1.343-1.103-2.074c-0.3-0.719-0.54-1.475-0.695-2.242s-0.227-1.559-0.227-2.338s0.072-1.571,0.227-2.338
	c0.156-0.767,0.396-1.523,0.695-2.242c0.3-0.731,0.659-1.427,1.103-2.074c0.432-0.659,0.935-1.271,1.487-1.823
	c0.552-0.552,1.163-1.055,1.824-1.499c0.647-0.432,1.342-0.803,2.073-1.103c0.721-0.3,1.475-0.528,2.242-0.683
	c1.535-0.312,3.13-0.312,4.676,0c0.767,0.156,1.523,0.384,2.241,0.683c0.731,0.3,1.427,0.671,2.074,1.103
	c0.659,0.444,1.271,0.947,1.823,1.499c0.553,0.552,1.056,1.163,1.487,1.823c0.444,0.647,0.803,1.343,1.103,2.074
	c0.3,0.719,0.54,1.475,0.695,2.242c0.156,0.767,0.228,1.559,0.228,2.338s-0.073,1.571-0.228,2.338
	c-0.156,0.767-0.396,1.523-0.695,2.242c-0.3,0.731-0.659,1.427-1.103,2.074c-0.43,0.659-0.934,1.271-1.487,1.823
	c-0.552,0.552-1.163,1.055-1.823,1.487c-0.647,0.432-1.343,0.803-2.074,1.103c-0.719,0.3-1.474,0.54-2.241,0.683
	C287.546,353.424,286.755,353.506,285.976,353.506z"/>
<g>
</g>
<g>
</g>
<g>
</g>
<g>
</g>
<g>
</g>
<g>
</g>
<g>
</g>
<g>
</g>
<g>
</g>
<g>
</g>
<g>
</g>
<g>
</g>
<g>
</g>
<g>
</g>
<g>
</g>
</svg>
