<?xml version="1.0" encoding="iso-8859-1"?>
<!-- Generator: Adobe Illustrator 19.0.0, SVG Export Plug-In . SVG Version: 6.00 Build 0)  -->
<svg version="1.1" id="Layer_1" xmlns="http://www.w3.org/2000/svg" xmlns:xlink="http://www.w3.org/1999/xlink" x="0px" y="0px"
	 viewBox="0 0 512.002 512.002" style="enable-background:new 0 0 512.002 512.002;" xml:space="preserve">
<path style="fill:#CBB292;" d="M44.138,235.852v256c0,9.754,7.901,17.655,17.655,17.655h44.138c9.754,0,17.655-7.901,17.655-17.655
	V368.266c0-9.754,7.901-17.655,17.655-17.655h70.621c9.754,0,17.655,7.901,17.655,17.655v123.586
	c0,9.754,7.901,17.655,17.655,17.655h203.035c9.754,0,17.655-7.901,17.655-17.655v-256H44.138z"/>
<path style="fill:#7F6E5D;" d="M512,209.369v17.655c0,9.754-7.901,17.655-17.655,17.655H17.655C7.901,244.68,0,236.779,0,227.024
	v-17.655c0-5.402,2.472-10.514,6.709-13.859L245.054,6.335c6.435-5.12,15.545-5.12,21.981,0l238.345,188.999
	C509.634,198.741,512.079,203.923,512,209.369z"/>
<g>
</g>
<g>
</g>
<g>
</g>
<g>
</g>
<g>
</g>
<g>
</g>
<g>
</g>
<g>
</g>
<g>
</g>
<g>
</g>
<g>
</g>
<g>
</g>
<g>
</g>
<g>
</g>
<g>
</g>
</svg>
