<?xml version="1.0" encoding="UTF-8" standalone="no"?>
<!-- Created with Inkscape (http://www.inkscape.org/) -->

<svg
   xmlns:dc="http://purl.org/dc/elements/1.1/"
   xmlns:cc="http://creativecommons.org/ns#"
   xmlns:rdf="http://www.w3.org/1999/02/22-rdf-syntax-ns#"
   xmlns:svg="http://www.w3.org/2000/svg"
   xmlns="http://www.w3.org/2000/svg"
   xmlns:sodipodi="http://sodipodi.sourceforge.net/DTD/sodipodi-0.dtd"
   xmlns:inkscape="http://www.inkscape.org/namespaces/inkscape"
   width="100mm"
   height="100mm"
   viewBox="0 0 99.999999 100"
   version="1.1"
   id="svg108"
   inkscape:version="0.92.1 r15371"
   sodipodi:docname="icone.svg"
   inkscape:export-filename="C:\Users\Micael Ferreira\Desktop\icone.png"
   inkscape:export-xdpi="50.799999"
   inkscape:export-ydpi="50.799999">
  <defs
     id="defs102" />
  <sodipodi:namedview
     id="base"
     pagecolor="#ffffff"
     bordercolor="#666666"
     borderopacity="1.0"
     inkscape:pageopacity="0.0"
     inkscape:pageshadow="2"
     inkscape:zoom="0.52197962"
     inkscape:cx="450.64163"
     inkscape:cy="242.57243"
     inkscape:document-units="mm"
     inkscape:current-layer="g3647"
     showgrid="false"
     inkscape:window-width="1366"
     inkscape:window-height="705"
     inkscape:window-x="-8"
     inkscape:window-y="-8"
     inkscape:window-maximized="1"
     units="mm"
     width="518mm" />
  <metadata
     id="metadata105">
    <rdf:RDF>
      <cc:Work
         rdf:about="">
        <dc:format>image/svg+xml</dc:format>
        <dc:type
           rdf:resource="http://purl.org/dc/dcmitype/StillImage" />
        <dc:title></dc:title>
      </cc:Work>
    </rdf:RDF>
  </metadata>
  <g
     inkscape:label="Layer 1"
     inkscape:groupmode="layer"
     id="layer1"
     transform="translate(0,-197.00001)">
    <g
       id="g3647"
       transform="matrix(1.3621489,0,0,1.3621489,-705.05414,74.988016)">
      <g
         transform="matrix(0.20149588,0,0,0.20476802,502.90286,81.407001)"
         id="g580"
         inkscape:export-filename="C:\Users\Micael Ferreira\g580.png"
         inkscape:export-xdpi="50.799999"
         inkscape:export-ydpi="50.799999">
        <path
           inkscape:connector-curvature="0"
           style="fill:#324a5e"
           d="M 254,172.4 81.2,144 c -1.6,-0.4 -2.8,0.8 -2.8,2.4 v 221.2 c 0,1.2 0.8,2.4 2,2.4 L 254,398.4 Z"
           id="path380" />
        <path
           style="fill:#ced5e0"
           d="M 254,390.4 V 180.8 L 87.6,153.6 v 209.6 z"
           id="polygon382"
           inkscape:connector-curvature="0" />
        <path
           inkscape:connector-curvature="0"
           style="fill:#324a5e"
           d="M 254,172.4 426.8,144 c 1.6,-0.4 2.8,0.8 2.8,2.4 v 221.2 c 0,1.2 -0.8,2.4 -2,2.4 L 254,398.4 Z"
           id="path384" />
        <path
           style="fill:#acb3ba"
           d="M 254,390.4 V 180.8 l 166.4,-27.2 v 209.6 z"
           id="polygon386"
           inkscape:connector-curvature="0" />
        <path
           style="fill:#ced5e0"
           d="M 396.4661,167.15424 C 348.4661,153.55424 299.2,142.8 254,181.2 V 390.4 C 299.2,352 356,337.6 404,351.6 Z"
           id="path388"
           inkscape:connector-curvature="0"
           sodipodi:nodetypes="ccccc" />
        <g
           id="g394">
          <path
             style="fill:#e6e9ee"
             d="M 346.02542,175.25254 C 303.22542,172.05254 294.4,132.8 254,181.2 v 209.2 c 40.4,-48.4 91.2,-74.8 134,-71.6 z"
             id="path390"
             inkscape:connector-curvature="0"
             sodipodi:nodetypes="ccccc" />
          <path
             style="fill:#e6e9ee"
             d="M 100.77119,178.99322 C 148.77119,165.39322 208.8,142.8 254,181.2 V 390.4 C 208.8,352 152,337.6 104,351.6 Z"
             id="path392"
             inkscape:connector-curvature="0"
             sodipodi:nodetypes="ccccc" />
        </g>
        <path
           style="fill:#ffffff"
           d="M 135.0678,173.1 C 177.8678,169.9 213.6,132.8 254,181.2 V 390.4 C 213.6,342 162.8,315.6 120,318.8 Z"
           id="path396"
           inkscape:connector-curvature="0"
           sodipodi:nodetypes="ccccc" />
        <g
           transform="translate(-0.86747456,-88.133897)"
           id="g281">
          <path
             inkscape:connector-curvature="0"
             id="path11"
             d="M 219.1,263.636 162.384,210.7 c 4.014,-2.657 6.665,-7.208 6.665,-12.383 0,-8.198 -6.645,-14.845 -14.844,-14.845 -8.199,0 -14.846,6.646 -14.846,14.845 0,8.155 6.581,14.771 14.721,14.839 l -12.176,77.624 z"
             style="fill:#f89b36" />
          <path
             inkscape:connector-curvature="0"
             id="path13"
             d="M 292.9,263.636 349.615,210.7 c -4.014,-2.657 -6.664,-7.208 -6.664,-12.383 0,-8.198 6.645,-14.845 14.844,-14.845 8.199,0 14.846,6.646 14.846,14.845 0,8.155 -6.581,14.771 -14.723,14.839 l 12.178,77.624 z"
             style="fill:#f89b36" />
          <path
             style="fill:#f4cc64"
             d="M 344.273,276.89 255.787,147.101 167.142,276.89 92.493,204.785 108.61,341.359 c 22.904,56.836 271.24,56.836 294.145,0 l 16.012,-136.574 z"
             id="path15"
             inkscape:connector-curvature="0" />
          <path
             style="fill:#f89b36"
             d="m 109.544,221.255 -17.052,-16.471 3.218,27.274 c 6.204,-1.08 11.349,-5.212 13.834,-10.803 z"
             id="path17"
             inkscape:connector-curvature="0" />
          <path
             style="fill:#f89b36"
             d="m 402.246,220.775 c 2.309,5.619 7.273,9.859 13.336,11.157 l 3.184,-27.148 z"
             id="path19"
             inkscape:connector-curvature="0" />
          <path
             style="fill:#f4c342"
             d="m 255.682,371.261 c -76.779,0 -125.945,-16.958 -134.668,-33.372 l -11.705,-99.169 59.838,57.797 86.631,-126.841 86.492,126.863 59.703,-57.791 -11.624,99.145 c -8.73,16.413 -57.892,33.368 -134.667,33.368 z"
             id="path21"
             inkscape:connector-curvature="0" />
          <path
             style="fill:#f89b36"
             d="M 271.191,169.692 255.787,147.1 240.21,169.909 c 3.36,4.921 9.011,8.153 15.419,8.153 6.5,0 12.219,-3.328 15.562,-8.37 z"
             id="path23"
             inkscape:connector-curvature="0" />
          <path
             style="fill:#f4c342"
             d="m 111.155,200.967 a 18.663,18.663 0 0 1 -18.663003,18.663 18.663,18.663 0 0 1 -18.663,-18.663 18.663,18.663 0 0 1 18.663,-18.663 18.663,18.663 0 0 1 18.663003,18.663 z"
             id="circle25"
             inkscape:connector-curvature="0" />
          <path
             style="fill:#f4c342"
             d="m 438.171,200.967 a 18.663,18.663 0 0 1 -18.663,18.663 18.663,18.663 0 0 1 -18.663,-18.663 18.663,18.663 0 0 1 18.663,-18.663 18.663,18.663 0 0 1 18.663,18.663 z"
             id="circle27"
             inkscape:connector-curvature="0" />
          <path
             style="fill:#f4c342"
             d="m 111.155,200.967 a 18.663,18.663 0 0 1 -18.663003,18.663 18.663,18.663 0 0 1 -18.663,-18.663 18.663,18.663 0 0 1 18.663,-18.663 18.663,18.663 0 0 1 18.663003,18.663 z"
             id="circle31"
             inkscape:connector-curvature="0" />
          <path
             inkscape:connector-curvature="0"
             id="path33"
             d="m 84.857,205.633 c -4.678,0 -8.484,-3.807 -8.484,-8.483 0,-4.676 3.807,-8.483 8.484,-8.483 4.677,0 8.482,3.807 8.482,8.483 0,4.676 -3.805,8.483 -8.482,8.483 z"
             style="fill:#f4cc64" />
          <path
             style="fill:#f4c342"
             d="m 438.171,200.967 a 18.663,18.663 0 0 1 -18.663,18.663 18.663,18.663 0 0 1 -18.663,-18.663 18.663,18.663 0 0 1 18.663,-18.663 18.663,18.663 0 0 1 18.663,18.663 z"
             id="circle35"
             inkscape:connector-curvature="0" />
          <path
             inkscape:connector-curvature="0"
             id="path37"
             d="m 413.146,204.36 c -4.677,0 -8.483,-3.806 -8.483,-8.483 0,-4.677 3.807,-8.483 8.483,-8.483 4.676,0 8.483,3.807 8.483,8.483 0,4.678 -3.807,8.483 -8.483,8.483 z"
             style="fill:#f4cc64" />
          <path
             style="fill:#f4c342"
             d="m 274.291,146.67599 a 18.662001,18.662001 0 0 1 -18.662,18.66201 18.662001,18.662001 0 0 1 -18.662,-18.66201 18.662001,18.662001 0 0 1 18.662,-18.662 18.662001,18.662001 0 0 1 18.662,18.662 z"
             id="circle41"
             inkscape:connector-curvature="0" />
          <path
             style="fill:#f4cc64"
             d="m 259.021,141.586 a 8.4820004,8.4820004 0 0 1 -8.482,8.482 8.4820004,8.4820004 0 0 1 -8.482,-8.482 8.4820004,8.4820004 0 0 1 8.482,-8.482 8.4820004,8.4820004 0 0 1 8.482,8.482 z"
             id="circle43"
             inkscape:connector-curvature="0" />
          <path
             inkscape:connector-curvature="0"
             id="path45"
             d="m 244.891,361 c -2.799,0 -6.081,-1.496 -7.293,-4.02 L 221.391,323.905 C 220.181,321.383 219,317.312 219,314.513 V 296.52 c 0,-2.8 1.181,-7.155 2.391,-9.678 l 16.114,-33.809 c 1.211,-2.523 4.587,-5.034 7.386,-5.034 h 22.125 c 2.799,0 6.057,2.523 7.236,5.062 l 15.555,33.562 c 1.18,2.539 2.193,7.129 2.193,9.929 v 17.928 c 0,2.8 -1.014,7.166 -2.193,9.705 l -15.53,32.768 c -1.18,2.541 -4.462,4.047 -7.261,4.047 z"
             style="fill:#f89b36" />
          <path
             style="fill:#c6362b"
             d="M 243.004,356 224,318.445 V 292.589 L 243.004,253 h 25.855 L 287,292.589 v 25.856 L 268.859,356 Z"
             id="polygon47"
             inkscape:connector-curvature="0" />
          <path
             style="fill:#ee483c"
             d="M 248.846,333 238,312.558 V 298.477 L 248.846,276 h 14.082 L 273,298.477 v 14.081 L 262.928,333 Z"
             id="polygon49"
             inkscape:connector-curvature="0" />
          <path
             style="opacity:0.4;fill:#2a3e4f;enable-background:new"
             d="m 242.859,253 5.987,23 h 13.793 l 6.22,-23 z"
             id="polygon51"
             inkscape:connector-curvature="0" />
          <path
             style="opacity:0.4;fill:#2a3e4f;enable-background:new"
             d="m 238,298.692 -14,-6.103 v 26.288 l 14,-6.319 z"
             id="polygon53"
             inkscape:connector-curvature="0" />
          <path
             style="opacity:0.4;fill:#2a3e4f;enable-background:new"
             d="m 242.859,356 5.987,-23 h 13.793 l 6.22,23 z"
             id="polygon55"
             inkscape:connector-curvature="0" />
          <path
             style="opacity:0.4;fill:#2a3e4f;enable-background:new"
             d="m 273,298.692 14,-6.103 v 26.288 l -14,-6.319 z"
             id="polygon57"
             inkscape:connector-curvature="0" />
          <g
             id="g63">
            <path
               inkscape:connector-curvature="0"
               id="path61"
               d="m 225.885,363.412 c -51.393,0 -94.858,-28.372 -96.684,-29.58 -2.637,-1.746 -3.36,-5.299 -1.615,-7.936 1.744,-2.638 5.295,-3.359 7.932,-1.616 v 0 c 0.42,0.275 42.504,27.681 90.367,27.681 3.162,0 5.727,2.563 5.727,5.726 -0.001,3.163 -2.565,5.725 -5.727,5.725 z"
               style="fill:#f89b36" />
          </g>
          <g
             id="g67">
            <path
               inkscape:connector-curvature="0"
               id="path65"
               d="m 285.396,363.412 c -3.162,0 -5.727,-2.562 -5.727,-5.726 0,-3.162 2.564,-5.726 5.727,-5.726 47.983,0 89.945,-27.402 90.363,-27.68 2.638,-1.746 6.189,-1.022 7.936,1.615 1.745,2.637 1.021,6.189 -1.615,7.936 -1.825,1.209 -45.291,29.581 -96.684,29.581 z"
               style="fill:#f89b36" />
          </g>
          <path
             style="fill:#f4cc64"
             d="m 197.352,299.604 c -0.752,-2.697 -2.668,-3.017 -4.257,-0.711 l -13.946,20.247 c -1.589,2.305 -0.809,5.147 1.735,6.318 l 22.563,10.378 c 2.543,1.171 4.008,-0.078 3.254,-2.774 z"
             id="path71"
             inkscape:connector-curvature="0" />
          <path
             style="fill:#f4cc64"
             d="m 126.203,272.416 c -1.861,-2.09 -3.045,-1.535 -2.63,1.234 l 4.215,28.105 c 0.415,2.768 3.028,4.749 5.806,4.402 l 15.349,-1.919 c 2.777,-0.347 3.526,-2.341 1.665,-4.431 z"
             id="path73"
             inkscape:connector-curvature="0" />
          <path
             style="fill:#f4cc64"
             d="m 313.93,299.604 c 0.752,-2.697 2.668,-3.017 4.257,-0.711 l 13.946,20.247 c 1.589,2.305 0.809,5.147 -1.735,6.318 l -22.563,10.378 c -2.543,1.171 -4.008,-0.078 -3.254,-2.774 z"
             id="path75"
             inkscape:connector-curvature="0" />
          <path
             style="fill:#f4cc64"
             d="m 385.078,272.416 c 1.862,-2.09 3.045,-1.535 2.63,1.234 l -4.215,28.105 c -0.415,2.768 -3.028,4.749 -5.806,4.402 l -15.349,-1.919 c -2.777,-0.347 -3.526,-2.341 -1.665,-4.431 z"
             id="path77"
             inkscape:connector-curvature="0" />
        </g>
      </g>
    </g>
  </g>
</svg>
