<?xml version="1.0" encoding="UTF-8" standalone="no"?>
<!-- Created with Inkscape (http://www.inkscape.org/) -->

<svg
   xmlns:dc="http://purl.org/dc/elements/1.1/"
   xmlns:cc="http://creativecommons.org/ns#"
   xmlns:rdf="http://www.w3.org/1999/02/22-rdf-syntax-ns#"
   xmlns:svg="http://www.w3.org/2000/svg"
   xmlns="http://www.w3.org/2000/svg"
   xmlns:sodipodi="http://sodipodi.sourceforge.net/DTD/sodipodi-0.dtd"
   xmlns:inkscape="http://www.inkscape.org/namespaces/inkscape"
   width="500mm"
   height="297mm"
   viewBox="0 0 500 297"
   version="1.1"
   id="svg5205"
   inkscape:version="0.92.1 r15371"
   sodipodi:docname="mago1.svg">
  <defs
     id="defs5199">
    <clipPath
       clipPathUnits="userSpaceOnUse"
       id="clipPath9195">
      <rect
         style="opacity:1;fill:none;fill-opacity:1;stroke:#000000;stroke-width:0.41468519"
         id="rect9197"
         width="286.2865"
         height="173.06219"
         x="636.15247"
         y="341.80554" />
    </clipPath>
  </defs>
  <sodipodi:namedview
     id="base"
     pagecolor="#ffffff"
     bordercolor="#666666"
     borderopacity="1.0"
     inkscape:pageopacity="0.0"
     inkscape:pageshadow="2"
     inkscape:zoom="0.24748737"
     inkscape:cx="827.54603"
     inkscape:cy="462.49116"
     inkscape:document-units="mm"
     inkscape:current-layer="layer1"
     showgrid="false"
     inkscape:window-width="1366"
     inkscape:window-height="705"
     inkscape:window-x="-8"
     inkscape:window-y="-8"
     inkscape:window-maximized="1" />
  <metadata
     id="metadata5202">
    <rdf:RDF>
      <cc:Work
         rdf:about="">
        <dc:format>image/svg+xml</dc:format>
        <dc:type
           rdf:resource="http://purl.org/dc/dcmitype/StillImage" />
        <dc:title></dc:title>
      </cc:Work>
    </rdf:RDF>
  </metadata>
  <g
     inkscape:label="Camada 1"
     inkscape:groupmode="layer"
     id="layer1">
    <path
       style="opacity:1;fill:#ffffff;fill-opacity:1;stroke:#000000;stroke-width:0.79571742"
       d="m 220.23009,13.517848 c 12.16687,0 205.69293,1.310065 222.90279,0 17.20986,-1.310065 31.60522,16.703302 31.60522,32.783327 0,16.080025 -1.13826,203.758435 0,216.488315 1.13826,12.72988 -14.01352,22.11526 -25.72529,22.11526 -11.71177,0 -212.83008,-0.90148 -227.1791,0 -14.34902,0.90148 -27.89981,-12.26659 -27.89981,-25.85703 0,-13.59044 0,-144.23225 0,-144.23225 -15.01883,5.96459 -23.28111,3.31408 -32.50595,-3.02381 13.40608,-1.65536 24.70241,-6.27768 32.50595,-21.922621 0,0 1.14153,-40.010798 0,-53.189567 -1.14153,-13.178769 14.12932,-23.161624 26.29619,-23.161624 z"
       id="rect6108"
       inkscape:connector-curvature="0"
       sodipodi:nodetypes="zzzzzzzccczz" />
    <g
       id="g6040"
       transform="matrix(0.61843111,0,0,0.61843111,323.78049,50.511553)">
      <g
         transform="translate(-509.53549,73.655277)"
         id="g5811">
        <path
           style="fill:#764c24;fill-opacity:1;stroke:#000000;stroke-width:0.26458332px;stroke-linecap:butt;stroke-linejoin:miter;stroke-opacity:1"
           d="m 134.1693,295.39639 c 2.55005,7.31887 -2.64304,8.61529 -6.1472,11.22532 -20.24731,11.30922 -48.462794,17.46599 -56.928406,3.20722 -0.273245,-12.95769 4.285632,-17.86184 12.561668,-16.57072 -5.487687,8.06882 -3.947958,14.66893 8.819893,6.14722 l 8.552625,-6.94901 z"
           id="path5792"
           inkscape:connector-curvature="0"
           sodipodi:nodetypes="ccccccc" />
        <path
           style="fill:#764c24;fill-opacity:1;stroke:#000000;stroke-width:0.26458332px;stroke-linecap:butt;stroke-linejoin:miter;stroke-opacity:1"
           d="m 162.56459,293.78996 c -2.55005,7.31887 2.64304,8.61529 6.1472,11.22532 20.24731,11.30922 48.4628,17.46599 56.92841,3.20722 0.27325,-12.95769 -4.28563,-17.86184 -12.56167,-16.57072 5.48769,8.06882 3.94796,14.66893 -8.81989,6.14722 l -8.55263,-6.94901 z"
           id="path5792-6"
           inkscape:connector-curvature="0"
           sodipodi:nodetypes="ccccccc" />
      </g>
      <g
         transform="matrix(1,0,0,1.0332344,-508.15328,-0.43230931)"
         id="g5837">
        <g
           id="g5832"
           style="stroke:none">
          <path
             sodipodi:nodetypes="cczccc"
             inkscape:connector-curvature="0"
             id="path5813"
             d="m 117.73958,56.418154 c -4.68887,14.051395 -4.73436,18.220571 -4.27041,23.86212 0.22674,3.941473 2.64213,8.647834 6.16029,8.83282 3.51816,0.184986 11.88535,-10.208966 22.11161,-9.449405 l 0.56696,-21.166667 z"
             style="fill:#dfb28b;fill-opacity:1;stroke:none;stroke-width:0.26458332px;stroke-linecap:butt;stroke-linejoin:miter;stroke-opacity:1" />
          <path
             sodipodi:nodetypes="ccccc"
             inkscape:connector-curvature="0"
             id="path5813-0"
             d="m 178.87722,57.646577 c 4.05195,15.065897 -2.68806,31.815542 -16.72544,31.844493 -7.6759,-0.0985 -12.5468,-8.980543 -20.41071,-9.827381 l 0.56696,-21.166667 z"
             style="fill:#cf9e76;fill-opacity:1;stroke:none;stroke-width:0.26458332px;stroke-linecap:butt;stroke-linejoin:miter;stroke-opacity:1" />
        </g>
      </g>
      <g
         transform="translate(-508.34664,-18.708866)"
         style="stroke:none"
         id="g5790">
        <path
           style="fill:#0071bd;fill-opacity:1;stroke:none;stroke-width:0.26458332px;stroke-linecap:butt;stroke-linejoin:miter;stroke-opacity:1"
           d="m 85.839373,363.91942 c -0.309558,25.53848 14.672177,21.76866 25.657877,25.65789 47.95635,2.50543 76.57673,0.0775 89.26802,-6.41448 7.44949,-3.90569 14.64492,-8.20965 15.50163,-22.45063 -0.6582,-19.77795 3.61584,-84.91303 -2.98582,-154.58384 12.47868,-1.29119 25.36867,-2.11232 31.00327,-11.22532 -5.68163,-29.80332 -14.44282,-58.65908 -33.14143,-84.45717 l -122.943977,5.34539 c -22.27246,20.38118 -37.061374,51.72759 -55.592061,56.66114 -5.373203,19.74383 -4.323969,37.07925 6.414468,50.78121 17.048359,20.5065 17.179195,12.25402 23.611431,11.75986 6.050952,-7.46923 8.935858,-5.58257 27.16978,-37.41774 -9.318439,60.91588 -3.525178,140.96294 -3.963188,166.34369 z"
           id="path5784"
           inkscape:connector-curvature="0"
           sodipodi:nodetypes="ccccccccccccc" />
        <path
           style="fill:#005995;fill-opacity:1;stroke:none;stroke-width:0.26458332px;stroke-linecap:butt;stroke-linejoin:miter;stroke-opacity:1"
           d="m 32.606882,172.4524 c 9.719876,1.32012 19.153007,7.51491 27.869308,25.89581 13.124981,37.13936 1.731099,35.27143 -6.425597,38.55357 C 20.565245,217.58551 29.865923,190.0129 32.606882,172.4524 Z"
           id="path5786"
           inkscape:connector-curvature="0"
           sodipodi:nodetypes="cccc" />
      </g>
      <g
         style="fill:#ecf3fb;fill-opacity:1"
         transform="translate(-508.34664,1.6036175)"
         id="g5777">
        <path
           style="fill:#cccccc;fill-opacity:1;stroke:none;stroke-width:0.26458332px;stroke-linecap:butt;stroke-linejoin:miter;stroke-opacity:1"
           d="m 115.46044,56.457423 v 0 l 2.67269,0.400905 c -3.65491,12.639689 -7.53376,25.387957 0.26727,32.473249 -5.3841,0.615618 -13.80755,-9.581829 -2.93996,-32.874154 z"
           id="path5769"
           inkscape:connector-curvature="0"
           sodipodi:nodetypes="ccccc" />
        <path
           style="fill:#ecf3fb;fill-opacity:1;stroke:none;stroke-width:0.26458332px;stroke-linecap:butt;stroke-linejoin:miter;stroke-opacity:1"
           d="m 115.46044,56.457423 -13.36348,-3.207234 c -35.621911,51.532041 2.69484,143.227471 49.17759,158.223561 -5.84103,-6.61436 -10.32917,-13.364 -2.13816,-21.38156 45.7216,-38.88688 67.59487,-72.47413 62.00653,-99.958804 -1.49135,-11.024688 -4.2784,-22.308516 -12.82893,-34.745041 l -19.24341,2.138156 c 3.6568,19.158434 -3.74871,29.353531 -14.03164,31.938711 -10.28294,2.585181 -14.56812,-9.786982 -24.45517,-10.022609 -9.88705,-0.235627 -13.71557,10.063579 -22.04974,9.888975 -8.33416,-0.174605 -10.01277,-18.704344 -3.07359,-32.874155 z"
           id="path5767"
           inkscape:connector-curvature="0"
           sodipodi:nodetypes="ccccccczzzc" />
        <path
           inkscape:transform-center-y="-0.80912441"
           inkscape:transform-center-x="-0.40680364"
           d="m 189.07857,188.92051 -6.95505,-4.6441 -7.76863,3.09658 2.26759,-8.04975 -5.34567,-6.43151 8.35649,-0.33091 4.46482,-7.07147 2.89702,7.84523 8.10508,2.0611 -6.56604,5.17953 z"
           inkscape:randomized="0"
           inkscape:rounded="0"
           inkscape:flatsided="false"
           sodipodi:arg2="1.6755161"
           sodipodi:arg1="1.0471976"
           sodipodi:r2="6.2968493"
           sodipodi:r1="12.593697"
           sodipodi:cy="178.01405"
           sodipodi:cx="182.78172"
           sodipodi:sides="5"
           id="path5992-2"
           style="opacity:1;fill:#f8d534;fill-opacity:1;stroke:none;stroke-width:0.43749675"
           sodipodi:type="star" />
      </g>
      <g
         id="g5782">
        <path
           style="fill:#005995;fill-opacity:1;stroke:none;stroke-width:0.26371107px;stroke-linecap:butt;stroke-linejoin:miter;stroke-opacity:1"
           d="m -450.92584,22.211309 c 0,0 -4.88289,37.57406 98.75337,38.55357 104.7683,0.990211 102.88375,-38.175593 102.88375,-38.175593 0,0 -11.15506,31.732051 -104.3857,30.842855 -90.12583,-0.859583 -97.25142,-31.220832 -97.25142,-31.220832 z"
           id="path5761"
           inkscape:connector-curvature="0"
           sodipodi:nodetypes="cscsc" />
        <ellipse
           style="opacity:1;fill:#006db5;fill-opacity:1;stroke:none;stroke-width:10.1013279"
           id="path5763"
           cx="-350.19495"
           cy="21.455357"
           rx="100.73065"
           ry="32.505951" />
        <path
           style="fill:#107fc7;fill-opacity:1;stroke:none;stroke-width:0.26458332px;stroke-linecap:butt;stroke-linejoin:miter;stroke-opacity:1"
           d="m -305.40477,12.761905 c -7.42635,14.437524 -84.24139,20.629163 -92.22619,0 29.891,-46.951725 68.50518,-89.176639 86.93453,-88.824404 7.93224,6.126368 15.24751,24.869346 18.8988,39.687499 l -3.40178,1.511906 c -5.96279,-6.570834 -10.04876,-18.774736 -15.875,-18.142857 -13.12319,40.688955 0.13003,48.4073967 5.66964,65.767856 z"
           id="path5765"
           inkscape:connector-curvature="0"
           sodipodi:nodetypes="ccccccc" />
      </g>
      <path
         sodipodi:nodetypes="ccczczc"
         inkscape:connector-curvature="0"
         id="path5935"
         d="m -449.94932,175.10363 c -3.43084,-6.9033 -8.33645,-11.84023 -13.89802,-15.90254 -2.95935,1.43802 -9.38584,1.14246 -18.04069,-0.26727 -17.54328,2.22487 -17.35579,19.97256 -15.368,30.20148 1.98778,10.2289 11.49259,16.03615 11.49259,16.03615 7.08587,3.7201 15.00113,-6.22615 16.97161,-13.0962 1.97048,-6.87007 2.5678,-8.44036 18.84251,-16.97162 z"
         style="fill:#dfb28b;fill-opacity:1;stroke:none;stroke-width:0.26458332px;stroke-linecap:butt;stroke-linejoin:miter;stroke-opacity:1" />
      <g
         transform="translate(102.89877,-9.8889725)"
         id="g5964">
        <path
           sodipodi:nodetypes="cccczcczzc"
           inkscape:connector-curvature="0"
           id="path5966"
           d="m -369.41791,187.59505 c -5.53476,5.74252 -14.54117,7.55051 -23.78699,9.08716 -2.53806,3.30301 -4.81146,6.90378 -4.54358,13.36348 l 0.80181,10.0226 c 2.05282,3.05162 3.73459,1.76981 4.40994,-1.33634 0.67535,-3.10615 0.0878,-5.22994 2.80633,-9.75534 1.54726,3.52937 2.93918,7.15715 1.73725,12.42803 -2.67267,8.19624 -0.15756,11.00146 6.28083,8.8199 6.4384,-2.18156 15.09057,-7.50947 18.30797,-12.6953 3.2174,-5.18583 -0.91101,-20.73909 -6.01356,-29.93419 z"
           style="fill:#dfb28b;fill-opacity:1;stroke:none;stroke-width:0.26458332px;stroke-linecap:butt;stroke-linejoin:miter;stroke-opacity:1" />
        <path
           style="opacity:1;fill:#c69c6c;fill-opacity:1;stroke:none;stroke-width:0.4480527"
           d="m -584.5071,137.71872 h 7.41499 v 258.43887 c -0.48175,2.65259 -6.61612,3.04525 -7.41499,0 z"
           id="rect5932"
           inkscape:connector-curvature="0"
           sodipodi:nodetypes="ccccc" />
        <g
           id="g5930"
           transform="translate(-378.45365,13.898015)">
          <g
             transform="translate(-236.23456,-0.84766482)"
             id="g5897">
            <path
               style="opacity:1;fill:#998675;fill-opacity:1;stroke:none;stroke-width:0.94488192"
               d="m 164.72656,227.88672 c 26.75988,24.20638 47.9999,61.5393 48.05664,97.62305 8e-5,70.65365 -57.27604,127.92977 -127.929684,127.92968 -25.996192,-0.0113 -56.170264,-15.0132 -77.5462717,-29.8074 28.3734947,42.30266 67.1641637,56.01533 106.8392357,56.03006 72.30542,8.2e-4 130.92074,-58.6145 130.91993,-130.91992 -0.0701,-50.33455 -34.93869,-99.12285 -80.33985,-120.85547 z"
               transform="scale(0.26458333)"
               id="path5859"
               inkscape:connector-curvature="0"
               sodipodi:nodetypes="ccccccc" />
            <path
               style="opacity:1;fill:#c7b199;fill-opacity:1;stroke:none;stroke-width:3.83081412"
               d="m 164.72656,227.88672 c 22.63237,23.51673 35.28016,54.88315 35.29102,87.52148 -3.7e-4,69.74058 -56.53676,126.2761 -126.277346,126.27539 C 46.584808,441.6288 29.819291,436.09713 7.3072443,423.63205 31.10517,448.38132 55.063802,455.30929 89.398438,455.32031 159.13826,455.31994 215.67346,398.78474 215.67383,329.04492 215.61418,289.1732 196.72699,251.6718 164.72656,227.88672 Z"
               id="path5877"
               transform="scale(0.26458333)"
               inkscape:connector-curvature="0"
               sodipodi:nodetypes="ccccccc" />
          </g>
          <g
             transform="matrix(0.6133706,0,0,0.6133706,-77.465707,37.146002)"
             id="g5988">
            <path
               sodipodi:type="star"
               style="opacity:1;fill:#ff7f2a;fill-opacity:1;stroke:none;stroke-width:0.25"
               id="path5968"
               sodipodi:sides="10"
               sodipodi:cx="-216.85294"
               sodipodi:cy="82.596527"
               sodipodi:r1="36.739597"
               sodipodi:r2="18.369799"
               sodipodi:arg1="0.63938591"
               sodipodi:arg2="0.95354517"
               inkscape:flatsided="false"
               inkscape:rounded="0"
               inkscape:randomized="0"
               d="m -187.37079,104.51915 -18.84978,-6.942556 0.3334,20.084876 -11.16907,-16.69627 -11.53586,16.44497 0.77785,-20.072571 -18.99882,6.523651 12.42766,-15.781842 -19.20487,-5.889484 19.33052,-5.46298 -12.07532,-16.053036 18.84978,6.942552 -0.3334,-20.084874 11.16907,16.696267 11.53586,-16.444972 -0.77786,20.072574 18.99883,-6.52365 -12.42767,15.781841 19.20488,5.889484 -19.33052,5.46298 z"
               inkscape:transform-center-x="-6.495238e-006" />
            <circle
               style="opacity:1;fill:#ffd42a;fill-opacity:1;stroke:none;stroke-width:0.29104477"
               id="path5901-1"
               cx="-216.85294"
               cy="82.596527"
               r="20.847023" />
            <path
               style="opacity:1;fill:#d4aa00;fill-opacity:1;stroke:none;stroke-width:0.29104477"
               d="m -199.32047,70.763637 a 22.717911,22.717911 0 0 1 1.36839,7.704442 22.717911,22.717911 0 0 1 -22.71748,22.717991 22.717911,22.717911 0 0 1 -8.22999,-1.567861 20.847023,20.847023 0 0 0 12.95735,4.542871 20.847023,20.847023 0 0 0 20.84679,-20.846787 20.847023,20.847023 0 0 0 -4.22506,-12.550656 z"
               id="path5901"
               inkscape:connector-curvature="0" />
          </g>
        </g>
      </g>
      <path
         sodipodi:nodetypes="cccccc"
         inkscape:connector-curvature="0"
         id="path5937"
         d="m -472.94766,160.12362 c -1.24324,8.34656 -6.17169,11.37004 -11.90625,13.22916 l 0.94494,9.07143 c 5.63811,0.92126 10.1735,0.46414 13.79613,-1.13393 l -0.18898,-20.97768 z"
         style="fill:#dfb28b;fill-opacity:1;stroke:none;stroke-width:0.26458332px;stroke-linecap:butt;stroke-linejoin:miter;stroke-opacity:1" />
    </g>
    <path
       style="opacity:1;fill:#ffffff;fill-opacity:1;stroke:#000000;stroke-width:0.75"
       d="m -39.42345,77.017855 c 0,31.521325 -49.58312,57.074415 -110.74701,57.074415 -26.79978,0 -51.37621,-4.90587 -70.53245,-13.0701 -9.83557,8.1635 -38.47176,9.61515 -59.367,1.37404 28.07254,-4.5688 40.49301,-10.15497 31.30648,-19.35655 -7.77988,-7.79263 -12.15405,-16.648465 -12.15405,-26.021805 0,-31.521323 49.58313,-57.074403 110.74702,-57.074403 61.16389,3e-6 110.74701,25.553082 110.74701,57.074403 z"
       id="path6042-4"
       inkscape:connector-curvature="0"
       sodipodi:nodetypes="ssccssss" />
    <text
       xml:space="preserve"
       style="font-style:normal;font-variant:normal;font-weight:normal;font-stretch:normal;font-size:9.8777771px;line-height:1.25;font-family:Calligraffitti;-inkscape-font-specification:Calligraffitti;letter-spacing:0px;word-spacing:0px;fill:#000000;fill-opacity:1;stroke:none;stroke-width:0.26458332"
       x="295.85565"
       y="33.599697"
       id="text6080"><tspan
         sodipodi:role="line"
         id="tspan6078"
         x="295.85565"
         y="33.599697"
         style="font-style:normal;font-variant:normal;font-weight:normal;font-stretch:normal;font-size:11.28888893px;font-family:'Bodoni MT';-inkscape-font-specification:'Bodoni MT';stroke-width:0.26458332">Olá aventureiro! </tspan></text>
    <text
       xml:space="preserve"
       style="font-style:normal;font-variant:normal;font-weight:normal;font-stretch:normal;font-size:9.8777771px;line-height:1.25;font-family:Calligraffitti;-inkscape-font-specification:Calligraffitti;letter-spacing:0px;word-spacing:0px;fill:#000000;fill-opacity:1;stroke:none;stroke-width:0.26458332"
       x="237.06303"
       y="53.280289"
       id="text6080-5"><tspan
         sodipodi:role="line"
         id="tspan6078-2"
         x="237.06303"
         y="53.280289"
         style="font-style:normal;font-variant:normal;font-weight:normal;font-stretch:normal;font-size:11.28888893px;font-family:'Bodoni MT';-inkscape-font-specification:'Bodoni MT';stroke-width:0.26458332">Eu vou acompanhar você nessa aventura,</tspan><tspan
         sodipodi:role="line"
         x="237.06303"
         y="67.454681"
         style="font-style:normal;font-variant:normal;font-weight:normal;font-stretch:normal;font-size:11.28888893px;font-family:'Bodoni MT';-inkscape-font-specification:'Bodoni MT';stroke-width:0.26458332"
         id="tspan6104">você precisa saber....</tspan></text>
  </g>
</svg>
