<?xml version="1.0" encoding="iso-8859-1"?>
<!-- Generator: Adobe Illustrator 19.0.0, SVG Export Plug-In . SVG Version: 6.00 Build 0)  -->
<svg version="1.1" id="Layer_1" xmlns="http://www.w3.org/2000/svg" xmlns:xlink="http://www.w3.org/1999/xlink" x="0px" y="0px"
	 viewBox="0 0 512 512" style="enable-background:new 0 0 512 512;" xml:space="preserve">
<polygon style="fill:#E1E3E6;" points="185.16,367.564 325.378,294.101 265.816,194.846 265.816,69.761 185.16,49.764 "/>
<polygon style="fill:#F6F6F7;" points="205.157,367.564 205.157,69.761 144.498,69.761 144.498,194.846 91.131,283.78 "/>
<polygon style="fill:#CCCDD2;" points="265.816,69.761 284.735,69.761 284.735,0.234 205.157,0.234 185.16,34.997 205.157,69.761 
	"/>
<polygon style="fill:#E1E3E6;" points="205.157,0.234 125.58,0.234 125.58,69.761 144.498,69.761 205.157,69.761 "/>
<path style="fill:#ACF470;" d="M401.783,421.426l-0.156-0.26l-76.248-127.064c-21.774-6.026-32.286-16.571-69.073-16.571
	c-25.516,0-38.389,5.074-51.147,10.195l-19.998,110.047l19.998,113.993h145.555c32.918,0,59.603-26.685,59.603-59.603
	C410.315,440.918,407.197,430.402,401.783,421.426z"/>
<path style="fill:#CAFFAB;" d="M153.314,298.199c-32.702,0-44.639-8.335-62.183-14.419L8.688,421.165l-0.156,0.26
	C3.118,430.402,0,440.918,0,452.164c0,32.918,26.685,59.603,59.603,59.603h145.555V287.725
	C192.166,292.938,179.294,298.199,153.314,298.199z"/>
<polygon style="fill:#E1E3E6;" points="406.256,70.669 406.256,228.516 489.083,176.569 489.083,70.669 "/>
<polygon style="fill:#F6F6F7;" points="426.253,228.516 426.253,70.669 363.423,70.669 363.423,180.479 "/>
<polygon style="fill:#CCCDD2;" points="512,55.683 426.253,55.683 406.256,70.669 426.253,85.656 512,85.656 "/>
<rect x="340.509" y="55.683" style="fill:#E1E3E6;" width="85.752" height="29.973"/>
<path style="fill:#FF6E77;" d="M426.253,178.522l-19.998,166.623l19.998,166.622h6.713c30.993,0,56.117-25.124,56.117-56.117
	V176.569c-7.297-4.217-15.417-7.943-29.761-7.943C442.787,168.626,434.52,173.573,426.253,178.522z"/>
<path style="fill:#FFB8BD;" d="M393.181,188.421c-14.342,0-22.46-3.725-29.758-7.942v275.17c0,30.993,25.124,56.117,56.117,56.117
	h6.713V178.522C417.985,183.471,409.717,188.421,393.181,188.421z"/>
<g>
</g>
<g>
</g>
<g>
</g>
<g>
</g>
<g>
</g>
<g>
</g>
<g>
</g>
<g>
</g>
<g>
</g>
<g>
</g>
<g>
</g>
<g>
</g>
<g>
</g>
<g>
</g>
<g>
</g>
</svg>
