<?xml version="1.0" encoding="UTF-8" standalone="no"?>
<!-- Generator: Adobe Illustrator 19.0.0, SVG Export Plug-In . SVG Version: 6.00 Build 0)  -->

<svg
   xmlns:dc="http://purl.org/dc/elements/1.1/"
   xmlns:cc="http://creativecommons.org/ns#"
   xmlns:rdf="http://www.w3.org/1999/02/22-rdf-syntax-ns#"
   xmlns:svg="http://www.w3.org/2000/svg"
   xmlns="http://www.w3.org/2000/svg"
   xmlns:sodipodi="http://sodipodi.sourceforge.net/DTD/sodipodi-0.dtd"
   xmlns:inkscape="http://www.inkscape.org/namespaces/inkscape"
   version="1.1"
   id="Layer_1"
   x="0px"
   y="0px"
   viewBox="0 0 512 512"
   style="enable-background:new 0 0 512 512;"
   xml:space="preserve"
   sodipodi:docname="pipeta-vida-2.svg"
   inkscape:version="0.92.1 r15371"><metadata
   id="metadata61"><rdf:RDF><cc:Work
       rdf:about=""><dc:format>image/svg+xml</dc:format><dc:type
         rdf:resource="http://purl.org/dc/dcmitype/StillImage" /><dc:title></dc:title></cc:Work></rdf:RDF></metadata><defs
   id="defs59" /><sodipodi:namedview
   pagecolor="#ffffff"
   bordercolor="#666666"
   borderopacity="1"
   objecttolerance="10"
   gridtolerance="10"
   guidetolerance="10"
   inkscape:pageopacity="0"
   inkscape:pageshadow="2"
   inkscape:window-width="1366"
   inkscape:window-height="705"
   id="namedview57"
   showgrid="false"
   inkscape:zoom="0.4609375"
   inkscape:cx="256"
   inkscape:cy="256"
   inkscape:window-x="-8"
   inkscape:window-y="-8"
   inkscape:window-maximized="1"
   inkscape:current-layer="Layer_1" />
<polygon
   style="fill:#e1e3e6"
   points="325.378,294.101 265.816,194.846 265.816,69.761 185.16,49.764 185.16,367.564 "
   id="polygon2"
   transform="translate(49.898305,-2.1694915)" />
<polygon
   style="fill:#f6f6f7"
   points="205.157,69.761 144.498,69.761 144.498,194.846 91.131,283.78 205.157,367.564 "
   id="polygon4"
   transform="translate(49.898305,-2.1694915)" />
<polygon
   style="fill:#cccdd2"
   points="284.735,69.761 284.735,0.234 205.157,0.234 185.16,34.997 205.157,69.761 265.816,69.761 "
   id="polygon6"
   transform="translate(49.898305,-2.1694915)" />
<polygon
   style="fill:#e1e3e6"
   points="125.58,0.234 125.58,69.761 144.498,69.761 205.157,69.761 205.157,0.234 "
   id="polygon8"
   transform="translate(49.898305,-2.1694915)" />
<path
   style="fill:#ff0000"
   d="m 451.68131,419.25651 -0.156,-0.26 -76.248,-127.064 c -21.774,-6.026 -32.286,-16.571 -69.073,-16.571 -25.516,0 -38.389,5.074 -51.147,10.195 l -19.998,110.047 19.998,113.993 h 145.555 c 32.918,0 59.603,-26.685 59.603,-59.603 -0.002,-11.245 -3.12,-21.761 -8.534,-30.737 z"
   id="path10"
   inkscape:connector-curvature="0" />
<path
   style="fill:#ff5555"
   d="m 203.21231,296.02951 c -32.702,0 -44.639,-8.335 -62.183,-14.419 l -82.443005,137.385 -0.156,0.26 c -5.414,8.977 -8.532,19.493 -8.532,30.739 0,32.918 26.685,59.603 59.603005,59.603 h 145.555 v -224.042 c -12.992,5.213 -25.864,10.474 -51.844,10.474 z"
   id="path12"
   inkscape:connector-curvature="0" />






<g
   id="g26">
</g>
<g
   id="g28">
</g>
<g
   id="g30">
</g>
<g
   id="g32">
</g>
<g
   id="g34">
</g>
<g
   id="g36">
</g>
<g
   id="g38">
</g>
<g
   id="g40">
</g>
<g
   id="g42">
</g>
<g
   id="g44">
</g>
<g
   id="g46">
</g>
<g
   id="g48">
</g>
<g
   id="g50">
</g>
<g
   id="g52">
</g>
<g
   id="g54">
</g>
</svg>