<?xml version="1.0" encoding="UTF-8" standalone="no"?>
<!-- Generator: Adobe Illustrator 19.0.0, SVG Export Plug-In . SVG Version: 6.00 Build 0)  -->

<svg
   xmlns:dc="http://purl.org/dc/elements/1.1/"
   xmlns:cc="http://creativecommons.org/ns#"
   xmlns:rdf="http://www.w3.org/1999/02/22-rdf-syntax-ns#"
   xmlns:svg="http://www.w3.org/2000/svg"
   xmlns="http://www.w3.org/2000/svg"
   xmlns:sodipodi="http://sodipodi.sourceforge.net/DTD/sodipodi-0.dtd"
   xmlns:inkscape="http://www.inkscape.org/namespaces/inkscape"
   version="1.1"
   id="Layer_1"
   x="0px"
   y="0px"
   viewBox="0 0 512 512"
   style="enable-background:new 0 0 512 512;"
   xml:space="preserve"
   sodipodi:docname="pipeta-vida-1.svg"
   inkscape:version="0.92.1 r15371"><metadata
   id="metadata61"><rdf:RDF><cc:Work
       rdf:about=""><dc:format>image/svg+xml</dc:format><dc:type
         rdf:resource="http://purl.org/dc/dcmitype/StillImage" /><dc:title></dc:title></cc:Work></rdf:RDF></metadata><defs
   id="defs59" /><sodipodi:namedview
   pagecolor="#ffffff"
   bordercolor="#666666"
   borderopacity="1"
   objecttolerance="10"
   gridtolerance="10"
   guidetolerance="10"
   inkscape:pageopacity="0"
   inkscape:pageshadow="2"
   inkscape:window-width="1366"
   inkscape:window-height="705"
   id="namedview57"
   showgrid="false"
   inkscape:zoom="0.4609375"
   inkscape:cx="256"
   inkscape:cy="256"
   inkscape:window-x="-8"
   inkscape:window-y="-8"
   inkscape:window-maximized="1"
   inkscape:current-layer="Layer_1" />






<polygon
   style="fill:#e1e3e6"
   points="489.083,70.669 406.256,70.669 406.256,228.516 489.083,176.569 "
   id="polygon14"
   transform="translate(-154.0339,-21.694915)" />
<polygon
   style="fill:#f6f6f7"
   points="363.423,180.479 426.253,228.516 426.253,70.669 363.423,70.669 "
   id="polygon16"
   transform="translate(-154.0339,-21.694915)" />
<polygon
   style="fill:#cccdd2"
   points="426.253,85.656 512,85.656 512,55.683 426.253,55.683 406.256,70.669 "
   id="polygon18"
   transform="translate(-154.0339,-21.694915)" />
<rect
   x="186.47505"
   y="33.988083"
   style="fill:#e1e3e6"
   width="85.751999"
   height="29.973"
   id="rect20" />
<path
   style="fill:#ff0000"
   d="m 272.2191,156.82708 -19.998,166.623 19.998,166.622 h 6.713 c 30.993,0 56.117,-25.124 56.117,-56.117 v -279.081 c -7.297,-4.217 -15.417,-7.943 -29.761,-7.943 -16.535,0 -24.802,4.947 -33.069,9.896 z"
   id="path22"
   inkscape:connector-curvature="0" />
<path
   style="fill:#ff5555"
   d="m 239.1471,166.72608 c -14.342,0 -22.46,-3.725 -29.758,-7.942 v 275.17 c 0,30.993 25.124,56.117 56.117,56.117 h 6.713 v -333.244 c -8.268,4.949 -16.536,9.899 -33.072,9.899 z"
   id="path24"
   inkscape:connector-curvature="0" />
<g
   id="g26">
</g>
<g
   id="g28">
</g>
<g
   id="g30">
</g>
<g
   id="g32">
</g>
<g
   id="g34">
</g>
<g
   id="g36">
</g>
<g
   id="g38">
</g>
<g
   id="g40">
</g>
<g
   id="g42">
</g>
<g
   id="g44">
</g>
<g
   id="g46">
</g>
<g
   id="g48">
</g>
<g
   id="g50">
</g>
<g
   id="g52">
</g>
<g
   id="g54">
</g>
</svg>