<?xml version="1.0" encoding="UTF-8" standalone="no"?>
<!-- Generator: Adobe Illustrator 19.0.0, SVG Export Plug-In . SVG Version: 6.00 Build 0)  -->

<svg
   xmlns:dc="http://purl.org/dc/elements/1.1/"
   xmlns:cc="http://creativecommons.org/ns#"
   xmlns:rdf="http://www.w3.org/1999/02/22-rdf-syntax-ns#"
   xmlns:svg="http://www.w3.org/2000/svg"
   xmlns="http://www.w3.org/2000/svg"
   xmlns:sodipodi="http://sodipodi.sourceforge.net/DTD/sodipodi-0.dtd"
   xmlns:inkscape="http://www.inkscape.org/namespaces/inkscape"
   version="1.1"
   id="Layer_1"
   x="0px"
   y="0px"
   viewBox="0 0 512 512"
   style="enable-background:new 0 0 512 512;"
   xml:space="preserve"
   sodipodi:docname="sister.svg"
   inkscape:version="0.92.1 r15371"><metadata
   id="metadata151"><rdf:RDF><cc:Work
       rdf:about=""><dc:format>image/svg+xml</dc:format><dc:type
         rdf:resource="http://purl.org/dc/dcmitype/StillImage" /><dc:title></dc:title></cc:Work></rdf:RDF></metadata><defs
   id="defs149" /><sodipodi:namedview
   pagecolor="#ffffff"
   bordercolor="#666666"
   borderopacity="1"
   objecttolerance="10"
   gridtolerance="10"
   guidetolerance="10"
   inkscape:pageopacity="0"
   inkscape:pageshadow="2"
   inkscape:window-width="1366"
   inkscape:window-height="705"
   id="namedview147"
   showgrid="false"
   inkscape:zoom="0.4609375"
   inkscape:cx="256"
   inkscape:cy="256"
   inkscape:window-x="-8"
   inkscape:window-y="-8"
   inkscape:window-maximized="1"
   inkscape:current-layer="Layer_1" />


































<g
   id="g116">
</g>
<g
   id="g118">
</g>
<g
   id="g120">
</g>
<g
   id="g122">
</g>
<g
   id="g124">
</g>
<g
   id="g126">
</g>
<g
   id="g128">
</g>
<g
   id="g130">
</g>
<g
   id="g132">
</g>
<g
   id="g134">
</g>
<g
   id="g136">
</g>
<g
   id="g138">
</g>
<g
   id="g140">
</g>
<g
   id="g142">
</g>
<g
   id="g144">
</g>
<g
   id="g4783"><g
     id="g6"
     transform="matrix(1.2170509,0,0,1.2170509,103.97517,-60.36674)"><path
       id="path2"
       d="M 26.205,235.215 C 11.614,234.568 0,222.531 0,207.786 0,192.63 12.285,180.334 27.452,180.334 c 1.365,0 2.707,0.094 4.025,0.294"
       style="fill:#e0b394"
       inkscape:connector-curvature="0" /><path
       id="path4"
       d="m 228.486,235.215 c 14.591,-0.647 26.217,-12.685 26.217,-27.429 0,-15.156 -12.296,-27.452 -27.464,-27.452 -1.365,0 -2.718,0.106 -4.025,0.294"
       style="fill:#e0b394"
       inkscape:connector-curvature="0" /></g><path
     id="path8"
     d="m 325.30682,322.99455 c 35.32489,6.87877 61.99292,38.00484 61.99292,75.34396 V 500.28113 H 130.6371 V 398.33851 c 0,-37.34033 26.66801,-68.46519 61.99292,-75.34396 z"
     style="fill:#f4aab6;stroke-width:1.21705091"
     inkscape:connector-curvature="0" /><path
     id="path10"
     d="m 225.27619,322.99455 h -32.64617 c -35.32491,6.87877 -61.99292,38.00484 -61.99292,75.34396 v 101.94262 h 32.64495 V 398.33851 c 0.001,-37.34155 26.66924,-68.46763 61.99414,-75.34396 z"
     style="fill:#e28b9c;stroke-width:1.21705091"
     inkscape:connector-curvature="0" /><path
     id="path12"
     d="m 330.55109,324.66556 c 0,3.65845 -0.27018,7.26092 -0.79838,10.77211 -5.20047,34.41333 -34.90868,60.799 -70.77273,60.799 -35.86406,0 -65.56132,-26.37471 -70.76299,-60.77709 -0.52942,-3.52337 -0.81056,-7.12583 -0.81056,-10.79524 0,-0.157 0,-0.30305 0.011,-0.46126 h 143.12275 c 0.011,0.15821 0.011,0.30548 0.011,0.46248 z"
     style="fill:#f7cba4;stroke-width:1.21705091"
     inkscape:connector-curvature="0" /><g
     id="g18"
     transform="matrix(1.2170509,0,0,1.2170509,103.97517,-60.36674)"><path
       id="path14"
       d="M 69.703,460.661 H 55.83 v -63.359 c 0,-3.832 3.106,-6.937 6.937,-6.937 v 0 c 3.832,0 6.937,3.106 6.937,6.937 -10e-4,0 -10e-4,63.359 -10e-4,63.359 z"
       style="fill:#e28b9c"
       inkscape:connector-curvature="0" /><path
       id="path16"
       d="M 198.874,460.661 H 185 v -63.359 c 0,-3.832 3.106,-6.937 6.937,-6.937 v 0 c 3.832,0 6.937,3.106 6.937,6.937 z"
       style="fill:#e28b9c"
       inkscape:connector-curvature="0" /></g><path
     id="path20"
     d="m 330.55109,324.66556 c 0,3.65845 -0.27018,7.26092 -0.79838,10.77211 l -29.55,21.46756 c -24.58565,17.85414 -57.88416,17.85414 -82.4698,0 L 188.21699,335.4608 c -0.52942,-3.52336 -0.81056,-7.12583 -0.81056,-10.79524 0,-0.157 0,-0.30305 0.011,-0.46126 h 143.12275 c 0.011,0.15699 0.011,0.30426 0.011,0.46126 z"
     style="fill:#e0b394;stroke-width:1.21705091"
     inkscape:connector-curvature="0" /><path
     id="path22"
     d="m 348.21293,304.00856 -48.01144,34.88554 c -24.58564,17.85413 -57.88416,17.85413 -82.4698,0 l -48.01144,-34.88554 c -27.76093,-20.17384 -42.57365,-53.68412 -38.80323,-87.7944 l 6.18019,-55.89185 c 1.06978,-9.70355 3.26412,-19.04684 6.42724,-27.89481 v -0.011 c 17.10078,-47.763164 62.71462,-81.232062 115.44214,-81.232062 31.24899,0 60.00061,11.753061 81.79434,31.272117 21.79373,19.519065 36.64175,46.806565 40.07505,77.864485 l 2.00448,18.13528 4.17571,37.75535 c 3.77163,34.11272 -11.04231,67.62421 -38.80324,87.79683 z"
     style="fill:#f7cba4;stroke-width:1.21705091"
     inkscape:connector-curvature="0" /><g
     id="g28"
     transform="matrix(1.2170509,0,0,1.2170509,103.97517,-60.36674)"><path
       id="path24"
       d="m 127.351,91.662 v 0 c -51.355,0 -94.49,38.63 -100.134,89.674 L 22.14,227.26 c -3.098,28.025 9.072,55.559 31.883,72.132 l 39.451,28.663 c 10.092,7.333 21.97,11.001 33.849,11.007 -9.07,-0.008 -18.137,-3.676 -25.843,-11.007 L 71.353,299.392 C 53.934,282.819 44.64,255.285 47.006,227.26 l 3.877,-45.924 c 4.31,-51.044 37.251,-89.674 76.468,-89.674 v 0"
       style="fill:#e0b394"
       inkscape:connector-curvature="0" /><path
       id="path26"
       d="m 229.131,196.233 c -49.152,3.098 -76.642,-35.527 -77.113,-36.332 -25.898,20.996 -65.736,37.119 -123.138,21.422 1.6,-7.446 2.701,-15.188 3.617,-22.911 v -0.009 c 14.05,-39.245 51.529,-66.745 94.853,-66.745 25.676,0 49.3,9.657 67.207,25.695 17.907,16.038 30.107,38.459 32.928,63.978 z"
       style="fill:#e0b394"
       inkscape:connector-curvature="0" /></g><path
     id="path30"
     d="m 329.96568,73.835021 c -1.69899,2.89293 -3.70348,6.124201 -6.03414,9.568458 -3.91768,5.808986 -8.75789,12.258135 -14.57782,18.844821 -5.78586,6.56233 -12.55145,13.27193 -20.3637,19.60911 -27.20839,22.05297 -67.04734,39.6929 -122.37568,31.81372 -8.77007,-1.23896 -17.93325,-3.12905 -27.48953,-5.74084 10.93155,-50.881234 53.0196,-89.314486 104.45461,-95.764855 4.32296,-0.551325 8.71286,-0.867757 13.15997,-0.945649 0.33834,-0.01095 0.67546,-0.02313 1.02475,-0.01095 0.39433,-0.01095 0.79839,-0.01095 1.20367,-0.01095 17.15554,0 33.55653,3.546487 48.47391,9.961562 7.97899,3.4333 15.52227,7.700281 22.52396,12.675583 z"
     style="fill:#fec95b;stroke-width:1.21705091"
     inkscape:connector-curvature="0" /><g
     id="g36"
     transform="matrix(1.2170509,0,0,1.2170509,103.97517,-60.36674)"><path
       id="path32"
       d="m 227.972,185.778 c -51.325,5.198 -75.476,-35.231 -75.957,-36.054 16.677,-13.532 27.572,-29.08 33.669,-39.458 3.089,2.202 6.049,4.57 8.87,7.094 17.916,16.038 30.107,38.459 32.928,63.978 z"
       style="fill:#eaae44"
       inkscape:connector-curvature="0" /><path
       id="path34"
       d="m 180.729,118.131 c -3.219,4.773 -7.196,10.072 -11.978,15.484 l -7.603,-5.54 -5.744,-0.61 -33.945,-3.617 C 109.24,122.544 103.006,108.503 110.248,98.579 l 4.458,-6.114 c 4.144,-0.527 8.362,-0.795 12.643,-0.795 14.096,0 27.572,2.914 39.829,8.185 l 3.163,7.132 2.341,5.281 z"
       style="fill:#eaae44"
       inkscape:connector-curvature="0" /></g><path
     id="path38"
     d="m 409.98191,127.47411 -22.82944,31.31837 c -8.80293,12.07923 -27.38851,10.09786 -33.45673,-3.5684 l -16.85128,-37.9939 -2.84912,-6.42723 -33.33259,-24.303299 -6.99073,-0.742392 -41.3128,-4.402078 C 237.48807,79.768147 229.90098,62.679537 238.71487,50.601524 L 261.53213,19.273416 C 270.34602,7.1941868 288.9316,9.1755456 294.9986,22.84181 l 16.8525,37.992678 2.84912,6.427245 33.32042,24.303285 7.00169,0.742402 41.31279,4.413028 c 14.88332,1.576084 22.46067,18.675642 13.64679,30.753662 z"
     style="fill:#d2b4ef;stroke-width:1.21705091"
     inkscape:connector-curvature="0" /><path
     id="path40"
     d="m 355.02355,92.308637 c -1.18298,11.167663 -8.31854,20.555993 -18.1803,24.922763 l -2.84912,-6.42724 -33.3326,-24.303293 -6.99073,-0.742391 c 1.18176,-11.167659 8.31854,-20.555993 18.1803,-24.922771 l 2.84912,6.427246 33.32042,24.303284 z"
     style="fill:#b99ed8;stroke-width:1.21705091"
     inkscape:connector-curvature="0" /><circle
     id="circle42"
     r="23.816467"
     cy="89.040863"
     cx="324.34171"
     style="fill:#d2b4ef;stroke-width:1.21705091" /><path
     id="path44"
     d="m 311.75374,89.033556 c 0,-11.217561 7.76479,-20.597368 18.20464,-23.123967 -1.80245,-0.435704 -3.67549,-0.692501 -5.6106,-0.692501 -13.15267,0 -23.81647,10.662582 -23.81647,23.816468 0,13.152674 10.66259,23.816474 23.81647,23.816474 1.93754,0 3.80937,-0.25681 5.6106,-0.69251 -10.43985,-2.52538 -18.20464,-11.9064 -18.20464,-23.123964 z"
     style="fill:#b99ed8;stroke-width:1.21705091"
     inkscape:connector-curvature="0" /><path
     id="path46"
     d="m 220.68912,277.74216 c 2.198,0.30183 4.11973,0.71684 5.9234,1.15255 1.89372,0.32008 3.67549,0.64139 5.34649,1.00163 1.71239,0.29696 3.41626,0.4783 4.97165,0.7996 1.61746,0.20934 3.20693,0.35416 4.6966,0.61705 6.11082,0.69858 11.70926,1.03084 17.3369,1.02841 5.62764,-0.0232 11.2212,-0.35416 17.32472,-1.05762 1.48723,-0.26532 3.0767,-0.40528 4.69416,-0.61461 1.55418,-0.32374 3.25926,-0.49778 4.97043,-0.79595 1.67223,-0.35538 3.45399,-0.67547 5.35016,-0.9919 1.8061,-0.43205 3.73148,-0.84341 5.93434,-1.13916 -0.42474,2.07751 -1.12577,4.04304 -1.94728,5.98546 -0.8994,1.85356 -2.013,3.58056 -3.18137,5.3392 -1.25965,1.62354 -2.65925,3.16555 -4.13676,4.6686 -1.52375,1.42031 -3.19718,2.67143 -4.90836,3.92743 -6.98587,4.7258 -15.55513,7.20372 -24.10247,7.18791 -8.5437,-0.0122 -17.11053,-2.48766 -24.0891,-7.21955 -1.70752,-1.25965 -3.3834,-2.50469 -4.90472,-3.925 -1.47627,-1.5067 -2.87831,-3.0414 -4.13675,-4.66495 -1.16958,-1.75499 -2.2844,-3.47833 -3.18502,-5.32825 -0.82272,-1.93754 -1.5274,-3.89821 -1.95702,-5.97085 z"
     style="fill:#ffffff;stroke-width:1.21705091"
     inkscape:connector-curvature="0" /><path
     id="path48"
     d="m 266.09729,248.92727 h -14.25896 c -4.66374,0 -8.44269,-3.78017 -8.44269,-8.44269 0,-4.66252 3.78017,-8.44268 8.44269,-8.44268 h 14.25896 c 4.66374,0 8.44268,3.78016 8.44268,8.44268 0,4.66252 -3.77894,8.44269 -8.44268,8.44269 z"
     style="fill:#e0b394;stroke-width:1.21705091"
     inkscape:connector-curvature="0" /><path
     id="path50"
     d="m 243.57942,52.165435 c 4.32296,-0.551325 8.71286,-0.867757 13.15997,-0.945649 -45.02846,1.383786 -82.80814,44.610994 -90.12383,102.451344 -8.77007,-1.23896 -17.93325,-3.12905 -27.48953,-5.74084 10.92911,-50.883667 53.0196,-89.314486 104.45339,-95.764855 z"
     style="fill:#eaae44;stroke-width:1.21705091"
     inkscape:connector-curvature="0" /><g
     id="g56"
     transform="matrix(1.2170509,0,0,1.2170509,103.97517,-60.36674)"><path
       id="path52"
       d="m 184.384,230.419 c -1.183,0 -2.367,-0.451 -3.27,-1.354 -3.363,-3.363 -7.834,-5.215 -12.591,-5.215 -4.757,0 -9.226,1.852 -12.591,5.215 -1.804,1.806 -4.735,1.806 -6.54,0 -1.807,-1.806 -1.807,-4.734 0,-6.541 5.11,-5.11 11.904,-7.924 19.13,-7.924 7.227,0 14.021,2.814 19.13,7.924 1.807,1.806 1.807,4.734 0,6.541 -0.899,0.902 -2.084,1.354 -3.268,1.354 z"
       style="fill:#c99f83"
       inkscape:connector-curvature="0" /><path
       id="path54"
       d="m 102.034,230.419 c -1.183,0 -2.367,-0.451 -3.27,-1.354 -6.942,-6.942 -18.238,-6.942 -25.18,0 -1.807,1.806 -4.734,1.806 -6.541,0 -1.806,-1.806 -1.806,-4.734 0,-6.541 10.549,-10.549 27.712,-10.549 38.261,0 1.806,1.806 1.806,4.734 0,6.541 -0.903,0.902 -2.087,1.354 -3.27,1.354 z"
       style="fill:#c99f83"
       inkscape:connector-curvature="0" /></g></g></svg>