<?xml version="1.0" encoding="UTF-8" standalone="no"?>
<!-- Generator: Adobe Illustrator 18.0.0, SVG Export Plug-In . SVG Version: 6.00 Build 0)  -->

<svg
   xmlns:dc="http://purl.org/dc/elements/1.1/"
   xmlns:cc="http://creativecommons.org/ns#"
   xmlns:rdf="http://www.w3.org/1999/02/22-rdf-syntax-ns#"
   xmlns:svg="http://www.w3.org/2000/svg"
   xmlns="http://www.w3.org/2000/svg"
   xmlns:sodipodi="http://sodipodi.sourceforge.net/DTD/sodipodi-0.dtd"
   xmlns:inkscape="http://www.inkscape.org/namespaces/inkscape"
   version="1.1"
   id="Capa_1"
   x="0px"
   y="0px"
   viewBox="0 0 60.06 60.06"
   style="enable-background:new 0 0 60.06 60.06;"
   xml:space="preserve"
   sodipodi:docname="store.svg"
   inkscape:version="0.92.1 r15371"><metadata
   id="metadata71"><rdf:RDF><cc:Work
       rdf:about=""><dc:format>image/svg+xml</dc:format><dc:type
         rdf:resource="http://purl.org/dc/dcmitype/StillImage" /></cc:Work></rdf:RDF></metadata><defs
   id="defs69" /><sodipodi:namedview
   pagecolor="#ffffff"
   bordercolor="#666666"
   borderopacity="1"
   objecttolerance="10"
   gridtolerance="10"
   guidetolerance="10"
   inkscape:pageopacity="0"
   inkscape:pageshadow="2"
   inkscape:window-width="1366"
   inkscape:window-height="705"
   id="namedview67"
   showgrid="false"
   inkscape:zoom="7.8588077"
   inkscape:cx="19.645687"
   inkscape:cy="27.433231"
   inkscape:window-x="-8"
   inkscape:window-y="-8"
   inkscape:window-maximized="1"
   inkscape:current-layer="g34" />
<g
   id="g34"
   transform="translate(-0.12724577,0.72754234)">
	<path
   style="fill:#00aad4;stroke:none;stroke-width:0.96012664px;stroke-linecap:butt;stroke-linejoin:miter;stroke-opacity:1"
   d="m 30.864593,2.4835977 c 0,0 4.547532,-1.733286 8.866967,2.4997601 4.319436,4.2330463 2.40684,6.1404212 2.40684,6.1404212 H 30.864593 Z"
   id="path4641-2"
   inkscape:connector-curvature="0"
   sodipodi:nodetypes="csccc" /><path
   style="fill:#0044aa;stroke:none;stroke-width:0.96012664px;stroke-linecap:butt;stroke-linejoin:miter;stroke-opacity:1"
   d="M 42.386114,13.044031 H 30.864593 c 0,0 -1.24051,7.748456 5.497808,7.748456 6.73832,0 6.023713,-7.748456 6.023713,-7.748456 z"
   id="path4639-1"
   inkscape:connector-curvature="0" /><path
   style="fill:#00aad4;stroke:none;stroke-width:0.96012664px;stroke-linecap:butt;stroke-linejoin:miter;stroke-opacity:1"
   d="m 28.944339,2.4835977 c 0,0 -4.54753,-1.733286 -8.866968,2.4997601 -4.319433,4.2330463 -2.40684,6.1404212 -2.40684,6.1404212 h 11.273808 z"
   id="path4641"
   inkscape:connector-curvature="0"
   sodipodi:nodetypes="csccc" /><path
   style="fill:#0044aa;stroke:none;stroke-width:0.96012664px;stroke-linecap:butt;stroke-linejoin:miter;stroke-opacity:1"
   d="m 17.42282,13.044031 h 11.521519 c 0,0 1.240511,7.748456 -5.497808,7.748456 -6.738317,0 -6.023711,-7.748456 -6.023711,-7.748456 z"
   id="path4639"
   inkscape:connector-curvature="0" /><rect
   style="opacity:0.98799995;fill:#a05a2c;fill-opacity:1;stroke:none;stroke-width:5.53267384"
   id="rect4567-8"
   width="5.7607603"
   height="21.550823"
   x="51.027256"
   y="19.067869" /><path
   style="fill:#55d400;stroke:none;stroke-width:0.93261653px;stroke-linecap:butt;stroke-linejoin:miter;stroke-opacity:1"
   d="m 37.563794,1.5913714 9.04751,-0.086387 c 0,0 5.868655,1.4686071 7.335821,3.7147143 1.467164,2.2461062 3.34187,6.3063753 3.34187,6.3063753 l -13.449,0.518332 c 0,0 -2.608291,-8.2069258 -6.439217,-9.0708131 C 33.569849,2.1097076 37.563794,1.591374 37.563794,1.591374 Z"
   id="path4605-8"
   inkscape:connector-curvature="0" /><path
   style="opacity:1;fill:#338000;fill-opacity:1;stroke:none;stroke-width:0.96012664px;stroke-linecap:butt;stroke-linejoin:miter;stroke-opacity:1"
   d="m 51.259461,20.965266 c 0,0 -4.751378,0 -5.788043,-1.900551 -1.036664,-1.900552 -2.933422,-4.605128 -1.986939,-5.874432 0.946482,-1.269306 8.293314,-0.604719 8.293314,-0.604719 l 5.788044,-0.604722 c 0,0 0.172776,5.701655 -1.295832,6.479153 -1.468608,0.777498 -5.010544,2.505271 -5.010544,2.505271 z"
   id="path4607-2"
   inkscape:connector-curvature="0"
   sodipodi:nodetypes="cssccsc" /><rect
   style="opacity:0.98799995;fill:#a05a2c;fill-opacity:1;stroke:none;stroke-width:5.53267384"
   id="rect4567"
   width="5.7607603"
   height="21.550823"
   x="3.0209179"
   y="19.067869" /><path
   style="fill:#ffff00;stroke:#000000;stroke-width:0.96012664px;stroke-linecap:butt;stroke-linejoin:miter;stroke-opacity:1"
   d="M 23.100978,1.700588 13.511833,1.614201 c 0,0 -6.219985,1.4686071 -7.7749813,3.7147136 C 4.1818541,7.5750209 2.1949143,11.635288 2.1949143,11.635288 L 16.449048,12.15362 c 0,0 2.764437,-8.2069238 6.824705,-9.0708118 C 27.334023,2.2189271 23.100978,1.700595 23.100978,1.700595 Z"
   id="path4605"
   inkscape:connector-curvature="0" /><path
   style="opacity:1;fill:#ffcc00;fill-opacity:1;stroke:none;stroke-width:0.96012664px;stroke-linecap:butt;stroke-linejoin:miter;stroke-opacity:1"
   d="m 8.5012887,20.619712 c 0,0 4.7513773,0 5.7880423,-1.900552 1.036664,-1.90055 2.933421,-4.605125 1.986938,-5.87443 C 15.32979,11.575424 7.9829566,12.240007 7.9829566,12.240007 l -5.7880423,-0.60472 c 0,0 -0.1727784,5.701654 1.2958284,6.479151 1.4686095,0.777499 5.010546,2.505274 5.010546,2.505274 z"
   id="path4607"
   inkscape:connector-curvature="0"
   sodipodi:nodetypes="cssccsc" /><path
   style="fill:#008000;stroke:none;stroke-width:0.96012664px;stroke-linecap:butt;stroke-linejoin:miter;stroke-opacity:1"
   d="m 37.356964,41.33905 2.015839,9.651593 -18.692327,0.244343 2.343722,-9.387151 z"
   id="path4603"
   inkscape:connector-curvature="0" /><path
   style="fill:#ff0000;stroke:none;stroke-width:0.96012664px;stroke-linecap:butt;stroke-linejoin:miter;stroke-opacity:1"
   d="m 4.2081396,41.785788 -0.9971159,8.703187 17.3900183,-9.6e-4 c 0.523181,-2.586751 2.696126,-9.989817 2.423156,-8.64018 z"
   id="path4599"
   inkscape:connector-curvature="0"
   sodipodi:nodetypes="ccccc" /><path
   style="fill:#ffff00;stroke:none;stroke-width:0.96012664px;stroke-linecap:butt;stroke-linejoin:miter;stroke-opacity:1"
   d="M 56.788017,40.801297 58.737072,51.51919 40.30744,50.488975 36.782816,41.847835 Z"
   id="path4601"
   inkscape:connector-curvature="0"
   sodipodi:nodetypes="ccccc" /><rect
   style="opacity:0.98799995;fill:#a05a2c;fill-opacity:1;stroke:none;stroke-width:8.70436764"
   id="rect4567-8-4"
   width="5.7607603"
   height="53.341862"
   x="52.409229"
   y="-56.630653"
   transform="rotate(90)" /><path
   d="M 56.788017,40.801297 V 19.067868 c 1.191517,-1.353781 1.920252,-3.123294 1.920252,-5.06371 v -1.766633 c 0,-0.153613 -0.03169,-0.29956 -0.08737,-0.432057 -0.002,-0.104643 -0.01342,-0.209308 -0.04319,-0.31204 l -0.140182,0.04032 c -0.002,-0.0029 -0.0029,-0.0059 -0.0059,-0.0079 l 0.143058,-0.04223 C 57.003084,5.7095023 52.103556,1.4705433 46.226623,0.69572215 V 0.56226256 h -15.36203 v 0 h -0.172822 -1.574608 -0.172824 v 0 H 15.501605 C 8.8479264,0.57372758 2.981553,5.0642972 1.2379648,11.469303 c -0.030734,0.106573 -0.04225,0.216027 -0.043201,0.32548 -0.059538,0.136337 -0.094101,0.285159 -0.094101,0.442621 v 1.766632 c 0,1.940417 0.7287347,3.70993 1.920252,5.063709 V 40.801173 L 1.071858,51.519068 3.2887901,58.169866 h 18.2424079 2.023948 12.698637 2.023947 18.242406 l 2.216934,-6.650798 z m -3.840508,8.727551 c -0.52999,0 -0.960127,0.430136 -0.960127,0.960127 h -3.840506 c 0,-0.529991 -0.430136,-0.960127 -0.960127,-0.960127 -0.529992,0 -0.960126,0.430136 -0.960126,0.960127 h -3.840509 c 0,-0.529991 -0.430134,-0.960127 -0.960127,-0.960127 -0.52999,0 -0.960126,0.430136 -0.960126,0.960127 H 40.307446 L 38.89798,42.736911 c 0.355247,-0.141129 0.60776,-0.483904 0.60776,-0.889076 h 3.840507 c 0,0.529988 0.430137,0.960126 0.960129,0.960126 0.529988,0 0.960127,-0.430138 0.960127,-0.960126 h 3.840506 c 0,0.529988 0.430135,0.960126 0.960126,0.960126 0.52999,0 0.960128,-0.430138 0.960128,-0.960126 h 3.840505 c 0,0.265954 0.108517,0.505988 0.282277,0.679769 l 0.751779,4.136224 c -0.02594,-0.002 -0.048,-0.01535 -0.07394,-0.01535 -0.529992,0 -0.960127,0.430137 -0.960127,0.960127 0,0.529989 0.430135,0.960129 0.960127,0.960129 0.144988,0 0.279397,-0.03743 0.403252,-0.09506 l 0.366769,2.015307 h -2.690274 c 0,-0.530949 -0.430138,-0.960128 -0.960128,-0.960128 z m -17.282281,0 c -0.529992,0 -0.960128,0.430136 -0.960128,0.960127 h -3.840507 c 0,-0.529991 -0.430137,-0.960127 -0.960125,-0.960127 -0.529992,0 -0.960129,0.430136 -0.960129,0.960127 h -3.840505 c 0,-0.529991 -0.430139,-0.960127 -0.960127,-0.960127 -0.52999,0 -0.960128,0.430136 -0.960128,0.960127 H 21.45343 l 0.387891,-2.133403 c 0.22659,-0.175704 0.382132,-0.437816 0.382132,-0.746976 0,-0.184345 -0.06624,-0.347568 -0.156506,-0.493507 l 0.957244,-5.267254 h 3.038802 c 0,0.529988 0.430137,0.960126 0.960127,0.960126 0.529992,0 0.960127,-0.430138 0.960127,-0.960126 h 3.840507 c 0,0.529988 0.430136,0.960126 0.960125,0.960126 0.529994,0 0.960128,-0.430138 0.960128,-0.960126 h 3.038802 l 0.957247,5.267254 c -0.09026,0.145938 -0.156506,0.309162 -0.156506,0.493507 0,0.30916 0.155537,0.571272 0.382132,0.746976 l 0.387891,2.133403 h -1.72823 c 0,-0.530951 -0.430134,-0.960127 -0.960127,-0.960127 z m -17.282282,0 c -0.529991,0 -0.960126,0.430136 -0.960126,0.960127 h -3.840507 c 0,-0.529991 -0.430138,-0.960127 -0.960128,-0.960127 -0.52999,0 -0.960125,0.430136 -0.960125,0.960127 H 7.8215532 c 0,-0.529991 -0.4301381,-0.960127 -0.960127,-0.960127 -0.5299915,0 -0.9601269,0.430136 -0.9601269,0.960127 H 3.2110237 l 0.3667692,-2.016267 c 0.1238433,0.05761 0.2582744,0.09506 0.4032512,0.09506 0.5299915,0 0.9601269,-0.430137 0.9601269,-0.960127 0,-0.52999 -0.4301354,-0.960126 -0.9601269,-0.960126 -0.025937,0 -0.04896,0.01248 -0.073938,0.01535 l 0.75178,-4.136226 C 4.8336325,42.352856 4.9411648,42.112824 4.9411648,41.84687 h 3.8405077 c 0,0.52999 0.4301355,0.960127 0.9601257,0.960127 0.5299908,0 0.9601268,-0.430137 0.9601268,-0.960127 h 3.840506 c 0,0.52999 0.430137,0.960127 0.960127,0.960127 0.52999,0 0.960128,-0.430137 0.960128,-0.960127 h 3.840506 c 0,0.405172 0.252514,0.747938 0.607759,0.889076 l -1.409464,7.752064 h -0.158414 c 0,-0.529989 -0.430139,-0.959166 -0.960127,-0.959166 z M 3.0209175,13.044031 h 12.2915405 0.190107 v 0.960127 c 0,3.17706 -2.583701,5.76076 -5.7607593,5.76076 H 8.7816788 c -0.1881853,0 -0.3744506,-0.01064 -0.5587959,-0.02784 l -0.2649931,-0.0384 C 7.3482078,19.61129 6.7702129,19.426959 6.2325426,19.162923 6.2018116,19.147571 6.1701351,19.134136 6.1394172,19.117798 5.8965058,18.992983 5.6641545,18.848001 5.4414047,18.688622 5.3972518,18.656945 5.3549902,18.624284 5.3117829,18.591635 5.0919131,18.42553 4.8806848,18.245989 4.6838593,18.047242 3.6574846,17.006465 3.0209202,15.578758 3.0209202,14.00511 Z m 51.8190005,7.618607 c 0.0085,-0.0049 0.01826,-0.0085 0.0269,-0.01342 v 19.27831 H 52.946549 V 21.433619 c 0.0067,-0.002 0.01342,-0.0049 0.02017,-0.0067 0.664407,-0.173783 1.292332,-0.430137 1.873209,-0.764261 z M 51.027255,39.927582 H 48.57317 c 0.330286,-0.567435 0.533832,-1.217442 0.533832,-1.920256 0,-1.97978 -1.51124,-3.594713 -3.436295,-3.79922 0.345648,-0.576076 0.555916,-1.241443 0.555916,-1.96154 0,-2.118039 -1.722468,-3.840506 -3.840509,-3.840506 -2.118039,0 -3.840508,1.722467 -3.840508,3.840506 0,0.719136 0.211231,1.385464 0.555916,1.96154 -1.926014,0.205467 -3.436294,1.81944 -3.436294,3.79922 0,0.702814 0.203545,1.352821 0.53383,1.920256 H 23.373684 21.421746 21.263333 v -0.985093 h 3.840506 c 0.529989,0 0.960129,-0.429175 0.960129,-0.960126 0,-0.53095 -0.43014,-0.960128 -0.960129,-0.960128 h -3.840514 -0.562632 l 6.720886,-6.720885 -1.759914,-1.759911 c -1.944256,-1.944258 -4.528918,-3.01576 -7.278719,-3.01576 -2.749803,0 -5.334464,1.070542 -7.278722,3.01576 L 9.3443134,30.30135 16.066161,37.022235 H 15.502565 11.66206 c -0.529993,0 -0.960127,0.429178 -0.960127,0.960128 0,0.530951 0.430134,0.960126 0.960127,0.960126 h 3.840505 v 0.985093 H 8.7816788 v -18.24241 h 0.9601269 c 2.8899813,0 5.4103123,-1.606292 6.7208873,-3.971085 1.310572,2.364793 3.830904,3.971085 6.720886,3.971085 2.889982,0 5.410315,-1.606292 6.720889,-3.971085 1.310573,2.364793 3.830905,3.971085 6.720886,3.971085 2.889982,0 5.410315,-1.606292 6.720888,-3.971085 1.310571,2.364793 3.830905,3.971085 6.720886,3.971085 h 0.960127 z M 37.585479,38.007326 c 0,-1.059019 0.861236,-1.920251 1.920254,-1.920251 1.05902,0 1.920254,0.861232 1.920254,1.920251 0,1.059021 -0.861234,1.920256 -1.920254,1.920256 -1.059018,0 -1.920254,-0.862195 -1.920254,-1.920256 z m 4.800635,-3.840505 c -1.059019,0 -1.920253,-0.861236 -1.920253,-1.920255 0,-1.059019 0.861234,-1.920255 1.920253,-1.920255 1.059022,0 1.920254,0.861236 1.920254,1.920255 0,1.059019 -0.861232,1.920255 -1.920254,1.920255 z m 0.960128,3.840505 c 0,-1.059019 0.861232,-1.920251 1.920253,-1.920251 1.05902,0 1.920254,0.861232 1.920254,1.920251 0,1.059021 -0.861234,1.920256 -1.920254,1.920256 -1.059021,0 -1.920253,-0.862195 -1.920253,-1.920256 z M 17.42282,38.941529 h 0.564553 l 0.396533,0.396532 0.396533,-0.396532 h 0.562635 v 0.96013 H 17.42282 Z m 0.960126,-9.601266 c -0.529991,0 -0.960126,0.429177 -0.960126,0.960125 v 5.36327 l -5.363269,-5.36327 0.402292,-0.402293 c 1.581329,-1.581325 3.684008,-2.453124 5.921103,-2.453124 2.237097,0 4.339772,0.870838 5.921101,2.453124 l 0.402292,0.402293 -5.363265,5.36135 v -5.36135 c 0,-0.529988 -0.430138,-0.960125 -0.960128,-0.960125 z M 42.386114,14.004158 c 0,3.17706 -2.583701,5.76076 -5.76076,5.76076 -3.17706,0 -5.760761,-2.5837 -5.760761,-5.76076 V 13.044031 H 42.386114 Z M 30.864593,11.123779 V 2.4835977 c 5.291259,0.075849 9.849942,3.6235177 11.273807,8.6401813 z m -1.920254,0 H 17.670531 C 19.0944,6.1071154 23.653082,2.5594477 28.944339,2.4835977 Z m 0,1.920252 v 0.960127 c 0,3.17706 -2.583702,5.76076 -5.76076,5.76076 -3.177061,0 -5.760759,-2.5837 -5.760759,-5.76076 V 13.044031 Z M 4.941171,20.649196 c 0.00854,0.0049 0.018255,0.0085 0.026883,0.01342 0.5808762,0.334122 1.2097611,0.591436 1.8722452,0.76426 0.0067,0.002 0.013422,0.0049 0.020172,0.0067 V 39.927582 H 4.9402123 V 20.649196 Z m 51.846846,-6.645038 c 0,1.574606 -0.635605,3.001357 -1.662941,4.042135 -0.196826,0.199707 -0.408055,0.378288 -0.627922,0.54439 -0.0432,0.03266 -0.08544,0.06528 -0.129635,0.09697 -0.22371,0.159384 -0.456059,0.304362 -0.698013,0.429177 -0.03073,0.01632 -0.06241,0.02977 -0.09314,0.04512 -0.537672,0.264994 -1.115666,0.448378 -1.725349,0.53575 l -0.264994,0.03841 c -0.184346,0.01825 -0.370608,0.02784 -0.558792,0.02784 h -0.960114 c -3.17706,0 -5.76076,-2.5837 -5.76076,-5.760761 V 13.043082 H 44.49647 56.788013 Z M 45.198326,2.5210426 c 5.151081,0.3648475 9.566702,3.7761795 11.255566,8.6027364 H 44.306368 44.111462 C 43.210863,7.4100073 40.855673,4.336641 37.716058,2.4826375 h 6.568227 z m -29.672717,-0.03842 h 6.568225 C 18.95422,4.3366253 16.599031,7.4099902 15.698432,11.123763 H 15.502565 3.355043 C 5.1447166,6.0024462 10.018322,2.4931826 15.525609,2.4826226 Z M 4.6723365,56.249725 3.3924863,52.409219 H 19.610947 l 1.27985,3.840506 z m 18.2424065,0 -1.279847,-3.840506 h 16.538183 l -1.27985,3.840506 z m 16.002434,0 1.279848,-3.840506 h 16.218462 l -1.27985,3.840506 z"
   id="path2"
   inkscape:connector-curvature="0"
   style="stroke-width:0.96012664" />
	<circle
   cx="24.143707"
   cy="44.728214"
   r="0.96012664"
   id="circle4"
   style="stroke-width:0.96012664" />
	<circle
   cx="29.90447"
   cy="44.728214"
   r="0.96012664"
   id="circle6"
   style="stroke-width:0.96012664" />
	<circle
   cx="18.38295"
   cy="44.728214"
   r="0.96012664"
   id="circle8"
   style="stroke-width:0.96012664" />
	<circle
   cx="6.8614235"
   cy="44.728214"
   r="0.96012664"
   id="circle10"
   style="stroke-width:0.96012664" />
	<circle
   cx="12.622184"
   cy="44.728214"
   r="0.96012664"
   id="circle12"
   style="stroke-width:0.96012664" />
	<circle
   cx="52.947506"
   cy="44.728214"
   r="0.96012664"
   id="circle14"
   style="stroke-width:0.96012664" />
	<circle
   cx="47.186741"
   cy="44.728214"
   r="0.96012664"
   id="circle16"
   style="stroke-width:0.96012664" />
	<circle
   cx="35.66523"
   cy="44.728214"
   r="0.96012664"
   id="circle18"
   style="stroke-width:0.96012664" />
	<circle
   cx="41.425995"
   cy="44.728214"
   r="0.96012664"
   id="circle20"
   style="stroke-width:0.96012664" />
	<circle
   cx="27.024086"
   cy="47.608604"
   r="0.96012664"
   id="circle22"
   style="stroke-width:0.96012664" />
	<circle
   cx="9.741806"
   cy="47.608604"
   r="0.96012664"
   id="circle24"
   style="stroke-width:0.96012664" />
	<circle
   cx="15.502566"
   cy="47.608604"
   r="0.96012664"
   id="circle26"
   style="stroke-width:0.96012664" />
	<circle
   cx="50.067127"
   cy="47.608604"
   r="0.96012664"
   id="circle28"
   style="stroke-width:0.96012664" />
	<circle
   cx="32.784843"
   cy="47.608604"
   r="0.96012664"
   id="circle30"
   style="stroke-width:0.96012664" />
	<circle
   cx="44.306362"
   cy="47.608604"
   r="0.96012664"
   id="circle32"
   style="stroke-width:0.96012664" />
<circle
   style="opacity:1;fill:#ffff00;fill-opacity:1;stroke:none;stroke-width:5.44323874"
   id="path4733"
   cx="42.408848"
   cy="32.325378"
   r="2.2029119" /><circle
   style="opacity:1;fill:#ff0000;fill-opacity:1;stroke:none;stroke-width:5.44323874"
   id="path4735"
   cx="39.514835"
   cy="37.983833"
   r="2.332495" /><circle
   style="opacity:1;fill:#008000;fill-opacity:1;stroke:none;stroke-width:5.44323874"
   id="path4737"
   cx="45.173279"
   cy="38.113426"
   r="2.2029119" /></g>
<g
   id="g36">
</g>
<g
   id="g38">
</g>
<g
   id="g40">
</g>
<g
   id="g42">
</g>
<g
   id="g44">
</g>
<g
   id="g46">
</g>
<g
   id="g48">
</g>
<g
   id="g50">
</g>
<g
   id="g52">
</g>
<g
   id="g54">
</g>
<g
   id="g56">
</g>
<g
   id="g58">
</g>
<g
   id="g60">
</g>
<g
   id="g62">
</g>
<g
   id="g64">
</g>
</svg>