<?xml version="1.0" encoding="UTF-8" standalone="no"?>
<!-- Generator: Adobe Illustrator 19.0.0, SVG Export Plug-In . SVG Version: 6.00 Build 0)  -->

<svg
   xmlns:dc="http://purl.org/dc/elements/1.1/"
   xmlns:cc="http://creativecommons.org/ns#"
   xmlns:rdf="http://www.w3.org/1999/02/22-rdf-syntax-ns#"
   xmlns:svg="http://www.w3.org/2000/svg"
   xmlns="http://www.w3.org/2000/svg"
   xmlns:sodipodi="http://sodipodi.sourceforge.net/DTD/sodipodi-0.dtd"
   xmlns:inkscape="http://www.inkscape.org/namespaces/inkscape"
   version="1.1"
   id="Layer_1"
   x="0px"
   y="0px"
   viewBox="0 0 511.98 511.98"
   style="enable-background:new 0 0 511.98 511.98;"
   xml:space="preserve"
   sodipodi:docname="sword.svg"
   inkscape:version="0.92.1 r15371"><metadata
   id="metadata49"><rdf:RDF><cc:Work
       rdf:about=""><dc:format>image/svg+xml</dc:format><dc:type
         rdf:resource="http://purl.org/dc/dcmitype/StillImage" /></cc:Work></rdf:RDF></metadata><defs
   id="defs47" /><sodipodi:namedview
   pagecolor="#ffffff"
   bordercolor="#666666"
   borderopacity="1"
   objecttolerance="10"
   gridtolerance="10"
   guidetolerance="10"
   inkscape:pageopacity="0"
   inkscape:pageshadow="2"
   inkscape:window-width="1366"
   inkscape:window-height="705"
   id="namedview45"
   showgrid="false"
   inkscape:zoom="0.65188951"
   inkscape:cx="216.36536"
   inkscape:cy="120.99178"
   inkscape:window-x="-8"
   inkscape:window-y="-8"
   inkscape:window-maximized="1"
   inkscape:current-layer="Layer_1" />






<circle
   style="opacity:1;fill:#1abc9c;fill-opacity:1;stroke:none;stroke-width:12.57525063"
   id="path4645"
   cx="255.64433"
   cy="256.38333"
   r="180.24527" /><g
   id="g14">
</g>
<g
   id="g16">
</g>
<g
   id="g18">
</g>
<g
   id="g20">
</g>
<g
   id="g22">
</g>
<g
   id="g24">
</g>
<g
   id="g26">
</g>
<g
   id="g28">
</g>
<g
   id="g30">
</g>
<g
   id="g32">
</g>
<g
   id="g34">
</g>
<g
   id="g36">
</g>
<g
   id="g38">
</g>
<g
   id="g40">
</g>
<g
   id="g42">
</g>
<g
   id="g4696"><g
     id="g4678"><g
       id="g4589"
       transform="matrix(1.1164947,0,0,1.1164947,-29.915878,-27.832256)"><path
         sodipodi:nodetypes="ccccc"
         inkscape:connector-curvature="0"
         id="path4551"
         d="M 344.48508,304.27125 167.00324,349.30377 V 288.12401 L 343.02942,240.95794 Z"
         style="fill:#be9a0b;fill-opacity:1;stroke:#000000;stroke-width:10.09439468;stroke-linecap:butt;stroke-linejoin:miter;stroke-opacity:1" /><g
         transform="matrix(-0.44611342,0.44611342,-0.44611342,-0.44611342,484.16321,250.37832)"
         id="g4532"><polygon
           style="fill:#e6e9ed"
           points="488.637,85.324 503.325,14.671 419.983,31.998 153.338,295.316 211.336,361.986 "
           id="polygon2" /><polygon
           style="fill:#ccd1d9"
           points="224.647,420.311 237.334,398.312 108.995,265.989 87.996,287.988 "
           id="polygon4" /><polygon
           style="fill:#ed5564"
           points="78.497,458.637 167.993,374.485 133.494,343.142 46.998,430.982 "
           id="polygon6" /><path
           inkscape:connector-curvature="0"
           style="fill:#ccd1d9"
           d="m 72.997,472.231 c 0,15.608 -12.656,28.249 -28.249,28.249 -15.593,0 -28.25,-12.641 -28.25,-28.249 0,-15.609 12.656,-28.25 28.25,-28.25 15.593,0 28.249,12.641 28.249,28.25 z"
           id="path8" /><path
           inkscape:connector-curvature="0"
           d="M 508.854,3.124 C 506.26,0.53 502.497,-0.563 498.918,0.28 l -78.404,18.062 c -1.953,0.438 -3.734,1.438 -5.156,2.844 L 148.244,288.301 118.089,258.13 c -2,-1.999 -4.718,-3.124 -7.546,-3.124 -2.828,0 -5.546,1.125 -7.546,3.124 l -22.624,22.624 c -4.156,4.172 -4.156,10.922 0,15.078 l 45.248,45.264 -85.637,85.637 c -10.39,0.656 -20.062,4.984 -27.483,12.405 -8.062,8.062 -12.5,18.781 -12.5,30.172 0,11.39 4.438,22.108 12.5,30.171 8.062,8.062 18.765,12.499 30.155,12.499 11.405,0 22.124,-4.438 30.186,-12.499 7.625,-7.625 11.75,-17.453 12.375,-27.468 l 47.951,-47.951 c 0,0 0,0 0.016,-0.016 l 30.155,-30.155 v 0 l 7.531,-7.531 45.264,45.248 c 2,2 4.703,3.125 7.547,3.125 2.828,0 5.531,-1.125 7.531,-3.125 l 22.624,-22.624 c 4.187,-4.172 4.187,-10.937 0,-15.093 l -30.155,-30.17 267.113,-267.1 c 1.406,-1.422 2.406,-3.219 2.844,-5.156 l 18.061,-78.403 c 0.843,-3.594 -0.251,-7.344 -2.845,-9.938 z m -387.64,402.734 h -30.17 l 8.828,-8.843 h 30.171 z m -48.373,33.279 c -2.594,-2.577 -5.438,-4.78 -8.5,-6.593 l 5.375,-5.359 h 30.155 l -20.452,20.452 c -1.797,-3.031 -3.985,-5.89 -6.578,-8.5 z m -15.094,45.249 c -4.031,4.031 -9.375,6.25 -15.093,6.25 -5.688,0 -11.047,-2.219 -15.078,-6.25 -4.016,-4.016 -6.25,-9.374 -6.25,-15.077 0,-5.703 2.234,-11.047 6.25,-15.078 4.031,-4.031 9.39,-6.25 15.078,-6.25 5.718,0 11.062,2.219 15.093,6.25 8.312,8.313 8.312,21.843 0,30.155 z m 93.622,-108.714 h -30.155 l 19.5,-19.498 15.093,15.093 z m 72.309,33.311 -45.248,-45.263 v 0 0 l -75.435,-75.42 7.546,-7.547 30.171,30.171 60.341,60.342 v 0 l 30.155,30.171 z M 473.544,83.684 208.586,348.642 193.508,333.549 379.202,147.869 c 4.156,-4.156 4.156,-10.922 0,-15.094 -4.188,-4.156 -10.936,-4.156 -15.092,0 L 178.43,318.471 163.337,303.394 428.296,38.436 487.091,24.89 Z"
           id="path10" /><path
           inkscape:connector-curvature="0"
           d="m 42.655,458.637 c -5.875,0 -10.656,4.781 -10.656,10.672 0,5.891 4.781,10.671 10.656,10.671 5.906,0 10.687,-4.78 10.687,-10.671 0,-5.891 -4.782,-10.672 -10.687,-10.672 z"
           id="path12" /></g><path
         sodipodi:nodetypes="cccccc"
         inkscape:connector-curvature="0"
         id="path4534"
         d="m 59.386885,165.51124 285.098195,73.86822 v 62.36819 L 57.384995,224.81942 85.927515,202.69041 Z"
         style="fill:#f1c40f;fill-opacity:1;stroke:#000000;stroke-width:10.09439468;stroke-linecap:butt;stroke-linejoin:miter;stroke-opacity:1" /><path
         sodipodi:nodetypes="cccccc"
         inkscape:connector-curvature="0"
         id="path4534-3"
         d="M 452.10141,425.69559 167.00324,351.82737 v -61.10639 l 287.10007,75.66643 -28.54252,22.12902 z"
         style="fill:#f1c40f;fill-opacity:1;stroke:#000000;stroke-width:10.09439468;stroke-linecap:butt;stroke-linejoin:miter;stroke-opacity:1" /><text
         transform="rotate(15.432021)"
         id="text4555"
         y="188.49794"
         x="201.99974"
         style="font-style:normal;font-variant:normal;font-weight:normal;font-stretch:normal;font-size:51.32275772px;line-height:1.25;font-family:Calligraffitti;-inkscape-font-specification:Calligraffitti;letter-spacing:0px;word-spacing:0px;fill:#000000;fill-opacity:1;stroke:none;stroke-width:1.37471676"
         xml:space="preserve"><tspan
           style="font-style:normal;font-variant:normal;font-weight:normal;font-stretch:normal;font-family:'Old English Text MT';-inkscape-font-specification:'Old English Text MT';stroke-width:1.37471676"
           y="188.49794"
           x="201.99974"
           id="tspan4553"
           sodipodi:role="line">Bom</tspan></text>
<text
         transform="rotate(15)"
         id="text4555-0"
         y="281.29523"
         x="309.18033"
         style="font-style:normal;font-variant:normal;font-weight:normal;font-stretch:normal;font-size:50.1713562px;line-height:1.25;font-family:Calligraffitti;-inkscape-font-specification:Calligraffitti;letter-spacing:0px;word-spacing:0px;fill:#000000;fill-opacity:1;stroke:none;stroke-width:1.34387553"
         xml:space="preserve"><tspan
           style="font-style:normal;font-variant:normal;font-weight:normal;font-stretch:normal;font-family:'Old English Text MT';-inkscape-font-specification:'Old English Text MT';stroke-width:1.34387553"
           y="281.29523"
           x="309.18033"
           id="tspan4553-5"
           sodipodi:role="line">trabalho!</tspan></text>
</g></g></g></svg>