<?xml version="1.0" encoding="UTF-8" standalone="no"?>
<!-- Generator: Adobe Illustrator 19.0.0, SVG Export Plug-In . SVG Version: 6.00 Build 0)  -->

<svg
   xmlns:dc="http://purl.org/dc/elements/1.1/"
   xmlns:cc="http://creativecommons.org/ns#"
   xmlns:rdf="http://www.w3.org/1999/02/22-rdf-syntax-ns#"
   xmlns:svg="http://www.w3.org/2000/svg"
   xmlns="http://www.w3.org/2000/svg"
   xmlns:sodipodi="http://sodipodi.sourceforge.net/DTD/sodipodi-0.dtd"
   xmlns:inkscape="http://www.inkscape.org/namespaces/inkscape"
   version="1.1"
   id="Layer_1"
   x="0px"
   y="0px"
   viewBox="0 0 400.00001 400.00001"
   xml:space="preserve"
   sodipodi:docname="xp.svg"
   inkscape:version="0.92.1 r15371"
   width="400"
   height="400"><metadata
   id="metadata71"><rdf:RDF><cc:Work
       rdf:about=""><dc:format>image/svg+xml</dc:format><dc:type
         rdf:resource="http://purl.org/dc/dcmitype/StillImage" /><dc:title></dc:title></cc:Work></rdf:RDF></metadata><defs
   id="defs69" /><sodipodi:namedview
   pagecolor="#ffffff"
   bordercolor="#666666"
   borderopacity="1"
   objecttolerance="10"
   gridtolerance="10"
   guidetolerance="10"
   inkscape:pageopacity="0"
   inkscape:pageshadow="2"
   inkscape:window-width="1366"
   inkscape:window-height="705"
   id="namedview67"
   showgrid="false"
   inkscape:zoom="0.92187682"
   inkscape:cx="122.75351"
   inkscape:cy="189.29901"
   inkscape:window-x="-8"
   inkscape:window-y="-8"
   inkscape:window-maximized="1"
   inkscape:current-layer="Layer_1" />













<g
   id="g36"
   transform="translate(0,-111.99901)">
</g>
<g
   id="g38"
   transform="translate(0,-111.99901)">
</g>
<g
   id="g40"
   transform="translate(0,-111.99901)">
</g>
<g
   id="g42"
   transform="translate(0,-111.99901)">
</g>
<g
   id="g44"
   transform="translate(0,-111.99901)">
</g>
<g
   id="g46"
   transform="translate(0,-111.99901)">
</g>
<g
   id="g48"
   transform="translate(0,-111.99901)">
</g>
<g
   id="g50"
   transform="translate(0,-111.99901)">
</g>
<g
   id="g52"
   transform="translate(0,-111.99901)">
</g>
<g
   id="g54"
   transform="translate(0,-111.99901)">
</g>
<g
   id="g56"
   transform="translate(0,-111.99901)">
</g>
<g
   id="g58"
   transform="translate(0,-111.99901)">
</g>
<g
   id="g60"
   transform="translate(0,-111.99901)">
</g>
<g
   id="g62"
   transform="translate(0,-111.99901)">
</g>
<g
   id="g64"
   transform="translate(0,-111.99901)">
</g>

<g
   aria-label="XP"
   transform="scale(0.97772336,1.0227842)"
   style="font-style:normal;font-variant:normal;font-weight:normal;font-stretch:normal;font-size:298.99765015px;line-height:1.25;font-family:Calligraffitti;-inkscape-font-specification:Calligraffitti;letter-spacing:0px;word-spacing:0px;fill:#000000;fill-opacity:1;stroke:#000000;stroke-width:17.43937683"
   id="text4502"><path
     d="M 14.229326,304.84079 87.372794,193.15466 21.091089,90.812198 H 71.60534 l 42.92251,68.763622 42.04655,-68.763622 h 50.07627 l -66.5737,103.948402 73.14347,110.08019 h -52.1202 l -47.44836,-74.01944 -47.594348,74.01944 z"
     style="font-style:normal;font-variant:normal;font-weight:bold;font-stretch:normal;font-family:Arial;-inkscape-font-specification:'Arial Bold';stroke:#000000;stroke-width:17.43937683"
     id="path4512" /><path
     d="M 235.70366,304.84079 V 90.812198 h 69.3476 q 39.41863,0 51.39022,3.211889 18.39536,4.817833 30.80493,21.023273 12.40957,16.05944 12.40957,41.60856 0,19.70932 -7.15375,33.14085 -7.15375,13.43154 -18.24937,21.16927 -10.94962,7.59174 -22.33722,10.07365 -15.47547,3.06589 -44.82045,3.06589 h -28.17703 v 80.73521 z m 43.2145,-177.82184 v 60.73389 h 23.65118 q 25.54912,0 34.16282,-3.35788 8.6137,-3.35788 13.43154,-10.51164 4.96382,-7.15375 4.96382,-16.64342 0,-11.6796 -6.86176,-19.27133 -6.86176,-7.59174 -17.3734,-9.48968 -7.73773,-1.45994 -31.09692,-1.45994 z"
     style="font-style:normal;font-variant:normal;font-weight:bold;font-stretch:normal;font-family:Arial;-inkscape-font-specification:'Arial Bold';stroke:#000000;stroke-width:17.43937683"
     id="path4514" /></g></svg>