<?xml version="1.0" encoding="UTF-8" standalone="no"?>
<!-- Created with Inkscape (http://www.inkscape.org/) -->

<svg
   xmlns:dc="http://purl.org/dc/elements/1.1/"
   xmlns:cc="http://creativecommons.org/ns#"
   xmlns:rdf="http://www.w3.org/1999/02/22-rdf-syntax-ns#"
   xmlns:svg="http://www.w3.org/2000/svg"
   xmlns="http://www.w3.org/2000/svg"
   xmlns:sodipodi="http://sodipodi.sourceforge.net/DTD/sodipodi-0.dtd"
   xmlns:inkscape="http://www.inkscape.org/namespaces/inkscape"
   width="518"
   height="477"
   viewBox="0 0 137.05417 126.20625"
   version="1.1"
   id="svg8"
   inkscape:version="0.92.1 r15371"
   sodipodi:docname="extensao.svg">
  <defs
     id="defs2">
    <clipPath
       id="clipPath30"
       clipPathUnits="userSpaceOnUse">
      <path
         inkscape:connector-curvature="0"
         id="path28"
         d="M 0,800 H 800 V 0 H 0 Z" />
    </clipPath>
    <clipPath
       id="clipPath70"
       clipPathUnits="userSpaceOnUse">
      <path
         inkscape:connector-curvature="0"
         id="path68"
         d="M 0,800 H 800 V 0 H 0 Z" />
    </clipPath>
    <clipPath
       id="clipPath86"
       clipPathUnits="userSpaceOnUse">
      <path
         inkscape:connector-curvature="0"
         id="path84"
         d="M 0,800 H 800 V 0 H 0 Z" />
    </clipPath>
  </defs>
  <sodipodi:namedview
     id="base"
     pagecolor="#ffffff"
     bordercolor="#666666"
     borderopacity="1.0"
     inkscape:pageopacity="0.0"
     inkscape:pageshadow="2"
     inkscape:zoom="0.35"
     inkscape:cx="24.285714"
     inkscape:cy="560"
     inkscape:document-units="mm"
     inkscape:current-layer="layer1"
     showgrid="false"
     inkscape:window-width="1600"
     inkscape:window-height="837"
     inkscape:window-x="-8"
     inkscape:window-y="-8"
     inkscape:window-maximized="1"
     units="px" />
  <metadata
     id="metadata5">
    <rdf:RDF>
      <cc:Work
         rdf:about="">
        <dc:format>image/svg+xml</dc:format>
        <dc:type
           rdf:resource="http://purl.org/dc/dcmitype/StillImage" />
        <dc:title></dc:title>
      </cc:Work>
    </rdf:RDF>
  </metadata>
  <g
     inkscape:label="Camada 1"
     inkscape:groupmode="layer"
     id="layer1"
     transform="translate(0,-170.79372)">
    <g
       id="g24"
       transform="matrix(0.30615522,0,0,-0.30615522,-53.24389,390.09238)">
      <g
         id="g26"
         clip-path="url(#clipPath30)">
        <g
           id="g32"
           transform="translate(580.2814,464.5573)">
          <path
             d="m 0,0 c -5.142,5.142 -12.791,6.561 -20.25,4.529 l 40.39,40.39 -41.466,41.465 c 2.725,-7.96 1.508,-16.365 -4.011,-21.883 -8.308,-8.309 -23.166,-6.922 -33.185,3.097 -10.019,10.019 -11.406,24.877 -3.097,33.185 5.518,5.519 13.923,6.736 21.883,4.011 l -41.465,41.466 -40.41,-40.41 c 7.469,2.045 15.133,0.628 20.282,-4.521 8.309,-8.309 6.922,-23.166 -3.097,-33.186 -10.019,-10.019 -24.877,-11.405 -33.185,-3.097 -5.15,5.149 -6.567,12.813 -4.522,20.283 l -40.41,-40.41 101.342,-101.342 40.39,40.39 c -2.033,-7.459 -0.613,-15.108 4.528,-20.25 8.309,-8.308 23.167,-6.922 33.186,3.098 C 6.922,-23.166 8.309,-8.309 0,0"
             style="fill:#2db060;fill-opacity:1;fill-rule:nonzero;stroke:none"
             id="path34"
             inkscape:connector-curvature="0" />
        </g>
        <g
           id="g36"
           transform="translate(296.4048,610.7997)">
          <path
             d="m 0,0 -40.701,-40.701 c 2.052,7.474 0.636,15.146 -4.517,20.299 -8.309,8.309 -23.167,6.922 -33.186,-3.097 -10.019,-10.019 -11.406,-24.877 -3.097,-33.186 5.153,-5.153 12.825,-6.569 20.299,-4.517 l -40.139,-40.139 41.465,-41.466 c -2.724,7.96 -1.507,16.365 4.011,21.884 8.309,8.308 23.166,6.922 33.186,-3.098 10.019,-10.019 11.406,-24.876 3.097,-33.185 -5.519,-5.519 -13.924,-6.735 -21.884,-4.011 L 0,-202.683 101.341,-101.341 Z"
             style="fill:#ff4300;fill-opacity:1;fill-rule:nonzero;stroke:none"
             id="path38"
             inkscape:connector-curvature="0" />
        </g>
        <g
           id="g40"
           transform="translate(478.9525,565.8862)">
          <path
             d="m 0,0 c -5.142,5.142 -12.791,6.561 -20.25,4.529 l 40.39,40.39 -40.39,40.39 c 7.459,-2.033 15.108,-0.613 20.25,4.528 8.309,8.309 6.922,23.166 -3.097,33.186 -10.019,10.019 -24.877,11.406 -33.186,3.097 -5.141,-5.142 -6.561,-12.791 -4.528,-20.25 l -40.39,40.39 -101.342,-101.341 40.39,-40.39 c -7.459,2.032 -15.108,0.613 -20.25,-4.529 -8.308,-8.309 -6.921,-23.166 3.098,-33.185 10.019,-10.02 24.877,-11.406 33.185,-3.098 5.142,5.142 6.561,12.791 4.529,20.25 l 40.39,-40.39 40.39,40.39 c -2.033,-7.459 -0.613,-15.108 4.528,-20.25 8.309,-8.308 23.167,-6.922 33.186,3.098 C 6.922,-23.166 8.309,-8.309 0,0"
             style="fill:#ffcc34;fill-opacity:1;fill-rule:nonzero;stroke:none"
             id="path42"
             inkscape:connector-curvature="0" />
        </g>
        <g
           id="g44"
           transform="translate(453.5984,388.5475)">
          <path
             d="m 0,0 c 5.519,-5.518 6.735,-13.923 4.011,-21.883 l 41.466,41.465 -40.39,40.39 c 7.459,-2.032 15.108,-0.613 20.25,4.529 8.308,8.308 6.922,23.166 -3.098,33.185 -10.019,10.019 -24.876,11.406 -33.185,3.097 -5.142,-5.141 -6.561,-12.791 -4.529,-20.25 l -40.39,40.39 -40.361,-40.361 c 2.014,7.444 0.591,15.073 -4.54,20.204 -8.308,8.308 -23.166,6.922 -33.185,-3.097 -10.019,-10.02 -11.406,-24.877 -3.097,-33.186 5.131,-5.131 12.759,-6.553 20.203,-4.539 l -40.361,-40.362 42.039,-42.039 c -8.209,3.118 -17.027,1.992 -22.744,-3.725 -8.309,-8.308 -6.922,-23.166 3.097,-33.185 10.019,-10.019 24.877,-11.406 33.185,-3.097 5.718,5.717 6.843,14.535 3.725,22.744 l 42.039,-42.039 41.466,41.465 c -7.96,-2.724 -16.365,-1.507 -21.884,4.011 -8.308,8.309 -6.922,23.167 3.098,33.186 C -23.166,6.922 -8.309,8.309 0,0"
             style="fill:#006af9;fill-opacity:1;fill-rule:nonzero;stroke:none"
             id="path46"
             inkscape:connector-curvature="0" />
        </g>
      </g>
    </g>
  </g>
</svg>
