<?xml version="1.0" encoding="UTF-8" standalone="no"?>
<!-- Created with Inkscape (http://www.inkscape.org/) -->

<svg
   xmlns:dc="http://purl.org/dc/elements/1.1/"
   xmlns:cc="http://creativecommons.org/ns#"
   xmlns:rdf="http://www.w3.org/1999/02/22-rdf-syntax-ns#"
   xmlns:svg="http://www.w3.org/2000/svg"
   xmlns="http://www.w3.org/2000/svg"
   xmlns:sodipodi="http://sodipodi.sourceforge.net/DTD/sodipodi-0.dtd"
   xmlns:inkscape="http://www.inkscape.org/namespaces/inkscape"
   width="518"
   height="477"
   viewBox="0 0 137.05416 126.20625"
   version="1.1"
   id="svg8"
   sodipodi:docname="pesquisa.svg"
   inkscape:version="0.92.1 r15371">
  <defs
     id="defs2">
    <radialGradient
       id="radialGradient38"
       spreadMethod="pad"
       gradientTransform="matrix(593.16394,0,0,-593.16394,400,400)"
       gradientUnits="userSpaceOnUse"
       r="1"
       cy="0"
       cx="0"
       fy="0"
       fx="0">
      <stop
         id="stop32"
         offset="0"
         style="stop-opacity:1;stop-color:#48b7d9" />
      <stop
         id="stop34"
         offset="0.66830194"
         style="stop-opacity:1;stop-color:#48b7d9" />
      <stop
         id="stop36"
         offset="1"
         style="stop-opacity:1;stop-color:#586987" />
    </radialGradient>
    <clipPath
       id="clipPath48"
       clipPathUnits="userSpaceOnUse">
      <path
         inkscape:connector-curvature="0"
         id="path46"
         d="M 0,800 H 800 V 0 H 0 Z" />
    </clipPath>
    <clipPath
       id="clipPath56"
       clipPathUnits="userSpaceOnUse">
      <path
         inkscape:connector-curvature="0"
         id="path54"
         d="M 26.2939,238.992 H 762.703 V 139.713 H 26.2939 Z" />
    </clipPath>
    <clipPath
       id="clipPath60"
       clipPathUnits="userSpaceOnUse">
      <path
         inkscape:connector-curvature="0"
         id="path58"
         d="m 762.703,189.352 c 0,-27.415 -164.851,-49.639 -368.204,-49.639 -203.354,0 -368.205,22.224 -368.205,49.639 0,27.416 164.851,49.64 368.205,49.64 203.353,0 368.204,-22.224 368.204,-49.64" />
    </clipPath>
    <radialGradient
       id="radialGradient72"
       spreadMethod="pad"
       gradientTransform="matrix(359.9234,0,0,-45.05064,394.49854,189.35352)"
       gradientUnits="userSpaceOnUse"
       r="1"
       cy="0"
       cx="0"
       fy="0"
       fx="0">
      <stop
         id="stop66"
         offset="0"
         style="stop-opacity:1;stop-color:#ffffff" />
      <stop
         id="stop68"
         offset="0.30247482"
         style="stop-opacity:1;stop-color:#ffffff" />
      <stop
         id="stop70"
         offset="1"
         style="stop-opacity:0;stop-color:#ffffff" />
    </radialGradient>
    <mask
       id="mask74"
       height="1"
       width="1"
       y="0"
       x="0"
       maskUnits="userSpaceOnUse">
      <g
         id="g84">
        <g
           id="g82">
          <g
             id="g80">
            <g
               id="g78">
              <path
                 inkscape:connector-curvature="0"
                 id="path76"
                 style="fill:url(#radialGradient72);stroke:none"
                 d="M -32768,32767 H 32767 V -32768 H -32768 Z" />
            </g>
          </g>
        </g>
      </g>
    </mask>
    <radialGradient
       id="radialGradient92"
       spreadMethod="pad"
       gradientTransform="matrix(359.9234,0,0,-45.05064,394.49854,189.35352)"
       gradientUnits="userSpaceOnUse"
       r="1"
       cy="0"
       cx="0"
       fy="0"
       fx="0">
      <stop
         id="stop86"
         offset="0"
         style="stop-opacity:1;stop-color:#000000" />
      <stop
         id="stop88"
         offset="0.30247482"
         style="stop-opacity:1;stop-color:#000000" />
      <stop
         id="stop90"
         offset="1"
         style="stop-opacity:1;stop-color:#000000" />
    </radialGradient>
    <clipPath
       id="clipPath118"
       clipPathUnits="userSpaceOnUse">
      <path
         inkscape:connector-curvature="0"
         id="path116"
         d="M 565.496,193.91 H 786.234 V 149.037 H 565.496 Z" />
    </clipPath>
    <clipPath
       id="clipPath122"
       clipPathUnits="userSpaceOnUse">
      <path
         inkscape:connector-curvature="0"
         id="path120"
         d="m 786.234,171.473 c 0,-12.391 -49.414,-22.436 -110.369,-22.436 -60.955,0 -110.369,10.045 -110.369,22.436 0,12.392 49.414,22.437 110.369,22.437 60.955,0 110.369,-10.045 110.369,-22.437" />
    </clipPath>
    <radialGradient
       id="radialGradient134"
       spreadMethod="pad"
       gradientTransform="matrix(107.8872,0,0,-20.360027,675.86523,171.47363)"
       gradientUnits="userSpaceOnUse"
       r="1"
       cy="0"
       cx="0"
       fy="0"
       fx="0">
      <stop
         id="stop128"
         offset="0"
         style="stop-opacity:1;stop-color:#ffffff" />
      <stop
         id="stop130"
         offset="0.30247482"
         style="stop-opacity:1;stop-color:#ffffff" />
      <stop
         id="stop132"
         offset="1"
         style="stop-opacity:0;stop-color:#ffffff" />
    </radialGradient>
    <mask
       id="mask136"
       height="1"
       width="1"
       y="0"
       x="0"
       maskUnits="userSpaceOnUse">
      <g
         id="g146">
        <g
           id="g144">
          <g
             id="g142">
            <g
               id="g140">
              <path
                 inkscape:connector-curvature="0"
                 id="path138"
                 style="fill:url(#radialGradient134);stroke:none"
                 d="M -32768,32767 H 32767 V -32768 H -32768 Z" />
            </g>
          </g>
        </g>
      </g>
    </mask>
    <radialGradient
       id="radialGradient154"
       spreadMethod="pad"
       gradientTransform="matrix(107.8872,0,0,-20.360027,675.86523,171.47363)"
       gradientUnits="userSpaceOnUse"
       r="1"
       cy="0"
       cx="0"
       fy="0"
       fx="0">
      <stop
         id="stop148"
         offset="0"
         style="stop-opacity:1;stop-color:#000000" />
      <stop
         id="stop150"
         offset="0.30247482"
         style="stop-opacity:1;stop-color:#000000" />
      <stop
         id="stop152"
         offset="1"
         style="stop-opacity:1;stop-color:#000000" />
    </radialGradient>
    <clipPath
       id="clipPath260"
       clipPathUnits="userSpaceOnUse">
      <path
         inkscape:connector-curvature="0"
         id="path258"
         d="M 0,800 H 800 V 0 H 0 Z" />
    </clipPath>
    <clipPath
       id="clipPath288"
       clipPathUnits="userSpaceOnUse">
      <path
         inkscape:connector-curvature="0"
         id="path286"
         d="M 37.156,314.606 22.005,282.74 c -2.68,-5.635 -0.284,-12.375 5.35,-15.055 v 0 l 55.119,-26.204 c 5.635,-2.679 12.377,-0.284 15.055,5.351 v 0 l 15.15,31.867 c 2.679,5.635 0.283,12.377 -5.353,15.055 v 0 l -55.117,26.205 c -1.566,0.744 -3.216,1.096 -4.841,1.096 v 0 c -4.225,0 -8.279,-2.381 -10.212,-6.449" />
    </clipPath>
    <linearGradient
       id="linearGradient304"
       spreadMethod="pad"
       gradientTransform="matrix(75.523498,-35.909412,-35.909412,-75.523498,29.57959,298.67383)"
       gradientUnits="userSpaceOnUse"
       y2="0"
       x2="1"
       y1="0"
       x1="0">
      <stop
         id="stop298"
         offset="0"
         style="stop-opacity:1;stop-color:#ffffff" />
      <stop
         id="stop300"
         offset="0.84620983"
         style="stop-opacity:0;stop-color:#ffffff" />
      <stop
         id="stop302"
         offset="1"
         style="stop-opacity:0;stop-color:#ffffff" />
    </linearGradient>
    <mask
       id="mask306"
       height="1"
       width="1"
       y="0"
       x="0"
       maskUnits="userSpaceOnUse">
      <g
         id="g316">
        <g
           id="g314">
          <g
             id="g312">
            <g
               id="g310">
              <path
                 inkscape:connector-curvature="0"
                 id="path308"
                 style="fill:url(#linearGradient304);stroke:none"
                 d="M -32768,32767 H 32767 V -32768 H -32768 Z" />
            </g>
          </g>
        </g>
      </g>
    </mask>
    <linearGradient
       id="linearGradient328"
       spreadMethod="pad"
       gradientTransform="matrix(75.523498,-35.909412,-35.909412,-75.523498,29.57959,298.67383)"
       gradientUnits="userSpaceOnUse"
       y2="0"
       x2="1"
       y1="0"
       x1="0">
      <stop
         id="stop322"
         offset="0"
         style="stop-opacity:1;stop-color:#ffffff" />
      <stop
         id="stop324"
         offset="0.84620983"
         style="stop-opacity:1;stop-color:#ffffff" />
      <stop
         id="stop326"
         offset="1"
         style="stop-opacity:1;stop-color:#ffffff" />
    </linearGradient>
    <clipPath
       id="clipPath338"
       clipPathUnits="userSpaceOnUse">
      <path
         inkscape:connector-curvature="0"
         id="path336"
         d="M 131.051,269.965 115.9,238.098 c -2.678,-5.637 -0.282,-12.373 5.353,-15.055 v 0 L 176.37,196.84 c 5.635,-2.679 12.374,-0.284 15.054,5.351 v 0 l 15.15,31.868 c 2.679,5.633 0.284,12.373 -5.351,15.055 v 0 l -55.119,26.2 c -1.567,0.746 -3.219,1.099 -4.845,1.099 v 0 c -4.223,0 -8.274,-2.38 -10.208,-6.448" />
    </clipPath>
    <linearGradient
       id="linearGradient354"
       spreadMethod="pad"
       gradientTransform="matrix(75.523498,-35.909412,-35.909412,-75.523498,123.4751,254.03125)"
       gradientUnits="userSpaceOnUse"
       y2="0"
       x2="1"
       y1="0"
       x1="0">
      <stop
         id="stop348"
         offset="0"
         style="stop-opacity:1;stop-color:#ffffff" />
      <stop
         id="stop350"
         offset="0.84620983"
         style="stop-opacity:0;stop-color:#ffffff" />
      <stop
         id="stop352"
         offset="1"
         style="stop-opacity:0;stop-color:#ffffff" />
    </linearGradient>
    <mask
       id="mask356"
       height="1"
       width="1"
       y="0"
       x="0"
       maskUnits="userSpaceOnUse">
      <g
         id="g366">
        <g
           id="g364">
          <g
             id="g362">
            <g
               id="g360">
              <path
                 inkscape:connector-curvature="0"
                 id="path358"
                 style="fill:url(#linearGradient354);stroke:none"
                 d="M -32768,32767 H 32767 V -32768 H -32768 Z" />
            </g>
          </g>
        </g>
      </g>
    </mask>
    <linearGradient
       id="linearGradient378"
       spreadMethod="pad"
       gradientTransform="matrix(75.523498,-35.909412,-35.909412,-75.523498,123.4751,254.03125)"
       gradientUnits="userSpaceOnUse"
       y2="0"
       x2="1"
       y1="0"
       x1="0">
      <stop
         id="stop372"
         offset="0"
         style="stop-opacity:1;stop-color:#ffffff" />
      <stop
         id="stop374"
         offset="0.84620983"
         style="stop-opacity:1;stop-color:#ffffff" />
      <stop
         id="stop376"
         offset="1"
         style="stop-opacity:1;stop-color:#ffffff" />
    </linearGradient>
    <clipPath
       id="clipPath388"
       clipPathUnits="userSpaceOnUse">
      <path
         inkscape:connector-curvature="0"
         id="path386"
         d="M 0,800 H 800 V 0 H 0 Z" />
    </clipPath>
    <clipPath
       id="clipPath1078"
       clipPathUnits="userSpaceOnUse">
      <path
         inkscape:connector-curvature="0"
         id="path1076"
         d="M 535.766,493.862 H 559.09 V 245.088 h -23.324 z" />
    </clipPath>
    <clipPath
       id="clipPath1082"
       clipPathUnits="userSpaceOnUse">
      <path
         inkscape:connector-curvature="0"
         id="path1080"
         d="M 535.766,245.088 H 559.09 V 493.862 H 535.766 Z" />
    </clipPath>
    <linearGradient
       id="linearGradient1092"
       spreadMethod="pad"
       gradientTransform="matrix(-1.09e-5,-248.7749,-248.7749,1.09e-5,547.42773,493.8623)"
       gradientUnits="userSpaceOnUse"
       y2="0"
       x2="1"
       y1="0"
       x1="0">
      <stop
         id="stop1088"
         offset="0"
         style="stop-opacity:1;stop-color:#ffffff" />
      <stop
         id="stop1090"
         offset="1"
         style="stop-opacity:0;stop-color:#ffffff" />
    </linearGradient>
    <mask
       id="mask1094"
       height="1"
       width="1"
       y="0"
       x="0"
       maskUnits="userSpaceOnUse">
      <g
         id="g1104">
        <g
           id="g1102">
          <g
             id="g1100">
            <g
               id="g1098">
              <path
                 inkscape:connector-curvature="0"
                 id="path1096"
                 style="fill:url(#linearGradient1092);stroke:none"
                 d="M -32768,32767 H 32767 V -32768 H -32768 Z" />
            </g>
          </g>
        </g>
      </g>
    </mask>
    <linearGradient
       id="linearGradient1110"
       spreadMethod="pad"
       gradientTransform="matrix(-1.09e-5,-248.7749,-248.7749,1.09e-5,547.42773,493.8623)"
       gradientUnits="userSpaceOnUse"
       y2="0"
       x2="1"
       y1="0"
       x1="0">
      <stop
         id="stop1106"
         offset="0"
         style="stop-opacity:1;stop-color:#ffffff" />
      <stop
         id="stop1108"
         offset="1"
         style="stop-opacity:1;stop-color:#ffffff" />
    </linearGradient>
    <clipPath
       id="clipPath1136"
       clipPathUnits="userSpaceOnUse">
      <path
         inkscape:connector-curvature="0"
         id="path1134"
         d="m 511.965,493.862 h 12.637 V 245.088 h -12.637 z" />
    </clipPath>
    <clipPath
       id="clipPath1140"
       clipPathUnits="userSpaceOnUse">
      <path
         inkscape:connector-curvature="0"
         id="path1138"
         d="m 511.965,245.088 h 12.637 v 248.774 h -12.637 z" />
    </clipPath>
    <linearGradient
       id="linearGradient1150"
       spreadMethod="pad"
       gradientTransform="matrix(-1.09e-5,-248.7749,-248.7749,1.09e-5,518.2832,493.8623)"
       gradientUnits="userSpaceOnUse"
       y2="0"
       x2="1"
       y1="0"
       x1="0">
      <stop
         id="stop1146"
         offset="0"
         style="stop-opacity:1;stop-color:#ffffff" />
      <stop
         id="stop1148"
         offset="1"
         style="stop-opacity:0;stop-color:#ffffff" />
    </linearGradient>
    <mask
       id="mask1152"
       height="1"
       width="1"
       y="0"
       x="0"
       maskUnits="userSpaceOnUse">
      <g
         id="g1162">
        <g
           id="g1160">
          <g
             id="g1158">
            <g
               id="g1156">
              <path
                 inkscape:connector-curvature="0"
                 id="path1154"
                 style="fill:url(#linearGradient1150);stroke:none"
                 d="M -32768,32767 H 32767 V -32768 H -32768 Z" />
            </g>
          </g>
        </g>
      </g>
    </mask>
    <linearGradient
       id="linearGradient1168"
       spreadMethod="pad"
       gradientTransform="matrix(-1.09e-5,-248.7749,-248.7749,1.09e-5,518.2832,493.8623)"
       gradientUnits="userSpaceOnUse"
       y2="0"
       x2="1"
       y1="0"
       x1="0">
      <stop
         id="stop1164"
         offset="0"
         style="stop-opacity:1;stop-color:#ffffff" />
      <stop
         id="stop1166"
         offset="1"
         style="stop-opacity:1;stop-color:#ffffff" />
    </linearGradient>
    <clipPath
       id="clipPath1228"
       clipPathUnits="userSpaceOnUse">
      <path
         inkscape:connector-curvature="0"
         id="path1226"
         d="m 327.352,437.763 c -15.361,-15.361 -15.361,-40.267 0,-55.627 v 0 c 15.361,-15.361 40.266,-15.361 55.626,0 v 0 c 15.361,15.36 15.361,40.265 0,55.627 v 0 c -7.68,7.68 -17.746,11.52 -27.813,11.52 v 0 c -10.066,0 -20.133,-3.84 -27.813,-11.52" />
    </clipPath>
    <radialGradient
       id="radialGradient1244"
       spreadMethod="pad"
       gradientTransform="matrix(-33.244743,-33.244743,-33.244743,33.244743,355.16602,409.94971)"
       gradientUnits="userSpaceOnUse"
       r="1"
       cy="0"
       cx="0"
       fy="0.65740103"
       fx="-0.75354099">
      <stop
         id="stop1238"
         offset="0"
         style="stop-opacity:0;stop-color:#ffffff" />
      <stop
         id="stop1240"
         offset="0.79072186"
         style="stop-opacity:0;stop-color:#ffffff" />
      <stop
         id="stop1242"
         offset="1"
         style="stop-opacity:1;stop-color:#ffffff" />
    </radialGradient>
    <mask
       id="mask1246"
       height="1"
       width="1"
       y="0"
       x="0"
       maskUnits="userSpaceOnUse">
      <g
         id="g1256">
        <g
           id="g1254">
          <g
             id="g1252">
            <g
               id="g1250">
              <path
                 inkscape:connector-curvature="0"
                 id="path1248"
                 style="fill:url(#radialGradient1244);stroke:none"
                 d="M -32768,32767 H 32767 V -32768 H -32768 Z" />
            </g>
          </g>
        </g>
      </g>
    </mask>
    <radialGradient
       id="radialGradient1268"
       spreadMethod="pad"
       gradientTransform="matrix(-33.244743,-33.244743,-33.244743,33.244743,355.16602,409.94971)"
       gradientUnits="userSpaceOnUse"
       r="1"
       cy="0"
       cx="0"
       fy="0.65740103"
       fx="-0.75354099">
      <stop
         id="stop1262"
         offset="0"
         style="stop-opacity:1;stop-color:#ffffff" />
      <stop
         id="stop1264"
         offset="0.79072186"
         style="stop-opacity:1;stop-color:#ffffff" />
      <stop
         id="stop1266"
         offset="1"
         style="stop-opacity:1;stop-color:#ffffff" />
    </radialGradient>
    <clipPath
       id="clipPath1278"
       clipPathUnits="userSpaceOnUse">
      <path
         inkscape:connector-curvature="0"
         id="path1276"
         d="M 0,800 H 800 V 0 H 0 Z" />
    </clipPath>
    <clipPath
       id="clipPath1326"
       clipPathUnits="userSpaceOnUse">
      <path
         inkscape:connector-curvature="0"
         id="path1324"
         d="m 331.341,438.377 h 51.004 v -13.144 h -51.004 z" />
    </clipPath>
    <clipPath
       id="clipPath1366"
       clipPathUnits="userSpaceOnUse">
      <path
         inkscape:connector-curvature="0"
         id="path1364"
         d="M 0,800 H 800 V 0 H 0 Z" />
    </clipPath>
    <clipPath
       id="clipPath1374"
       clipPathUnits="userSpaceOnUse">
      <path
         inkscape:connector-curvature="0"
         id="path1372"
         d="M 606.422,414.358 H 766.796 V 277.17 H 606.422 Z" />
    </clipPath>
    <clipPath
       id="clipPath1378"
       clipPathUnits="userSpaceOnUse">
      <path
         inkscape:connector-curvature="0"
         id="path1376"
         d="m 741.096,277.17 c 0,31.144 26.023,20.086 25.697,53.59 -0.326,33.504 -28.391,37.082 -28.391,83.598 h -131.98 c 0,-46.516 28.064,-50.094 28.389,-83.598 0.326,-33.504 -25.698,-22.446 -25.698,-53.59 z" />
    </clipPath>
    <linearGradient
       id="linearGradient1390"
       spreadMethod="pad"
       gradientTransform="matrix(-7.1e-6,162.86134,162.86134,7.1e-6,686.60938,249.47949)"
       gradientUnits="userSpaceOnUse"
       y2="0"
       x2="1"
       y1="0"
       x1="0">
      <stop
         id="stop1384"
         offset="0"
         style="stop-opacity:1;stop-color:#ffffff" />
      <stop
         id="stop1386"
         offset="0.69471461"
         style="stop-opacity:0;stop-color:#ffffff" />
      <stop
         id="stop1388"
         offset="1"
         style="stop-opacity:0;stop-color:#ffffff" />
    </linearGradient>
    <mask
       id="mask1392"
       height="1"
       width="1"
       y="0"
       x="0"
       maskUnits="userSpaceOnUse">
      <g
         id="g1402">
        <g
           id="g1400">
          <g
             id="g1398">
            <g
               id="g1396">
              <path
                 inkscape:connector-curvature="0"
                 id="path1394"
                 style="fill:url(#linearGradient1390);stroke:none"
                 d="M -32768,32767 H 32767 V -32768 H -32768 Z" />
            </g>
          </g>
        </g>
      </g>
    </mask>
    <linearGradient
       id="linearGradient1410"
       spreadMethod="pad"
       gradientTransform="matrix(-7.1e-6,162.86134,162.86134,7.1e-6,686.60938,249.47949)"
       gradientUnits="userSpaceOnUse"
       y2="0"
       x2="1"
       y1="0"
       x1="0">
      <stop
         id="stop1404"
         offset="0"
         style="stop-opacity:1;stop-color:#ffffff" />
      <stop
         id="stop1406"
         offset="0.69471461"
         style="stop-opacity:1;stop-color:#ffffff" />
      <stop
         id="stop1408"
         offset="1"
         style="stop-opacity:1;stop-color:#ffffff" />
    </linearGradient>
  </defs>
  <sodipodi:namedview
     id="base"
     pagecolor="#ffffff"
     bordercolor="#666666"
     borderopacity="1.0"
     inkscape:pageopacity="0.0"
     inkscape:pageshadow="2"
     inkscape:zoom="0.7"
     inkscape:cx="424.17432"
     inkscape:cy="387.00993"
     inkscape:document-units="mm"
     inkscape:current-layer="layer1"
     showgrid="false"
     inkscape:window-width="1600"
     inkscape:window-height="837"
     inkscape:window-x="-8"
     inkscape:window-y="-8"
     inkscape:window-maximized="1"
     units="px" />
  <metadata
     id="metadata5">
    <rdf:RDF>
      <cc:Work
         rdf:about="">
        <dc:format>image/svg+xml</dc:format>
        <dc:type
           rdf:resource="http://purl.org/dc/dcmitype/StillImage" />
        <dc:title></dc:title>
      </cc:Work>
    </rdf:RDF>
  </metadata>
  <g
     inkscape:label="Camada 1"
     inkscape:groupmode="layer"
     id="layer1"
     transform="translate(0,-170.79373)">
    <g
       id="g3998"
       transform="matrix(0.59883029,0,0,0.59883029,8.9811932,93.272723)">
      <g
         transform="matrix(0.35277777,0,0,-0.35277777,174.19329,211.68266)"
         id="g406">
        <path
           inkscape:connector-curvature="0"
           id="path408"
           style="fill:#666666;fill-opacity:1;fill-rule:nonzero;stroke:none"
           d="M 0,0 1.424,2.771 3.26,1.827 1.834,-0.944 C 2.877,-1.976 3.191,-3.591 2.486,-4.962 1.781,-6.333 0.285,-7.016 -1.16,-6.769 l -1.426,-2.772 -1.834,0.943 1.424,2.773 c -1.041,1.031 -1.358,2.646 -0.652,4.018 C -2.943,-0.436 -1.447,0.246 0,0" />
      </g>
      <g
         transform="matrix(0.35277777,0,0,-0.35277777,166.42251,203.20944)"
         id="g414">
        <path
           inkscape:connector-curvature="0"
           id="path416"
           style="fill:#666666;fill-opacity:1;fill-rule:nonzero;stroke:none"
           d="m 0,0 -10.746,-6.923 -1.115,1.734 10.746,6.922 z" />
      </g>
      <g
         transform="matrix(0.35277777,0,0,-0.35277777,162.61156,191.96948)"
         id="g418">
        <path
           inkscape:connector-curvature="0"
           id="path420"
           style="fill:#666666;fill-opacity:1;fill-rule:nonzero;stroke:none"
           d="m 0,0 -12.766,-0.623 -0.101,2.061 12.769,0.62 z" />
      </g>
      <g
         transform="matrix(0.35277777,0,0,-0.35277777,161.25418,177.62102)"
         id="g422">
        <path
           inkscape:connector-curvature="0"
           id="path424"
           style="fill:#666666;fill-opacity:1;fill-rule:nonzero;stroke:none"
           d="m 0,0 2.953,-1.519 c 1.031,0.958 2.586,1.229 3.91,0.547 1.326,-0.681 2.01,-2.102 1.832,-3.5 l 2.672,-1.373 -0.943,-1.835 -2.59,1.332 C 6.809,-7.478 5.129,-7.837 3.709,-7.107 2.291,-6.378 1.605,-4.802 1.926,-3.312 l -2.871,1.477 z" />
      </g>
      <g
         transform="matrix(0.35277777,0,0,-0.35277777,58.857013,184.98557)"
         id="g690">
        <path
           inkscape:connector-curvature="0"
           id="path692"
           style="fill:#a35b5e;fill-opacity:1;fill-rule:nonzero;stroke:none"
           d="m 0,0 -15.004,-2.683 -2.683,15.004 15.005,2.682 z" />
      </g>
      <g
         transform="matrix(0.35277777,0,0,-0.35277777,58.857013,184.98557)"
         id="g694">
        <path
           inkscape:connector-curvature="0"
           id="path696"
           style="fill:none;stroke:#a47c52;stroke-width:1.08399999;stroke-linecap:butt;stroke-linejoin:miter;stroke-miterlimit:10;stroke-dasharray:none;stroke-opacity:1"
           d="m 0,0 -15.004,-2.683 -2.683,15.004 15.005,2.682 z" />
      </g>
      <g
         transform="matrix(0.35277777,0,0,-0.35277777,64.150055,184.03921)"
         id="g698">
        <path
           inkscape:connector-curvature="0"
           id="path700"
           style="fill:none;stroke:#a47c52;stroke-width:1.08399999;stroke-linecap:butt;stroke-linejoin:miter;stroke-miterlimit:10;stroke-dasharray:none;stroke-opacity:1"
           d="m 0,0 -15.004,-2.683 -2.682,15.003 15.003,2.683 z" />
      </g>
      <g
         transform="matrix(0.35277777,0,0,-0.35277777,69.443768,183.09285)"
         id="g702">
        <path
           inkscape:connector-curvature="0"
           id="path704"
           style="fill:none;stroke:#a47c52;stroke-width:1.08399999;stroke-linecap:butt;stroke-linejoin:miter;stroke-miterlimit:10;stroke-dasharray:none;stroke-opacity:1"
           d="m 0,0 -15.006,-2.683 -2.682,15.003 15.005,2.684 z" />
      </g>
      <g
         transform="matrix(0.35277777,0,0,-0.35277777,74.736493,182.14649)"
         id="g706">
        <path
           inkscape:connector-curvature="0"
           id="path708"
           style="fill:none;stroke:#a47c52;stroke-width:1.08399999;stroke-linecap:butt;stroke-linejoin:miter;stroke-miterlimit:10;stroke-dasharray:none;stroke-opacity:1"
           d="m 0,0 -15.003,-2.683 -2.683,15.004 15.003,2.682 z" />
      </g>
      <g
         transform="matrix(0.35277777,0,0,-0.35277777,141.40701,201.68328)"
         id="g838">
        <path
           inkscape:connector-curvature="0"
           id="path840"
           style="fill:#cacaca;fill-opacity:1;fill-rule:nonzero;stroke:none"
           d="M 0,0 84.725,20.299 84.861,19.729 0.137,-0.569 Z" />
      </g>
      <g
         transform="matrix(0.35277777,0,0,-0.35277777,140.79928,199.14734)"
         id="g842">
        <path
           inkscape:connector-curvature="0"
           id="path844"
           style="fill:#cacaca;fill-opacity:1;fill-rule:nonzero;stroke:none"
           d="M 0,0 84.725,20.299 84.861,19.729 0.137,-0.569 Z" />
      </g>
      <g
         transform="matrix(0.35277777,0,0,-0.35277777,140.19155,196.61175)"
         id="g846">
        <path
           inkscape:connector-curvature="0"
           id="path848"
           style="fill:#cacaca;fill-opacity:1;fill-rule:nonzero;stroke:none"
           d="M 0,0 84.725,20.3 84.861,19.731 0.137,-0.568 Z" />
      </g>
      <g
         transform="matrix(0.35277777,0,0,-0.35277777,139.58452,194.07546)"
         id="g850">
        <path
           inkscape:connector-curvature="0"
           id="path852"
           style="fill:#cacaca;fill-opacity:1;fill-rule:nonzero;stroke:none"
           d="M 0,0 84.723,20.299 84.859,19.729 0.137,-0.569 Z" />
      </g>
      <g
         transform="matrix(0.35277777,0,0,-0.35277777,138.97683,191.53955)"
         id="g854">
        <path
           inkscape:connector-curvature="0"
           id="path856"
           style="fill:#cacaca;fill-opacity:1;fill-rule:nonzero;stroke:none"
           d="M 0,0 84.725,20.299 84.859,19.729 0.135,-0.569 Z" />
      </g>
      <g
         transform="matrix(0.35277777,0,0,-0.35277777,138.3691,189.00396)"
         id="g858">
        <path
           inkscape:connector-curvature="0"
           id="path860"
           style="fill:#cacaca;fill-opacity:1;fill-rule:nonzero;stroke:none"
           d="M 0,0 84.725,20.3 84.861,19.73 0.137,-0.568 Z" />
      </g>
      <g
         transform="matrix(0.35277777,0,0,-0.35277777,137.7614,186.46766)"
         id="g862">
        <path
           inkscape:connector-curvature="0"
           id="path864"
           style="fill:#cacaca;fill-opacity:1;fill-rule:nonzero;stroke:none"
           d="M 0,0 84.725,20.299 84.861,19.729 0.137,-0.569 Z" />
      </g>
      <g
         transform="matrix(0.35277777,0,0,-0.35277777,137.15367,183.93172)"
         id="g866">
        <path
           inkscape:connector-curvature="0"
           id="path868"
           style="fill:#cacaca;fill-opacity:1;fill-rule:nonzero;stroke:none"
           d="M 0,0 84.725,20.298 84.861,19.729 0.137,-0.569 Z" />
      </g>
      <g
         transform="matrix(0.35277777,0,0,-0.35277777,161.56977,198.09416)"
         id="g942">
        <path
           inkscape:connector-curvature="0"
           id="path944"
           style="fill:#f9d5b8;fill-opacity:1;fill-rule:nonzero;stroke:none"
           d="M 0,0 -12.58,-15.703 -14.154,4.356 Z" />
      </g>
      <g
         transform="matrix(0.35277777,0,0,-0.35277777,156.98846,201.80351)"
         id="g946">
        <path
           inkscape:connector-curvature="0"
           id="path948"
           style="fill:#4d4d4d;fill-opacity:1;fill-rule:nonzero;stroke:none"
           d="m 0,0 0.406,-5.188 3.256,4.059 z" />
      </g>
      <g
         transform="matrix(0.35277777,0,0,-0.35277777,177.65835,285.44042)"
         id="g1050">
        <path
           inkscape:connector-curvature="0"
           id="path1052"
           style="fill:#666666;fill-opacity:1;fill-rule:nonzero;stroke:none"
           d="m 0,0 c 0,-11.885 -9.629,-21.516 -21.514,-21.516 h -400.43 c -11.881,0 -21.517,9.631 -21.517,21.516 v 286.862 c 0,11.881 9.636,21.517 21.517,21.517 h 400.43 C -9.629,308.379 0,298.743 0,286.862 Z" />
      </g>
      <g
         transform="matrix(0.35277777,0,0,-0.35277777,176.42362,284.64187)"
         id="g1054">
        <path
           inkscape:connector-curvature="0"
           id="path1056"
           style="fill:#4d4d4d;fill-opacity:1;fill-rule:nonzero;stroke:none"
           d="m 0,0 c 0,-11.695 -9.479,-21.176 -21.174,-21.176 h -394.11 c -11.694,0 -21.177,9.481 -21.177,21.176 v 282.335 c 0,11.692 9.483,21.177 21.177,21.177 h 394.11 C -9.479,303.512 0,294.027 0,282.335 Z" />
      </g>
      <g
         transform="matrix(0.35277777,0,0,-0.35277777,-3.2611907,278.72251)"
         id="g1058">
        <path
           inkscape:connector-curvature="0"
           id="path1060"
           style="fill:#f0f0f0;fill-opacity:1;fill-rule:nonzero;stroke:none"
           d="m 0,0 v -19.043 c 0,-11.885 12.645,-21.516 28.248,-21.516 h 525.735 c 15.594,0 28.243,9.631 28.243,21.516 V 0 Z" />
      </g>
      <g
         transform="matrix(0.35277777,0,0,-0.35277777,-3.0210547,287.06514)"
         id="g1062">
        <path
           inkscape:connector-curvature="0"
           id="path1064"
           style="fill:#cacaca;fill-opacity:1;fill-rule:nonzero;stroke:none"
           d="m 0,0 c 2.771,-9.662 14.048,-16.91 27.567,-16.91 h 525.736 c 13.517,0 24.789,7.248 27.558,16.91 z" />
      </g>
      <path
         inkscape:connector-curvature="0"
         id="path1066"
         style="fill:#a5e6e4;fill-opacity:1;fill-rule:nonzero;stroke:none;stroke-width:0.35277778"
         d="M 169.55014,273.03047 H 29.324151 V 185.26853 H 169.55014 Z" />
      <g
         transform="matrix(0.35277777,0,0,-0.35277777,169.54996,273.03051)"
         id="g1068">
        <path
           inkscape:connector-curvature="0"
           id="path1070"
           style="fill:#cdfaf9;fill-opacity:1;fill-rule:nonzero;stroke:none"
           d="m 0,0 h -397.491 l 5.417,241.993 H -5.418 Z" />
      </g>
      <g
         transform="matrix(0.35277777,0,0,-0.35277777,101.45249,181.19289)"
         id="g1188">
        <path
           inkscape:connector-curvature="0"
           id="path1190"
           style="fill:#cacaca;fill-opacity:1;fill-rule:nonzero;stroke:none"
           d="m 0,0 c 0,-3.156 -2.559,-5.715 -5.716,-5.715 -3.156,0 -5.715,2.559 -5.715,5.715 0,3.156 2.559,5.715 5.715,5.715 C -2.559,5.715 0,3.156 0,0" />
      </g>
      <g
         transform="matrix(0.35277777,0,0,-0.35277777,101.13005,181.19289)"
         id="g1192">
        <path
           inkscape:connector-curvature="0"
           id="path1194"
           style="fill:#808080;fill-opacity:1;fill-rule:nonzero;stroke:none"
           d="m 0,0 c 0,-2.651 -2.149,-4.801 -4.802,-4.801 -2.651,0 -4.801,2.15 -4.801,4.801 0,2.652 2.15,4.802 4.801,4.802 C -2.149,4.802 0,2.652 0,0" />
      </g>
      <path
         inkscape:connector-curvature="0"
         id="path1196"
         style="fill:#cacaca;fill-opacity:1;fill-rule:nonzero;stroke:none;stroke-width:0.35277778"
         d="M 135.47463,278.67703 H 63.398956 v 4.5593 h 72.075674 z m -0.45579,4.10351 H 63.855098 v -3.64772 h 71.163742 z" />
      <g
         transform="matrix(0.35277777,0,0,-0.35277777,4.4131373,282.84627)"
         id="g1198">
        <path
           inkscape:connector-curvature="0"
           id="path1200"
           style="fill:#cacaca;fill-opacity:1;fill-rule:nonzero;stroke:none"
           d="m 0,0 c 0,-2.383 -1.932,-4.314 -4.313,-4.314 -2.383,0 -4.314,1.931 -4.314,4.314 0,2.381 1.931,4.312 4.314,4.312 C -1.932,4.312 0,2.381 0,0" />
      </g>
      <g
         transform="matrix(0.35277777,0,0,-0.35277777,4.0186613,282.84627)"
         id="g1202">
        <path
           inkscape:connector-curvature="0"
           id="path1204"
           style="fill:#666666;fill-opacity:1;fill-rule:nonzero;stroke:none"
           d="m 0,0 c 0,-1.766 -1.431,-3.197 -3.195,-3.197 -1.766,0 -3.196,1.431 -3.196,3.197 0,1.764 1.43,3.195 3.196,3.195 C -1.431,3.195 0,1.764 0,0" />
      </g>
      <g
         transform="matrix(0.35277777,0,0,-0.35277777,9.1849153,282.84627)"
         id="g1206">
        <path
           inkscape:connector-curvature="0"
           id="path1208"
           style="fill:#cacaca;fill-opacity:1;fill-rule:nonzero;stroke:none"
           d="m 0,0 c 0,-2.383 -1.931,-4.314 -4.313,-4.314 -2.383,0 -4.314,1.931 -4.314,4.314 0,2.381 1.931,4.312 4.314,4.312 C -1.931,4.312 0,2.381 0,0" />
      </g>
      <g
         transform="matrix(0.35277777,0,0,-0.35277777,8.7904743,282.84627)"
         id="g1210">
        <path
           inkscape:connector-curvature="0"
           id="path1212"
           style="fill:#666666;fill-opacity:1;fill-rule:nonzero;stroke:none"
           d="m 0,0 c 0,-1.766 -1.431,-3.197 -3.195,-3.197 -1.765,0 -3.196,1.431 -3.196,3.197 0,1.764 1.431,3.195 3.196,3.195 C -1.431,3.195 0,1.764 0,0" />
      </g>
      <g
         transform="matrix(0.35277777,0,0,-0.35277777,13.957081,282.84627)"
         id="g1214">
        <path
           inkscape:connector-curvature="0"
           id="path1216"
           style="fill:#cacaca;fill-opacity:1;fill-rule:nonzero;stroke:none"
           d="m 0,0 c 0,-2.383 -1.932,-4.314 -4.313,-4.314 -2.383,0 -4.315,1.931 -4.315,4.314 0,2.381 1.932,4.312 4.315,4.312 C -1.932,4.312 0,2.381 0,0" />
      </g>
      <g
         transform="matrix(0.35277777,0,0,-0.35277777,13.562605,282.84627)"
         id="g1218">
        <path
           inkscape:connector-curvature="0"
           id="path1220"
           style="fill:#666666;fill-opacity:1;fill-rule:nonzero;stroke:none"
           d="m 0,0 c 0,-1.766 -1.431,-3.197 -3.195,-3.197 -1.766,0 -3.197,1.431 -3.197,3.197 0,1.764 1.431,3.195 3.197,3.195 C -1.431,3.195 0,1.764 0,0" />
      </g>
      <g
         transform="matrix(0.35277777,0,0,-0.35277777,-33.009917,359.49207)"
         id="g1222">
        <g
           clip-path="url(#clipPath1228)"
           id="g1224">
          <g
             id="g1230">
            <g
               id="g1232" />
            <g
               mask="url(#mask1246)"
               id="g1258">
              <g
                 id="g1260">
                <path
                   inkscape:connector-curvature="0"
                   id="path1270"
                   style="fill:url(#radialGradient1268);stroke:none"
                   d="m 327.352,437.763 c -15.361,-15.361 -15.361,-40.267 0,-55.627 v 0 c 15.361,-15.361 40.266,-15.361 55.626,0 v 0 c 15.361,15.36 15.361,40.265 0,55.627 v 0 c -7.68,7.68 -17.746,11.52 -27.813,11.52 v 0 c -10.066,0 -20.133,-3.84 -27.813,-11.52" />
              </g>
            </g>
          </g>
        </g>
      </g>
      <g
         transform="matrix(0.35277777,0,0,-0.35277777,-33.009917,359.49207)"
         id="g1272">
        <g
           clip-path="url(#clipPath1278)"
           id="g1274">
          <g
             transform="translate(406.5703,367.7324)"
             id="g1280">
            <path
               inkscape:connector-curvature="0"
               id="path1282"
               style="fill:#dadbda;fill-opacity:1;fill-rule:nonzero;stroke:none"
               d="m 0,0 -9.341,-9.344 -15.414,15.414 9.344,9.342 z" />
          </g>
          <g
             transform="translate(383.1729,375.1582)"
             id="g1284">
            <path
               inkscape:connector-curvature="0"
               id="path1286"
               style="fill:#d6d8d7;fill-opacity:1;fill-rule:nonzero;stroke:none"
               d="m 0,0 -1.357,-1.355 15.414,-15.415 1.355,1.356 z" />
          </g>
          <g
             transform="translate(385.415,377.4004)"
             id="g1288">
            <path
               inkscape:connector-curvature="0"
               id="path1290"
               style="fill:#d6d8d7;fill-opacity:1;fill-rule:nonzero;stroke:none"
               d="M 0,0 15.412,-15.414 21.155,-9.668 5.744,5.744 Z" />
          </g>
          <g
             transform="translate(389.0576,381.043)"
             id="g1292">
            <path
               inkscape:connector-curvature="0"
               id="path1294"
               style="fill:#cfcfcf;fill-opacity:1;fill-rule:nonzero;stroke:none"
               d="m 0,0 15.411,-15.412 2.102,2.101 L 2.102,2.102 Z" />
          </g>
          <g
             transform="translate(323.0146,441.9463)"
             id="g1296">
            <path
               inkscape:connector-curvature="0"
               id="path1298"
               style="fill:#e2a248;fill-opacity:1;fill-rule:nonzero;stroke:none"
               d="m 0,0 c -18.08,-18.078 -18.08,-47.392 0,-65.47 18.08,-18.08 47.391,-18.08 65.471,0 18.079,18.078 18.079,47.391 0,65.471 C 47.392,18.08 18.079,18.08 0,0 m 7.777,-7.777 c 13.762,13.761 36.155,13.761 49.915,0 13.762,-13.762 13.762,-36.154 0,-49.915 -13.76,-13.762 -36.153,-13.762 -49.915,0 -13.761,13.761 -13.761,36.153 0,49.915" />
          </g>
          <g
             transform="translate(384.7021,380.2598)"
             id="g1300">
            <path
               inkscape:connector-curvature="0"
               id="path1302"
               style="fill:#db8b1a;fill-opacity:1;fill-rule:nonzero;stroke:none"
               d="m 0,0 c -15.99,-15.99 -41.914,-15.99 -57.904,0 -15.991,15.988 -15.991,41.914 0,57.903 15.99,15.991 41.914,15.991 57.904,0 C 15.99,41.914 15.989,15.988 0,0 m -61.688,61.687 c -18.08,-18.079 -18.08,-47.392 0,-65.47 18.081,-18.08 47.391,-18.08 65.471,0 18.079,18.078 18.079,47.39 0,65.471 -18.079,18.079 -47.391,18.079 -65.471,-0.001" />
          </g>
          <g
             transform="translate(393.1006,360.1465)"
             id="g1304">
            <path
               inkscape:connector-curvature="0"
               id="path1306"
               style="fill:#ea7676;fill-opacity:1;fill-rule:nonzero;stroke:none"
               d="m 0,0 45.692,-45.695 c 3.125,-3.123 8.19,-3.123 11.315,0 l 0.4,0.402 c 3.125,3.123 3.125,8.189 0,11.313 L 11.714,11.715 Z" />
          </g>
          <g
             transform="translate(394.2412,361.2871)"
             id="g1308">
            <path
               inkscape:connector-curvature="0"
               id="path1310"
               style="fill:#e24948;fill-opacity:1;fill-rule:nonzero;stroke:none"
               d="m 0,0 -1.141,-1.141 45.693,-45.695 c 1.277,-1.275 2.879,-2.021 4.537,-2.256 z" />
          </g>
          <g
             transform="translate(398.585,365.6309)"
             id="g1312">
            <path
               inkscape:connector-curvature="0"
               id="path1314"
               style="fill:#e24948;fill-opacity:1;fill-rule:nonzero;stroke:none"
               d="m 0,0 51.341,-51.342 c 0.06,0.055 0.123,0.104 0.181,0.162 l 0.401,0.403 c 3.125,3.123 3.125,8.189 0,11.312 L 6.229,6.23 Z" />
          </g>
          <g
             transform="translate(402.0879,369.1328)"
             id="g1316">
            <path
               inkscape:connector-curvature="0"
               id="path1318"
               style="fill:#db1c1a;fill-opacity:1;fill-rule:nonzero;stroke:none"
               d="m 0,0 50.525,-50.525 c 0.641,2.623 -0.054,5.507 -2.105,7.558 L 2.727,2.729 Z" />
          </g>
          <g
             id="g1320">
            <g
               id="g1322" />
            <g
               id="g1334">
              <g
                 style="opacity:0.5"
                 id="g1332"
                 clip-path="url(#clipPath1326)">
                <g
                   id="g1330"
                   transform="translate(331.3408,425.6758)">
                  <path
                     inkscape:connector-curvature="0"
                     id="path1328"
                     style="fill:#ffffff;fill-opacity:1;fill-rule:nonzero;stroke:none"
                     d="m 0,0 c 0,0 0.104,0.213 0.316,0.593 0.209,0.381 0.528,0.928 0.956,1.599 0.218,0.334 0.458,0.704 0.72,1.104 0.319,0.375 0.67,0.784 1.063,1.213 0.386,0.435 0.822,0.883 1.283,1.363 0.465,0.484 0.998,0.869 1.549,1.324 0.55,0.449 1.144,0.894 1.761,1.358 0.659,0.387 1.335,0.805 2.053,1.201 0.358,0.2 0.721,0.402 1.09,0.607 0.377,0.182 0.773,0.34 1.172,0.5 0.799,0.323 1.627,0.624 2.473,0.91 1.748,0.391 3.556,0.801 5.437,0.835 1.86,0.181 3.756,0.048 5.623,0.042 1.869,-0.197 3.733,-0.313 5.522,-0.745 1.811,-0.277 3.505,-0.936 5.154,-1.433 C 36.967,10.133 37.749,9.8 38.515,9.474 38.894,9.306 39.275,9.16 39.637,8.979 39.99,8.782 40.34,8.589 40.686,8.396 41.369,8.014 42.034,7.641 42.678,7.28 43.282,6.86 43.867,6.455 44.428,6.065 44.977,5.664 45.535,5.331 45.994,4.913 46.459,4.507 46.9,4.122 47.315,3.761 47.727,3.4 48.111,3.063 48.467,2.752 c 0.322,-0.349 0.617,-0.667 0.884,-0.956 1.051,-1.149 1.653,-1.805 1.653,-1.805 l -0.422,-0.423 c 0,0 -0.701,0.52 -1.929,1.431 -0.303,0.226 -0.639,0.475 -1.007,0.746 -0.39,0.237 -0.812,0.493 -1.263,0.768 -0.447,0.271 -0.922,0.56 -1.424,0.865 -0.493,0.315 -1.08,0.536 -1.646,0.832 -0.574,0.277 -1.171,0.567 -1.79,0.867 -0.644,0.238 -1.31,0.484 -1.995,0.735 C 39.189,5.938 38.845,6.065 38.496,6.194 38.145,6.313 37.774,6.396 37.41,6.499 36.68,6.694 35.934,6.896 35.175,7.101 33.615,7.333 32.047,7.696 30.41,7.766 28.792,7.973 27.133,7.869 25.496,7.864 23.861,7.666 22.232,7.521 20.686,7.063 19.117,6.75 17.664,6.138 16.203,5.798 15.496,5.544 14.797,5.309 14.1,5.11 13.756,4.998 13.398,4.929 13.063,4.812 12.729,4.691 12.398,4.572 12.074,4.454 11.423,4.214 10.768,4.015 10.139,3.805 9.526,3.56 8.943,3.298 8.359,3.079 8.067,2.966 7.781,2.856 7.502,2.749 7.216,2.646 6.936,2.548 6.695,2.419 6.191,2.188 5.707,1.962 5.233,1.764 4.764,1.559 4.309,1.374 3.881,1.201 3.455,0.983 3.064,0.782 2.711,0.602 1.998,0.243 1.422,-0.019 1.021,-0.188 0.623,-0.362 0.4,-0.442 0.4,-0.442 Z" />
                </g>
              </g>
            </g>
          </g>
          <g
             transform="translate(456.5391,290.2578)"
             id="g1336">
            <path
               inkscape:connector-curvature="0"
               id="path1338"
               style="fill:#f0f0f0;fill-opacity:1;fill-rule:nonzero;stroke:none"
               d="m 0,0 c 0,-4.518 -3.662,-8.18 -8.18,-8.18 h -134.412 c -4.517,0 -8.179,3.662 -8.179,8.18 0,4.516 3.662,8.178 8.179,8.178 H -8.18 C -3.662,8.178 0,4.516 0,0" />
          </g>
          <g
             transform="translate(448.3594,298.4355)"
             id="g1340">
            <path
               inkscape:connector-curvature="0"
               id="path1342"
               style="fill:#2d688d;fill-opacity:1;fill-rule:nonzero;stroke:none"
               d="M 0,0 H -18.609 V -16.357 H 0 c 4.518,0 8.18,3.662 8.18,8.179 C 8.18,-3.662 4.518,0 0,0" />
          </g>
          <g
             transform="translate(456.5391,288.3594)"
             id="g1344">
            <path
               inkscape:connector-curvature="0"
               id="path1346"
               style="fill:#ffffff;fill-opacity:1;fill-rule:nonzero;stroke:none"
               d="m 0,0 c 0,-4.516 -3.662,-8.178 -8.18,-8.178 h -134.412 c -4.517,0 -8.179,3.662 -8.179,8.178 0,4.518 3.662,8.18 8.179,8.18 H -8.18 C -3.662,8.18 0,4.518 0,0" />
          </g>
          <g
             transform="translate(448.3594,296.5391)"
             id="g1348">
            <path
               inkscape:connector-curvature="0"
               id="path1350"
               style="fill:#5786a4;fill-opacity:1;fill-rule:nonzero;stroke:none"
               d="M 0,0 H -18.609 V -16.357 H 0 c 4.518,0 8.18,3.662 8.18,8.177 C 8.18,-3.662 4.518,0 0,0" />
          </g>
          <g
             transform="translate(441.0391,288.0117)"
             id="g1352">
            <path
               inkscape:connector-curvature="0"
               id="path1354"
               style="fill:#f0f0f0;fill-opacity:1;fill-rule:nonzero;stroke:none"
               d="m 0,0 c -1.355,-1.354 -3.559,-1.354 -4.912,0 -1.356,1.355 -1.356,3.559 0,4.914 1.353,1.354 3.557,1.354 4.912,0 C 1.355,3.559 1.355,1.355 0,0 m 0.885,5.797 c -1.846,1.846 -4.838,1.846 -6.682,0 -1.846,-1.844 -1.846,-4.836 0,-6.68 1.643,-1.644 4.193,-1.82 6.037,-0.535 l 5.067,-5.066 1.177,1.177 -5.066,5.069 C 2.703,1.604 2.527,4.154 0.885,5.797" />
          </g>
        </g>
      </g>
      <text
         y="258.64276"
         x="79.100563"
         id="text1358"
         style="font-variant:normal;font-weight:500;font-stretch:normal;font-size:3.01074648px;font-family:'Roboto Medium';-inkscape-font-specification:Roboto-Medium;writing-mode:lr-tb;fill:#666666;fill-opacity:1;fill-rule:nonzero;stroke:none;stroke-width:0.35277778">
        <tspan
           style="stroke-width:0.35277778"
           id="tspan1356"
           sodipodi:role="line"
           y="258.64276"
           x="79.100563 80.666153 82.258842 83.896683 84.938393 86.519043 88.223129 89.002914 90.706993 92.411079 93.251076 94.091072">searching...</tspan>
      </text>
    </g>
  </g>
</svg>
