<?xml version="1.0" encoding="UTF-8" standalone="no"?>
<!-- Created with Inkscape (http://www.inkscape.org/) -->

<svg
   xmlns:dc="http://purl.org/dc/elements/1.1/"
   xmlns:cc="http://creativecommons.org/ns#"
   xmlns:rdf="http://www.w3.org/1999/02/22-rdf-syntax-ns#"
   xmlns:svg="http://www.w3.org/2000/svg"
   xmlns="http://www.w3.org/2000/svg"
   xmlns:sodipodi="http://sodipodi.sourceforge.net/DTD/sodipodi-0.dtd"
   xmlns:inkscape="http://www.inkscape.org/namespaces/inkscape"
   version="1.1"
   id="svg42786"
   xml:space="preserve"
   width="1066.6667"
   height="1066.6667"
   viewBox="0 0 1066.6667 1066.6667"
   sodipodi:docname="pesquisa.svg"
   inkscape:version="0.92.1 r15371"><metadata
     id="metadata42792"><rdf:RDF><cc:Work
         rdf:about=""><dc:format>image/svg+xml</dc:format><dc:type
           rdf:resource="http://purl.org/dc/dcmitype/StillImage" /><dc:title></dc:title></cc:Work></rdf:RDF></metadata><defs
     id="defs42790"><clipPath
       clipPathUnits="userSpaceOnUse"
       id="clipPath42804"><path
         d="M 0,0 H 800 V 800 H 0 Z"
         id="path42802"
         inkscape:connector-curvature="0" /></clipPath><clipPath
       clipPathUnits="userSpaceOnUse"
       id="clipPath42812"><path
         d="M -125.18,940.622 H 896.891 V -97.5439 H -125.18 Z"
         id="path42810"
         inkscape:connector-curvature="0" /></clipPath><clipPath
       clipPathUnits="userSpaceOnUse"
       id="clipPath42852"><path
         d="M -312.243,1117 H 1072.52 V -292.732 H -312.243 Z"
         id="path42850"
         inkscape:connector-curvature="0" /></clipPath><clipPath
       clipPathUnits="userSpaceOnUse"
       id="clipPath43014"><path
         d="M 0,800 H 800 V 0 H 0 Z"
         id="path43012"
         inkscape:connector-curvature="0" /></clipPath><clipPath
       clipPathUnits="userSpaceOnUse"
       id="clipPath43022"><path
         d="M 2052,0 H 852 v 800 h 1200 z"
         id="path43020"
         inkscape:connector-curvature="0" /></clipPath><clipPath
       clipPathUnits="userSpaceOnUse"
       id="clipPath43030"><path
         d="M 739.758,1117 H 2124.52 V -292.732 H 739.758 Z"
         id="path43028"
         inkscape:connector-curvature="0" /></clipPath><clipPath
       clipPathUnits="userSpaceOnUse"
       id="clipPath43054"><path
         d="M 0,800 H 800 V 0 H 0 Z"
         id="path43052"
         inkscape:connector-curvature="0" /></clipPath><clipPath
       clipPathUnits="userSpaceOnUse"
       id="clipPath43062"><path
         d="m 278.321,38.6299 h 104.62 V 20.3848 h -104.62 z"
         id="path43060"
         inkscape:connector-curvature="0" /></clipPath><clipPath
       clipPathUnits="userSpaceOnUse"
       id="clipPath43114"><path
         d="M 412.931,38.6367 H 516.742 V 20.3838 H 412.931 Z"
         id="path43112"
         inkscape:connector-curvature="0" /></clipPath><clipPath
       clipPathUnits="userSpaceOnUse"
       id="clipPath43170"><path
         d="m 386.369,43.457 h 23.504 V 23.0859 h -23.504 z"
         id="path43168"
         inkscape:connector-curvature="0" /></clipPath></defs><sodipodi:namedview
     pagecolor="#ffffff"
     bordercolor="#666666"
     borderopacity="1"
     objecttolerance="10"
     gridtolerance="10"
     guidetolerance="10"
     inkscape:pageopacity="0"
     inkscape:pageshadow="2"
     inkscape:window-width="1600"
     inkscape:window-height="837"
     id="namedview42788"
     showgrid="false"
     inkscape:zoom="0.44249997"
     inkscape:cx="515.31279"
     inkscape:cy="448.50069"
     inkscape:window-x="-8"
     inkscape:window-y="-8"
     inkscape:window-maximized="1"
     inkscape:current-layer="g42794" /><g
     id="g42794"
     inkscape:groupmode="layer"
     inkscape:label="89910-OIY1GX-859"
     transform="matrix(1.3333333,0,0,-1.3333333,0,1066.6667)"><g
       id="g42866"
       transform="translate(672.4258,413.27)"><path
         d="m 0,0 c 0,3.713 -2.097,7.082 -5.388,8.731 l 0.398,0.707 0.005,0.488 c 0,0.242 -0.005,0.484 -0.009,0.726 -0.005,0.236 -0.009,0.472 -0.009,0.707 v 1.895 l -2.195,-3.87 c -0.513,0.14 -1.032,0.24 -1.553,0.297 v 122.068 c 0.308,0.026 0.604,0.063 0.89,0.111 L 17.574,-28.746 c -1.126,-0.282 -2.223,-0.756 -3.273,-1.417 L -3.13,-7.105 C -1.135,-5.246 0,-2.682 0,0 m -56.021,-157.103 c 0,3.535 -1.978,6.83 -5.081,8.534 l 27.857,52.9 -26.071,-92.67 c -0.69,0.137 -1.383,0.207 -2.07,0.207 -0.055,0 -0.11,-0.003 -0.164,-0.007 l -2.233,21.507 c 4.525,0.942 7.762,4.878 7.762,9.529 m -101.281,-79.737 c 1.859,-2.083 4.471,-3.268 7.239,-3.268 5.383,0 9.763,4.383 9.763,9.77 0,1.733 -0.464,3.422 -1.346,4.915 l 10.668,7.823 c 0.029,-0.03 0.057,-0.061 0.086,-0.091 1.931,-1.934 4.498,-2.999 7.232,-2.999 h 0.004 c 2.732,0.001 5.298,1.066 7.224,2.999 2.114,2.108 3.167,4.997 2.932,7.99 l 41.511,6.407 c 0.271,-0.737 0.618,-1.444 1.037,-2.111 l -144.17,-73.458 z m -110.22,-21.23 71.357,23.186 36.458,3.263 c 0.171,-1.295 0.58,-2.524 1.199,-3.604 l -57.986,-42.141 c -2.096,1.994 -4.822,3.087 -7.725,3.087 -3.985,0 -7.651,-2.121 -9.679,-5.566 l -33.976,16.166 c 0.628,1.787 0.75,3.746 0.352,5.609 m -128.138,2.281 60.818,7.539 c 0.69,-1.941 2.138,-3.527 4.027,-4.39 l 0.905,-0.212 c 0.744,-0.165 1.488,-0.331 2.237,-0.481 l 0.1,-0.009 c 2.483,0.011 4.765,1.23 6.184,3.281 l 34.125,-12.838 c 0.465,-1.791 1.323,-3.321 2.552,-4.551 3.464,-3.456 8.839,-3.969 12.88,-1.262 l 36.774,-13.853 c -0.052,-0.174 -0.103,-0.352 -0.149,-0.534 l -160.77,25.458 c 0.158,0.62 0.262,1.232 0.317,1.852 m -33.257,37.209 c 1.063,1.069 1.858,2.362 2.369,3.847 l 15.139,-4.904 c 0.734,-0.382 1.513,-0.638 2.237,-0.743 l 74.026,-24.044 c -0.096,-0.46 -0.14,-0.868 -0.14,-1.279 0,-0.183 0.008,-0.374 0.024,-0.568 l -60.442,-7.49 c -0.599,5.711 -5.412,10.11 -11.183,10.11 -2.162,0 -4.263,-0.638 -6.108,-1.849 l -16.82,26.159 c 0.31,0.234 0.612,0.479 0.898,0.761 m -100.236,89.161 46.347,-33.305 c -0.48,-1.187 -0.723,-2.412 -0.723,-3.649 0,-5.383 4.383,-9.764 9.769,-9.764 3.026,0 5.86,1.404 7.713,3.79 l 22.92,-31.543 c -0.09,-0.07 -0.177,-0.144 -0.257,-0.225 -1.933,-1.936 -2.998,-4.507 -2.998,-7.237 0,-2.731 1.066,-5.299 2.999,-7.23 3.129,-3.118 7.946,-3.843 11.87,-1.839 l 16.931,-26.34 c -0.204,-0.189 -0.389,-0.369 -0.558,-0.548 l -115.973,115.967 c 0.724,0.555 1.381,1.199 1.96,1.923 m -3.906,43.788 c 1.208,0.001 2.417,0.214 3.542,0.628 l 52.468,-72.205 c -1.964,-0.705 -3.633,-2.004 -4.789,-3.734 l -46.198,33.202 c 0.91,1.668 1.389,3.52 1.389,5.384 0,5.359 -3.743,9.921 -8.965,11.019 z m -4.827,169.844 c 0.766,-0.518 1.613,-0.935 2.526,-1.243 V 33.015 l -20.125,14.857 c 1.091,1.786 1.666,3.795 1.666,5.838 0,2.979 -1.159,5.761 -3.272,7.884 z m 245.09,185.774 -106.402,-34.563 c -1.674,3.222 -5.02,5.281 -8.644,5.281 -5.384,0 -9.764,-4.383 -9.764,-9.77 0,-0.47 0.037,-0.959 0.11,-1.461 l -10.284,-3.345 c -0.522,1.229 -1.246,2.313 -2.158,3.225 -1.933,1.934 -4.503,2.999 -7.237,2.999 -2.732,0 -5.303,-1.065 -7.235,-2.999 -2.115,-2.12 -3.165,-5.022 -2.92,-8.025 l -24.845,-4.462 c -0.29,1.079 -0.717,2.076 -1.272,2.976 l 141.867,72.289 c 2.14,-2.759 5.439,-4.393 8.912,-4.393 3.858,0 7.443,2.02 9.486,5.308 l 21.625,-15.938 c -1.258,-2.133 -1.702,-4.681 -1.239,-7.122 m 142.234,1.056 -26.702,-2.566 c -1.542,3.622 -5.016,5.941 -8.955,5.941 -5.387,0 -9.77,-4.382 -9.77,-9.77 0,-0.247 0.023,-0.484 0.054,-0.72 l -33.474,-6.447 -43.199,14.042 c 0.112,2.864 -0.95,5.62 -2.945,7.614 -3.988,3.983 -10.475,3.983 -14.464,-0.004 -0.124,-0.128 -0.241,-0.258 -0.355,-0.39 l -21.881,16.124 c 0.37,0.916 0.616,1.839 0.736,2.752 l 161.031,-25.509 c -0.042,-0.318 -0.077,-0.646 -0.077,-0.991 0,-0.026 10e-4,-0.051 10e-4,-0.076 m 5.121,-20.317 c -1.107,-0.029 -2.156,-0.441 -3.004,-1.176 l -3.642,2.764 2.966,-3.489 c -0.007,-0.009 -0.014,-0.018 -0.021,-0.027 l -27.84,12.734 c 0.35,1.022 0.527,2.068 0.527,3.116 0,0.596 -0.068,1.209 -0.208,1.862 l 26.331,2.533 c 0.698,-3.742 3.237,-6.873 6.756,-8.326 z m 63.226,-50.98 -34.028,25.587 c -0.296,2.26 -1.278,4.282 -2.852,5.86 -2.281,2.282 -5.535,3.344 -8.746,2.866 l -13.138,9.878 c 0.3,0.643 0.453,1.315 0.453,2.004 0,1.938 -1.166,3.653 -2.946,4.395 l 1.831,9.78 c 0.866,-0.197 1.627,-0.289 2.364,-0.289 2.302,0 4.513,0.708 6.423,2.052 l 51.509,-61.468 c -0.309,-0.189 -0.599,-0.411 -0.87,-0.665 m 61.006,-46.717 -52.591,40.328 c 0.402,0.768 0.612,1.614 0.612,2.474 0,3.214 -2.814,5.779 -6.15,5.314 l -51.764,61.784 z m -3.613,-53.808 c -0.757,0.178 -1.536,0.268 -2.33,0.268 -0.194,0 -0.388,-0.005 -0.583,-0.016 l -11.667,40.313 c 3.532,1.443 5.873,4.882 5.873,8.702 0,5.207 -4.236,9.442 -9.442,9.442 -1.71,0 -3.376,-0.462 -4.848,-1.341 l -25.218,33.647 53.785,-41.255 c -1.179,-1.833 -1.799,-3.9 -1.799,-6.008 0,-4.503 2.759,-8.613 6.913,-10.373 z M 8.968,-39.713 c 0,-2.444 0.819,-4.831 2.318,-6.783 l -29.484,-22.27 c -0.305,0.411 -0.613,0.769 -0.931,1.089 -1.36,1.364 -3.115,2.294 -5.101,2.707 l 12.317,55.484 c 0.785,-0.189 1.479,-0.279 2.154,-0.279 1.784,0 3.523,0.488 5.055,1.413 l 17.39,-23.005 c -2.37,-2.143 -3.718,-5.162 -3.718,-8.356 m -40.13,-56 c 0.259,-0.038 0.532,-0.067 0.816,-0.067 1.492,0 2.967,0.475 4.265,1.372 l 0.12,0.083 0.057,0.134 c 0.914,2.165 1.858,4.525 2.972,7.429 l 0.053,0.137 -0.03,0.144 c -0.124,0.59 -0.341,1.185 -0.647,1.777 1.689,0.469 3.208,1.348 4.427,2.567 3.076,3.081 3.837,7.701 1.952,11.619 l 29.824,22.526 c 0.459,-0.422 0.943,-0.8 1.445,-1.131 l -71.256,-139.852 c -0.07,0.029 -0.142,0.057 -0.213,0.085 z m -43.97,-58.629 -5.656,1.059 44.184,60.816 c 0.516,-0.743 1.158,-1.392 1.891,-1.911 l -28.144,-53.439 c -0.996,0.321 -1.978,0.484 -2.928,0.484 -4.351,0 -8.129,-2.858 -9.347,-7.009 m -112.927,-77.903 54.983,17.862 c 0.239,-0.57 0.527,-1.115 0.861,-1.63 l -10.644,-7.8 c -1.868,2.063 -4.467,3.238 -7.204,3.238 -5.134,0 -9.409,-4.058 -9.734,-9.137 z m -96.652,-20.744 c -1.337,-1.333 -2.264,-2.992 -2.702,-4.829 l -32.756,10.639 c 0.091,0.424 0.144,0.815 0.161,1.199 l 114.84,10.295 -62.947,-20.46 c -0.524,1.211 -1.241,2.271 -2.137,3.155 -1.93,1.933 -4.497,2.998 -7.228,2.998 h -10e-4 c -2.732,0 -5.299,-1.064 -7.23,-2.997 m -248.628,282.017 20.057,-14.806 c -0.887,-1.496 -1.353,-3.199 -1.353,-4.952 0,-3.867 2.24,-7.303 5.747,-8.883 l -21.913,-65.904 c -0.803,0.184 -1.586,0.277 -2.338,0.277 -0.067,0 -0.133,-0.001 -0.2,-0.002 z m 257.783,235.641 c 0.128,0.124 0.243,0.254 0.353,0.386 l 15.13,-11.156 c -0.173,-0.648 -0.258,-1.26 -0.258,-1.863 0,-1.182 0.284,-2.325 0.845,-3.407 l -70.753,-31.221 -0.574,0.131 c -1.801,2.904 -4.874,4.631 -8.264,4.631 -1.882,0 -3.7,-0.534 -5.273,-1.546 l -53.955,12.303 c -0.046,0.195 -0.099,0.396 -0.165,0.611 l 106.243,34.523 c 0.517,-1.291 1.26,-2.43 2.214,-3.39 3.983,-3.982 10.467,-3.985 14.457,-0.002 m 143.313,-32.431 -6.296,7.347 8.283,-6.229 c -0.696,-0.293 -1.361,-0.667 -1.987,-1.118 M -10.766,9.852 -21.886,74.65 c 3.22,0.971 5.429,3.912 5.429,7.307 0,0.495 -0.054,1.001 -0.16,1.505 l -0.033,0.16 -1.409,1.268 c 1.891,3.926 1.133,8.558 -1.941,11.638 -0.818,0.818 -1.799,1.493 -2.921,2.008 l 10.703,33.465 c 0.48,-0.107 0.966,-0.185 1.452,-0.23 z M -25.334,9.039 v 65.383 c 0.555,-0.102 1.082,-0.144 1.577,-0.097 L -12.597,9.32 c -1.989,-0.605 -3.727,-1.813 -4.965,-3.45 z m 0,-2.059 6.802,-2.765 C -19.193,2.864 -19.528,1.449 -19.528,0 c 0,-3.883 2.26,-7.332 5.795,-8.902 l -11.601,-52.265 z m -439.597,-177.437 c 0.621,1.343 0.936,2.715 0.936,4.084 0,3.891 -2.264,7.341 -5.805,8.912 l 4.143,14.961 c 0.923,-0.278 1.805,-0.413 2.683,-0.413 5.136,0 9.315,3.91 9.715,8.988 l 56.755,0.412 c 0.928,-1.452 2.312,-2.534 3.953,-3.095 l -14.127,-68.697 c -0.435,0.08 -0.852,0.119 -1.265,0.119 -3.355,0 -6.361,-2.273 -7.317,-5.559 l -0.223,-1.015 c -0.052,-0.338 -0.106,-0.688 -0.106,-1.076 0,-0.604 0.092,-1.222 0.303,-2.025 l 0.291,-0.921 c 0.098,-0.234 0.209,-0.465 0.331,-0.689 l -11.371,3.69 c 0.446,3.175 -0.613,6.386 -2.883,8.666 -3.368,3.364 -8.601,3.938 -12.615,1.442 z m 413.059,321.959 -18.418,-0.866 -24.289,33.438 12.158,8.052 c 1.007,-1.068 2.391,-1.673 3.862,-1.673 0.832,0 1.656,0.201 2.406,0.584 l 26.77,-35.676 c -1.138,-1.063 -1.991,-2.384 -2.489,-3.859 M -31.565,18.534 c 0,5.387 -4.383,9.77 -9.771,9.77 -5.082,0 -9.213,-3.811 -9.695,-8.8 l -25.675,10.451 c 0.193,0.672 0.288,1.321 0.288,1.974 0,1.463 -0.422,2.874 -1.226,4.111 l 48.337,40.334 c 0.574,-0.536 1.24,-0.987 1.958,-1.326 V 9.858 l -6.378,2.597 c 1.399,1.739 2.162,3.872 2.162,6.079 m -4.71,-91.081 -43.833,97.968 c 1.131,0.689 2.05,1.637 2.689,2.775 L -50.99,17.433 c 0.555,-4.882 4.737,-8.663 9.654,-8.663 2.216,0 4.388,0.789 6.149,2.227 l 7.838,-3.192 v -72.566 c -2.388,-0.23 -4.589,-1.256 -6.241,-2.917 -1.334,-1.334 -2.258,-3.022 -2.685,-4.869 m -37.304,-90.381 -43.168,-39.849 34.724,47.793 6.538,-1.216 c -0.038,-0.292 -0.071,-0.592 -0.071,-0.903 0,-2.102 0.682,-4.106 1.977,-5.825 m -182.738,-30.631 c 0.014,0.123 0.025,0.248 0.025,0.379 0,0.975 -0.198,1.944 -0.592,2.887 l 84.25,47.585 c 1.443,-1.945 3.701,-3.093 6.131,-3.093 1.503,0 2.945,0.445 4.205,1.295 l 32.795,-57.595 c -0.555,-0.38 -0.994,-0.74 -1.389,-1.136 -1.596,-1.596 -2.605,-3.698 -2.873,-5.964 z m -12.853,-5.168 c 1.429,-1.356 3.272,-2.099 5.238,-2.099 3.367,0 6.298,2.194 7.279,5.388 l 122.831,-15.621 c 0.026,-0.479 0.083,-0.947 0.169,-1.4 l -63.4,-20.597 -123.15,-11.033 c -0.188,0.889 -0.523,1.715 -1,2.463 z m -18.478,-61.887 -14.53,5.475 14.521,-4.722 c -0.006,-0.245 -0.003,-0.495 0.009,-0.753 m -185.331,435.23 -4.855,1.85 c -0.141,1.856 -0.798,3.601 -1.914,5.091 l 35.666,32.84 z m 64.456,45.682 -0.333,0.928 c 0.344,-0.037 0.68,-0.056 1.014,-0.056 3.968,0 7.523,2.43 9.013,6.101 l 22.06,-10.12 z m 222.304,34.58 c 3.452,0 6.618,1.84 8.372,4.832 l 27.868,-12.751 c -0.084,-0.354 -0.125,-0.689 -0.125,-1.018 0,-0.988 0.31,-1.949 0.884,-2.757 l -11.351,-8.067 -65.104,21.153 30.053,5.786 c 1.154,-4.187 5.032,-7.178 9.403,-7.178 m 50.218,-27.738 -22.321,7.246 10.517,7.468 c 1.451,-0.894 3.31,-0.927 4.776,-0.129 l 9.244,-10.776 c -1.008,-1.073 -1.751,-2.351 -2.216,-3.809 m -12.678,-76.615 c -0.447,0.504 -0.953,0.941 -1.51,1.307 l 21.446,62.241 c 3.005,-0.719 6.141,-0.062 8.578,1.788 l 22.778,-31.358 z m 43.809,63.732 -11.5,7.597 c 0.068,0.315 0.121,0.625 0.158,0.932 z m -277.593,-343.651 v 0.007 l 73.66,9.348 c 0.632,-2.467 2.509,-4.491 4.942,-5.324 l -23.19,-112.732 c -1.108,0.138 -2.262,-0.062 -3.34,-0.489 l -55.295,102.967 c 2.027,1.436 3.223,3.729 3.223,6.223 m -17.842,-83.442 c 0,3.001 -1.81,5.753 -4.547,6.977 l 14.16,68.852 c 0.188,-0.023 0.387,-0.038 0.59,-0.038 0.939,0 1.859,0.175 2.744,0.523 l 55.296,-102.964 c -0.951,-0.674 -1.729,-1.556 -2.282,-2.588 l -66.67,26.09 c 0.471,1.024 0.709,2.08 0.709,3.148 m -1.716,-4.8 44.541,-17.414 -47.173,15.324 c 1.015,0.489 1.918,1.203 2.632,2.09 M -506.967,-0.231 c 0.763,-0.183 1.438,-0.269 2.096,-0.269 1.028,0 2.083,0.184 3.141,0.546 l 28.999,-40.099 c -0.706,-0.652 -1.292,-1.438 -1.724,-2.326 l -0.322,-0.865 c -0.279,-0.835 -0.414,-1.607 -0.414,-2.361 0,-0.567 0.077,-1.144 0.241,-1.782 l -52.268,-19.695 c -0.568,0.398 -1.119,0.715 -1.667,0.963 z M -523.614,86.894 -503.07,75.8 c -0.062,-0.166 -0.119,-0.339 -0.175,-0.524 l -0.203,-0.877 -0.019,-0.121 c -0.047,-0.344 -0.095,-0.7 -0.095,-1.078 0,-0.987 0.189,-1.947 0.579,-2.888 l 0.416,-0.825 c 1.061,-1.898 2.831,-3.234 4.905,-3.721 l -6.804,-46.753 c -0.746,0.087 -1.521,-0.014 -2.448,-0.224 l -21.047,64.472 c 1.171,0.504 2.217,1.215 3.116,2.117 0.44,0.432 0.837,0.92 1.231,1.516 m 38.915,79.524 c 3.661,1.113 6.297,4.233 6.796,8.046 l 3.773,-1.443 -7.985,-10.975 z m -3.573,-12.86 0.97,12.429 c 0.205,0.012 0.408,0.038 0.614,0.066 l 3.364,-5.683 z m 61.099,66.566 17.307,-1.719 26.315,-73.382 c -1.395,-0.708 -2.539,-1.829 -3.281,-3.217 l -84.193,32.072 28.651,39.44 c 3.981,-2.348 9.137,-1.719 12.429,1.576 1.437,1.438 2.389,3.237 2.772,5.23 m 275.278,-67.427 c -1.55,0.544 -3.357,0.549 -4.959,-0.007 l -29.596,52.359 c 1.657,1.457 2.599,3.519 2.599,5.722 0,1.58 -0.513,3.137 -1.457,4.437 l 24.943,17.722 23.907,-7.767 c -0.367,-3.11 0.701,-6.234 2.902,-8.429 0.863,-0.868 1.882,-1.564 3.035,-2.072 z m 119.687,-54.489 -28.443,39.154 11.513,4.015 c 1.724,-1.505 3.902,-2.33 6.167,-2.33 0.522,0 1.061,0.052 1.635,0.157 l 11.592,-40.029 c -0.889,-0.227 -1.713,-0.551 -2.464,-0.967 m -4.869,-182.758 -117.031,44.64 c 0.168,0.652 0.247,1.236 0.247,1.809 0,1.553 -0.486,3.05 -1.409,4.357 l 66.227,59.882 c 1.956,-1.687 4.673,-2.305 7.212,-1.506 l 43.006,-96.126 2.467,-5.525 c 0.282,-1.348 0.859,-2.635 1.714,-3.828 l 0.348,-0.775 c -1.182,-0.717 -2.148,-1.736 -2.781,-2.928 m -47.133,-70.015 -34.222,-47.106 c -1.586,0.941 -3.381,1.417 -5.186,1.417 -1.444,0 -2.893,-0.304 -4.245,-0.917 l -32.972,57.895 c 0.714,0.795 1.254,1.748 1.583,2.794 z m -74.685,15.953 c 0.018,0.153 0.031,0.304 0.031,0.455 0,0.542 -0.07,1.083 -0.223,1.711 l 120.1,44.135 -43.992,-60.553 -32.909,6.167 h 0.001 z m -143.107,12.859 c 1.064,-0.126 2.144,0.042 3.134,0.394 l 30.711,-61.484 c -2.15,-1.433 -3.419,-3.769 -3.419,-6.337 0,-1.443 0.412,-2.842 1.197,-4.076 l -52.028,-42.906 c -0.78,0.739 -1.727,1.308 -2.779,1.671 z m -223.53,57.272 51.236,19.316 c 0.977,-1.857 2.692,-3.244 4.707,-3.801 l 3.774,-70.873 c -4.096,-1.245 -6.922,-5.014 -6.922,-9.304 0,-3.64 1.98,-6.898 5.197,-8.6 l -4.185,-15.104 c -0.736,0.166 -1.392,0.244 -2.035,0.244 -0.392,0 -0.763,-0.039 -1.173,-0.101 l -52.76,72.625 c 0.741,0.444 1.358,0.913 1.879,1.428 3.881,3.895 3.979,10.158 0.282,14.17 m 29.543,149.325 c -1.477,-0.012 -2.915,-0.456 -4.199,-1.309 l -0.711,-0.573 c -0.46,-0.395 -0.875,-0.856 -1.237,-1.374 l -20.535,11.089 c 1.59,3.806 0.748,8.23 -2.161,11.148 l 33.996,46.787 z m 34.101,36.971 -0.357,-0.857 c -0.309,-0.881 -0.458,-1.695 -0.458,-2.488 0,-1.676 0.577,-3.32 1.634,-4.678 l -30.384,-30.43 c -0.775,0.566 -1.626,0.973 -2.541,1.216 l 5.417,69.146 6.364,8.76 22.477,-37.976 c -0.889,-0.699 -1.624,-1.615 -2.152,-2.693 m 74.279,19.032 -60.522,-19.19 c -1.249,2.724 -3.919,4.459 -6.927,4.459 -1.025,0 -2.043,-0.221 -3.032,-0.659 l -22.904,38.697 8.81,12.127 84.686,-32.256 c -0.17,-0.652 -0.251,-1.24 -0.251,-1.821 0,-0.434 0.046,-0.882 0.14,-1.357 m 142.158,117.551 c -1.015,3.13 -3.927,5.277 -7.24,5.277 -2.727,0 -5.258,-1.489 -6.608,-3.841 l -14.719,10.846 c 0.536,0.897 0.925,1.835 1.164,2.801 l 39.352,-12.784 z m 98.533,-107.377 c -0.137,0.677 -0.365,1.327 -0.682,1.939 l 51.338,34 23.565,-32.439 z m 59.784,-108.123 -40.933,68.306 c 1,0.785 1.781,1.814 2.288,3.013 l 89.597,-25.781 c 0.505,-0.943 1.068,-1.719 1.716,-2.368 0.839,-0.839 1.846,-1.523 2.996,-2.036 0.214,-0.805 0.534,-1.542 0.955,-2.198 L -78.853,37.505 c -1.424,1.338 -3.257,2.069 -5.21,2.069 -1.038,0 -2.069,-0.227 -3.071,-0.676 M -263.932,-185.53 c -0.864,0 -1.717,-0.146 -2.543,-0.436 l -30.712,61.481 c 1.536,1.028 2.65,2.553 3.131,4.283 l 119.921,-17.776 c -0.004,-0.059 -0.007,-0.117 -0.007,-0.179 0,-0.986 0.199,-1.956 0.589,-2.887 l -84.253,-47.591 c -1.447,1.953 -3.704,3.105 -6.126,3.105 m -116.183,316.089 c 0.259,0 0.505,0.021 0.741,0.05 l 17.929,-80.259 c -1.115,-0.403 -2.113,-1.053 -2.926,-1.906 l -84.036,62.276 c 0.652,1.146 0.994,2.433 0.994,3.75 0,0.441 -0.047,0.888 -0.146,1.382 l 60.521,19.188 c 1.225,-2.699 3.949,-4.481 6.923,-4.481 m 94.52,82.088 c -1.164,0.883 -2.572,1.364 -4.016,1.364 -2.813,0 -5.333,-1.802 -6.286,-4.435 l -31.049,7.077 68.615,30.285 c 0.054,-0.063 0.109,-0.126 0.166,-0.189 z m 199.817,-82.038 c 0.1,0.556 0.15,1.077 0.15,1.578 0,5.387 -4.38,9.771 -9.764,9.771 -5.387,0 -9.77,-4.384 -9.77,-9.771 0,-2.772 1.165,-5.354 3.226,-7.21 l -23.992,-8.363 c -1.283,2.596 -3.923,4.248 -6.849,4.248 -1.137,0 -2.279,-0.275 -3.329,-0.798 l -13,19.888 c 1.435,1.367 2.286,3.215 2.376,5.171 l 75.368,3.558 7.565,-10.4 z m -207.996,-248.925 c 0.004,0.056 0.007,0.111 0.007,0.168 0,0.989 -0.204,1.974 -0.608,2.932 l 126.765,72.527 c 1.156,-1.542 2.86,-2.579 4.781,-2.911 l -4.24,-84.938 c -3.228,-0.239 -5.928,-2.454 -6.794,-5.571 z m -63.002,87.154 c 0.589,-0.141 1.133,-0.211 1.654,-0.211 1.088,0 2.153,0.245 3.173,0.727 l 45.98,-81.37 c -1.938,-1.438 -3.082,-3.696 -3.082,-6.132 v -0.007 l -73.654,-9.347 c -0.56,2.203 -2.063,4.027 -4.123,5.003 z m -50.667,-18.197 c 0,0.697 -0.11,1.409 -0.334,2.164 l 45.813,20.067 c 0.734,-1.48 1.913,-2.671 3.387,-3.417 l -30.065,-91.372 c -0.506,0.109 -0.988,0.163 -1.46,0.163 -0.432,0 -0.871,-0.044 -1.354,-0.136 l -20.471,65.584 c 2.739,1.244 4.484,3.922 4.484,6.947 m -52.639,2.262 37.359,-2.669 c 0.212,-4.03 3.555,-7.244 7.634,-7.244 0.429,0 0.877,0.045 1.36,0.135 l 20.467,-65.582 c -0.436,-0.204 -0.857,-0.454 -1.271,-0.753 l -67.18,72.68 c 0.826,0.986 1.383,2.157 1.631,3.433 m -35.321,54.114 c 0.199,0.798 0.297,1.54 0.297,2.253 0,4.484 -3.07,8.391 -7.365,9.465 l 6.814,46.824 c 0.081,0.006 0.162,0.015 0.243,0.025 l 14.543,-60.146 z m 41.916,-4.463 c 0,-0.027 0,-0.053 0.001,-0.079 l -25.38,2.753 -14.687,60.726 c 0.254,0.085 0.508,0.186 0.76,0.303 l 40.397,-60.666 c -0.707,-0.852 -1.091,-1.916 -1.091,-3.037 M -488.284,73.2 c 0,1.792 -0.628,3.507 -1.778,4.881 l 30.333,30.366 c 1.222,-0.949 2.641,-1.496 4.15,-1.598 l 5.526,-99.711 c -0.297,-0.088 -0.588,-0.205 -0.864,-0.349 l -40.244,60.439 c 1.809,1.447 2.877,3.645 2.877,5.972 m 239.519,172.279 26.888,-34.349 c -1.147,-1.163 -1.887,-2.66 -2.119,-4.293 l -58.941,1.023 c -0.101,1.239 -0.551,2.411 -1.318,3.434 l 27.548,34.241 c 2.39,-1.485 5.505,-1.515 7.942,-0.056 m 38.468,-33.079 c 0,-0.975 0.156,-1.945 0.468,-2.9 -1.329,2.387 -3.84,3.908 -6.642,3.908 -1.385,0 -2.731,-0.375 -3.922,-1.088 l -26.893,34.349 c 0.143,0.144 0.276,0.288 0.4,0.432 l 40.832,-26.695 c -2.635,-1.823 -4.243,-4.822 -4.243,-8.006 m 51.502,-60.746 -51.568,49.563 c 1.007,1.338 1.537,2.9 1.537,4.546 0,0.295 -0.022,0.598 -0.067,0.916 l 0.388,0.096 c 1.834,-2.598 4.79,-4.138 7.978,-4.138 1.864,0 3.664,0.525 5.226,1.523 2.187,-1.294 4.942,-1.397 7.268,-0.192 l 29.485,-52.144 c -0.085,-0.057 -0.168,-0.113 -0.247,-0.17 m 18.379,-38.431 c 0,-1.566 0.481,-3.065 1.395,-4.364 L -191.496,61.47 c -0.274,0.231 -0.573,0.446 -0.903,0.65 l 35.865,76.035 c 2.072,-0.637 4.143,-0.35 5.916,0.648 l 12.912,-19.773 c -1.729,-1.465 -2.71,-3.556 -2.71,-5.807 M -496.065,5.062 l 15.694,-1.696 10.126,-41.861 c -0.272,-0.106 -0.55,-0.236 -0.851,-0.397 l -28.78,39.816 c 1.667,0.996 2.999,2.442 3.811,4.138 m 199.35,169.375 -6.197,-66.254 c -2.198,-0.438 -4.084,-1.821 -5.174,-3.788 l -64.784,31.381 c 0.269,0.8 0.405,1.614 0.405,2.428 0,0.879 -0.149,1.739 -0.445,2.563 l 71.692,35.891 c 1.213,-1.238 2.785,-2.012 4.503,-2.221 M -91.256,34.416 -188.889,55.059 c 0.025,0.208 0.042,0.419 0.042,0.633 0,1.57 -0.48,3.066 -1.395,4.353 l 52.478,47.387 c 2.189,-1.888 5.315,-2.42 8.064,-1.185 L -88.767,37.94 c -1.137,-0.896 -2.004,-2.122 -2.489,-3.524 m -256.222,-58.138 c 0,0.335 -0.024,0.675 -0.072,1.016 l 103.605,18.559 c 0.309,-1.779 1.215,-3.353 2.595,-4.511 l -57.201,-102.417 c -1.852,0.771 -3.888,0.771 -5.749,-0.016 l -46.03,81.433 c 1.794,1.451 2.852,3.638 2.852,5.936 m -116.41,-15.203 14.484,36.758 c 0.749,-0.122 1.397,-0.057 2.047,0.144 l 26.001,-39.522 1.326,-2.021 c -1.306,-1.112 -2.186,-2.615 -2.52,-4.308 l -37.367,2.669 c -0.141,2.621 -1.655,5.011 -3.971,6.28 m 90.174,172.999 64.938,-31.454 c -0.185,-0.67 -0.275,-1.298 -0.275,-1.909 0,-1.419 0.393,-2.796 1.14,-4.008 l -46.361,-47.451 c -1.339,1.021 -2.956,1.58 -4.599,1.58 -0.251,0 -0.492,-0.021 -0.718,-0.05 l -17.938,80.262 c 1.576,0.56 2.906,1.617 3.813,3.03 m 179.602,-71.127 c -3.574,1.166 -7.197,-0.388 -8.954,-3.435 l -91.144,38.647 c 0.294,0.832 0.443,1.688 0.443,2.552 0,0.604 -0.096,1.164 -0.211,1.638 l 132.596,40.161 c 0.637,-1.509 1.723,-2.758 3.115,-3.586 z m 32.605,-93.409 c -0.564,0 -1.141,-0.076 -1.752,-0.229 l -29.687,79.608 c 1.672,0.883 2.959,2.362 3.611,4.152 l 97.661,-20.637 c -0.019,-0.164 -0.034,-0.331 -0.034,-0.503 0,-1.418 0.401,-2.799 1.165,-4.019 l -66.324,-59.98 c -1.346,1.039 -2.977,1.608 -4.64,1.608 m -78.241,20.774 c 1.055,-0.515 2.16,-0.775 3.292,-0.775 2.933,0 5.564,1.653 6.847,4.255 l 60.872,-29.446 c -0.272,-0.792 -0.409,-1.613 -0.409,-2.447 0,-0.995 0.203,-1.981 0.603,-2.933 l -62.955,-36.03 -63.81,-36.496 c -0.442,0.59 -0.972,1.113 -1.584,1.563 z m -58.472,117.317 c -0.894,0.421 -1.825,0.661 -2.774,0.716 l 6.195,66.107 c 3.755,0.485 6.64,3.712 6.65,7.527 l 64.758,20.585 c 0.351,-0.762 0.818,-1.448 1.394,-2.047 z m 130.331,-141.589 -13.755,6.654 -47.358,22.911 c 0.13,0.569 0.191,1.076 0.191,1.572 0,2.381 -1.102,4.607 -2.972,6.051 l 31.764,45.705 c 1.477,-0.782 3.096,-1.06 4.717,-0.796 l 29.754,-79.795 c -0.945,-0.592 -1.743,-1.377 -2.341,-2.302 m -131.206,127.404 58.159,-90.09 c -0.7,-0.513 -1.305,-1.142 -1.805,-1.875 L -351.455,41.47 c 0.145,0.609 0.217,1.175 0.217,1.717 0,1.717 -0.592,3.382 -1.675,4.739 l 46.217,47.299 c 1.977,-1.914 4.782,-2.687 7.601,-1.781 m 97.528,-43.422 -31.87,-45.844 c -0.974,0.427 -1.988,0.643 -3.019,0.643 -0.959,0 -1.902,-0.185 -2.813,-0.552 l -58.096,89.988 c 0.9,0.569 1.675,1.32 2.272,2.206 l 90.573,-38.396 0.711,-0.303 c -0.206,-0.692 -0.31,-1.388 -0.31,-2.072 0,-2.171 0.924,-4.212 2.552,-5.67 m -150.526,-10.351 44.616,-16.396 63.853,-23.488 c -0.234,-0.646 -0.379,-1.325 -0.433,-2.027 l -104.009,-18.631 c -1.09,2.704 -3.621,4.555 -6.505,4.763 l -2.922,51.807 c 2.315,0.424 4.323,1.901 5.4,3.972 M -161.92,144.325 -294.584,104.15 c -0.484,0.948 -1.163,1.789 -1.994,2.471 l 76.044,92.682 c 2.687,-1.711 6.347,-1.503 8.861,0.532 l 51.465,-49.467 c -1.163,-1.381 -1.799,-3.102 -1.799,-4.9 0,-0.386 0.029,-0.769 0.087,-1.143 M -443.965,3.094 -365.331,39.17 c 1.298,-2.098 3.509,-3.442 5.938,-3.61 l 2.929,-51.712 0.004,-0.079 c -2.371,-0.422 -4.414,-1.935 -5.486,-4.064 L -444.04,1.619 c 0.071,0.324 0.106,0.633 0.106,0.935 0,0.18 -0.01,0.359 -0.031,0.54 m 81.396,-28.42 -45.977,-20.128 c -1.378,2.315 -3.844,3.734 -6.543,3.734 -1.168,0 -2.294,-0.27 -3.355,-0.804 l -27.228,41.396 c 0.332,0.278 0.631,0.611 0.883,0.985 l 82.227,-21.951 c -0.134,-0.571 -0.2,-1.107 -0.2,-1.628 0,-0.512 0.062,-1.03 0.193,-1.604 m 73.097,225.934 c 3.107,0.066 5.772,2.316 6.4,5.352 l 59.036,-1.018 c 0.02,-0.192 0.047,-0.38 0.081,-0.566 l -64.447,-20.485 c -0.533,2.1 -1.941,3.88 -3.877,4.889 z m -160.081,-91.4 84.032,-62.278 c -0.649,-1.148 -0.99,-2.432 -0.99,-3.743 0,-0.765 0.122,-1.52 0.373,-2.297 L -444.556,4.912 c -0.751,1.316 -2.095,2.204 -3.605,2.38 l -5.531,99.685 c 1.584,0.289 3.026,1.066 4.139,2.231 M -452.974,0.393 c 0.397,-0.782 1.018,-1.444 1.789,-1.911 l -14.477,-36.709 c -0.637,0.176 -1.255,0.262 -1.878,0.262 -0.302,0 -0.589,-0.025 -0.862,-0.059 l -9.963,41.169 z m 415.883,86.283 -88.142,25.357 c 0.064,0.415 0.095,0.807 0.095,1.19 0,0.504 -0.061,1.016 -0.19,1.583 l 25.299,8.824 c 1.474,-0.801 3.034,-1.208 4.637,-1.208 3.939,0 7.435,2.331 8.972,5.958 l 23.785,8.292 28.78,-39.621 c -0.208,-0.161 -0.415,-0.33 -0.608,-0.519 l -0.003,-0.004 c -2.573,-2.571 -3.555,-6.351 -2.625,-9.852 m -292.706,128.685 33.503,-7.638 c -0.016,-0.136 -0.025,-0.273 -0.025,-0.414 0,-3.04 2.056,-5.68 4.96,-6.463 l -2.714,-11.422 c -0.62,0.154 -1.175,0.227 -1.716,0.227 -2.994,0 -5.649,-1.712 -6.902,-4.404 l -38.311,17.58 c 0.622,-0.125 1.267,-0.19 1.925,-0.19 5.384,0 9.764,4.38 9.764,9.763 0,0.984 -0.163,1.978 -0.484,2.961 m -35.537,-1.366 16.492,-1.637 c 0.014,-3.113 1.491,-5.887 3.78,-7.667 z m 62.921,-35.806 -71.378,-35.735 c -1.428,2.134 -3.759,3.395 -6.324,3.395 -0.531,0 -1.072,-0.066 -1.643,-0.203 l -26.015,72.548 36.633,-3.626 67.861,-31.141 c -0.104,-0.505 -0.155,-0.975 -0.155,-1.427 0,-1.342 0.352,-2.648 1.021,-3.811 m 264.651,-268.037 -121.957,-44.8 c -1.088,2.092 -3.119,3.575 -5.462,3.988 l 4.246,84.93 c 2.632,0.205 4.931,1.711 6.164,4.038 l 117.03,-44.64 c -0.164,-0.627 -0.244,-1.22 -0.244,-1.797 0,-0.557 0.071,-1.113 0.223,-1.719 m -12.769,232.75 -11.289,-3.936 -7.135,9.831 16.622,0.793 c -0.05,-0.394 -0.074,-0.753 -0.074,-1.102 0,-1.997 0.661,-3.955 1.876,-5.586 m -194.555,109.629 15.325,2.947 67.149,-21.811 -23.986,-17.048 c -1.381,1.158 -3.101,1.791 -4.885,1.791 -0.426,0 -0.858,-0.038 -1.286,-0.115 -1.851,2.433 -4.727,3.875 -7.758,3.875 -1.251,0 -2.48,-0.241 -3.657,-0.717 l -41.669,27.243 c 0.532,1.076 0.801,2.198 0.801,3.34 0,0.167 -0.014,0.331 -0.034,0.495 m -152.294,-384.26 -55.905,-0.485 c -0.472,4.989 -4.639,8.83 -9.689,8.83 -0.351,0 -0.725,-0.026 -1.133,-0.078 l -3.579,70.211 c 0.048,-0.003 0.096,-0.004 0.146,-0.004 1.591,0 3.11,0.501 4.421,1.454 l 67.179,-72.686 c -1.162,-1.374 -1.795,-3.099 -1.795,-4.907 0,-0.81 0.119,-1.592 0.355,-2.335 m 313.903,325.441 -12.228,-8.1 -22.961,31.605 c 0.688,0.786 1.251,1.672 1.679,2.643 l 33.446,-22.07 c -0.263,-0.644 -0.396,-1.302 -0.396,-1.959 0,-0.723 0.155,-1.434 0.46,-2.119 m -287.486,22.861 -27.307,12.528 c 0.132,0.641 0.197,1.241 0.198,1.825 l 51.927,-11.841 c -1.244,-1.316 -2.102,-2.956 -2.468,-4.727 z m -56.233,7.634 10.248,3.325 c 1.003,-2.688 3.161,-4.81 5.882,-5.768 l 0.452,-1.261 -16.376,1.626 c -0.003,0.715 -0.072,1.411 -0.206,2.078 M -508.833,18.174 c -1.2,-0.535 -2.299,-1.337 -3.217,-2.348 l -21.289,15.705 v 50.941 c 1.143,-0.14 2.321,-0.084 3.459,0.167 z m 37.038,196.713 24.81,4.455 c 0.339,-1.187 0.902,-2.305 1.676,-3.335 l -35.779,-32.95 c -1.791,1.588 -4.064,2.457 -6.454,2.457 -5.391,0 -9.776,-4.383 -9.776,-9.77 0,-4.69 3.414,-8.721 8.017,-9.566 l -1.235,-15.725 -35.872,-49.377 c -4.061,2.729 -9.407,2.244 -12.894,-1.235 -3.952,-3.957 -3.983,-10.371 -0.124,-14.332 l -19.192,-22.607 c -0.133,0.093 -0.269,0.185 -0.407,0.274 l 71.53,140.385 c 1.45,-0.638 2.95,-0.96 4.466,-0.96 6.226,0 11.292,5.065 11.292,11.292 0,0.308 -0.019,0.632 -0.058,0.994 M -556.664,46.226 -535.36,30.513 v -95.966 c -1.862,-0.431 -3.554,-1.371 -4.915,-2.732 -3.982,-3.982 -3.982,-10.471 10e-4,-14.467 1.431,-1.425 3.227,-2.376 5.216,-2.768 l -2.546,-25.666 c -0.113,0.013 -0.226,0.022 -0.342,0.022 -0.026,0 -0.051,-0.001 -0.075,-0.002 L -562.384,42.75 c 2.209,0.555 4.212,1.771 5.72,3.476 m 286.618,-313.462 c 0.501,0.535 0.941,1.119 1.313,1.743 l 22.482,-10.705 z m 197.554,65.898 -41.343,-6.374 c -0.334,1.195 -0.894,2.317 -1.669,3.345 l 43.267,39.941 c 1.799,-1.58 4.071,-2.446 6.448,-2.447 l 2.233,-21.513 c -5.318,-1.026 -9.129,-5.595 -9.129,-11.038 0,-0.603 0.061,-1.208 0.193,-1.914 m 92.74,172.917 c -0.227,0 -0.454,-0.025 -0.68,-0.053 L -5.91,132.417 c 4.467,1.622 7.438,5.812 7.438,10.556 0,6.227 -5.063,11.292 -11.287,11.292 -2.614,0 -5.152,-0.932 -7.198,-2.634 l -113.08,113.068 c 1.344,1.912 2.052,4.122 2.052,6.42 0,6.224 -5.066,11.287 -11.292,11.287 -5.128,0 -9.533,-3.394 -10.869,-8.31 l -161.268,25.543 c -0.319,5.926 -5.281,10.678 -11.254,10.678 -6.227,0 -11.293,-5.063 -11.293,-11.286 0,-1.801 0.44,-3.541 1.31,-5.18 l -142.07,-72.388 c -2.149,2.37 -5.155,3.722 -8.308,3.722 -6.227,0 -11.292,-5.066 -11.292,-11.292 0,-3.794 1.88,-7.262 5.051,-9.365 L -560.8,64.125 c -1.389,0.583 -2.835,0.877 -4.305,0.877 -6.227,0 -11.293,-5.065 -11.293,-11.292 0,-6.223 5.066,-11.286 11.293,-11.286 0.245,0 0.483,0.025 0.721,0.056 l 24.357,-153.787 c -5.285,-0.992 -9.211,-5.655 -9.211,-11.049 0,-6.224 5.065,-11.287 11.292,-11.287 1.726,0 3.422,0.417 5.047,1.241 l 116.494,-116.487 c -1.162,-1.824 -1.775,-3.906 -1.775,-6.048 0,-6.227 5.067,-11.293 11.293,-11.293 4.465,0 8.458,2.597 10.281,6.649 l 161.132,-25.519 c -0.017,-0.152 -0.031,-0.307 -0.031,-0.465 0,-6.227 5.063,-11.292 11.286,-11.292 6.227,0 11.292,5.065 11.292,11.292 0,1.682 -0.402,3.345 -1.197,4.952 l 144.441,73.601 c 2.148,-2.363 5.15,-3.71 8.297,-3.71 6.224,0 11.286,5.068 11.286,11.298 0,3.837 -2.013,7.436 -5.287,9.506 L 15.869,-50.079 C 17.29,-50.69 18.761,-51 20.248,-51 c 6.231,0 11.299,5.063 11.299,11.287 0,6.226 -5.068,11.292 -11.299,11.292"
         style="fill:#ffffff;fill-opacity:1;fill-rule:nonzero;stroke:none"
         id="path42868"
         inkscape:connector-curvature="0" /></g><g
       id="g42870"
       transform="translate(294.0771,184.3555)"><path
         d="m 0,0 c 0,-22.024 -17.854,-39.879 -39.878,-39.879 -22.025,0 -39.879,17.855 -39.879,39.879 0,22.023 17.854,39.878 39.879,39.878 C -17.854,39.878 0,22.023 0,0"
         style="fill:#ffffff;fill-opacity:1;fill-rule:nonzero;stroke:none"
         id="path42872"
         inkscape:connector-curvature="0" /></g><path
       d="m 264.236,175.328 h -20.079 v 25.413 h 20.079 z m -10.038,-7.411 c -1.391,0 -2.515,1.108 -2.515,2.479 0,1.369 1.124,2.478 2.515,2.478 1.389,0 2.517,-1.109 2.517,-2.478 0,-1.371 -1.128,-2.479 -2.517,-2.479 m 9.423,36.889 h -18.845 c -2.492,0 -4.506,-1.987 -4.506,-4.44 v -32.022 c 0,-2.453 2.014,-4.44 4.506,-4.44 h 18.845 c 2.488,0 4.507,1.987 4.507,4.44 v 32.022 c 0,2.453 -2.019,4.44 -4.507,4.44"
       style="fill:#00a198;fill-opacity:1;fill-rule:nonzero;stroke:none"
       id="path42874"
       inkscape:connector-curvature="0" /><g
       id="g42876"
       transform="translate(416.1328,290.9258)"><path
         d="m 0,0 c 0,-22.024 -17.854,-39.879 -39.878,-39.879 -22.024,0 -39.879,17.855 -39.879,39.879 0,22.024 17.855,39.879 39.879,39.879 C -17.854,39.879 0,22.024 0,0"
         style="fill:#ffffff;fill-opacity:1;fill-rule:nonzero;stroke:none"
         id="path42878"
         inkscape:connector-curvature="0" /></g><g
       id="g42880"
       transform="translate(366.4517,280.4717)"><path
         d="M 0,0 C 0.042,0.038 0.083,0.069 0.126,0.104 0.153,0.125 0.182,0.146 0.21,0.165 2.728,2.798 6.352,4.399 10.329,4.354 v 0.007 c 0.055,0.002 0.109,-0.005 0.163,-0.002 0.056,-0.003 0.108,0.004 0.163,0.002 V 4.354 C 14.633,4.399 18.256,2.798 20.773,0.165 20.802,0.146 20.829,0.125 20.857,0.104 20.9,0.069 20.941,0.038 20.983,0 c 0.856,-0.744 1.048,-1.854 0.43,-2.477 l -1.887,-1.906 c -0.616,-0.621 -1.809,-0.523 -2.665,0.222 -0.021,0.018 -0.041,0.041 -0.063,0.06 l -0.005,-0.005 c -0.022,0.025 -0.044,0.048 -0.066,0.074 -0.072,0.086 -0.146,0.174 -0.224,0.254 -1.429,1.555 -3.535,2.503 -5.848,2.453 v -0.016 c -0.044,0.004 -0.085,0.014 -0.128,0.016 -0.011,0 -0.023,0.002 -0.035,0.002 -0.012,0 -0.022,-0.002 -0.034,-0.002 -0.045,-0.002 -0.086,-0.012 -0.129,-0.016 v 0.016 C 8.015,-1.275 5.908,-2.223 4.479,-3.778 4.403,-3.858 4.329,-3.946 4.255,-4.032 4.235,-4.058 4.213,-4.081 4.19,-4.106 L 4.187,-4.101 C 4.161,-4.12 4.144,-4.143 4.122,-4.161 3.268,-4.906 2.072,-5.004 1.456,-4.383 l -1.885,1.906 C -1.048,-1.854 -0.854,-0.744 0,0"
         style="fill:#00a198;fill-opacity:1;fill-rule:nonzero;stroke:none"
         id="path42882"
         inkscape:connector-curvature="0" /></g><g
       id="g42884"
       transform="translate(348.5581,301.7607)"><path
         d="M 0,0 C 0.055,0.061 0.115,0.123 0.179,0.179 0.258,0.25 0.344,0.308 0.43,0.365 7.735,6.95 17.638,10.847 28.386,10.558 39.132,10.847 49.036,6.95 56.341,0.365 56.428,0.308 56.514,0.25 56.592,0.179 56.655,0.123 56.716,0.061 56.771,0 c 0.683,-0.749 0.716,-1.83 0.034,-2.518 l -2.257,-2.274 c -0.659,-0.664 -1.76,-0.73 -2.599,-0.203 l -0.005,-0.006 c -0.015,0.014 -0.033,0.027 -0.049,0.041 -0.076,0.053 -0.152,0.107 -0.227,0.172 -0.103,0.087 -0.19,0.184 -0.268,0.282 C 45.412,0.843 37.322,4 28.549,3.753 V 3.749 c -0.055,0.002 -0.108,0 -0.163,0.002 -0.055,-0.002 -0.109,0 -0.163,-0.002 V 3.753 C 19.449,4 11.358,0.843 5.371,-4.506 5.293,-4.604 5.203,-4.701 5.103,-4.788 5.029,-4.853 4.952,-4.907 4.876,-4.96 4.859,-4.974 4.842,-4.987 4.826,-5.001 L 4.821,-4.995 C 3.982,-5.522 2.881,-5.456 2.222,-4.792 l -2.255,2.274 C -0.717,-1.83 -0.684,-0.749 0,0"
         style="fill:#00a198;fill-opacity:1;fill-rule:nonzero;stroke:none"
         id="path42886"
         inkscape:connector-curvature="0" /></g><g
       id="g42888"
       transform="translate(358.3276,290.8779)"><path
         d="m 0,0 c 0.086,0.069 0.173,0.136 0.267,0.196 4.68,4.473 11.137,7.192 18.186,7.158 v 0.002 c 0.055,0 0.109,-0.002 0.163,-0.002 0.056,0 0.109,0.002 0.163,0.002 V 7.354 C 25.827,7.388 32.283,4.669 36.964,0.196 37.059,0.136 37.147,0.069 37.232,0 c 0.034,-0.033 0.067,-0.065 0.103,-0.098 0.759,-0.747 0.856,-1.845 0.197,-2.508 L 35.429,-4.73 c -0.64,-0.65 -1.772,-0.656 -2.615,-0.05 -0.06,0.046 -0.122,0.091 -0.179,0.139 -0.153,0.136 -0.283,0.286 -0.388,0.442 C 28.731,-0.88 23.89,1.104 18.616,1.025 13.341,1.104 8.5,-0.88 4.985,-4.199 4.88,-4.355 4.749,-4.505 4.596,-4.641 4.539,-4.689 4.479,-4.734 4.416,-4.78 3.574,-5.386 2.442,-5.38 1.803,-4.73 l -2.104,2.124 c -0.658,0.663 -0.56,1.761 0.198,2.508 C -0.067,-0.065 -0.034,-0.033 0,0"
         style="fill:#00a198;fill-opacity:1;fill-rule:nonzero;stroke:none"
         id="path42890"
         inkscape:connector-curvature="0" /></g><g
       id="g42892"
       transform="translate(376.9438,272.6738)"><path
         d="m 0,0 c 2.575,0 4.662,-2.055 4.662,-4.591 0,-2.537 -2.087,-4.594 -4.662,-4.594 -2.573,0 -4.661,2.057 -4.661,4.594 C -4.661,-2.055 -2.573,0 0,0"
         style="fill:#00a198;fill-opacity:1;fill-rule:nonzero;stroke:none"
         id="path42894"
         inkscape:connector-curvature="0" /></g><g
       id="g42896"
       transform="translate(171.3525,312.6846)"><path
         d="m 0,0 c 0,-22.024 -17.854,-39.879 -39.879,-39.879 -22.024,0 -39.878,17.855 -39.878,39.879 0,22.024 17.854,39.878 39.878,39.878 C -17.854,39.878 0,22.024 0,0"
         style="fill:#ffffff;fill-opacity:1;fill-rule:nonzero;stroke:none"
         id="path42898"
         inkscape:connector-curvature="0" /></g><g
       id="g42900"
       transform="translate(123.5635,309.3643)"><path
         d="M 0,0 C -1.885,4.352 0.168,9.388 4.586,11.242 9.003,13.103 14.112,11.077 15.998,6.725 17.882,2.373 15.829,-2.661 11.412,-4.52 6.993,-6.377 1.883,-4.353 0,0 m -11.823,-7.852 c 0,0 0.301,-0.756 1.743,-0.207 l 3.944,1.049 c 0,0 1.14,0.344 2.356,-0.719 0,0 1.695,-1.134 1.571,-2.073 l -1.101,-5.482 c 0,0 -0.355,-0.923 0.716,-1.524 l 4.411,-1.649 c 0,0 1.228,-0.117 1.555,0.874 l 1.921,3.456 c 0,0 0.636,1.509 2.695,1.408 0,0 2.078,0.183 2.806,-0.916 l 2.518,-4.131 c 0,0 0.454,-1.049 1.808,-0.425 l 3.909,1.642 c 0,0 1.096,0.71 0.762,1.674 l -1.221,4.176 c 0,0 -0.542,1.126 0.597,2.376 0,0 1.216,1.974 2.899,1.578 l 4.679,-1.096 c 0,0 0.967,-0.421 1.812,0.928 l 1.505,3.696 c 0,0 0.464,1.327 -0.851,1.905 L 25.34,0.897 c 0,0 -1.078,0.485 -1.018,2.416 0,0 -0.293,2.168 1.092,2.915 l 3.798,2.287 c 0,0 1.246,0.55 0.715,1.843 l -1.615,3.6 c 0,0 -0.525,1.408 -2.064,0.954 l -4.414,-1.386 c 0,0 -1.523,0.022 -2.465,1.034 0,0 -1.571,1.493 -1.089,2.771 l 1.018,4.335 c 0,0 0.262,1.269 -0.712,1.73 l -4.564,1.705 c 0,0 -0.983,0.059 -1.287,-0.686 l -2.565,-4.52 c 0,0 -1.198,-0.986 -2.853,-0.66 0,0 -1.721,0.161 -2.124,0.57 0,0 -2.598,4.318 -2.722,4.542 0,0 -0.483,0.983 -1.487,0.59 l -4.181,-1.731 c 0,0 -0.841,-0.518 -0.631,-1.26 l 1.485,-5.502 c 0,0 -0.314,-1.345 -1.281,-2.083 0,0 -1.703,-1.24 -2.525,-1.09 l -4.563,1.092 c 0,0 -1.322,0.466 -1.842,-0.664 l -1.71,-4.141 c 0,0 -0.327,-0.856 0.576,-1.387 l 4.484,-2.53 c 0,0 1.427,-0.646 1.009,-3.111 0,0 0.085,-1.81 -1.73,-2.795 -1.815,-0.983 -3.376,-1.972 -3.376,-1.972 0,0 -0.999,-0.473 -0.568,-1.535 0.431,-1.062 2.046,-4.08 2.046,-4.08"
         style="fill:#00a198;fill-opacity:1;fill-rule:nonzero;stroke:none"
         id="path42902"
         inkscape:connector-curvature="0" /></g><g
       id="g42904"
       transform="translate(266.1338,384.9609)"><path
         d="m 0,0 c 0,-22.024 -17.854,-39.879 -39.878,-39.879 -22.025,0 -39.879,17.855 -39.879,39.879 0,22.024 17.854,39.878 39.879,39.878 C -17.854,39.878 0,22.024 0,0"
         style="fill:#ffffff;fill-opacity:1;fill-rule:nonzero;stroke:none"
         id="path42906"
         inkscape:connector-curvature="0" /></g><g
       id="g42908"
       transform="translate(248.0884,379.0811)"><path
         d="m 0,0 c 0,-1.715 -1.403,-3.117 -3.117,-3.117 h -33.268 c -1.714,0 -3.117,1.402 -3.117,3.117 v 18.302 c 0,1.714 1.403,3.117 3.117,3.117 H -3.117 C -1.403,21.419 0,20.016 0,18.302 Z m 0.738,26.399 h -40.974 c -1.974,0 -3.581,-1.579 -3.581,-3.525 V -4.562 c 0,-1.945 1.607,-3.523 3.581,-3.523 h 16.052 v -3.329 h -14.344 c -1.076,0 -1.958,-0.882 -1.958,-1.959 0,-1.077 0.882,-1.958 1.958,-1.958 h 38.099 c 1.078,0 1.959,0.881 1.959,1.958 0,1.077 -0.881,1.959 -1.959,1.959 h -13.06 v 3.329 H 0.738 c 1.976,0 3.577,1.578 3.577,3.523 v 27.436 c 0,1.946 -1.601,3.525 -3.577,3.525"
         style="fill:#00a198;fill-opacity:1;fill-rule:nonzero;stroke:none"
         id="path42910"
         inkscape:connector-curvature="0" /></g><g
       id="g42912"
       transform="translate(683.9629,496.9492)"><path
         d="m 0,0 c 0,-22.024 -17.854,-39.878 -39.878,-39.878 -22.024,0 -39.879,17.854 -39.879,39.878 0,22.024 17.855,39.878 39.879,39.878 C -17.854,39.878 0,22.024 0,0"
         style="fill:#ffffff;fill-opacity:1;fill-rule:nonzero;stroke:none"
         id="path42914"
         inkscape:connector-curvature="0" /></g><g
       id="g42916"
       transform="translate(642.8115,476.3955)"><path
         d="m 0,0 v 16.567 c 0,2.162 -1.781,3.919 -3.974,3.919 -2.196,0 -3.975,-1.757 -3.975,-3.919 V 0 Z"
         style="fill:#00a198;fill-opacity:1;fill-rule:nonzero;stroke:none"
         id="path42918"
         inkscape:connector-curvature="0" /></g><g
       id="g42920"
       transform="translate(653.3096,476.3955)"><path
         d="m 0,0 v 27.092 c 0,2.163 -1.777,3.917 -3.974,3.917 -2.196,0 -3.975,-1.754 -3.975,-3.917 V 0 Z"
         style="fill:#00a198;fill-opacity:1;fill-rule:nonzero;stroke:none"
         id="path42922"
         inkscape:connector-curvature="0" /></g><g
       id="g42924"
       transform="translate(663.8105,476.3955)"><path
         d="m 0,0 v 37.186 c 0,2.164 -1.778,3.921 -3.973,3.921 -2.195,0 -3.978,-1.757 -3.978,-3.921 L -7.951,0 Z"
         style="fill:#00a198;fill-opacity:1;fill-rule:nonzero;stroke:none"
         id="path42926"
         inkscape:connector-curvature="0" /></g><g
       id="g42928"
       transform="translate(632.3115,476.3955)"><path
         d="m 0,0 v 6.403 c 0,2.162 -1.779,3.918 -3.974,3.918 -2.195,0 -3.979,-1.756 -3.979,-3.918 V 0 Z"
         style="fill:#00a198;fill-opacity:1;fill-rule:nonzero;stroke:none"
         id="path42930"
         inkscape:connector-curvature="0" /></g><g
       id="g42932"
       transform="translate(553.0801,372.7354)"><path
         d="m 0,0 c 0,-22.024 -17.854,-39.879 -39.879,-39.879 -22.024,0 -39.879,17.855 -39.879,39.879 0,22.024 17.855,39.878 39.879,39.878 C -17.854,39.878 0,22.024 0,0"
         style="fill:#ffffff;fill-opacity:1;fill-rule:nonzero;stroke:none"
         id="path42934"
         inkscape:connector-curvature="0" /></g><g
       id="g42936"
       transform="translate(513.2012,359.6484)"><path
         d="m 0,0 -9.814,13.087 h 6.543 v 9.814 h 6.542 v -9.814 h 6.543 z m 16.357,16.358 c 0,7.227 -5.859,13.087 -13.086,13.087 -4.901,0 -9.174,-2.697 -11.412,-6.683 -0.543,0.088 -1.105,0.139 -1.673,0.139 -4.429,0 -8.18,-2.932 -9.397,-6.97 -4.029,-1.234 -6.962,-4.972 -6.962,-9.387 0,-5.422 4.374,-9.815 9.847,-9.815 h 32.651 c 5.439,0 9.848,4.41 9.848,9.815 0,5.405 -4.359,9.799 -9.816,9.814"
         style="fill:#00a198;fill-opacity:1;fill-rule:nonzero;stroke:none"
         id="path42938"
         inkscape:connector-curvature="0" /></g><g
       id="g42940"
       transform="translate(572.9121,192.0898)"><path
         d="m 0,0 c 0,-22.025 -17.854,-39.879 -39.878,-39.879 -22.024,0 -39.879,17.854 -39.879,39.879 0,22.023 17.855,39.878 39.879,39.878 C -17.854,39.878 0,22.023 0,0"
         style="fill:#ffffff;fill-opacity:1;fill-rule:nonzero;stroke:none"
         id="path42942"
         inkscape:connector-curvature="0" /></g><g
       id="g42944"
       transform="translate(545.6963,184.4922)"><path
         d="m 0,0 c -1.74,0 -3.339,-0.592 -4.62,-1.576 l -13.218,7.93 c 0.067,0.406 0.11,0.82 0.11,1.244 0,0.425 -0.043,0.838 -0.11,1.242 l 13.218,7.931 c 1.281,-0.986 2.88,-1.576 4.62,-1.576 4.196,0 7.599,3.403 7.599,7.598 0,4.195 -3.403,7.598 -7.599,7.598 -4.195,0 -7.597,-3.403 -7.597,-7.598 0,-0.424 0.043,-0.838 0.111,-1.244 l -13.219,-7.93 c -1.28,0.985 -2.879,1.576 -4.62,1.576 -4.196,0 -7.599,-3.402 -7.599,-7.597 0,-4.196 3.403,-7.598 7.599,-7.598 1.741,0 3.34,0.592 4.62,1.576 l 13.219,-7.93 c -0.068,-0.406 -0.111,-0.82 -0.111,-1.244 0,-4.197 3.402,-7.597 7.597,-7.597 4.196,0 7.599,3.4 7.599,7.597 C 7.599,-3.402 4.196,0 0,0"
         style="fill:#00a198;fill-opacity:1;fill-rule:nonzero;stroke:none"
         id="path42946"
         inkscape:connector-curvature="0" /></g><g
       id="g42948"
       transform="translate(410.3662,511.3936)"><path
         d="m 0,0 c 0,-22.024 -17.854,-39.879 -39.878,-39.879 -22.025,0 -39.879,17.855 -39.879,39.879 0,22.024 17.854,39.878 39.879,39.878 C -17.854,39.878 0,22.024 0,0"
         style="fill:#ffffff;fill-opacity:1;fill-rule:nonzero;stroke:none"
         id="path42950"
         inkscape:connector-curvature="0" /></g><g
       id="g42952"
       transform="translate(373.855,531.5361)"><path
         d="m 0,0 c -0.666,-6.486 -2.911,-11.381 -4.29,-17.154 -5.219,2.183 -12.196,3.136 -18.378,1.224 1.25,5.496 3.021,10.465 4.291,15.93 C -13.829,3.725 -4.984,2.387 0,0"
         style="fill:#00a198;fill-opacity:1;fill-rule:nonzero;stroke:none"
         id="path42954"
         inkscape:connector-curvature="0" /></g><g
       id="g42956"
       transform="translate(376.9136,528.4756)"><path
         d="M 0,0 C 4.68,-2.738 12.379,-3.025 18.385,-1.232 16.56,-6.555 15.456,-12.594 13.479,-17.771 8.44,-20.439 -1.198,-20.242 -4.896,-16.545 -3.359,-10.934 -1.822,-5.33 0,0"
         style="fill:#00a198;fill-opacity:1;fill-rule:nonzero;stroke:none"
         id="path42958"
         inkscape:connector-curvature="0" /></g><g
       id="g42960"
       transform="translate(368.3394,511.3174)"><path
         d="m 0,0 c -0.954,-6.191 -3.401,-10.887 -4.287,-17.15 -5.4,2.484 -12.284,4.146 -18.375,1.226 0.77,6.17 2.828,11.049 4.285,16.537 C -13.658,3.539 -4.259,2.674 0,0"
         style="fill:#00a198;fill-opacity:1;fill-rule:nonzero;stroke:none"
         id="path42962"
         inkscape:connector-curvature="0" /></g><g
       id="g42964"
       transform="translate(371.4077,508.8721)"><path
         d="M 0,0 C 4.679,-3.307 12.501,-3.498 18.378,-1.225 16.643,-6.643 15.253,-12.398 13.481,-17.768 8.739,-20.99 -0.537,-20.496 -4.901,-17.154 -3.694,-11.012 -2.104,-5.258 0,0"
         style="fill:#00a198;fill-opacity:1;fill-rule:nonzero;stroke:none"
         id="path42966"
         inkscape:connector-curvature="0" /></g><g
       id="g42968"
       transform="translate(682.4883,333.79)"><path
         d="m 0,0 c 0,-22.024 -17.854,-39.879 -39.878,-39.879 -22.024,0 -39.879,17.855 -39.879,39.879 0,22.024 17.855,39.879 39.879,39.879 C -17.854,39.879 0,22.024 0,0"
         style="fill:#ffffff;fill-opacity:1;fill-rule:nonzero;stroke:none"
         id="path42970"
         inkscape:connector-curvature="0" /></g><g
       id="g42972"
       transform="translate(657.5078,333.79)"><path
         d="m 0,0 c 0,-1.647 -1.333,-2.98 -2.979,-2.98 h -11.918 c -1.647,0 -2.98,1.333 -2.98,2.98 v 11.918 c 0,1.646 1.333,2.979 2.98,2.979 1.645,0 2.979,-1.333 2.979,-2.979 V 2.979 h 8.939 C -1.333,2.979 0,1.646 0,0 m -14.897,-17.878 c -9.859,0 -17.878,8.019 -17.878,17.878 0,9.857 8.019,17.877 17.878,17.877 9.857,0 17.876,-8.02 17.876,-17.877 0,-9.859 -8.019,-17.878 -17.876,-17.878 m 0,41.714 c -13.165,0 -23.837,-10.673 -23.837,-23.836 0,-13.164 10.672,-23.837 23.837,-23.837 13.163,0 23.836,10.673 23.836,23.837 0,13.163 -10.673,23.836 -23.836,23.836"
         style="fill:#00a198;fill-opacity:1;fill-rule:nonzero;stroke:none"
         id="path42974"
         inkscape:connector-curvature="0" /></g><g
       id="g42976"
       transform="translate(507.2051,612.1514)"><path
         d="m 0,0 c 0,-22.024 -17.854,-39.878 -39.878,-39.878 -22.024,0 -39.879,17.854 -39.879,39.878 0,22.024 17.855,39.878 39.879,39.878 C -17.854,39.878 0,22.024 0,0"
         style="fill:#ffffff;fill-opacity:1;fill-rule:nonzero;stroke:none"
         id="path42978"
         inkscape:connector-curvature="0" /></g><g
       id="g42980"
       transform="translate(456.3242,588.9458)"><path
         d="m 0,0 h 21.995 v 19.517 c 0,6.064 -4.936,10.999 -10.996,10.999 C 4.93,30.516 0,25.581 0,19.517 Z M -1.736,19.517 V 4.38 h -8.273 v 13.652 c 0,4.181 3.401,7.581 7.585,7.581 0.745,0 1.45,-0.142 2.125,-0.343 -0.888,-1.736 -1.437,-3.671 -1.437,-5.753 M 32.015,4.38 h -8.284 v 15.137 c 0,2.082 -0.545,4.017 -1.438,5.753 0.679,0.201 1.391,0.343 2.136,0.343 4.178,0 7.586,-3.397 7.586,-7.581 z M 10.999,46.411 c -3.865,0 -7.015,-3.145 -7.015,-7.013 0,-3.868 3.146,-7.018 7.015,-7.018 3.868,0 7.015,3.15 7.015,7.018 0.004,3.868 -3.147,7.013 -7.015,7.013 M -2.428,36.93 c -2.618,0 -4.748,-2.125 -4.748,-4.746 0,-2.612 2.13,-4.736 4.748,-4.736 2.611,0 4.741,2.124 4.741,4.736 0,2.618 -2.13,4.746 -4.741,4.746 m 26.865,0 c -2.619,0 -4.742,-2.125 -4.742,-4.746 0,-2.612 2.123,-4.736 4.742,-4.736 2.618,0 4.747,2.124 4.747,4.736 0,2.618 -2.137,4.746 -4.747,4.746"
         style="fill:#00a198;fill-opacity:1;fill-rule:nonzero;stroke:none"
         id="path42982"
         inkscape:connector-curvature="0" /></g><g
       id="g42984"
       transform="translate(221.6992,600.293)"><path
         d="m 0,0 c 0,-22.024 -17.854,-39.879 -39.878,-39.879 -22.025,0 -39.879,17.855 -39.879,39.879 0,22.024 17.854,39.878 39.879,39.878 C -17.854,39.878 0,22.024 0,0"
         style="fill:#ffffff;fill-opacity:1;fill-rule:nonzero;stroke:none"
         id="path42986"
         inkscape:connector-curvature="0" /></g><g
       id="g42988"
       transform="translate(198.1138,589.5669)"><path
         d="m 0,0 h -37.085 c -2.187,-0.128 -3.395,0.9 -3.269,3.45 v 14.214 c 0.038,2.358 0.863,3.497 3.269,3.456 H 0 c 2.516,0.041 3.286,-1.15 3.267,-3.456 V 3.45 C 3.45,0.848 2.187,0.088 0,0 m 7.095,17.543 v 1.624 c 0,3.056 -2.517,5.542 -5.61,5.542 h -39.86 c -3.093,0 -5.61,-2.486 -5.61,-5.542 V 2.285 c 0,-3.056 2.517,-5.543 5.61,-5.543 h 39.86 c 3.093,0 5.61,2.487 5.61,5.543 v 2.187 c 2.476,0.586 4.304,2.788 4.304,5.369 v 2.335 c 0,2.582 -1.828,4.783 -4.304,5.367"
         style="fill:#00a198;fill-opacity:1;fill-rule:nonzero;stroke:none"
         id="path42990"
         inkscape:connector-curvature="0" /></g><path
       d="m 168.402,591.188 h 5.53 v 17.873 h -5.53 z"
       style="fill:#00a198;fill-opacity:1;fill-rule:nonzero;stroke:none"
       id="path42992"
       inkscape:connector-curvature="0" /><path
       d="m 182.23,609.062 h -5.532 v -17.873 h 5.532 z"
       style="fill:#00a198;fill-opacity:1;fill-rule:nonzero;stroke:none"
       id="path42994"
       inkscape:connector-curvature="0" /><g
       id="g42996"
       transform="translate(165.6367,609.0615)"><path
         d="m 0,0 h -2.811 c -2.19,0.036 -2.938,-0.926 -2.973,-2.924 v -12.027 c -0.119,-2.158 0.985,-3.028 2.973,-2.922 H 0 Z"
         style="fill:#00a198;fill-opacity:1;fill-rule:nonzero;stroke:none"
         id="path42998"
         inkscape:connector-curvature="0" /></g><g
       id="g43000"
       transform="translate(404.3936,695.791)"><path
         d="m 0,0 c 0,-22.024 -17.854,-39.878 -39.879,-39.878 -22.024,0 -39.878,17.854 -39.878,39.878 0,22.024 17.854,39.878 39.878,39.878 C -17.854,39.878 0,22.024 0,0"
         style="fill:#ffffff;fill-opacity:1;fill-rule:nonzero;stroke:none"
         id="path43002"
         inkscape:connector-curvature="0" /></g><g
       id="g43004"
       transform="translate(383.3911,697.5996)"><path
         d="M 0,0 -0.019,-17.499 -3.393,1.258 c -0.286,1.031 -1.45,0.96 -1.45,0.96 H -33.514 V 8.171 H 0.001 V 0 Z m 1.833,-16.797 0.01,26.808 c -0.005,0.823 -0.674,1.492 -1.495,1.492 h -18.909 c -0.583,0.014 -1.039,1.087 -1.039,1.499 v 0.171 c 0,0.874 -0.712,1.594 -1.592,1.594 h -10.062 c -0.876,0 -1.588,-0.719 -1.588,-1.594 v -0.171 c 0,-0.418 -0.46,-1.506 -1.058,-1.506 h 0.017 c -0.814,-0.012 -1.474,-0.675 -1.474,-1.491 l 0.006,-7.762 h -3.216 c 0,0 -1.424,0.077 -0.921,-1.618 l 3.393,-17.422 c 0,-0.878 0.611,-1.587 1.489,-1.587 H 1.1 c 0.877,0 0.733,1.587 0.733,1.587"
         style="fill:#00a198;fill-opacity:1;fill-rule:nonzero;stroke:none"
         id="path43006"
         inkscape:connector-curvature="0" /></g><g
       id="g43008"><g
         id="g43010"
         clip-path="url(#clipPath43014)"><g
           id="g43016"><g
             id="g43018"
             clip-path="url(#clipPath43022)"><g
               id="g43024"><g
                 id="g43026" /><g
                 id="g43046"><g
                   clip-path="url(#clipPath43030)"
                   id="g43044"
                   style="opacity:0.19999701"><g
                     transform="translate(1867.7441,-113.8154)"
                     id="g43034"><path
                       d="m 0,0 c -0.71,0.493 -1.469,0.937 -2.219,1.354 l 95.31,202.903 c 0.84,-0.293 1.694,-0.588 2.612,-0.74 3.377,-0.562 6.617,0.05 9.494,1.404 3.26,5.15 6.407,10.39 9.507,15.663 -0.08,1.86 -0.558,3.661 -1.249,5.346 4.139,0.172 8.278,1.44 11.919,4.042 8.165,5.846 11.117,16.158 8.081,25.203 l 77.699,40.649 c 1.162,-1.609 2.523,-3.112 4.056,-4.409 z m -392.28,-143.812 c -0.295,0.646 -0.651,1.26 -0.992,1.874 l 148.758,74.368 c 3.051,-5.368 8.336,-9.399 14.902,-10.492 11.578,-1.926 22.527,5.887 24.459,17.493 0.703,4.228 0.084,8.344 -1.533,11.987 l 28.984,14.643 c 0.216,-0.369 0.435,-0.725 0.67,-1.07 7.161,-10.035 21.115,-12.356 31.128,-5.179 5.827,4.154 8.967,10.587 9.234,17.208 l 98.413,-1.159 c 0.37,-2.45 1.103,-4.806 2.153,-7.008 z m -402.288,116.866 c 0.922,1.874 1.637,3.836 2.098,5.94 l 142.385,-5.92 c 0.573,-4.732 3.2,-8.974 7.106,-11.609 2.201,-0.881 4.396,-1.788 6.616,-2.629 5.746,-0.928 11.26,1.334 14.828,5.419 l 73.721,-42.672 c 0.258,-3.945 1.442,-7.85 3.897,-11.284 6.411,-8.954 18.21,-11.722 27.798,-7.083 l 79.476,-46.046 c -0.511,-0.984 -1.007,-1.971 -1.393,-3.031 z m -38.126,29.628 -220.303,308.231 c 2.557,1.186 4.898,2.823 6.904,4.779 l 93.791,-94.273 c -1.645,-2.462 -2.831,-5.249 -3.344,-8.33 -1.923,-11.565 5.901,-22.529 17.494,-24.459 7.282,-1.211 14.308,1.466 19.014,6.472 l 41.198,-82.427 c -0.511,-0.318 -1.047,-0.533 -1.521,-0.871 -10.039,-7.188 -12.356,-21.117 -5.182,-31.142 5.997,-8.356 16.675,-11.27 25.876,-7.874 l 29.209,-67.866 c -1.084,-0.667 -2.148,-1.392 -3.136,-2.24 m -224.941,714.687 c 5.827,0.225 11.272,2.485 15.472,6.201 l 43.45,-44.773 -36.388,-218.69 c -4.335,-0.098 -8.669,-1.446 -12.465,-4.16 -10.023,-7.162 -12.34,-21.091 -5.182,-31.14 2.874,-4.005 6.846,-6.748 11.219,-8.171 l -16.018,-59.301 c -0.599,0.156 -1.143,0.385 -1.752,0.486 -0.378,0.063 -0.759,0.03 -1.139,0.079 z m 230.934,336.256 c 2.954,-2.103 6.375,-3.657 10.199,-4.293 13.496,-2.246 26.246,6.878 28.49,20.361 0.18,1.082 0.247,2.153 0.273,3.218 l 59.981,0.767 c 0.22,-3.355 1.241,-6.649 3.006,-9.72 l -95.164,-62.264 c -3.17,4.318 -7.925,7.454 -13.611,8.401 -11.593,1.928 -22.558,-5.896 -24.487,-17.488 -1.769,-10.632 4.743,-20.644 14.782,-23.731 l -9.052,-36.467 -100.823,-99.268 c -7.567,7.854 -19.858,9.247 -28.979,2.738 -10.024,-7.175 -12.343,-21.105 -5.18,-31.127 0.12,-0.2 0.277,-0.337 0.401,-0.51 l -53.596,-45.327 c -0.719,0.772 -1.486,1.497 -2.29,2.17 z m 387.086,141.565 c 3.403,-6.924 9.928,-12.19 18.127,-13.554 9.147,-1.522 17.842,2.252 23.217,9.022 l 44.57,-45.889 c -4.219,-4.575 -6.269,-10.635 -5.857,-16.673 l -255.844,-38.458 c -2.13,7.726 -8.508,13.952 -16.952,15.358 -11.578,1.926 -22.534,-5.915 -24.459,-17.493 -0.232,-1.392 -0.31,-2.78 -0.287,-4.145 l -26.575,-4.006 c -0.599,3.071 -1.785,6.045 -3.711,8.739 -7.173,10.039 -21.117,12.359 -31.154,5.184 -5.817,-4.169 -8.959,-10.615 -9.218,-17.264 l -60.053,-0.769 c -0.189,3.197 -0.937,6.294 -2.265,9.082 z m 403.183,-114.167 c -0.31,-1.032 -0.66,-2.043 -0.841,-3.137 -0.07,-0.418 -0.036,-0.799 -0.077,-1.209 l -63.415,4.387 c -1.7,8.392 -8.34,15.286 -17.285,16.774 -11.578,1.927 -22.546,-5.911 -24.472,-17.49 -0.146,-0.877 -0.133,-1.713 -0.167,-2.581 l -79.573,-2.02 -93.534,48.595 c 1.501,6.094 0.528,12.769 -3.414,18.283 -7.175,10.024 -21.104,12.342 -31.127,5.179 -0.6,-0.44 -1.152,-0.918 -1.704,-1.395 l -44.83,46.154 c 1.49,2.279 2.687,4.801 3.371,7.575 z M 2.392,1054.417 216.776,754.431 c -0.24,-0.196 -0.447,-0.439 -0.69,-0.649 l -111.56,119.335 c 1.366,1.522 2.348,3.426 2.71,5.603 1.012,6.079 -3.11,11.846 -9.189,12.857 -0.757,0.126 -1.513,0.17 -2.252,0.153 L 0.658,1053.179 c 0.58,0.404 1.175,0.803 1.734,1.238 M 230.358,334.976 c -3.392,-0.116 -6.621,-0.995 -9.6,-2.372 l -31.756,60.639 c 5.18,3.095 9.066,8.267 10.135,14.684 1.436,8.633 -2.547,16.905 -9.444,21.356 l 1.752,2.18 c 0.045,0.269 0.103,0.539 0.148,0.808 0.179,1.081 0.319,2.168 0.499,3.25 l -4.263,-5.262 c -1.574,0.803 -3.247,1.428 -5.026,1.838 l 46.319,278.377 c 1.403,-0.164 2.782,-0.227 4.169,-0.153 z M 130.554,261.1 c -2.848,4 -6.802,6.602 -11.104,8.039 l 49.663,123.151 c 1.739,-0.816 3.567,-1.51 5.579,-1.845 4.337,-0.721 8.57,-0.064 12.31,1.631 l 31.683,-60.502 c -6.137,-3.589 -10.687,-9.732 -11.943,-17.285 -0.989,-5.944 0.287,-11.71 3.141,-16.503 l -77.212,-40.398 c -0.593,1.278 -1.274,2.529 -2.117,3.712 M -222.633,-36.112 c -11.456,1.906 -22.265,-5.738 -24.365,-17.106 l -76.059,5.755 142.291,21.393 c 0.377,-1.992 1.02,-3.96 1.946,-5.836 l -28.967,-14.618 c -3.072,5.315 -8.319,9.326 -14.846,10.412 M -512.79,-94.881 c 1.799,1.298 3.326,2.793 4.62,4.48 l 70.061,-48.895 -75.678,43.845 c 0.327,0.21 0.669,0.347 0.997,0.57 m -107.189,61.154 72.625,-37.742 c -0.326,-1.376 -0.503,-2.776 -0.577,-4.221 l -72.154,41.815 c 0.035,0.05 0.072,0.099 0.106,0.148 m -303.833,261.569 15.941,34.307 c 2.037,-1.117 4.225,-1.981 6.642,-2.383 11.363,-1.891 22.071,5.63 24.299,16.853 l 130.315,-20.712 c 1.5,-3.914 4.489,-7.147 8.408,-8.965 L -796.844,94.725 c -1.152,0.497 -2.365,0.893 -3.661,1.109 -7.364,1.226 -14.324,-2.727 -17.402,-9.128 l -0.797,-1.95 c -0.255,-0.777 -0.523,-1.552 -0.667,-2.416 -0.242,-1.46 -0.205,-2.91 -0.07,-4.349 l 0.291,-2.089 c 0.375,-1.59 0.996,-3.11 1.818,-4.508 l -28.194,14.631 c 2.417,6.678 1.629,14.377 -2.793,20.597 -6.365,8.89 -18.036,11.68 -27.614,7.191 l -41.618,83.317 c 1.878,2.601 3.29,5.589 3.855,8.979 1.481,8.904 -2.814,17.38 -10.116,21.733 m -52.898,568.921 c 3.116,-1.13 6.464,-1.535 9.78,-1.211 l 23.678,-155.932 c -3.594,-0.734 -6.834,-2.43 -9.544,-4.784 l -43.413,44.739 z m 145.693,153.323 37.576,-97.014 c -2.543,-1.186 -4.714,-3.047 -6.359,-5.343 l -1.096,-1.747 c -0.858,-1.565 -1.54,-3.242 -1.847,-5.093 -0.684,-4.108 0.296,-8.074 2.319,-11.341 l -81.896,-58.626 c -1.751,1.998 -3.946,3.572 -6.492,4.55 l 38.617,155.73 z m -9.491,18.06 c 0.851,-0.142 1.7,-0.131 2.57,-0.163 l 3.44,-8.945 2.582,-6.595 -17.201,-16.937 8.119,32.777 c 0.176,-0.029 0.328,-0.11 0.49,-0.137 m 116.966,93.82 c 0.413,-0.528 0.887,-1.009 1.32,-1.498 l -82.079,-80.825 -11.691,6.834 c 0.586,4.774 -0.457,9.35 -2.712,13.238 z m 463.063,12.824 c -0.637,7.256 -6.061,13.461 -13.574,14.711 -6.457,1.075 -12.614,-1.802 -16.102,-6.83 l -30.904,31.813 c 2.067,2.239 3.658,4.793 4.657,7.542 l 89.331,-46.394 z m 183.252,-76.978 -63.575,-30.949 c -2.443,3.171 -6.014,5.487 -10.257,6.193 -1.162,0.193 -2.32,0.246 -3.455,0.185 -2.917,5.997 -8.545,10.558 -15.596,11.731 -2.987,0.497 -5.931,0.32 -8.685,-0.373 l -85.271,78.472 c 1.714,2.131 3.001,4.679 3.484,7.584 0.114,0.689 0.103,1.371 0.12,2.063 l 37.185,0.935 z m 52.123,54.586 -8.659,-23.76 c -0.215,0.05 -0.422,0.14 -0.637,0.176 -2.756,0.458 -5.412,-0.308 -7.5,-1.849 l -0.637,0.675 0.488,-0.816 c -0.506,-0.374 -0.971,-0.825 -1.382,-1.297 l -59.901,40.442 c 1.326,2.209 2.309,4.697 2.759,7.399 0.301,1.811 0.291,3.59 0.125,5.339 l 62.934,-4.348 c -0.207,-9.172 4.664,-17.534 12.41,-21.961 M 89.277,889.274 20.863,961.083 c 0.267,4.856 -0.961,9.823 -4.011,14.106 -4.381,6.131 -11.276,9.332 -18.279,9.303 l -27.02,28.363 c 1.062,1.296 1.847,2.845 2.146,4.642 0.722,4.337 -1.551,8.45 -5.289,10.349 l 8.574,23.495 c 1.926,-0.861 3.916,-1.581 6.092,-1.944 5.566,-0.925 10.951,0.15 15.567,2.604 L 93.34,891.334 c -1.51,-0.401 -2.862,-1.107 -4.063,-2.06 m 130.44,-175.666 -37.739,-73.443 c -2.534,1.211 -5.265,1.902 -8.051,2.103 l -11.457,97.609 c 8.337,1.459 15.234,7.948 16.7,16.756 1.858,11.175 -5.685,21.745 -16.871,23.606 -4.16,0.693 -8.236,0.066 -11.822,-1.544 l -48.014,92.613 c 0.111,0.078 0.245,0.14 0.358,0.232 L 214.374,752.179 c -3.409,-3.473 -5.912,-7.916 -6.774,-13.104 -1.743,-10.471 3.427,-20.452 12.117,-25.467 M 117.23,269.813 l 27.477,165.136 16.879,-10.375 c -2.177,-2.734 -3.77,-5.967 -4.386,-9.669 -1.474,-8.864 2.784,-17.32 10.056,-21.681 L 117.471,269.76 c -0.094,0.015 -0.173,0.043 -0.241,0.053 M -454.186,65.409 c 0.156,0.598 0.388,1.156 0.497,1.806 0.419,2.526 0.178,4.996 -0.496,7.287 l 210.57,76.69 c 2.153,-4.912 6.637,-8.671 12.312,-9.615 3.729,-0.62 7.351,0.123 10.45,1.816 l 53.349,-144.915 c -1.512,-0.651 -2.965,-1.381 -4.351,-2.372 -4.54,-3.244 -7.421,-7.887 -8.607,-12.924 z m -337.569,2.574 128.611,-76.672 -138.674,72.015 c 3.846,0.333 7.389,2.02 10.063,4.657 m 55.48,178.221 c 0.708,-0.243 1.433,-0.475 2.19,-0.6 2.404,-0.401 4.767,-0.225 6.964,0.381 L -685.51,123.74 -640.067,-9.863 c -2.937,-1.205 -5.457,-3.257 -7.245,-5.904 l -143.053,85.339 c 1.624,2.09 2.854,4.565 3.324,7.389 1.151,6.917 -2.236,13.506 -7.942,16.844 z m -7.454,112.092 -10.816,78.01 c 6.469,1.327 11.764,6.444 12.912,13.347 0.321,1.932 0.222,3.836 -0.095,5.695 l 45.035,11.388 68.314,17.304 c 0.967,-4.131 3.505,-7.732 7.051,-10.03 l -53.157,-101.439 -50.262,-95.88 c -1.239,0.568 -2.537,1.02 -3.956,1.256 -1.324,0.22 -2.628,0.229 -3.92,0.139 z m -121.575,109.199 c 2.7,2.036 4.73,4.892 5.765,8.275 l 85.611,-20.605 c -0.01,-0.066 -0.042,-0.09 -0.049,-0.13 -1.488,-8.944 4.563,-17.392 13.479,-18.876 1.324,-0.221 2.642,-0.231 3.933,-0.141 l 8.047,-58.195 13.864,-100.011 c -1.728,-0.365 -3.322,-1.016 -4.824,-1.863 z m -77.121,130.377 c 2.677,-0.445 5.282,-0.296 7.769,0.206 l 51.385,-103.393 c -2.071,-1.183 -3.88,-2.796 -5.276,-4.758 l -1.036,-1.8 c -0.79,-1.493 -1.416,-3.083 -1.708,-4.84 -0.274,-1.647 -0.21,-3.268 -0.003,-4.858 l -127.348,-25.211 c -1.39,1.411 -2.901,2.677 -4.545,3.643 l 75.417,142.761 c 1.676,-0.778 3.442,-1.433 5.345,-1.75 m 49.972,107.564 7.659,-105.837 -35.168,9.849 c 0.902,1.836 1.645,3.796 1.997,5.917 1.691,10.158 -4.112,19.843 -13.388,23.344 l 33.681,105.374 c 0.135,-0.022 0.252,-0.071 0.373,-0.091 0.69,-0.115 1.359,-0.101 2.047,-0.132 z m 72.318,-115.014 c -2.006,-1.457 -3.458,-3.672 -3.896,-6.308 -0.083,-0.499 -0.094,-0.984 -0.094,-1.483 l -58.558,16.393 -7.474,103.266 -3.033,41.603 c 1.28,0.106 2.506,0.388 3.685,0.789 z m 261.682,443.784 142.792,-96.667 c -0.517,-1.191 -0.945,-2.439 -1.17,-3.789 -0.561,-3.365 -0.039,-6.659 1.285,-9.545 l -177.209,-54.68 c -2.014,5.25 -6.596,9.345 -12.567,10.338 -1.526,0.254 -3.058,0.231 -4.545,0.049 l -23.107,127.316 -8.965,49.504 z m -58.751,39.764 52.824,-35.751 -78.011,21.059 -0.878,4.826 c 1.258,-0.46 2.557,-0.828 3.935,-1.058 9.2,-1.53 17.936,3.153 22.13,10.924 m 109.892,-51.163 -50.958,13.755 -58.013,39.268 c 0.637,1.491 1.142,3.031 1.42,4.693 0.08,0.487 0.035,0.967 0.088,1.456 l 116.511,-47.765 c -4.175,-2.567 -7.431,-6.525 -9.048,-11.407 m 116.606,-32.676 c -0.195,-0.591 -0.388,-1.156 -0.491,-1.777 -1.142,-6.864 2.843,-13.372 9.164,-15.687 l -11.35,-26.992 c -1.449,0.713 -2.936,1.295 -4.584,1.569 -6.863,1.142 -13.416,-2.184 -16.76,-7.848 l -28.837,19.517 -108.776,73.65 44.432,-12.003 c -0.066,-0.309 -0.196,-0.591 -0.248,-0.902 -1.926,-11.578 5.902,-22.531 17.48,-24.457 11.578,-1.927 22.53,5.901 24.456,17.479 0.434,2.608 0.319,5.168 -0.176,7.624 l 1.291,0.327 z m 101.111,73.133 -76.551,-68.305 c -2.121,2.616 -5.111,4.501 -8.665,5.093 -6.43,1.07 -12.515,-2.373 -15.173,-7.999 l -71.786,29.425 170.896,43.776 c 0.4,-0.677 0.786,-1.366 1.279,-1.99 m 68.698,-94.472 c -3.463,-2.2 -6.036,-5.646 -7.099,-9.871 l -122.589,22.591 -12.515,2.306 c 0.54,3.407 -0.234,6.688 -1.872,9.446 l 76.713,68.432 c 2.324,-2.303 5.339,-3.958 8.825,-4.538 3.391,-0.564 6.704,-0.018 9.621,1.329 z m 26.314,-1.31 c -0.577,-3.473 -0.184,-6.857 0.822,-9.995 l -2.265,-0.178 c -0.994,6.872 -6.255,12.634 -13.47,13.835 -3.404,0.566 -6.701,0.031 -9.606,-1.318 l -21.684,39.735 -27.244,49.963 c 0.918,0.597 1.791,1.256 2.584,2.013 l 84.44,-77.709 c -6.888,-2.589 -12.284,-8.578 -13.577,-16.346 m 66.939,-81.087 27.695,-75.96 c -0.83,-0.319 -1.641,-0.685 -2.408,-1.126 l -11.747,15.77 -87.518,117.458 c 2.846,2.414 4.943,5.759 5.606,9.745 0.166,0.998 0.206,1.991 0.176,2.968 l 2.771,0.219 c 2.789,-6.35 8.615,-11.22 15.979,-12.446 4.363,-0.726 8.668,-0.054 12.416,1.696 2.217,-2.035 5.016,-3.486 8.232,-4.021 3.025,-0.504 5.971,-0.078 8.63,0.965 z m 84.672,125.782 c 1.403,-1.413 3.231,-2.44 5.339,-2.791 2.013,-0.335 3.965,-0.035 5.692,0.746 l 17.923,-29.626 c -0.078,-0.056 -0.166,-0.083 -0.26,-0.151 -3.291,-2.34 -5.656,-5.445 -7.209,-8.866 l -50.867,26.402 z m 30.964,-30.519 -17.471,28.912 25.105,-26.351 c -2.644,-0.365 -5.201,-1.217 -7.634,-2.561 m 152.586,-212.716 -43.42,5.142 -43.193,86.452 32.562,14.548 c 1.581,-2.845 4.377,-4.991 7.849,-5.568 2.107,-0.351 4.184,-0.058 6.032,0.703 l 48.104,-92.656 c -3.392,-2.018 -6.159,-4.974 -7.934,-8.621 m 23.217,-128.237 -50.787,101.64 29.761,5.128 c 3.048,-3.951 7.499,-6.828 12.794,-7.709 1.554,-0.259 3.09,-0.292 4.589,-0.209 l 11.426,-97.217 c -2.627,-0.104 -5.263,-0.596 -7.783,-1.633 M 126.662,448.491 c 4.095,3.164 7.095,7.761 8.012,13.273 1.927,11.578 -5.912,22.546 -17.49,24.471 -11.403,1.898 -22.131,-5.674 -24.313,-16.947 l -37.748,23.22 -18.691,11.496 c 0.837,1.527 1.471,3.171 1.77,4.968 0.596,3.58 -0.051,7.033 -1.578,10.037 l 62.818,36.837 63.579,37.308 c 1.256,-1.874 2.918,-3.485 4.866,-4.712 L 142.935,438.479 Z M 99.426,266.279 c -4.616,-3.3 -7.519,-8.051 -8.692,-13.188 l -9.423,35.987 -54.153,207.083 c 3.322,1.113 6.199,3.218 8.216,6.075 l 29.76,-18.323 27.483,-16.9 c -0.913,-10.915 6.604,-20.899 17.587,-22.726 5.27,-0.877 10.359,0.345 14.58,2.933 l 17.783,-10.943 -27.629,-166.053 c -5.301,0.603 -10.842,-0.584 -15.512,-3.945 m -217.089,-147.998 -95.304,34.865 c 0.176,0.637 0.405,1.266 0.512,1.914 0.268,1.607 0.207,3.159 0.033,4.702 L 80.756,215.32 -44.823,91.68 Z m -96.004,32.913 167.229,-61.12 -97.252,-95.753 c -5.906,5.482 -14.316,7.255 -21.907,4.853 l -53.486,145.257 c 2.364,1.689 4.223,4.018 5.416,6.763 m 19.777,160.918 11.789,53.993 c 6.464,-0.952 12.6,1.957 16.048,7.076 L 83.826,227.014 c -0.722,-1.421 -1.312,-2.962 -1.588,-4.623 -0.27,-1.622 -0.221,-3.171 -0.021,-4.717 l -294.964,-55.86 c -1.415,5.512 -5.681,9.998 -11.394,11.63 z m -49.969,-148.369 -116.573,37.641 -150.189,48.454 c 0.114,0.438 0.294,0.854 0.371,1.313 0.427,2.567 0.175,5.052 -0.52,7.389 l 316.183,117.14 c 1.918,-4.331 5.717,-7.7 10.491,-9.049 l -11.888,-54.517 -30.143,-138.174 c -7.691,1.169 -14.972,-3.201 -17.732,-10.197 m -276.788,74.822 c 4.241,1.628 7.757,4.903 9.457,9.271 l 266.768,-86.054 c -0.106,-0.469 -0.27,-0.872 -0.349,-1.345 -0.42,-2.526 -0.192,-4.994 0.495,-7.288 L -454.86,76.447 c -2.155,4.913 -6.62,8.697 -12.295,9.641 -2.257,0.376 -4.456,0.256 -6.523,-0.234 z M -715.233,259.1 c 0.053,0.325 0.028,0.676 0.07,1.016 l 172.391,-6.664 c 0.136,-6.27 3.9,-11.854 9.534,-14.458 l -30.206,-78.403 -65.494,-169.987 c -0.714,0.216 -1.435,0.474 -2.191,0.6 -2.419,0.402 -4.783,0.213 -6.983,-0.406 l -45.689,134.281 -41.361,121.58 c 5.055,2.09 8.962,6.632 9.929,12.441 m 100.114,212.502 c 2.769,-0.461 5.492,-0.122 7.968,0.743 l 49.657,-136.22 24.503,-67.278 c -4.897,-2.143 -8.643,-6.629 -9.589,-12.317 -0.057,-0.337 -0.017,-0.677 -0.059,-1.017 l -172.388,6.664 c -0.13,5.644 -3.159,10.73 -7.86,13.594 l 49.736,94.885 53.666,102.407 c 1.363,-0.656 2.812,-1.203 4.366,-1.461 m -119.39,74.194 -71.147,32.262 c 0.453,0.883 0.816,1.822 0.985,2.835 0.108,0.649 0.145,1.281 0.126,1.924 l 98.199,26.674 95.205,25.866 c 1.875,-5.49 6.516,-9.817 12.629,-10.875 l -12.96,-119.193 -0.145,-1.211 c -5.949,0.296 -11.456,-2.593 -14.562,-7.407 z m 126.704,105.862 c -2.055,-2.254 -3.529,-5.105 -4.066,-8.334 -0.342,-2.053 -0.231,-4.058 0.157,-5.982 l -193.113,-52.465 c -0.91,3.622 -3.854,6.541 -7.748,7.259 l 25.248,229.749 c 4.257,-0.195 8.246,1.251 11.335,3.875 z m 149.316,105.001 c -0.756,-1.457 -1.382,-3.048 -1.669,-4.777 -0.571,-3.431 -0.017,-6.772 1.358,-9.695 l -64.432,-47.204 -59.954,-43.896 c -2.418,2.902 -5.81,5.049 -9.836,5.719 -0.865,0.144 -1.709,0.161 -2.542,0.16 l -10.492,190.53 c 4.289,0.494 8.137,2.672 10.783,5.981 z m 48.182,135.282 -33.39,-126.414 c -5.592,0.112 -10.699,-2.635 -13.77,-7.067 l -136.572,96.671 c 1.071,1.767 1.853,3.72 2.211,5.867 0.376,2.256 0.26,4.483 -0.253,6.568 l 177.602,54.795 c 2.263,-3.596 5.872,-6.266 10.277,-7.249 z m 299.816,-94.135 c -0.194,-1.162 -0.26,-2.303 -0.198,-3.438 l -295.683,-38.411 -21.713,-2.816 c -0.746,2.942 -2.29,5.588 -4.399,7.689 l 57.528,50.351 151.172,132.253 c 2.328,-2.36 5.38,-4.047 8.906,-4.634 4.228,-0.704 8.286,0.316 11.616,2.469 l 99.137,-133.068 c -3.266,-2.442 -5.646,-6.072 -6.366,-10.395 M -215.016,621.804 c -1.731,1.023 -3.644,1.799 -5.751,2.15 -6.337,1.054 -12.365,-1.719 -15.894,-6.574 l -2.889,1.841 -190.666,121.112 c 1.167,1.833 2.01,3.901 2.387,6.17 0.261,1.567 0.196,3.092 0.029,4.591 l 74.546,9.686 242.838,31.556 c 0.726,-4.147 2.984,-7.841 6.348,-10.33 z m 127.263,158.292 22.643,-51.585 c -4.424,-2.304 -7.78,-6.537 -8.659,-11.819 -0.636,-3.823 0.143,-7.479 1.885,-10.615 l -77.141,-49.408 -61.23,-39.211 c -0.872,1.185 -1.923,2.208 -3.09,3.124 l 110.991,160.292 c 1.624,-0.923 3.396,-1.621 5.34,-1.944 3.257,-0.542 6.431,-0.071 9.261,1.166 m 9.723,14.71 c 0.057,2.184 -0.336,4.319 -1.108,6.28 L 51.834,859.585 94.393,774.406 Z M 159.28,638.261 c -7.313,-5.225 -10.459,-14.045 -8.881,-22.334 l -51.853,24.735 -140.958,67.217 c 0.418,1.097 0.757,2.22 0.959,3.436 0.25,1.5 0.218,2.977 0.068,4.417 l 62.124,10.713 c 2.788,-2.27 6.12,-3.935 9.918,-4.567 8.849,-1.472 17.289,2.775 21.659,10.017 l 58.305,10.042 51.099,-102.276 c -0.808,-0.434 -1.655,-0.849 -2.44,-1.4 m -368.483,-22.575 138.385,88.617 c 2.446,-3.324 6.124,-5.754 10.513,-6.484 2.676,-0.445 5.279,-0.156 7.715,0.633 l 67.689,-171.96 c -3.433,-1.609 -6.204,-4.41 -7.861,-7.94 l -215.155,84.256 c 0.222,0.741 0.472,1.491 0.605,2.288 0.631,3.797 -0.145,7.48 -1.891,10.59 m -10.132,-23.765 c 4.575,1.211 8.42,4.375 10.523,8.676 L 6.413,516.344 c -0.206,-0.647 -0.437,-1.288 -0.554,-1.991 -0.576,-3.458 0.028,-6.849 1.443,-9.779 L -167.062,392.731 c -2.428,2.931 -5.834,5.081 -9.873,5.752 -1.635,0.272 -3.211,0.23 -4.788,0.021 z m -2.463,-178.516 -99.318,70.23 c 0.589,1.291 1.072,2.612 1.315,4.071 0.931,5.594 -1.086,10.996 -4.926,14.621 l 90.623,93.038 c 2.2,-1.88 4.873,-3.255 7.954,-3.767 1.173,-0.196 2.318,-0.248 3.453,-0.187 l 37.663,-193.704 c -2.861,-1.01 -5.393,-2.782 -7.284,-5.146 z M -482.613,307.019 -346.21,477.688 c 2.131,-1.714 4.645,-2.966 7.548,-3.45 6.756,-1.124 13.213,2.05 16.611,7.538 l 98.696,-69.806 29.805,-21.051 c -1.101,-1.774 -1.872,-3.743 -2.232,-5.904 -0.427,-2.568 -0.178,-5.08 0.507,-7.388 L -352.313,319.424 -511.46,260.487 c -0.917,2.083 -2.275,3.933 -3.962,5.478 z m -113.642,178.077 c 0.183,1.094 0.24,2.195 0.197,3.271 l 243.811,3.017 c -0.281,-4.689 1.418,-9.081 4.506,-12.302 L -484.39,308.105 -517.043,267.234 c -1.936,1.377 -4.187,2.377 -6.686,2.792 -2.526,0.421 -5.009,0.182 -7.291,-0.507 l -25.036,68.657 -49.179,134.919 c 4.581,2.251 8.077,6.57 8.98,12.001 m 14.221,146.542 95.714,-54.427 136.7,-77.795 c -1.168,-1.764 -1.987,-3.766 -2.409,-5.973 l -244.297,-3.017 c -1.095,6.68 -6.224,12.24 -13.237,13.476 l 13.122,120.429 c 5.857,-0.267 11.3,2.576 14.407,7.307 m 239.743,-126.14 c -2.346,-0.997 -4.39,-2.518 -6.058,-4.447 l -36.54,20.797 -196.16,111.627 c 0.662,1.388 1.213,2.866 1.481,4.474 0.692,4.161 -0.29,8.185 -2.395,11.478 l 124.21,90.962 c 2.413,-3.775 6.307,-6.575 11.063,-7.367 2.012,-0.335 3.987,-0.232 5.894,0.13 z m 106.733,91.316 -90.801,-93.202 c -1.994,1.456 -4.302,2.52 -6.923,2.956 -2.431,0.405 -4.81,0.218 -7.052,-0.409 l -18.551,42.879 -79.916,184.67 c 2.855,0.97 5.363,2.691 7.297,4.979 l 191.361,-121.533 2.385,-1.521 c -0.886,-1.574 -1.548,-3.297 -1.858,-5.162 -0.855,-5.134 0.811,-10.061 4.058,-13.657 M 90.114,247.279 c 0.111,-3.086 0.932,-6.167 2.377,-9.073 l 0.791,-3.005 c -3.424,-1.139 -6.428,-3.347 -8.448,-6.385 l -249.879,146.169 c 0.711,1.436 1.315,2.975 1.593,4.65 0.632,3.797 -0.185,7.486 -1.915,10.606 L 8.837,501.959 c 2.446,-3.323 6.126,-5.739 10.504,-6.468 1.999,-0.333 3.955,-0.256 5.838,0.125 L 86.58,260.835 Z M 161.998,594.935 35.604,520.804 c -2.429,3.597 -6.249,6.26 -10.881,7.031 -2.676,0.445 -5.282,0.142 -7.702,-0.635 l -67.688,171.958 c 3.087,1.445 5.625,3.854 7.312,6.892 l 194.467,-92.754 c 0.686,-2.141 1.614,-4.239 2.989,-6.162 1.711,-2.395 3.842,-4.277 6.179,-5.749 0.149,-2.274 0.702,-4.462 1.718,-6.45 m -52.331,148.939 -56.193,-9.699 c 0.728,1.627 1.334,3.345 1.639,5.182 1.927,11.58 -5.897,22.545 -17.475,24.472 -11.592,1.928 -22.546,-5.912 -24.473,-17.492 -1.142,-6.862 1.192,-13.443 5.66,-18.129 l -60.491,-10.416 c -1.479,6.218 -6.556,11.255 -13.257,12.371 -2.903,0.483 -5.729,0.106 -8.276,-0.846 l -22.368,50.902 -0.367,0.88 c 3.965,2.381 6.95,6.382 7.772,11.327 0.016,0.094 0.007,0.207 0.022,0.302 L 95.496,772.195 Z m 31.844,5.475 -29.474,-5.078 -13.775,27.602 41.424,-4.879 c -0.418,-1.179 -0.768,-2.358 -0.98,-3.628 -0.84,-5.052 0.316,-9.95 2.805,-14.017 m -55.836,127.627 -32.652,-14.588 -40.977,82 c 2.523,1.899 4.51,4.235 5.994,6.82 l 69.131,-64.166 c -0.976,-1.351 -1.707,-2.91 -1.997,-4.651 -0.317,-1.905 -0.079,-3.736 0.501,-5.415 M 10.077,943.147 50.895,861.45 -80.02,802.955 c -0.992,1.803 -2.307,3.409 -3.906,4.732 L -11,942.226 c 6.572,-3.136 14.48,-3.007 21.077,0.921 m -394.579,-14.776 c 0.043,0.255 0.016,0.51 0.045,0.77 l 156.272,22.481 c 0.511,-2.445 1.554,-4.687 3.065,-6.62 l -2.886,-2.491 -206.099,-180.33 c -2.057,1.578 -4.475,2.731 -7.204,3.185 -0.095,0.016 -0.194,0.004 -0.302,0.022 l 33.846,128.143 5.636,21.277 c 8.45,-0.78 16.209,5.038 17.627,13.563 m 5.02,43.607 c 7.092,-1.181 13.785,3.15 15.867,9.828 l 135.227,-24.903 c -0.126,-1.09 -0.153,-2.167 -0.066,-3.237 l -112.077,-16.118 -43.784,-6.307 c -0.047,5.478 -2.841,10.469 -7.261,13.44 l 11.535,27.445 c 0.19,-0.031 0.371,-0.117 0.559,-0.148 m -390.797,-132.492 125.048,17.888 21.235,3.048 c 1.3,-6.464 6.43,-11.76 13.293,-12.902 0.892,-0.149 1.749,-0.166 2.596,-0.169 l 7.522,-136.86 2.944,-53.652 c -3.231,-0.392 -6.229,-1.726 -8.64,-3.782 l -168.2,174.104 c 2.068,2.253 3.542,5.103 4.082,8.346 0.224,1.351 0.221,2.67 0.12,3.979 M -872.416,496.753 c -0.973,0.162 -1.912,0.192 -2.856,0.198 l -7.239,99.602 58.626,-16.406 c 0.561,-2.301 1.98,-4.286 3.906,-5.648 l -47.662,-79.415 c -1.466,0.785 -3.046,1.381 -4.775,1.669 m -48.66,110.59 36.458,-10.191 7.286,-100.4 c -1.349,-0.178 -2.623,-0.577 -3.868,-1.051 l -51.168,103.025 c 4.626,1.52 8.649,4.503 11.292,8.617 m 55.232,-113.309 25.157,41.966 22.498,37.493 c 0.713,-0.3 1.45,-0.547 2.233,-0.678 1.244,-0.207 2.459,-0.158 3.628,0.106 l 44.329,-100.068 2.663,-6.025 c -3.8,-1.978 -6.73,-5.404 -8.051,-9.671 l -85.597,20.603 c 0.005,0.04 0.015,0.094 0.024,0.148 1.074,6.458 -1.828,12.633 -6.884,16.126 m 237.182,-7.947 -113.592,-28.735 c -1.824,5.648 -6.593,10.106 -12.863,11.15 -2.904,0.482 -5.74,0.123 -8.331,-0.849 l -46.902,105.896 c 1.394,0.616 2.596,1.581 3.557,2.769 l 179.657,-81.474 c -0.657,-1.363 -1.188,-2.801 -1.448,-4.368 -0.248,-1.487 -0.227,-2.947 -0.078,-4.389 M -484.497,62.636 -597.359,-2.683 -620.223,-15.928 c -1.652,2.51 -3.99,4.483 -6.77,5.791 l 87.481,227.115 8.205,21.28 c 0.715,-0.217 1.438,-0.463 2.195,-0.589 2.228,-0.37 4.437,-0.278 6.522,0.234 l 46.967,-152.724 c -5.264,-2.012 -9.403,-6.614 -10.397,-12.585 -0.591,-3.554 0.046,-6.979 1.523,-9.958 m 647.393,363.552 -17.82,10.977 24.984,150.152 c 1.204,-0.532 2.463,-0.964 3.828,-1.191 0.594,-0.099 1.168,-0.083 1.744,-0.124 l 0.79,-153.455 c -5.21,-0.439 -9.989,-2.711 -13.526,-6.359 m 63.936,284.709 -46.326,-278.418 c -0.682,0.07 -1.367,0.115 -2.032,0.128 l -0.778,153.371 c 7.401,0.504 13.783,5.982 15.058,13.642 0.18,1.081 0.235,2.168 0.19,3.232 l -3.021,3.792 c 5.776,7.592 6.317,18.276 0.497,26.436 -1.768,2.475 -4,4.415 -6.416,5.914 l 37.791,73.587 c 1.588,-0.722 3.256,-1.291 5.037,-1.684 M 70.382,905.719 19.07,953.397 c 0.656,1.515 1.149,3.058 1.456,4.659 z m -210.057,59.403 64.721,31.494 52.55,-27.294 c -2.2,-6.548 -1.39,-14.027 2.949,-20.081 1.833,-2.582 4.137,-4.589 6.677,-6.095 l -72.799,-134.2 c -1.766,1.155 -3.812,1.954 -6.055,2.327 -2.188,0.365 -4.327,0.275 -6.348,-0.193 l -34.068,93.403 -13.867,38.073 c 4.248,2.334 7.45,6.481 8.311,11.654 0.653,3.918 -0.199,7.726 -2.071,10.912 m -552.904,91.844 c 4.034,2.884 6.78,6.869 8.175,11.246 l 40.259,-10.877 17.97,-99.111 14.269,-78.626 c -3.924,-0.972 -7.368,-3.397 -9.632,-6.741 l -180.672,105.578 81.529,80.278 c 7.609,-7.014 19.357,-7.998 28.102,-1.747 m -111.159,-80.039 181.191,-105.874 c -0.726,-1.449 -1.33,-2.987 -1.611,-4.676 -0.22,-1.324 -0.228,-2.627 -0.125,-3.921 l -22.456,-3.206 -123.826,-17.731 c -1.344,6.443 -6.452,11.709 -13.315,12.851 -2.648,0.441 -5.224,0.147 -7.614,-0.608 l -37.916,97.889 z m -12.665,7.41 10.589,-6.205 -24.519,-24.105 -1.925,4.956 -3.453,8.948 c 9.218,0.577 17.154,7.142 19.308,16.406 m -64.643,-215.017 81.814,58.544 c 2.426,-2.944 5.801,-5.103 9.865,-5.807 l -25.26,-229.746 c -1.299,-0.034 -2.57,-0.336 -3.725,-0.853 l -69.217,153.929 c 4.675,2.235 8.208,6.604 9.123,12.103 0.715,4.296 -0.339,8.483 -2.6,11.83 m -75.092,30.253 c 1.492,1.044 2.74,2.28 3.873,3.591 l 43.972,-34.128 c -0.375,-0.589 -0.727,-1.197 -1.041,-1.84 l -0.791,-1.909 c -0.24,-0.779 -0.5,-1.583 -0.639,-2.42 -0.355,-2.135 -0.273,-4.231 0.187,-6.224 l 0.615,-1.976 c 1.651,-4.593 5.277,-8.334 10.045,-9.975 l -33.678,-105.359 c -0.612,0.157 -1.198,0.394 -1.847,0.502 -1.877,0.312 -3.703,0.269 -5.506,0.11 l -23.674,155.958 c 2.973,0.589 5.865,1.788 8.484,3.67 m 24.965,-568.994 c -1.08,0.18 -2.145,0.205 -3.215,0.202 l -92.952,186.022 c 1.976,0.684 3.941,1.564 5.719,2.824 10.027,7.19 12.345,21.119 5.182,31.142 -0.184,0.238 -0.403,0.414 -0.586,0.651 l 126.089,24.991 c 1.293,-4.921 4.839,-9.052 9.654,-10.991 l -18.347,-163.587 c -9.414,-0.836 -17.455,-7.856 -19.076,-17.598 -1.389,-8.348 2.326,-16.311 8.831,-20.864 l -16.025,-34.474 c -1.667,0.749 -3.397,1.37 -5.274,1.682 m 183.868,27.275 -129.399,20.38 c 1.339,11.218 -6.292,21.595 -17.546,23.468 -1.229,0.204 -2.483,0.261 -3.693,0.253 l 18.642,162.857 c 0.504,-0.14 0.962,-0.313 1.503,-0.403 3.85,-0.64 7.599,0.195 10.746,2.002 l 125.823,-191.559 c -3.252,-2.444 -5.59,-6.067 -6.308,-10.377 -0.377,-2.269 -0.29,-4.505 0.232,-6.621 m 208.567,-316.428 c -3.843,-2.735 -6.518,-6.468 -7.995,-10.582 l -72.206,37.492 c 0.571,1.266 1.038,2.576 1.274,3.995 0.024,0.148 0.005,0.276 0.027,0.412 l 275.003,-20.794 -161.277,-24.274 c -0.612,3.004 -1.789,5.935 -3.698,8.572 -7.161,10.036 -21.103,12.356 -31.128,5.179 m 357.687,34.801 -152.402,-22.917 -284.064,21.496 c 0.043,2.673 -0.536,5.211 -1.684,7.485 l 13.64,7.88 122.098,70.668 c 2.432,-3.653 6.276,-6.335 10.924,-7.109 7.58,-1.26 14.79,2.941 17.693,9.707 l 274.008,-82.179 c -0.247,-1.653 -0.334,-3.345 -0.213,-5.031 m 40.22,14.828 c -0.409,0.552 -0.888,1.008 -1.316,1.524 l 98.114,96.595 16.052,-5.836 c -0.3,-0.964 -0.623,-1.909 -0.79,-2.91 -0.845,-5.08 0.269,-9.986 2.663,-14.118 z M 87.701,207.333 49.546,157.089 2.651,95.374 c -2.105,1.196 -4.423,2.124 -6.95,2.544 -9.876,1.644 -19.243,-3.837 -23.001,-12.653 l -15.105,5.513 125.413,123.473 c 0.957,-2.672 2.561,-5.05 4.693,-6.918 m -212.733,848.542 c 8.052,-1.339 15.733,2.104 20.343,8.196 l 59.962,-40.496 c -0.452,-0.883 -0.82,-1.835 -0.988,-2.848 -0.418,-2.512 0.169,-4.915 1.423,-6.888 l -30.337,-14.764 -143.85,74.71 75.739,1.92 c 0.517,-9.736 7.697,-18.164 17.708,-19.83 m -199.359,55.61 c 0.613,0.425 1.126,0.923 1.662,1.39 l 31.362,-32.308 c -0.706,-1.409 -1.261,-2.9 -1.532,-4.534 -0.506,-3.041 -0.065,-5.974 1.006,-8.637 l -173.49,-44.429 -2.053,0.843 c -2.621,6.78 -8.574,12.061 -16.26,13.34 -4.337,0.722 -8.597,0.07 -12.309,-1.631 l -118.617,48.629 c -0.027,1.088 -0.157,2.138 -0.33,3.193 l 255.678,38.459 c 0.552,-3.189 1.753,-6.318 3.755,-9.136 7.164,-10.022 21.093,-12.34 31.128,-5.179 m -359,-34.43 26.6,3.988 c 0.954,-6.781 5.14,-12.67 11.224,-15.82 l 0.969,-5.356 -39.222,10.596 c 0.439,2.147 0.614,4.368 0.429,6.592 m -267.57,-246.367 c -0.181,0.252 -0.412,0.442 -0.619,0.7 l 98.228,96.7 -37.683,-151.968 c -0.308,0.079 -0.582,0.18 -0.879,0.23 -3.31,0.55 -6.545,0.048 -9.397,-1.228 l -1.791,-1.007 c -1.435,-0.871 -2.685,-1.954 -3.784,-3.216 l -43.971,34.127 c 5.224,7.531 5.526,17.783 -0.104,25.662 m -88.02,-73.561 53.612,45.339 c 1.892,-1.981 4.105,-3.529 6.454,-4.684 l -19.323,-116.135 -42.284,43.608 c 3.223,3.434 5.571,7.778 6.407,12.804 1.174,7.052 -0.809,13.825 -4.866,19.068 m 42.297,-80.403 42.141,-43.458 c -2.724,-2.935 -4.649,-6.668 -5.357,-10.924 -1.475,-8.863 2.783,-17.319 10.041,-21.679 l -75.409,-142.789 c -2.386,1.092 -4.899,1.842 -7.489,2.052 z m -58.629,-319.983 16.011,59.261 c 3.177,-0.683 6.495,-0.679 9.715,0.063 l 92.668,-185.39 c -5.501,-0.599 -10.457,-3.273 -13.937,-7.414 l -93.648,94.139 c 2.798,3.296 4.816,7.335 5.581,11.929 2.017,12.118 -5.163,23.546 -16.39,27.412 m 263.161,-375.426 c 1.387,12.931 -7.437,24.896 -20.449,27.061 -5.309,0.884 -10.454,-0.079 -14.917,-2.294 l -29.112,67.614 c 1.062,0.532 2.123,1.077 3.129,1.784 3.138,2.255 5.418,5.194 6.985,8.432 l 33.601,-17.433 c 1.382,-1.036 2.925,-1.863 4.623,-2.422 l 159.432,-82.786 c -0.51,-1.138 -0.921,-2.277 -1.135,-3.561 -0.128,-0.771 -0.189,-1.551 -0.202,-2.3 z m 381.458,-111.052 c -9.322,1.55 -18.208,-2.371 -23.595,-9.376 l -72.553,50.601 c 2.554,4.17 3.657,9.055 3.211,13.878 l 171.414,25.78 84.997,-6.437 c -0.294,-3.604 0.25,-7.095 1.606,-10.223 l -148.928,-74.45 c -3.652,5.245 -9.329,9.092 -16.152,10.227 M -38.211,-16.44 c -0.304,-1.824 -0.32,-3.598 -0.228,-5.377 l -98.217,1.168 c -0.204,3.365 -1.222,6.671 -2.98,9.713 l 114.74,75.266 c 3.188,-4.292 7.928,-7.428 13.615,-8.374 0.351,-0.059 0.678,-0.016 1.018,-0.059 L -13.444,4.153 C -25.465,4.333 -36.175,-4.199 -38.211,-16.44 M -9.707,3.919 c -0.485,0.081 -0.939,0.031 -1.4,0.096 l 3.179,51.73 c 10.262,-0.068 19.366,7.247 21.106,17.703 1.383,8.309 -2.319,16.27 -8.768,20.815 l 48.786,64.232 36.124,47.555 c 0.515,-0.336 1.102,-0.559 1.638,-0.841 L -4.334,2.331 c -1.684,0.725 -3.494,1.275 -5.373,1.588 m 244.913,330.736 c -0.837,0.14 -1.688,0.116 -2.526,0.17 l 2.941,375.817 c 10.348,1.527 19.01,9.443 20.817,20.306 2.244,13.483 -6.852,26.243 -20.349,28.489 -6.321,1.052 -12.418,-0.46 -17.407,-3.657 L 4.131,1055.946 c 3.789,3.576 6.515,8.288 7.435,13.813 2.245,13.485 -6.867,26.233 -20.363,28.478 -11.606,1.931 -22.612,-4.554 -26.905,-15.002 l -357.28,119.177 c 1.994,13.331 -7.031,25.843 -20.379,28.064 -13.484,2.243 -26.245,-6.865 -28.489,-20.35 -0.744,-4.471 -0.148,-8.818 1.361,-12.763 L -791.286,1086.4 c -3.592,6.027 -9.629,10.544 -17.087,11.785 -13.483,2.244 -26.248,-6.88 -28.491,-20.363 -1.47,-8.835 2.006,-17.314 8.32,-22.752 l -216.039,-292.555 c -2.877,1.979 -6.192,3.419 -9.88,4.032 -13.484,2.244 -26.249,-6.878 -28.492,-20.361 -2.243,-13.483 6.881,-26.235 20.365,-28.478 0.877,-0.146 1.743,-0.123 2.623,-0.172 l -2.808,-359.497 c -12.127,0.296 -22.964,-8.259 -25.014,-20.579 -2.246,-13.497 6.881,-26.235 20.364,-28.479 4.242,-0.706 8.357,-0.181 12.142,1.132 L -834.449,1.141 c -3.373,-3.494 -5.787,-7.994 -6.64,-13.113 -2.245,-13.497 6.879,-26.249 20.362,-28.492 10.214,-1.699 19.988,3.13 25.101,11.416 l 356.979,-119.072 c -0.165,-0.653 -0.409,-1.279 -0.523,-1.969 -2.248,-13.509 6.853,-26.242 20.349,-28.488 13.483,-2.243 26.243,6.852 28.491,20.362 0.708,4.255 0.162,8.401 -1.161,12.217 l 356.587,112.804 c 3.596,-6.013 9.609,-10.512 17.066,-11.752 13.484,-2.244 26.234,6.881 28.481,20.377 1.505,9.051 -2.191,17.706 -8.813,23.139 l 215.225,291.413 c 2.934,-2.056 6.297,-3.546 10.025,-4.166 13.497,-2.246 26.258,6.863 28.502,20.346 2.248,13.511 -6.879,26.246 -20.376,28.492"
                       style="fill:#4df0f4;fill-opacity:1;fill-rule:nonzero;stroke:none"
                       id="path43032"
                       inkscape:connector-curvature="0" /></g><g
                     transform="translate(775.7539,379.0469)"
                     id="g43038"><path
                       d="m 0,0 c -20.941,-28.089 -15.147,-67.837 12.941,-88.779 28.089,-20.942 67.837,-15.148 88.779,12.941 20.942,28.089 15.148,67.837 -12.941,88.779 C 60.689,33.883 20.942,28.089 0,0"
                       style="fill:#4df0f4;fill-opacity:1;fill-rule:nonzero;stroke:none"
                       id="path43036"
                       inkscape:connector-curvature="0" /></g><g
                     transform="translate(752.3408,658.7144)"
                     id="g43042"><path
                       d="m 0,0 c -20.941,-28.089 -15.147,-67.837 12.941,-88.779 28.089,-20.942 67.837,-15.148 88.779,12.942 20.942,28.088 15.148,67.836 -12.941,88.778 C 60.689,33.883 20.942,28.089 0,0"
                       style="fill:#4df0f4;fill-opacity:1;fill-rule:nonzero;stroke:none"
                       id="path43040"
                       inkscape:connector-curvature="0" /></g></g></g></g></g></g></g></g></g></svg>