<?xml version="1.0" encoding="UTF-8" standalone="no"?>
<!-- Created with Inkscape (http://www.inkscape.org/) -->

<svg
   xmlns:dc="http://purl.org/dc/elements/1.1/"
   xmlns:cc="http://creativecommons.org/ns#"
   xmlns:rdf="http://www.w3.org/1999/02/22-rdf-syntax-ns#"
   xmlns:svg="http://www.w3.org/2000/svg"
   xmlns="http://www.w3.org/2000/svg"
   xmlns:sodipodi="http://sodipodi.sourceforge.net/DTD/sodipodi-0.dtd"
   xmlns:inkscape="http://www.inkscape.org/namespaces/inkscape"
   width="700mm"
   height="134mm"
   viewBox="0 0 699.99999 134"
   version="1.1"
   id="svg108"
   inkscape:version="0.92.1 r15371"
   sodipodi:docname="kingdomLogo.svg">
  <defs
     id="defs102" />
  <sodipodi:namedview
     id="base"
     pagecolor="#ffffff"
     bordercolor="#666666"
     borderopacity="1.0"
     inkscape:pageopacity="0.0"
     inkscape:pageshadow="2"
     inkscape:zoom="0.26098981"
     inkscape:cx="1456.8037"
     inkscape:cy="382.20176"
     inkscape:document-units="mm"
     inkscape:current-layer="g3647"
     showgrid="false"
     inkscape:window-width="1366"
     inkscape:window-height="705"
     inkscape:window-x="-8"
     inkscape:window-y="-8"
     inkscape:window-maximized="1"
     units="mm"
     width="518mm" />
  <metadata
     id="metadata105">
    <rdf:RDF>
      <cc:Work
         rdf:about="">
        <dc:format>image/svg+xml</dc:format>
        <dc:type
           rdf:resource="http://purl.org/dc/dcmitype/StillImage" />
        <dc:title></dc:title>
      </cc:Work>
    </rdf:RDF>
  </metadata>
  <g
     inkscape:label="Layer 1"
     inkscape:groupmode="layer"
     id="layer1"
     transform="translate(0,-163.00001)">
    <g
       id="g3647"
       transform="matrix(1.3621489,0,0,1.3621489,-705.05414,74.988016)">
      <g
         transform="matrix(0.21476234,0,0,0.21476234,551.10228,67.149784)"
         id="g580">
        <path
           inkscape:connector-curvature="0"
           style="fill:#324a5e"
           d="M 254,172.4 81.2,144 c -1.6,-0.4 -2.8,0.8 -2.8,2.4 v 221.2 c 0,1.2 0.8,2.4 2,2.4 L 254,398.4 Z"
           id="path380" />
        <path
           style="fill:#ced5e0"
           d="M 254,390.4 V 180.8 L 87.6,153.6 v 209.6 z"
           id="polygon382"
           inkscape:connector-curvature="0" />
        <path
           inkscape:connector-curvature="0"
           style="fill:#324a5e"
           d="M 254,172.4 426.8,144 c 1.6,-0.4 2.8,0.8 2.8,2.4 v 221.2 c 0,1.2 -0.8,2.4 -2,2.4 L 254,398.4 Z"
           id="path384" />
        <path
           style="fill:#acb3ba"
           d="M 254,390.4 V 180.8 l 166.4,-27.2 v 209.6 z"
           id="polygon386"
           inkscape:connector-curvature="0" />
        <path
           style="fill:#ced5e0"
           d="M 396.4661,167.15424 C 348.4661,153.55424 299.2,142.8 254,181.2 V 390.4 C 299.2,352 356,337.6 404,351.6 Z"
           id="path388"
           inkscape:connector-curvature="0"
           sodipodi:nodetypes="ccccc" />
        <g
           id="g394">
          <path
             style="fill:#e6e9ee"
             d="M 346.02542,175.25254 C 303.22542,172.05254 294.4,132.8 254,181.2 v 209.2 c 40.4,-48.4 91.2,-74.8 134,-71.6 z"
             id="path390"
             inkscape:connector-curvature="0"
             sodipodi:nodetypes="ccccc" />
          <path
             style="fill:#e6e9ee"
             d="M 100.77119,178.99322 C 148.77119,165.39322 208.8,142.8 254,181.2 V 390.4 C 208.8,352 152,337.6 104,351.6 Z"
             id="path392"
             inkscape:connector-curvature="0"
             sodipodi:nodetypes="ccccc" />
        </g>
        <path
           style="fill:#ffffff"
           d="M 135.0678,173.1 C 177.8678,169.9 213.6,132.8 254,181.2 V 390.4 C 213.6,342 162.8,315.6 120,318.8 Z"
           id="path396"
           inkscape:connector-curvature="0"
           sodipodi:nodetypes="ccccc" />
        <g
           transform="translate(-0.86747456,-88.133897)"
           id="g281">
          <path
             inkscape:connector-curvature="0"
             id="path11"
             d="M 219.1,263.636 162.384,210.7 c 4.014,-2.657 6.665,-7.208 6.665,-12.383 0,-8.198 -6.645,-14.845 -14.844,-14.845 -8.199,0 -14.846,6.646 -14.846,14.845 0,8.155 6.581,14.771 14.721,14.839 l -12.176,77.624 z"
             style="fill:#f89b36" />
          <path
             inkscape:connector-curvature="0"
             id="path13"
             d="M 292.9,263.636 349.615,210.7 c -4.014,-2.657 -6.664,-7.208 -6.664,-12.383 0,-8.198 6.645,-14.845 14.844,-14.845 8.199,0 14.846,6.646 14.846,14.845 0,8.155 -6.581,14.771 -14.723,14.839 l 12.178,77.624 z"
             style="fill:#f89b36" />
          <path
             style="fill:#f4cc64"
             d="M 344.273,276.89 255.787,147.101 167.142,276.89 92.493,204.785 108.61,341.359 c 22.904,56.836 271.24,56.836 294.145,0 l 16.012,-136.574 z"
             id="path15"
             inkscape:connector-curvature="0" />
          <path
             style="fill:#f89b36"
             d="m 109.544,221.255 -17.052,-16.471 3.218,27.274 c 6.204,-1.08 11.349,-5.212 13.834,-10.803 z"
             id="path17"
             inkscape:connector-curvature="0" />
          <path
             style="fill:#f89b36"
             d="m 402.246,220.775 c 2.309,5.619 7.273,9.859 13.336,11.157 l 3.184,-27.148 z"
             id="path19"
             inkscape:connector-curvature="0" />
          <path
             style="fill:#f4c342"
             d="m 255.682,371.261 c -76.779,0 -125.945,-16.958 -134.668,-33.372 l -11.705,-99.169 59.838,57.797 86.631,-126.841 86.492,126.863 59.703,-57.791 -11.624,99.145 c -8.73,16.413 -57.892,33.368 -134.667,33.368 z"
             id="path21"
             inkscape:connector-curvature="0" />
          <path
             style="fill:#f89b36"
             d="M 271.191,169.692 255.787,147.1 240.21,169.909 c 3.36,4.921 9.011,8.153 15.419,8.153 6.5,0 12.219,-3.328 15.562,-8.37 z"
             id="path23"
             inkscape:connector-curvature="0" />
          <path
             style="fill:#f4c342"
             d="m 111.155,200.967 a 18.663,18.663 0 0 1 -18.663003,18.663 18.663,18.663 0 0 1 -18.663,-18.663 18.663,18.663 0 0 1 18.663,-18.663 18.663,18.663 0 0 1 18.663003,18.663 z"
             id="circle25"
             inkscape:connector-curvature="0" />
          <path
             style="fill:#f4c342"
             d="m 438.171,200.967 a 18.663,18.663 0 0 1 -18.663,18.663 18.663,18.663 0 0 1 -18.663,-18.663 18.663,18.663 0 0 1 18.663,-18.663 18.663,18.663 0 0 1 18.663,18.663 z"
             id="circle27"
             inkscape:connector-curvature="0" />
          <path
             style="fill:#f4c342"
             d="m 111.155,200.967 a 18.663,18.663 0 0 1 -18.663003,18.663 18.663,18.663 0 0 1 -18.663,-18.663 18.663,18.663 0 0 1 18.663,-18.663 18.663,18.663 0 0 1 18.663003,18.663 z"
             id="circle31"
             inkscape:connector-curvature="0" />
          <path
             inkscape:connector-curvature="0"
             id="path33"
             d="m 84.857,205.633 c -4.678,0 -8.484,-3.807 -8.484,-8.483 0,-4.676 3.807,-8.483 8.484,-8.483 4.677,0 8.482,3.807 8.482,8.483 0,4.676 -3.805,8.483 -8.482,8.483 z"
             style="fill:#f4cc64" />
          <path
             style="fill:#f4c342"
             d="m 438.171,200.967 a 18.663,18.663 0 0 1 -18.663,18.663 18.663,18.663 0 0 1 -18.663,-18.663 18.663,18.663 0 0 1 18.663,-18.663 18.663,18.663 0 0 1 18.663,18.663 z"
             id="circle35"
             inkscape:connector-curvature="0" />
          <path
             inkscape:connector-curvature="0"
             id="path37"
             d="m 413.146,204.36 c -4.677,0 -8.483,-3.806 -8.483,-8.483 0,-4.677 3.807,-8.483 8.483,-8.483 4.676,0 8.483,3.807 8.483,8.483 0,4.678 -3.807,8.483 -8.483,8.483 z"
             style="fill:#f4cc64" />
          <path
             style="fill:#f4c342"
             d="m 274.291,146.67599 a 18.662001,18.662001 0 0 1 -18.662,18.66201 18.662001,18.662001 0 0 1 -18.662,-18.66201 18.662001,18.662001 0 0 1 18.662,-18.662 18.662001,18.662001 0 0 1 18.662,18.662 z"
             id="circle41"
             inkscape:connector-curvature="0" />
          <path
             style="fill:#f4cc64"
             d="m 259.021,141.586 a 8.4820004,8.4820004 0 0 1 -8.482,8.482 8.4820004,8.4820004 0 0 1 -8.482,-8.482 8.4820004,8.4820004 0 0 1 8.482,-8.482 8.4820004,8.4820004 0 0 1 8.482,8.482 z"
             id="circle43"
             inkscape:connector-curvature="0" />
          <path
             inkscape:connector-curvature="0"
             id="path45"
             d="m 244.891,361 c -2.799,0 -6.081,-1.496 -7.293,-4.02 L 221.391,323.905 C 220.181,321.383 219,317.312 219,314.513 V 296.52 c 0,-2.8 1.181,-7.155 2.391,-9.678 l 16.114,-33.809 c 1.211,-2.523 4.587,-5.034 7.386,-5.034 h 22.125 c 2.799,0 6.057,2.523 7.236,5.062 l 15.555,33.562 c 1.18,2.539 2.193,7.129 2.193,9.929 v 17.928 c 0,2.8 -1.014,7.166 -2.193,9.705 l -15.53,32.768 c -1.18,2.541 -4.462,4.047 -7.261,4.047 z"
             style="fill:#f89b36" />
          <path
             style="fill:#c6362b"
             d="M 243.004,356 224,318.445 V 292.589 L 243.004,253 h 25.855 L 287,292.589 v 25.856 L 268.859,356 Z"
             id="polygon47"
             inkscape:connector-curvature="0" />
          <path
             style="fill:#ee483c"
             d="M 248.846,333 238,312.558 V 298.477 L 248.846,276 h 14.082 L 273,298.477 v 14.081 L 262.928,333 Z"
             id="polygon49"
             inkscape:connector-curvature="0" />
          <path
             style="opacity:0.4;fill:#2a3e4f;enable-background:new"
             d="m 242.859,253 5.987,23 h 13.793 l 6.22,-23 z"
             id="polygon51"
             inkscape:connector-curvature="0" />
          <path
             style="opacity:0.4;fill:#2a3e4f;enable-background:new"
             d="m 238,298.692 -14,-6.103 v 26.288 l 14,-6.319 z"
             id="polygon53"
             inkscape:connector-curvature="0" />
          <path
             style="opacity:0.4;fill:#2a3e4f;enable-background:new"
             d="m 242.859,356 5.987,-23 h 13.793 l 6.22,23 z"
             id="polygon55"
             inkscape:connector-curvature="0" />
          <path
             style="opacity:0.4;fill:#2a3e4f;enable-background:new"
             d="m 273,298.692 14,-6.103 v 26.288 l -14,-6.319 z"
             id="polygon57"
             inkscape:connector-curvature="0" />
          <g
             id="g63">
            <path
               inkscape:connector-curvature="0"
               id="path61"
               d="m 225.885,363.412 c -51.393,0 -94.858,-28.372 -96.684,-29.58 -2.637,-1.746 -3.36,-5.299 -1.615,-7.936 1.744,-2.638 5.295,-3.359 7.932,-1.616 v 0 c 0.42,0.275 42.504,27.681 90.367,27.681 3.162,0 5.727,2.563 5.727,5.726 -0.001,3.163 -2.565,5.725 -5.727,5.725 z"
               style="fill:#f89b36" />
          </g>
          <g
             id="g67">
            <path
               inkscape:connector-curvature="0"
               id="path65"
               d="m 285.396,363.412 c -3.162,0 -5.727,-2.562 -5.727,-5.726 0,-3.162 2.564,-5.726 5.727,-5.726 47.983,0 89.945,-27.402 90.363,-27.68 2.638,-1.746 6.189,-1.022 7.936,1.615 1.745,2.637 1.021,6.189 -1.615,7.936 -1.825,1.209 -45.291,29.581 -96.684,29.581 z"
               style="fill:#f89b36" />
          </g>
          <path
             style="fill:#f4cc64"
             d="m 197.352,299.604 c -0.752,-2.697 -2.668,-3.017 -4.257,-0.711 l -13.946,20.247 c -1.589,2.305 -0.809,5.147 1.735,6.318 l 22.563,10.378 c 2.543,1.171 4.008,-0.078 3.254,-2.774 z"
             id="path71"
             inkscape:connector-curvature="0" />
          <path
             style="fill:#f4cc64"
             d="m 126.203,272.416 c -1.861,-2.09 -3.045,-1.535 -2.63,1.234 l 4.215,28.105 c 0.415,2.768 3.028,4.749 5.806,4.402 l 15.349,-1.919 c 2.777,-0.347 3.526,-2.341 1.665,-4.431 z"
             id="path73"
             inkscape:connector-curvature="0" />
          <path
             style="fill:#f4cc64"
             d="m 313.93,299.604 c 0.752,-2.697 2.668,-3.017 4.257,-0.711 l 13.946,20.247 c 1.589,2.305 0.809,5.147 -1.735,6.318 l -22.563,10.378 c -2.543,1.171 -4.008,-0.078 -3.254,-2.774 z"
             id="path75"
             inkscape:connector-curvature="0" />
          <path
             style="fill:#f4cc64"
             d="m 385.078,272.416 c 1.862,-2.09 3.045,-1.535 2.63,1.234 l -4.215,28.105 c -0.415,2.768 -3.028,4.749 -5.806,4.402 l -15.349,-1.919 c -2.777,-0.347 -3.526,-2.341 -1.665,-4.431 z"
             id="path77"
             inkscape:connector-curvature="0" />
        </g>
      </g>
      <g
         aria-label="English Kingdom"
         style="font-style:italic;font-variant:normal;font-weight:normal;font-stretch:normal;font-size:55.88298798px;line-height:1.25;font-family:'Enchanted Land';-inkscape-font-specification:'Enchanted Land Italic';letter-spacing:0px;word-spacing:0px;fill:#cccccc;fill-opacity:1;stroke:none;stroke-width:1.31303632;stroke-miterlimit:4;stroke-dasharray:none;stroke-opacity:1"
         id="text198"
         transform="matrix(1.2664553,0,0,1.2664553,-135.25241,-30.432614)">
        <path
           d="m 637.70893,114.0491 -0.0819,0.68216 q -0.10915,1.17333 -0.57302,3.41083 l -0.19101,0.95503 q -0.65488,2.48308 -3.19253,4.12028 1.55533,-0.21829 3.19253,-0.21829 4.93888,0 10.55992,2.12835 -6.46693,4.72059 -6.65793,4.72059 -5.1026,-2.10107 -11.76053,-2.10107 -3.57455,0 -7.5584,0.6003 3.41083,-2.97424 8.84087,-4.6933 0.38201,-0.84588 0.54573,-1.63719 0.0819,-0.43659 0.10915,-0.84589 l 0.98231,-11.05108 q 0.0546,-0.73674 0.2183,-1.55533 0.21829,-1.20062 0.76402,-2.59223 0.73674,-2.01921 1.96464,-3.62912 1.50076,-2.01921 3.62912,-3.274396 l -3.32897,-0.491159 q -1.66448,-0.300153 -4.42043,-2.01921 -2.75595,-1.719057 -3.65641,-5.921195 0.0819,0.382012 2.01921,1.473477 1.93735,1.064178 4.88431,1.44619 1.11875,0.16372 6.76708,0.382013 5.64833,0.191006 8.13141,1.500764 2.48308,1.309757 3.57455,6.712506 -1.6372,-1.80092 -11.35124,-2.701374 -1.58262,2.128354 -2.31936,5.757474 -0.13643,0.65488 -0.24558,1.33705 l -0.32744,2.86509 -0.0819,0.70945 1.09147,0.2183 q 2.12835,0.49115 3.21982,0.49115 0.27286,0 0.49116,-0.0273 1.4189,-0.19101 2.10107,-1.25519 0.38201,-0.54573 0.49115,-1.03689 0.87318,1.39162 0.6276,2.6468 -0.19101,0.95504 -1.06418,1.82821 -1.6372,1.63719 -3.65641,1.63719 -0.46387,0 -0.95503,-0.0819 -2.2375,-0.35472 -2.78323,-0.49115 z"
           style="font-style:italic;font-variant:normal;font-weight:normal;font-stretch:normal;font-family:'Enchanted Land';-inkscape-font-specification:'Enchanted Land Italic';fill:#cccccc;fill-opacity:1;stroke:none;stroke-width:1.31303632;stroke-miterlimit:4;stroke-dasharray:none;stroke-opacity:1"
           id="path3663"
           inkscape:connector-curvature="0" />
        <path
           d="m 655.06321,120.81618 q -0.46387,2.34664 1.25519,3.51997 l -4.63873,3.00153 -0.0273,-0.0273 h -0.0273 q -2.40122,-2.12836 -1.74634,-5.37546 l 2.31936,-11.65139 q 0.30015,-1.55533 -0.43659,-2.67409 -0.38201,-0.57301 -0.81859,-0.84588 l 4.63872,-3.00153 h 0.0273 l 0.0546,0.0546 0.10915,0.0546 0.13643,0.0819 q 0.16372,0.13643 0.35473,0.27286 0.21829,0.19101 0.40929,0.38202 0.46388,0.49116 0.73674,1.09146 0.32744,0.73674 0.35473,1.58262 l 5.53918,-3.60183 q 2.2375,0.92775 2.97424,2.70138 0.57302,1.4189 0.2183,3.2471 l -2.23751,11.18752 q -0.46387,2.34664 1.25519,3.51997 l -4.63873,3.00153 -0.0273,-0.0273 h -0.0273 q -2.40122,-2.12836 -1.74634,-5.37546 l 2.45579,-12.36084 q 0.24558,-1.14604 -1.14604,-2.07378 l -3.0561,1.93735 z"
           style="font-style:italic;font-variant:normal;font-weight:normal;font-stretch:normal;font-family:'Enchanted Land';-inkscape-font-specification:'Enchanted Land Italic';fill:#cccccc;fill-opacity:1;stroke:none;stroke-width:1.31303632;stroke-miterlimit:4;stroke-dasharray:none;stroke-opacity:1"
           id="path3665"
           inkscape:connector-curvature="0" />
        <path
           d="m 677.43824,121.5802 1.74634,-8.64986 q 0.32744,-1.85549 0.57302,-3.11067 0.21829,-1.0096 -0.0546,-1.88278 -0.27287,-0.46387 -0.90046,-0.87317 -3.02882,1.99192 -3.4654,4.22943 l -2.01921,10.09604 q -0.24558,1.17333 1.14604,2.10107 z m 7.64025,-13.12486 q 0,0.10915 -2.07378,10.53263 -2.0465,10.42349 -2.10107,10.69636 -0.65488,3.19253 -4.12028,5.83933 -2.97424,2.26479 -5.5119,2.26479 -0.43658,0 -0.8186,-0.0546 -2.10106,-0.32744 -3.2471,-2.12836 -0.76403,-1.2279 -0.51845,-2.45579 0.16372,-0.8186 0.76403,-1.6372 0.98232,-1.36433 2.42851,-1.36433 h 0.16372 q 0.38201,0 0.76402,0.10914 0.10915,0.0546 0.24558,0.10915 l 0.0819,0.0273 h 0.0273 q -1.11875,0.65488 -1.41891,1.58262 l -0.0273,0.19101 q -0.16372,0.73674 0.27286,1.28247 0.49116,0.6003 1.36433,0.6003 h 0.13644 q 1.09146,-0.0546 2.29207,-1.06417 1.66449,-1.41891 2.0465,-3.35626 l 1.17332,-5.81205 -5.51189,3.54726 q -3.41083,-1.47347 -3.35626,-4.85701 h -0.0273 q 0,-0.54574 0.13643,-1.28247 h 0.0273 l 1.91006,-9.60489 q 0.30015,-1.47348 2.15564,-3.11068 1.52805,-1.33704 3.95656,-2.70137 2.78324,-1.55534 5.48461,-2.59223 0.4093,0.16372 0.79131,0.4093 2.81052,1.60991 2.51037,4.82973 z"
           style="font-style:italic;font-variant:normal;font-weight:normal;font-stretch:normal;font-family:'Enchanted Land';-inkscape-font-specification:'Enchanted Land Italic';fill:#cccccc;fill-opacity:1;stroke:none;stroke-width:1.31303632;stroke-miterlimit:4;stroke-dasharray:none;stroke-opacity:1"
           id="path3667"
           inkscape:connector-curvature="0" />
        <path
           d="m 690.80868,100.62408 q 0.16372,-0.873171 0.0273,-1.60991 -0.13643,-0.573019 -0.46387,-1.091464 -0.38201,-0.545733 -0.8186,-0.818599 l 4.66601,-3.001527 h 0.0273 v 0.02729 l 0.0546,0.02729 0.13644,0.08186 0.16372,0.109146 q 0.21829,0.136433 0.38201,0.32744 0.24558,0.191006 0.43659,0.436585 0.54573,0.627593 0.73673,1.337045 0.30016,0.927744 0.0819,1.964636 l -4.50229,22.456888 q -0.46387,2.31936 1.25519,3.4654 l -4.63873,3.00153 -0.0273,-0.0273 h -0.0273 q -2.40122,-2.12836 -1.74634,-5.37546 z"
           style="font-style:italic;font-variant:normal;font-weight:normal;font-stretch:normal;font-family:'Enchanted Land';-inkscape-font-specification:'Enchanted Land Italic';fill:#cccccc;fill-opacity:1;stroke:none;stroke-width:1.31303632;stroke-miterlimit:4;stroke-dasharray:none;stroke-opacity:1"
           id="path3669"
           inkscape:connector-curvature="0" />
        <path
           d="m 701.3686,120.81618 q -0.32744,1.55533 0.43658,2.67408 0.38202,0.57302 0.8186,0.84589 l -4.66601,3.00153 -0.0273,-0.0273 h -0.0273 l -0.0546,-0.0273 -0.10914,-0.0819 -0.16372,-0.10914 q -0.21829,-0.16372 -0.4093,-0.32744 -0.21829,-0.21829 -0.4093,-0.46387 -0.54573,-0.60031 -0.76403,-1.33705 -0.27286,-0.90046 -0.0546,-1.93735 l 2.53766,-12.74285 q 0.30015,-1.55533 -0.43659,-2.67409 -0.38201,-0.57301 -0.8186,-0.84588 l 4.63873,-3.00153 h 0.0273 l 0.0546,0.0273 0.0273,0.0273 0.13644,0.0819 0.16372,0.10915 q 0.191,0.13643 0.4093,0.32744 0.21829,0.21829 0.40929,0.43659 0.54574,0.62759 0.76403,1.33704 0.27287,0.92775 0.0546,1.96464 z m 2.01921,-23.630213 q 0.13643,0.354726 0.38201,0.682166 0.32744,0.436585 0.73674,0.736738 0.76402,0.518446 1.80092,0.518446 0.57301,0 1.22789,-0.16372 -1.25518,1.800913 -2.97424,2.837813 -1.25518,0.76402 -2.37393,0.76402 -1.96464,0 -3.49269,-2.34665 z"
           style="font-style:italic;font-variant:normal;font-weight:normal;font-stretch:normal;font-family:'Enchanted Land';-inkscape-font-specification:'Enchanted Land Italic';fill:#cccccc;fill-opacity:1;stroke:none;stroke-width:1.31303632;stroke-miterlimit:4;stroke-dasharray:none;stroke-opacity:1"
           id="path3671"
           inkscape:connector-curvature="0" />
        <path
           d="m 715.09376,113.31236 q 3.32897,2.15564 3.24711,4.25671 -0.0546,1.25518 -0.24558,2.26479 -0.0819,0.43658 -0.21829,0.84588 -0.57302,1.71906 -1.77363,2.75595 -0.19101,0.13643 -5.07531,3.32897 -0.90046,0.57302 -1.85549,0.57302 -1.20061,0 -2.51037,-0.92775 -2.31936,-1.60991 -2.07378,-3.92927 l 4.33857,-2.81052 q 0.0546,0.68216 0.38201,1.36433 0.90046,1.80092 2.51037,2.2375 0.27287,0.0819 0.51845,0.0819 0.76402,0 1.25518,-0.65488 0.10915,-0.13643 0.21829,-0.4093 l 0.0546,-0.191 0.0546,-0.19101 q 0.0546,-0.16372 0.0819,-0.32744 0.0546,-0.24558 0.0546,-0.46387 0,-2.4558 -2.70137,-3.95656 -2.70138,-1.52805 -3.41083,-2.12836 -1.74634,-1.58262 -1.33704,-3.68369 l 0.0546,-0.30015 q 0.54573,-1.93735 2.12836,-3.21982 l 0.32744,-0.24558 6.05762,-3.92928 q 0.24558,-0.0273 0.51845,-0.0273 1.66448,0 3.08339,1.20061 1.60991,1.33704 1.93735,3.16525 l -4.50229,2.91966 q 0.0273,-0.10914 -0.57302,-1.17332 -0.68217,-1.09146 -1.36433,-1.52805 -0.57302,-0.43659 -1.60991,-0.54573 h -0.10915 q -0.30015,0 -0.49116,0.10914 l -0.0546,0.0546 q -0.65488,0.43658 -0.8186,1.20061 v 0.0546 q -0.0273,0.27287 0,0.60031 0.0546,0.21829 0.13643,0.46387 0.46387,0.98232 3.76555,3.16525 z"
           style="font-style:italic;font-variant:normal;font-weight:normal;font-stretch:normal;font-family:'Enchanted Land';-inkscape-font-specification:'Enchanted Land Italic';fill:#cccccc;fill-opacity:1;stroke:none;stroke-width:1.31303632;stroke-miterlimit:4;stroke-dasharray:none;stroke-opacity:1"
           id="path3673"
           inkscape:connector-curvature="0" />
        <path
           d="m 735.88617,120.81618 q -0.46387,2.34664 1.25519,3.51997 l -4.63873,3.00153 -0.0273,-0.0273 h -0.0273 q -2.40122,-2.12836 -1.74635,-5.37546 l 2.4558,-12.36084 q 0.24558,-1.17332 -1.17333,-2.07378 l -3.02881,1.93735 -2.26479,11.37852 q -0.46387,2.34664 1.2279,3.51997 l -4.63873,3.00153 -0.0273,-0.0273 h -0.0273 q -2.40122,-2.12836 -1.74634,-5.37546 l 4.25671,-21.31085 q 0.16372,-0.873171 0.0273,-1.60991 -0.13644,-0.573019 -0.46388,-1.091464 -0.38201,-0.545733 -0.81859,-0.818599 l 4.63872,-3.001527 h 0.0546 v 0.02729 l 0.0546,0.02729 0.13643,0.08186 0.16372,0.109146 q 0.19101,0.136433 0.38201,0.32744 0.24558,0.191006 0.43659,0.436585 0.54573,0.627593 0.73674,1.337045 0.30015,0.927744 0.0819,1.964636 l -1.77363,8.840868 5.51189,-3.57455 q 2.23751,0.92775 2.97424,2.70138 0.57302,1.4189 0.2183,3.2471 z"
           style="font-style:italic;font-variant:normal;font-weight:normal;font-stretch:normal;font-family:'Enchanted Land';-inkscape-font-specification:'Enchanted Land Italic';fill:#cccccc;fill-opacity:1;stroke:none;stroke-width:1.31303632;stroke-miterlimit:4;stroke-dasharray:none;stroke-opacity:1"
           id="path3675"
           inkscape:connector-curvature="0" />
        <path
           d="m 756.95143,110.25626 h 0.0273 q 2.29208,-2.01921 7.06723,-6.22135 1.52806,-1.33705 3.08339,-2.70138 0.49116,-0.43658 0.92775,-0.8186 0.13643,-0.13643 0.21829,-0.21829 l 0.10915,-0.0819 q 1.28247,-1.091463 1.44619,-1.991921 0.0273,-0.08186 0.0273,-0.191007 0.0273,-0.518445 -0.30015,-1.091464 -0.30015,-0.491159 -0.73674,-0.955032 l 4.66601,-3.028814 q 1.52805,1.991923 1.44619,4.283998 -0.0273,0.491159 -0.13643,0.982319 -0.16372,0.927744 -0.62759,1.855491 -0.90046,1.85549 -2.81052,3.54726 l -8.84087,7.7494 q 3.35626,4.82973 4.03842,9.52303 0.70946,4.66601 2.21022,7.23095 1.17332,2.07378 3.0561,2.07378 0.46387,0 0.98232,-0.13643 -0.57302,2.86509 -3.16525,3.60183 -1.09146,0.32744 -2.01921,0.32744 -1.39162,0 -2.48308,-0.68216 -1.88278,-1.11876 -2.81052,-4.25672 -0.90046,-3.13796 -1.03689,-3.68369 -2.67409,-9.68675 -5.26632,-10.25977 h -0.0273 l -1.74634,8.62257 q -0.19101,1.06418 0.10915,1.96464 0.191,0.62759 0.68216,1.14604 l 0.51845,0.35472 -0.0546,0.0273 0.0273,0.0273 -4.63872,3.00152 h -0.0273 l -0.4093,0.24558 q -0.73674,-0.46387 -1.58262,-0.76402 -1.03689,-0.38201 -2.15565,-0.54573 -0.68216,-0.0819 -1.39161,-0.0819 -2.23751,0 -4.66601,0.90046 0.87317,-1.14604 2.34664,-2.34665 2.91967,-2.34665 6.00306,-2.59223 l 4.77516,-23.93036 q 0.84588,-4.284002 -4.20214,-4.284002 1.85549,-3.056101 5.78476,-3.056101 4.88431,0 3.92927,4.775158 z"
           style="font-style:italic;font-variant:normal;font-weight:normal;font-stretch:normal;font-family:'Enchanted Land';-inkscape-font-specification:'Enchanted Land Italic';fill:#cccccc;fill-opacity:1;stroke:none;stroke-width:1.31303632;stroke-miterlimit:4;stroke-dasharray:none;stroke-opacity:1"
           id="path3677"
           inkscape:connector-curvature="0" />
        <path
           d="m 778.64429,120.81618 q -0.32744,1.55533 0.43659,2.67408 0.38201,0.57302 0.8186,0.84589 l -4.66601,3.00153 -0.0273,-0.0273 h -0.0273 l -0.0546,-0.0273 -0.10915,-0.0819 -0.16372,-0.10914 q -0.21829,-0.16372 -0.40929,-0.32744 -0.2183,-0.21829 -0.4093,-0.46387 -0.54574,-0.60031 -0.76403,-1.33705 -0.27287,-0.90046 -0.0546,-1.93735 l 2.53765,-12.74285 q 0.30016,-1.55533 -0.43658,-2.67409 -0.38202,-0.57301 -0.8186,-0.84588 l 4.63872,-3.00153 h 0.0273 l 0.0546,0.0273 0.0273,0.0273 0.13643,0.0819 0.16372,0.10915 q 0.19101,0.13643 0.4093,0.32744 0.21829,0.21829 0.4093,0.43659 0.54573,0.62759 0.76403,1.33704 0.27286,0.92775 0.0546,1.96464 z m 2.01921,-23.630213 q 0.13644,0.354726 0.38202,0.682166 0.32744,0.436585 0.73673,0.736738 0.76403,0.518446 1.80092,0.518446 0.57302,0 1.2279,-0.16372 -1.25519,1.800913 -2.97424,2.837813 -1.25519,0.76402 -2.37394,0.76402 -1.96463,0 -3.49268,-2.34665 z"
           style="font-style:italic;font-variant:normal;font-weight:normal;font-stretch:normal;font-family:'Enchanted Land';-inkscape-font-specification:'Enchanted Land Italic';fill:#cccccc;fill-opacity:1;stroke:none;stroke-width:1.31303632;stroke-miterlimit:4;stroke-dasharray:none;stroke-opacity:1"
           id="path3679"
           inkscape:connector-curvature="0" />
        <path
           d="m 788.2219,120.81618 q -0.46388,2.34664 1.25518,3.51997 l -4.63872,3.00153 -0.0273,-0.0273 h -0.0273 q -2.40122,-2.12836 -1.74634,-5.37546 l 2.31936,-11.65139 q 0.30015,-1.55533 -0.43658,-2.67409 -0.38202,-0.57301 -0.8186,-0.84588 l 4.63872,-3.00153 h 0.0273 l 0.0546,0.0546 0.10915,0.0546 0.13643,0.0819 q 0.16372,0.13643 0.35473,0.27286 0.21829,0.19101 0.4093,0.38202 0.46387,0.49116 0.73674,1.09146 0.32743,0.73674 0.35472,1.58262 l 5.53918,-3.60183 q 2.23751,0.92775 2.97425,2.70138 0.57301,1.4189 0.21829,3.2471 l -2.2375,11.18752 q -0.46388,2.34664 1.25518,3.51997 l -4.63872,3.00153 -0.0273,-0.0273 h -0.0273 q -2.40122,-2.12836 -1.74634,-5.37546 l 2.45579,-12.36084 q 0.24558,-1.14604 -1.14603,-2.07378 l -3.0561,1.93735 z"
           style="font-style:italic;font-variant:normal;font-weight:normal;font-stretch:normal;font-family:'Enchanted Land';-inkscape-font-specification:'Enchanted Land Italic';fill:#cccccc;fill-opacity:1;stroke:none;stroke-width:1.31303632;stroke-miterlimit:4;stroke-dasharray:none;stroke-opacity:1"
           id="path3681"
           inkscape:connector-curvature="0" />
        <path
           d="m 810.59692,121.5802 1.74634,-8.64986 q 0.32744,-1.85549 0.57302,-3.11067 0.21829,-1.0096 -0.0546,-1.88278 -0.27287,-0.46387 -0.90046,-0.87317 -3.02882,1.99192 -3.4654,4.22943 l -2.01921,10.09604 q -0.24558,1.17333 1.14604,2.10107 z m 7.64025,-13.12486 q 0,0.10915 -2.07378,10.53263 -2.0465,10.42349 -2.10107,10.69636 -0.65488,3.19253 -4.12028,5.83933 -2.97424,2.26479 -5.5119,2.26479 -0.43658,0 -0.8186,-0.0546 -2.10106,-0.32744 -3.2471,-2.12836 -0.76403,-1.2279 -0.51845,-2.45579 0.16372,-0.8186 0.76403,-1.6372 0.98232,-1.36433 2.42851,-1.36433 h 0.16372 q 0.38201,0 0.76402,0.10914 0.10915,0.0546 0.24558,0.10915 l 0.0819,0.0273 h 0.0273 q -1.11875,0.65488 -1.41891,1.58262 l -0.0273,0.19101 q -0.16372,0.73674 0.27286,1.28247 0.49116,0.6003 1.36433,0.6003 h 0.13644 q 1.09146,-0.0546 2.29207,-1.06417 1.66449,-1.41891 2.0465,-3.35626 l 1.17332,-5.81205 -5.51189,3.54726 q -3.41083,-1.47347 -3.35626,-4.85701 h -0.0273 q 0,-0.54574 0.13643,-1.28247 h 0.0273 l 1.91006,-9.60489 q 0.30015,-1.47348 2.15564,-3.11068 1.52805,-1.33704 3.95656,-2.70137 2.78324,-1.55534 5.48461,-2.59223 0.4093,0.16372 0.79131,0.4093 2.81052,1.60991 2.51037,4.82973 z"
           style="font-style:italic;font-variant:normal;font-weight:normal;font-stretch:normal;font-family:'Enchanted Land';-inkscape-font-specification:'Enchanted Land Italic';fill:#cccccc;fill-opacity:1;stroke:none;stroke-width:1.31303632;stroke-miterlimit:4;stroke-dasharray:none;stroke-opacity:1"
           id="path3683"
           inkscape:connector-curvature="0" />
        <path
           d="m 830.73445,109.57409 q 0.24558,-1.17332 -1.17333,-2.07378 -3.00153,1.93735 -3.43811,4.14756 l -1.96464,9.7959 q -0.21829,1.17332 1.17333,2.07378 l 2.97424,-1.91006 z m -0.68217,17.76359 q -0.84588,-0.54574 -1.30976,-1.60991 -0.51844,-0.98232 -0.6003,-2.10107 l -5.75748,3.71098 q -3.38354,-1.44619 -3.30168,-4.77516 h -0.0273 q 0,-0.54573 0.10915,-1.25518 h 0.0273 l 1.88277,-9.33203 q 0.27287,-1.44619 2.12836,-3.08338 1.47348,-1.30976 3.90199,-2.64681 2.4285,-1.36433 4.77515,-2.31936 l 0.65488,-3.30168 q 0.16372,-0.873171 0.0273,-1.60991 -0.13643,-0.573019 -0.46387,-1.091464 -0.38202,-0.545733 -0.8186,-0.818599 l 4.66601,-3.001527 h 0.0273 v 0.02729 l 0.0546,0.02729 0.13643,0.08186 0.16372,0.109146 q 0.21829,0.136433 0.38201,0.32744 0.24558,0.191006 0.43659,0.436585 0.54573,0.627593 0.73674,1.337045 0.30015,0.927744 0.0819,1.964636 l -4.50229,22.484178 q -0.30016,1.58262 0.43658,2.6468 0.32744,0.43658 0.8186,0.79131 l -4.63872,3.00153 z"
           style="font-style:italic;font-variant:normal;font-weight:normal;font-stretch:normal;font-family:'Enchanted Land';-inkscape-font-specification:'Enchanted Land Italic';fill:#cccccc;fill-opacity:1;stroke:none;stroke-width:1.31303632;stroke-miterlimit:4;stroke-dasharray:none;stroke-opacity:1"
           id="path3685"
           inkscape:connector-curvature="0" />
        <path
           d="m 849.94421,123.4084 -5.94848,3.92928 q -0.35472,-0.0273 -0.70945,-0.0819 -0.49116,-0.0819 -0.95503,-0.2183 -1.2279,-0.38201 -2.15564,-1.14603 -2.67409,-2.18293 -2.53766,-7.09452 0,-1.47348 0.32744,-3.00153 0.35473,-1.8282 1.11875,-3.73827 1.25519,-3.11067 3.30168,-5.21174 2.59223,-2.61952 6.3305,-3.54726 5.67561,1.74634 3.27439,13.8616 -0.57302,2.75595 -1.50076,6.00305 z m -2.81052,-5.59375 q 2.10107,-10.83279 -1.99192,-10.86007 -1.6372,2.10106 -2.29208,5.43003 -0.4093,2.01921 -0.46387,4.44772 -0.13643,1.91006 0.79131,3.65641 0.98232,1.8282 2.91967,2.45579 z"
           style="font-style:italic;font-variant:normal;font-weight:normal;font-stretch:normal;font-family:'Enchanted Land';-inkscape-font-specification:'Enchanted Land Italic';fill:#cccccc;fill-opacity:1;stroke:none;stroke-width:1.31303632;stroke-miterlimit:4;stroke-dasharray:none;stroke-opacity:1"
           id="path3687"
           inkscape:connector-curvature="0" />
        <path
           d="m 868.36269,120.81618 q -0.46387,2.34664 1.2279,3.51997 l -4.63873,3.00153 -0.0273,-0.0273 h -0.0273 q -2.37393,-2.12836 -1.71906,-5.37546 l 2.4558,-12.36084 q 0.24558,-1.17332 -1.14604,-2.07378 l -3.02881,1.93735 -2.26479,11.37852 q -0.46387,2.34664 1.2279,3.51997 l -4.63873,3.00153 -0.0273,-0.0273 h -0.0273 q -2.40122,-2.12836 -1.74634,-5.37546 l 2.31936,-11.65139 q 0.30015,-1.55533 -0.43659,-2.67409 -0.38201,-0.57301 -0.8186,-0.84588 l 4.63873,-3.00153 h 0.0273 l 0.0546,0.0546 0.10914,0.0546 0.13644,0.0819 q 0.16372,0.13643 0.35472,0.27286 0.2183,0.19101 0.4093,0.38202 0.46387,0.49116 0.73674,1.09146 0.32744,0.73674 0.30015,1.58262 l 5.59376,-3.60183 q 2.86509,1.20061 3.24711,3.82013 l 5.89391,-3.82013 q 2.2375,0.92775 2.97424,2.70138 0.57302,1.4189 0.21829,3.2471 l -2.2375,11.18752 q -0.46388,2.34664 1.25518,3.51997 l -4.63872,3.00153 -0.0273,-0.0273 h -0.0273 q -2.40122,-2.12836 -1.74634,-5.37546 l 2.4558,-12.36084 q 0.24558,-1.17332 -1.14604,-2.07378 l -3.00153,1.93735 z"
           style="font-style:italic;font-variant:normal;font-weight:normal;font-stretch:normal;font-family:'Enchanted Land';-inkscape-font-specification:'Enchanted Land Italic';fill:#cccccc;fill-opacity:1;stroke:none;stroke-width:1.31303632;stroke-miterlimit:4;stroke-dasharray:none;stroke-opacity:1"
           id="path3689"
           inkscape:connector-curvature="0" />
      </g>
    </g>
  </g>
</svg>
