<?xml version="1.0" encoding="UTF-8" standalone="no"?>
<!-- Created with Inkscape (http://www.inkscape.org/) -->

<svg
   xmlns:dc="http://purl.org/dc/elements/1.1/"
   xmlns:cc="http://creativecommons.org/ns#"
   xmlns:rdf="http://www.w3.org/1999/02/22-rdf-syntax-ns#"
   xmlns:svg="http://www.w3.org/2000/svg"
   xmlns="http://www.w3.org/2000/svg"
   xmlns:sodipodi="http://sodipodi.sourceforge.net/DTD/sodipodi-0.dtd"
   xmlns:inkscape="http://www.inkscape.org/namespaces/inkscape"
   width="600"
   height="150"
   viewBox="0 0 158.75 39.6875"
   version="1.1"
   id="svg407"
   inkscape:version="0.92.1 r15371"
   sodipodi:docname="uuxposts.svg">
  <defs
     id="defs401" />
  <sodipodi:namedview
     id="base"
     pagecolor="#ffffff"
     bordercolor="#666666"
     borderopacity="1.0"
     inkscape:pageopacity="0.0"
     inkscape:pageshadow="2"
     inkscape:zoom="0.7"
     inkscape:cx="553.56085"
     inkscape:cy="336.40362"
     inkscape:document-units="mm"
     inkscape:current-layer="layer1"
     showgrid="false"
     inkscape:window-width="1600"
     inkscape:window-height="837"
     inkscape:window-x="-8"
     inkscape:window-y="-8"
     inkscape:window-maximized="1"
     units="px" />
  <metadata
     id="metadata404">
    <rdf:RDF>
      <cc:Work
         rdf:about="">
        <dc:format>image/svg+xml</dc:format>
        <dc:type
           rdf:resource="http://purl.org/dc/dcmitype/StillImage" />
        <dc:title></dc:title>
      </cc:Work>
    </rdf:RDF>
  </metadata>
  <g
     inkscape:label="Camada 1"
     inkscape:groupmode="layer"
     id="layer1"
     transform="translate(0,-257.31252)">
    <g
       id="layer1-3"
       inkscape:label="Camada 1"
       transform="matrix(0.39768018,0,0,0.39768018,230.30033,267.61541)">
      <text
         id="text1013"
         y="-20.822247"
         x="-656.66418"
         style="font-style:normal;font-variant:normal;font-weight:normal;font-stretch:normal;font-size:54.07910919px;line-height:1.25;font-family:TrashHand;-inkscape-font-specification:TrashHand;letter-spacing:0px;word-spacing:0px;fill:#000000;fill-opacity:1;stroke:none;stroke-width:1.35197771"
         xml:space="preserve"><tspan
           style="font-style:normal;font-variant:normal;font-weight:normal;font-stretch:normal;font-family:TrashHand;-inkscape-font-specification:TrashHand;stroke-width:1.35197771"
           y="27.025091"
           x="-656.66418"
           id="tspan1011"
           sodipodi:role="line" /></text>
      <g
         id="g991">
        <g
           id="text836"
           style="font-style:normal;font-weight:normal;font-size:100.77248383px;line-height:1.25;font-family:sans-serif;letter-spacing:0px;word-spacing:0px;fill:#2f4f4f;fill-opacity:1;stroke:none;stroke-width:2.51931214"
           aria-label="U">
          <path
             id="path842"
             style="font-style:normal;font-variant:normal;font-weight:normal;font-stretch:normal;font-family:Fontastique;-inkscape-font-specification:Fontastique;fill:#2f4f4f;stroke-width:2.51931214"
             d="m -410.68506,29.370008 q 0,8.968751 -2.11622,15.216645 -2.01545,6.247894 -5.84481,10.278793 -3.72858,4.030899 -9.06952,5.844804 -5.34094,1.813905 -11.79038,1.813905 -6.55021,0 -11.89116,-1.813905 -5.24016,-1.813905 -8.96875,-5.844804 -3.72858,-4.030899 -5.8448,-10.278793 -2.01545,-6.247894 -2.01545,-15.216645 l 0.30232,-26.7047087 q 0,-6.046349 3.22472,-8.5656611 3.22472,-2.6200846 9.47261,-2.6200846 -0.10077,0.6046349 -0.20154,1.8139048 -0.10078,1.1084973 -0.20155,3.0231745 0,1.9146772 0,4.9378517 V 29.370008 q -0.20154,6.751756 0.80618,11.286518 1.00772,4.433989 3.12395,7.054074 2.11622,2.620084 5.13939,3.728582 3.12395,1.108497 7.05408,1.108497 3.93012,0 6.9533,-1.108497 3.12395,-1.108498 5.24017,-3.728582 2.11622,-2.620085 3.12395,-7.054074 1.00772,-4.534762 0.90695,-11.286518 l 0.30232,-26.7047087 q 0,-6.046349 3.22471,-8.5656611 3.22472,-2.6200846 9.47262,-2.6200846 -0.10077,0.6046349 -0.20155,1.8139048 -0.10077,1.1084973 -0.20154,3.0231745 0,1.9146772 0,4.9378517 z"
             inkscape:connector-curvature="0" />
        </g>
        <g
           id="text836-9"
           style="font-style:normal;font-weight:normal;font-size:100.77248383px;line-height:1.25;font-family:sans-serif;letter-spacing:0px;word-spacing:0px;fill:#20b2aa;fill-opacity:1;stroke:none;stroke-width:2.51931214"
           aria-label="U">
          <path
             id="path845"
             style="font-style:normal;font-variant:normal;font-weight:normal;font-stretch:normal;font-family:Fontastique;-inkscape-font-specification:Fontastique;fill:#20b2aa;stroke-width:2.51931214"
             d="m -386.7984,29.975476 q 0,8.968751 -2.11623,15.216645 -2.01545,6.247894 -5.8448,10.278794 -3.72858,4.030899 -9.06952,5.844804 -5.34095,1.813904 -11.79038,1.813904 -6.55022,0 -11.89116,-1.813904 -5.24017,-1.813905 -8.96875,-5.844804 -3.72858,-4.0309 -5.8448,-10.278794 -2.01545,-6.247894 -2.01545,-15.216645 l 0.30231,-26.7047079 q 0,-6.046349 3.22472,-8.5656611 3.22472,-2.6200846 9.47262,-2.6200846 -0.10077,0.6046349 -0.20155,1.8139047 -0.10077,1.1084973 -0.20154,3.0231745 0,1.9146772 0,4.9378517 V 29.975476 q -0.20155,6.751757 0.80618,11.286518 1.00772,4.43399 3.12394,7.054074 2.11623,2.620085 5.1394,3.728582 3.12395,1.108498 7.05408,1.108498 3.93012,0 6.9533,-1.108498 3.12394,-1.108497 5.24017,-3.728582 2.11622,-2.620084 3.12394,-7.054074 1.00773,-4.534761 0.90696,-11.286518 l 0.30231,-26.7047079 q 0,-6.046349 3.22472,-8.5656611 3.22472,-2.6200846 9.47262,-2.6200846 -0.10078,0.6046349 -0.20155,1.8139047 -0.10077,1.1084973 -0.20154,3.0231745 0,1.9146772 0,4.9378517 z"
             inkscape:connector-curvature="0" />
        </g>
        <g
           id="text836-9-2"
           style="font-style:normal;font-weight:normal;font-size:100.77248383px;line-height:1.25;font-family:sans-serif;letter-spacing:0px;word-spacing:0px;fill:#20b2aa;fill-opacity:1;stroke:none;stroke-width:2.51931214"
           aria-label="X">
          <path
             id="path848"
             style="font-style:normal;font-variant:normal;font-weight:normal;font-stretch:normal;font-family:Fontastique;-inkscape-font-specification:Fontastique;fill:#20b2aa;stroke-width:2.51931214"
             d="m -322.53969,56.065508 q -2.11622,2.620084 -4.63553,3.728582 -1.1085,0.503862 -2.31777,0.80618 -1.20927,0.201545 -2.51931,0 -1.31005,-0.302318 -2.72086,-1.007725 -1.41082,-0.80618 -2.82163,-2.41854 l -20.65836,-23.076899 -25.69698,26.603936 q -2.72086,-1.511587 -3.82936,-3.829354 -1.00772,-2.01545 -0.60463,-4.937852 0.40309,-3.023174 3.93012,-7.255619 0.50387,-0.503862 1.91468,-2.015449 1.41082,-1.511588 3.22472,-3.426265 1.91468,-1.914677 4.0309,-4.030899 2.11622,-2.216995 3.93013,-4.131672 1.91467,-1.914677 3.32549,-3.325492 1.41081,-1.410815 1.91468,-1.813905 L -380.88696,8.2993506 q -1.91468,-2.1162222 -2.9224,-3.9301269 -0.90695,-1.9146772 -1.20927,-3.52703692 -0.30232,-1.71313222 -0.10077,-3.12394698 0.30231,-1.4108148 0.90695,-2.5193121 1.31004,-2.6200846 4.23244,-4.5347618 l 23.17767,27.1077981 26.30162,-27.1077981 q 2.217,1.8139047 3.22472,4.1316719 0.80618,2.0154496 0.40309,4.93785166 -0.30231,2.82162954 -3.32549,6.44943894 -0.50386,0.5038624 -1.91468,2.1162222 -1.31004,1.5115872 -3.12394,3.5270374 -1.81391,1.914677 -3.93013,4.232444 -2.01545,2.216994 -3.93013,4.333217 -1.8139,2.015449 -3.42626,3.627809 -1.51159,1.61236 -2.217,2.317767 z"
             inkscape:connector-curvature="0" />
        </g>
        <g
           id="text836-9-1"
           style="font-style:normal;font-weight:normal;font-size:42.54747391px;line-height:1.25;font-family:sans-serif;letter-spacing:0px;word-spacing:0px;fill:#2f4f4f;fill-opacity:1;stroke:none;stroke-width:1.06368685"
           aria-label="-POSTS">
          <path
             id="path851"
             style="font-style:normal;font-variant:normal;font-weight:normal;font-stretch:normal;font-family:Fontastique;-inkscape-font-specification:Fontastique;fill:#2f4f4f;stroke-width:1.06368685"
             d="m -325.9343,24.246561 q 0,1.914636 -1.06369,3.063418 -1.06368,1.148782 -3.02087,1.148782 h -9.19025 q 0,-1.914636 1.06368,-3.063418 1.06369,-1.148782 3.02088,-1.148782 z"
             inkscape:connector-curvature="0" />
          <path
             id="path853"
             style="font-style:normal;font-variant:normal;font-weight:normal;font-stretch:normal;font-family:Fontastique;-inkscape-font-specification:Fontastique;fill:#2f4f4f;stroke-width:1.06368685"
             d="m -314.9863,33.86229 q 0,1.318972 0,2.127374 0.0425,0.765854 0.0851,1.233877 0.0426,0.510569 0.0851,0.765854 -2.5954,0 -4.04201,-1.063687 -1.40407,-1.106234 -1.40407,-3.659082 l 0.0851,-17.997582 q 0,-2.042279 0.72331,-3.403798 0.72331,-1.361519 1.99973,-2.169921 1.27643,-0.8509495 2.97833,-1.1913293 1.74444,-0.3829272 3.78672,-0.5105697 1.99973,-0.1276424 4.2122,0.2978324 2.21247,0.4254747 4.12711,1.5742565 1.91463,1.1062341 3.19106,3.0208711 1.31897,1.914636 1.44661,4.850412 0.0851,1.786993 -0.46802,3.70163 -0.51057,1.872089 -1.74445,3.403798 -1.23387,1.531709 -3.27615,2.552848 -2.04228,0.978592 -4.97806,0.978592 -1.44661,0 -2.68049,-0.17019 -1.19133,-0.17019 -2.12737,-0.382927 -1.10624,-0.255285 -1.99973,-0.595665 z m 5.87155,-9.658276 q 2.72304,0 4.42494,-1.616804 1.74444,-1.616804 1.6168,-4.850412 -0.0851,-1.701899 -0.76586,-2.850681 -0.63821,-1.148782 -1.70189,-1.786994 -1.02114,-0.638212 -2.38266,-0.85095 -1.36152,-0.212737 -2.76559,-0.08509 -1.27642,0.127643 -2.08482,0.468023 -0.80841,0.297832 -1.31898,0.765854 -0.46802,0.425475 -0.68076,0.978592 -0.17019,0.553117 -0.17019,1.106234 v 7.488356 q 0.76586,0.34038 1.7019,0.595664 0.80841,0.212738 1.82954,0.425475 1.06369,0.212738 2.29757,0.212738 z"
             inkscape:connector-curvature="0" />
          <path
             id="path855"
             style="font-style:normal;font-variant:normal;font-weight:normal;font-stretch:normal;font-family:Fontastique;-inkscape-font-specification:Fontastique;fill:#2f4f4f;stroke-width:1.06368685"
             d="m -281.66831,7.9508786 q 2.80814,0 5.40353,0.9785919 2.63794,0.9785919 4.68022,2.8932285 2.04228,1.914636 3.23361,4.765317 1.23388,2.808133 1.23388,6.552311 0,3.744177 -1.23388,6.594858 -1.19133,2.850681 -3.23361,4.807865 -2.04228,1.914636 -4.68022,2.893228 -2.59539,0.978592 -5.40353,0.978592 -2.80813,0 -5.44607,-0.978592 -2.5954,-0.978592 -4.63768,-2.893228 -2.04228,-1.957184 -3.27615,-4.807865 -1.19133,-2.850681 -1.19133,-6.594858 0,-3.744178 1.19133,-6.552311 1.23387,-2.850681 3.27615,-4.765317 2.04228,-1.9146366 4.63768,-2.8932285 2.63794,-0.9785919 5.44607,-0.9785919 z m 0,26.8049084 q 1.65935,0 3.23361,-0.680759 1.6168,-0.68076 2.89323,-2.127374 1.27642,-1.446614 2.04228,-3.616535 0.76585,-2.169922 0.76585,-5.190792 0,-2.978323 -0.76585,-5.148245 -0.76586,-2.169921 -2.04228,-3.573987 -1.27643,-1.404067 -2.89323,-2.084827 -1.57426,-0.680759 -3.23361,-0.680759 -1.65935,0 -3.27615,0.680759 -1.57426,0.68076 -2.85068,2.084827 -1.27643,1.404066 -2.04228,3.573987 -0.76586,2.169922 -0.76586,5.148245 0,3.02087 0.76586,5.190792 0.76585,2.169921 2.04228,3.616535 1.27642,1.446614 2.85068,2.127374 1.6168,0.680759 3.27615,0.680759 z"
             inkscape:connector-curvature="0" />
          <path
             id="path857"
             style="font-style:normal;font-variant:normal;font-weight:normal;font-stretch:normal;font-family:Fontastique;-inkscape-font-specification:Fontastique;fill:#2f4f4f;stroke-width:1.06368685"
             d="m -254.81487,38.41487 q -2.16992,0 -3.91437,-0.51057 -1.70189,-0.510569 -2.93577,-1.191329 -1.23388,-0.723307 -1.99973,-1.446614 -0.72331,-0.723307 -0.8935,-1.148782 l 0.12764,-0.127642 q 0.38293,-0.553118 0.85095,-0.893497 0.42548,-0.255285 0.8935,-0.255285 0.29783,0 0.55312,0.08509 0.29783,0.0851 0.63821,0.212737 0.34038,0.08509 0.68076,0.255285 0.34038,0.127642 0.76585,0.34038 0.85095,0.34038 1.99973,0.638212 1.14879,0.255285 2.76559,0.34038 h 0.46802 q 1.57426,0 2.68049,-0.34038 1.10624,-0.382927 1.787,-0.936045 0.68076,-0.595664 0.97859,-1.276424 0.29783,-0.723307 0.29783,-1.361519 0.0426,-1.106234 -0.68076,-1.999731 -0.68076,-0.936045 -1.91463,-1.786994 -1.23388,-0.85095 -2.89323,-1.744447 -1.65935,-0.893497 -3.53144,-1.914636 -3.06342,-1.744446 -4.55258,-3.87182 -1.48916,-2.169921 -1.27643,-4.55258 0.17019,-1.786994 0.97859,-3.105965 0.80841,-1.318972 1.99974,-2.1699215 1.23387,-0.8934969 2.72303,-1.2764242 1.53171,-0.4254747 3.06342,-0.4254747 2.5954,0 4.55258,0.6807595 1.95719,0.6807596 3.31871,1.4891619 1.57425,0.936044 2.68049,2.127373 l -0.0851,0.127643 q -0.51057,0.638212 -0.85095,0.850949 -0.42547,0.297833 -0.93604,0.297833 -0.46802,0 -1.14878,-0.297833 -0.34038,-0.127642 -0.72331,-0.255285 -0.34038,-0.170189 -0.76586,-0.340379 -1.23387,-0.468023 -2.63794,-0.723307 -1.36152,-0.297833 -2.42521,-0.255285 -0.55311,0 -1.19132,0.08509 -0.63822,0.0851 -1.23388,0.297832 -0.55312,0.212737 -1.02114,0.595665 -0.42548,0.382927 -0.59567,0.978592 -0.38292,1.276424 0.51057,2.255016 0.93605,0.978592 2.46776,1.914636 1.57425,0.936044 3.44634,1.872089 1.91464,0.893497 3.57399,2.042279 2.29756,1.616804 3.4038,3.318703 1.14878,1.659351 1.40407,3.276155 0.25528,1.616804 -0.17019,3.105966 -0.42548,1.489161 -1.19133,2.637943 -1.36152,2.127374 -4.08456,3.276156 -2.68049,1.106234 -5.95665,1.106234 z"
             inkscape:connector-curvature="0" />
          <path
             id="path859"
             style="font-style:normal;font-variant:normal;font-weight:normal;font-stretch:normal;font-family:Fontastique;-inkscape-font-specification:Fontastique;fill:#2f4f4f;stroke-width:1.06368685"
             d="m -222.36444,33.86229 q 0,1.276424 0,2.084826 0.0425,0.808402 0.0851,1.276425 0.0426,0.510569 0.0851,0.765854 -2.63795,0 -4.04201,-1.106234 -1.40407,-1.106235 -1.40407,-3.659083 l 0.0851,-20.592977 h -9.36044 q 0,-1.914637 1.06369,-3.0634184 1.06368,-1.1487818 3.02087,-1.1487818 h 19.82712 q 0,1.9146362 -1.06369,3.0634182 -1.06368,1.148782 -3.02087,1.148782 h -5.31843 z"
             inkscape:connector-curvature="0" />
          <path
             id="path861"
             style="font-style:normal;font-variant:normal;font-weight:normal;font-stretch:normal;font-family:Fontastique;-inkscape-font-specification:Fontastique;fill:#2f4f4f;stroke-width:1.06368685"
             d="m -197.7248,38.41487 q -2.16992,0 -3.91437,-0.51057 -1.7019,-0.510569 -2.93578,-1.191329 -1.23387,-0.723307 -1.99973,-1.446614 -0.7233,-0.723307 -0.89349,-1.148782 l 0.12764,-0.127642 q 0.38293,-0.553118 0.85095,-0.893497 0.42547,-0.255285 0.89349,-0.255285 0.29784,0 0.55312,0.08509 0.29783,0.0851 0.63821,0.212737 0.34038,0.08509 0.68076,0.255285 0.34038,0.127642 0.76586,0.34038 0.85095,0.34038 1.99973,0.638212 1.14878,0.255285 2.76559,0.34038 h 0.46802 q 1.57425,0 2.68049,-0.34038 1.10623,-0.382927 1.78699,-0.936045 0.68076,-0.595664 0.97859,-1.276424 0.29784,-0.723307 0.29784,-1.361519 0.0425,-1.106234 -0.68076,-1.999731 -0.68076,-0.936045 -1.91464,-1.786994 -1.23388,-0.85095 -2.89323,-1.744447 -1.65935,-0.893497 -3.53144,-1.914636 -3.06342,-1.744446 -4.55258,-3.87182 -1.48916,-2.169921 -1.27642,-4.55258 0.17019,-1.786994 0.97859,-3.105965 0.8084,-1.318972 1.99973,-2.1699215 1.23388,-0.8934969 2.72304,-1.2764242 1.53171,-0.4254747 3.06342,-0.4254747 2.59539,0 4.55258,0.6807595 1.95718,0.6807596 3.3187,1.4891619 1.57426,0.936044 2.68049,2.127373 l -0.0851,0.127643 q -0.51057,0.638212 -0.85095,0.850949 -0.42548,0.297833 -0.93605,0.297833 -0.46802,0 -1.14878,-0.297833 -0.34038,-0.127642 -0.72331,-0.255285 -0.34038,-0.170189 -0.76585,-0.340379 -1.23388,-0.468023 -2.63794,-0.723307 -1.36152,-0.297833 -2.42521,-0.255285 -0.55312,0 -1.19133,0.08509 -0.63821,0.0851 -1.23388,0.297832 -0.55311,0.212737 -1.02114,0.595665 -0.42547,0.382927 -0.59566,0.978592 -0.38293,1.276424 0.51057,2.255016 0.93604,0.978592 2.46775,1.914636 1.57426,0.936044 3.44635,1.872089 1.91463,0.893497 3.57399,2.042279 2.29756,1.616804 3.40379,3.318703 1.14879,1.659351 1.40407,3.276155 0.25529,1.616804 -0.17019,3.105966 -0.42547,1.489161 -1.19133,2.637943 -1.36152,2.127374 -4.08456,3.276156 -2.68049,1.106234 -5.95664,1.106234 z"
             inkscape:connector-curvature="0" />
        </g>
      </g>
      <g
         transform="translate(0.82303426,-1.6460666)"
         id="g981">
        <rect
           style="opacity:1;fill:#20b2aa;fill-opacity:1;stroke:none;stroke-width:14.29957485;stroke-miterlimit:4;stroke-dasharray:none;stroke-opacity:1"
           id="rect859-9"
           width="75.928665"
           height="67.851158"
           x="-572.71045"
           y="-5.132802"
           ry="17.806446" />
        <rect
           style="opacity:1;fill:#66cdaa;fill-opacity:1;stroke:none;stroke-width:14.29957485;stroke-miterlimit:4;stroke-dasharray:none;stroke-opacity:1"
           id="rect859-9-1"
           width="75.928665"
           height="67.851158"
           x="-563.33484"
           y="-13.965364"
           ry="17.806446" />
        <g
           id="g969"
           transform="matrix(1.5665233,0,0,1.5665233,656.53862,56.120506)">
          <rect
             ry="1.1333739"
             y="-35.021286"
             x="-773.41437"
             height="2.2667477"
             width="18.587332"
             id="rect886"
             style="opacity:1;fill:#f0ffff;fill-opacity:1;stroke:none;stroke-width:17.08298302;stroke-miterlimit:4;stroke-dasharray:none;stroke-opacity:1" />
          <rect
             ry="1.133374"
             y="-35.021286"
             x="-746.883"
             height="2.266748"
             width="9.52034"
             id="rect886-8"
             style="opacity:1;fill:#f0ffff;fill-opacity:1;stroke:none;stroke-width:12.22591591;stroke-miterlimit:4;stroke-dasharray:none;stroke-opacity:1" />
        </g>
        <rect
           style="opacity:1;fill:#f0ffff;fill-opacity:1;stroke:none;stroke-width:33.69499207;stroke-miterlimit:4;stroke-dasharray:none;stroke-opacity:1"
           id="rect886-9"
           width="46.161877"
           height="3.5509136"
           x="-555.03302"
           y="12.176948"
           ry="1.7754568" />
        <g
           id="g965"
           transform="matrix(1.5665233,0,0,1.5665233,656.89373,56.120506)">
          <rect
             ry="1.1333741"
             y="-21.478079"
             x="-773.64105"
             height="2.2667482"
             width="9.5203409"
             id="rect886-9-2"
             style="opacity:1;fill:#f0ffff;fill-opacity:1;stroke:none;stroke-width:12.22591686;stroke-miterlimit:4;stroke-dasharray:none;stroke-opacity:1" />
          <rect
             ry="1.1333741"
             y="-21.478079"
             x="-760.94727"
             height="2.2667482"
             width="9.5203409"
             id="rect886-9-2-8"
             style="opacity:1;fill:#f0ffff;fill-opacity:1;stroke:none;stroke-width:12.22591686;stroke-miterlimit:4;stroke-dasharray:none;stroke-opacity:1" />
        </g>
        <rect
           style="opacity:1;fill:#f0ffff;fill-opacity:1;stroke:none;stroke-width:35.95212173;stroke-miterlimit:4;stroke-dasharray:none;stroke-opacity:1"
           id="rect886-9-2-8-8"
           width="52.55352"
           height="3.550914"
           x="-555.03302"
           y="33.127331"
           ry="1.775457" />
      </g>
    </g>
  </g>
</svg>
