<?xml version="1.0" encoding="UTF-8" standalone="no"?>
<!-- Created with Inkscape (http://www.inkscape.org/) -->

<svg
   xmlns:dc="http://purl.org/dc/elements/1.1/"
   xmlns:cc="http://creativecommons.org/ns#"
   xmlns:rdf="http://www.w3.org/1999/02/22-rdf-syntax-ns#"
   xmlns:svg="http://www.w3.org/2000/svg"
   xmlns="http://www.w3.org/2000/svg"
   xmlns:sodipodi="http://sodipodi.sourceforge.net/DTD/sodipodi-0.dtd"
   xmlns:inkscape="http://www.inkscape.org/namespaces/inkscape"
   width="600"
   height="450"
   viewBox="0 0 158.75 119.0625"
   version="1.1"
   id="svg8"
   sodipodi:docname="logo_ihc16.svg"
   inkscape:version="0.92.1 r15371">
  <defs
     id="defs2">
    <filter
       id="filter4344"
       style="color-interpolation-filters:sRGB"
       inkscape:menu-tooltip="Sharpen edges and boundaries within the object, force=0.3"
       inkscape:menu="Image Effects"
       inkscape:label="Sharpen More">
      <feConvolveMatrix
         id="feConvolveMatrix4346"
         result="result1"
         order="3 3"
         kernelMatrix="0 -0.3 0 -0.3 2.2 -0.3 0 -0.3 0"
         divisor="1"
         in="SourceGraphic"
         targetX="1"
         targetY="1" />
      <feBlend
         id="feBlend4348"
         result="result2"
         mode="normal"
         in2="SourceGraphic" />
    </filter>
    <filter
       id="filter4344-7"
       style="color-interpolation-filters:sRGB"
       inkscape:menu-tooltip="Sharpen edges and boundaries within the object, force=0.3"
       inkscape:menu="Image Effects"
       inkscape:label="Sharpen More">
      <feConvolveMatrix
         id="feConvolveMatrix4346-2"
         result="result1"
         order="3 3"
         kernelMatrix="0 -0.3 0 -0.3 2.2 -0.3 0 -0.3 0"
         divisor="1"
         in="SourceGraphic"
         targetX="1"
         targetY="1" />
      <feBlend
         id="feBlend4348-9"
         result="result2"
         mode="normal"
         in2="SourceGraphic" />
    </filter>
    <filter
       id="filter4344-9"
       style="color-interpolation-filters:sRGB"
       inkscape:menu-tooltip="Sharpen edges and boundaries within the object, force=0.3"
       inkscape:menu="Image Effects"
       inkscape:label="Sharpen More">
      <feConvolveMatrix
         id="feConvolveMatrix4346-9"
         result="result1"
         order="3 3"
         kernelMatrix="0 -0.3 0 -0.3 2.2 -0.3 0 -0.3 0"
         divisor="1"
         in="SourceGraphic"
         targetX="1"
         targetY="1" />
      <feBlend
         id="feBlend4348-4"
         result="result2"
         mode="normal"
         in2="SourceGraphic" />
    </filter>
    <filter
       id="filter4523"
       style="color-interpolation-filters:sRGB"
       inkscape:menu-tooltip="Sharpen edges and boundaries within the object, force=0.15"
       inkscape:menu="Image Effects"
       inkscape:label="Sharpen">
      <feConvolveMatrix
         id="feConvolveMatrix4525"
         targetY="1"
         targetX="1"
         in="SourceGraphic"
         divisor="1"
         kernelMatrix="0 -0.15 0 -0.15 1.6 -0.15 0 -0.15 0"
         order="3 3" />
    </filter>
  </defs>
  <sodipodi:namedview
     id="base"
     pagecolor="#ffffff"
     bordercolor="#666666"
     borderopacity="1.0"
     inkscape:pageopacity="0.0"
     inkscape:pageshadow="2"
     inkscape:zoom="0.98994949"
     inkscape:cx="406.88672"
     inkscape:cy="257.87077"
     inkscape:document-units="mm"
     inkscape:current-layer="layer1"
     showgrid="false"
     showguides="true"
     inkscape:guide-bbox="true"
     inkscape:window-width="1600"
     inkscape:window-height="837"
     inkscape:window-x="-8"
     inkscape:window-y="-8"
     inkscape:window-maximized="1"
     units="px" />
  <metadata
     id="metadata5">
    <rdf:RDF>
      <cc:Work
         rdf:about="">
        <dc:format>image/svg+xml</dc:format>
        <dc:type
           rdf:resource="http://purl.org/dc/dcmitype/StillImage" />
        <dc:title></dc:title>
      </cc:Work>
    </rdf:RDF>
  </metadata>
  <g
     inkscape:label="Camada 1"
     inkscape:groupmode="layer"
     id="layer1"
     transform="translate(0,-177.93748)">
    <rect
       id="rect4110"
       width="159.19112"
       height="119.28678"
       x="-0.16508622"
       y="177.85181"
       style="fill:#0a202d;fill-opacity:1;stroke-width:0.07016751"
       inkscape:export-xdpi="96"
       inkscape:export-ydpi="96" />
    <g
       style="filter:url(#filter4523)"
       clip-path="none"
       id="g3"
       transform="matrix(0.2728303,0,0,0.28386038,33.808193,183.93719)"
       inkscape:export-xdpi="96"
       inkscape:export-ydpi="96">
      <g
         id="g5">
        <g
           id="g7">
          <path
             id="path9"
             d="m 56.217,351.052 c -1.23,0.477 -2.481,0.713 -3.756,0.713 -1.436,0 -2.745,-0.251 -3.93,-0.754 -1.184,-0.502 -2.207,-1.196 -3.068,-2.086 -0.861,-0.888 -1.53,-1.951 -2.006,-3.188 -0.475,-1.238 -0.713,-2.584 -0.713,-4.037 0,-1.454 0.238,-2.8 0.713,-4.038 0.476,-1.238 1.145,-2.302 2.006,-3.189 0.861,-0.889 1.889,-1.584 3.082,-2.086 1.193,-0.503 2.498,-0.754 3.916,-0.754 1.185,0 2.338,0.202 3.459,0.605 1.121,0.403 2.077,1.019 2.867,1.844 l -0.377,0.431 c -0.377,-0.395 -0.803,-0.739 -1.279,-1.036 -0.475,-0.296 -0.978,-0.543 -1.507,-0.739 -0.529,-0.197 -1.063,-0.341 -1.602,-0.432 -0.539,-0.09 -1.06,-0.135 -1.562,-0.135 -1.363,0 -2.606,0.247 -3.728,0.74 -1.122,0.494 -2.082,1.171 -2.88,2.032 -0.799,0.86 -1.418,1.871 -1.857,3.027 -0.439,1.157 -0.66,2.4 -0.66,3.729 0,1.329 0.216,2.57 0.646,3.728 0.43,1.158 1.045,2.167 1.844,3.028 0.799,0.861 1.758,1.539 2.881,2.032 1.121,0.494 2.372,0.74 3.754,0.74 1.185,0 2.355,-0.229 3.514,-0.688 1.156,-0.457 2.112,-1.144 2.866,-2.059 l 0.431,0.402 c -0.807,0.972 -1.826,1.694 -3.054,2.17 z"
             inkscape:connector-curvature="0"
             style="fill:#ff4040" />
          <path
             id="path11"
             d="m 63.336,334.188 c -0.161,0 -0.305,-0.062 -0.431,-0.188 -0.126,-0.125 -0.188,-0.296 -0.188,-0.511 0,-0.197 0.062,-0.359 0.188,-0.484 0.126,-0.126 0.27,-0.188 0.431,-0.188 0.162,0 0.305,0.062 0.431,0.188 0.126,0.125 0.188,0.287 0.188,0.484 0,0.215 -0.067,0.386 -0.201,0.511 -0.135,0.125 -0.275,0.188 -0.418,0.188 z m -0.296,17.039 v -12.382 h 0.593 v 12.382 z"
             inkscape:connector-curvature="0"
             style="fill:#ff4040" />
          <path
             id="path13"
             d="m 79.891,330.877 h 0.592 v 20.35 h -0.592 v -3.338 h -0.082 c -0.537,1.222 -1.305,2.146 -2.301,2.772 -0.996,0.626 -2.086,0.941 -3.271,0.941 -0.897,0 -1.728,-0.165 -2.489,-0.497 -0.764,-0.332 -1.418,-0.789 -1.965,-1.373 -0.549,-0.583 -0.975,-1.273 -1.279,-2.072 -0.304,-0.799 -0.457,-1.664 -0.457,-2.598 0,-0.934 0.152,-1.805 0.457,-2.611 0.305,-0.807 0.73,-1.507 1.279,-2.101 0.547,-0.592 1.201,-1.054 1.965,-1.386 0.762,-0.332 1.592,-0.498 2.489,-0.498 1.185,0 2.274,0.314 3.271,0.942 0.997,0.628 1.764,1.561 2.301,2.799 h 0.082 z m -11.252,14.185 c 0,0.808 0.13,1.578 0.391,2.313 0.26,0.736 0.632,1.378 1.117,1.925 0.484,0.548 1.071,0.982 1.763,1.307 0.69,0.322 1.467,0.483 2.328,0.483 0.825,0 1.583,-0.161 2.274,-0.483 0.691,-0.323 1.287,-0.759 1.79,-1.307 0.503,-0.547 0.897,-1.188 1.185,-1.925 0.287,-0.735 0.431,-1.516 0.431,-2.342 0,-0.825 -0.144,-1.605 -0.431,-2.342 -0.287,-0.735 -0.682,-1.377 -1.185,-1.925 -0.503,-0.548 -1.099,-0.981 -1.79,-1.306 -0.691,-0.324 -1.449,-0.484 -2.274,-0.484 -0.861,0 -1.638,0.166 -2.328,0.498 -0.691,0.332 -1.278,0.776 -1.763,1.332 -0.485,0.558 -0.857,1.202 -1.117,1.938 -0.261,0.739 -0.391,1.511 -0.391,2.318 z"
             inkscape:connector-curvature="0"
             style="fill:#ff4040" />
          <path
             id="path15"
             d="m 94.479,348.427 c 0,0.467 0.023,0.965 0.068,1.494 0.044,0.529 0.094,0.965 0.147,1.306 h -0.565 c -0.036,-0.179 -0.062,-0.398 -0.08,-0.658 -0.019,-0.261 -0.041,-0.529 -0.068,-0.809 -0.026,-0.277 -0.045,-0.552 -0.053,-0.82 -0.01,-0.271 -0.014,-0.493 -0.014,-0.674 h -0.081 c -0.359,1.131 -0.979,1.971 -1.857,2.518 -0.88,0.548 -1.821,0.82 -2.826,0.82 -0.503,0 -1.001,-0.071 -1.494,-0.216 -0.493,-0.144 -0.938,-0.357 -1.332,-0.646 -0.396,-0.287 -0.714,-0.655 -0.956,-1.104 -0.242,-0.448 -0.363,-0.979 -0.363,-1.588 0,-0.88 0.229,-1.589 0.687,-2.127 0.458,-0.538 1.027,-0.955 1.71,-1.252 0.682,-0.296 1.412,-0.488 2.193,-0.578 0.78,-0.09 1.494,-0.135 2.14,-0.135 h 2.153 v -0.996 c 0,-1.382 -0.368,-2.391 -1.104,-3.028 -0.736,-0.637 -1.695,-0.955 -2.881,-0.955 -0.735,0 -1.422,0.135 -2.059,0.403 -0.637,0.27 -1.207,0.629 -1.709,1.077 l -0.323,-0.458 c 0.574,-0.502 1.225,-0.884 1.952,-1.145 0.727,-0.261 1.439,-0.391 2.139,-0.391 1.418,0 2.535,0.363 3.352,1.09 0.817,0.728 1.225,1.871 1.225,3.434 z m -0.592,-3.956 h -1.911 c -0.683,0 -1.399,0.04 -2.153,0.121 -0.754,0.08 -1.445,0.246 -2.072,0.498 -0.629,0.251 -1.145,0.609 -1.548,1.076 -0.403,0.467 -0.606,1.095 -0.606,1.885 0,0.574 0.112,1.055 0.337,1.439 0.224,0.387 0.512,0.695 0.861,0.929 0.351,0.233 0.735,0.404 1.157,0.512 0.422,0.108 0.821,0.161 1.198,0.161 0.915,0 1.678,-0.17 2.288,-0.512 0.609,-0.34 1.099,-0.775 1.467,-1.305 0.367,-0.529 0.623,-1.112 0.768,-1.75 0.143,-0.638 0.215,-1.262 0.215,-1.871 z"
             inkscape:connector-curvature="0"
             style="fill:#ff4040" />
          <path
             id="path17"
             d="m 110.521,330.877 h 0.592 v 20.35 h -0.592 v -3.338 h -0.081 c -0.538,1.222 -1.306,2.146 -2.302,2.772 -0.995,0.628 -2.086,0.941 -3.271,0.941 -0.897,0 -1.727,-0.165 -2.489,-0.497 -0.762,-0.332 -1.418,-0.789 -1.965,-1.373 -0.548,-0.583 -0.974,-1.273 -1.278,-2.072 -0.306,-0.799 -0.458,-1.664 -0.458,-2.598 0,-0.934 0.152,-1.805 0.458,-2.611 0.305,-0.809 0.73,-1.507 1.278,-2.101 0.547,-0.592 1.202,-1.054 1.965,-1.386 0.763,-0.332 1.592,-0.498 2.489,-0.498 1.185,0 2.275,0.314 3.271,0.942 0.996,0.628 1.764,1.561 2.302,2.799 h 0.081 z M 99.27,345.062 c 0,0.808 0.13,1.578 0.391,2.313 0.26,0.736 0.633,1.378 1.117,1.925 0.484,0.548 1.072,0.982 1.763,1.307 0.691,0.323 1.467,0.483 2.328,0.483 0.825,0 1.584,-0.161 2.275,-0.483 0.69,-0.323 1.287,-0.759 1.79,-1.307 0.502,-0.547 0.896,-1.188 1.184,-1.925 0.287,-0.735 0.431,-1.516 0.431,-2.342 0,-0.825 -0.144,-1.605 -0.431,-2.342 -0.287,-0.735 -0.682,-1.377 -1.184,-1.925 -0.503,-0.548 -1.1,-0.981 -1.79,-1.306 -0.691,-0.323 -1.45,-0.484 -2.275,-0.484 -0.861,0 -1.638,0.166 -2.328,0.498 -0.69,0.332 -1.278,0.776 -1.763,1.332 -0.484,0.558 -0.857,1.202 -1.117,1.938 -0.262,0.739 -0.391,1.511 -0.391,2.318 z"
             inkscape:connector-curvature="0"
             style="fill:#ff4040" />
          <path
             id="path19"
             d="m 116.12,344.901 c 0,0.753 0.112,1.498 0.337,2.232 0.224,0.736 0.565,1.396 1.022,1.979 0.458,0.584 1.036,1.055 1.736,1.413 0.7,0.358 1.525,0.539 2.477,0.539 0.969,0 1.83,-0.193 2.584,-0.579 0.754,-0.387 1.408,-0.946 1.965,-1.684 l 0.431,0.377 c -0.61,0.79 -1.323,1.392 -2.14,1.805 -0.817,0.411 -1.764,0.618 -2.84,0.618 -0.915,0 -1.75,-0.166 -2.503,-0.497 -0.754,-0.332 -1.404,-0.795 -1.952,-1.388 -0.548,-0.592 -0.969,-1.301 -1.265,-2.126 -0.296,-0.825 -0.444,-1.723 -0.444,-2.69 0,-0.935 0.152,-1.796 0.458,-2.584 0.306,-0.79 0.725,-1.473 1.255,-2.047 0.531,-0.573 1.156,-1.019 1.875,-1.333 0.72,-0.312 1.493,-0.471 2.32,-0.471 0.972,0 1.816,0.171 2.536,0.512 0.72,0.342 1.317,0.789 1.794,1.347 0.477,0.557 0.832,1.188 1.066,1.896 0.233,0.709 0.351,1.433 0.351,2.167 V 344.9 H 116.12 Z m 10.471,-0.511 c -0.018,-0.808 -0.157,-1.543 -0.417,-2.207 -0.26,-0.664 -0.614,-1.232 -1.063,-1.71 -0.448,-0.475 -0.986,-0.843 -1.614,-1.104 -0.629,-0.26 -1.328,-0.391 -2.1,-0.391 -0.934,0 -1.732,0.192 -2.396,0.578 -0.664,0.388 -1.207,0.861 -1.629,1.428 -0.422,0.565 -0.731,1.156 -0.929,1.775 -0.198,0.619 -0.296,1.162 -0.296,1.629 z"
             inkscape:connector-curvature="0"
             style="fill:#ff4040" />
          <path
             id="path21"
             d="m 138.542,347.996 c 0,0.557 -0.107,1.055 -0.322,1.494 -0.216,0.439 -0.508,0.812 -0.875,1.117 -0.368,0.306 -0.794,0.537 -1.278,0.699 -0.485,0.161 -1.006,0.242 -1.562,0.242 -0.915,0 -1.745,-0.175 -2.49,-0.524 -0.744,-0.351 -1.359,-0.865 -1.844,-1.549 l 0.484,-0.321 c 0.896,1.256 2.188,1.884 3.876,1.884 0.395,0 0.795,-0.062 1.198,-0.188 0.403,-0.125 0.771,-0.312 1.104,-0.564 0.332,-0.251 0.602,-0.565 0.808,-0.941 0.206,-0.377 0.31,-0.808 0.31,-1.292 0,-0.573 -0.131,-1.041 -0.391,-1.399 -0.26,-0.358 -0.588,-0.646 -0.982,-0.861 -0.395,-0.215 -0.83,-0.39 -1.306,-0.524 -0.476,-0.134 -0.919,-0.256 -1.332,-0.362 -0.448,-0.126 -0.87,-0.266 -1.265,-0.418 -0.396,-0.152 -0.74,-0.351 -1.037,-0.592 -0.296,-0.242 -0.529,-0.544 -0.699,-0.901 -0.171,-0.359 -0.256,-0.809 -0.256,-1.347 0,-0.538 0.107,-1.005 0.323,-1.399 0.215,-0.395 0.502,-0.722 0.861,-0.982 0.358,-0.26 0.767,-0.457 1.225,-0.592 0.457,-0.135 0.919,-0.202 1.386,-0.202 1.687,0 2.952,0.603 3.796,1.805 l -0.512,0.296 c -0.413,-0.538 -0.88,-0.938 -1.399,-1.198 -0.521,-0.26 -1.148,-0.39 -1.885,-0.39 -0.341,0 -0.699,0.045 -1.076,0.134 -0.377,0.091 -0.723,0.238 -1.036,0.443 -0.314,0.207 -0.575,0.48 -0.781,0.821 -0.206,0.341 -0.31,0.754 -0.31,1.238 0,0.538 0.085,0.969 0.256,1.292 0.171,0.323 0.408,0.583 0.714,0.78 0.305,0.197 0.673,0.362 1.104,0.498 0.431,0.135 0.905,0.266 1.427,0.391 0.484,0.126 0.955,0.273 1.413,0.444 0.457,0.171 0.861,0.381 1.211,0.632 0.35,0.252 0.628,0.564 0.834,0.941 0.206,0.377 0.308,0.839 0.308,1.395 z"
             inkscape:connector-curvature="0"
             style="fill:#ff4040" />
          <path
             id="path23"
             d="m 149.767,334.188 c -0.162,0 -0.306,-0.062 -0.431,-0.188 -0.126,-0.125 -0.188,-0.296 -0.188,-0.511 0,-0.197 0.062,-0.359 0.188,-0.484 0.125,-0.126 0.269,-0.188 0.431,-0.188 0.161,0 0.305,0.062 0.431,0.188 0.125,0.125 0.188,0.287 0.188,0.484 0,0.215 -0.067,0.386 -0.202,0.511 -0.135,0.125 -0.274,0.188 -0.417,0.188 z m -0.297,17.039 v -12.382 h 0.593 v 12.382 z"
             inkscape:connector-curvature="0"
             style="fill:#ff4040" />
          <path
             id="path25"
             d="m 157.034,340.567 c 0.341,-0.448 0.728,-0.83 1.158,-1.146 0.431,-0.312 0.896,-0.552 1.399,-0.713 0.502,-0.161 1.022,-0.242 1.562,-0.242 0.861,0 1.578,0.152 2.153,0.458 0.574,0.306 1.031,0.709 1.372,1.211 0.341,0.503 0.583,1.067 0.729,1.695 0.144,0.629 0.215,1.266 0.215,1.911 v 7.482 h -0.592 v -7.429 c 0,-0.503 -0.054,-1.041 -0.162,-1.615 -0.107,-0.573 -0.31,-1.095 -0.605,-1.562 -0.295,-0.467 -0.695,-0.856 -1.197,-1.171 -0.503,-0.313 -1.14,-0.472 -1.911,-0.472 -0.683,0 -1.324,0.14 -1.925,0.417 -0.602,0.278 -1.122,0.679 -1.562,1.197 -0.439,0.521 -0.79,1.153 -1.05,1.898 -0.26,0.744 -0.39,1.593 -0.39,2.543 v 6.19 h -0.593 v -9.26 c 0,-0.197 -0.005,-0.438 -0.014,-0.727 -0.009,-0.288 -0.018,-0.579 -0.026,-0.875 -0.01,-0.296 -0.022,-0.578 -0.041,-0.849 -0.018,-0.27 -0.036,-0.493 -0.054,-0.673 h 0.593 c 0.018,0.18 0.031,0.403 0.04,0.673 0.009,0.271 0.018,0.562 0.027,0.875 0.009,0.313 0.018,0.619 0.026,0.915 0.008,0.296 0.014,0.562 0.014,0.794 h 0.054 c 0.18,-0.565 0.439,-1.076 0.78,-1.525 z"
             inkscape:connector-curvature="0"
             style="fill:#ff4040" />
          <path
             id="path27"
             d="m 174.961,351.469 c -0.287,0.055 -0.564,0.081 -0.834,0.081 -0.969,0 -1.66,-0.273 -2.072,-0.821 -0.412,-0.547 -0.619,-1.232 -0.619,-2.06 v -9.312 h -2.691 v -0.513 h 2.665 V 335.21 H 172 v 3.634 h 3.634 v 0.513 H 172 v 9.312 c 0,0.844 0.206,1.45 0.619,1.817 0.413,0.367 0.96,0.552 1.643,0.552 0.502,0 0.961,-0.081 1.372,-0.242 l 0.081,0.458 c -0.215,0.089 -0.467,0.161 -0.754,0.215 z"
             inkscape:connector-curvature="0"
             style="fill:#ff4040" />
          <path
             id="path29"
             d="m 178.646,344.901 c 0,0.753 0.112,1.498 0.338,2.232 0.224,0.736 0.564,1.396 1.021,1.979 0.458,0.584 1.036,1.055 1.736,1.413 0.699,0.358 1.525,0.539 2.477,0.539 0.969,0 1.83,-0.193 2.584,-0.579 0.754,-0.387 1.408,-0.946 1.965,-1.684 l 0.432,0.377 c -0.61,0.79 -1.323,1.392 -2.141,1.805 -0.816,0.411 -1.764,0.618 -2.84,0.618 -0.914,0 -1.75,-0.166 -2.503,-0.497 -0.754,-0.332 -1.403,-0.795 -1.952,-1.388 -0.548,-0.592 -0.969,-1.301 -1.265,-2.126 -0.296,-0.825 -0.444,-1.723 -0.444,-2.69 0,-0.935 0.152,-1.796 0.459,-2.584 0.305,-0.79 0.725,-1.473 1.254,-2.047 0.531,-0.573 1.156,-1.019 1.875,-1.333 0.721,-0.312 1.493,-0.471 2.32,-0.471 0.973,0 1.816,0.171 2.536,0.512 0.72,0.342 1.317,0.789 1.794,1.347 0.477,0.557 0.832,1.188 1.066,1.896 0.232,0.709 0.351,1.433 0.351,2.167 v 0.513 h -11.063 z m 10.472,-0.511 c -0.019,-0.808 -0.157,-1.543 -0.417,-2.207 -0.26,-0.664 -0.614,-1.232 -1.062,-1.71 -0.449,-0.475 -0.986,-0.843 -1.615,-1.104 -0.629,-0.26 -1.328,-0.391 -2.1,-0.391 -0.934,0 -1.732,0.192 -2.396,0.578 -0.663,0.388 -1.207,0.861 -1.629,1.428 -0.422,0.565 -0.73,1.156 -0.929,1.775 -0.199,0.619 -0.296,1.162 -0.296,1.629 z"
             inkscape:connector-curvature="0"
             style="fill:#ff4040" />
          <path
             id="path31"
             d="m 194.1,351.227 v -20.35 h 0.592 v 20.35 z"
             inkscape:connector-curvature="0"
             style="fill:#ff4040" />
          <path
             id="path33"
             d="m 200.479,334.188 c -0.162,0 -0.306,-0.062 -0.431,-0.188 -0.126,-0.125 -0.188,-0.296 -0.188,-0.511 0,-0.197 0.062,-0.359 0.188,-0.484 0.125,-0.126 0.269,-0.188 0.431,-0.188 0.162,0 0.306,0.062 0.432,0.188 0.125,0.125 0.188,0.287 0.188,0.484 0,0.215 -0.066,0.386 -0.201,0.511 -0.137,0.125 -0.276,0.188 -0.419,0.188 z m -0.297,17.039 v -12.382 h 0.594 v 12.382 z"
             inkscape:connector-curvature="0"
             style="fill:#ff4040" />
          <path
             id="path35"
             d="m 217.032,347.889 h -0.081 c -0.233,0.61 -0.549,1.146 -0.942,1.603 -0.395,0.458 -0.834,0.844 -1.317,1.157 -0.484,0.313 -1.01,0.552 -1.575,0.714 -0.564,0.161 -1.144,0.241 -1.736,0.241 -0.897,0 -1.728,-0.165 -2.489,-0.497 -0.761,-0.332 -1.418,-0.789 -1.965,-1.373 -0.548,-0.583 -0.974,-1.273 -1.277,-2.072 -0.307,-0.799 -0.459,-1.664 -0.459,-2.598 0,-0.934 0.152,-1.805 0.459,-2.611 0.305,-0.808 0.729,-1.507 1.277,-2.101 0.547,-0.592 1.202,-1.054 1.965,-1.386 0.764,-0.332 1.592,-0.498 2.489,-0.498 1.185,0 2.275,0.314 3.271,0.942 0.996,0.628 1.765,1.561 2.303,2.799 h 0.081 v -3.364 h 0.592 v 11.683 c 0,0.986 -0.104,1.929 -0.31,2.827 -0.207,0.896 -0.549,1.687 -1.022,2.367 -0.476,0.683 -1.104,1.226 -1.885,1.63 -0.78,0.402 -1.745,0.604 -2.894,0.604 -1.166,0 -2.207,-0.202 -3.123,-0.604 -0.914,-0.404 -1.695,-0.975 -2.342,-1.711 l 0.403,-0.402 c 0.683,0.771 1.458,1.332 2.329,1.683 0.869,0.351 1.779,0.524 2.73,0.524 1.077,0 1.975,-0.197 2.692,-0.592 0.717,-0.396 1.282,-0.915 1.694,-1.562 0.414,-0.646 0.705,-1.386 0.875,-2.221 0.171,-0.834 0.257,-1.7 0.257,-2.599 z m -11.252,-2.827 c 0,0.808 0.13,1.578 0.391,2.313 0.261,0.736 0.634,1.383 1.117,1.938 0.483,0.557 1.071,0.995 1.763,1.318 0.69,0.322 1.467,0.484 2.328,0.484 0.825,0 1.584,-0.162 2.275,-0.484 0.689,-0.323 1.287,-0.763 1.789,-1.318 0.502,-0.557 0.896,-1.202 1.185,-1.938 0.287,-0.735 0.431,-1.516 0.431,-2.342 0,-0.825 -0.144,-1.605 -0.431,-2.342 -0.287,-0.735 -0.683,-1.377 -1.185,-1.925 -0.502,-0.548 -1.1,-0.981 -1.789,-1.306 -0.691,-0.323 -1.45,-0.484 -2.275,-0.484 -0.861,0 -1.638,0.166 -2.328,0.498 -0.689,0.332 -1.277,0.776 -1.763,1.332 -0.483,0.558 -0.856,1.202 -1.117,1.938 -0.261,0.739 -0.391,1.511 -0.391,2.318 z"
             inkscape:connector-curvature="0"
             style="fill:#ff4040" />
          <path
             id="path37"
             d="m 222.631,344.901 c 0,0.753 0.112,1.498 0.337,2.232 0.224,0.736 0.565,1.396 1.022,1.979 0.458,0.584 1.035,1.055 1.736,1.413 0.699,0.358 1.524,0.539 2.477,0.539 0.969,0 1.83,-0.193 2.584,-0.579 0.754,-0.387 1.408,-0.946 1.965,-1.684 l 0.432,0.377 c -0.61,0.79 -1.324,1.392 -2.141,1.805 -0.816,0.411 -1.764,0.618 -2.84,0.618 -0.915,0 -1.75,-0.166 -2.503,-0.497 -0.755,-0.332 -1.404,-0.795 -1.952,-1.388 -0.548,-0.592 -0.969,-1.301 -1.266,-2.126 -0.295,-0.825 -0.443,-1.723 -0.443,-2.69 0,-0.935 0.152,-1.796 0.458,-2.584 0.306,-0.79 0.726,-1.473 1.255,-2.047 0.531,-0.573 1.156,-1.019 1.875,-1.333 0.721,-0.312 1.493,-0.471 2.32,-0.471 0.972,0 1.816,0.171 2.535,0.512 0.721,0.342 1.317,0.789 1.795,1.347 0.477,0.557 0.832,1.188 1.065,1.896 0.233,0.708 0.351,1.433 0.351,2.167 v 0.513 h -11.062 z m 10.471,-0.511 c -0.018,-0.808 -0.156,-1.543 -0.416,-2.207 -0.261,-0.664 -0.615,-1.232 -1.063,-1.71 -0.448,-0.475 -0.986,-0.843 -1.614,-1.104 -0.629,-0.26 -1.328,-0.391 -2.1,-0.391 -0.934,0 -1.732,0.192 -2.396,0.578 -0.664,0.388 -1.207,0.861 -1.629,1.428 -0.422,0.565 -0.73,1.156 -0.929,1.775 -0.199,0.619 -0.296,1.162 -0.296,1.629 z"
             inkscape:connector-curvature="0"
             style="fill:#ff4040" />
          <path
             id="path39"
             d="m 239.562,340.567 c 0.34,-0.448 0.728,-0.83 1.157,-1.146 0.431,-0.312 0.896,-0.552 1.399,-0.713 0.502,-0.161 1.021,-0.242 1.562,-0.242 0.86,0 1.577,0.152 2.152,0.458 0.574,0.306 1.031,0.709 1.372,1.211 0.341,0.503 0.583,1.067 0.728,1.695 0.145,0.629 0.215,1.266 0.215,1.911 v 7.482 h -0.592 v -7.429 c 0,-0.503 -0.054,-1.041 -0.162,-1.615 -0.106,-0.573 -0.31,-1.095 -0.604,-1.562 -0.294,-0.467 -0.695,-0.856 -1.197,-1.171 -0.503,-0.313 -1.14,-0.472 -1.911,-0.472 -0.683,0 -1.324,0.14 -1.925,0.417 -0.603,0.278 -1.122,0.679 -1.562,1.197 -0.439,0.521 -0.79,1.153 -1.051,1.898 -0.26,0.744 -0.39,1.593 -0.39,2.543 v 6.19 h -0.593 v -9.26 c 0,-0.197 -0.005,-0.438 -0.014,-0.727 -0.01,-0.288 -0.019,-0.579 -0.026,-0.875 -0.011,-0.296 -0.022,-0.578 -0.041,-0.849 -0.019,-0.27 -0.036,-0.493 -0.054,-0.673 h 0.593 c 0.019,0.18 0.03,0.403 0.04,0.673 0.009,0.271 0.018,0.562 0.027,0.875 0.008,0.313 0.018,0.619 0.025,0.915 0.007,0.296 0.014,0.562 0.014,0.794 h 0.055 c 0.182,-0.565 0.442,-1.076 0.783,-1.525 z"
             inkscape:connector-curvature="0"
             style="fill:#ff4040" />
          <path
             id="path41"
             d="m 257.488,351.469 c -0.287,0.055 -0.564,0.081 -0.834,0.081 -0.969,0 -1.66,-0.273 -2.072,-0.821 -0.413,-0.547 -0.619,-1.232 -0.619,-2.06 v -9.312 h -2.691 v -0.513 h 2.664 v -3.634 h 0.592 v 3.634 h 3.635 v 0.513 h -3.635 v 9.312 c 0,0.844 0.207,1.45 0.619,1.817 0.414,0.367 0.961,0.552 1.644,0.552 0.502,0 0.96,-0.081 1.372,-0.242 l 0.081,0.458 c -0.217,0.089 -0.469,0.161 -0.756,0.215 z"
             inkscape:connector-curvature="0"
             style="fill:#ff4040" />
          <path
             id="path43"
             d="m 261.176,344.901 c 0,0.753 0.112,1.498 0.338,2.232 0.223,0.736 0.564,1.396 1.021,1.979 0.458,0.584 1.036,1.055 1.736,1.413 0.699,0.358 1.524,0.539 2.477,0.539 0.969,0 1.83,-0.193 2.584,-0.579 0.754,-0.387 1.408,-0.946 1.965,-1.684 l 0.432,0.377 c -0.61,0.79 -1.323,1.392 -2.141,1.805 -0.816,0.411 -1.764,0.618 -2.84,0.618 -0.915,0 -1.75,-0.166 -2.503,-0.497 -0.754,-0.332 -1.404,-0.795 -1.952,-1.388 -0.548,-0.592 -0.969,-1.301 -1.266,-2.126 -0.295,-0.825 -0.443,-1.723 -0.443,-2.69 0,-0.935 0.152,-1.796 0.458,-2.584 0.306,-0.79 0.726,-1.473 1.255,-2.047 0.531,-0.573 1.156,-1.019 1.875,-1.333 0.721,-0.312 1.493,-0.471 2.32,-0.471 0.972,0 1.816,0.171 2.535,0.512 0.721,0.342 1.317,0.789 1.795,1.347 0.477,0.557 0.832,1.188 1.066,1.896 0.232,0.709 0.351,1.433 0.351,2.167 v 0.513 h -11.063 z m 10.47,-0.511 c -0.019,-0.808 -0.157,-1.543 -0.418,-2.207 -0.26,-0.664 -0.613,-1.232 -1.062,-1.71 -0.448,-0.475 -0.986,-0.843 -1.614,-1.104 -0.629,-0.26 -1.327,-0.391 -2.1,-0.391 -0.935,0 -1.732,0.192 -2.396,0.578 -0.664,0.388 -1.207,0.861 -1.63,1.428 -0.422,0.565 -0.73,1.156 -0.929,1.775 -0.199,0.619 -0.296,1.162 -0.296,1.629 z"
             inkscape:connector-curvature="0"
             style="fill:#ff4040" />
          <path
             id="path45"
             d="m 283.598,347.996 c 0,0.557 -0.106,1.055 -0.322,1.494 -0.215,0.439 -0.508,0.812 -0.875,1.117 -0.367,0.305 -0.793,0.537 -1.277,0.699 -0.484,0.161 -1.006,0.242 -1.562,0.242 -0.914,0 -1.744,-0.175 -2.49,-0.524 -0.743,-0.351 -1.358,-0.865 -1.844,-1.549 l 0.484,-0.321 c 0.896,1.256 2.189,1.884 3.876,1.884 0.396,0 0.795,-0.062 1.198,-0.188 0.402,-0.125 0.771,-0.312 1.104,-0.564 0.332,-0.251 0.603,-0.565 0.809,-0.941 0.205,-0.377 0.31,-0.808 0.31,-1.292 0,-0.573 -0.131,-1.041 -0.391,-1.399 -0.261,-0.358 -0.589,-0.646 -0.982,-0.861 -0.395,-0.215 -0.829,-0.39 -1.306,-0.524 -0.477,-0.134 -0.919,-0.256 -1.332,-0.362 -0.448,-0.126 -0.87,-0.266 -1.266,-0.418 -0.396,-0.152 -0.739,-0.351 -1.037,-0.592 -0.295,-0.242 -0.528,-0.544 -0.698,-0.901 -0.171,-0.359 -0.256,-0.809 -0.256,-1.347 0,-0.538 0.106,-1.005 0.323,-1.399 0.215,-0.395 0.502,-0.722 0.86,-0.982 0.358,-0.26 0.767,-0.457 1.226,-0.592 0.457,-0.135 0.918,-0.202 1.386,-0.202 1.687,0 2.952,0.603 3.796,1.805 l -0.512,0.296 c -0.413,-0.538 -0.881,-0.938 -1.399,-1.198 -0.521,-0.26 -1.147,-0.39 -1.885,-0.39 -0.341,0 -0.699,0.045 -1.076,0.134 -0.377,0.091 -0.724,0.238 -1.036,0.443 -0.314,0.207 -0.574,0.48 -0.781,0.821 -0.205,0.341 -0.31,0.754 -0.31,1.238 0,0.538 0.085,0.969 0.256,1.292 0.171,0.323 0.408,0.583 0.714,0.78 0.305,0.197 0.674,0.362 1.104,0.498 0.431,0.135 0.905,0.266 1.427,0.391 0.484,0.126 0.955,0.273 1.413,0.444 0.457,0.171 0.86,0.381 1.211,0.632 0.351,0.252 0.628,0.564 0.834,0.941 0.206,0.377 0.306,0.839 0.306,1.395 z"
             inkscape:connector-curvature="0"
             style="fill:#ff4040" />
        </g>
      </g>
      <g
         id="g47">
        <g
           id="g49">
          <g
             id="g51">
            <path
               id="path53"
               d="m 41.745,318.287 v -76.166 h 2.363 v 76.166 z"
               inkscape:connector-curvature="0"
               style="fill:#ef7726" />
          </g>
          <g
             id="g55">
            <path
               id="path57"
               d="M 107.648,318.287 V 279.989 H 56.443 v 38.298 h -2.369 v -76.166 h 2.369 v 35.716 h 51.205 v -35.716 h 2.364 v 76.166 z"
               inkscape:connector-curvature="0"
               style="fill:#ef7726" />
          </g>
          <g
             id="g59">
            <path
               id="path61"
               d="m 162.446,317.59 c -4.911,1.896 -9.913,2.848 -15.003,2.848 -5.741,0 -10.975,-1.004 -15.707,-3.011 -4.738,-2.007 -8.824,-4.788 -12.263,-8.337 -3.444,-3.551 -6.118,-7.801 -8.019,-12.749 -1.9,-4.946 -2.849,-10.328 -2.849,-16.136 0,-5.812 0.948,-11.189 2.849,-16.139 1.9,-4.947 4.574,-9.199 8.019,-12.748 3.438,-3.551 7.546,-6.329 12.313,-8.336 4.769,-2.008 9.985,-3.013 15.656,-3.013 4.731,0 9.339,0.806 13.82,2.419 4.484,1.612 8.299,4.069 11.459,7.37 l -1.509,1.722 c -1.503,-1.578 -3.21,-2.959 -5.108,-4.144 -1.9,-1.185 -3.909,-2.168 -6.022,-2.957 -2.118,-0.791 -4.249,-1.362 -6.402,-1.723 -2.151,-0.356 -4.229,-0.537 -6.236,-0.537 -5.451,0 -10.419,0.985 -14.902,2.957 -4.482,1.977 -8.319,4.682 -11.509,8.123 -3.194,3.44 -5.67,7.477 -7.423,12.103 -1.763,4.626 -2.638,9.594 -2.638,14.901 0,5.309 0.86,10.272 2.582,14.899 1.723,4.622 4.177,8.657 7.367,12.103 3.193,3.44 7.03,6.149 11.513,8.121 4.484,1.974 9.486,2.959 15.01,2.959 4.731,0 9.409,-0.916 14.035,-2.74 4.625,-1.832 8.446,-4.576 11.458,-8.231 l 1.723,1.612 c -3.226,3.875 -7.299,6.763 -12.214,8.664 z"
               inkscape:connector-curvature="0"
               style="fill:#ef7726" />
          </g>
        </g>
        <polyline
           id="polyline63"
           points="198.938,256.568 212.5,243.366     212.5,317   "
           stroke-miterlimit="10"
           style="fill:none;stroke:#faaf3b;stroke-width:0.89999998;stroke-miterlimit:10" />
        <polyline
           id="polyline65"
           points="200.938,256.568 214.5,243.366     214.5,317   "
           stroke-miterlimit="10"
           style="fill:none;stroke:#faaf3b;stroke-width:0.89999998;stroke-miterlimit:10" />
        <polyline
           id="polyline67"
           points="200.938,256.568 214.5,243.366     214.5,317   "
           stroke-miterlimit="10"
           style="fill:none;stroke:#faaf3b;stroke-width:0.89999998;stroke-miterlimit:10" />
        <line
           id="line69"
           y2="317"
           x2="216.5"
           y1="254"
           x1="216.5"
           stroke-miterlimit="10"
           style="fill:none;stroke:#faaf3b;stroke-width:0.89999998;stroke-miterlimit:10" />
        <polyline
           id="polyline71"
           points="202.934,256.566 216.5,243.366 216.5,254   "
           stroke-miterlimit="10"
           style="fill:none;stroke:#faaf3b;stroke-miterlimit:10" />
        <line
           id="line73"
           y2="317"
           x2="218.5"
           y1="254"
           x1="218.5"
           stroke-miterlimit="10"
           style="fill:none;stroke:#faaf3b;stroke-width:0.89999998;stroke-miterlimit:10" />
        <polyline
           id="polyline75"
           points="204.934,256.566 218.5,243.366 218.5,254   "
           stroke-miterlimit="10"
           style="fill:none;stroke:#faaf3b;stroke-miterlimit:10" />
        <g
           id="g77">
          <path
             id="path79"
             d="m 277.562,295.662 c 0,13.203 -10.696,23.904 -23.896,23.904 -13.201,0 -23.9,-10.701 -23.9,-23.904 0,-13.197 10.699,-23.898 23.9,-23.898 13.2,0 23.896,10.701 23.896,23.898 z"
             stroke-miterlimit="10"
             inkscape:connector-curvature="0"
             style="fill:none;stroke:#faaf3b;stroke-width:0.89999998;stroke-miterlimit:10" />
          <line
             id="line81"
             y2="283.50699"
             x2="233.089"
             y1="240.59"
             x1="258.23401"
             stroke-miterlimit="10"
             style="fill:none;stroke:#faaf3b;stroke-width:0.89999998;stroke-miterlimit:10" />
          <path
             id="path83"
             d="m 279.744,295.977 c 0,13.203 -10.698,23.9 -23.898,23.9 -13.199,0 -23.898,-10.697 -23.898,-23.9 0,-13.197 10.699,-23.897 23.898,-23.897 13.2,-10e-4 23.898,10.697 23.898,23.897 z"
             stroke-miterlimit="10"
             inkscape:connector-curvature="0"
             style="fill:none;stroke:#faaf3b;stroke-width:0.89999998;stroke-miterlimit:10" />
          <line
             id="line85"
             y2="283.81799"
             x2="235.27"
             y1="240.89999"
             x1="260.42001"
             stroke-miterlimit="10"
             style="fill:none;stroke:#faaf3b;stroke-width:0.89999998;stroke-miterlimit:10" />
          <path
             id="path87"
             d="m 281.93,296.289 c 0,13.201 -10.703,23.898 -23.896,23.898 -13.201,0 -23.904,-10.697 -23.904,-23.898 0,-13.2 10.703,-23.9 23.904,-23.9 13.193,0 23.896,10.7 23.896,23.9 z"
             stroke-miterlimit="10"
             inkscape:connector-curvature="0"
             style="fill:none;stroke:#faaf3b;stroke-width:0.89999998;stroke-miterlimit:10" />
          <line
             id="line89"
             y2="284.129"
             x2="237.453"
             y1="241.214"
             x1="262.60199"
             stroke-miterlimit="10"
             style="fill:none;stroke:#faaf3b;stroke-width:0.89999998;stroke-miterlimit:10" />
          <circle
             id="circle91"
             r="23.900999"
             cy="296.60001"
             cx="260.20901"
             stroke-miterlimit="10"
             style="fill:none;stroke:#faaf3b;stroke-width:0.89999998;stroke-miterlimit:10" />
          <line
             id="line93"
             y2="284.44101"
             x2="239.63499"
             y1="241.52299"
             x1="264.78101"
             stroke-miterlimit="10"
             style="fill:none;stroke:#faaf3b;stroke-width:0.89999998;stroke-miterlimit:10" />
        </g>
      </g>
      <g
         id="g95">
        <path
           id="path97"
           d="M 100.221,172.048 C 97.618,167.426 99.188,149.137 58.981,136.916 18.78,124.699 -3.295,81.736 27.842,53.752 58.98,25.764 125.99,4.086 212.309,23.795 c 86.315,19.707 97.226,87.503 98.799,101.295 1.578,13.797 3.285,28.379 -1.441,40.599 -4.732,12.217 -14.755,48.767 -26.803,52.816 -11.463,3.856 -24.438,3.942 -29.166,-10.246 -4.733,-14.19 -46.117,-37.841 -93.023,-24.438 -46.907,13.402 -59.232,-9.522 -60.454,-11.773 z"
           stroke-miterlimit="10"
           inkscape:connector-curvature="0"
           style="fill:none;stroke:#ffd194;stroke-width:0.2;stroke-miterlimit:10" />
        <path
           id="path99"
           d="M 140.937,31.451 V 16.288 c -18.972,0.518 -36.288,2.875 -51.765,6.957 l -0.297,8.141 v 1.12 c 0,18.285 22.799,31.535 49.938,31.535 1.114,0 0.892,-0.021 1.991,-0.076 -0.034,-2.842 0.133,-32.514 0.133,-32.514 z"
           stroke-miterlimit="10"
           inkscape:connector-curvature="0"
           style="fill:none;stroke:#ffd194;stroke-width:0.2;stroke-miterlimit:10" />
        <path
           id="path101"
           d="M 141.523,32.832 141.62,18.68 c -18.974,0.52 -36.38,3.047 -51.858,7.123 l -0.295,6.964 v 1.117 c 0,18.287 22.798,31.538 49.938,31.538 1.12,0 0.892,-0.024 1.991,-0.076 -0.036,-2.846 0.127,-32.514 0.127,-32.514 z"
           stroke-miterlimit="10"
           inkscape:connector-curvature="0"
           style="fill:none;stroke:#faaf3b;stroke-width:0.2;stroke-miterlimit:10" />
        <path
           id="path103"
           d="M 142.114,34.209 142.1,21.257 c -18.974,0.518 -36.122,3.067 -51.869,7.306 l -0.174,5.582 v 1.117 c 0,18.285 22.799,31.539 49.938,31.539 1.116,0 0.892,-0.027 1.991,-0.073 -0.035,-2.849 0.128,-32.519 0.128,-32.519 z"
           stroke-miterlimit="10"
           inkscape:connector-curvature="0"
           style="fill:none;stroke:#f05a24;stroke-width:0.2;stroke-miterlimit:10" />
        <path
           id="path105"
           d="M 142.705,35.588 V 23.014 c -18.972,0.516 -36.417,3.168 -51.914,7.473 l -0.143,5.037 v 1.117 c 0,18.287 22.798,31.539 49.938,31.539 1.12,0 0.892,-0.027 1.991,-0.077 -0.035,-2.846 0.128,-32.515 0.128,-32.515 z"
           stroke-miterlimit="10"
           inkscape:connector-curvature="0"
           style="fill:none;stroke:#ff1f1f;stroke-width:0.2;stroke-miterlimit:10" />
        <path
           id="path107"
           d="m 143.296,36.969 v -11.85 c -18.978,0.518 -36.386,3.161 -51.878,7.576 l -0.18,4.207 v 1.116 c 0,18.287 22.799,31.538 49.938,31.538 1.116,0 0.892,-0.023 1.987,-0.074 -0.03,-2.847 0.133,-32.513 0.133,-32.513 z"
           stroke-miterlimit="10"
           inkscape:connector-curvature="0"
           style="fill:none;stroke:#f05a24;stroke-width:0.2;stroke-miterlimit:10" />
        <path
           id="path109"
           d="M 143.887,38.344 V 27.029 c -18.972,0.518 -36.253,3.123 -51.873,7.701 L 91.83,38.281 V 39.4 c 0,18.283 22.798,31.537 49.938,31.537 1.116,0 0.892,-0.025 1.991,-0.078 -0.035,-2.844 0.128,-32.515 0.128,-32.515 z"
           stroke-miterlimit="10"
           inkscape:connector-curvature="0"
           style="fill:none;stroke:#faaf3b;stroke-width:0.2;stroke-miterlimit:10" />
        <path
           id="path111"
           d="M 144.478,39.726 V 29.062 c -18.972,0.52 -39.932,3.847 -51.903,7.881 L 92.42,39.66 v 1.118 c 0,18.286 22.799,31.536 49.938,31.536 1.116,0 0.892,-0.024 1.991,-0.076 -0.035,-2.845 0.129,-32.512 0.129,-32.512 z"
           stroke-miterlimit="10"
           inkscape:connector-curvature="0"
           style="fill:none;stroke:#ffd194;stroke-width:0.2;stroke-miterlimit:10" />
        <path
           id="path113"
           d="m 310.766,122.502 c -2.344,-16.455 -14.117,-68.01 -75.645,-91.797 -11.748,9.244 -20.573,23.527 -22.335,37.028 -2.89,22.153 18.997,31.915 36.223,40.159 15.039,7.204 41.79,7.708 61.757,14.61 z"
           stroke-miterlimit="10"
           inkscape:connector-curvature="0"
           style="fill:none;stroke:#faaf3b;stroke-width:0.2;stroke-miterlimit:10" />
        <path
           id="path115"
           d="m 221.329,26.107 c -2.913,-0.83 -5.914,-1.604 -9.021,-2.312 -18.203,-4.156 -35.551,-6.473 -51.885,-7.275 -2.791,20.311 -5.548,45.59 14.051,50.961 23.747,6.509 35.021,-17.416 46.855,-41.374 z"
           stroke-miterlimit="10"
           inkscape:connector-curvature="0"
           style="fill:none;stroke:#faaf3b;stroke-width:0.2;stroke-miterlimit:10" />
        <path
           id="path117"
           d="m 289.913,207.878 c -12.206,-9.839 -11.687,-22.63 -16.017,-35.367 -5.033,-14.796 -23.996,-23.071 -38.862,-19.543 -18.024,4.28 -34.693,21.209 -52.816,3.821 C 162.936,138.291 199,88.466 157.917,86.618 c -21.743,-0.974 -33.961,19.647 -49.371,31.997 -10.785,8.645 -23.747,18.121 -37.38,20.807 -0.957,0.186 -2.048,0.376 -3.234,0.565 30.985,12.007 29.895,27.812 32.289,32.061 1.223,2.251 13.547,25.175 60.452,11.772 46.906,-13.402 88.29,10.249 93.023,24.438 4.728,14.188 17.835,14.237 29.268,10.294 3.108,-1.071 6.235,-4.497 9.124,-9.265 -0.754,-0.396 -1.6,-0.946 -2.175,-1.409 z"
           stroke-miterlimit="10"
           inkscape:connector-curvature="0"
           style="fill:none;stroke:#ffd194;stroke-width:0.2;stroke-miterlimit:10" />
        <g
           id="g119">
          <path
             id="path121"
             d="m 160.673,183.82 c 21.448,-6.129 41.735,-4.508 57.9,0.413 -7.076,-11.776 -12.038,-25.096 -20.46,-36.207 -23.282,-30.726 -61.976,17.322 -94.82,28.306 6.068,6.772 21.713,17.678 57.38,7.488 z"
             stroke-miterlimit="10"
             inkscape:connector-curvature="0"
             style="fill:none;stroke:#ffd194;stroke-width:0.2;stroke-miterlimit:10" />
        </g>
        <path
           id="path123"
           d="M 151.895,168.627 C 119.312,156.012 146.643,134.988 142.435,115.02 138.232,92.944 105.648,110.813 89.88,101.352 72.379,90.85 82.781,49.282 83.965,24.75 59.994,31.684 40.722,42.176 27.842,53.752 c -31.138,27.984 -9.241,70.885 31.404,83.164 40.221,12.154 38.387,30.462 40.991,35.08 1.221,2.252 13.796,25.227 60.701,11.824 7.483,-2.14 14.826,-3.332 21.907,-3.771 -7.325,-14.141 -17.643,-6.308 -30.95,-11.422 z"
           stroke-miterlimit="10"
           inkscape:connector-curvature="0"
           style="fill:none;stroke:#ffd194;stroke-width:0.2;stroke-miterlimit:10" />
        <path
           id="path125"
           d="m 35.081,124.584 c 3.606,-4.738 6.716,-9.046 8.55,-12.719 10.631,-21.262 4.086,-45.064 -9.248,-63.496 -2.328,1.76 -4.508,3.559 -6.541,5.383 -24.158,21.711 -16.281,52.443 7.239,70.832 z"
           stroke-miterlimit="10"
           inkscape:connector-curvature="0"
           style="fill:none;stroke:#faaf3b;stroke-width:0.2;stroke-miterlimit:10" />
        <path
           id="path127"
           d="m 311.061,124.963 c -0.871,-7.645 -4.746,-31.75 -22.531,-55.189 -36.244,20.537 -69.496,72.031 -23.109,77.83 22.074,3.153 31.535,4.206 35.737,30.48 0.321,3.021 0.647,5.859 1.005,8.533 3.146,-8.401 5.734,-16.369 7.504,-20.929 4.726,-12.219 2.974,-26.928 1.394,-40.725 z"
           stroke-miterlimit="10"
           inkscape:connector-curvature="0"
           style="fill:none;stroke:#faaf3b;stroke-width:0.2;stroke-miterlimit:10" />
        <path
           id="path129"
           d="M 129.638,16.797 C 83.557,20 48.104,35.538 27.842,53.752 c -1.013,0.911 -1.972,1.841 -2.878,2.785 23.731,33.014 103.511,5.033 104.674,-39.74 z"
           stroke-miterlimit="10"
           inkscape:connector-curvature="0"
           style="fill:none;stroke:#ffd194;stroke-width:0.2;stroke-miterlimit:10" />
        <path
           id="path131"
           d="m 33.121,102.403 c -5.254,0 -10.374,0.479 -15.305,1.382 7.193,14.697 22.151,27.354 41.164,33.131 40.207,12.221 38.597,30.424 41.199,35.043 0.27,0.5 0.953,1.855 2.604,3.785 1.217,-4.38 1.813,-8.736 1.813,-13.425 0.002,-33.09 -32.003,-59.916 -71.475,-59.916 z"
           stroke-miterlimit="10"
           inkscape:connector-curvature="0"
           style="fill:none;stroke:#ffd194;stroke-width:0.2;stroke-miterlimit:10" />
        <path
           id="path133"
           d="m 269.057,49.665 c -21.179,7.642 -45.965,14.956 -56.959,35.005 -7.887,15.771 -8.675,41.789 0,57.557 9.463,17.347 26.803,26.809 39.418,40.209 10.438,10.436 13.963,23.98 15.156,37.888 5.125,1.056 10.969,0.074 16.45,-1.818 11.433,-3.938 21.81,-40.6 26.543,-52.816 4.728,-12.22 3.021,-26.802 1.44,-40.599 -1.128,-9.905 -6.932,-47.636 -42.048,-75.426 z"
           stroke-miterlimit="10"
           inkscape:connector-curvature="0"
           style="fill:none;stroke:#ffd194;stroke-width:0.2;stroke-miterlimit:10" />
        <g
           id="g135">
          <path
             id="path137"
             d="m 311.105,125.09 c -0.271,-2.373 -0.81,-6.35 -1.955,-11.404 -6.217,33.717 -31.317,62.932 -67.071,81.476 6.369,4.427 10.348,9.27 11.673,13.23 4.729,14.191 17.941,14.056 29.37,10.112 11.433,-3.938 21.81,-40.6 26.543,-52.816 4.728,-12.219 3.021,-26.801 1.44,-40.598 z"
             stroke-miterlimit="10"
             inkscape:connector-curvature="0"
             style="fill:none;stroke:#ffd194;stroke-width:0.2;stroke-miterlimit:10" />
        </g>
        <path
           id="path139"
           d="M 100.18,171.959 C 97.577,167.34 99.188,149.137 58.981,136.916 18.78,124.699 -3.295,81.736 27.842,53.752 58.98,25.764 125.99,4.086 212.309,23.795 c 86.315,19.707 97.226,87.503 98.799,101.295 1.578,13.797 3.285,28.379 -1.441,40.599 -4.732,12.217 -14.621,48.752 -26.809,52.881 -11.452,3.878 -24.434,3.878 -29.16,-10.312 -4.733,-14.19 -46.117,-37.841 -93.023,-24.438 -46.907,13.403 -59.273,-9.607 -60.495,-11.861 z"
           stroke-miterlimit="10"
           inkscape:connector-curvature="0"
           style="fill:none;stroke:#ffd194;stroke-width:0.2;stroke-miterlimit:10" />
        <path
           id="path141"
           d="m 310.766,122.502 c -2.344,-16.455 -14.117,-68.01 -75.645,-91.797 -11.748,9.244 -20.573,23.527 -22.335,37.028 -2.89,22.153 18.997,31.915 36.223,40.159 15.039,7.204 41.79,7.708 61.757,14.61 z"
           stroke-miterlimit="10"
           inkscape:connector-curvature="0"
           style="fill:none;stroke:#faaf3b;stroke-width:0.2;stroke-miterlimit:10" />
        <path
           id="path143"
           d="m 221.329,26.107 c -2.913,-0.83 -5.914,-1.604 -9.021,-2.312 -18.203,-4.156 -35.551,-6.473 -51.885,-7.275 -2.791,20.311 -5.548,45.59 14.051,50.961 23.747,6.509 35.021,-17.416 46.855,-41.374 z"
           stroke-miterlimit="10"
           inkscape:connector-curvature="0"
           style="fill:none;stroke:#faaf3b;stroke-width:0.2;stroke-miterlimit:10" />
        <path
           id="path145"
           d="m 289.913,207.878 c -12.206,-9.839 -11.687,-22.63 -16.017,-35.367 -5.033,-14.796 -23.996,-23.071 -38.862,-19.543 -18.024,4.28 -34.693,21.209 -52.816,3.821 C 162.936,138.291 199,88.466 157.917,86.618 c -21.743,-0.974 -33.961,19.647 -49.371,31.997 -10.785,8.645 -23.747,18.121 -37.38,20.807 -0.957,0.186 -2.048,0.376 -3.234,0.565 30.985,12.007 29.895,27.704 32.289,31.95 1.223,2.252 13.547,25.286 60.452,11.883 46.906,-13.402 88.29,10.249 93.023,24.438 4.728,14.188 18.142,14.098 29.573,10.155 3.112,-1.07 5.961,-4.347 8.854,-9.113 -0.758,-0.402 -1.635,-0.959 -2.21,-1.422 z"
           stroke-miterlimit="10"
           inkscape:connector-curvature="0"
           style="fill:none;stroke:#ffd194;stroke-width:0.2;stroke-miterlimit:10" />
        <g
           id="g147">
          <path
             id="path149"
             d="m 160.673,183.82 c 21.448,-6.129 41.735,-4.508 57.9,0.413 -7.076,-11.776 -12.038,-25.096 -20.46,-36.207 -23.282,-30.726 -61.976,17.322 -94.82,28.306 6.068,6.772 21.713,17.678 57.38,7.488 z"
             stroke-miterlimit="10"
             inkscape:connector-curvature="0"
             style="fill:none;stroke:#ffd194;stroke-width:0.2;stroke-miterlimit:10" />
        </g>
        <path
           id="path151"
           d="M 151.895,168.627 C 119.312,156.012 146.643,134.988 142.435,115.02 138.232,92.944 105.648,110.813 89.88,101.352 72.379,90.85 82.781,49.282 83.965,24.75 59.994,31.684 40.763,42.115 27.888,53.688 c -31.138,27.983 -9.353,70.85 31.358,83.229 40.2,12.227 38.387,30.462 40.991,35.08 1.221,2.252 13.796,25.228 60.701,11.824 7.483,-2.14 14.826,-3.332 21.907,-3.771 -7.325,-14.142 -17.643,-6.309 -30.95,-11.423 z"
           stroke-miterlimit="10"
           inkscape:connector-curvature="0"
           style="fill:none;stroke:#ffd194;stroke-width:0.2;stroke-miterlimit:10" />
        <path
           id="path153"
           d="m 35.081,124.584 c 3.606,-4.738 6.716,-9.046 8.55,-12.719 10.631,-21.262 4.086,-45.064 -9.248,-63.496 -2.328,1.76 -4.508,3.559 -6.541,5.383 -24.158,21.711 -16.281,52.443 7.239,70.832 z"
           stroke-miterlimit="10"
           inkscape:connector-curvature="0"
           style="fill:none;stroke:#faaf3b;stroke-width:0.2;stroke-miterlimit:10" />
        <path
           id="path155"
           d="m 311.061,124.963 c -0.871,-7.645 -4.746,-31.75 -22.531,-55.189 -36.244,20.537 -69.496,72.031 -23.109,77.83 22.074,3.153 31.535,4.206 35.737,30.48 0.321,3.021 0.647,5.859 1.005,8.533 3.146,-8.401 5.734,-16.369 7.504,-20.929 4.726,-12.219 2.974,-26.928 1.394,-40.725 z"
           stroke-miterlimit="10"
           inkscape:connector-curvature="0"
           style="fill:none;stroke:#faaf3b;stroke-width:0.2;stroke-miterlimit:10" />
        <path
           id="path157"
           d="M 129.638,16.797 C 83.557,20 48.104,35.538 27.842,53.752 c -1.013,0.911 -1.972,1.841 -2.878,2.785 23.731,33.014 103.511,5.033 104.674,-39.74 z"
           stroke-miterlimit="10"
           inkscape:connector-curvature="0"
           style="fill:none;stroke:#ffd194;stroke-width:0.2;stroke-miterlimit:10" />
        <path
           id="path159"
           d="m 33.121,102.403 c -5.254,0 -10.374,0.479 -15.305,1.382 7.193,14.697 22.151,27.354 41.164,33.131 40.207,12.221 38.652,30.462 41.257,35.08 0.274,0.502 0.896,1.818 2.547,3.748 1.217,-4.38 1.813,-8.736 1.813,-13.425 0.001,-33.09 -32.004,-59.916 -71.476,-59.916 z"
           stroke-miterlimit="10"
           inkscape:connector-curvature="0"
           style="fill:none;stroke:#ffd194;stroke-width:0.2;stroke-miterlimit:10" />
        <path
           id="path161"
           d="m 269.057,49.665 c -21.179,7.642 -45.965,14.956 -56.959,35.005 -7.887,15.771 -8.675,41.789 0,57.557 9.463,17.347 26.803,26.809 39.418,40.209 10.438,10.436 13.963,23.98 15.156,37.888 5.125,1.056 10.969,0.074 16.45,-1.818 11.433,-3.938 21.81,-40.6 26.543,-52.816 4.728,-12.22 3.021,-26.802 1.44,-40.599 -1.128,-9.905 -6.932,-47.636 -42.048,-75.426 z"
           stroke-miterlimit="10"
           inkscape:connector-curvature="0"
           style="fill:none;stroke:#ffd194;stroke-width:0.2;stroke-miterlimit:10" />
        <g
           id="g163">
          <path
             id="path165"
             d="m 311.105,125.09 c -0.271,-2.373 -0.81,-6.35 -1.955,-11.404 -6.217,33.717 -31.317,62.932 -67.071,81.476 6.369,4.427 10.292,9.134 11.616,13.098 4.729,14.188 17.998,14.188 29.427,10.246 11.433,-3.938 21.81,-40.6 26.543,-52.816 4.728,-12.221 3.021,-26.803 1.44,-40.6 z"
             stroke-miterlimit="10"
             inkscape:connector-curvature="0"
             style="fill:none;stroke:#ffd194;stroke-width:0.2;stroke-miterlimit:10" />
        </g>
        <path
           id="path167"
           d="M 100.18,171.889 C 97.577,167.274 99.188,149.137 58.981,136.916 18.78,124.699 -3.295,81.736 27.842,53.752 58.98,25.764 125.99,4.086 212.309,23.795 c 86.315,19.707 97.226,87.503 98.799,101.295 1.578,13.797 3.285,28.379 -1.441,40.599 -4.732,12.217 -15.111,48.877 -26.543,52.816 -11.428,3.942 -24.698,3.942 -29.426,-10.246 -4.733,-14.19 -46.117,-37.841 -93.023,-24.438 -46.907,13.402 -59.273,-9.675 -60.495,-11.932 z"
           stroke-miterlimit="10"
           inkscape:connector-curvature="0"
           style="fill:none;stroke:#ffd194;stroke-width:0.2;stroke-miterlimit:10" />
        <g
           id="g169">
          <path
             id="path171"
             d="m 202.745,47.219 c -12.095,0 -23.16,2.971 -31.681,7.881 l -1.022,0.607 c -7.896,4.723 -18.069,7.754 -29.272,8.258 0,20.135 17.122,48.951 61.976,48.951 26.92,0 48.744,-14.705 48.744,-32.846 -0.001,-18.143 -21.825,-32.851 -48.745,-32.851 z"
             stroke-miterlimit="10"
             inkscape:connector-curvature="0"
             style="fill:none;stroke:#ffd194;stroke-width:0.2;stroke-miterlimit:10" />
        </g>
        <path
           id="path173"
           d="m 310.766,122.502 c -2.344,-16.455 -14.117,-68.01 -75.645,-91.797 -11.748,9.244 -20.573,23.527 -22.335,37.028 -2.89,22.153 18.997,31.915 36.223,40.159 15.039,7.204 41.79,7.708 61.757,14.61 z"
           stroke-miterlimit="10"
           inkscape:connector-curvature="0"
           style="fill:none;stroke:#ffd194;stroke-width:0.2;stroke-miterlimit:10" />
        <path
           id="path175"
           d="m 221.329,26.107 c -2.913,-0.83 -5.914,-1.604 -9.021,-2.312 -18.203,-4.156 -35.551,-6.473 -51.885,-7.275 -2.791,20.311 -5.548,45.59 14.051,50.961 23.747,6.509 35.021,-17.416 46.855,-41.374 z"
           stroke-miterlimit="10"
           inkscape:connector-curvature="0"
           style="fill:none;stroke:#ffd194;stroke-width:0.2;stroke-miterlimit:10" />
        <path
           id="path177"
           d="m 289.913,207.878 c -12.206,-9.839 -11.687,-22.63 -16.017,-35.367 -5.033,-14.796 -23.996,-23.071 -38.862,-19.543 -18.024,4.28 -34.693,21.209 -52.816,3.821 C 162.936,138.291 199,88.466 157.917,86.618 c -21.743,-0.974 -33.961,19.647 -49.371,31.997 -10.785,8.645 -23.747,18.121 -37.38,20.807 -0.957,0.186 -2.048,0.376 -3.234,0.565 30.985,12.007 29.854,27.659 32.248,31.901 1.223,2.258 13.588,25.334 60.493,11.932 46.906,-13.402 88.29,10.249 93.023,24.438 4.728,14.188 18.142,14.098 29.573,10.155 3.112,-1.07 5.93,-4.358 8.817,-9.126 -0.752,-0.396 -1.598,-0.946 -2.173,-1.409 z"
           stroke-miterlimit="10"
           inkscape:connector-curvature="0"
           style="fill:none;stroke:#ffd194;stroke-width:0.2;stroke-miterlimit:10" />
        <g
           id="g179">
          <path
             id="path181"
             d="m 160.673,183.82 c 21.448,-6.129 41.735,-4.508 57.9,0.413 -7.076,-11.776 -12.038,-25.096 -20.46,-36.207 -23.282,-30.726 -61.976,17.322 -94.82,28.306 6.068,6.772 21.713,17.678 57.38,7.488 z"
             stroke-miterlimit="10"
             inkscape:connector-curvature="0"
             style="fill:none;stroke:#ffd194;stroke-width:0.2;stroke-miterlimit:10" />
        </g>
        <path
           id="path183"
           d="M 151.895,168.627 C 119.312,156.012 146.643,134.988 142.435,115.02 138.232,92.944 105.648,110.813 89.88,101.352 72.379,90.85 82.781,49.282 83.965,24.75 59.994,31.684 40.763,42.115 27.888,53.688 c -31.138,27.983 -9.486,70.721 31.358,83.229 40.176,12.307 38.387,30.462 40.991,35.08 1.221,2.252 13.796,25.228 60.701,11.824 7.483,-2.14 14.826,-3.332 21.907,-3.771 -7.325,-14.142 -17.643,-6.309 -30.95,-11.423 z"
           stroke-miterlimit="10"
           inkscape:connector-curvature="0"
           style="fill:none;stroke:#ffd194;stroke-width:0.2;stroke-miterlimit:10" />
        <path
           id="path185"
           d="m 35.081,124.584 c 3.606,-4.738 6.716,-9.046 8.55,-12.719 10.631,-21.262 4.086,-45.064 -9.248,-63.496 -2.328,1.76 -4.508,3.559 -6.541,5.383 -24.158,21.711 -16.281,52.443 7.239,70.832 z"
           stroke-miterlimit="10"
           inkscape:connector-curvature="0"
           style="fill:none;stroke:#ffd194;stroke-width:0.2;stroke-miterlimit:10" />
        <path
           id="path187"
           d="m 311.105,125.09 c -0.871,-7.645 -4.793,-31.877 -22.578,-55.316 -36.243,20.537 -69.495,72.031 -23.108,77.83 22.074,3.153 31.535,4.206 35.737,30.48 0.32,3.021 0.647,5.859 1.005,8.533 3.147,-8.401 5.735,-16.369 7.504,-20.929 4.728,-12.219 3.021,-26.801 1.44,-40.598 z"
           stroke-miterlimit="10"
           inkscape:connector-curvature="0"
           style="fill:none;stroke:#ffd194;stroke-width:0.2;stroke-miterlimit:10" />
        <path
           id="path189"
           d="m 27.842,53.752 c -1.013,0.911 -1.972,1.841 -2.878,2.785 23.731,33.014 103.511,5.033 104.674,-39.74"
           stroke-miterlimit="10"
           inkscape:connector-curvature="0"
           style="fill:none;stroke:#ffd194;stroke-width:0.2;stroke-miterlimit:10" />
        <path
           id="path191"
           d="m 33.121,102.403 c -5.254,0 -10.374,0.479 -15.305,1.382 7.193,14.697 22.151,27.354 41.164,33.131 40.207,12.221 38.597,30.357 41.199,34.973 0.27,0.505 0.974,1.993 2.625,3.922 1.217,-4.381 1.793,-8.803 1.793,-13.491 0.001,-33.091 -32.004,-59.917 -71.476,-59.917 z"
           stroke-miterlimit="10"
           inkscape:connector-curvature="0"
           style="fill:none;stroke:#ffd194;stroke-width:0.2;stroke-miterlimit:10" />
        <path
           id="path193"
           d="m 269.057,49.665 c -21.179,7.642 -45.965,14.956 -56.959,35.005 -7.887,15.771 -8.675,41.789 0,57.557 9.463,17.347 26.803,26.809 39.418,40.209 10.438,10.436 13.963,23.98 15.156,37.888 5.125,1.056 10.969,0.074 16.45,-1.818 11.433,-3.938 21.81,-40.6 26.543,-52.816 4.728,-12.22 3.021,-26.802 1.44,-40.599 -1.128,-9.905 -6.932,-47.636 -42.048,-75.426 z"
           stroke-miterlimit="10"
           inkscape:connector-curvature="0"
           style="fill:none;stroke:#ffd194;stroke-width:0.2;stroke-miterlimit:10" />
        <g
           id="g195">
          <path
             id="path197"
             d="m 311.105,125.09 c -0.271,-2.373 -0.81,-6.35 -1.955,-11.404 -6.217,33.717 -31.484,63.009 -67.238,81.555 6.367,4.43 10.515,9.188 11.84,13.151 4.729,14.191 17.941,14.056 29.37,10.112 11.432,-3.938 21.81,-40.6 26.543,-52.816 4.728,-12.219 3.021,-26.801 1.44,-40.598 z"
             stroke-miterlimit="10"
             inkscape:connector-curvature="0"
             style="fill:none;stroke:#ffd194;stroke-width:0.2;stroke-miterlimit:10" />
        </g>
        <path
           id="path199"
           d="m 101.644,170.688 c -2.543,-4.51 -0.974,-22.191 -40.196,-34.206 -38.843,-11.9 -60.805,-53.878 -30.407,-81.2 30.406,-27.323 95.824,-48.488 180.1,-29.245 84.274,19.239 94.668,85.431 96.207,98.898 1.537,13.467 3.465,27.707 -1.156,39.636 -4.616,11.929 -15.01,47.718 -26.166,51.562 -11.161,3.853 -23.857,3.853 -28.479,-10.002 -4.614,-13.853 -45.021,-36.943 -90.816,-23.858 -45.796,13.084 -57.891,-9.385 -59.087,-11.585 z"
           stroke-miterlimit="10"
           inkscape:connector-curvature="0"
           style="fill:none;stroke:#faaf3b;stroke-width:0.2;stroke-miterlimit:10" />
        <path
           id="path201"
           d="m 201.936,48.972 c -11.811,0 -22.609,2.899 -30.93,7.696 l -0.999,0.594 c -7.714,4.609 -17.643,7.57 -28.576,8.061 0,19.631 16.716,47.791 60.504,47.791 26.287,0 47.592,-14.357 47.592,-32.07 0,-17.712 -21.304,-32.072 -47.591,-32.072 z"
           stroke-miterlimit="10"
           inkscape:connector-curvature="0"
           style="fill:none;stroke:#faaf3b;stroke-width:0.2;stroke-miterlimit:10" />
        <path
           id="path203"
           d="m 307.005,122.289 c -2.287,-16.068 -13.521,-66.281 -73.591,-89.505 -11.469,9.021 -20.083,22.969 -21.805,36.151 -2.822,21.629 18.55,31.16 35.36,39.209 14.683,7.03 40.545,7.405 60.036,14.145 z"
           stroke-miterlimit="10"
           inkscape:connector-curvature="0"
           style="fill:none;stroke:#faaf3b;stroke-width:0.2;stroke-miterlimit:10" />
        <path
           id="path205"
           d="m 219.949,28.291 c -2.844,-0.809 -5.778,-1.562 -8.809,-2.254 -17.775,-4.062 -34.711,-6.321 -50.656,-7.108 -2.726,19.833 -5.416,44.515 13.714,49.757 23.193,6.355 34.197,-17.003 45.751,-40.395 z"
           stroke-miterlimit="10"
           inkscape:connector-curvature="0"
           style="fill:none;stroke:#faaf3b;stroke-width:0.2;stroke-miterlimit:10" />
        <path
           id="path207"
           d="M 286.908,205.76 C 274.992,196.156 275.5,183.666 271.271,171.233 266.355,156.79 247.84,148.708 233.332,152.15 c -17.602,4.179 -33.873,20.708 -51.571,3.733 -18.82,-18.061 16.384,-66.707 -23.721,-68.508 -21.229,-0.953 -33.162,19.181 -48.2,31.238 -10.535,8.443 -23.186,17.691 -36.498,20.31 -0.937,0.187 -2.002,0.374 -3.158,0.558 30.251,11.722 29.201,27.104 31.54,31.248 1.192,2.2 13.211,24.628 59.005,11.546 45.796,-13.085 86.201,10.006 90.816,23.858 4.622,13.854 17.318,13.854 28.48,10.002 3.035,-1.043 6.016,-4.459 8.838,-9.109 -0.738,-0.391 -1.395,-0.814 -1.955,-1.266 z"
           stroke-miterlimit="10"
           inkscape:connector-curvature="0"
           style="fill:none;stroke:#faaf3b;stroke-width:0.2;stroke-miterlimit:10" />
        <g
           id="g209">
          <path
             id="path211"
             d="m 160.729,182.274 c 20.939,-5.983 40.748,-4.401 56.53,0.4 -6.907,-11.493 -11.753,-24.497 -19.976,-35.349 -22.732,-30 -60.483,16.903 -92.554,27.631 5.925,6.61 21.178,17.265 56,7.318 z"
             stroke-miterlimit="10"
             inkscape:connector-curvature="0"
             style="fill:none;stroke:#faaf3b;stroke-width:0.2;stroke-miterlimit:10" />
        </g>
        <path
           id="path213"
           d="M 152.16,167.437 C 120.345,155.124 147.03,134.598 142.925,115.1 138.818,93.551 107.007,110.995 91.612,101.76 74.524,91.504 84.678,50.922 85.835,26.969 62.431,33.738 43.346,44.23 30.773,55.529 c -6.322,5.683 -10.235,11.98 -12.34,18.51 -7.992,24.864 12.223,52.86 43.269,62.443 38.628,11.917 37.481,29.737 40.023,34.247 1.192,2.2 13.466,24.628 59.261,11.546 7.311,-2.088 14.479,-3.252 21.392,-3.681 -7.153,-13.807 -17.227,-6.159 -30.218,-11.157 z"
           stroke-miterlimit="10"
           inkscape:connector-curvature="0"
           style="fill:none;stroke:#faaf3b;stroke-width:0.2;stroke-miterlimit:10" />
        <path
           id="path215"
           d="m 38.184,124.342 c 3.526,-4.628 6.48,-8.734 8.273,-12.321 10.379,-20.757 3.99,-43.997 -9.027,-61.99 -2.277,1.716 -4.406,3.472 -6.389,5.252 -23.588,21.197 -15.822,51.106 7.143,69.059 z"
           stroke-miterlimit="10"
           inkscape:connector-curvature="0"
           style="fill:none;stroke:#faaf3b;stroke-width:0.2;stroke-miterlimit:10" />
        <path
           id="path217"
           d="m 307.348,124.936 c -0.852,-7.467 -4.428,-31.125 -21.789,-54.01 -35.389,20.049 -67.855,70.324 -22.564,75.989 21.556,3.077 30.793,4.104 34.895,29.761 0.314,2.947 0.631,5.719 0.981,8.328 3.071,-8.201 5.6,-15.979 7.321,-20.433 4.62,-11.928 2.693,-26.169 1.156,-39.635 z"
           stroke-miterlimit="10"
           inkscape:connector-curvature="0"
           style="fill:none;stroke:#faaf3b;stroke-width:0.2;stroke-miterlimit:10" />
        <path
           id="path219"
           d="m 31.041,55.282 c -0.994,0.892 -1.925,1.8 -2.806,2.72 23.165,32.232 101.061,4.916 102.192,-38.798"
           stroke-miterlimit="10"
           inkscape:connector-curvature="0"
           style="fill:none;stroke:#faaf3b;stroke-width:0.2;stroke-miterlimit:10" />
        <path
           id="path221"
           d="m 36.192,102.786 c -5.126,0 -10.042,0.456 -14.855,1.336 7.021,14.345 21.748,26.655 40.11,32.359 39.44,12.247 37.734,29.737 40.276,34.247 0.643,1.189 1.382,2.419 2.481,3.703 1.188,-4.277 1.772,-8.57 1.772,-13.152 0.002,-32.306 -31.243,-58.493 -69.784,-58.493 z"
           stroke-miterlimit="10"
           inkscape:connector-curvature="0"
           style="fill:none;stroke:#faaf3b;stroke-width:0.2;stroke-miterlimit:10" />
        <path
           id="path223"
           d="m 266.346,51.361 c -20.668,7.459 -44.873,14.601 -55.607,34.178 -7.697,15.393 -8.467,40.795 0,56.189 9.236,16.936 26.172,26.172 38.49,39.26 10.185,10.189 13.633,23.413 14.795,36.993 5.002,1.028 10.707,0.07 16.062,-1.775 11.158,-3.85 21.551,-39.639 26.167,-51.568 4.62,-11.928 2.694,-26.167 1.156,-39.635 -1.106,-9.672 -6.777,-46.508 -41.063,-73.642 z"
           stroke-miterlimit="10"
           inkscape:connector-curvature="0"
           style="fill:none;stroke:#faaf3b;stroke-width:0.2;stroke-miterlimit:10" />
        <g
           id="g225">
          <path
             id="path227"
             d="m 307.408,124.936 c -0.266,-2.322 -0.795,-6.201 -1.916,-11.137 -6.067,32.918 -30.572,61.441 -65.48,79.549 6.217,4.32 10.307,8.913 11.596,12.785 4.615,13.854 17.315,13.854 28.479,10.002 11.158,-3.846 21.551,-39.635 26.167,-51.562 4.618,-11.93 2.692,-26.171 1.154,-39.637 z"
             stroke-miterlimit="10"
             inkscape:connector-curvature="0"
             style="fill:none;stroke:#faaf3b;stroke-width:0.2;stroke-miterlimit:10" />
        </g>
        <g
           id="g229">
          <path
             id="path231"
             d="m 103.054,169.688 c -2.48,-4.401 -0.749,-21.79 -39.07,-33.438 C 25.663,124.604 4.622,83.65 34.303,56.976 63.984,30.301 127.849,9.637 210.132,28.421 c 82.283,18.785 92.427,83.407 93.929,96.557 1.504,13.149 3.383,27.054 -1.132,38.699 -4.502,11.649 -14.651,46.591 -25.543,50.345 -10.897,3.759 -23.292,3.759 -27.801,-9.768 -4.509,-13.525 -43.962,-36.068 -88.673,-23.293 -44.709,12.773 -56.691,-9.125 -57.858,-11.273 z"
             stroke-miterlimit="10"
             inkscape:connector-curvature="0"
             style="fill:none;stroke:#f05a24;stroke-width:0.2;stroke-miterlimit:10" />
          <g
             id="g233">
            <path
               id="path235"
               d="m 201.018,50.75 c -11.527,0 -22.074,2.832 -30.194,7.514 l -0.979,0.578 c -7.53,4.502 -17.226,7.391 -27.904,7.873 0,18.61 16.324,46.658 59.077,46.658 25.662,0 46.469,-14.021 46.469,-31.312 C 247.484,64.77 226.68,50.75 201.018,50.75 Z"
               stroke-miterlimit="10"
               inkscape:connector-curvature="0"
               style="fill:none;stroke:#f05a24;stroke-width:0.2;stroke-miterlimit:10" />
          </g>
          <path
             id="path237"
             d="m 303.729,122.393 c -2.234,-15.684 -13.205,-64.709 -71.854,-87.383 -11.193,8.81 -19.604,22.425 -21.285,35.295 -2.757,21.115 18.11,30.422 34.525,38.279 14.338,6.865 39.581,7.229 58.614,13.809 z"
             stroke-miterlimit="10"
             inkscape:connector-curvature="0"
             style="fill:none;stroke:#f05a24;stroke-width:0.2;stroke-miterlimit:10" />
          <path
             id="path239"
             d="m 218.73,30.623 c -2.776,-0.789 -5.64,-1.525 -8.6,-2.202 -17.354,-3.962 -33.889,-6.169 -49.459,-6.934 -2.659,19.358 -5.287,43.457 13.395,48.577 22.637,6.203 33.385,-16.601 44.664,-39.441 z"
             stroke-miterlimit="10"
             inkscape:connector-curvature="0"
             style="fill:none;stroke:#f05a24;stroke-width:0.2;stroke-miterlimit:10" />
          <path
             id="path241"
             d="m 284.105,203.889 c -11.637,-9.373 -11.138,-21.57 -15.27,-33.706 -4.8,-14.103 -22.869,-21.996 -37.037,-18.632 -17.185,4.076 -33.074,20.217 -50.351,3.643 -18.376,-17.631 15.997,-65.128 -23.16,-66.887 -20.729,-0.93 -32.376,18.729 -47.064,30.5 -10.279,8.242 -22.629,17.27 -35.626,19.83 -0.917,0.18 -1.956,0.363 -3.087,0.539 29.539,11.449 28.259,26.467 30.542,30.513 1.167,2.147 13.149,24.045 57.858,11.272 44.711,-12.775 84.164,9.768 88.673,23.293 4.509,13.525 16.902,13.525 27.801,9.768 2.965,-1.021 5.868,-4.354 8.625,-8.896 -0.717,-0.384 -1.354,-0.794 -1.904,-1.237 z"
             stroke-miterlimit="10"
             inkscape:connector-curvature="0"
             style="fill:none;stroke:#f05a24;stroke-width:0.2;stroke-miterlimit:10" />
          <g
             id="g243">
            <path
               id="path245"
               d="m 160.912,180.961 c 20.445,-5.842 39.789,-4.298 55.195,0.395 -6.746,-11.229 -11.474,-23.922 -19.502,-34.517 -22.196,-29.289 -59.234,16.579 -90.546,27.048 5.788,6.455 20.857,16.786 54.853,7.074 z"
               stroke-miterlimit="10"
               inkscape:connector-curvature="0"
               style="fill:none;stroke:#f05a24;stroke-width:0.2;stroke-miterlimit:10" />
          </g>
          <path
             id="path247"
             d="M 152.288,166.477 C 121.226,154.451 147.275,134.415 143.27,115.375 139.26,94.334 108.198,111.371 93.169,102.351 76.485,92.34 86.403,52.717 87.53,29.334 64.68,35.939 46.559,45.945 34.285,56.976 c -29.681,26.675 -8.64,67.628 29.683,79.274 38.321,11.648 36.594,29.037 39.074,33.438 1.168,2.147 13.149,24.046 57.86,11.272 7.132,-2.038 14.132,-3.178 20.882,-3.596 -6.983,-13.479 -16.816,-6.01 -29.496,-10.887 z"
             stroke-miterlimit="10"
             inkscape:connector-curvature="0"
             style="fill:none;stroke:#f05a24;stroke-width:0.2;stroke-miterlimit:10" />
          <path
             id="path249"
             d="m 41.199,124.494 c 3.439,-4.52 6.4,-8.622 8.146,-12.125 10.133,-20.264 3.893,-42.955 -8.808,-60.523 -2.228,1.678 -4.305,3.39 -6.235,5.13 -23.032,20.697 -15.529,49.987 6.897,67.518 z"
             stroke-miterlimit="10"
             inkscape:connector-curvature="0"
             style="fill:none;stroke:#f05a24;stroke-width:0.2;stroke-miterlimit:10" />
          <path
             id="path251"
             d="m 304.061,124.978 c -0.828,-7.284 -4.319,-30.384 -21.273,-52.728 -34.547,19.573 -66.245,68.66 -22.03,74.188 21.042,3.006 30.063,4.008 34.068,29.055 0.311,2.879 0.616,5.586 0.959,8.135 2.999,-8.01 5.466,-15.602 7.146,-19.95 4.512,-11.647 2.631,-25.551 1.13,-38.7 z"
             stroke-miterlimit="10"
             inkscape:connector-curvature="0"
             style="fill:none;stroke:#f05a24;stroke-width:0.2;stroke-miterlimit:10" />
          <path
             id="path253"
             d="m 131.328,21.752 c -43.92,3.052 -77.713,17.863 -97.025,35.224 -0.974,0.871 -1.886,1.758 -2.746,2.653 22.615,31.471 98.666,4.803 99.771,-37.877 z"
             stroke-miterlimit="10"
             inkscape:connector-curvature="0"
             style="fill:none;stroke:#f05a24;stroke-width:0.2;stroke-miterlimit:10" />
          <path
             id="path255"
             d="m 39.33,103.352 c -5.007,0 -9.889,0.459 -14.586,1.32 6.854,14.004 21.112,26.07 39.239,31.578 38.321,11.648 36.59,29.037 39.07,33.438 0.26,0.478 1.06,1.938 2.634,3.775 1.156,-4.177 1.773,-8.528 1.773,-12.999 0.001,-31.542 -30.501,-57.112 -68.13,-57.112 z"
             stroke-miterlimit="10"
             inkscape:connector-curvature="0"
             style="fill:none;stroke:#f05a24;stroke-width:0.2;stroke-miterlimit:10" />
          <path
             id="path257"
             d="m 264.027,53.081 c -20.185,7.286 -43.813,14.257 -54.293,33.37 -7.516,15.029 -8.269,39.831 0,54.859 9.018,16.535 25.549,25.556 37.578,38.334 9.942,9.943 13.308,22.854 14.447,36.113 4.881,1.007 10.448,0.066 15.676,-1.735 10.897,-3.754 21.041,-38.695 25.551,-50.346 4.509,-11.646 2.629,-25.55 1.125,-38.699 -1.075,-9.439 -6.607,-45.403 -40.084,-71.896 z"
             stroke-miterlimit="10"
             inkscape:connector-curvature="0"
             style="fill:none;stroke:#f05a24;stroke-width:0.2;stroke-miterlimit:10" />
        </g>
        <g
           id="g259">
          <path
             id="path261"
             d="m 303.984,124.783 c -0.26,-2.266 -0.773,-6.053 -1.869,-10.873 -5.926,32.14 -29.85,59.983 -63.928,77.664 6.066,4.219 10.058,8.703 11.314,12.482 4.509,13.524 16.908,13.524 27.801,9.768 10.897,-3.756 21.047,-38.697 25.549,-50.344 4.51,-11.646 2.629,-25.546 1.133,-38.697 z"
             stroke-miterlimit="10"
             inkscape:connector-curvature="0"
             style="fill:none;stroke:#ff1f1f;stroke-width:0.2;stroke-miterlimit:10" />
        </g>
        <g
           id="g263">
          <path
             id="path265"
             d="m 160.826,179.506 c 20.031,-5.727 38.982,-4.213 54.08,0.382 -6.608,-10.994 -11.245,-23.435 -19.111,-33.812 -21.748,-28.698 -57.894,16.214 -88.568,26.472 5.665,6.327 20.291,16.472 53.599,6.958 z"
             stroke-miterlimit="10"
             inkscape:connector-curvature="0"
             style="fill:none;stroke:#ff1f1f;stroke-width:0.2;stroke-miterlimit:10" />
        </g>
        <path
           id="path267"
           d="m 262.051,54.209 c -19.777,7.137 -42.927,13.971 -53.197,32.695 -7.361,14.729 -8.102,39.023 0,53.753 8.834,16.2 25.035,25.037 36.818,37.554 9.746,9.746 13.042,22.396 14.153,35.389 4.782,0.981 10.243,0.066 15.364,-1.703 10.673,-3.68 20.611,-37.914 25.029,-49.324 4.422,-11.411 2.577,-25.032 1.105,-37.919 -1.052,-9.248 -6.471,-44.486 -39.272,-70.445 z"
           stroke-miterlimit="10"
           inkscape:connector-curvature="0"
           style="fill:none;stroke:#f05a24;stroke-width:0.2;stroke-miterlimit:10" />
        <g
           id="g269">
          <path
             id="path271"
             d="m 301.325,124.652 c -0.255,-2.216 -0.761,-5.927 -1.828,-10.65 -5.808,31.489 -29.249,58.774 -62.64,76.094 5.945,4.137 9.857,8.527 11.092,12.23 4.417,13.252 16.562,13.252 27.24,9.57 10.672,-3.681 20.611,-37.915 25.029,-49.326 4.425,-11.41 2.579,-25.031 1.107,-37.918 z"
             stroke-miterlimit="10"
             inkscape:connector-curvature="0"
             style="fill:none;stroke:#ff1f1f;stroke-width:0.2;stroke-miterlimit:10" />
        </g>
        <path
           id="path273"
           d="m 104.398,168.46 c -2.43,-4.313 -0.733,-21.351 -38.28,-32.763 C 28.571,124.289 7.953,84.16 37.039,58.025 66.118,31.89 128.695,11.644 209.316,30.05 c 80.617,18.404 90.557,81.719 92.022,94.602 1.478,12.887 3.316,26.508 -1.1,37.919 -4.419,11.411 -14.357,45.646 -25.034,49.326 -10.675,3.682 -22.825,3.682 -27.241,-9.57 -4.418,-13.253 -43.687,-35.33 -86.878,-22.869 -43.771,12.624 -55.534,-8.705 -56.687,-10.998 z"
           stroke-miterlimit="10"
           inkscape:connector-curvature="0"
           style="fill:none;stroke:#ff1f1f;stroke-width:0.2;stroke-miterlimit:10" />
        <path
           id="path275"
           d="m 36.952,58.025 c -29.081,26.135 -8.468,66.264 29.084,77.672 37.547,11.412 35.851,28.449 38.281,32.763 1.146,2.105 12.884,23.558 56.693,11.046 6.989,-2 13.848,-3.113 20.459,-3.523 -6.843,-13.207 -16.476,-5.893 -28.901,-10.67 C 122.133,153.532 147.656,133.9 143.729,115.245 139.805,94.63 109.371,111.321 94.648,102.487 78.298,92.675 88.014,53.856 89.12,30.944"
           stroke-miterlimit="10"
           inkscape:connector-curvature="0"
           style="fill:none;stroke:#ec1c24;stroke-width:0.2;stroke-miterlimit:10" />
        <path
           id="path277"
           d="m 200.447,52.452 c -11.297,0 -21.627,2.774 -29.586,7.36 l -0.951,0.566 c -7.382,4.412 -16.879,7.244 -27.344,7.715 0,18.008 15.992,45.717 57.881,45.717 25.146,0 45.531,-13.736 45.531,-30.68 0.001,-16.943 -20.385,-30.678 -45.531,-30.678 z"
           stroke-miterlimit="10"
           inkscape:connector-curvature="0"
           style="fill:none;stroke:#ff1f1f;stroke-width:0.2;stroke-miterlimit:10" />
        <path
           id="path279"
           d="m 217.545,32.143 c -2.721,-0.774 -5.527,-1.496 -8.426,-2.158 -17.008,-3.885 -33.207,-6.047 -48.461,-6.797 -2.604,18.971 -5.223,42.475 13.021,47.693 22.223,6.359 32.811,-16.361 43.866,-38.738 z"
           stroke-miterlimit="10"
           inkscape:connector-curvature="0"
           style="fill:none;stroke:#ff1f1f;stroke-width:0.2;stroke-miterlimit:10" />
        <path
           id="path281"
           d="m 281.792,202.102 c -11.401,-9.186 -10.911,-21.137 -14.957,-33.026 -4.702,-13.816 -22.411,-21.549 -36.295,-18.253 -16.837,3.993 -32.399,19.808 -49.331,3.569 -18.004,-17.277 15.677,-63.811 -22.691,-65.535 -20.306,-0.912 -31.719,18.35 -46.111,29.882 -10.071,8.075 -22.176,16.921 -34.907,19.429 -0.896,0.175 -1.915,0.359 -3.021,0.532 28.938,11.216 27.688,25.927 29.92,29.896 1.146,2.104 12.634,23.398 56.688,10.879 43.822,-12.454 82.46,9.732 86.878,22.984 4.416,13.256 16.566,13.256 27.241,9.573 2.903,-1.006 5.756,-4.268 8.455,-8.719 -0.708,-0.375 -1.334,-0.777 -1.869,-1.211 z"
           stroke-miterlimit="10"
           inkscape:connector-curvature="0"
           style="fill:none;stroke:#ff1f1f;stroke-width:0.2;stroke-miterlimit:10" />
        <path
           id="path283"
           d="m 301.021,122.119 c -2.192,-15.363 -12.941,-63.4 -70.404,-85.613 -10.967,8.63 -19.21,21.97 -20.852,34.58 -2.705,20.69 17.738,29.805 33.822,37.508 14.046,6.725 38.786,7.082 57.434,13.525 z"
           stroke-miterlimit="10"
           inkscape:connector-curvature="0"
           style="fill:none;stroke:#ff1f1f;stroke-width:0.2;stroke-miterlimit:10" />
        <path
           id="path285"
           d="m 43.728,124.247 c 3.372,-4.428 6.271,-8.451 7.987,-11.88 9.926,-19.856 3.811,-42.09 -8.635,-59.303 -2.176,1.645 -4.213,3.323 -6.107,5.027 -22.571,20.28 -15.214,48.979 6.755,66.156 z"
           stroke-miterlimit="10"
           inkscape:connector-curvature="0"
           style="fill:none;stroke:#ff1f1f;stroke-width:0.2;stroke-miterlimit:10" />
        <path
           id="path287"
           d="m 301.279,124.718 c -0.82,-7.139 -4.234,-29.771 -20.848,-51.663 -33.845,19.181 -64.904,67.273 -21.58,72.689 20.617,2.945 29.451,3.924 33.379,28.469 0.302,2.821 0.603,5.471 0.938,7.968 2.939,-7.845 5.355,-15.286 7.006,-19.544 4.416,-11.411 2.578,-25.033 1.105,-37.919 z"
           stroke-miterlimit="10"
           inkscape:connector-curvature="0"
           style="fill:none;stroke:#ff1f1f;stroke-width:0.2;stroke-miterlimit:10" />
        <path
           id="path289"
           d="m 36.973,58.092 c -0.953,0.85 -1.845,1.721 -2.69,2.604 22.161,30.832 96.675,4.702 97.754,-37.114"
           stroke-miterlimit="10"
           inkscape:connector-curvature="0"
           style="fill:none;stroke:#ff1f1f;stroke-width:0.2;stroke-miterlimit:10" />
        <path
           id="path291"
           d="m 41.897,103.533 c -4.905,0 -9.688,0.445 -14.29,1.288 6.716,13.729 20.685,25.544 38.445,30.942 37.546,11.412 35.85,28.448 38.279,32.764 0.26,0.469 1.04,1.896 2.584,3.693 1.136,-4.09 1.737,-8.35 1.737,-12.73 0.001,-30.906 -29.889,-55.957 -66.755,-55.957 z"
           stroke-miterlimit="10"
           inkscape:connector-curvature="0"
           style="fill:none;stroke:#ff1f1f;stroke-width:0.2;stroke-miterlimit:10" />
        <path
           id="path293"
           d="m 262.051,54.342 c -19.777,7.139 -42.927,13.969 -53.197,32.697 -7.361,14.723 -8.102,39.025 0,53.75 8.838,16.199 25.035,25.037 36.818,37.557 9.746,9.744 13.042,22.395 14.153,35.38 4.782,0.985 10.243,0.068 15.364,-1.695 10.673,-3.684 20.611,-37.917 25.029,-49.329 4.422,-11.412 2.577,-25.032 1.105,-37.914 -1.052,-9.25 -6.471,-44.489 -39.272,-70.446 z"
           stroke-miterlimit="10"
           inkscape:connector-curvature="0"
           style="fill:none;stroke:#ff1f1f;stroke-width:0.2;stroke-miterlimit:10" />
        <path
           id="path295"
           d="M 105.697,167.36 C 103.319,163.141 104.974,146.479 68.258,135.32 31.535,124.158 11.371,84.918 39.815,59.355 68.258,33.795 129.46,13.993 208.304,31.994 c 78.843,18.002 88.564,79.924 90.001,92.525 1.441,12.598 3.239,25.922 -1.08,37.078 -4.32,11.162 -14.041,44.644 -24.479,48.243 -10.438,3.6 -22.325,3.6 -26.646,-9.359 -4.313,-12.961 -42.117,-34.562 -84.963,-22.32 -42.84,12.241 -54.324,-8.743 -55.44,-10.801 z"
           stroke-miterlimit="10"
           inkscape:connector-curvature="0"
           style="fill:none;stroke:#f05a24;stroke-width:0.2;stroke-miterlimit:10" />
        <path
           id="path297"
           d="m 199.766,54.18 c -11.047,0 -21.154,2.709 -28.938,7.2 l -0.933,0.553 c -7.214,4.315 -16.508,7.082 -26.736,7.542 0,17.579 15.636,44.709 56.605,44.709 24.588,0 44.525,-13.432 44.525,-30.002 C 244.29,67.613 224.352,54.18 199.766,54.18 Z"
           stroke-miterlimit="10"
           inkscape:connector-curvature="0"
           style="fill:none;stroke:#f05a24;stroke-width:0.2;stroke-miterlimit:10" />
        <path
           id="path299"
           d="M 297.988,122.043 C 295.842,107.01 285.339,60.035 229.134,38.309 218.41,46.748 210.352,59.795 208.74,72.127 c -2.645,20.236 17.353,29.15 33.08,36.684 13.741,6.574 37.93,6.926 56.168,13.232 z"
           stroke-miterlimit="10"
           inkscape:connector-curvature="0"
           style="fill:none;stroke:#f05a24;stroke-width:0.2;stroke-miterlimit:10" />
        <path
           id="path301"
           d="m 216.541,34.107 c -2.66,-0.758 -5.406,-1.464 -8.236,-2.113 -16.631,-3.796 -32.475,-5.912 -47.396,-6.646 -2.547,18.554 -5.064,41.644 12.838,46.55 21.689,5.944 31.987,-15.906 42.794,-37.791 z"
           stroke-miterlimit="10"
           inkscape:connector-curvature="0"
           style="fill:none;stroke:#f05a24;stroke-width:0.2;stroke-miterlimit:10" />
        <path
           id="path303"
           d="m 279.184,200.133 c -11.151,-8.982 -10.673,-20.67 -14.625,-32.299 -4.602,-13.516 -21.924,-21.077 -35.5,-17.854 -16.461,3.911 -31.688,19.373 -48.24,3.489 -17.612,-16.895 15.324,-62.404 -22.197,-64.088 -19.858,-0.895 -31.021,17.945 -45.092,29.225 -9.853,7.896 -21.688,16.547 -34.144,18.998 -0.877,0.174 -1.869,0.35 -2.955,0.521 28.306,10.969 27.083,25.358 29.268,29.235 1.116,2.058 12.6,23.042 55.438,10.8 42.846,-12.24 80.648,9.359 84.963,22.32 4.319,12.959 16.207,12.959 26.646,9.359 2.843,-0.979 5.63,-4.175 8.271,-8.525 -0.697,-0.363 -1.308,-0.757 -1.833,-1.181 z"
           stroke-miterlimit="10"
           inkscape:connector-curvature="0"
           style="fill:none;stroke:#f05a24;stroke-width:0.2;stroke-miterlimit:10" />
        <g
           id="g305">
          <path
             id="path307"
             d="m 161.137,178.16 c 19.59,-5.595 38.123,-4.115 52.889,0.379 -6.467,-10.757 -10.995,-22.922 -18.688,-33.072 -21.268,-28.066 -56.759,15.882 -86.761,25.915 5.542,6.187 19.985,16.086 52.56,6.778 z"
             stroke-miterlimit="10"
             inkscape:connector-curvature="0"
             style="fill:none;stroke:#f05a24;stroke-width:0.2;stroke-miterlimit:10" />
        </g>
        <path
           id="path309"
           d="M 152.864,164.281 C 123.094,152.76 148.059,133.557 144.218,115.319 140.376,95.154 110.614,111.478 96.217,102.838 80.225,93.244 89.732,55.276 90.811,32.865 68.915,39.201 51.553,48.787 39.79,59.355 c -28.438,25.562 -8.278,64.803 28.443,75.965 36.722,11.159 35.061,27.821 37.439,32.04 1.121,2.058 12.604,23.042 55.444,10.8 6.837,-1.953 13.548,-3.041 20.013,-3.442 -6.695,-12.916 -16.114,-5.761 -28.265,-10.437 z"
           stroke-miterlimit="10"
           inkscape:connector-curvature="0"
           style="fill:none;stroke:#f05a24;stroke-width:0.2;stroke-miterlimit:10" />
        <path
           id="path311"
           d="m 46.422,124.054 c 3.303,-4.328 6.134,-8.261 7.811,-11.618 9.71,-19.416 3.729,-41.16 -8.441,-57.995 -2.13,1.608 -4.122,3.249 -5.977,4.915 -22.071,19.832 -14.877,47.904 6.607,64.698 z"
           stroke-miterlimit="10"
           inkscape:connector-curvature="0"
           style="fill:none;stroke:#f05a24;stroke-width:0.2;stroke-miterlimit:10" />
        <path
           id="path313"
           d="m 298.305,124.52 c -0.796,-6.984 -4.138,-29.119 -20.384,-50.528 -33.104,18.759 -63.479,65.792 -21.106,71.091 20.158,2.879 28.8,3.839 32.641,27.841 0.297,2.757 0.591,5.351 0.918,7.79 2.873,-7.67 5.242,-14.948 6.852,-19.115 4.318,-11.158 2.52,-24.482 1.079,-37.079 z"
           stroke-miterlimit="10"
           inkscape:connector-curvature="0"
           style="fill:none;stroke:#f05a24;stroke-width:0.2;stroke-miterlimit:10" />
        <path
           id="path315"
           d="m 39.814,59.355 c -0.928,0.836 -1.804,1.684 -2.629,2.547 21.674,30.152 94.546,4.601 95.604,-36.299"
           stroke-miterlimit="10"
           inkscape:connector-curvature="0"
           style="fill:none;stroke:#f05a24;stroke-width:0.2;stroke-miterlimit:10" />
        <path
           id="path317"
           d="m 44.633,103.795 c -4.799,0 -9.475,0.438 -13.979,1.264 6.572,13.424 20.231,24.984 37.604,30.262 36.717,11.159 35.062,27.821 37.439,32.04 0.251,0.458 1.015,1.856 2.521,3.616 1.111,-4 1.697,-8.17 1.697,-12.455 10e-4,-30.225 -29.227,-54.727 -65.282,-54.727 z"
           stroke-miterlimit="10"
           inkscape:connector-curvature="0"
           style="fill:none;stroke:#f05a24;stroke-width:0.2;stroke-miterlimit:10" />
        <path
           id="path319"
           d="m 259.938,55.625 c -19.34,6.979 -41.983,13.66 -52.026,31.975 -7.203,14.402 -7.922,38.168 0,52.57 8.641,15.842 24.483,24.484 36.01,36.727 9.531,9.533 12.751,21.902 13.841,34.609 4.678,0.959 10.016,0.065 15.024,-1.665 10.442,-3.6 20.165,-37.081 24.479,-48.243 4.325,-11.156 2.521,-24.48 1.084,-37.078 -1.036,-9.047 -6.338,-43.508 -38.412,-68.895 z"
           stroke-miterlimit="10"
           inkscape:connector-curvature="0"
           style="fill:none;stroke:#f05a24;stroke-width:0.2;stroke-miterlimit:10" />
        <g
           id="g321">
          <path
             id="path323"
             d="m 298.35,124.52 c -0.248,-2.17 -0.742,-5.803 -1.793,-10.418 -5.676,30.796 -28.602,57.477 -61.257,74.416 5.812,4.045 9.64,8.34 10.847,11.963 4.319,12.961 16.201,12.961 26.64,9.36 10.442,-3.6 20.165,-37.081 24.479,-48.243 4.325,-11.157 2.521,-24.481 1.084,-37.078 z"
             stroke-miterlimit="10"
             inkscape:connector-curvature="0"
             style="fill:none;stroke:#f05a24;stroke-width:0.2;stroke-miterlimit:10" />
        </g>
        <path
           id="path325"
           d="M 107.068,166.396 C 104.735,162.26 106.319,145.994 70.326,135.052 34.323,124.112 14.561,85.642 42.443,60.585 70.326,35.526 130.319,16.115 207.61,33.765 c 77.291,17.645 86.681,78.42 88.091,90.771 1.411,12.352 3.123,25.272 -1.115,36.213 -4.233,10.941 -14.183,43.91 -23.802,47.358 -10.189,3.65 -21.883,3.527 -26.114,-9.178 -4.233,-12.703 -41.292,-33.879 -83.292,-21.88 -42.001,12.001 -53.215,-8.635 -54.31,-10.653 z"
           stroke-miterlimit="10"
           inkscape:connector-curvature="0"
           style="fill:none;stroke:#faaf3b;stroke-width:0.2;stroke-miterlimit:10" />
        <path
           id="path327"
           d="m 199.178,55.855 c -10.824,0 -20.732,2.656 -28.365,7.055 l -0.912,0.546 c -7.071,4.229 -16.182,6.944 -26.211,7.395 0,16.794 15.329,43.828 55.489,43.828 24.107,0 43.651,-13.168 43.651,-29.413 -0.001,-16.243 -19.545,-29.411 -43.652,-29.411 z"
           stroke-miterlimit="10"
           inkscape:connector-curvature="0"
           style="fill:none;stroke:#faaf3b;stroke-width:0.2;stroke-miterlimit:10" />
        <path
           id="path329"
           d="m 295.334,121.972 c -2.1,-14.735 -12.398,-60.788 -67.493,-82.083 -10.516,8.273 -18.417,21.063 -19.995,33.152 -2.589,19.836 17.01,28.578 32.432,35.961 13.464,6.447 37.178,6.788 55.056,12.97 z"
           stroke-miterlimit="10"
           inkscape:connector-curvature="0"
           style="fill:none;stroke:#faaf3b;stroke-width:0.2;stroke-miterlimit:10" />
        <path
           id="path331"
           d="m 215.491,35.767 c -2.608,-0.741 -5.298,-1.437 -8.075,-2.067 -16.303,-3.725 -31.836,-5.799 -46.457,-6.516 -2.501,18.188 -4.968,40.819 12.579,45.631 21.265,5.829 31.362,-15.594 41.953,-37.048 z"
           stroke-miterlimit="10"
           inkscape:connector-curvature="0"
           style="fill:none;stroke:#faaf3b;stroke-width:0.2;stroke-miterlimit:10" />
        <path
           id="path333"
           d="m 276.902,198.523 c -10.93,-8.804 -10.461,-20.265 -14.344,-31.663 -4.509,-13.248 -21.482,-20.664 -34.795,-17.504 -16.14,3.832 -31.062,18.994 -47.293,3.422 -17.267,-16.562 15.022,-61.176 -21.76,-62.827 -19.466,-0.875 -30.41,17.592 -44.201,28.65 -9.664,7.741 -21.265,16.224 -33.471,18.624 -0.86,0.17 -1.839,0.343 -2.899,0.512 27.746,10.752 27.2,24.686 28.82,28.567 0.678,1.625 12.186,22.772 54.182,10.772 42,-12 79.094,9.084 83.327,21.789 4.238,12.704 15.981,12.804 26.217,9.274 2.787,-0.963 5.422,-4.192 8.01,-8.457 -0.677,-0.356 -1.278,-0.743 -1.793,-1.159 z"
           stroke-miterlimit="10"
           inkscape:connector-curvature="0"
           style="fill:none;stroke:#faaf3b;stroke-width:0.2;stroke-miterlimit:10" />
        <g
           id="g335">
          <path
             id="path337"
             d="m 161.143,177.078 c 19.207,-5.486 37.409,-4.129 51.884,0.277 -6.34,-10.545 -10.781,-22.47 -18.32,-32.422 -20.848,-27.51 -55.495,15.509 -84.908,25.346 5.436,6.063 19.411,15.926 51.344,6.799 z"
             stroke-miterlimit="10"
             inkscape:connector-curvature="0"
             style="fill:none;stroke:#faaf3b;stroke-width:0.2;stroke-miterlimit:10" />
        </g>
        <path
           id="path339"
           d="M 153.321,163.381 C 124.145,152.086 148.619,133.262 144.854,115.379 141.09,95.613 111.908,111.614 97.791,103.143 82.12,93.742 91.418,56.593 92.478,34.627 71.014,40.834 54.013,50.159 42.48,60.523 c -27.879,25.055 -8.117,63.524 27.882,74.466 35.999,10.938 34.593,27.16 36.707,31.408 1.095,2.211 12.35,22.589 54.349,10.588 6.705,-1.914 13.275,-2.98 19.614,-3.375 -6.557,-12.663 -15.795,-5.649 -27.711,-10.229 z"
           stroke-miterlimit="10"
           inkscape:connector-curvature="0"
           style="fill:none;stroke:#faaf3b;stroke-width:0.2;stroke-miterlimit:10" />
        <path
           id="path341"
           d="m 48.924,123.943 c 3.23,-4.242 6.012,-8.101 7.652,-11.388 9.521,-19.036 3.658,-40.351 -8.278,-56.854 -2.084,1.575 -4.041,3.186 -5.854,4.821 -21.638,19.441 -14.581,46.957 6.48,63.421 z"
           stroke-miterlimit="10"
           inkscape:connector-curvature="0"
           style="fill:none;stroke:#faaf3b;stroke-width:0.2;stroke-miterlimit:10" />
        <path
           id="path343"
           d="m 295.645,124.4 c -0.778,-6.845 -4.055,-28.545 -19.98,-49.535 -32.452,18.389 -62.229,64.5 -20.694,69.692 19.769,2.821 28.239,3.764 31.999,27.29 0.292,2.705 0.582,5.248 0.901,7.643 2.817,-7.525 5.137,-14.656 6.716,-18.74 4.236,-10.94 2.47,-23.998 1.058,-36.35 z"
           stroke-miterlimit="10"
           inkscape:connector-curvature="0"
           style="fill:none;stroke:#faaf3b;stroke-width:0.2;stroke-miterlimit:10" />
        <path
           id="path345"
           d="m 42.245,60.522 c -0.912,0.813 -1.769,1.647 -2.577,2.489 21.248,29.562 92.686,4.512 93.725,-35.579"
           stroke-miterlimit="10"
           inkscape:connector-curvature="0"
           style="fill:none;stroke:#faaf3b;stroke-width:0.2;stroke-miterlimit:10" />
        <path
           id="path347"
           d="m 46.968,104.086 c -4.702,0 -9.282,0.428 -13.7,1.238 6.439,13.156 19.834,24.488 36.859,29.664 35.998,10.938 34.572,27.051 36.9,31.352 0.244,0.449 0.881,1.673 2.363,3.396 1.091,-3.922 1.581,-7.805 1.581,-12.005 10e-4,-29.63 -28.657,-53.645 -64.003,-53.645 z"
           stroke-miterlimit="10"
           inkscape:connector-curvature="0"
           style="fill:none;stroke:#faaf3b;stroke-width:0.2;stroke-miterlimit:10" />
        <path
           id="path349"
           d="m 258.032,56.864 c -18.964,6.839 -41.16,13.392 -51.003,31.341 -7.062,14.122 -7.771,37.418 0,51.537 8.472,15.53 24.001,24.001 35.295,36.004 9.345,9.344 12.507,21.471 13.572,33.925 4.586,0.946 9.914,0.249 14.789,-1.528 9.816,-3.578 19.705,-36.451 23.939,-47.393 4.232,-10.94 2.471,-23.998 1.061,-36.35 -1.014,-8.868 -6.21,-42.652 -37.653,-67.536 z"
           stroke-miterlimit="10"
           inkscape:connector-curvature="0"
           style="fill:none;stroke:#faaf3b;stroke-width:0.2;stroke-miterlimit:10" />
        <g
           id="g351">
          <path
             id="path353"
             d="m 295.686,124.4 c -0.244,-2.127 -0.729,-5.688 -1.758,-10.213 -5.562,30.191 -28.041,56.348 -60.051,72.952 5.701,3.967 9.445,8.178 10.634,11.729 4.238,12.703 15.972,12.88 26.177,9.273 9.848,-3.48 19.705,-36.45 23.938,-47.392 4.233,-10.939 2.472,-23.997 1.06,-36.349 z"
             stroke-miterlimit="10"
             inkscape:connector-curvature="0"
             style="fill:none;stroke:#faaf3b;stroke-width:0.2;stroke-miterlimit:10" />
        </g>
        <path
           id="path355"
           d="M 108.388,165.299 C 106.111,161.258 107.7,145.298 72.528,134.608 37.354,123.92 18.046,86.335 45.287,61.851 72.528,37.367 131.145,18.405 206.664,35.643 c 75.516,17.242 84.829,76.554 86.211,88.619 1.375,12.07 3.104,24.829 -1.04,35.521 -4.138,10.688 -13.444,42.754 -23.446,46.205 -9.998,3.445 -21.382,3.445 -25.518,-8.967 -4.137,-12.413 -40.346,-33.105 -81.376,-21.377 -41.039,11.723 -52.037,-8.374 -53.107,-10.345 z"
           stroke-miterlimit="10"
           inkscape:connector-curvature="0"
           style="fill:none;stroke:#ffd194;stroke-width:0.2;stroke-miterlimit:10" />
        <path
           id="path357"
           d="m 198.562,57.581 c -10.582,0 -20.263,2.597 -27.715,6.898 l -0.896,0.529 c -6.908,4.13 -15.809,6.784 -25.605,7.226 0,16.688 14.978,42.822 54.215,42.822 23.554,0 42.644,-12.867 42.644,-28.739 0,-15.872 -19.091,-28.736 -42.643,-28.736 z"
           stroke-miterlimit="10"
           inkscape:connector-curvature="0"
           style="fill:none;stroke:#ffd194;stroke-width:0.2;stroke-miterlimit:10" />
        <path
           id="path359"
           d="M 292.566,121.891 C 290.513,107.496 280.447,62.5 226.622,41.692 c -10.274,8.086 -17.999,20.583 -19.537,32.393 -2.532,19.379 16.618,27.924 31.685,35.135 13.158,6.298 36.33,6.634 53.796,12.671 z"
           stroke-miterlimit="10"
           inkscape:connector-curvature="0"
           style="fill:none;stroke:#ffd194;stroke-width:0.2;stroke-miterlimit:10" />
        <path
           id="path361"
           d="m 214.559,37.668 c -2.552,-0.73 -5.176,-1.404 -7.896,-2.025 -15.927,-3.635 -31.104,-5.66 -45.389,-6.363 -2.445,17.768 -4.854,39.882 12.289,44.582 20.776,5.693 30.638,-15.235 40.996,-36.194 z"
           stroke-miterlimit="10"
           inkscape:connector-curvature="0"
           style="fill:none;stroke:#ffd194;stroke-width:0.2;stroke-miterlimit:10" />
        <path
           id="path363"
           d="m 274.559,196.688 c -10.68,-8.602 -10.221,-19.798 -14.015,-30.938 -4.403,-12.941 -20.991,-20.184 -33.998,-17.102 -15.769,3.746 -30.348,18.557 -46.208,3.344 -16.867,-16.182 14.684,-59.771 -21.254,-61.385 -19.022,-0.855 -29.712,17.186 -43.192,27.992 -9.439,7.562 -20.774,15.85 -32.702,18.199 -0.84,0.162 -1.793,0.332 -2.832,0.495 27.108,10.505 25.937,24.29 28.03,28.005 1.07,1.971 12.068,22.068 53.106,10.346 41.031,-11.729 77.238,8.965 81.376,21.377 4.136,12.412 15.519,12.412 25.519,8.967 2.721,-0.938 5.392,-4 7.918,-8.168 -0.659,-0.351 -1.248,-0.724 -1.748,-1.132 z"
           stroke-miterlimit="10"
           inkscape:connector-curvature="0"
           style="fill:none;stroke:#ffd194;stroke-width:0.2;stroke-miterlimit:10" />
        <g
           id="g365">
          <path
             id="path367"
             d="m 161.494,175.645 c 18.758,-5.362 36.512,-3.944 50.648,0.355 -6.188,-10.301 -10.523,-21.95 -17.896,-31.673 -20.369,-26.882 -54.365,15.212 -83.099,24.821 5.311,5.926 19.142,15.41 50.347,6.497 z"
             stroke-miterlimit="10"
             inkscape:connector-curvature="0"
             style="fill:none;stroke:#ffd194;stroke-width:0.2;stroke-miterlimit:10" />
        </g>
        <path
           id="path369"
           d="M 153.552,162.35 C 125.047,151.316 148.957,132.923 145.279,115.452 141.6,96.138 113.091,111.773 99.3,103.499 83.986,94.31 93.085,57.944 94.124,36.478 73.149,42.548 56.52,51.725 45.256,61.851 c -27.245,24.483 -7.933,62.068 27.241,72.757 35.169,10.69 33.584,26.65 35.861,30.691 1.07,1.971 12.069,22.068 53.101,10.346 6.552,-1.873 12.977,-2.915 19.166,-3.303 -6.405,-12.369 -15.433,-5.518 -27.073,-9.992 z"
           stroke-miterlimit="10"
           inkscape:connector-curvature="0"
           style="fill:none;stroke:#ffd194;stroke-width:0.2;stroke-miterlimit:10" />
        <path
           id="path371"
           d="m 51.619,123.819 c 3.158,-4.144 5.873,-7.915 7.479,-11.129 9.303,-18.598 3.572,-39.423 -8.09,-55.546 -2.039,1.537 -3.943,3.109 -5.722,4.706 -21.138,18.998 -14.245,45.88 6.333,61.969 z"
           stroke-miterlimit="10"
           inkscape:connector-curvature="0"
           style="fill:none;stroke:#ffd194;stroke-width:0.2;stroke-miterlimit:10" />
        <path
           id="path373"
           d="m 292.874,124.262 c -0.767,-6.688 -3.97,-27.887 -19.529,-48.396 -31.708,17.97 -60.798,63.021 -20.215,68.09 19.31,2.761 27.587,3.678 31.267,26.669 0.279,2.643 0.564,5.127 0.875,7.465 2.758,-7.349 5.02,-14.318 6.562,-18.307 4.143,-10.692 2.415,-23.451 1.04,-35.521 z"
           stroke-miterlimit="10"
           inkscape:connector-curvature="0"
           style="fill:none;stroke:#ffd194;stroke-width:0.2;stroke-miterlimit:10" />
        <path
           id="path375"
           d="m 45.286,61.851 c -0.892,0.801 -1.728,1.61 -2.517,2.436 20.755,28.882 90.556,4.407 91.57,-34.766"
           stroke-miterlimit="10"
           inkscape:connector-curvature="0"
           style="fill:none;stroke:#ffd194;stroke-width:0.2;stroke-miterlimit:10" />
        <path
           id="path377"
           d="m 49.901,104.416 c -4.595,0 -9.073,0.418 -13.388,1.207 6.291,12.857 19.379,23.931 36.014,28.984 35.173,10.69 33.583,26.65 35.86,30.691 0.239,0.439 0.974,1.777 2.415,3.463 1.064,-3.831 1.631,-7.826 1.631,-11.93 10e-4,-28.949 -27.995,-52.415 -62.532,-52.415 z"
           stroke-miterlimit="10"
           inkscape:connector-curvature="0"
           style="fill:none;stroke:#ffd194;stroke-width:0.2;stroke-miterlimit:10" />
        <path
           id="path379"
           d="m 256.177,58.341 c -18.522,6.685 -40.212,13.086 -49.831,30.626 -6.896,13.797 -7.584,36.557 0,50.354 8.28,15.176 23.457,23.452 34.492,35.178 9.128,9.129 12.217,20.978 13.26,33.146 4.479,0.922 9.594,0.063 14.387,-1.59 10.002,-3.447 19.213,-35.583 23.351,-46.271 4.144,-10.692 2.517,-23.385 1.138,-35.452 -0.992,-8.666 -6.072,-41.674 -36.797,-65.991 z"
           stroke-miterlimit="10"
           inkscape:connector-curvature="0"
           style="fill:none;stroke:#ffd194;stroke-width:0.2;stroke-miterlimit:10" />
        <g
           id="g381">
          <path
             id="path383"
             d="m 292.902,124.262 c -0.238,-2.076 -0.707,-5.555 -1.717,-9.978 -5.436,29.499 -27.394,55.056 -58.668,71.278 5.567,3.877 9.231,7.987 10.388,11.459 4.138,12.412 15.519,12.412 25.514,8.967 10.001,-3.451 19.171,-35.246 23.31,-45.935 4.134,-10.69 2.555,-23.721 1.173,-35.791 z"
             stroke-miterlimit="10"
             inkscape:connector-curvature="0"
             style="fill:none;stroke:#ffd194;stroke-width:0.2;stroke-miterlimit:10" />
        </g>
      </g>
    </g>
  </g>
</svg>
